M48
;Layer_Color=9474304
;FILE_FORMAT=2:4
INCH,LZ
;TYPE=PLATED
T1F00S00C0.0119
T2F00S00C0.0402
;TYPE=NON_PLATED
T3F00S00C0.1181
%
T01
X01388Y01295
X01408Y01277
X01427Y01297
X01428Y01335
X01448Y01316
X01467Y01336
X01487Y01317
Y01356
X01507Y01337
Y01376
X01527Y01357
X01528Y01395
X01548Y01376
Y01336
Y01297
X01528Y01316
Y01277
X01508Y01296
X01489Y01276
X01468Y01257
X01449Y01237
X01488
X01469Y01216
X01491Y01198
X0151Y01218
X01509Y01256
X01531Y01237
X0155Y01257
X01551Y01217
X0153Y01198
X01428Y01256
X01447Y01277
X01468Y01296
X01467Y01376
X01447Y01395
Y01356
X01427Y01375
X01408Y01355
X01407Y01316
X01368
X01387Y01336
X01373Y01406
X01352Y01387
X01332Y01369
X01313Y01387
X01332Y01407
X01331Y01445
X0131Y01426
X01271
X0129Y01446
Y01485
X01269Y01466
X0123
X0121Y01484
X01229Y01505
X01249Y01486
X0125Y01524
X0127Y01505
X01289Y01525
X01309Y01506
Y01545
X01329Y01526
X01349Y01546
X0135Y01505
Y01466
X0133Y01485
X01311Y01465
X01291Y01405
X0125Y01445
X0123Y01544
X01209Y01525
X01269Y01545
X0137Y01525
Y01486
X0139Y01506
X01391Y01544
X01411Y01525
X01412Y01486
Y01447
X01392Y01466
Y01427
X01372Y01446
X01353Y01426
X01432Y01467
X01433Y01505
X01453Y01486
X01472Y01507
X01453Y01527
X0143Y01546
X01467Y01415
X01487Y01396
X01488Y01434
X01508Y01415
X01527Y01436
X01508Y01456
X01548Y01417
X01567Y01397
X01589Y01377
X01608Y01357
X01589Y01336
X01569Y01355
X01568Y01317
X0159Y01297
Y01258
X0157Y01277
Y01238
X0161Y01278
X01611Y01316
X01631Y01297
X0165Y01318
X01631Y01338
X02018Y01414
X02046
X02074Y01413
X02075Y01442
X02047
X02019
X02143Y01345
X02169Y01358
X02259Y01365
X02284Y01381
X02333Y01526
X02362Y01549
X02532Y01493
X02561
X03024Y01417
X03023Y0139
Y01363
X03051
Y0139
X03052Y01417
X03081
X0308Y0139
Y01363
X03108
Y0139
X03109Y01417
X03138
X03137Y0139
Y01363
X03166
Y0139
X03167Y01417
X03196
X03195Y0139
Y01363
X03223
Y0139
X03224Y01417
X03207Y02545
X03182
X03157
X03132
X03133Y0257
Y02595
Y0262
X03158
X03183
X03208
Y02595
X03183
X03158
Y0257
X03183
X03208
X03108
Y02595
Y0262
X03083
X03058
Y02595
X03083
Y0257
X03058
X03057Y02545
X03082
X03107
X02931Y02527
X02799Y02523
X02714Y0242
X0269Y02411
X02694Y02436
X02669Y02429
X02666Y02405
X02646Y02424
X02649Y02448
X02625Y02444
X02632Y02467
X02657Y02472
X02675Y02454
X02638Y02492
X02574Y02443
X02559Y02581
X0253Y02582
X02388Y02635
X02384Y02752
X02214Y02661
X02064Y02623
X02074Y02554
X02055Y02535
X02036Y02516
X02016Y02496
X02035Y02423
Y02396
Y02367
Y02339
X02082Y02118
Y02089
X02111
X02059Y02048
X02031Y02047
X01992Y01986
X01979Y01923
X02013Y01924
X02051Y01933
Y01908
X02053Y01861
X0208Y01862
X02142Y01971
Y01997
X01827Y02009
X01834Y02036
X01868Y02092
X01894Y02086
X01889Y02111
X0183Y02581
X01804Y02594
X01803Y02569
X01774Y02596
Y02621
X01775Y02646
X01606Y02638
X01579Y02627
X01575Y02599
X01604
X01625Y02618
X01586Y02658
X01567Y02348
X02026Y02735
X02051
X0205Y02759
X02025
Y02784
X0205
Y02809
X02025
X02076
Y02784
Y02759
X02077Y02735
X02455Y0225
X02548
X02547Y02283
X02551Y02167
Y02139
X02552Y02074
Y02047
X02568Y02015
X02549Y01994
X02569Y01975
Y01936
X0255Y01915
X02569Y01896
X0255Y01876
X02569Y01857
X0255Y01837
X02569Y01818
X0255Y01797
X02569Y01778
X0255Y01758
X02556Y01714
Y01689
X02609Y01579
X02627Y01596
X02646Y01612
X02665Y0163
X02739Y01795
X02756Y01822
X02793Y01853
X02825Y01875
X028495Y019345
X02737Y01946
X02739Y02064
X02787Y02102
X02783Y02129
X02809Y02123
X02806Y0215
X02833Y02148
X02664Y0213
Y021
X02632Y02069
X02639Y02043
X02487Y02178
X01497Y02191
X01476Y02171
X01475Y02142
X01467Y02094
X01459Y02066
X01434Y02049
X01397Y0203
X01371Y02048
X01268Y02143
X01244Y02155
X01254Y02179
X0128Y02168
X01294Y02194
X01268Y02204
X01145Y02244
X01112
X01084Y0225
X01096Y0222
X01072Y02203
X01086Y02159
X01117Y02178
X01159Y02143
X01149Y02278
X01121Y02281
X01093Y02283
X01112Y02307
X0114Y02305
X01143Y02341
X01116
X01127Y02367
X01156
X01173Y02342
Y02398
X01148Y0241
X01169Y02444
X01193Y02423
X01198Y02384
X01213Y02463
X01243Y0246
X01228Y02487
X01194Y02482
X01209Y02512
X01388Y02559
X01413Y02547
X01412Y02577
X01433Y02527
X01458Y02517
X01443Y02461
X01399Y02365
X01387Y02339
X01362Y02351
X01373Y02377
X01347Y02387
X01336Y02362
X01541Y02348
X01476Y02703
X01255Y01931
X01226
Y01959
X01197
Y01931
X01168
Y01959
X01169Y01987
X0114
X01111
X01082
X01053
X01052Y01959
Y01931
X01081
Y01959
X0111
Y01931
X01139
Y01959
X01198Y01987
X01249Y01564
X01269Y01584
X01289Y01565
Y01604
X01309Y01585
X0131Y01623
X0133Y01604
X01349Y01625
X0133Y01645
X0137Y01606
X01389Y01586
X0137Y01565
X0135Y01584
X01329Y01565
X01411Y01566
T02
X030567Y015139
Y016321
T03
X03226Y01573
M30
