G04*
G04 #@! TF.GenerationSoftware,Altium Limited,Altium Designer,22.5.1 (42)*
G04*
G04 Layer_Color=16711935*
%FSTAX24Y24*%
%MOIN*%
G70*
G04*
G04 #@! TF.SameCoordinates,090E5D1A-85BE-42B9-9E0A-55F43D75D69B*
G04*
G04*
G04 #@! TF.FilePolarity,Positive*
G04*
G01*
G75*
%ADD110C,0.0020*%
D110*
X024602Y017265D02*
X024858D01*
X024602Y016655D02*
X024858D01*
Y017265D01*
X024602Y016655D02*
Y017265D01*
X028112Y018732D02*
Y018988D01*
X027502Y018732D02*
Y018988D01*
Y018732D02*
X028112D01*
X027502Y018988D02*
X028112D01*
X013935Y025431D02*
X014371Y024995D01*
X013749Y025245D02*
X014185Y024809D01*
X013749Y025245D02*
X013935Y025431D01*
X014185Y024809D02*
X014371Y024995D01*
X017422Y025095D02*
X017678D01*
X017422Y025705D02*
X017678D01*
X017422Y025095D02*
Y025705D01*
X017678Y025095D02*
Y025705D01*
X018145Y027522D02*
Y027778D01*
X018755Y027522D02*
Y027778D01*
X018145D02*
X018755D01*
X018145Y027522D02*
X018755D01*
X014706Y027419D02*
X014886Y027599D01*
X015137Y026987D02*
X015317Y027168D01*
X014886Y027599D02*
X015317Y027168D01*
X014706Y027419D02*
X015137Y026987D01*
X015495Y027334D02*
X015676Y027515D01*
X015064Y027765D02*
X015245Y027946D01*
X015064Y027765D02*
X015495Y027334D01*
X015245Y027946D02*
X015676Y027515D01*
X019396Y026025D02*
X020004D01*
X019396Y027183D02*
X020004D01*
X019396Y026025D02*
Y027183D01*
X020004Y026025D02*
Y027183D01*
X020168Y026658D02*
X020431D01*
X020168Y026042D02*
X020431D01*
Y026658D01*
X020168Y026042D02*
Y026658D01*
X027318Y025742D02*
X027582D01*
X027318Y026358D02*
X027582D01*
X027318Y025742D02*
Y026358D01*
X027582Y025742D02*
Y026358D01*
X017933Y025089D02*
Y025506D01*
X018961Y025089D02*
Y025506D01*
X017933D02*
X018961D01*
X017933Y025089D02*
X018961D01*
X015305Y026809D02*
X015491Y026995D01*
X01574Y026374D02*
X015926Y02656D01*
X015491Y026995D02*
X015926Y02656D01*
X015305Y026809D02*
X01574Y026374D01*
X019471Y020646D02*
X020629D01*
X019471Y021254D02*
X020629D01*
Y020646D02*
Y021254D01*
X019471Y020646D02*
Y021254D01*
X019404Y021739D02*
X020431D01*
X019404Y022156D02*
X020431D01*
Y021739D02*
Y022156D01*
X019404Y021739D02*
Y022156D01*
X019086Y019427D02*
Y020273D01*
X018714Y019427D02*
Y020273D01*
X019086D01*
X018714Y019427D02*
X019086D01*
X021086D02*
Y020273D01*
X020714Y019427D02*
Y020273D01*
X021086D01*
X020714Y019427D02*
X021086D01*
X019944Y018257D02*
Y019103D01*
X020316Y018257D02*
Y019103D01*
X019944Y018257D02*
X020316D01*
X019944Y019103D02*
X020316D01*
X019394Y018257D02*
Y019103D01*
X019766Y018257D02*
Y019103D01*
X019394Y018257D02*
X019766D01*
X019394Y019103D02*
X019766D01*
X011394Y020269D02*
X011811D01*
X011394Y021297D02*
X011811D01*
X011394Y020269D02*
Y021297D01*
X011811Y020269D02*
Y021297D01*
X010644Y020284D02*
X011061D01*
X010644Y021312D02*
X011061D01*
X010644Y020284D02*
Y021312D01*
X011061Y020284D02*
Y021312D01*
X012244Y021283D02*
X012616D01*
X012244Y020437D02*
X012616D01*
Y021283D01*
X012244Y020437D02*
Y021283D01*
X012149Y019126D02*
X012566D01*
X012149Y018098D02*
X012566D01*
Y019126D01*
X012149Y018098D02*
Y019126D01*
X011399D02*
X011816D01*
X011399Y018098D02*
X011816D01*
Y019126D01*
X011399Y018098D02*
Y019126D01*
X010649D02*
X011066D01*
X010649Y018098D02*
X011066D01*
Y019126D01*
X010649Y018098D02*
Y019126D01*
X012869Y025736D02*
X013286D01*
X012869Y024708D02*
X013286D01*
Y025736D01*
X012869Y024708D02*
Y025736D01*
X027495Y019588D02*
X028105D01*
X027495Y019332D02*
X028105D01*
X027495D02*
Y019588D01*
X028105Y019332D02*
Y019588D01*
X024695Y021922D02*
X025305D01*
X024695Y022178D02*
X025305D01*
Y021922D02*
Y022178D01*
X024695Y021922D02*
Y022178D01*
Y022372D02*
X025305D01*
X024695Y022628D02*
X025305D01*
Y022372D02*
Y022628D01*
X024695Y022372D02*
Y022628D01*
X028886Y022477D02*
Y023323D01*
X028514Y022477D02*
Y023323D01*
X028886D01*
X028514Y022477D02*
X028886D01*
X029536D02*
Y023323D01*
X029164Y022477D02*
Y023323D01*
X029536D01*
X029164Y022477D02*
X029536D01*
X025022Y016655D02*
Y017265D01*
X025278Y016655D02*
Y017265D01*
X025022Y016655D02*
X025278D01*
X025022Y017265D02*
X025278D01*
X029664Y025642D02*
Y026487D01*
X030036Y025642D02*
Y026487D01*
X029664Y025642D02*
X030036D01*
X029664Y026487D02*
X030036D01*
X029436Y025642D02*
Y026487D01*
X029064Y025642D02*
Y026487D01*
X029436D01*
X029064Y025642D02*
X029436D01*
X028464Y025642D02*
Y026487D01*
X028836Y025642D02*
Y026487D01*
X028464Y025642D02*
X028836D01*
X028464Y026487D02*
X028836D01*
X028236Y025642D02*
Y026487D01*
X027864Y025642D02*
Y026487D01*
X028236D01*
X027864Y025642D02*
X028236D01*
X013722Y024496D02*
X014567D01*
X013722Y024124D02*
X014567D01*
X013722D02*
Y024496D01*
X014567Y024124D02*
Y024496D01*
M02*
