G04*
G04 #@! TF.GenerationSoftware,Altium Limited,Altium Designer,22.5.1 (42)*
G04*
G04 Layer_Physical_Order=3*
G04 Layer_Color=16737945*
%FSTAX24Y24*%
%MOIN*%
G70*
G04*
G04 #@! TF.SameCoordinates,090E5D1A-85BE-42B9-9E0A-55F43D75D69B*
G04*
G04*
G04 #@! TF.FilePolarity,Positive*
G04*
G01*
G75*
%ADD84C,0.0598*%
%ADD86C,0.0197*%
G36*
X01885Y029305D02*
X018985Y029264D01*
X019111Y029197D01*
X01922Y029107D01*
X019288Y029024D01*
X019317Y028985D01*
X019324Y028974D01*
X019346Y028946D01*
X019405Y028874D01*
X019505Y028793D01*
X019618Y028732D01*
X019741Y028695D01*
X019869Y028682D01*
X019997Y028695D01*
X02012Y028732D01*
X020234Y028793D01*
X020333Y028874D01*
X020392Y028946D01*
X020415Y028974D01*
X020422Y028985D01*
X02045Y029024D01*
X020518Y029106D01*
X020628Y029196D01*
X020753Y029264D01*
X020889Y029305D01*
X021031Y029319D01*
X021125Y029309D01*
X021125Y029309D01*
Y029309D01*
X021127Y02931D01*
X021581Y029241D01*
X022142Y029121D01*
X022696Y028966D01*
X023239Y028779D01*
X02377Y028559D01*
X024286Y028308D01*
X024786Y028026D01*
X025269Y027714D01*
X025732Y027373D01*
X025951Y02719D01*
X025989Y027158D01*
X026031Y02713D01*
X02606Y027104D01*
X026227Y027002D01*
X026408Y026927D01*
X026599Y026881D01*
X026699Y026873D01*
X026705Y026871D01*
X033268Y026401D01*
X033316Y026396D01*
Y026396D01*
X033316Y026396D01*
X033435Y026384D01*
X033563Y026345D01*
X033681Y026282D01*
X033785Y026198D01*
X03387Y026094D01*
X033933Y025976D01*
X033971Y025848D01*
X033984Y025715D01*
X033983Y025701D01*
X033984Y025701D01*
X033985Y0257D01*
X033985Y0257D01*
Y019962D01*
Y01995D01*
Y014104D01*
X033985Y014104D01*
X033985D01*
X033985Y014104D01*
X033971Y013963D01*
X03393Y013827D01*
X033863Y013702D01*
X033773Y013593D01*
X033663Y013503D01*
X033538Y013436D01*
X033402Y013395D01*
X033313Y013386D01*
X033313Y013382D01*
X033313Y013382D01*
X026698Y012908D01*
X026691Y012907D01*
X026593Y012899D01*
X026402Y012853D01*
X02622Y012778D01*
X026052Y012675D01*
X026024Y012651D01*
X025983Y012622D01*
X025945Y01259D01*
X025729Y012411D01*
X025267Y012071D01*
X024785Y011759D01*
X024286Y011477D01*
X02377Y011226D01*
X02324Y011007D01*
X022697Y01082D01*
X022144Y010665D01*
X021583Y010545D01*
X02117Y010482D01*
X021121Y010476D01*
X021026Y010467D01*
X020885Y01048D01*
X020749Y010522D01*
X020624Y010588D01*
X020515Y010678D01*
X020449Y010758D01*
X02042Y010797D01*
X020415Y010805D01*
X02039Y010836D01*
X020334Y010904D01*
X020234Y010986D01*
X020121Y011047D01*
X019998Y011084D01*
X019869Y011097D01*
X019741Y011084D01*
X019618Y011047D01*
X019505Y010986D01*
X019405Y010904D01*
X019349Y010836D01*
X019324Y010805D01*
X019324Y010805D01*
X019319Y010797D01*
X019319Y010797D01*
X019319Y010797D01*
X01929Y010758D01*
X019225Y010679D01*
X019115Y010589D01*
X01899Y010522D01*
X018854Y01048D01*
X018713Y010467D01*
X018618Y010476D01*
X018618Y010476D01*
Y010476D01*
X018617Y010475D01*
X018156Y010545D01*
X017595Y010665D01*
X017042Y01082D01*
X016499Y011007D01*
X015969Y011226D01*
X015453Y011478D01*
X014953Y01176D01*
X014935Y011772D01*
X014939Y011804D01*
X014946Y011824D01*
X015Y011846D01*
X015044Y01189D01*
X015068Y011948D01*
Y011974D01*
X015073Y011978D01*
X015109Y011998D01*
X01514Y011983D01*
X015142Y011975D01*
Y011948D01*
X015166Y01189D01*
X01521Y011846D01*
X015268Y011822D01*
X015332D01*
X01539Y011846D01*
X015434Y01189D01*
X015458Y011948D01*
Y011966D01*
X015478Y012012D01*
X015505Y012012D01*
X015542D01*
X0156Y012036D01*
X015644Y01208D01*
X015668Y012138D01*
Y012175D01*
X015668Y012202D01*
X015714Y012222D01*
X015732D01*
X01579Y012246D01*
X015834Y01229D01*
X015858Y012348D01*
Y012375D01*
X015867Y012413D01*
X015905Y012422D01*
X015932D01*
X01599Y012446D01*
X016034Y01249D01*
X016058Y012548D01*
Y012575D01*
X016067Y012613D01*
X016105Y012622D01*
X016132D01*
X01619Y012646D01*
X016234Y01269D01*
X016258Y012748D01*
Y012766D01*
X016278Y012812D01*
X016305Y012812D01*
X016342D01*
X0164Y012836D01*
X016444Y01288D01*
X016468Y012938D01*
Y012975D01*
X016468Y013002D01*
X016514Y013022D01*
X016532D01*
X01659Y013046D01*
X016634Y01309D01*
X016658Y013148D01*
Y013212D01*
X016634Y01327D01*
X01659Y013314D01*
X016532Y013338D01*
X016515D01*
X016468Y013348D01*
X016468Y013385D01*
Y013412D01*
X016444Y01347D01*
X0164Y013514D01*
X016342Y013538D01*
X016285D01*
X016278Y013538D01*
X016238Y013576D01*
Y013602D01*
X016214Y01366D01*
X01617Y013704D01*
X016112Y013728D01*
X016095D01*
X016048Y013738D01*
X016048Y013775D01*
Y013802D01*
X016024Y01386D01*
X01598Y013904D01*
X015922Y013928D01*
X015875D01*
X015855Y013933D01*
X015828Y01397D01*
Y014002D01*
X015804Y01406D01*
X01576Y014104D01*
X015702Y014128D01*
X015685D01*
X015638Y014138D01*
X015638Y014175D01*
Y014202D01*
X015614Y01426D01*
X01557Y014304D01*
X015512Y014328D01*
X015475D01*
X015448Y014328D01*
X015428Y014374D01*
Y014392D01*
X015404Y01445D01*
X01536Y014494D01*
X015302Y014518D01*
X015285D01*
X015238Y014528D01*
X015238Y014565D01*
Y014592D01*
X015214Y01465D01*
X01517Y014694D01*
X015112Y014718D01*
X015048D01*
X01499Y014694D01*
X014946Y01465D01*
X014922Y014592D01*
Y014545D01*
X014917Y014525D01*
X01488Y014498D01*
X014848D01*
X01479Y014474D01*
X014746Y01443D01*
X014722Y014372D01*
Y014354D01*
X014702Y014308D01*
X014675Y014308D01*
X014638D01*
X01458Y014284D01*
X014536Y01424D01*
X014512Y014182D01*
Y014155D01*
X014503Y014117D01*
X014465Y014108D01*
X014438D01*
X01438Y014084D01*
X014336Y01404D01*
X014312Y013982D01*
Y013955D01*
X014303Y013917D01*
X014265Y013908D01*
X014238D01*
X01418Y013884D01*
X014136Y01384D01*
X014112Y013782D01*
Y013755D01*
X014112Y013718D01*
X014065Y013708D01*
X014048D01*
X01399Y013684D01*
X013946Y01364D01*
X013922Y013582D01*
Y013564D01*
X013902Y013518D01*
X013875Y013518D01*
X013838D01*
X01378Y013494D01*
X013736Y01345D01*
X013712Y013392D01*
Y013365D01*
X013712Y013328D01*
X013665Y013318D01*
X013648D01*
X01359Y013294D01*
X013546Y01325D01*
X013522Y013192D01*
Y013128D01*
X013546Y01307D01*
X01359Y013026D01*
X013648Y013002D01*
X013676D01*
X013715Y012984D01*
X013722Y012955D01*
Y012918D01*
X013746Y01286D01*
X01379Y012816D01*
X013848Y012792D01*
X013912D01*
X013922Y012785D01*
Y012738D01*
X013946Y01268D01*
X01399Y012636D01*
X014048Y012612D01*
X014076D01*
X014115Y012594D01*
X014122Y012565D01*
Y012528D01*
X014146Y01247D01*
X01419Y012426D01*
X014248Y012402D01*
X014285D01*
X014312Y012402D01*
X014332Y012356D01*
Y012338D01*
X014356Y01228D01*
X0144Y012236D01*
X014458Y012212D01*
X014486D01*
X014525Y012194D01*
X014532Y012165D01*
Y012128D01*
X014552Y012078D01*
X014535Y012054D01*
X014518Y012041D01*
X014471Y012072D01*
X014008Y012412D01*
X013567Y012779D01*
X013149Y013173D01*
X012756Y013591D01*
X012388Y014032D01*
X012048Y014494D01*
X011736Y014976D01*
X011454Y015476D01*
X011203Y015993D01*
X010983Y016523D01*
X010796Y017066D01*
X010642Y017619D01*
X010521Y01818D01*
X010435Y018747D01*
X010399Y019141D01*
X010447Y019169D01*
X010488Y019152D01*
X010552D01*
X01061Y019176D01*
X010632Y019198D01*
X010665Y019215D01*
X010698Y019198D01*
X01072Y019176D01*
X010778Y019152D01*
X010842D01*
X0109Y019176D01*
X010922Y019198D01*
X010955Y019215D01*
X010988Y019198D01*
X01101Y019176D01*
X011068Y019152D01*
X011132D01*
X01119Y019176D01*
X011212Y019198D01*
X011245Y019215D01*
X011278Y019198D01*
X0113Y019176D01*
X011358Y019152D01*
X011422D01*
X01148Y019176D01*
X011502Y019198D01*
X011535Y019215D01*
X011568Y019198D01*
X01159Y019176D01*
X011648Y019152D01*
X011712D01*
X01177Y019176D01*
X011792Y019198D01*
X011825Y019215D01*
X011858Y019198D01*
X01188Y019176D01*
X011938Y019152D01*
X012002D01*
X01206Y019176D01*
X012082Y019198D01*
X012115Y019215D01*
X012148Y019198D01*
X01217Y019176D01*
X012228Y019152D01*
X012292D01*
X01235Y019176D01*
X012372Y019198D01*
X012405Y019215D01*
X012438Y019198D01*
X01246Y019176D01*
X012518Y019152D01*
X012582D01*
X01264Y019176D01*
X012684Y01922D01*
X012708Y019278D01*
Y019342D01*
X012684Y0194D01*
X01264Y019444D01*
X012582Y019468D01*
X012518D01*
X01246Y019444D01*
X012438Y019422D01*
X012432Y019419D01*
X012376Y019442D01*
X012366Y019468D01*
X012377Y019483D01*
X012394Y0195D01*
X012418Y019558D01*
Y019622D01*
X012394Y01968D01*
X01235Y019724D01*
X012292Y019748D01*
X012228D01*
X01217Y019724D01*
X012148Y019702D01*
X012135Y019695D01*
X012105Y019706D01*
X012092Y019755D01*
X012092Y019758D01*
X012114Y01978D01*
X012138Y019838D01*
Y019902D01*
X012114Y01996D01*
X01207Y020004D01*
X012012Y020028D01*
X011948D01*
X01189Y020004D01*
X011868Y019982D01*
X011835Y019965D01*
X011802Y019982D01*
X01178Y020004D01*
X011722Y020028D01*
X011658D01*
X0116Y020004D01*
X011578Y019982D01*
X011545Y019965D01*
X011512Y019982D01*
X01149Y020004D01*
X011432Y020028D01*
X011368D01*
X01131Y020004D01*
X011288Y019982D01*
X011255Y019965D01*
X011222Y019982D01*
X0112Y020004D01*
X011142Y020028D01*
X011078D01*
X01102Y020004D01*
X010998Y019982D01*
X010965Y019965D01*
X010932Y019982D01*
X01091Y020004D01*
X010852Y020028D01*
X010788D01*
X01073Y020004D01*
X010708Y019982D01*
X010675Y019965D01*
X010642Y019982D01*
X01062Y020004D01*
X010562Y020028D01*
X010498D01*
X01044Y020004D01*
X010418Y019982D01*
X010369Y020004D01*
X010383Y020467D01*
X010435Y021039D01*
X010521Y021606D01*
X010581Y021883D01*
X010622Y021895D01*
X010634Y021894D01*
X010688Y021872D01*
X010752D01*
X01081Y021896D01*
X010854Y02194D01*
X010878Y021998D01*
Y022008D01*
X010928Y022042D01*
X010928Y022042D01*
X010992D01*
X01105Y022066D01*
X011094Y02211D01*
X011118Y022168D01*
Y022232D01*
X011115Y02224D01*
X011139Y022276D01*
X011152Y022282D01*
X01121Y022306D01*
X011254Y02235D01*
X011258Y022359D01*
X011312D01*
X011316Y02235D01*
X01136Y022306D01*
X011418Y022282D01*
X011482D01*
X01154Y022306D01*
X011584Y02235D01*
X011608Y022408D01*
Y022472D01*
X011584Y02253D01*
X01154Y022574D01*
X011537Y022575D01*
X011539Y022629D01*
X01158Y022646D01*
X011624Y02269D01*
X011648Y022748D01*
Y022812D01*
X011624Y02287D01*
X01158Y022914D01*
X011565Y02292D01*
X011534Y02296D01*
X011558Y023018D01*
Y023082D01*
X011534Y02314D01*
X01149Y023184D01*
X011448Y023202D01*
X011458Y023252D01*
X011462D01*
X01152Y023276D01*
X011552Y023308D01*
X011573Y023319D01*
X011615Y023311D01*
X01164Y023286D01*
X011698Y023262D01*
X011762D01*
X01182Y023286D01*
X011864Y02333D01*
X011888Y023388D01*
Y023452D01*
X011864Y02351D01*
X01182Y023554D01*
X011762Y023578D01*
X011748D01*
X011714Y023628D01*
X011718Y023638D01*
Y023702D01*
X011694Y02376D01*
X011678Y023776D01*
X011693Y023809D01*
X011703Y023822D01*
X011762D01*
X011772Y023826D01*
X011822Y023808D01*
X011826Y023798D01*
X011846Y02375D01*
X01189Y023706D01*
X011948Y023682D01*
X012012D01*
X01207Y023706D01*
X012114Y02375D01*
X012138Y023808D01*
Y023872D01*
X012114Y02393D01*
X01207Y023974D01*
X012012Y023998D01*
X011948D01*
X011919Y024027D01*
X011954Y024072D01*
X011962D01*
X01202Y024096D01*
X012064Y02414D01*
X012088Y024198D01*
Y024262D01*
X012064Y02432D01*
X01202Y024364D01*
X011962Y024388D01*
X011898D01*
X011893Y024386D01*
X011878Y024394D01*
X011848Y024422D01*
Y024472D01*
X011824Y02453D01*
X01178Y024574D01*
X011722Y024598D01*
X011675D01*
X011641Y024641D01*
X011732Y024801D01*
X011756Y0248D01*
X011782Y024788D01*
X011806Y02473D01*
X01185Y024686D01*
X011908Y024662D01*
X011925D01*
X011972Y024662D01*
X011972Y024615D01*
Y024598D01*
X011996Y02454D01*
X01204Y024496D01*
X012098Y024472D01*
X012162D01*
X01222Y024496D01*
X012239Y024515D01*
X012296Y02451D01*
X012298Y024508D01*
X01234Y024466D01*
X012398Y024442D01*
X012462D01*
X01252Y024466D01*
X012564Y02451D01*
X012588Y024568D01*
Y024632D01*
X012564Y02469D01*
X01252Y024734D01*
X012462Y024758D01*
X012458D01*
X012426Y024808D01*
X012438Y024838D01*
Y024902D01*
X012414Y02496D01*
X01237Y025004D01*
X012312Y025028D01*
X012278D01*
X012243Y025076D01*
X012248Y025088D01*
Y025152D01*
X012224Y02521D01*
X01218Y025254D01*
X012122Y025278D01*
X0121D01*
X012075Y025328D01*
X012388Y025754D01*
X012756Y026195D01*
X013149Y026613D01*
X013567Y027007D01*
X014008Y027374D01*
X014471Y027714D01*
X014953Y028026D01*
X015453Y028308D01*
X015969Y028559D01*
X016499Y028779D01*
X017042Y028966D01*
X017595Y029121D01*
X018156Y029241D01*
X018612Y02931D01*
X018614Y029309D01*
X018614Y029309D01*
X018614Y029309D01*
X018708Y029319D01*
X01885Y029305D01*
D02*
G37*
%LPC*%
G36*
X017052Y02844D02*
X016967D01*
X016963Y028438D01*
X016958Y028439D01*
X016875Y028423D01*
X016871Y02842D01*
X016867D01*
X016788Y028387D01*
X016785Y028384D01*
X01678Y028383D01*
X016709Y028336D01*
X016707Y028332D01*
X016703Y028331D01*
X016643Y02827D01*
X016641Y028266D01*
X016637Y028264D01*
X01659Y028193D01*
X016589Y028189D01*
X016586Y028185D01*
X016553Y028107D01*
Y028102D01*
X016551Y028098D01*
X016534Y028015D01*
X016535Y02801D01*
X016533Y028006D01*
Y027921D01*
X016535Y027917D01*
X016534Y027913D01*
X016551Y027829D01*
X016553Y027825D01*
Y027821D01*
X016586Y027742D01*
X016589Y027739D01*
X01659Y027734D01*
X016637Y027664D01*
X016641Y027661D01*
X016643Y027657D01*
X016703Y027597D01*
X016707Y027595D01*
X016709Y027591D01*
X01678Y027544D01*
X016785Y027543D01*
X016788Y02754D01*
X016867Y027507D01*
X016871D01*
X016875Y027505D01*
X016958Y027488D01*
X016963Y027489D01*
X016967Y027487D01*
X017052D01*
X017056Y027489D01*
X017061Y027488D01*
X017144Y027505D01*
X017148Y027507D01*
X017152D01*
X017231Y02754D01*
X017234Y027543D01*
X017239Y027544D01*
X01731Y027591D01*
X017312Y027595D01*
X017316Y027597D01*
X017377Y027657D01*
X017378Y027661D01*
X017382Y027664D01*
X017429Y027734D01*
X01743Y027739D01*
X017433Y027742D01*
X017466Y027821D01*
Y027825D01*
X017468Y027829D01*
X017485Y027913D01*
X017484Y027917D01*
X017486Y027921D01*
Y028006D01*
X017484Y02801D01*
X017485Y028015D01*
X017468Y028098D01*
X017466Y028102D01*
Y028107D01*
X017433Y028185D01*
X01743Y028189D01*
X017429Y028193D01*
X017382Y028264D01*
X017378Y028266D01*
X017377Y02827D01*
X017316Y028331D01*
X017312Y028332D01*
X01731Y028336D01*
X017239Y028383D01*
X017234Y028384D01*
X017231Y028387D01*
X017152Y02842D01*
X017148D01*
X017144Y028423D01*
X017061Y028439D01*
X017056Y028438D01*
X017052Y02844D01*
D02*
G37*
G36*
X023872Y027678D02*
X023808D01*
X02375Y027654D01*
X023706Y02761D01*
X023682Y027552D01*
Y027488D01*
X023706Y02743D01*
X02375Y027386D01*
X023808Y027362D01*
X023872D01*
X02393Y027386D01*
X023974Y02743D01*
X023998Y027488D01*
Y027552D01*
X023974Y02761D01*
X02393Y027654D01*
X023872Y027678D01*
D02*
G37*
G36*
X014792Y027188D02*
X014728D01*
X01467Y027164D01*
X014626Y02712D01*
X014602Y027062D01*
Y026998D01*
X014626Y02694D01*
X01467Y026896D01*
X014728Y026872D01*
X014792D01*
X01485Y026896D01*
X014894Y02694D01*
X014918Y026998D01*
Y027062D01*
X014894Y02712D01*
X01485Y027164D01*
X014792Y027188D01*
D02*
G37*
G36*
X022172Y026768D02*
X022108D01*
X02205Y026744D01*
X022006Y0267D01*
X021982Y026642D01*
Y026578D01*
X022006Y02652D01*
X02205Y026476D01*
X022108Y026452D01*
X022172D01*
X02223Y026476D01*
X022274Y02652D01*
X022298Y026578D01*
Y026642D01*
X022274Y0267D01*
X02223Y026744D01*
X022172Y026768D01*
D02*
G37*
G36*
X023912Y026508D02*
X023848D01*
X02379Y026484D01*
X023746Y02644D01*
X023722Y026382D01*
Y026318D01*
X023746Y02626D01*
X02379Y026216D01*
X023848Y026192D01*
X023912D01*
X02397Y026216D01*
X024014Y02626D01*
X024038Y026318D01*
Y026382D01*
X024014Y02644D01*
X02397Y026484D01*
X023912Y026508D01*
D02*
G37*
G36*
X020672Y026388D02*
X020608D01*
X02055Y026364D01*
X020506Y02632D01*
X020482Y026262D01*
Y026198D01*
X020506Y02614D01*
X02055Y026096D01*
X020608Y026072D01*
X020672D01*
X02073Y026096D01*
X020774Y02614D01*
X020798Y026198D01*
Y026262D01*
X020774Y02632D01*
X02073Y026364D01*
X020672Y026388D01*
D02*
G37*
G36*
X015892Y026738D02*
X015828D01*
X01577Y026714D01*
X015726Y02667D01*
X015702Y026612D01*
Y026548D01*
X015726Y02649D01*
X015741Y026475D01*
X015729Y026416D01*
X0157Y026404D01*
X015656Y02636D01*
X015632Y026302D01*
Y026238D01*
X015656Y02618D01*
X015663Y026173D01*
X015651Y026115D01*
X015616Y02608D01*
X015592Y026022D01*
Y025958D01*
X015616Y0259D01*
X01566Y025856D01*
X015718Y025832D01*
X015782D01*
X01584Y025856D01*
X015862Y025878D01*
X015895Y025895D01*
X015928Y025878D01*
X01595Y025856D01*
X016008Y025832D01*
X016072D01*
X01613Y025856D01*
X016174Y0259D01*
X016198Y025958D01*
Y025976D01*
X016218Y026022D01*
X016245Y026022D01*
X016282D01*
X01634Y026046D01*
X016384Y02609D01*
X016408Y026148D01*
Y026212D01*
X016384Y02627D01*
X01634Y026314D01*
X016282Y026338D01*
X016265D01*
X016218Y026348D01*
X016218Y026385D01*
Y026412D01*
X016194Y02647D01*
X01615Y026514D01*
X016092Y026538D01*
X016065D01*
X016027Y026547D01*
X016018Y026585D01*
Y026612D01*
X015994Y02667D01*
X01595Y026714D01*
X015892Y026738D01*
D02*
G37*
G36*
X025332Y025978D02*
X025268D01*
X02521Y025954D01*
X025166Y02591D01*
X025142Y025852D01*
Y025788D01*
X025166Y02573D01*
X02521Y025686D01*
X025268Y025662D01*
X025332D01*
X02539Y025686D01*
X025408Y025704D01*
X025451Y025719D01*
X025473Y025703D01*
X0255Y025676D01*
X025558Y025652D01*
X025622D01*
X02568Y025676D01*
X025724Y02572D01*
X025748Y025778D01*
Y025842D01*
X025724Y0259D01*
X02568Y025944D01*
X025622Y025968D01*
X025558D01*
X0255Y025944D01*
X025482Y025926D01*
X025439Y025911D01*
X025417Y025927D01*
X02539Y025954D01*
X025332Y025978D01*
D02*
G37*
G36*
X018072Y026098D02*
X018008D01*
X01795Y026074D01*
X017906Y02603D01*
X017882Y025972D01*
Y025908D01*
X017906Y02585D01*
X017936Y02582D01*
X017896Y02578D01*
X017872Y025722D01*
Y025658D01*
X017896Y0256D01*
X01794Y025556D01*
X017998Y025532D01*
X018062D01*
X01812Y025556D01*
X018164Y0256D01*
X01818Y025638D01*
X018197Y025659D01*
X018238Y025664D01*
X018268Y025652D01*
X018332D01*
X01839Y025676D01*
X018434Y02572D01*
X018458Y025778D01*
Y025842D01*
X018434Y0259D01*
X01839Y025944D01*
X018332Y025968D01*
X018268D01*
X018248Y02596D01*
X018199Y025971D01*
X018192Y025987D01*
X018174Y02603D01*
X01813Y026074D01*
X018072Y026098D01*
D02*
G37*
G36*
X029342Y025428D02*
X029278D01*
X02922Y025404D01*
X029176Y02536D01*
X029152Y025302D01*
Y025238D01*
X029176Y02518D01*
X02922Y025136D01*
X029278Y025112D01*
X029342D01*
X0294Y025136D01*
X029444Y02518D01*
X029468Y025238D01*
Y025302D01*
X029444Y02536D01*
X0294Y025404D01*
X029342Y025428D01*
D02*
G37*
G36*
X028022Y025388D02*
X027958D01*
X0279Y025364D01*
X027856Y02532D01*
X027832Y025262D01*
Y025198D01*
X027856Y02514D01*
X0279Y025096D01*
X027958Y025072D01*
X028022D01*
X02808Y025096D01*
X028124Y02514D01*
X028148Y025198D01*
Y025262D01*
X028124Y02532D01*
X02808Y025364D01*
X028022Y025388D01*
D02*
G37*
G36*
X018805Y024938D02*
X018763Y024934D01*
X018761Y024932D01*
X018758Y024933D01*
X018582Y024894D01*
X018581Y024893D01*
X018579Y024893D01*
X018233Y024791D01*
X018232Y02479D01*
X01823Y02479D01*
X017893Y024664D01*
X017892Y024663D01*
X01789Y024663D01*
X017562Y024513D01*
X017561Y024512D01*
X017559Y024512D01*
X017242Y024339D01*
X017241Y024338D01*
X01724Y024338D01*
X016936Y024143D01*
X016935Y024142D01*
X016934Y024142D01*
X016644Y023926D01*
X016643Y023925D01*
X016642Y023924D01*
X016368Y023689D01*
X016368Y023688D01*
X016366Y023687D01*
X01611Y023434D01*
X016109Y023432D01*
X016108Y023432D01*
X01587Y02316D01*
X01587Y023159D01*
X015868Y023158D01*
X01565Y022871D01*
X01565Y022869D01*
X015648Y022868D01*
X015451Y022567D01*
X015451Y022565D01*
X015449Y022564D01*
X015274Y022249D01*
X015274Y022248D01*
X015272Y022247D01*
X015158Y022002D01*
X015104Y022D01*
X01506Y022044D01*
X015002Y022068D01*
X014938D01*
X01488Y022044D01*
X014836Y022D01*
X014812Y021942D01*
Y021914D01*
X014794Y021875D01*
X014765Y021868D01*
X014728D01*
X01467Y021844D01*
X014626Y0218D01*
X014602Y021742D01*
Y021678D01*
X014626Y02162D01*
X014644Y021602D01*
X014659Y021559D01*
X014643Y021537D01*
X014616Y02151D01*
X014592Y021452D01*
Y021388D01*
X014616Y02133D01*
X01466Y021286D01*
X014718Y021262D01*
X014782D01*
X014824Y021279D01*
X014868Y02126D01*
X014877Y021252D01*
X014881Y02123D01*
X014842Y02106D01*
X014815Y021047D01*
X014812Y021047D01*
X014788Y021047D01*
X01476Y021074D01*
X014702Y021098D01*
X014638D01*
X01458Y021074D01*
X014536Y02103D01*
X014512Y020972D01*
Y020908D01*
X014536Y02085D01*
X014515Y0208D01*
X0145Y020794D01*
X014456Y02075D01*
X014432Y020692D01*
Y020678D01*
X014382Y020644D01*
X014372Y020648D01*
X014308D01*
X01425Y020624D01*
X014206Y02058D01*
X014182Y020522D01*
Y020458D01*
X014206Y0204D01*
X01425Y020356D01*
X014308Y020332D01*
X014372D01*
X01443Y020356D01*
X014474Y0204D01*
X014498Y020458D01*
Y020472D01*
X014548Y020506D01*
X014558Y020502D01*
X014622D01*
X01468Y020526D01*
X014701Y020547D01*
X014749Y020524D01*
X014726Y020312D01*
X014726Y020311D01*
X014726Y020309D01*
X014711Y020033D01*
X014711Y020031D01*
X014711Y02003D01*
X014711Y019753D01*
X014711Y019752D01*
X014711Y019751D01*
X014726Y019474D01*
X014726Y019473D01*
X014726Y019472D01*
X014756Y019196D01*
X014757Y019195D01*
X014756Y019194D01*
X014801Y01892D01*
X014802Y018919D01*
X014802Y018918D01*
X014831Y018785D01*
X014831Y018782D01*
X014832Y018781D01*
X014831Y01878D01*
X014833Y018767D01*
X014833Y018767D01*
X014833Y018766D01*
X014835Y018753D01*
X014836Y018752D01*
X014836Y018752D01*
X014838Y018739D01*
X014839Y018738D01*
X014838Y018737D01*
X01484Y018732D01*
X014887Y018527D01*
X014888Y018526D01*
X014888Y018524D01*
X015016Y018123D01*
X015017Y018122D01*
X015017Y01812D01*
X015177Y017731D01*
X015178Y01773D01*
X015178Y017728D01*
X01537Y017354D01*
X015371Y017353D01*
X015372Y017351D01*
X015593Y016994D01*
X015595Y016993D01*
X015595Y016991D01*
X015845Y016653D01*
X015847Y016652D01*
X015847Y01665D01*
X016124Y016334D01*
X016126Y016333D01*
X016126Y016331D01*
X016428Y016039D01*
X01643Y016038D01*
X016431Y016037D01*
X016756Y01577D01*
X016758Y015769D01*
X016759Y015768D01*
X017104Y015529D01*
X017106Y015528D01*
X017107Y015527D01*
X017471Y015317D01*
X017473Y015316D01*
X017474Y015315D01*
X017854Y015136D01*
X017856Y015135D01*
X017858Y015134D01*
X018251Y014986D01*
X018253Y014987D01*
X018254Y014985D01*
X018659Y01487D01*
X018661Y014871D01*
X018662Y01487D01*
X019074Y014788D01*
X019076Y014789D01*
X019078Y014788D01*
X019496Y01474D01*
X019497Y014741D01*
X019499Y01474D01*
X019919Y014727D01*
X019921Y014728D01*
X019923Y014727D01*
X020342Y014749D01*
X020344Y01475D01*
X020346Y014749D01*
X020763Y014805D01*
X020764Y014806D01*
X020766Y014806D01*
X021177Y014896D01*
X021178Y014897D01*
X02118Y014896D01*
X021582Y01502D01*
X021583Y015021D01*
X021585Y015021D01*
X021975Y015177D01*
X021977Y015178D01*
X021979Y015178D01*
X022355Y015365D01*
X022356Y015367D01*
X022358Y015367D01*
X022718Y015585D01*
X022719Y015586D01*
X022721Y015587D01*
X023061Y015833D01*
X023062Y015834D01*
X023064Y015835D01*
X023383Y016108D01*
X023384Y01611D01*
X023386Y016111D01*
X023682Y016409D01*
X023682Y016411D01*
X023684Y016412D01*
X023954Y016734D01*
X023955Y016736D01*
X023956Y016737D01*
X024199Y01708D01*
X0242Y017081D01*
X024201Y017083D01*
X024415Y017444D01*
X024416Y017446D01*
X024417Y017447D01*
X024601Y017825D01*
X024601Y017827D01*
X024602Y017829D01*
X024754Y01822D01*
X024754Y018222D01*
X024755Y018224D01*
X024875Y018627D01*
X024874Y018629D01*
X024875Y01863D01*
X024961Y019042D01*
X024961Y019044D01*
X024962Y019045D01*
X025014Y019462D01*
X025013Y019464D01*
X025014Y019466D01*
X025032Y019886D01*
X025031Y019887D01*
X025032Y019889D01*
X025015Y020309D01*
X025014Y020311D01*
X025014Y020313D01*
X024963Y02073D01*
X024962Y020731D01*
X024962Y020733D01*
X024877Y021145D01*
X024876Y021146D01*
X024876Y021148D01*
X024757Y021551D01*
X024756Y021553D01*
X024756Y021555D01*
X024728Y021627D01*
X024771Y021655D01*
X02478Y021646D01*
X024838Y021622D01*
X024902D01*
X02496Y021646D01*
X025004Y02169D01*
X025028Y021748D01*
Y021812D01*
X025004Y02187D01*
X02496Y021914D01*
X024902Y021938D01*
X024838D01*
X02478Y021914D01*
X024736Y02187D01*
X024712Y021812D01*
Y021809D01*
X024662Y0218D01*
X024605Y021947D01*
X024603Y021948D01*
X024603Y02195D01*
X02442Y022328D01*
X024423Y022333D01*
X02446Y022366D01*
X024518Y022342D01*
X024582D01*
X02464Y022366D01*
X024684Y02241D01*
X024708Y022468D01*
Y022532D01*
X024684Y02259D01*
X02464Y022634D01*
X024582Y022658D01*
X024518D01*
X02446Y022634D01*
X024416Y02259D01*
X024392Y022532D01*
Y022524D01*
X024342Y022479D01*
X024331Y02248D01*
X024205Y022693D01*
X024203Y022695D01*
X024203Y022696D01*
X023961Y02304D01*
X023959Y023041D01*
X023958Y023042D01*
X023689Y023365D01*
X023687Y023366D01*
X023686Y023367D01*
X023391Y023666D01*
X023389Y023667D01*
X023388Y023669D01*
X023069Y023942D01*
X023068Y023943D01*
X023067Y023945D01*
X022726Y024191D01*
X022724Y024192D01*
X022723Y024193D01*
X022364Y024411D01*
X022362Y024412D01*
X022361Y024413D01*
X021985Y024601D01*
X021983Y024601D01*
X021982Y024602D01*
X021592Y024759D01*
X02159Y024759D01*
X021588Y02476D01*
X021187Y024884D01*
X021185Y024883D01*
X021183Y024884D01*
X020978Y02493D01*
X020975Y024929D01*
X020973Y02493D01*
X020932Y024934D01*
X020927Y024933D01*
X020923Y024934D01*
X020841Y024925D01*
X020837Y024922D01*
X020832Y024923D01*
X020755Y024896D01*
X020751Y024893D01*
X020746Y024893D01*
X020676Y024851D01*
X020673Y024847D01*
X020668Y024846D01*
X020608Y02479D01*
X020606Y024786D01*
X020602Y024784D01*
X020554Y024717D01*
X020553Y024712D01*
X02055Y024709D01*
X020516Y024634D01*
X020516Y024629D01*
X020514Y024626D01*
X020497Y024545D01*
X020498Y024541D01*
X020496Y024536D01*
X020496Y024495D01*
X020495Y022866D01*
X020495Y022866D01*
X020495Y022866D01*
X020495Y021779D01*
X020495Y021779D01*
X020495Y021779D01*
X020495Y021726D01*
X020498Y021721D01*
X020497Y021715D01*
X020524Y021614D01*
X020528Y021609D01*
X020529Y021603D01*
X020582Y021513D01*
X020586Y021509D01*
X020589Y021504D01*
X020663Y02143D01*
X020669Y021428D01*
X020672Y021424D01*
X020717Y021398D01*
X020825Y021332D01*
X021025Y021177D01*
X021199Y020995D01*
X021346Y02079D01*
X02146Y020566D01*
X021541Y020327D01*
X021583Y020102D01*
X021536Y020078D01*
X02151Y020104D01*
X021452Y020128D01*
X021388D01*
X02133Y020104D01*
X021286Y02006D01*
X021262Y020002D01*
Y019938D01*
X021286Y01988D01*
X021326Y01984D01*
X021286Y0198D01*
X021262Y019742D01*
Y019678D01*
X021286Y01962D01*
X02133Y019576D01*
X021388Y019552D01*
X021452D01*
X02151Y019576D01*
X021518Y019584D01*
X021563Y019558D01*
X021504Y019332D01*
X021405Y0191D01*
X021273Y018885D01*
X021112Y018692D01*
X021008Y018599D01*
X020958Y018622D01*
Y018652D01*
X020934Y01871D01*
X02089Y018754D01*
X020832Y018778D01*
X020768D01*
X02071Y018754D01*
X020666Y01871D01*
X020656Y018708D01*
X02062Y018744D01*
X020562Y018768D01*
X020498D01*
X02044Y018744D01*
X020396Y0187D01*
X020372Y018642D01*
Y018578D01*
X020396Y01852D01*
X02044Y018476D01*
X020498Y018452D01*
X020562D01*
X02062Y018476D01*
X020664Y01852D01*
X020674Y018522D01*
X02071Y018486D01*
X02075Y018469D01*
X02076Y018415D01*
X020713Y018385D01*
X020485Y018278D01*
X020243Y018205D01*
X019994Y018169D01*
X019742Y018169D01*
X019492Y018206D01*
X019251Y018278D01*
X019023Y018385D01*
X018813Y018525D01*
X018625Y018693D01*
X018463Y018887D01*
X018332Y019102D01*
X018233Y019334D01*
X018169Y019578D01*
X018142Y019828D01*
X018151Y02008D01*
X018196Y020328D01*
X018278Y020567D01*
X018393Y020791D01*
X018539Y020996D01*
X018714Y021178D01*
X018914Y021333D01*
X019022Y021399D01*
X019039Y021408D01*
X01904Y02141D01*
X019042Y021411D01*
X019075Y021434D01*
X019077Y021436D01*
X019079Y021437D01*
X019109Y021464D01*
X019111Y021466D01*
X019113Y021467D01*
X01914Y021496D01*
X019141Y021499D01*
X019143Y0215D01*
X019155Y021516D01*
X019174Y021541D01*
X019175Y021545D01*
X019178Y021547D01*
X019208Y021604D01*
X019208Y021607D01*
X019211Y02161D01*
X019231Y021671D01*
X019231Y021674D01*
X019233Y021678D01*
X019243Y021741D01*
X019242Y021744D01*
X019244Y021748D01*
X019244Y02178D01*
X019244Y024496D01*
X019244Y024496D01*
X019244Y024537D01*
X019242Y024541D01*
X019243Y024546D01*
X019226Y024627D01*
X019223Y024631D01*
X019223Y024636D01*
X01919Y024711D01*
X019187Y024715D01*
X019185Y024719D01*
X019137Y024786D01*
X019133Y024789D01*
X019131Y024793D01*
X01907Y024849D01*
X019066Y02485D01*
X019063Y024854D01*
X018991Y024896D01*
X018987Y024897D01*
X018983Y0249D01*
X018905Y024926D01*
X0189Y024926D01*
X018896Y024928D01*
X018814Y024937D01*
X018809Y024936D01*
X018805Y024938D01*
D02*
G37*
G36*
X020772Y025698D02*
X020708D01*
X02065Y025674D01*
X020606Y02563D01*
X020582Y025572D01*
Y025555D01*
X020582Y025508D01*
X020535Y025508D01*
X020518D01*
X02046Y025484D01*
X020416Y02544D01*
X020392Y025382D01*
Y025365D01*
X020392Y025318D01*
X020345Y025318D01*
X020328D01*
X02027Y025294D01*
X020226Y02525D01*
X020202Y025192D01*
Y025165D01*
X020193Y025127D01*
X020155Y025118D01*
X020128D01*
X02007Y025094D01*
X020026Y02505D01*
X020002Y024992D01*
Y024928D01*
X020026Y02487D01*
X02007Y024826D01*
X020128Y024802D01*
X020192D01*
X02025Y024826D01*
X020294Y02487D01*
X020318Y024928D01*
Y024955D01*
X020327Y024993D01*
X020365Y025002D01*
X020392D01*
X02045Y025026D01*
X020494Y02507D01*
X020518Y025128D01*
Y025145D01*
X020518Y025192D01*
X020565Y025192D01*
X020582D01*
X02064Y025216D01*
X020684Y02526D01*
X020708Y025318D01*
Y025335D01*
X020708Y025382D01*
X020755Y025382D01*
X020772D01*
X02083Y025406D01*
X020874Y02545D01*
X020898Y025508D01*
Y025572D01*
X020874Y02563D01*
X02083Y025674D01*
X020772Y025698D01*
D02*
G37*
G36*
X014462Y024768D02*
X014398D01*
X01434Y024744D01*
X014296Y0247D01*
X014272Y024642D01*
Y024578D01*
X014296Y02452D01*
X01434Y024476D01*
X014398Y024452D01*
X014462D01*
X01452Y024476D01*
X014564Y02452D01*
X014588Y024578D01*
Y024642D01*
X014564Y0247D01*
X01452Y024744D01*
X014462Y024768D01*
D02*
G37*
G36*
X025772Y024588D02*
X025708D01*
X02565Y024564D01*
X025606Y02452D01*
X025582Y024462D01*
Y024398D01*
X025606Y02434D01*
X02565Y024296D01*
X025708Y024272D01*
X025772D01*
X02583Y024296D01*
X025874Y02434D01*
X025898Y024398D01*
Y024462D01*
X025874Y02452D01*
X02583Y024564D01*
X025772Y024588D01*
D02*
G37*
G36*
X015702Y023638D02*
X015638D01*
X01558Y023614D01*
X01554Y023574D01*
X0155Y023614D01*
X015442Y023638D01*
X015378D01*
X01532Y023614D01*
X015276Y02357D01*
X015252Y023512D01*
Y023448D01*
X015276Y02339D01*
X01532Y023346D01*
X015378Y023322D01*
X015442D01*
X0155Y023346D01*
X01554Y023386D01*
X01558Y023346D01*
X015638Y023322D01*
X015702D01*
X01576Y023346D01*
X015804Y02339D01*
X015828Y023448D01*
Y023512D01*
X015804Y02357D01*
X01576Y023614D01*
X015702Y023638D01*
D02*
G37*
G36*
X011202Y021938D02*
X011138D01*
X01108Y021914D01*
X011036Y02187D01*
X011012Y021812D01*
Y021748D01*
X011022Y021722D01*
X01098Y021694D01*
X01095Y021724D01*
X010892Y021748D01*
X010828D01*
X01077Y021724D01*
X010726Y02168D01*
X010702Y021622D01*
Y021558D01*
X010726Y0215D01*
X01077Y021456D01*
X010828Y021432D01*
X010892D01*
X01095Y021456D01*
X010994Y0215D01*
X011018Y021558D01*
Y021622D01*
X011008Y021648D01*
X01105Y021676D01*
X01108Y021646D01*
X011138Y021622D01*
X011202D01*
X01126Y021646D01*
X011304Y02169D01*
X011328Y021748D01*
Y021812D01*
X011304Y02187D01*
X01126Y021914D01*
X011202Y021938D01*
D02*
G37*
G36*
X011622Y021588D02*
X011558D01*
X0115Y021564D01*
X011456Y02152D01*
X011432Y021462D01*
Y021398D01*
X011456Y02134D01*
X0115Y021296D01*
X011558Y021272D01*
X011622D01*
X01168Y021296D01*
X011724Y02134D01*
X011748Y021398D01*
Y021462D01*
X011724Y02152D01*
X01168Y021564D01*
X011622Y021588D01*
D02*
G37*
G36*
X026672Y021458D02*
X026608D01*
X02655Y021434D01*
X026506Y02139D01*
X026482Y021332D01*
Y021268D01*
X026506Y02121D01*
X026534Y021182D01*
X026545Y02115D01*
X026534Y021118D01*
X026506Y02109D01*
X026482Y021032D01*
Y020968D01*
X026506Y02091D01*
X02655Y020866D01*
X026608Y020842D01*
X026672D01*
X02673Y020866D01*
X026774Y02091D01*
X026798Y020968D01*
Y021032D01*
X026774Y02109D01*
X026746Y021118D01*
X026735Y02115D01*
X026746Y021182D01*
X026774Y02121D01*
X026798Y021268D01*
Y021332D01*
X026774Y02139D01*
X02673Y021434D01*
X026672Y021458D01*
D02*
G37*
G36*
X027422Y020798D02*
X027358D01*
X0273Y020774D01*
X027256Y02073D01*
X027232Y020672D01*
Y020608D01*
X027256Y02055D01*
X0273Y020506D01*
X027358Y020482D01*
X027422D01*
X02748Y020506D01*
X027524Y02055D01*
X027548Y020608D01*
Y020672D01*
X027524Y02073D01*
X02748Y020774D01*
X027422Y020798D01*
D02*
G37*
G36*
X026352Y020848D02*
X026288D01*
X02623Y020824D01*
X026186Y02078D01*
X026162Y020722D01*
Y020658D01*
X026186Y0206D01*
X02623Y020556D01*
X026248Y020501D01*
X026232Y020462D01*
Y020398D01*
X026256Y02034D01*
X0263Y020296D01*
X026358Y020272D01*
X026422D01*
X02648Y020296D01*
X026524Y02034D01*
X026548Y020398D01*
Y020462D01*
X026524Y02052D01*
X02648Y020564D01*
X026462Y020619D01*
X026478Y020658D01*
Y020722D01*
X026454Y02078D01*
X02641Y020824D01*
X026352Y020848D01*
D02*
G37*
G36*
X013742Y020638D02*
X013678D01*
X01362Y020614D01*
X013576Y02057D01*
X013552Y020512D01*
Y020448D01*
X013576Y02039D01*
X01362Y020346D01*
X013678Y020322D01*
X013742D01*
X013762Y02033D01*
X013812Y020296D01*
Y020268D01*
X013836Y02021D01*
X01388Y020166D01*
X013938Y020142D01*
X014002D01*
X01406Y020166D01*
X014104Y02021D01*
X014128Y020268D01*
Y020332D01*
X014104Y02039D01*
X01406Y020434D01*
X014002Y020458D01*
X013938D01*
X013918Y02045D01*
X013868Y020484D01*
Y020512D01*
X013844Y02057D01*
X0138Y020614D01*
X013742Y020638D01*
D02*
G37*
G36*
X025712Y020308D02*
X025648D01*
X02559Y020284D01*
X025546Y02024D01*
X025522Y020182D01*
Y020145D01*
X025522Y020118D01*
X025476Y020098D01*
X025458D01*
X0254Y020074D01*
X025356Y02003D01*
X025332Y019972D01*
Y019908D01*
X025356Y01985D01*
X0254Y019806D01*
X025458Y019782D01*
X025485D01*
X025522Y019782D01*
X025532Y019735D01*
Y019718D01*
X025556Y01966D01*
X0256Y019616D01*
X025658Y019592D01*
X025722D01*
X02578Y019616D01*
X025824Y01966D01*
X025848Y019718D01*
Y019782D01*
X025824Y01984D01*
X02578Y019884D01*
X025722Y019908D01*
X025695D01*
X025658Y019908D01*
X025648Y019955D01*
X025648Y019972D01*
X025694Y019992D01*
X025712D01*
X02577Y020016D01*
X025814Y02006D01*
X025838Y020118D01*
Y020182D01*
X025814Y02024D01*
X02577Y020284D01*
X025712Y020308D01*
D02*
G37*
G36*
X020162Y019398D02*
X020098D01*
X02004Y019374D01*
X019996Y01933D01*
X019985Y019304D01*
X019931D01*
X019924Y01932D01*
X01988Y019364D01*
X019822Y019388D01*
X019758D01*
X0197Y019364D01*
X019656Y01932D01*
X019632Y019262D01*
Y019198D01*
X019656Y01914D01*
X0197Y019096D01*
X019758Y019072D01*
X019822D01*
X01988Y019096D01*
X019924Y01914D01*
X019935Y019166D01*
X019989D01*
X019996Y01915D01*
X02004Y019106D01*
X020098Y019082D01*
X020162D01*
X02022Y019106D01*
X020264Y01915D01*
X020288Y019208D01*
Y019272D01*
X020264Y01933D01*
X02022Y019374D01*
X020162Y019398D01*
D02*
G37*
G36*
X027402Y019618D02*
X027338D01*
X02728Y019594D01*
X027236Y01955D01*
X027212Y019492D01*
Y019428D01*
X027236Y01937D01*
X02728Y019326D01*
X027338Y019302D01*
X027402D01*
X02746Y019326D01*
X027504Y01937D01*
X027528Y019428D01*
Y019492D01*
X027504Y01955D01*
X02746Y019594D01*
X027402Y019618D01*
D02*
G37*
G36*
X028527Y019503D02*
X028463D01*
X028405Y019479D01*
X028361Y019435D01*
X028337Y019377D01*
Y019313D01*
X028361Y019255D01*
X028405Y019211D01*
X028463Y019187D01*
X028527D01*
X028585Y019211D01*
X028629Y019255D01*
X028653Y019313D01*
Y019377D01*
X028629Y019435D01*
X028585Y019479D01*
X028527Y019503D01*
D02*
G37*
G36*
X032431Y018768D02*
X032346D01*
X032342Y018766D01*
X032338Y018767D01*
X032254Y01875D01*
X03225Y018748D01*
X032246D01*
X032167Y018715D01*
X032164Y018712D01*
X03216Y018711D01*
X032089Y018664D01*
X032086Y01866D01*
X032082Y018658D01*
X032022Y018598D01*
X03202Y018594D01*
X032016Y018591D01*
X031969Y01852D01*
X031968Y018516D01*
X031965Y018513D01*
X031932Y018434D01*
Y01843D01*
X03193Y018426D01*
X031913Y018342D01*
X031914Y018338D01*
X031912Y018334D01*
Y018249D01*
X031914Y018245D01*
X031913Y01824D01*
X03193Y018156D01*
X031932Y018153D01*
Y018148D01*
X031965Y01807D01*
X031968Y018066D01*
X031969Y018062D01*
X032016Y017991D01*
X03202Y017989D01*
X032022Y017985D01*
X032082Y017924D01*
X032086Y017923D01*
X032089Y017919D01*
X03216Y017871D01*
X032164Y017871D01*
X032167Y017867D01*
X032246Y017835D01*
X03225D01*
X032254Y017832D01*
X032338Y017816D01*
X032342Y017817D01*
X032346Y017815D01*
X032431D01*
X032435Y017817D01*
X03244Y017816D01*
X032523Y017832D01*
X032527Y017835D01*
X032532D01*
X03261Y017867D01*
X032614Y017871D01*
X032618Y017871D01*
X032689Y017919D01*
X032691Y017923D01*
X032695Y017924D01*
X032756Y017985D01*
X032757Y017989D01*
X032761Y017991D01*
X032809Y018062D01*
X032809Y018066D01*
X032813Y01807D01*
X032845Y018148D01*
Y018153D01*
X032848Y018156D01*
X032864Y01824D01*
X032863Y018245D01*
X032865Y018249D01*
Y018334D01*
X032863Y018338D01*
X032864Y018342D01*
X032848Y018426D01*
X032845Y01843D01*
Y018434D01*
X032813Y018513D01*
X032809Y018516D01*
X032809Y01852D01*
X032761Y018591D01*
X032757Y018594D01*
X032756Y018598D01*
X032695Y018658D01*
X032691Y01866D01*
X032689Y018664D01*
X032618Y018711D01*
X032614Y018712D01*
X03261Y018715D01*
X032532Y018748D01*
X032527D01*
X032523Y01875D01*
X03244Y018767D01*
X032435Y018766D01*
X032431Y018768D01*
D02*
G37*
G36*
X028282Y018908D02*
X028218D01*
X02816Y018884D01*
X028116Y01884D01*
X028092Y018782D01*
Y018718D01*
X028116Y01866D01*
X02816Y018616D01*
X028218Y018592D01*
X028282D01*
X02834Y018616D01*
X028384Y01866D01*
X028408Y018718D01*
Y018782D01*
X028384Y01884D01*
X02834Y018884D01*
X028282Y018908D01*
D02*
G37*
G36*
X027962Y018688D02*
X027898D01*
X02784Y018664D01*
X027796Y01862D01*
X027772Y018562D01*
Y018498D01*
X027796Y01844D01*
X02784Y018396D01*
X027898Y018372D01*
X027962D01*
X02802Y018396D01*
X028064Y01844D01*
X028088Y018498D01*
Y018562D01*
X028064Y01862D01*
X02802Y018664D01*
X027962Y018688D01*
D02*
G37*
G36*
X027592Y018378D02*
X027528D01*
X02747Y018354D01*
X027426Y01831D01*
X027402Y018252D01*
Y018188D01*
X027426Y01813D01*
X02747Y018086D01*
X027528Y018062D01*
X027592D01*
X02765Y018086D01*
X027694Y01813D01*
X027718Y018188D01*
Y018252D01*
X027694Y01831D01*
X02765Y018354D01*
X027592Y018378D01*
D02*
G37*
G36*
X025722Y019518D02*
X025658D01*
X0256Y019494D01*
X025556Y01945D01*
X025532Y019392D01*
Y019355D01*
X025532Y019328D01*
X025486Y019308D01*
X025468D01*
X02541Y019284D01*
X025366Y01924D01*
X025342Y019182D01*
Y019118D01*
X025366Y01906D01*
X02541Y019016D01*
X025468Y018992D01*
X025485D01*
X025532Y018992D01*
X025532Y018955D01*
X025532Y018928D01*
X025485Y018918D01*
X025468D01*
X02541Y018894D01*
X025366Y01885D01*
X025342Y018792D01*
Y018728D01*
X025366Y01867D01*
X02541Y018626D01*
X025468Y018602D01*
X025485D01*
X025532Y018602D01*
X025532Y018565D01*
X025532Y018538D01*
X025485Y018528D01*
X025468D01*
X02541Y018504D01*
X025366Y01846D01*
X025342Y018402D01*
Y018338D01*
X025366Y01828D01*
X02541Y018236D01*
X025468Y018212D01*
X025485D01*
X025532Y018212D01*
X025532Y01817D01*
X025532Y018148D01*
X025486Y018128D01*
X025468D01*
X02541Y018104D01*
X025366Y01806D01*
X025342Y018002D01*
Y017938D01*
X025366Y01788D01*
X02541Y017836D01*
X025468Y017812D01*
X025485D01*
X025532Y017812D01*
X025532Y017775D01*
X025532Y017748D01*
X025485Y017738D01*
X025468D01*
X02541Y017714D01*
X025366Y01767D01*
X025342Y017612D01*
Y017548D01*
X025366Y01749D01*
X02541Y017446D01*
X025468Y017422D01*
X025532D01*
X02559Y017446D01*
X025634Y01749D01*
X025658Y017548D01*
Y017575D01*
X025658Y017612D01*
X025705Y017622D01*
X025722D01*
X02578Y017646D01*
X025824Y01769D01*
X025848Y017748D01*
Y017812D01*
X025824Y01787D01*
X02578Y017914D01*
X025722Y017938D01*
X025705D01*
X025679Y017938D01*
X025658Y017988D01*
X025658Y018002D01*
X025704Y018022D01*
X025722D01*
X02578Y018046D01*
X025824Y01809D01*
X025848Y018148D01*
Y018212D01*
X025824Y01827D01*
X02578Y018314D01*
X025722Y018338D01*
X025705D01*
X025658Y018338D01*
X025658Y018375D01*
X025658Y018402D01*
X025705Y018412D01*
X025722D01*
X02578Y018436D01*
X025824Y01848D01*
X025848Y018538D01*
Y018602D01*
X025824Y01866D01*
X02578Y018704D01*
X025722Y018728D01*
X025705D01*
X025658Y018728D01*
X025658Y018765D01*
X025658Y018792D01*
X025705Y018802D01*
X025722D01*
X02578Y018826D01*
X025824Y01887D01*
X025848Y018928D01*
Y018992D01*
X025824Y01905D01*
X02578Y019094D01*
X025722Y019118D01*
X025705D01*
X025658Y019118D01*
X025658Y01916D01*
X025658Y019182D01*
X025704Y019202D01*
X025722D01*
X02578Y019226D01*
X025824Y01927D01*
X025848Y019328D01*
Y019392D01*
X025824Y01945D01*
X02578Y019494D01*
X025722Y019518D01*
D02*
G37*
G36*
X030614Y01668D02*
X03052D01*
X030428Y016655D01*
X030347Y016608D01*
X03028Y016541D01*
X030232Y016459D01*
X030208Y016368D01*
Y016273D01*
X030232Y016182D01*
X03028Y0161D01*
X030347Y016033D01*
X030428Y015986D01*
X03052Y015961D01*
X030614D01*
X030706Y015986D01*
X030788Y016033D01*
X030855Y0161D01*
X030902Y016182D01*
X030926Y016273D01*
Y016368D01*
X030902Y016459D01*
X030855Y016541D01*
X030788Y016608D01*
X030706Y016655D01*
X030614Y01668D01*
D02*
G37*
G36*
X032324Y016381D02*
X032196D01*
X03207Y016356D01*
X031952Y016307D01*
X031845Y016235D01*
X031755Y016145D01*
X031683Y016038D01*
X031634Y01592D01*
X031609Y015794D01*
Y015666D01*
X031634Y01554D01*
X031683Y015422D01*
X031755Y015315D01*
X031845Y015225D01*
X031952Y015153D01*
X03207Y015104D01*
X032196Y015079D01*
X032324D01*
X03245Y015104D01*
X032568Y015153D01*
X032675Y015225D01*
X032765Y015315D01*
X032837Y015422D01*
X032886Y01554D01*
X032911Y015666D01*
Y015794D01*
X032886Y01592D01*
X032837Y016038D01*
X032765Y016145D01*
X032675Y016235D01*
X032568Y016307D01*
X03245Y016356D01*
X032324Y016381D01*
D02*
G37*
G36*
X022872Y013968D02*
X022808D01*
X02275Y013944D01*
X022706Y0139D01*
X022682Y013842D01*
Y013838D01*
X022632Y013804D01*
X022622Y013808D01*
X022558D01*
X0225Y013784D01*
X022456Y01374D01*
X022432Y013682D01*
Y013618D01*
X022456Y01356D01*
X0225Y013516D01*
X022558Y013492D01*
X022622D01*
X02268Y013516D01*
X022724Y01356D01*
X022748Y013618D01*
Y013622D01*
X022798Y013656D01*
X022808Y013652D01*
X022872D01*
X02293Y013676D01*
X022974Y01372D01*
X022998Y013778D01*
Y013842D01*
X022974Y0139D01*
X02293Y013944D01*
X022872Y013968D01*
D02*
G37*
G36*
X021722Y013738D02*
X021658D01*
X0216Y013714D01*
X021556Y01367D01*
X021538Y013627D01*
X021531Y013611D01*
X021482Y0136D01*
X021462Y013608D01*
X021398D01*
X02134Y013584D01*
X021296Y01354D01*
X021272Y013482D01*
Y013418D01*
X021296Y01336D01*
X02134Y013316D01*
X021398Y013292D01*
X021462D01*
X02152Y013316D01*
X021564Y01336D01*
X021582Y013403D01*
X021589Y013419D01*
X021638Y01343D01*
X021658Y013422D01*
X021722D01*
X02178Y013446D01*
X021824Y01349D01*
X021848Y013548D01*
Y013612D01*
X021824Y01367D01*
X02178Y013714D01*
X021722Y013738D01*
D02*
G37*
G36*
X017052Y012298D02*
X016967D01*
X016963Y012297D01*
X016958Y012297D01*
X016875Y012281D01*
X016871Y012278D01*
X016867D01*
X016788Y012246D01*
X016785Y012243D01*
X01678Y012242D01*
X016709Y012194D01*
X016707Y012191D01*
X016703Y012189D01*
X016643Y012129D01*
X016641Y012125D01*
X016637Y012122D01*
X01659Y012051D01*
X016589Y012047D01*
X016586Y012044D01*
X016553Y011965D01*
Y01196D01*
X016551Y011957D01*
X016534Y011873D01*
X016535Y011869D01*
X016533Y011865D01*
Y011779D01*
X016535Y011775D01*
X016534Y011771D01*
X016551Y011687D01*
X016553Y011683D01*
Y011679D01*
X016586Y0116D01*
X016589Y011597D01*
X01659Y011593D01*
X016637Y011522D01*
X016641Y011519D01*
X016643Y011515D01*
X016703Y011455D01*
X016707Y011453D01*
X016709Y01145D01*
X01678Y011402D01*
X016785Y011401D01*
X016788Y011398D01*
X016867Y011366D01*
X016871D01*
X016875Y011363D01*
X016958Y011346D01*
X016963Y011347D01*
X016967Y011346D01*
X017052D01*
X017056Y011347D01*
X017061Y011346D01*
X017144Y011363D01*
X017148Y011366D01*
X017152D01*
X017231Y011398D01*
X017234Y011401D01*
X017239Y011402D01*
X01731Y01145D01*
X017312Y011453D01*
X017316Y011455D01*
X017377Y011515D01*
X017378Y011519D01*
X017382Y011522D01*
X017429Y011593D01*
X01743Y011597D01*
X017433Y0116D01*
X017466Y011679D01*
Y011683D01*
X017468Y011687D01*
X017485Y011771D01*
X017484Y011775D01*
X017486Y011779D01*
Y011865D01*
X017484Y011869D01*
X017485Y011873D01*
X017468Y011957D01*
X017466Y01196D01*
Y011965D01*
X017433Y012044D01*
X01743Y012047D01*
X017429Y012051D01*
X017382Y012122D01*
X017378Y012125D01*
X017377Y012129D01*
X017316Y012189D01*
X017312Y012191D01*
X01731Y012194D01*
X017239Y012242D01*
X017234Y012243D01*
X017231Y012246D01*
X017152Y012278D01*
X017148D01*
X017144Y012281D01*
X017061Y012297D01*
X017056Y012297D01*
X017052Y012298D01*
D02*
G37*
%LPD*%
D84*
X030567Y015139D02*
D03*
D86*
X02026Y02735D02*
D03*
X02051D02*
D03*
X02077D02*
D03*
X02025Y02759D02*
D03*
X0205D02*
D03*
X02076D02*
D03*
X02025Y02784D02*
D03*
X0205D02*
D03*
X02076D02*
D03*
Y02809D02*
D03*
X0205D02*
D03*
X02025D02*
D03*
X02666Y02405D02*
D03*
X02646Y02424D02*
D03*
X02625Y02444D02*
D03*
X0269Y02411D02*
D03*
X02669Y02429D02*
D03*
X02649Y02448D02*
D03*
X02632Y02467D02*
D03*
X02714Y0242D02*
D03*
X02694Y02436D02*
D03*
X02675Y02454D02*
D03*
X02657Y02472D02*
D03*
X02638Y02492D02*
D03*
X02548Y0225D02*
D03*
X02547Y02283D02*
D03*
X02665Y0163D02*
D03*
X02646Y01612D02*
D03*
X02627Y01596D02*
D03*
X02609Y01579D02*
D03*
X02556Y01689D02*
D03*
Y01714D02*
D03*
X02532Y01493D02*
D03*
X02561D02*
D03*
X02035Y02339D02*
D03*
X01774Y02596D02*
D03*
Y02621D02*
D03*
X01775Y02646D02*
D03*
X03208Y0262D02*
D03*
X03183D02*
D03*
X03158D02*
D03*
X03133D02*
D03*
X03108D02*
D03*
X03083D02*
D03*
X03058D02*
D03*
Y02595D02*
D03*
X03083D02*
D03*
X03108D02*
D03*
X03133D02*
D03*
X03158D02*
D03*
X03183D02*
D03*
X03208D02*
D03*
X03058Y0257D02*
D03*
X03083D02*
D03*
X03108D02*
D03*
X03133D02*
D03*
X03158D02*
D03*
X03183D02*
D03*
X03208D02*
D03*
X03207Y02545D02*
D03*
X03182D02*
D03*
X03157D02*
D03*
X03132D02*
D03*
X03107D02*
D03*
X03082D02*
D03*
X03057D02*
D03*
X02051Y01908D02*
D03*
Y01933D02*
D03*
X02551Y02167D02*
D03*
Y02139D02*
D03*
X02552Y02074D02*
D03*
Y02047D02*
D03*
X02035Y02367D02*
D03*
Y02396D02*
D03*
Y02423D02*
D03*
X03023Y01363D02*
D03*
X03051D02*
D03*
X0308D02*
D03*
X03108D02*
D03*
X03137D02*
D03*
X03166D02*
D03*
X03195D02*
D03*
X03223D02*
D03*
X03023Y0139D02*
D03*
X03051D02*
D03*
X0308D02*
D03*
X03108D02*
D03*
X03137D02*
D03*
X03166D02*
D03*
X03195D02*
D03*
X03223D02*
D03*
X03224Y01417D02*
D03*
X03196D02*
D03*
X03167D02*
D03*
X03138D02*
D03*
X03109D02*
D03*
X03081D02*
D03*
X03052D02*
D03*
X03024D02*
D03*
X01244Y02155D02*
D03*
X01268Y02143D02*
D03*
X02018Y01414D02*
D03*
X02019Y01442D02*
D03*
X02075D02*
D03*
X02074Y01413D02*
D03*
X02047Y01442D02*
D03*
X02046Y01414D02*
D03*
X02362Y01549D02*
D03*
X02333Y01526D02*
D03*
X01209Y01525D02*
D03*
X0123Y01544D02*
D03*
X01249Y01564D02*
D03*
X01269Y01584D02*
D03*
X01289Y01604D02*
D03*
X0131Y01623D02*
D03*
X0133Y01645D02*
D03*
X01349Y01625D02*
D03*
X0133Y01604D02*
D03*
X01309Y01585D02*
D03*
X01289Y01565D02*
D03*
X01269Y01545D02*
D03*
X0125Y01524D02*
D03*
X01229Y01505D02*
D03*
X0121Y01484D02*
D03*
X0123Y01466D02*
D03*
X0125Y01445D02*
D03*
X01271Y01426D02*
D03*
X01291Y01405D02*
D03*
X01313Y01387D02*
D03*
X01332Y01369D02*
D03*
X01352Y01387D02*
D03*
X01332Y01407D02*
D03*
X0131Y01426D02*
D03*
X0129Y01446D02*
D03*
X01269Y01466D02*
D03*
X01249Y01486D02*
D03*
X0127Y01505D02*
D03*
X0129Y01485D02*
D03*
X01311Y01465D02*
D03*
X01331Y01445D02*
D03*
X01353Y01426D02*
D03*
X01373Y01406D02*
D03*
X01392Y01427D02*
D03*
X01372Y01446D02*
D03*
X0135Y01466D02*
D03*
X0133Y01485D02*
D03*
X01309Y01506D02*
D03*
X01289Y01525D02*
D03*
X01309Y01545D02*
D03*
X01329Y01526D02*
D03*
X0135Y01505D02*
D03*
X0137Y01486D02*
D03*
X01392Y01466D02*
D03*
X01412Y01447D02*
D03*
X01432Y01467D02*
D03*
X01412Y01486D02*
D03*
X0139Y01506D02*
D03*
X0137Y01525D02*
D03*
X01349Y01546D02*
D03*
X01329Y01565D02*
D03*
X0135Y01584D02*
D03*
X0137Y01565D02*
D03*
X01391Y01544D02*
D03*
X01411Y01525D02*
D03*
X01433Y01505D02*
D03*
X01453Y01486D02*
D03*
X01472Y01507D02*
D03*
X01453Y01527D02*
D03*
X0143Y01546D02*
D03*
X01411Y01566D02*
D03*
X01389Y01586D02*
D03*
X0137Y01606D02*
D03*
X02833Y02148D02*
D03*
X02787Y02102D02*
D03*
X02809Y02123D02*
D03*
X02783Y02129D02*
D03*
X02806Y0215D02*
D03*
X02739Y01795D02*
D03*
X01827Y02009D02*
D03*
X01834Y02036D02*
D03*
X01894Y02086D02*
D03*
X01889Y02111D02*
D03*
X01868Y02092D02*
D03*
X02082Y02089D02*
D03*
X02111D02*
D03*
X02082Y02118D02*
D03*
X02059Y02048D02*
D03*
X02031Y02047D02*
D03*
X01992Y01986D02*
D03*
X01399Y02365D02*
D03*
X01387Y02339D02*
D03*
X01373Y02377D02*
D03*
X01362Y02351D02*
D03*
X01347Y02387D02*
D03*
X01336Y02362D02*
D03*
X0128Y02168D02*
D03*
X01294Y02194D02*
D03*
X01254Y02179D02*
D03*
X01268Y02204D02*
D03*
X01412Y02577D02*
D03*
X01458Y02517D02*
D03*
X01433Y02527D02*
D03*
X01413Y02547D02*
D03*
X01388Y02559D02*
D03*
M02*
