G04*
G04 #@! TF.GenerationSoftware,Altium Limited,Altium Designer,22.5.1 (42)*
G04*
G04 Layer_Physical_Order=6*
G04 Layer_Color=16711680*
%FSTAX24Y24*%
%MOIN*%
G70*
G04*
G04 #@! TF.SameCoordinates,090E5D1A-85BE-42B9-9E0A-55F43D75D69B*
G04*
G04*
G04 #@! TF.FilePolarity,Positive*
G04*
G01*
G75*
%ADD12C,0.0050*%
%ADD14C,0.0100*%
G04:AMPARAMS|DCode=17|XSize=19.7mil|YSize=23.6mil|CornerRadius=4.9mil|HoleSize=0mil|Usage=FLASHONLY|Rotation=270.000|XOffset=0mil|YOffset=0mil|HoleType=Round|Shape=RoundedRectangle|*
%AMROUNDEDRECTD17*
21,1,0.0197,0.0138,0,0,270.0*
21,1,0.0098,0.0236,0,0,270.0*
1,1,0.0098,-0.0069,-0.0049*
1,1,0.0098,-0.0069,0.0049*
1,1,0.0098,0.0069,0.0049*
1,1,0.0098,0.0069,-0.0049*
%
%ADD17ROUNDEDRECTD17*%
G04:AMPARAMS|DCode=31|XSize=43.3mil|YSize=59.1mil|CornerRadius=10.8mil|HoleSize=0mil|Usage=FLASHONLY|Rotation=90.000|XOffset=0mil|YOffset=0mil|HoleType=Round|Shape=RoundedRectangle|*
%AMROUNDEDRECTD31*
21,1,0.0433,0.0374,0,0,90.0*
21,1,0.0217,0.0591,0,0,90.0*
1,1,0.0217,0.0187,0.0108*
1,1,0.0217,0.0187,-0.0108*
1,1,0.0217,-0.0187,-0.0108*
1,1,0.0217,-0.0187,0.0108*
%
%ADD31ROUNDEDRECTD31*%
G04:AMPARAMS|DCode=32|XSize=23.6mil|YSize=23.6mil|CornerRadius=5.9mil|HoleSize=0mil|Usage=FLASHONLY|Rotation=270.000|XOffset=0mil|YOffset=0mil|HoleType=Round|Shape=RoundedRectangle|*
%AMROUNDEDRECTD32*
21,1,0.0236,0.0118,0,0,270.0*
21,1,0.0118,0.0236,0,0,270.0*
1,1,0.0118,-0.0059,-0.0059*
1,1,0.0118,-0.0059,0.0059*
1,1,0.0118,0.0059,0.0059*
1,1,0.0118,0.0059,-0.0059*
%
%ADD32ROUNDEDRECTD32*%
G04:AMPARAMS|DCode=33|XSize=35.4mil|YSize=39.4mil|CornerRadius=8.9mil|HoleSize=0mil|Usage=FLASHONLY|Rotation=0.000|XOffset=0mil|YOffset=0mil|HoleType=Round|Shape=RoundedRectangle|*
%AMROUNDEDRECTD33*
21,1,0.0354,0.0217,0,0,0.0*
21,1,0.0177,0.0394,0,0,0.0*
1,1,0.0177,0.0089,-0.0108*
1,1,0.0177,-0.0089,-0.0108*
1,1,0.0177,-0.0089,0.0108*
1,1,0.0177,0.0089,0.0108*
%
%ADD33ROUNDEDRECTD33*%
G04:AMPARAMS|DCode=45|XSize=25.6mil|YSize=35.4mil|CornerRadius=6.4mil|HoleSize=0mil|Usage=FLASHONLY|Rotation=180.000|XOffset=0mil|YOffset=0mil|HoleType=Round|Shape=RoundedRectangle|*
%AMROUNDEDRECTD45*
21,1,0.0256,0.0226,0,0,180.0*
21,1,0.0128,0.0354,0,0,180.0*
1,1,0.0128,-0.0064,0.0113*
1,1,0.0128,0.0064,0.0113*
1,1,0.0128,0.0064,-0.0113*
1,1,0.0128,-0.0064,-0.0113*
%
%ADD45ROUNDEDRECTD45*%
%ADD80C,0.0040*%
%ADD81C,0.0080*%
%ADD83C,0.1181*%
%ADD84C,0.0598*%
%ADD85R,0.0598X0.0598*%
%ADD86C,0.0197*%
G04:AMPARAMS|DCode=87|XSize=59.1mil|YSize=17.7mil|CornerRadius=1.8mil|HoleSize=0mil|Usage=FLASHONLY|Rotation=336.000|XOffset=0mil|YOffset=0mil|HoleType=Round|Shape=RoundedRectangle|*
%AMROUNDEDRECTD87*
21,1,0.0591,0.0142,0,0,336.0*
21,1,0.0555,0.0177,0,0,336.0*
1,1,0.0035,0.0225,-0.0178*
1,1,0.0035,-0.0282,0.0048*
1,1,0.0035,-0.0225,0.0178*
1,1,0.0035,0.0282,-0.0048*
%
%ADD87ROUNDEDRECTD87*%
%ADD88P,0.0056X4X381.0*%
G04:AMPARAMS|DCode=89|XSize=19.7mil|YSize=23.6mil|CornerRadius=4.9mil|HoleSize=0mil|Usage=FLASHONLY|Rotation=225.000|XOffset=0mil|YOffset=0mil|HoleType=Round|Shape=RoundedRectangle|*
%AMROUNDEDRECTD89*
21,1,0.0197,0.0138,0,0,225.0*
21,1,0.0098,0.0236,0,0,225.0*
1,1,0.0098,-0.0084,0.0014*
1,1,0.0098,-0.0014,0.0084*
1,1,0.0098,0.0084,-0.0014*
1,1,0.0098,0.0014,-0.0084*
%
%ADD89ROUNDEDRECTD89*%
%ADD90R,0.0750X0.0510*%
%ADD91R,0.0650X0.0260*%
G04:AMPARAMS|DCode=92|XSize=39.4mil|YSize=23.6mil|CornerRadius=3mil|HoleSize=0mil|Usage=FLASHONLY|Rotation=0.000|XOffset=0mil|YOffset=0mil|HoleType=Round|Shape=RoundedRectangle|*
%AMROUNDEDRECTD92*
21,1,0.0394,0.0177,0,0,0.0*
21,1,0.0335,0.0236,0,0,0.0*
1,1,0.0059,0.0167,-0.0089*
1,1,0.0059,-0.0167,-0.0089*
1,1,0.0059,-0.0167,0.0089*
1,1,0.0059,0.0167,0.0089*
%
%ADD92ROUNDEDRECTD92*%
G04:AMPARAMS|DCode=93|XSize=23.6mil|YSize=23.6mil|CornerRadius=5.9mil|HoleSize=0mil|Usage=FLASHONLY|Rotation=0.000|XOffset=0mil|YOffset=0mil|HoleType=Round|Shape=RoundedRectangle|*
%AMROUNDEDRECTD93*
21,1,0.0236,0.0118,0,0,0.0*
21,1,0.0118,0.0236,0,0,0.0*
1,1,0.0118,0.0059,-0.0059*
1,1,0.0118,-0.0059,-0.0059*
1,1,0.0118,-0.0059,0.0059*
1,1,0.0118,0.0059,0.0059*
%
%ADD93ROUNDEDRECTD93*%
G04:AMPARAMS|DCode=94|XSize=43.3mil|YSize=13.8mil|CornerRadius=3.4mil|HoleSize=0mil|Usage=FLASHONLY|Rotation=0.000|XOffset=0mil|YOffset=0mil|HoleType=Round|Shape=RoundedRectangle|*
%AMROUNDEDRECTD94*
21,1,0.0433,0.0069,0,0,0.0*
21,1,0.0364,0.0138,0,0,0.0*
1,1,0.0069,0.0182,-0.0034*
1,1,0.0069,-0.0182,-0.0034*
1,1,0.0069,-0.0182,0.0034*
1,1,0.0069,0.0182,0.0034*
%
%ADD94ROUNDEDRECTD94*%
%ADD95C,0.0120*%
G36*
X01885Y029305D02*
X018985Y029264D01*
X019111Y029197D01*
X01922Y029107D01*
X019288Y029024D01*
X019317Y028985D01*
X019324Y028974D01*
X019346Y028946D01*
X019405Y028874D01*
X019505Y028793D01*
X019618Y028732D01*
X019741Y028695D01*
X019869Y028682D01*
X019997Y028695D01*
X02012Y028732D01*
X020234Y028793D01*
X020333Y028874D01*
X020392Y028946D01*
X020415Y028974D01*
X020422Y028985D01*
X02045Y029024D01*
X020518Y029106D01*
X020628Y029196D01*
X020753Y029264D01*
X020889Y029305D01*
X021031Y029319D01*
X021125Y029309D01*
X021125Y029309D01*
Y029309D01*
X021127Y02931D01*
X021581Y029241D01*
X022142Y029121D01*
X022696Y028966D01*
X023239Y028779D01*
X02377Y028559D01*
X024286Y028308D01*
X024786Y028026D01*
X025269Y027714D01*
X025732Y027373D01*
X025951Y02719D01*
X025989Y027158D01*
X026031Y02713D01*
X02606Y027104D01*
X026227Y027002D01*
X026408Y026927D01*
X026599Y026881D01*
X026699Y026873D01*
X026705Y026871D01*
X033268Y026401D01*
X033316Y026396D01*
Y026396D01*
X033316Y026396D01*
X033435Y026384D01*
X033563Y026345D01*
X033681Y026282D01*
X033785Y026198D01*
X03387Y026094D01*
X033933Y025976D01*
X033971Y025848D01*
X033984Y025715D01*
X033983Y025701D01*
X033984Y025701D01*
X033985Y0257D01*
X033985Y0257D01*
Y019962D01*
Y01995D01*
Y014104D01*
X033985Y014104D01*
X033985D01*
X033985Y014104D01*
X033971Y013963D01*
X03393Y013827D01*
X033863Y013702D01*
X033773Y013593D01*
X033663Y013503D01*
X033538Y013436D01*
X033402Y013395D01*
X033313Y013386D01*
X033313Y013382D01*
X033313Y013382D01*
X026698Y012908D01*
X026691Y012907D01*
X026593Y012899D01*
X026402Y012853D01*
X02622Y012778D01*
X026052Y012675D01*
X026024Y012651D01*
X025983Y012622D01*
X025945Y01259D01*
X025729Y012411D01*
X025267Y012071D01*
X024785Y011759D01*
X024286Y011477D01*
X02377Y011226D01*
X02324Y011007D01*
X022697Y01082D01*
X022144Y010665D01*
X021583Y010545D01*
X02117Y010482D01*
X021121Y010476D01*
X021026Y010467D01*
X020885Y01048D01*
X020749Y010522D01*
X020624Y010588D01*
X020515Y010678D01*
X020449Y010758D01*
X02042Y010797D01*
X020415Y010805D01*
X02039Y010836D01*
X020334Y010904D01*
X020234Y010986D01*
X020121Y011047D01*
X019998Y011084D01*
X019869Y011097D01*
X019741Y011084D01*
X019618Y011047D01*
X019505Y010986D01*
X019405Y010904D01*
X019349Y010836D01*
X019324Y010805D01*
X019324Y010805D01*
X019319Y010797D01*
X019319Y010797D01*
X019319Y010797D01*
X01929Y010758D01*
X019225Y010679D01*
X019115Y010589D01*
X01899Y010522D01*
X018854Y01048D01*
X018713Y010467D01*
X018618Y010476D01*
X018618Y010476D01*
Y010476D01*
X018617Y010475D01*
X018156Y010545D01*
X017595Y010665D01*
X017042Y01082D01*
X017008Y010831D01*
X01701Y01088D01*
X017193Y010899D01*
X01737Y010952D01*
X017532Y011039D01*
X017674Y011156D01*
X017791Y011298D01*
X017878Y01146D01*
X017931Y011637D01*
X01795Y01182D01*
X017931Y012003D01*
X017878Y01218D01*
X017791Y012342D01*
X017674Y012484D01*
X017532Y012601D01*
X01737Y012688D01*
X017193Y012741D01*
X01701Y01276D01*
X016827Y012741D01*
X01665Y012688D01*
X016488Y012601D01*
X016346Y012484D01*
X016229Y012342D01*
X016142Y01218D01*
X016089Y012003D01*
X01607Y01182D01*
X016089Y011637D01*
X016142Y01146D01*
X016229Y011298D01*
X016346Y011156D01*
X016422Y011093D01*
X016396Y01105D01*
X015969Y011226D01*
X015453Y011478D01*
X014953Y01176D01*
X014935Y011772D01*
X014939Y011804D01*
X014946Y011824D01*
X015Y011846D01*
X015044Y01189D01*
X015068Y011948D01*
Y011974D01*
X015073Y011978D01*
X015109Y011998D01*
X01514Y011983D01*
X015142Y011975D01*
Y011948D01*
X015166Y01189D01*
X01521Y011846D01*
X015268Y011822D01*
X015332D01*
X01539Y011846D01*
X015434Y01189D01*
X015458Y011948D01*
Y011966D01*
X015478Y012012D01*
X015505Y012012D01*
X015542D01*
X0156Y012036D01*
X015644Y01208D01*
X015668Y012138D01*
Y012175D01*
X015668Y012202D01*
X015714Y012222D01*
X015732D01*
X01579Y012246D01*
X015834Y01229D01*
X015858Y012348D01*
Y012375D01*
X015867Y012413D01*
X015905Y012422D01*
X015932D01*
X01599Y012446D01*
X016034Y01249D01*
X016058Y012548D01*
Y012575D01*
X016067Y012613D01*
X016105Y012622D01*
X016132D01*
X01619Y012646D01*
X016234Y01269D01*
X016258Y012748D01*
Y012766D01*
X016278Y012812D01*
X016305Y012812D01*
X016342D01*
X0164Y012836D01*
X016444Y01288D01*
X016468Y012938D01*
Y012975D01*
X016468Y013002D01*
X016514Y013022D01*
X016532D01*
X01659Y013046D01*
X016634Y01309D01*
X016658Y013148D01*
Y013212D01*
X016634Y01327D01*
X01659Y013314D01*
X016532Y013338D01*
X016515D01*
X016468Y013348D01*
X016468Y013385D01*
Y013412D01*
X016444Y01347D01*
X0164Y013514D01*
X016342Y013538D01*
X016285D01*
X016278Y013538D01*
X016238Y013576D01*
Y013602D01*
X016214Y01366D01*
X01617Y013704D01*
X016112Y013728D01*
X016095D01*
X016048Y013738D01*
X016048Y013775D01*
Y013802D01*
X016024Y01386D01*
X01598Y013904D01*
X015922Y013928D01*
X015875D01*
X015855Y013933D01*
X015828Y01397D01*
Y014002D01*
X015804Y01406D01*
X01576Y014104D01*
X015702Y014128D01*
X015685D01*
X015638Y014138D01*
X015638Y014175D01*
Y014202D01*
X015614Y01426D01*
X01557Y014304D01*
X015512Y014328D01*
X015475D01*
X015448Y014328D01*
X015428Y014374D01*
Y014392D01*
X015404Y01445D01*
X01536Y014494D01*
X015302Y014518D01*
X015285D01*
X015238Y014528D01*
X015238Y014565D01*
Y014592D01*
X015214Y01465D01*
X01517Y014694D01*
X015112Y014718D01*
X015048D01*
X01499Y014694D01*
X014946Y01465D01*
X014922Y014592D01*
Y014545D01*
X014917Y014525D01*
X01488Y014498D01*
X014848D01*
X01479Y014474D01*
X014746Y01443D01*
X014722Y014372D01*
Y014354D01*
X014702Y014308D01*
X014675Y014308D01*
X014638D01*
X01458Y014284D01*
X014536Y01424D01*
X014512Y014182D01*
Y014155D01*
X014503Y014117D01*
X014465Y014108D01*
X014438D01*
X01438Y014084D01*
X014336Y01404D01*
X014312Y013982D01*
Y013955D01*
X014303Y013917D01*
X014265Y013908D01*
X014238D01*
X01418Y013884D01*
X014136Y01384D01*
X014112Y013782D01*
Y013755D01*
X014112Y013718D01*
X014065Y013708D01*
X014048D01*
X01399Y013684D01*
X013946Y01364D01*
X013922Y013582D01*
Y013564D01*
X013902Y013518D01*
X013875Y013518D01*
X013838D01*
X01378Y013494D01*
X013736Y01345D01*
X013712Y013392D01*
Y013365D01*
X013712Y013328D01*
X013665Y013318D01*
X013648D01*
X01359Y013294D01*
X013546Y01325D01*
X013522Y013192D01*
Y013128D01*
X013546Y01307D01*
X01359Y013026D01*
X013648Y013002D01*
X013676D01*
X013715Y012984D01*
X013722Y012955D01*
Y012918D01*
X013746Y01286D01*
X01379Y012816D01*
X013848Y012792D01*
X013912D01*
X013922Y012785D01*
Y012738D01*
X013946Y01268D01*
X01399Y012636D01*
X014048Y012612D01*
X014076D01*
X014115Y012594D01*
X014122Y012565D01*
Y012528D01*
X014146Y01247D01*
X01419Y012426D01*
X014248Y012402D01*
X014285D01*
X014312Y012402D01*
X014332Y012356D01*
Y012338D01*
X014356Y01228D01*
X0144Y012236D01*
X014458Y012212D01*
X014486D01*
X014525Y012194D01*
X014532Y012165D01*
Y012128D01*
X014552Y012078D01*
X014535Y012054D01*
X014518Y012041D01*
X014471Y012072D01*
X014008Y012412D01*
X013567Y012779D01*
X013149Y013173D01*
X012756Y013591D01*
X012388Y014032D01*
X012048Y014494D01*
X011736Y014976D01*
X011454Y015476D01*
X011203Y015993D01*
X010983Y016523D01*
X010796Y017066D01*
X010642Y017619D01*
X010521Y01818D01*
X010435Y018747D01*
X010399Y019141D01*
X010447Y019169D01*
X010488Y019152D01*
X010552D01*
X01061Y019176D01*
X010632Y019198D01*
X010665Y019215D01*
X010698Y019198D01*
X01072Y019176D01*
X010778Y019152D01*
X010842D01*
X0109Y019176D01*
X010922Y019198D01*
X010955Y019215D01*
X010988Y019198D01*
X01101Y019176D01*
X011068Y019152D01*
X011132D01*
X01119Y019176D01*
X011212Y019198D01*
X011245Y019215D01*
X011278Y019198D01*
X0113Y019176D01*
X011358Y019152D01*
X011422D01*
X01148Y019176D01*
X011502Y019198D01*
X011535Y019215D01*
X011568Y019198D01*
X01159Y019176D01*
X011648Y019152D01*
X011712D01*
X01177Y019176D01*
X011792Y019198D01*
X011825Y019215D01*
X011858Y019198D01*
X01188Y019176D01*
X011938Y019152D01*
X012002D01*
X01206Y019176D01*
X012082Y019198D01*
X012115Y019215D01*
X012148Y019198D01*
X01217Y019176D01*
X012228Y019152D01*
X012292D01*
X01235Y019176D01*
X012372Y019198D01*
X012405Y019215D01*
X012438Y019198D01*
X01246Y019176D01*
X012518Y019152D01*
X012582D01*
X01264Y019176D01*
X012684Y01922D01*
X012708Y019278D01*
Y019342D01*
X012684Y0194D01*
X01264Y019444D01*
X012582Y019468D01*
X012518D01*
X01246Y019444D01*
X012438Y019422D01*
X012432Y019419D01*
X012376Y019442D01*
X012366Y019468D01*
X012377Y019483D01*
X012394Y0195D01*
X012418Y019558D01*
Y019622D01*
X012394Y01968D01*
X01235Y019724D01*
X012292Y019748D01*
X012228D01*
X01217Y019724D01*
X012148Y019702D01*
X012135Y019695D01*
X012105Y019706D01*
X012092Y019755D01*
X012092Y019758D01*
X012114Y01978D01*
X012138Y019838D01*
Y019902D01*
X012114Y01996D01*
X01207Y020004D01*
X012012Y020028D01*
X011948D01*
X01189Y020004D01*
X011868Y019982D01*
X011835Y019965D01*
X011802Y019982D01*
X01178Y020004D01*
X011722Y020028D01*
X011658D01*
X0116Y020004D01*
X011578Y019982D01*
X011545Y019965D01*
X011512Y019982D01*
X01149Y020004D01*
X011432Y020028D01*
X011368D01*
X01131Y020004D01*
X011288Y019982D01*
X011255Y019965D01*
X011222Y019982D01*
X0112Y020004D01*
X011142Y020028D01*
X011078D01*
X01102Y020004D01*
X010998Y019982D01*
X010965Y019965D01*
X010932Y019982D01*
X01091Y020004D01*
X010852Y020028D01*
X010788D01*
X01073Y020004D01*
X010708Y019982D01*
X010675Y019965D01*
X010642Y019982D01*
X01062Y020004D01*
X010562Y020028D01*
X010498D01*
X01044Y020004D01*
X010418Y019982D01*
X010369Y020004D01*
X010383Y020467D01*
X010435Y021039D01*
X010521Y021606D01*
X010559Y021784D01*
X010583Y021828D01*
X01073D01*
X010762Y021778D01*
X010758Y02176D01*
Y021712D01*
X010726Y02168D01*
X010702Y021622D01*
Y021558D01*
X010726Y0215D01*
X01077Y021456D01*
X010828Y021432D01*
X010892D01*
X01095Y021456D01*
X010994Y0215D01*
X011018Y021558D01*
Y021622D01*
X011008Y021648D01*
X01105Y021676D01*
X01108Y021646D01*
X011138Y021622D01*
X011202D01*
X01126Y021646D01*
X011304Y02169D01*
X011328Y021748D01*
Y021794D01*
X011432Y021898D01*
X011448Y021894D01*
X01147Y02184D01*
X011469Y021838D01*
X011413Y02171D01*
X011406Y02168D01*
X011411Y02165D01*
X011427Y021623D01*
X011453Y021606D01*
X011465Y0216D01*
X011476Y02154D01*
X011456Y02152D01*
X011432Y021462D01*
Y021398D01*
X011456Y02134D01*
X0115Y021296D01*
X011558Y021272D01*
X011622D01*
X01168Y021296D01*
X011724Y02134D01*
X011748Y021398D01*
Y021419D01*
X011795Y021453D01*
X01196Y02138D01*
X01199Y021373D01*
X01202Y021378D01*
X012047Y021395D01*
X012064Y02142D01*
X012122Y021549D01*
X012129Y02158D01*
X012125Y021612D01*
X012151Y021628D01*
X012169Y021654D01*
X012226Y021783D01*
X012233Y021813D01*
X012228Y021844D01*
X012229Y021846D01*
X012255Y021862D01*
X012273Y021887D01*
X01233Y022017D01*
X012335Y022039D01*
X012341Y022038D01*
X012342Y02204D01*
X012345Y02204D01*
X012351Y022046D01*
X012352Y022046D01*
X012352Y022047D01*
X012361Y022056D01*
X012378Y022071D01*
X012476Y022268D01*
X012476Y022269D01*
X012477Y022269D01*
X012478Y022293D01*
X01248Y022317D01*
X012479Y022318D01*
X012479Y022319D01*
X012469Y022331D01*
X012469Y022332D01*
X012477Y022349D01*
X012481Y022355D01*
X012505Y022408D01*
X012549Y022502D01*
X012549Y022503D01*
X012549Y022504D01*
X01255Y022528D01*
X012551Y022552D01*
X012551Y022552D01*
X012551Y022553D01*
X012551Y022553D01*
X012534Y022571D01*
X012518Y022589D01*
X012517Y022589D01*
X012517Y022589D01*
X012516Y022589D01*
X011988Y022824D01*
X0117Y023126D01*
X011722Y023172D01*
X011805Y023165D01*
X011813Y023168D01*
X011822Y023166D01*
X012182Y023232D01*
X012704Y023001D01*
X012728Y023D01*
X012752Y022999D01*
X012753Y022999D01*
X012753Y022999D01*
X012771Y023016D01*
X012789Y023032D01*
X012869Y023202D01*
X012869Y023203D01*
X012869Y023204D01*
X01287Y02322D01*
X012874Y02323D01*
X01287Y023239D01*
X012871Y02324D01*
X012895Y023263D01*
X012974Y023442D01*
X012974Y023442D01*
X012974Y023442D01*
X012976Y023492D01*
X012976Y023492D01*
Y023492D01*
X012976Y023492D01*
X012976Y023492D01*
X012958Y02351D01*
X012941Y023528D01*
X012941Y023528D01*
X012941Y023528D01*
X01242Y023759D01*
X012419Y023762D01*
X01241Y023777D01*
X012407Y023795D01*
X012405Y023797D01*
X012407Y023813D01*
X012363Y02396D01*
X012406Y023986D01*
X012445Y023948D01*
X012456Y023944D01*
X012464Y023936D01*
X013001Y0237D01*
X013002Y0237D01*
X013002Y0237D01*
X013026Y023699D01*
X013051Y023699D01*
X013051Y023699D01*
X013051Y023699D01*
X013098Y023718D01*
X013098Y023718D01*
X013098Y023718D01*
X013116Y023735D01*
X013133Y023752D01*
X013133Y023752D01*
X013134Y023753D01*
X013183Y023871D01*
X013183Y023894D01*
X013185Y023917D01*
X013166Y023972D01*
X013165Y023973D01*
X013165Y023975D01*
X013149Y023992D01*
X013134Y02401D01*
X013132Y02401D01*
X013131Y024011D01*
X01263Y024234D01*
X01262Y024241D01*
X012618Y024245D01*
X012617Y02425D01*
X012619Y024261D01*
X012638Y024302D01*
X012638Y024314D01*
X012643Y024324D01*
X012665Y024666D01*
X012658Y024687D01*
X012653Y024708D01*
X012178Y025366D01*
X012173Y025369D01*
X012171Y025374D01*
X012171Y025374D01*
X012153Y025415D01*
X012154Y025436D01*
X012388Y025754D01*
X012756Y026195D01*
X013149Y026613D01*
X013567Y027007D01*
X014008Y027374D01*
X014471Y027714D01*
X014953Y028026D01*
X015453Y028308D01*
X015969Y028559D01*
X016386Y028732D01*
X016412Y028689D01*
X016346Y028634D01*
X016229Y028492D01*
X016142Y02833D01*
X016089Y028153D01*
X01607Y02797D01*
X016089Y027787D01*
X016142Y02761D01*
X016229Y027448D01*
X016346Y027306D01*
X016488Y027189D01*
X01665Y027102D01*
X016827Y027049D01*
X01701Y02703D01*
X017193Y027049D01*
X01737Y027102D01*
X017532Y027189D01*
X017674Y027306D01*
X017791Y027448D01*
X017878Y02761D01*
X017931Y027787D01*
X01795Y02797D01*
X017931Y028153D01*
X017878Y02833D01*
X017791Y028492D01*
X017674Y028634D01*
X017532Y028751D01*
X01737Y028838D01*
X017193Y028891D01*
X017026Y028908D01*
X01702Y028959D01*
X017042Y028966D01*
X017595Y029121D01*
X018156Y029241D01*
X018612Y02931D01*
X018614Y029309D01*
X018614Y029309D01*
X018614Y029309D01*
X018708Y029319D01*
X01885Y029305D01*
D02*
G37*
G36*
X012125Y025328D02*
X0126Y02467D01*
X012578Y024328D01*
X012557Y024282D01*
X012551Y024252D01*
X012556Y024221D01*
X012572Y024195D01*
X012598Y024177D01*
X013105Y023951D01*
X013124Y023896D01*
X013074Y023778D01*
X013027Y023759D01*
X01249Y023995D01*
X012276Y0242D01*
X012276Y0242D01*
X012128Y024342D01*
X011819Y024638D01*
X011718Y02474D01*
X011725Y02479D01*
X011736Y02481D01*
X012048Y025292D01*
X012075Y025328D01*
X012125Y025328D01*
D02*
G37*
G36*
X011672Y024695D02*
X011772Y024592D01*
X011773Y024592D01*
X011774Y024591D01*
X012083Y024295D01*
X012083Y024295D01*
X012231Y024153D01*
X01224Y024144D01*
X012345Y023794D01*
X012342Y023784D01*
X012348Y023754D01*
X012364Y023727D01*
X012365Y023727D01*
X01237Y02371D01*
X012915Y023469D01*
X012835Y02329D01*
X012814Y023299D01*
X01281Y023299D01*
X01281Y023299D01*
D01*
X01224Y02355D01*
X01172Y023823D01*
D01*
X01132Y024033D01*
X011454Y02431D01*
X011672Y024695D01*
X011672Y024695D01*
D02*
G37*
G36*
X01169Y023765D02*
X01221Y023492D01*
X012212Y023492D01*
X012214Y023491D01*
X012784Y02324D01*
X012784D01*
X012784Y02324D01*
X012784Y02324D01*
X012788Y02324D01*
X012809Y02323D01*
X012809Y02323D01*
X012809D01*
X01281Y02323D01*
X01273Y02306D01*
X01219Y0233D01*
X01181Y02323D01*
X01156Y023249D01*
X01156D01*
X011329Y023267D01*
X010995Y023292D01*
X011203Y023793D01*
X011289Y02397D01*
X01169Y023765D01*
D02*
G37*
G36*
X011232Y023209D02*
X011324Y023202D01*
X011555Y023184D01*
X01195Y02277D01*
X01249Y02253D01*
X01241Y02236D01*
X01188Y022596D01*
D01*
X01187Y0226D01*
X011859Y022601D01*
D01*
X011594Y022623D01*
X010788Y022691D01*
X010796Y02272D01*
X01097Y023224D01*
X011232Y023209D01*
D02*
G37*
G36*
X011686Y022129D02*
X01168Y022135D01*
X011673Y02214D01*
X011666Y022145D01*
X011658Y022149D01*
X01165Y022152D01*
X011641Y022155D01*
X011631Y022157D01*
X011622Y022159D01*
X011611Y02216D01*
X0116Y02216D01*
X011636Y02224D01*
X011652Y02224D01*
X011667Y022242D01*
X011681Y022244D01*
X011693Y022246D01*
X011703Y02225D01*
X011713Y022254D01*
X01172Y022259D01*
X011726Y022265D01*
X011731Y022272D01*
X011735Y02228D01*
X011686Y022129D01*
D02*
G37*
G36*
X010782Y022626D02*
X011588Y022559D01*
X011854Y022536D01*
D01*
X011854D01*
X012384Y022301D01*
X012408Y0223D01*
X012411Y0223D01*
X012418Y022297D01*
X01232Y0221D01*
X012317Y022101D01*
X012315Y022104D01*
X01229Y022122D01*
X011783Y022347D01*
X011753Y022354D01*
X011722Y022349D01*
X011697Y022333D01*
X011281Y022301D01*
X011277Y022297D01*
X011261Y022294D01*
X011228Y022272D01*
X010849Y021893D01*
X010583D01*
X010642Y022167D01*
X01077Y022628D01*
X010777Y022629D01*
X010782Y022626D01*
D02*
G37*
G36*
X011574Y02191D02*
X011576Y021917D01*
X011576Y021924D01*
X011575Y021932D01*
X011572Y021939D01*
X011567Y021946D01*
X011559Y021953D01*
X011551Y02196D01*
X01154Y021967D01*
X011527Y021974D01*
X011513Y021981D01*
X011545Y022054D01*
X01156Y022048D01*
X011574Y022043D01*
X011586Y022039D01*
X011597Y022037D01*
X011607Y022037D01*
X011616Y022038D01*
X011624Y02204D01*
X01163Y022043D01*
X011635Y022049D01*
X011639Y022055D01*
X011574Y02191D01*
D02*
G37*
G36*
X01129Y021843D02*
X011286Y021839D01*
X011282Y021834D01*
X011279Y021828D01*
X011276Y021823D01*
X011274Y021817D01*
X011272Y02181D01*
X01127Y021804D01*
X011269Y021796D01*
X011269Y021789D01*
X011268Y021781D01*
X011171Y021878D01*
X011179Y021879D01*
X011186Y021879D01*
X011194Y02188D01*
X0112Y021882D01*
X011207Y021884D01*
X011213Y021886D01*
X011218Y021889D01*
X011224Y021892D01*
X011229Y021896D01*
X011233Y0219D01*
X01129Y021843D01*
D02*
G37*
G36*
X0109Y021713D02*
X010901Y021707D01*
X010903Y021701D01*
X010905Y021695D01*
X010907Y021689D01*
X01091Y021683D01*
X010914Y021677D01*
X010918Y021672D01*
X010923Y021666D01*
X010929Y02166D01*
X010791D01*
X010797Y021666D01*
X010802Y021672D01*
X010806Y021677D01*
X01081Y021683D01*
X010813Y021689D01*
X010815Y021695D01*
X010817Y021701D01*
X010819Y021707D01*
X01082Y021713D01*
X01082Y021719D01*
X0109D01*
X0109Y021713D01*
D02*
G37*
G36*
X011794Y021522D02*
X011786Y021525D01*
X011778Y021526D01*
X011769Y021525D01*
X01176Y021524D01*
X011751Y02152D01*
X011741Y021516D01*
X011731Y021509D01*
X01172Y021502D01*
X01171Y021492D01*
X011706Y021489D01*
X011706Y021489D01*
X011702Y021484D01*
X011699Y021478D01*
X011696Y021473D01*
X011694Y021467D01*
X011692Y02146D01*
X01169Y021454D01*
X011689Y021446D01*
X011689Y021439D01*
X011688Y021431D01*
X011591Y021528D01*
X011599Y021529D01*
X011606Y021529D01*
X011614Y02153D01*
X01162Y021532D01*
X011627Y021534D01*
X011633Y021536D01*
X011638Y021539D01*
X01164Y02154D01*
X011646Y021547D01*
X01165Y021556D01*
X011653Y021564D01*
X011654Y021571D01*
X011653Y021577D01*
X01165Y021583D01*
X011645Y021588D01*
X011638Y021592D01*
X011794Y021522D01*
D02*
G37*
%LPC*%
G36*
X02167Y029032D02*
X02167Y029032D01*
X02074D01*
X02074Y029032D01*
X020709Y029025D01*
X020682Y029008D01*
X020682Y029008D01*
X019312Y027638D01*
X019295Y027611D01*
X019288Y02758D01*
X019288Y02758D01*
Y024573D01*
X019238Y024568D01*
X019226Y024627D01*
X019223Y024631D01*
X019223Y024636D01*
X01919Y024711D01*
X019187Y024715D01*
X019185Y024719D01*
X019137Y024786D01*
X019133Y024789D01*
X019131Y024793D01*
X01907Y024849D01*
X019066Y02485D01*
X019063Y024854D01*
X018991Y024896D01*
X018987Y024897D01*
X018983Y0249D01*
X018905Y024926D01*
X0189Y024926D01*
X018896Y024928D01*
X018814Y024937D01*
X018809Y024936D01*
X018805Y024938D01*
X018763Y024934D01*
X018761Y024932D01*
X018758Y024933D01*
X018582Y024894D01*
X018581Y024893D01*
X018579Y024893D01*
X018233Y024791D01*
X018232Y02479D01*
X01823Y02479D01*
X017893Y024664D01*
X017892Y024663D01*
X01789Y024663D01*
X017562Y024513D01*
X017561Y024512D01*
X017559Y024512D01*
X017242Y024339D01*
X017241Y024338D01*
X01724Y024338D01*
X016936Y024143D01*
X016935Y024142D01*
X016934Y024142D01*
X016644Y023926D01*
X016643Y023925D01*
X016642Y023924D01*
X016368Y023689D01*
X016368Y023688D01*
X016366Y023687D01*
X01611Y023434D01*
X016109Y023432D01*
X016108Y023432D01*
X016027Y023339D01*
X015977Y023358D01*
Y02372D01*
X01597Y023753D01*
X015951Y023781D01*
X015061Y024671D01*
X015033Y02469D01*
X015Y024697D01*
X014566D01*
X014564Y0247D01*
X01452Y024744D01*
X014462Y024768D01*
X014398D01*
X01434Y024744D01*
X014296Y0247D01*
X014272Y024642D01*
Y024578D01*
X014296Y02452D01*
X01434Y024476D01*
X014398Y024452D01*
X014462D01*
X01452Y024476D01*
X014564Y02452D01*
X014566Y024523D01*
X014964D01*
X015699Y023788D01*
X015671Y023747D01*
X014996Y02404D01*
X014971Y02404D01*
X014947Y024041D01*
X014947Y02404D01*
X014946Y02404D01*
X014929Y024023D01*
X014911Y024007D01*
X014619Y02336D01*
X014618Y023336D01*
X014617Y023312D01*
X014628Y023282D01*
X014615Y023274D01*
X014597Y023249D01*
X014539Y023119D01*
X014533Y023089D01*
X014537Y023057D01*
X014511Y02304D01*
X014493Y023015D01*
X014435Y022885D01*
X014429Y022855D01*
X014434Y022825D01*
X01445Y022799D01*
X014476Y022781D01*
X014983Y022555D01*
X015013Y022548D01*
X015043Y022553D01*
X015069Y02257D01*
X015087Y022595D01*
X015145Y022725D01*
X015152Y022755D01*
X015147Y022787D01*
X015173Y022804D01*
X015191Y022829D01*
X015194Y022836D01*
X015328Y022818D01*
X015438Y022803D01*
X015444Y022803D01*
X01545Y022802D01*
X01547D01*
X015481Y022804D01*
X015492Y022805D01*
X015497Y022808D01*
X015503Y022809D01*
X015512Y022815D01*
X015522Y02282D01*
X015591Y022872D01*
X015628Y022838D01*
X015451Y022567D01*
X015451Y022565D01*
X015449Y022564D01*
X015274Y022249D01*
X015274Y022248D01*
X015272Y022247D01*
X015158Y022002D01*
X015104Y022D01*
X01506Y022044D01*
X015002Y022068D01*
X014938D01*
X014885Y022046D01*
X01484Y022065D01*
X014837Y022067D01*
X014834Y022084D01*
X014818Y02211D01*
X014792Y022128D01*
X014285Y022354D01*
X014255Y022361D01*
X014225Y022355D01*
X014199Y022339D01*
X014181Y022314D01*
X014123Y022184D01*
X014116Y022154D01*
X014121Y022121D01*
X014095Y022105D01*
X014077Y02208D01*
X014019Y02195D01*
X014012Y02192D01*
X014017Y021888D01*
X01399Y021871D01*
X013973Y021846D01*
X013915Y021716D01*
X013908Y021686D01*
X013913Y021656D01*
X013913Y021656D01*
X013912Y021654D01*
X013886Y021637D01*
X013868Y021612D01*
X013811Y021483D01*
X013804Y021453D01*
X013808Y02142D01*
X013782Y021404D01*
X013764Y021378D01*
X013707Y021249D01*
X0137Y021219D01*
X013705Y021188D01*
X013705Y021188D01*
X013704Y021186D01*
X013678Y02117D01*
X01366Y021145D01*
X013603Y021015D01*
X013596Y020985D01*
X013601Y020955D01*
X013618Y020928D01*
X013643Y020911D01*
X01415Y020685D01*
X01418Y020678D01*
X014194Y02068D01*
X01425Y020624D01*
X014206Y02058D01*
X014182Y020522D01*
Y020458D01*
X014206Y0204D01*
X01425Y020356D01*
X014308Y020332D01*
X014372D01*
X01443Y020356D01*
X014474Y0204D01*
X014498Y020458D01*
Y020472D01*
X014548Y020506D01*
X014558Y020502D01*
X014622D01*
X01468Y020526D01*
X014701Y020547D01*
X014749Y020524D01*
X014726Y020312D01*
X014726Y020311D01*
X014726Y020309D01*
X014711Y020033D01*
X014711Y020031D01*
X014711Y02003D01*
X014711Y019753D01*
X014711Y019752D01*
X014711Y019751D01*
X014726Y019474D01*
X014726Y019473D01*
X014726Y019472D01*
X014756Y019196D01*
X014757Y019195D01*
X014756Y019194D01*
X014801Y01892D01*
X014802Y018919D01*
X014802Y018918D01*
X014831Y018785D01*
X014831Y018782D01*
X014832Y018781D01*
X014831Y01878D01*
X014833Y018767D01*
X014833Y018767D01*
X014833Y018766D01*
X014835Y018753D01*
X014836Y018752D01*
X014836Y018752D01*
X014838Y018739D01*
X014839Y018738D01*
X014838Y018737D01*
X01484Y018732D01*
X014887Y018527D01*
X014888Y018526D01*
X014888Y018524D01*
X015016Y018123D01*
X015017Y018122D01*
X015017Y01812D01*
X015177Y017731D01*
X015178Y01773D01*
X015178Y017728D01*
X01537Y017354D01*
X015371Y017353D01*
X015372Y017351D01*
X015593Y016994D01*
X015595Y016993D01*
X015595Y016991D01*
X015845Y016653D01*
X015847Y016652D01*
X015847Y01665D01*
X016124Y016334D01*
X016126Y016333D01*
X016126Y016331D01*
X016428Y016039D01*
X01643Y016038D01*
X016431Y016037D01*
X016756Y01577D01*
X016758Y015769D01*
X016759Y015768D01*
X017104Y015529D01*
X017106Y015528D01*
X017107Y015527D01*
X017471Y015317D01*
X017473Y015316D01*
X017474Y015315D01*
X017854Y015136D01*
X017856Y015135D01*
X017858Y015134D01*
X018251Y014986D01*
X018253Y014987D01*
X018254Y014985D01*
X018659Y01487D01*
X018661Y014871D01*
X018662Y01487D01*
X019074Y014788D01*
X019076Y014789D01*
X019078Y014788D01*
X019496Y01474D01*
X019497Y014741D01*
X019499Y01474D01*
X019919Y014727D01*
X019921Y014728D01*
X019923Y014727D01*
X020342Y014749D01*
X020344Y01475D01*
X020346Y014749D01*
X020763Y014805D01*
X020764Y014806D01*
X020766Y014806D01*
X021177Y014896D01*
X021178Y014897D01*
X02118Y014896D01*
X021582Y01502D01*
X021583Y015021D01*
X021585Y015021D01*
X021975Y015177D01*
X021977Y015178D01*
X021979Y015178D01*
X022355Y015365D01*
X022356Y015367D01*
X022358Y015367D01*
X022718Y015585D01*
X022719Y015586D01*
X022721Y015587D01*
X023061Y015833D01*
X023062Y015834D01*
X023064Y015835D01*
X023383Y016108D01*
X023384Y01611D01*
X023386Y016111D01*
X023682Y016409D01*
X023682Y016411D01*
X023684Y016412D01*
X023954Y016734D01*
X023955Y016736D01*
X023956Y016737D01*
X024199Y01708D01*
X0242Y017081D01*
X024201Y017083D01*
X024415Y017444D01*
X024416Y017446D01*
X024417Y017447D01*
X024601Y017825D01*
X024601Y017827D01*
X024602Y017829D01*
X024754Y01822D01*
X024754Y018222D01*
X024755Y018224D01*
X024875Y018627D01*
X024874Y018629D01*
X024875Y01863D01*
X024961Y019042D01*
X024961Y019044D01*
X024962Y019045D01*
X025014Y019462D01*
X025013Y019464D01*
X025014Y019466D01*
X025032Y019886D01*
X025031Y019887D01*
X025032Y019889D01*
X025015Y020309D01*
X025014Y020311D01*
X025014Y020313D01*
X024963Y02073D01*
X024962Y020731D01*
X024962Y020733D01*
X024877Y021145D01*
X024876Y021146D01*
X024876Y021148D01*
X024757Y021551D01*
X024756Y021553D01*
X024756Y021555D01*
X024728Y021627D01*
X024771Y021655D01*
X02478Y021646D01*
X024838Y021622D01*
X024902D01*
X02496Y021646D01*
X025004Y02169D01*
X025028Y021748D01*
Y021812D01*
X025011Y021852D01*
X025054Y021881D01*
X025238Y021696D01*
Y017554D01*
X022532Y014848D01*
X022515Y014821D01*
X022508Y01479D01*
X022508Y01479D01*
Y013788D01*
X0225Y013784D01*
X022456Y01374D01*
X022432Y013682D01*
Y013618D01*
X022456Y01356D01*
X0225Y013516D01*
X022558Y013492D01*
X022622D01*
X02268Y013516D01*
X022724Y01356D01*
X022748Y013618D01*
Y013622D01*
X022798Y013656D01*
X022808Y013652D01*
X022872D01*
X02293Y013676D01*
X022974Y01372D01*
X022998Y013778D01*
Y013842D01*
X022974Y0139D01*
X02293Y013944D01*
X022872Y013968D01*
X022808D01*
X02275Y013944D01*
X022722Y013916D01*
X022672Y013936D01*
Y014756D01*
X025378Y017462D01*
X025392Y017464D01*
X02541Y017446D01*
X025468Y017422D01*
X025532D01*
X02559Y017446D01*
X025634Y01749D01*
X025638Y017498D01*
X02751D01*
X02751Y017498D01*
X027541Y017505D01*
X027568Y017522D01*
X031306Y02126D01*
X031676D01*
X031712Y021225D01*
X031712Y021152D01*
X031712Y021102D01*
Y020758D01*
X032482D01*
Y021102D01*
X032482Y021138D01*
X032482Y021188D01*
Y021532D01*
X032482D01*
Y021546D01*
X032482D01*
Y021926D01*
X032482D01*
Y021939D01*
X032482D01*
Y022319D01*
X032482D01*
Y022333D01*
X032482D01*
Y022713D01*
X032482D01*
Y022727D01*
X032482D01*
Y023107D01*
X032482D01*
Y023121D01*
X032482D01*
Y023501D01*
X032482D01*
Y023514D01*
X032482D01*
Y023894D01*
X032482D01*
Y023908D01*
X032482D01*
Y024288D01*
X032482D01*
Y024302D01*
X032482D01*
Y024682D01*
X032482D01*
Y024695D01*
X032482D01*
Y025075D01*
X031712D01*
Y024967D01*
X031175D01*
X031175Y024967D01*
X031144Y024961D01*
X031118Y024943D01*
X026598Y020424D01*
X026548Y020444D01*
Y020462D01*
X026524Y02052D01*
X02648Y020564D01*
X026462Y020619D01*
X026478Y020658D01*
Y020722D01*
X026454Y02078D01*
X02641Y020824D01*
X026352Y020848D01*
X026288D01*
X02623Y020824D01*
X026186Y02078D01*
X026162Y020722D01*
Y020658D01*
X026186Y0206D01*
X02623Y020556D01*
X026248Y020501D01*
X026232Y020462D01*
Y020398D01*
X026256Y02034D01*
X0263Y020296D01*
X026358Y020272D01*
X026376D01*
X026396Y020222D01*
X025898Y019724D01*
X025848Y019744D01*
Y019782D01*
X025824Y01984D01*
X02578Y019884D01*
X025722Y019908D01*
X025695D01*
X025658Y019908D01*
X025648Y019955D01*
X025648Y019972D01*
X025694Y019992D01*
X025712D01*
X02577Y020016D01*
X025814Y02006D01*
X025838Y020118D01*
Y020182D01*
X025814Y02024D01*
X02577Y020284D01*
X025712Y020308D01*
X025648D01*
X02559Y020284D01*
X025546Y02024D01*
X025522Y020182D01*
Y020145D01*
X025522Y020118D01*
X025476Y020098D01*
X025458D01*
X025443Y020092D01*
X025402Y02012D01*
Y02173D01*
X025395Y021761D01*
X025378Y021788D01*
X025378Y021788D01*
X024705Y02246D01*
X024708Y022468D01*
Y022532D01*
X024684Y02259D01*
X02464Y022634D01*
X024582Y022658D01*
X024518D01*
X02446Y022634D01*
X024416Y02259D01*
X024392Y022532D01*
Y022524D01*
X024342Y022479D01*
X024331Y02248D01*
X024205Y022693D01*
X024203Y022695D01*
X024203Y022696D01*
X023961Y02304D01*
X023959Y023041D01*
X023958Y023042D01*
X023689Y023365D01*
X023687Y023366D01*
X023686Y023367D01*
X023391Y023666D01*
X023389Y023667D01*
X023388Y023669D01*
X023069Y023942D01*
X023068Y023943D01*
X023067Y023945D01*
X022726Y024191D01*
X022724Y024192D01*
X022723Y024193D01*
X022364Y024411D01*
X022362Y024412D01*
X022361Y024413D01*
X021985Y024601D01*
X021983Y024601D01*
X021982Y024602D01*
X021592Y024759D01*
X02159Y024759D01*
X021588Y02476D01*
X021187Y024884D01*
X021185Y024883D01*
X021183Y024884D01*
X020978Y02493D01*
X020975Y024929D01*
X020973Y02493D01*
X020932Y024934D01*
X020927Y024933D01*
X020923Y024934D01*
X020841Y024925D01*
X020837Y024922D01*
X020832Y024923D01*
X020755Y024896D01*
X020751Y024893D01*
X020746Y024893D01*
X020676Y024851D01*
X020673Y024847D01*
X020668Y024846D01*
X020608Y02479D01*
X020606Y024786D01*
X020602Y024784D01*
X020554Y024717D01*
X020553Y024712D01*
X02055Y024709D01*
X020516Y024634D01*
X020516Y024629D01*
X020514Y024626D01*
X020497Y024545D01*
X020498Y024541D01*
X020496Y024536D01*
X020496Y024495D01*
X020495Y022866D01*
X020495Y022866D01*
X020495Y022866D01*
Y022553D01*
X020445Y022534D01*
X020403Y022562D01*
X020337Y022576D01*
X019963D01*
X019897Y022562D01*
X019882Y022552D01*
X019832Y022579D01*
Y024139D01*
X020934Y025241D01*
X020945Y025243D01*
X020995Y025231D01*
X021011Y025207D01*
X021052Y02518D01*
X021101Y02517D01*
X021229D01*
X021277Y02518D01*
X021318Y025207D01*
X021345Y025248D01*
X021355Y025297D01*
Y025523D01*
X021345Y025572D01*
X021318Y025613D01*
X021287Y025633D01*
Y025727D01*
X021318Y025747D01*
X021345Y025788D01*
X021355Y025837D01*
Y026063D01*
X021345Y026112D01*
X021318Y026153D01*
X021287Y026173D01*
Y026277D01*
X021318Y026297D01*
X021345Y026338D01*
X021355Y026387D01*
Y026613D01*
X021345Y026662D01*
X021318Y026703D01*
X021287Y026723D01*
Y026725D01*
X021278Y026772D01*
X021269Y026786D01*
X021252Y026835D01*
X021285Y026884D01*
X021296Y026942D01*
Y027158D01*
X021285Y027216D01*
X021252Y027265D01*
X021273Y027311D01*
X021278Y027318D01*
X021287Y027365D01*
Y027377D01*
X021318Y027397D01*
X021345Y027438D01*
X021355Y027487D01*
Y027713D01*
X021345Y027762D01*
X021318Y027803D01*
X021287Y027823D01*
Y027927D01*
X021318Y027947D01*
X021345Y027988D01*
X021355Y028037D01*
Y028263D01*
X021345Y028312D01*
X021318Y028353D01*
X021287Y028373D01*
Y028427D01*
X021318Y028447D01*
X021345Y028488D01*
X021355Y028537D01*
Y028763D01*
X021345Y028812D01*
X021341Y028818D01*
X021367Y028868D01*
X021533D01*
X021559Y028818D01*
X021555Y028812D01*
X021545Y028763D01*
Y028537D01*
X021555Y028488D01*
X021582Y028447D01*
X021611Y028428D01*
X021615Y028413D01*
Y028387D01*
X021611Y028372D01*
X021582Y028353D01*
X021555Y028312D01*
X021545Y028263D01*
Y028037D01*
X021555Y027988D01*
X021582Y027947D01*
X021623Y02792D01*
X021671Y02791D01*
X021799D01*
X021848Y02792D01*
X021889Y027947D01*
X021916Y027988D01*
X021926Y028037D01*
Y028068D01*
X022146D01*
X022148Y028066D01*
X022175Y028049D01*
X022206Y028042D01*
X022206Y028042D01*
X022374D01*
Y028035D01*
X022381Y028001D01*
X022401Y027971D01*
X02243Y027951D01*
X022465Y027944D01*
X0228D01*
X022835Y027951D01*
X022865Y027971D01*
X022884Y028001D01*
X022891Y028035D01*
Y028213D01*
X022884Y028248D01*
X022865Y028277D01*
X022835Y028297D01*
X0228Y028304D01*
X022465D01*
X02243Y028297D01*
X022401Y028277D01*
X022381Y028248D01*
X022374Y028213D01*
Y028206D01*
X02224D01*
X022238Y028208D01*
X022211Y028225D01*
X02218Y028232D01*
X02218Y028232D01*
X021926D01*
Y028263D01*
X021916Y028312D01*
X021889Y028353D01*
X021859Y028372D01*
X021856Y028387D01*
Y028413D01*
X021859Y028428D01*
X021889Y028447D01*
X021916Y028488D01*
X021926Y028537D01*
Y028763D01*
X021916Y028812D01*
X021889Y028853D01*
X021848Y02888D01*
X021817Y028886D01*
X021811Y028916D01*
X021793Y028942D01*
X021793Y028942D01*
X021728Y029008D01*
X021701Y029025D01*
X02167Y029032D01*
D02*
G37*
G36*
X021799Y02784D02*
X021671D01*
X021623Y02783D01*
X021582Y027803D01*
X021555Y027762D01*
X021545Y027713D01*
Y027487D01*
X021555Y027438D01*
X021582Y027397D01*
X021623Y02737D01*
X021671Y02736D01*
X021799D01*
X021848Y02737D01*
X021889Y027397D01*
X021916Y027438D01*
X021926Y027487D01*
Y027495D01*
X021976Y027509D01*
X022166Y027318D01*
X022166Y027318D01*
X022193Y027301D01*
X022224Y027294D01*
X022374D01*
Y027287D01*
X022381Y027252D01*
X022401Y027223D01*
X02243Y027203D01*
X022465Y027196D01*
X0228D01*
X022835Y027203D01*
X022865Y027223D01*
X022884Y027252D01*
X022891Y027287D01*
Y027465D01*
X022884Y027499D01*
X022865Y027529D01*
X022835Y027549D01*
X0228Y027556D01*
X022465D01*
X02243Y027549D01*
X022401Y027529D01*
X022381Y027499D01*
X022374Y027465D01*
Y027458D01*
X022258D01*
X022058Y027658D01*
X022031Y027675D01*
X022Y027682D01*
X022Y027682D01*
X021926D01*
Y027713D01*
X021916Y027762D01*
X021889Y027803D01*
X021848Y02783D01*
X021799Y02784D01*
D02*
G37*
G36*
X014792Y027188D02*
X014728D01*
X01467Y027164D01*
X014626Y02712D01*
X014622Y027112D01*
X01423D01*
X01423Y027112D01*
X014199Y027105D01*
X014172Y027088D01*
X014172Y027088D01*
X013934Y026849D01*
X013909Y026866D01*
X013866Y026875D01*
X013823Y026866D01*
X013787Y026842D01*
X013718Y026773D01*
X013694Y026737D01*
X013685Y026694D01*
X013694Y026651D01*
X013718Y026615D01*
X013815Y026518D01*
X013851Y026494D01*
X013894Y026485D01*
X013937Y026494D01*
X013973Y026518D01*
X014042Y026587D01*
X014066Y026623D01*
X014075Y026666D01*
X014066Y026709D01*
X014049Y026734D01*
X014264Y026948D01*
X014622D01*
X014626Y02694D01*
X01467Y026896D01*
X014728Y026872D01*
X014792D01*
X014798Y026867D01*
Y025755D01*
X014768Y025749D01*
X014732Y025725D01*
X014708Y025689D01*
X0147Y025646D01*
Y025548D01*
X014708Y025505D01*
X014732Y025469D01*
X014768Y025445D01*
X014811Y025436D01*
X014949D01*
X014992Y025445D01*
X015028Y025469D01*
X015052Y025505D01*
X015052Y025505D01*
X015212D01*
X015219Y025472D01*
X015245Y025432D01*
X015248Y02543D01*
Y02537D01*
X015245Y025368D01*
X015219Y025328D01*
X015212Y025295D01*
X015052D01*
X015052Y025295D01*
X015028Y025331D01*
X014992Y025355D01*
X014949Y025364D01*
X014811D01*
X014768Y025355D01*
X014732Y025331D01*
X014708Y025295D01*
X0147Y025252D01*
Y025154D01*
X014708Y025111D01*
X014732Y025075D01*
X014768Y025051D01*
X014811Y025043D01*
X014949D01*
X014992Y025051D01*
X015028Y025075D01*
X015052Y025111D01*
X015056Y025131D01*
X015216D01*
X015219Y025117D01*
X015245Y025078D01*
X015284Y025052D01*
X015331Y025042D01*
X015449D01*
X015496Y025052D01*
X015535Y025078D01*
X015561Y025117D01*
X015567Y025148D01*
X015708D01*
X015708Y025145D01*
X015732Y025109D01*
X015738Y025105D01*
X015723Y025055D01*
X01567D01*
X015624Y025036D01*
X015605Y02499D01*
Y02471D01*
X015624Y024664D01*
X01567Y024645D01*
X01757D01*
X017616Y024664D01*
X018516Y025564D01*
X018535Y02561D01*
Y02591D01*
X018516Y025956D01*
X018306Y026166D01*
X01826Y026185D01*
X01796D01*
X017914Y026166D01*
X017854Y026106D01*
X017835Y02606D01*
Y025787D01*
X017103Y025055D01*
X016037D01*
X016022Y025105D01*
X016028Y025109D01*
X016052Y025145D01*
X01606Y025188D01*
Y025286D01*
X016052Y025329D01*
X016028Y025365D01*
X015992Y025389D01*
X015949Y025397D01*
X015811D01*
X015768Y025389D01*
X015732Y025365D01*
X015708Y025329D01*
X015705Y025311D01*
X015565D01*
X015561Y025328D01*
X015535Y025368D01*
X015532Y02537D01*
Y02543D01*
X015535Y025432D01*
X015561Y025472D01*
X01557Y025518D01*
Y025636D01*
X015561Y025683D01*
X015535Y025722D01*
X015529Y025786D01*
X015535Y025795D01*
X01613D01*
X016176Y025814D01*
X016426Y026064D01*
X016445Y02611D01*
Y02626D01*
X016426Y026306D01*
X015926Y026806D01*
X01588Y026825D01*
X01567D01*
X015624Y026806D01*
X015403Y026585D01*
X01508D01*
X015034Y026566D01*
X015008Y02654D01*
X014962Y026559D01*
Y02691D01*
X014962Y02691D01*
X014955Y026941D01*
X014938Y026968D01*
X014915Y02699D01*
X014918Y026998D01*
Y027062D01*
X014894Y02712D01*
X01485Y027164D01*
X014792Y027188D01*
D02*
G37*
G36*
X023635Y02793D02*
X0233D01*
X023265Y027923D01*
X023235Y027903D01*
X023216Y027874D01*
X023209Y027839D01*
Y027661D01*
X023216Y027626D01*
X023235Y027597D01*
X023265Y027577D01*
X0233Y02757D01*
X023635D01*
X023635Y02757D01*
X023644Y027567D01*
X023682Y02753D01*
Y027488D01*
X023706Y02743D01*
X02375Y027386D01*
X023758Y027382D01*
Y02738D01*
X023758Y02738D01*
X023765Y027349D01*
X023782Y027322D01*
X023812Y027292D01*
X023812Y027292D01*
X023839Y027275D01*
X02387Y027268D01*
X023974D01*
Y027237D01*
X023984Y027188D01*
X024011Y027147D01*
X024052Y02712D01*
X024101Y02711D01*
X024229D01*
X024277Y02712D01*
X024318Y027147D01*
X024345Y027188D01*
X024355Y027237D01*
Y027463D01*
X024345Y027512D01*
X024318Y027553D01*
X024277Y02758D01*
X024229Y02759D01*
X024101D01*
X024052Y02758D01*
X024043Y027574D01*
X023982Y027592D01*
X023974Y02761D01*
X02393Y027654D01*
X023922Y027658D01*
Y0277D01*
X023922Y0277D01*
X023915Y027731D01*
X023898Y027758D01*
X023898Y027758D01*
X023848Y027808D01*
X023821Y027825D01*
X02379Y027832D01*
X02379Y027832D01*
X023726D01*
Y027839D01*
X023719Y027874D01*
X023699Y027903D01*
X02367Y027923D01*
X023635Y02793D01*
D02*
G37*
G36*
X0228Y026904D02*
X022465D01*
X02243Y026897D01*
X022401Y026877D01*
X022381Y026848D01*
X022374Y026813D01*
Y026806D01*
X022244D01*
X022213Y026799D01*
X022186Y026782D01*
X022186Y026782D01*
X022173Y026768D01*
X022172Y026768D01*
X022108D01*
X02205Y026744D01*
X022006Y0267D01*
X021982Y026642D01*
Y026582D01*
X021926D01*
Y026613D01*
X021916Y026662D01*
X021889Y026703D01*
X021848Y02673D01*
X021799Y02674D01*
X021671D01*
X021623Y02673D01*
X021582Y026703D01*
X021555Y026662D01*
X021545Y026613D01*
Y026387D01*
X021555Y026338D01*
X021582Y026297D01*
X021623Y02627D01*
X021654Y026264D01*
Y026186D01*
X021623Y02618D01*
X021582Y026153D01*
X021555Y026112D01*
X021545Y026063D01*
Y025837D01*
X021555Y025788D01*
X021582Y025747D01*
X021623Y02572D01*
X021671Y02571D01*
X021764D01*
X021766Y025709D01*
X02179Y02566D01*
X021782Y02565D01*
X021671D01*
X021623Y02564D01*
X021582Y025613D01*
X021555Y025572D01*
X021545Y025523D01*
Y025297D01*
X021555Y025248D01*
X021582Y025207D01*
X021623Y02518D01*
X021671Y02517D01*
X021799D01*
X021848Y02518D01*
X021889Y025207D01*
X021916Y025248D01*
X021926Y025297D01*
Y025523D01*
X021925Y025529D01*
X02229Y025894D01*
X022374D01*
Y025887D01*
X022381Y025852D01*
X022401Y025823D01*
X02243Y025803D01*
X022465Y025796D01*
X0228D01*
X022835Y025803D01*
X022865Y025823D01*
X022884Y025852D01*
X022891Y025887D01*
Y026065D01*
X022884Y0261D01*
X022865Y026129D01*
X022835Y026149D01*
X0228Y026156D01*
X022465D01*
X02243Y026149D01*
X022401Y026129D01*
X022381Y0261D01*
X022374Y026065D01*
Y026058D01*
X022256D01*
X022256Y026058D01*
X022225Y026051D01*
X022198Y026034D01*
X022198Y026034D01*
X021971Y025806D01*
X021925Y025831D01*
X021926Y025837D01*
Y026063D01*
X021916Y026112D01*
X021889Y026153D01*
X021848Y02618D01*
X021817Y026186D01*
Y026264D01*
X021848Y02627D01*
X021889Y026297D01*
X021916Y026338D01*
X021926Y026387D01*
Y026418D01*
X02202D01*
X02202Y026418D01*
X022051Y026425D01*
X022078Y026442D01*
X022093Y026458D01*
X022108Y026452D01*
X022172D01*
X02223Y026476D01*
X022274Y02652D01*
X022298Y026578D01*
Y026642D01*
X022299Y026642D01*
X022374D01*
Y026635D01*
X022381Y0266D01*
X022401Y026571D01*
X02243Y026551D01*
X022465Y026544D01*
X0228D01*
X022835Y026551D01*
X022865Y026571D01*
X022884Y0266D01*
X022891Y026635D01*
Y026813D01*
X022884Y026848D01*
X022865Y026877D01*
X022835Y026897D01*
X0228Y026904D01*
D02*
G37*
G36*
X023635Y02653D02*
X0233D01*
X023265Y026523D01*
X023235Y026503D01*
X023216Y026474D01*
X023209Y026439D01*
Y026261D01*
X023216Y026226D01*
X023235Y026197D01*
X023265Y026177D01*
X0233Y02617D01*
X023635D01*
X02367Y026177D01*
X023699Y026197D01*
X023715Y02622D01*
X023735Y026229D01*
X023772Y026234D01*
X02379Y026216D01*
X023848Y026192D01*
X023912D01*
X02397Y026216D01*
X024002Y026248D01*
X024046Y026221D01*
X024047Y026219D01*
X024035Y026169D01*
X024011Y026153D01*
X023984Y026112D01*
X023974Y026063D01*
Y025837D01*
X023984Y025788D01*
X024011Y025747D01*
X024052Y02572D01*
X024101Y02571D01*
X024229D01*
X024277Y02572D01*
X024318Y025747D01*
X024345Y025788D01*
X024355Y025837D01*
Y026063D01*
X024345Y026112D01*
X024318Y026153D01*
X024277Y02618D01*
X024266Y026182D01*
X024246Y026225D01*
X02424Y026257D01*
X024222Y026283D01*
X024222Y026283D01*
X024098Y026408D01*
X024071Y026425D01*
X02404Y026432D01*
X02404Y026432D01*
X024018D01*
X024014Y02644D01*
X02397Y026484D01*
X023912Y026508D01*
X023848D01*
X02379Y026484D01*
X023772Y026466D01*
X023735Y026471D01*
X023715Y02648D01*
X023699Y026503D01*
X02367Y026523D01*
X023635Y02653D01*
D02*
G37*
G36*
X024799Y02759D02*
X024671D01*
X024623Y02758D01*
X024582Y027553D01*
X024555Y027512D01*
X024545Y027463D01*
Y027237D01*
X024555Y027188D01*
X024582Y027147D01*
X024623Y02712D01*
X024623Y02712D01*
Y027042D01*
X024548Y026966D01*
X024524Y02693D01*
X024515Y026887D01*
X024515Y026887D01*
Y026817D01*
X024482Y026795D01*
X024456Y026756D01*
X024447Y026709D01*
Y026591D01*
X024456Y026544D01*
X024482Y026505D01*
X024515Y026483D01*
Y026393D01*
X024515Y026393D01*
X024524Y02635D01*
X024548Y026314D01*
X024623Y026238D01*
Y02618D01*
X024623Y02618D01*
X024582Y026153D01*
X024555Y026112D01*
X024545Y026063D01*
Y025837D01*
X024555Y025788D01*
X024582Y025747D01*
X024623Y02572D01*
X024671Y02571D01*
X024799D01*
X024848Y02572D01*
X024889Y025747D01*
X024916Y025788D01*
X024926Y025837D01*
Y025838D01*
X02508D01*
Y02576D01*
X025099Y025714D01*
X025209Y025604D01*
X025255Y025585D01*
X025675D01*
X025721Y025604D01*
X025781Y025664D01*
X0258Y02571D01*
Y02591D01*
X025781Y025956D01*
X025711Y026026D01*
X025665Y026045D01*
X025226D01*
X025213Y026054D01*
X02517Y026062D01*
X02517Y026062D01*
X024926D01*
Y026063D01*
X024916Y026112D01*
X024889Y026153D01*
X024848Y02618D01*
X024848Y02618D01*
Y026285D01*
X024839Y026327D01*
X024815Y026364D01*
X024815Y026364D01*
X024742Y026437D01*
X024745Y026487D01*
X024772Y026505D01*
X024798Y026544D01*
X024808Y026591D01*
Y026709D01*
X024798Y026756D01*
X024772Y026795D01*
X024763Y026801D01*
X024759Y02686D01*
X024815Y026916D01*
X024815Y026916D01*
X024839Y026953D01*
X024848Y026995D01*
Y02712D01*
X024848Y02712D01*
X024889Y027147D01*
X024916Y027188D01*
X024926Y027237D01*
Y027463D01*
X024916Y027512D01*
X024889Y027553D01*
X024848Y02758D01*
X024799Y02759D01*
D02*
G37*
G36*
X029342Y025428D02*
X029278D01*
X02922Y025404D01*
X029176Y02536D01*
X029152Y025302D01*
Y025238D01*
X029176Y02518D01*
X02922Y025136D01*
X029278Y025112D01*
X029342D01*
X0294Y025136D01*
X029444Y02518D01*
X029468Y025238D01*
Y025302D01*
X029444Y02536D01*
X0294Y025404D01*
X029342Y025428D01*
D02*
G37*
G36*
X028022Y025388D02*
X027958D01*
X0279Y025364D01*
X027856Y02532D01*
X027832Y025262D01*
Y025198D01*
X027856Y02514D01*
X0279Y025096D01*
X027958Y025072D01*
X028022D01*
X02808Y025096D01*
X028124Y02514D01*
X028148Y025198D01*
Y025262D01*
X028124Y02532D01*
X02808Y025364D01*
X028022Y025388D01*
D02*
G37*
G36*
X025772Y024588D02*
X025708D01*
X02565Y024564D01*
X025606Y02452D01*
X025582Y024462D01*
Y024398D01*
X025606Y02434D01*
X02565Y024296D01*
X025708Y024272D01*
X025772D01*
X02583Y024296D01*
X025874Y02434D01*
X025898Y024398D01*
Y024462D01*
X025874Y02452D01*
X02583Y024564D01*
X025772Y024588D01*
D02*
G37*
G36*
X026672Y021458D02*
X026608D01*
X02655Y021434D01*
X026506Y02139D01*
X026482Y021332D01*
Y021268D01*
X026506Y02121D01*
X026534Y021182D01*
X026545Y02115D01*
X026534Y021118D01*
X026506Y02109D01*
X026482Y021032D01*
Y020968D01*
X026506Y02091D01*
X02655Y020866D01*
X026608Y020842D01*
X026672D01*
X02673Y020866D01*
X026774Y02091D01*
X026798Y020968D01*
Y021032D01*
X026774Y02109D01*
X026746Y021118D01*
X026735Y02115D01*
X026746Y021182D01*
X026774Y02121D01*
X026798Y021268D01*
Y021332D01*
X026774Y02139D01*
X02673Y021434D01*
X026672Y021458D01*
D02*
G37*
G36*
X013742Y020638D02*
X013678D01*
X01362Y020614D01*
X013576Y02057D01*
X013552Y020512D01*
Y020448D01*
X013576Y02039D01*
X01362Y020346D01*
X013678Y020322D01*
X013742D01*
X013762Y02033D01*
X013812Y020296D01*
Y020268D01*
X013836Y02021D01*
X01388Y020166D01*
X013938Y020142D01*
X014002D01*
X01406Y020166D01*
X014104Y02021D01*
X014128Y020268D01*
Y020332D01*
X014104Y02039D01*
X01406Y020434D01*
X014002Y020458D01*
X013938D01*
X013918Y02045D01*
X013868Y020484D01*
Y020512D01*
X013844Y02057D01*
X0138Y020614D01*
X013742Y020638D01*
D02*
G37*
G36*
X0324Y01923D02*
X032217Y019211D01*
X03204Y019158D01*
X031878Y019071D01*
X031736Y018954D01*
X031619Y018812D01*
X031532Y01865D01*
X031479Y018473D01*
X03146Y01829D01*
X031479Y018107D01*
X031532Y01793D01*
X031619Y017768D01*
X031736Y017626D01*
X031878Y017509D01*
X03204Y017422D01*
X032217Y017369D01*
X0324Y01735D01*
X032583Y017369D01*
X03276Y017422D01*
X032922Y017509D01*
X033064Y017626D01*
X033181Y017768D01*
X033268Y01793D01*
X033321Y018107D01*
X03334Y01829D01*
X033321Y018473D01*
X033268Y01865D01*
X033181Y018812D01*
X033064Y018954D01*
X032922Y019071D01*
X03276Y019158D01*
X032583Y019211D01*
X0324Y01923D01*
D02*
G37*
G36*
X030926Y01668D02*
X030208D01*
Y015961D01*
X030926D01*
Y01668D01*
D02*
G37*
G36*
X032324Y016381D02*
X032196D01*
X03207Y016356D01*
X031952Y016307D01*
X031845Y016235D01*
X031755Y016145D01*
X031683Y016038D01*
X031634Y01592D01*
X031609Y015794D01*
Y015666D01*
X031634Y01554D01*
X031683Y015422D01*
X031755Y015315D01*
X031845Y015225D01*
X031952Y015153D01*
X03207Y015104D01*
X032196Y015079D01*
X032324D01*
X03245Y015104D01*
X032568Y015153D01*
X032675Y015225D01*
X032765Y015315D01*
X032837Y015422D01*
X032886Y01554D01*
X032911Y015666D01*
Y015794D01*
X032886Y01592D01*
X032837Y016038D01*
X032765Y016145D01*
X032675Y016235D01*
X032568Y016307D01*
X03245Y016356D01*
X032324Y016381D01*
D02*
G37*
G36*
X021722Y013738D02*
X021658D01*
X0216Y013714D01*
X021556Y01367D01*
X021538Y013627D01*
X021531Y013611D01*
X021482Y0136D01*
X021462Y013608D01*
X021398D01*
X02134Y013584D01*
X021296Y01354D01*
X021272Y013482D01*
Y013418D01*
X021296Y01336D01*
X02134Y013316D01*
X021398Y013292D01*
X021462D01*
X02152Y013316D01*
X021564Y01336D01*
X021582Y013403D01*
X021589Y013419D01*
X021638Y01343D01*
X021658Y013422D01*
X021722D01*
X02178Y013446D01*
X021824Y01349D01*
X021848Y013548D01*
Y013612D01*
X021824Y01367D01*
X02178Y013714D01*
X021722Y013738D01*
D02*
G37*
%LPD*%
G36*
X021756Y028859D02*
X021756Y028852D01*
X021757Y028846D01*
X021759Y028841D01*
X02176Y028836D01*
X021763Y028833D01*
X021765Y02883D01*
X021768Y028828D01*
X021772Y028826D01*
X021775Y028826D01*
X021695D01*
X021699Y028826D01*
X021703Y028828D01*
X021706Y02883D01*
X021708Y028833D01*
X02171Y028836D01*
X021712Y028841D01*
X021714Y028846D01*
X021715Y028852D01*
X021715Y028859D01*
X021715Y028867D01*
X021755D01*
X021756Y028859D01*
D02*
G37*
G36*
X021772Y028474D02*
X021768Y028472D01*
X021765Y02847D01*
X021763Y028467D01*
X02176Y028464D01*
X021759Y028459D01*
X021757Y028454D01*
X021756Y028448D01*
X021756Y028441D01*
X021755Y028433D01*
X021715D01*
X021715Y028441D01*
X021715Y028448D01*
X021714Y028454D01*
X021712Y028459D01*
X02171Y028464D01*
X021708Y028467D01*
X021706Y02847D01*
X021703Y028472D01*
X021699Y028474D01*
X021695Y028474D01*
X021775D01*
X021772Y028474D01*
D02*
G37*
G36*
X021756Y028359D02*
X021756Y028352D01*
X021757Y028346D01*
X021759Y028341D01*
X02176Y028336D01*
X021763Y028333D01*
X021765Y02833D01*
X021768Y028328D01*
X021772Y028326D01*
X021775Y028326D01*
X021695D01*
X021699Y028326D01*
X021703Y028328D01*
X021706Y02833D01*
X021708Y028333D01*
X02171Y028336D01*
X021712Y028341D01*
X021714Y028346D01*
X021715Y028352D01*
X021715Y028359D01*
X021715Y028367D01*
X021755D01*
X021756Y028359D01*
D02*
G37*
G36*
X021264Y028484D02*
X021256Y028475D01*
X021249Y028465D01*
X021242Y028454D01*
X021237Y02844D01*
X021232Y028426D01*
X021229Y02841D01*
X021228Y0284D01*
X021229Y02839D01*
X021232Y028374D01*
X021237Y02836D01*
X021242Y028346D01*
X021249Y028335D01*
X021256Y028325D01*
X021264Y028316D01*
X021274Y028308D01*
X021055D01*
X021065Y028316D01*
X021073Y028325D01*
X02108Y028335D01*
X021087Y028346D01*
X021092Y02836D01*
X021097Y028374D01*
X0211Y02839D01*
X021102Y0284D01*
X0211Y02841D01*
X021097Y028426D01*
X021092Y02844D01*
X021087Y028454D01*
X02108Y028465D01*
X021073Y028475D01*
X021065Y028484D01*
X021055Y028492D01*
X021274D01*
X021264Y028484D01*
D02*
G37*
G36*
X021863Y028186D02*
X021864Y028183D01*
X021866Y02818D01*
X021869Y028177D01*
X021873Y028175D01*
X021877Y028173D01*
X021882Y028172D01*
X021889Y028171D01*
X021896Y02817D01*
X021903Y02817D01*
Y02813D01*
X021896Y02813D01*
X021889Y028129D01*
X021882Y028128D01*
X021877Y028127D01*
X021873Y028125D01*
X021869Y028123D01*
X021866Y02812D01*
X021864Y028117D01*
X021863Y028114D01*
X021862Y02811D01*
Y02819D01*
X021863Y028186D01*
D02*
G37*
G36*
X022438Y028084D02*
X022437Y028088D01*
X022436Y028091D01*
X022434Y028094D01*
X022431Y028097D01*
X022427Y028099D01*
X022423Y028101D01*
X022417Y028102D01*
X022411Y028103D01*
X022404Y028104D01*
X022396Y028104D01*
Y028144D01*
X022404Y028144D01*
X022411Y028145D01*
X022417Y028146D01*
X022423Y028147D01*
X022427Y028149D01*
X022431Y028151D01*
X022434Y028154D01*
X022436Y028157D01*
X022437Y02816D01*
X022438Y028164D01*
Y028084D01*
D02*
G37*
G36*
X021264Y027984D02*
X021256Y027975D01*
X021249Y027965D01*
X021242Y027954D01*
X021237Y02794D01*
X021232Y027926D01*
X021229Y02791D01*
X021227Y027892D01*
X021225Y027875D01*
X021227Y027858D01*
X021229Y02784D01*
X021232Y027824D01*
X021237Y02781D01*
X021242Y027796D01*
X021249Y027785D01*
X021256Y027775D01*
X021264Y027766D01*
X021274Y027758D01*
X021055D01*
X021065Y027766D01*
X021073Y027775D01*
X02108Y027785D01*
X021087Y027796D01*
X021092Y02781D01*
X021097Y027824D01*
X0211Y02784D01*
X021103Y027858D01*
X021104Y027875D01*
X021103Y027892D01*
X0211Y02791D01*
X021097Y027926D01*
X021092Y02794D01*
X021087Y027954D01*
X02108Y027965D01*
X021073Y027975D01*
X021065Y027984D01*
X021055Y027992D01*
X021274D01*
X021264Y027984D01*
D02*
G37*
G36*
X020639Y026132D02*
X020626Y026132D01*
X020585Y026129D01*
X020577Y026128D01*
X020571Y026126D01*
X020565Y026124D01*
X020561Y026122D01*
X020558Y02612D01*
X02053Y026148D01*
X020532Y026151D01*
X020534Y026155D01*
X020536Y026161D01*
X020538Y026167D01*
X020539Y026175D01*
X020541Y026193D01*
X020542Y026216D01*
X020542Y026229D01*
X020639Y026132D01*
D02*
G37*
G36*
X021264Y026334D02*
X021256Y026325D01*
X021249Y026315D01*
X021242Y026304D01*
X021237Y02629D01*
X021232Y026276D01*
X021229Y02626D01*
X021227Y026242D01*
X021225Y026225D01*
X021227Y026208D01*
X021229Y02619D01*
X021232Y026174D01*
X021237Y02616D01*
X021242Y026146D01*
X021249Y026135D01*
X021256Y026125D01*
X021264Y026116D01*
X021274Y026108D01*
X021055D01*
X021065Y026116D01*
X021073Y026125D01*
X02108Y026135D01*
X021087Y026146D01*
X021092Y02616D01*
X021097Y026174D01*
X0211Y02619D01*
X021103Y026208D01*
X021104Y026225D01*
X021103Y026242D01*
X0211Y02626D01*
X021097Y026276D01*
X021092Y02629D01*
X021087Y026304D01*
X02108Y026315D01*
X021073Y026325D01*
X021065Y026334D01*
X021055Y026342D01*
X021274D01*
X021264Y026334D01*
D02*
G37*
G36*
X020988Y028818D02*
X020984Y028812D01*
X020974Y028763D01*
Y028537D01*
X020984Y028488D01*
X021011Y028447D01*
X021042Y028427D01*
Y028373D01*
X021011Y028353D01*
X020984Y028312D01*
X020974Y028263D01*
Y028037D01*
X020984Y027988D01*
X021011Y027947D01*
X021042Y027927D01*
Y027823D01*
X021011Y027803D01*
X020984Y027762D01*
X020974Y027713D01*
Y027487D01*
X020984Y027438D01*
X021011Y027397D01*
X020984Y027357D01*
X020983Y027357D01*
X020983Y027357D01*
X020957Y027317D01*
X020955Y027307D01*
X02091Y027298D01*
X020861Y027265D01*
X020828Y027216D01*
X020816Y027158D01*
Y026942D01*
X020828Y026884D01*
X020861Y026835D01*
X02091Y026802D01*
X020945Y026795D01*
X020947Y026783D01*
X020973Y026743D01*
X021011Y026705D01*
X021011Y026703D01*
X020984Y026662D01*
X020974Y026613D01*
Y026387D01*
X020984Y026338D01*
X021011Y026297D01*
X021042Y026277D01*
Y026173D01*
X021011Y026153D01*
X020984Y026112D01*
X020974Y026063D01*
Y025837D01*
X020984Y025788D01*
X021011Y025747D01*
X021042Y025727D01*
Y025633D01*
X021011Y025613D01*
X020984Y025572D01*
X020974Y025523D01*
Y025522D01*
X02092D01*
X020898Y02554D01*
Y025572D01*
X020874Y02563D01*
X02083Y025674D01*
X020772Y025698D01*
X020708D01*
X02065Y025674D01*
X020606Y02563D01*
X020582Y025572D01*
Y025555D01*
X020582Y025508D01*
X020535Y025508D01*
X020518D01*
X02046Y025484D01*
X020416Y02544D01*
X020392Y025382D01*
Y025365D01*
X020392Y025318D01*
X020345Y025318D01*
X020328D01*
X02027Y025294D01*
X020226Y02525D01*
X020202Y025192D01*
Y025165D01*
X020193Y025127D01*
X020155Y025118D01*
X020128D01*
X02007Y025094D01*
X020026Y02505D01*
X020002Y024992D01*
Y024928D01*
X020026Y02487D01*
X02007Y024826D01*
X020093Y024816D01*
X020104Y024757D01*
X019623Y024277D01*
X019597Y024237D01*
X019588Y02419D01*
Y02238D01*
X019597Y022333D01*
X019623Y022293D01*
X019708Y022209D01*
X019748Y022183D01*
X019794Y022173D01*
X019804Y022122D01*
X019842Y022066D01*
X019884Y022038D01*
X019895Y022009D01*
X019898Y021995D01*
X019898Y021978D01*
X019882Y021954D01*
X019863Y02195D01*
X019822Y021923D01*
X019822Y021922D01*
X019772Y021937D01*
Y02199D01*
X019765Y022021D01*
X019748Y022048D01*
X019748Y022048D01*
X019532Y022264D01*
Y025006D01*
X0206Y026075D01*
X020608Y026072D01*
X020672D01*
X02073Y026096D01*
X020774Y02614D01*
X020798Y026198D01*
Y026262D01*
X020774Y02632D01*
X02073Y026364D01*
X020672Y026388D01*
X020608D01*
X02055Y026364D01*
X020506Y02632D01*
X020482Y026262D01*
Y026198D01*
X020485Y02619D01*
X019498Y025203D01*
X019452Y025222D01*
Y027546D01*
X020774Y028868D01*
X020962D01*
X020988Y028818D01*
D02*
G37*
G36*
X021264Y025784D02*
X021256Y025775D01*
X021249Y025765D01*
X021242Y025754D01*
X021237Y02574D01*
X021232Y025726D01*
X021229Y02571D01*
X021227Y025692D01*
X021226Y02568D01*
X021227Y025668D01*
X021229Y02565D01*
X021232Y025634D01*
X021237Y02562D01*
X021242Y025606D01*
X021249Y025595D01*
X021256Y025585D01*
X021264Y025576D01*
X021274Y025568D01*
X021055D01*
X021065Y025576D01*
X021073Y025585D01*
X02108Y025595D01*
X021087Y025606D01*
X021092Y02562D01*
X021097Y025634D01*
X0211Y02565D01*
X021103Y025668D01*
X021104Y02568D01*
X021103Y025692D01*
X0211Y02571D01*
X021097Y025726D01*
X021092Y02574D01*
X021087Y025754D01*
X02108Y025765D01*
X021073Y025775D01*
X021065Y025784D01*
X021055Y025792D01*
X021274D01*
X021264Y025784D01*
D02*
G37*
G36*
X02104Y025284D02*
X021039Y025294D01*
X021035Y025304D01*
X021029Y025312D01*
X021021Y02532D01*
X02101Y025326D01*
X020997Y025331D01*
X020981Y025335D01*
X020963Y025338D01*
X020943Y025339D01*
X02092Y02534D01*
Y02546D01*
X020942Y025461D01*
X020963Y025462D01*
X02098Y025465D01*
X020996Y025469D01*
X021009Y025474D01*
X021019Y02548D01*
X021027Y025488D01*
X021033Y025496D01*
X021037Y025506D01*
X021038Y025517D01*
X02104Y025284D01*
D02*
G37*
G36*
X031773Y024845D02*
X031773Y024849D01*
X031771Y024853D01*
X031769Y024856D01*
X031767Y024858D01*
X031763Y02486D01*
X031759Y024862D01*
X031753Y024864D01*
X031747Y024865D01*
X031741Y024865D01*
X031733Y024865D01*
Y024905D01*
X031741Y024906D01*
X031747Y024906D01*
X031753Y024907D01*
X031759Y024909D01*
X031763Y02491D01*
X031767Y024913D01*
X031769Y024915D01*
X031771Y024918D01*
X031773Y024922D01*
X031773Y024925D01*
Y024845D01*
D02*
G37*
G36*
X031712Y024695D02*
X031712D01*
Y024682D01*
X031712D01*
Y024573D01*
X031602D01*
X031602Y024573D01*
X03157Y024567D01*
X031544Y024549D01*
X031544Y024549D01*
X027595Y0206D01*
X027548Y020624D01*
Y020672D01*
X027524Y02073D01*
X02748Y020774D01*
X027422Y020798D01*
X027358D01*
X0273Y020774D01*
X027256Y02073D01*
X027232Y020672D01*
Y020608D01*
X027256Y02055D01*
X0273Y020506D01*
X027358Y020482D01*
X027406D01*
X02743Y020435D01*
X026226Y019232D01*
X025851D01*
X025829Y019282D01*
X025848Y019328D01*
Y019392D01*
X025833Y019428D01*
X031209Y024804D01*
X031712D01*
Y024695D01*
D02*
G37*
G36*
X014509Y024671D02*
X014531Y024651D01*
X014538Y024646D01*
X014544Y024642D01*
X01455Y024639D01*
X014555Y024637D01*
X01456Y024635D01*
X014565Y024635D01*
Y024585D01*
X01456Y024585D01*
X014555Y024583D01*
X01455Y024581D01*
X014544Y024578D01*
X014538Y024574D01*
X014531Y024569D01*
X014517Y024557D01*
X014509Y024549D01*
X0145Y024541D01*
Y024679D01*
X014509Y024671D01*
D02*
G37*
G36*
X031773Y024452D02*
X031773Y024455D01*
X031771Y024459D01*
X031769Y024462D01*
X031767Y024464D01*
X031763Y024467D01*
X031759Y024468D01*
X031753Y02447D01*
X031747Y024471D01*
X031741Y024471D01*
X031733Y024472D01*
Y024512D01*
X031741Y024512D01*
X031747Y024512D01*
X031753Y024513D01*
X031759Y024515D01*
X031763Y024517D01*
X031767Y024519D01*
X031769Y024521D01*
X031771Y024524D01*
X031773Y024528D01*
X031773Y024532D01*
Y024452D01*
D02*
G37*
G36*
Y024058D02*
X031773Y024062D01*
X031771Y024065D01*
X031769Y024068D01*
X031767Y024071D01*
X031763Y024073D01*
X031759Y024075D01*
X031753Y024076D01*
X031747Y024077D01*
X031741Y024078D01*
X031733Y024078D01*
Y024118D01*
X031741Y024118D01*
X031747Y024119D01*
X031753Y02412D01*
X031759Y024121D01*
X031763Y024123D01*
X031767Y024125D01*
X031769Y024128D01*
X031771Y024131D01*
X031773Y024134D01*
X031773Y024138D01*
Y024058D01*
D02*
G37*
G36*
Y023664D02*
X031773Y023668D01*
X031771Y023671D01*
X031769Y023674D01*
X031767Y023677D01*
X031763Y023679D01*
X031759Y023681D01*
X031753Y023682D01*
X031747Y023683D01*
X031741Y023684D01*
X031733Y023684D01*
Y023724D01*
X031741Y023724D01*
X031747Y023725D01*
X031753Y023726D01*
X031759Y023727D01*
X031763Y023729D01*
X031767Y023731D01*
X031769Y023734D01*
X031771Y023737D01*
X031773Y02374D01*
X031773Y023744D01*
Y023664D01*
D02*
G37*
G36*
Y023271D02*
X031773Y023274D01*
X031771Y023278D01*
X031769Y023281D01*
X031767Y023283D01*
X031763Y023286D01*
X031759Y023287D01*
X031753Y023289D01*
X031747Y02329D01*
X031741Y02329D01*
X031733Y023291D01*
Y023331D01*
X031741Y023331D01*
X031747Y023331D01*
X031753Y023332D01*
X031759Y023334D01*
X031763Y023336D01*
X031767Y023338D01*
X031769Y02334D01*
X031771Y023343D01*
X031773Y023347D01*
X031773Y023351D01*
Y023271D01*
D02*
G37*
G36*
X01579Y023625D02*
X01579Y023389D01*
X015306Y023068D01*
X01524Y02306D01*
X01469Y0233D01*
X014678Y023334D01*
X01497Y02398D01*
X01579Y023625D01*
D02*
G37*
G36*
X015186Y02297D02*
X015186Y022966D01*
X015187Y022962D01*
X015189Y022959D01*
X015193Y022955D01*
X015197Y022952D01*
X015203Y02295D01*
X01521Y022948D01*
X015218Y022946D01*
X015228Y022944D01*
X015207Y022897D01*
X015197Y022898D01*
X015188Y022898D01*
X01518Y022898D01*
X015173Y022897D01*
X015166Y022896D01*
X01516Y022894D01*
X015155Y022891D01*
X015151Y022888D01*
X015148Y022884D01*
X015146Y02288D01*
X015188Y022975D01*
X015186Y02297D01*
D02*
G37*
G36*
X031773Y022877D02*
X031773Y022881D01*
X031771Y022884D01*
X031769Y022887D01*
X031767Y02289D01*
X031763Y022892D01*
X031759Y022894D01*
X031753Y022895D01*
X031747Y022896D01*
X031741Y022897D01*
X031733Y022897D01*
Y022937D01*
X031741Y022937D01*
X031747Y022938D01*
X031753Y022939D01*
X031759Y02294D01*
X031763Y022942D01*
X031767Y022944D01*
X031769Y022947D01*
X031771Y02295D01*
X031773Y022953D01*
X031773Y022957D01*
Y022877D01*
D02*
G37*
G36*
Y022483D02*
X031773Y022487D01*
X031771Y02249D01*
X031769Y022493D01*
X031767Y022496D01*
X031763Y022498D01*
X031759Y0225D01*
X031753Y022501D01*
X031747Y022502D01*
X031741Y022503D01*
X031733Y022503D01*
Y022543D01*
X031741Y022543D01*
X031747Y022544D01*
X031753Y022545D01*
X031759Y022546D01*
X031763Y022548D01*
X031767Y02255D01*
X031769Y022553D01*
X031771Y022556D01*
X031773Y022559D01*
X031773Y022563D01*
Y022483D01*
D02*
G37*
G36*
X019856Y022235D02*
X019856Y022235D01*
X019854Y022235D01*
X019806Y022236D01*
X019794Y022236D01*
Y022356D01*
X019856Y022356D01*
Y022235D01*
D02*
G37*
G36*
X031773Y022089D02*
X031773Y022093D01*
X031771Y022097D01*
X031769Y0221D01*
X031767Y022102D01*
X031763Y022104D01*
X031759Y022106D01*
X031753Y022108D01*
X031747Y022109D01*
X031741Y022109D01*
X031733Y022109D01*
Y022149D01*
X031741Y02215D01*
X031747Y02215D01*
X031753Y022151D01*
X031759Y022153D01*
X031763Y022154D01*
X031767Y022157D01*
X031769Y022159D01*
X031771Y022162D01*
X031773Y022166D01*
X031773Y022169D01*
Y022089D01*
D02*
G37*
G36*
X014879Y021872D02*
X014875Y021882D01*
X014861Y021909D01*
X014856Y021916D01*
X014852Y021922D01*
X014848Y021927D01*
X014844Y021931D01*
X01484Y021934D01*
X014836Y021936D01*
X014854Y021983D01*
X014858Y021981D01*
X014863Y021981D01*
X014869Y021981D01*
X014876Y021982D01*
X014883Y021983D01*
X014891Y021985D01*
X014909Y021991D01*
X014919Y021995D01*
X01493Y022D01*
X014879Y021872D01*
D02*
G37*
G36*
X014771Y022037D02*
X014771Y022033D01*
X014771Y022028D01*
X014773Y022024D01*
X014777Y02202D01*
X014781Y022016D01*
X014786Y022012D01*
X014793Y022008D01*
X014801Y022004D01*
X01481Y022D01*
X014789Y021954D01*
X01478Y021958D01*
X014772Y02196D01*
X014764Y021962D01*
X014757Y021963D01*
X014751Y021963D01*
X014746Y021962D01*
X014741Y02196D01*
X014737Y021958D01*
X014734Y021954D01*
X014732Y02195D01*
X014772Y022042D01*
X014771Y022037D01*
D02*
G37*
G36*
X014665Y021798D02*
X014664Y021794D01*
X014665Y02179D01*
X014667Y021785D01*
X014668Y021784D01*
X014674Y021785D01*
X014682Y021786D01*
X0147Y021792D01*
X01471Y021796D01*
X014721Y021801D01*
X014669Y021673D01*
X014664Y021684D01*
X014651Y021711D01*
X014647Y021718D01*
X014643Y021724D01*
X014639Y021723D01*
X014635Y021722D01*
X014631Y021719D01*
X014628Y021716D01*
X014625Y021712D01*
X014635Y021733D01*
X014634Y021733D01*
X01463Y021736D01*
X014626Y021738D01*
X014645Y021785D01*
X01465Y021783D01*
X014655Y021783D01*
X014657Y021783D01*
X014666Y021803D01*
X014665Y021798D01*
D02*
G37*
G36*
X031773Y021696D02*
X031773Y0217D01*
X031771Y021703D01*
X031769Y021706D01*
X031767Y021709D01*
X031763Y021711D01*
X031759Y021713D01*
X031753Y021714D01*
X031747Y021715D01*
X031741Y021716D01*
X031733Y021716D01*
Y021756D01*
X031741Y021756D01*
X031747Y021757D01*
X031753Y021758D01*
X031759Y021759D01*
X031763Y021761D01*
X031767Y021763D01*
X031769Y021766D01*
X031771Y021769D01*
X031773Y021772D01*
X031773Y021776D01*
Y021696D01*
D02*
G37*
G36*
X019335Y021545D02*
X019332Y021547D01*
X019328Y021549D01*
X019324Y021549D01*
X01932Y021548D01*
X019315Y021546D01*
X01931Y021543D01*
X019304Y02154D01*
X019298Y021535D01*
X019291Y021529D01*
X019284Y021522D01*
X019256Y02155D01*
X019263Y021557D01*
X019273Y02157D01*
X019277Y021576D01*
X01928Y021581D01*
X019282Y021586D01*
X019283Y021591D01*
X019282Y021594D01*
X019281Y021598D01*
X019279Y021601D01*
X019335Y021545D01*
D02*
G37*
G36*
X014658Y021386D02*
X014653Y021397D01*
X014641Y021424D01*
X014637Y021431D01*
X014633Y021438D01*
X014629Y021443D01*
X014625Y021447D01*
X014621Y02145D01*
X014617Y021452D01*
X014638Y021498D01*
X014642Y021497D01*
X014647Y021496D01*
X014653Y021496D01*
X014659Y021496D01*
X014666Y021497D01*
X014674Y021499D01*
X014693Y021504D01*
X014703Y021508D01*
X014714Y021512D01*
X014658Y021386D01*
D02*
G37*
G36*
X014557Y021556D02*
X014557Y021552D01*
X014557Y021548D01*
X014559Y021543D01*
X014562Y021539D01*
X014567Y021534D01*
X014572Y02153D01*
X014578Y021526D01*
X014586Y021521D01*
X014595Y021517D01*
X014575Y021472D01*
X014566Y021475D01*
X014557Y021478D01*
X01455Y02148D01*
X014543Y021481D01*
X014537Y021482D01*
X014532Y021481D01*
X014527Y021479D01*
X014523Y021477D01*
X01452Y021474D01*
X014518Y02147D01*
X014558Y021561D01*
X014557Y021556D01*
D02*
G37*
G36*
X020075Y021554D02*
X020067Y021545D01*
X02006Y021535D01*
X020053Y021524D01*
X020048Y02151D01*
X020043Y021496D01*
X02004Y02148D01*
X020037Y021462D01*
X020036Y021445D01*
X020037Y021428D01*
X02004Y02141D01*
X020043Y021394D01*
X020048Y02138D01*
X020053Y021366D01*
X02006Y021355D01*
X020067Y021345D01*
X020075Y021336D01*
X020085Y021328D01*
X019866D01*
X019876Y021336D01*
X019884Y021345D01*
X019891Y021355D01*
X019898Y021366D01*
X019903Y02138D01*
X019908Y021394D01*
X019911Y02141D01*
X019913Y021428D01*
X019915Y021445D01*
X019913Y021462D01*
X019911Y02148D01*
X019908Y021496D01*
X019903Y02151D01*
X019898Y021524D01*
X019891Y021535D01*
X019884Y021545D01*
X019876Y021554D01*
X019866Y021562D01*
X020085D01*
X020075Y021554D01*
D02*
G37*
G36*
X031773Y021302D02*
X031773Y021306D01*
X031771Y021309D01*
X031769Y021312D01*
X031767Y021315D01*
X031763Y021317D01*
X031759Y021319D01*
X031753Y02132D01*
X031747Y021321D01*
X031741Y021322D01*
X031733Y021322D01*
Y021362D01*
X031741Y021362D01*
X031747Y021363D01*
X031753Y021364D01*
X031759Y021365D01*
X031763Y021367D01*
X031767Y021369D01*
X031769Y021372D01*
X031771Y021375D01*
X031773Y021378D01*
X031773Y021382D01*
Y021302D01*
D02*
G37*
G36*
X014452Y021321D02*
X014451Y021316D01*
X014452Y021311D01*
X014453Y021305D01*
X014455Y021299D01*
X014458Y021293D01*
X014462Y021287D01*
X014467Y02128D01*
X014473Y021273D01*
X014479Y021266D01*
X014458Y021217D01*
X014451Y021224D01*
X014444Y021229D01*
X014438Y021233D01*
X014433Y021236D01*
X014428Y021238D01*
X014423Y021239D01*
X014419Y021238D01*
X014416Y021236D01*
X014413Y021233D01*
X01441Y021228D01*
X014454Y021326D01*
X014452Y021321D01*
D02*
G37*
G36*
X014338Y021065D02*
X014337Y02106D01*
X014337Y021055D01*
X014338Y021049D01*
X01434Y021044D01*
X014344Y021037D01*
X014348Y021031D01*
X014353Y021024D01*
X014358Y021017D01*
X014365Y02101D01*
X014344Y020961D01*
X014336Y020968D01*
X014329Y020974D01*
X014323Y020979D01*
X014317Y020982D01*
X014312Y020984D01*
X014307Y020985D01*
X014303Y020985D01*
X014299Y020983D01*
X014296Y02098D01*
X014293Y020976D01*
X01434Y02107D01*
X014338Y021065D01*
D02*
G37*
G36*
X019441Y020994D02*
X019437Y020992D01*
X019434Y02099D01*
X019432Y020987D01*
X01943Y020984D01*
X019428Y020979D01*
X019426Y020974D01*
X019425Y020968D01*
X019425Y020961D01*
X019425Y020953D01*
X019385D01*
X019384Y020961D01*
X019384Y020968D01*
X019383Y020974D01*
X019381Y020979D01*
X01938Y020984D01*
X019377Y020987D01*
X019375Y02099D01*
X019372Y020992D01*
X019368Y020994D01*
X019365Y020994D01*
X019445D01*
X019441Y020994D01*
D02*
G37*
G36*
X020075Y021004D02*
X020067Y020995D01*
X02006Y020985D01*
X020053Y020974D01*
X020048Y02096D01*
X020043Y020946D01*
X02004Y02093D01*
X020037Y020912D01*
X020036Y020893D01*
X020035Y020873D01*
X019915D01*
X019915Y020893D01*
X019913Y020912D01*
X019911Y02093D01*
X019908Y020946D01*
X019903Y02096D01*
X019898Y020974D01*
X019891Y020985D01*
X019884Y020995D01*
X019876Y021004D01*
X019866Y021012D01*
X020085D01*
X020075Y021004D01*
D02*
G37*
G36*
X014232Y020828D02*
X014232Y020823D01*
X014232Y020818D01*
X014233Y020812D01*
X014235Y020806D01*
X014238Y0208D01*
X014242Y020794D01*
X014247Y020787D01*
X014253Y02078D01*
X01426Y020773D01*
X014238Y020724D01*
X014232Y02073D01*
X014226Y020735D01*
X01422Y020739D01*
X014214Y020742D01*
X014209Y020744D01*
X014205Y020745D01*
X0142Y020746D01*
X014196Y020745D01*
X014192Y020743D01*
X014189Y02074D01*
X014234Y020833D01*
X014232Y020828D01*
D02*
G37*
G36*
X014581Y02078D02*
X014582Y020777D01*
X014584Y020773D01*
X014586Y02077D01*
X014589Y020767D01*
X014593Y020764D01*
X014597Y020762D01*
X014602Y020759D01*
X014608Y020757D01*
X014615Y020755D01*
X014509Y020716D01*
X014513Y020722D01*
X01452Y020735D01*
X014523Y020741D01*
X014525Y020747D01*
X014527Y020753D01*
X014529Y020759D01*
X01453Y020766D01*
X01453Y020772D01*
X014531Y020778D01*
X014581Y020784D01*
X014581Y02078D01*
D02*
G37*
G36*
X014362Y020621D02*
X014364Y020616D01*
X014366Y020611D01*
X014369Y020605D01*
X014373Y020599D01*
X014378Y020592D01*
X014384Y020585D01*
X014398Y02057D01*
X014407Y020562D01*
X014269Y020558D01*
X014277Y020567D01*
X014296Y02059D01*
X014301Y020597D01*
X014305Y020603D01*
X014308Y020609D01*
X01431Y020614D01*
X014312Y020619D01*
X014312Y020624D01*
X014362Y020625D01*
X014362Y020621D01*
D02*
G37*
G36*
X020495Y022038D02*
Y021779D01*
X020495Y021779D01*
X020495Y021779D01*
X020495Y021726D01*
X020498Y021721D01*
X020497Y021715D01*
X020524Y021614D01*
X020528Y021609D01*
X020529Y021603D01*
X020582Y021513D01*
X020586Y021509D01*
X020589Y021504D01*
X020663Y02143D01*
X020669Y021428D01*
X020672Y021424D01*
X020717Y021398D01*
X020825Y021332D01*
X021025Y021177D01*
X021199Y020995D01*
X021346Y02079D01*
X02146Y020566D01*
X021541Y020327D01*
X021566Y020191D01*
X021522Y020156D01*
X0215Y020165D01*
X02135D01*
X021304Y020146D01*
X021173Y020015D01*
X02074D01*
X020694Y019996D01*
X020675Y01995D01*
Y019799D01*
X020625Y019778D01*
X020098Y020305D01*
Y020947D01*
X020129Y020967D01*
X020156Y021008D01*
X020166Y021057D01*
Y021283D01*
X020156Y021332D01*
X020129Y021373D01*
X020098Y021393D01*
Y021497D01*
X020129Y021517D01*
X020156Y021558D01*
X020166Y021607D01*
Y021833D01*
X020156Y021882D01*
X020152Y021889D01*
X020237Y021973D01*
X020263Y022013D01*
X020264Y022016D01*
X020337D01*
X020403Y022029D01*
X020445Y022057D01*
X020495Y022038D01*
D02*
G37*
G36*
X018962Y019914D02*
X018954Y019906D01*
X018942Y019891D01*
X018937Y019885D01*
X018934Y019879D01*
X018931Y019873D01*
X01893Y019868D01*
X01893Y019864D01*
X018931Y01986D01*
X018933Y019857D01*
X018882Y019917D01*
X018885Y019915D01*
X018888Y019914D01*
X018892Y019913D01*
X018897Y019915D01*
X018902Y019917D01*
X018908Y01992D01*
X018914Y019925D01*
X018921Y01993D01*
X018937Y019945D01*
X018962Y019914D01*
D02*
G37*
G36*
X018961Y019663D02*
X018953Y019654D01*
X018941Y01964D01*
X018936Y019634D01*
X018933Y019628D01*
X01893Y019622D01*
X018929Y019618D01*
X018929Y019614D01*
X01893Y01961D01*
X018933Y019607D01*
X018876Y019661D01*
X018879Y019659D01*
X018883Y019658D01*
X018887Y019658D01*
X018891Y01966D01*
X018897Y019662D01*
X018903Y019665D01*
X018909Y01967D01*
X018916Y019675D01*
X018932Y01969D01*
X018961Y019663D01*
D02*
G37*
G36*
X02156Y02004D02*
Y01964D01*
X02151Y01959D01*
X02135D01*
X02119Y01975D01*
X02074D01*
Y01995D01*
X0212D01*
X02135Y0201D01*
X0215D01*
X02156Y02004D01*
D02*
G37*
G36*
X020787Y019528D02*
X020784Y019529D01*
X020779Y01953D01*
X020772Y019531D01*
X020751Y019533D01*
X020659Y019534D01*
Y019654D01*
X020787Y01966D01*
Y019528D01*
D02*
G37*
G36*
X018962Y019403D02*
X018954Y019395D01*
X018941Y019381D01*
X018937Y019374D01*
X018933Y019368D01*
X018931Y019363D01*
X01893Y019358D01*
X01893Y019354D01*
X018931Y01935D01*
X018933Y019347D01*
X01888Y019405D01*
X018883Y019403D01*
X018886Y019402D01*
X01889Y019402D01*
X018895Y019403D01*
X0189Y019405D01*
X018906Y019409D01*
X018912Y019413D01*
X018919Y019419D01*
X018935Y019433D01*
X018962Y019403D01*
D02*
G37*
G36*
X025781Y019463D02*
X025779Y01946D01*
X025776Y019455D01*
X025775Y01945D01*
X025774Y019444D01*
X025774Y019437D01*
X025775Y019429D01*
X025776Y01942D01*
X025778Y019411D01*
X025784Y019389D01*
X025663Y019455D01*
X025744Y019483D01*
X025781Y019463D01*
D02*
G37*
G36*
X031712Y021939D02*
X031712D01*
Y021926D01*
X031712D01*
Y021817D01*
X031506D01*
X031475Y021811D01*
X031448Y021793D01*
X031448Y021793D01*
X028455Y0188D01*
X028396Y018812D01*
X028384Y01884D01*
X02834Y018884D01*
X028282Y018908D01*
X028218D01*
X02816Y018884D01*
X028116Y01884D01*
X028092Y018782D01*
Y018718D01*
X028116Y01866D01*
X02816Y018616D01*
X028188Y018604D01*
X0282Y018545D01*
X028135Y01848D01*
X028104Y018492D01*
X028088Y018504D01*
Y018562D01*
X028064Y01862D01*
X02802Y018664D01*
X027962Y018688D01*
X027898D01*
X02784Y018664D01*
X027796Y01862D01*
X027772Y018562D01*
Y018498D01*
X027796Y01844D01*
X02784Y018396D01*
X027898Y018372D01*
X027956D01*
X027968Y018356D01*
X02798Y018325D01*
X027516Y017862D01*
X026902D01*
X026887Y017912D01*
X026888Y017912D01*
X02829Y019315D01*
X028343Y019297D01*
X028361Y019255D01*
X028405Y019211D01*
X028463Y019187D01*
X028527D01*
X028585Y019211D01*
X028629Y019255D01*
X028653Y019313D01*
Y019377D01*
X028629Y019435D01*
X028585Y019479D01*
X028543Y019497D01*
X028525Y01955D01*
X031023Y022048D01*
X031712D01*
Y021939D01*
D02*
G37*
G36*
X018962Y019144D02*
X018954Y019136D01*
X018942Y019121D01*
X018937Y019115D01*
X018934Y019109D01*
X018932Y019104D01*
X01893Y019099D01*
X01893Y019094D01*
X018931Y019091D01*
X018933Y019087D01*
X018884Y019149D01*
X018887Y019147D01*
X01889Y019146D01*
X018894Y019146D01*
X018898Y019147D01*
X018904Y019149D01*
X018909Y019152D01*
X018916Y019156D01*
X018923Y019162D01*
X018939Y019177D01*
X018962Y019144D01*
D02*
G37*
G36*
X02558Y01921D02*
X025611Y019182D01*
X025617Y019178D01*
X025622Y019174D01*
X025628Y019172D01*
X025632Y01917D01*
X025636Y01917D01*
Y01913D01*
X025632Y01913D01*
X025628Y019128D01*
X025622Y019126D01*
X025617Y019122D01*
X025611Y019118D01*
X025596Y019106D01*
X02558Y01909D01*
X02557Y019081D01*
Y019219D01*
X02558Y01921D01*
D02*
G37*
G36*
X02577Y01902D02*
X025801Y018992D01*
X025807Y018988D01*
X025812Y018984D01*
X025818Y018982D01*
X025822Y01898D01*
X025826Y01898D01*
Y01894D01*
X025822Y01894D01*
X025818Y018938D01*
X025812Y018936D01*
X025807Y018932D01*
X025801Y018928D01*
X025786Y018916D01*
X02577Y0189D01*
X02576Y018891D01*
Y019029D01*
X02577Y01902D01*
D02*
G37*
G36*
X02558Y01882D02*
X025611Y018792D01*
X025617Y018788D01*
X025622Y018784D01*
X025628Y018782D01*
X025632Y01878D01*
X025636Y01878D01*
Y01874D01*
X025632Y01874D01*
X025628Y018738D01*
X025622Y018736D01*
X025617Y018732D01*
X025611Y018728D01*
X025596Y018716D01*
X02558Y0187D01*
X02557Y018691D01*
Y018829D01*
X02558Y01882D01*
D02*
G37*
G36*
X019044Y021377D02*
X019058Y021362D01*
Y020154D01*
X018885Y019981D01*
X018536D01*
X018499Y019973D01*
X018468Y019953D01*
X018447Y019921D01*
X018439Y019884D01*
Y019816D01*
X018447Y019779D01*
X018468Y019747D01*
Y019697D01*
X018447Y019665D01*
X018439Y019629D01*
Y01956D01*
X018447Y019523D01*
X018468Y019492D01*
Y019441D01*
X018447Y019409D01*
X018439Y019373D01*
Y019304D01*
X018447Y019267D01*
X018468Y019236D01*
Y019185D01*
X018447Y019154D01*
X018439Y019117D01*
Y019048D01*
X018447Y019011D01*
X018468Y01898D01*
X018499Y018959D01*
X018536Y018952D01*
X0189D01*
X018937Y018959D01*
X018968Y01898D01*
X018989Y019011D01*
X018996Y019048D01*
Y019091D01*
X019748Y019842D01*
X019748Y019842D01*
X019765Y019869D01*
X019772Y0199D01*
Y02094D01*
X019819Y020959D01*
X019853Y020934D01*
Y020255D01*
X019862Y020208D01*
X019889Y020168D01*
X020549Y019508D01*
X020589Y019481D01*
X020636Y019472D01*
X020762D01*
X020763Y019471D01*
X0208Y019463D01*
X021164D01*
X021201Y019471D01*
X021232Y019492D01*
X021253Y019523D01*
X021253Y019524D01*
X021301Y019543D01*
X021308Y019542D01*
X02135Y019525D01*
X021503D01*
X021528Y019504D01*
X021544Y019485D01*
X021504Y019332D01*
X021405Y0191D01*
X021273Y018885D01*
X021112Y018692D01*
X021051Y018637D01*
X021005Y018658D01*
Y01875D01*
X020998Y018766D01*
X020996Y018783D01*
X020989Y018788D01*
X020986Y018796D01*
X02097Y018803D01*
X020956Y018813D01*
X020476Y018933D01*
X020468Y018932D01*
X02046Y018935D01*
X01992D01*
X019874Y018916D01*
X019864Y018906D01*
X019845Y01886D01*
Y01832D01*
X019864Y018274D01*
X019894Y018244D01*
X01994Y018225D01*
X019993D01*
X020003Y018175D01*
X019988Y018169D01*
X019742Y018169D01*
X019492Y018206D01*
X019251Y018278D01*
X019023Y018385D01*
X018813Y018525D01*
X018625Y018693D01*
X018463Y018887D01*
X018332Y019102D01*
X018233Y019334D01*
X018169Y019578D01*
X018142Y019828D01*
X018151Y02008D01*
X018196Y020328D01*
X018278Y020567D01*
X018393Y020791D01*
X018539Y020996D01*
X018714Y021178D01*
X018914Y021333D01*
X019008Y021391D01*
X019044Y021377D01*
D02*
G37*
G36*
X02577Y01863D02*
X025801Y018602D01*
X025807Y018598D01*
X025812Y018594D01*
X025818Y018592D01*
X025822Y01859D01*
X025826Y01859D01*
Y01855D01*
X025822Y01855D01*
X025818Y018548D01*
X025812Y018546D01*
X025807Y018542D01*
X025801Y018538D01*
X025786Y018526D01*
X02577Y01851D01*
X02576Y018501D01*
Y018639D01*
X02577Y01863D01*
D02*
G37*
G36*
X02558Y01843D02*
X025611Y018402D01*
X025617Y018398D01*
X025622Y018394D01*
X025628Y018392D01*
X025632Y01839D01*
X025636Y01839D01*
Y01835D01*
X025632Y01835D01*
X025628Y018348D01*
X025622Y018346D01*
X025617Y018342D01*
X025611Y018338D01*
X025596Y018326D01*
X02558Y01831D01*
X02557Y018301D01*
Y018439D01*
X02558Y01843D01*
D02*
G37*
G36*
X02094Y01875D02*
Y018553D01*
X020426Y01829D01*
X01994D01*
X01991Y01832D01*
Y01886D01*
X01992Y01887D01*
X02046D01*
X02094Y01875D01*
D02*
G37*
G36*
X02577Y01824D02*
X025801Y018212D01*
X025807Y018208D01*
X025812Y018204D01*
X025818Y018202D01*
X025822Y0182D01*
X025826Y0182D01*
Y01816D01*
X025822Y01816D01*
X025818Y018158D01*
X025812Y018156D01*
X025807Y018152D01*
X025801Y018148D01*
X025786Y018136D01*
X02577Y01812D01*
X02576Y018111D01*
Y018249D01*
X02577Y01824D01*
D02*
G37*
G36*
X02558Y01803D02*
X025611Y018002D01*
X025617Y017998D01*
X025622Y017994D01*
X025628Y017992D01*
X025632Y01799D01*
X025636Y01799D01*
Y01795D01*
X025632Y01795D01*
X025628Y017948D01*
X025622Y017946D01*
X025617Y017942D01*
X025611Y017938D01*
X025596Y017926D01*
X02558Y01791D01*
X02557Y017901D01*
Y018039D01*
X02558Y01803D01*
D02*
G37*
G36*
X02577Y01784D02*
X025801Y017812D01*
X025807Y017808D01*
X025812Y017804D01*
X025818Y017802D01*
X025822Y0178D01*
X025826Y0178D01*
Y01776D01*
X025822Y01776D01*
X025818Y017758D01*
X025812Y017756D01*
X025807Y017752D01*
X025801Y017748D01*
X025786Y017736D01*
X02577Y01772D01*
X02576Y017711D01*
Y017849D01*
X02577Y01784D01*
D02*
G37*
G36*
X02558Y01764D02*
X025611Y017612D01*
X025617Y017608D01*
X025622Y017604D01*
X025628Y017602D01*
X025632Y0176D01*
X025636Y0176D01*
Y01756D01*
X025632Y01756D01*
X025628Y017558D01*
X025622Y017556D01*
X025617Y017552D01*
X025611Y017548D01*
X025596Y017536D01*
X02558Y01752D01*
X02557Y017511D01*
Y017649D01*
X02558Y01764D01*
D02*
G37*
G36*
X02261Y013782D02*
X022612Y013778D01*
X022614Y013772D01*
X022618Y013767D01*
X022622Y013761D01*
X022634Y013746D01*
X02265Y01373D01*
X022659Y01372D01*
X022521D01*
X02253Y01373D01*
X022558Y013761D01*
X022562Y013767D01*
X022566Y013772D01*
X022568Y013778D01*
X02257Y013782D01*
X02257Y013786D01*
X02261D01*
X02261Y013782D01*
D02*
G37*
%LPC*%
G36*
X027592Y018378D02*
X027528D01*
X02747Y018354D01*
X027426Y01831D01*
X027402Y018252D01*
Y018188D01*
X027426Y01813D01*
X02747Y018086D01*
X027528Y018062D01*
X027592D01*
X02765Y018086D01*
X027694Y01813D01*
X027718Y018188D01*
Y018252D01*
X027694Y01831D01*
X02765Y018354D01*
X027592Y018378D01*
D02*
G37*
G36*
X020162Y019398D02*
X020098D01*
X02004Y019374D01*
X019996Y01933D01*
X019985Y019304D01*
X019931D01*
X019924Y01932D01*
X01988Y019364D01*
X019822Y019388D01*
X019758D01*
X0197Y019364D01*
X019656Y01932D01*
X019632Y019262D01*
Y019198D01*
X019656Y01914D01*
X0197Y019096D01*
X019758Y019072D01*
X019822D01*
X01988Y019096D01*
X019924Y01914D01*
X019935Y019166D01*
X019989D01*
X019996Y01915D01*
X02004Y019106D01*
X020098Y019082D01*
X020162D01*
X02022Y019106D01*
X020264Y01915D01*
X020288Y019208D01*
Y019272D01*
X020264Y01933D01*
X02022Y019374D01*
X020162Y019398D01*
D02*
G37*
G36*
X021164Y019213D02*
X0208D01*
X020763Y019206D01*
X020732Y019185D01*
X020711Y019154D01*
X020704Y019117D01*
Y019048D01*
X020711Y019011D01*
X020732Y01898D01*
X020763Y018959D01*
X0208Y018952D01*
X021164D01*
X021201Y018959D01*
X021232Y01898D01*
X021253Y019011D01*
X021261Y019048D01*
Y019117D01*
X021253Y019154D01*
X021232Y019185D01*
X021201Y019206D01*
X021164Y019213D01*
D02*
G37*
%LPD*%
G36*
X021863Y027636D02*
X021864Y027633D01*
X021866Y02763D01*
X021869Y027627D01*
X021873Y027625D01*
X021877Y027623D01*
X021882Y027622D01*
X021889Y027621D01*
X021896Y02762D01*
X021903Y02762D01*
Y02758D01*
X021896Y02758D01*
X021889Y027579D01*
X021882Y027578D01*
X021877Y027577D01*
X021873Y027575D01*
X021869Y027573D01*
X021866Y02757D01*
X021864Y027567D01*
X021863Y027564D01*
X021862Y02756D01*
Y02764D01*
X021863Y027636D01*
D02*
G37*
G36*
X022438Y027336D02*
X022437Y02734D01*
X022436Y027343D01*
X022434Y027346D01*
X022431Y027349D01*
X022427Y027351D01*
X022423Y027353D01*
X022417Y027354D01*
X022411Y027355D01*
X022404Y027356D01*
X022396Y027356D01*
Y027396D01*
X022404Y027396D01*
X022411Y027397D01*
X022417Y027398D01*
X022423Y027399D01*
X022427Y027401D01*
X022431Y027403D01*
X022434Y027406D01*
X022436Y027409D01*
X022437Y027412D01*
X022438Y027416D01*
Y027336D01*
D02*
G37*
G36*
X01469Y026961D02*
X01468Y02697D01*
X014649Y026998D01*
X014643Y027002D01*
X014638Y027006D01*
X014632Y027008D01*
X014628Y02701D01*
X014624Y02701D01*
Y02705D01*
X014628Y02705D01*
X014632Y027052D01*
X014638Y027054D01*
X014643Y027058D01*
X014649Y027062D01*
X014664Y027074D01*
X01468Y02709D01*
X01469Y027099D01*
Y026961D01*
D02*
G37*
G36*
X014858Y027016D02*
X014861Y026975D01*
X014862Y026967D01*
X014864Y026961D01*
X014866Y026955D01*
X014868Y026951D01*
X01487Y026948D01*
X014842Y02692D01*
X014839Y026922D01*
X014835Y026924D01*
X014829Y026926D01*
X014823Y026928D01*
X014815Y026929D01*
X014797Y026931D01*
X014774Y026932D01*
X014761Y026932D01*
X014858Y027029D01*
X014858Y027016D01*
D02*
G37*
G36*
X013992Y026764D02*
X013986Y026758D01*
X013982Y026753D01*
X013978Y026747D01*
X013975Y026743D01*
X013974Y026738D01*
X013972Y026734D01*
X013972Y02673D01*
X013973Y026727D01*
X013974Y026723D01*
X013977Y02672D01*
X01392Y026777D01*
X013923Y026774D01*
X013927Y026773D01*
X01393Y026772D01*
X013934Y026772D01*
X013938Y026774D01*
X013943Y026775D01*
X013947Y026778D01*
X013952Y026782D01*
X013958Y026786D01*
X013964Y026792D01*
X013992Y026764D01*
D02*
G37*
G36*
X01638Y02626D02*
Y02611D01*
X01613Y02586D01*
X01526D01*
X01498Y02614D01*
Y02642D01*
X01508Y02652D01*
X01543D01*
X01567Y02676D01*
X01588D01*
X01638Y02626D01*
D02*
G37*
G36*
X0149Y025727D02*
X014901Y02572D01*
X014902Y025714D01*
X014903Y025709D01*
X014905Y025704D01*
X014907Y0257D01*
X01491Y025698D01*
X014913Y025695D01*
X014916Y025694D01*
X01492Y025694D01*
X01484D01*
X014844Y025694D01*
X014847Y025695D01*
X01485Y025698D01*
X014853Y0257D01*
X014855Y025704D01*
X014857Y025709D01*
X014858Y025714D01*
X014859Y02572D01*
X01486Y025727D01*
X01486Y025735D01*
X0149D01*
X0149Y025727D01*
D02*
G37*
G36*
X014997Y025623D02*
X014998Y02562D01*
X015Y025617D01*
X015003Y025614D01*
X015007Y025612D01*
X015011Y02561D01*
X015017Y025609D01*
X015023Y025608D01*
X01503Y025607D01*
X015038Y025607D01*
Y025567D01*
X01503Y025567D01*
X015023Y025566D01*
X015017Y025565D01*
X015011Y025564D01*
X015007Y025562D01*
X015003Y02556D01*
X015Y025557D01*
X014998Y025554D01*
X014997Y025551D01*
X014997Y025547D01*
X014997Y025627D01*
X014997Y025623D01*
D02*
G37*
G36*
X015273Y025547D02*
X015273Y025551D01*
X015272Y025554D01*
X015269Y025557D01*
X015267Y02556D01*
X015263Y025562D01*
X015258Y025564D01*
X015253Y025565D01*
X015247Y025566D01*
X01524Y025567D01*
X015232Y025567D01*
Y025607D01*
X01524Y025607D01*
X015247Y025608D01*
X015253Y025609D01*
X015258Y02561D01*
X015263Y025612D01*
X015267Y025614D01*
X015269Y025617D01*
X015272Y02562D01*
X015273Y025623D01*
X015273Y025627D01*
Y025547D01*
D02*
G37*
G36*
X015763Y02519D02*
X015763Y025194D01*
X015762Y025197D01*
X01576Y0252D01*
X015757Y025203D01*
X015753Y025205D01*
X015749Y025207D01*
X015743Y025208D01*
X015737Y025209D01*
X01573Y02521D01*
X015722Y02521D01*
Y02525D01*
X01573Y02525D01*
X015737Y025251D01*
X015743Y025252D01*
X015749Y025253D01*
X015753Y025255D01*
X015757Y025257D01*
X01576Y02526D01*
X015762Y025263D01*
X015763Y025266D01*
X015763Y02527D01*
Y02519D01*
D02*
G37*
G36*
X015507Y025266D02*
X015508Y025263D01*
X015511Y02526D01*
X015513Y025257D01*
X015517Y025255D01*
X015522Y025253D01*
X015527Y025252D01*
X015533Y025251D01*
X01554Y02525D01*
X015548Y02525D01*
Y02521D01*
X01554Y02521D01*
X015533Y025209D01*
X015527Y025208D01*
X015522Y025207D01*
X015517Y025205D01*
X015513Y025203D01*
X015511Y0252D01*
X015508Y025197D01*
X015507Y025194D01*
X015507Y02519D01*
Y02527D01*
X015507Y025266D01*
D02*
G37*
G36*
X015273Y025173D02*
X015273Y025177D01*
X015272Y02518D01*
X015269Y025183D01*
X015267Y025186D01*
X015263Y025188D01*
X015258Y02519D01*
X015253Y025191D01*
X015247Y025192D01*
X01524Y025193D01*
X015232Y025193D01*
Y025233D01*
X01524Y025233D01*
X015247Y025234D01*
X015253Y025235D01*
X015258Y025236D01*
X015263Y025238D01*
X015267Y02524D01*
X015269Y025243D01*
X015272Y025246D01*
X015273Y025249D01*
X015273Y025253D01*
Y025173D01*
D02*
G37*
G36*
X014997Y025249D02*
X014998Y025246D01*
X015Y025243D01*
X015003Y02524D01*
X015007Y025238D01*
X015011Y025236D01*
X015017Y025235D01*
X015023Y025234D01*
X01503Y025233D01*
X015038Y025233D01*
Y025193D01*
X01503Y025193D01*
X015023Y025192D01*
X015017Y025191D01*
X015011Y02519D01*
X015007Y025188D01*
X015003Y025186D01*
X015Y025183D01*
X014998Y02518D01*
X014997Y025177D01*
X014997Y025173D01*
X014997Y025253D01*
X014997Y025249D01*
D02*
G37*
G36*
X01847Y02591D02*
Y02561D01*
X01757Y02471D01*
X01567D01*
Y02499D01*
X01713D01*
X0179Y02576D01*
Y02606D01*
X01796Y02612D01*
X01826D01*
X01847Y02591D01*
D02*
G37*
G36*
X023663Y027786D02*
X023664Y027783D01*
X023666Y02778D01*
X023669Y027777D01*
X023673Y027775D01*
X023677Y027773D01*
X023683Y027772D01*
X023689Y027771D01*
X023696Y02777D01*
X023704Y02777D01*
Y02773D01*
X023696Y02773D01*
X023689Y027729D01*
X023683Y027728D01*
X023677Y027727D01*
X023673Y027725D01*
X023669Y027723D01*
X023666Y02772D01*
X023664Y027717D01*
X023663Y027714D01*
X023662Y02771D01*
Y02779D01*
X023663Y027786D01*
D02*
G37*
G36*
X02386Y027652D02*
X023862Y027648D01*
X023864Y027642D01*
X023868Y027637D01*
X023872Y027631D01*
X023884Y027616D01*
X0239Y0276D01*
X023909Y02759D01*
X023771D01*
X02378Y0276D01*
X023808Y027631D01*
X023812Y027637D01*
X023816Y027642D01*
X023818Y027648D01*
X02382Y027652D01*
X02382Y027656D01*
X02386D01*
X02386Y027652D01*
D02*
G37*
G36*
X0239Y02744D02*
X023872Y027409D01*
X023868Y027403D01*
X023864Y027398D01*
X023862Y027392D01*
X02386Y027388D01*
X02386Y027384D01*
X02382D01*
X02382Y027388D01*
X023818Y027392D01*
X023816Y027398D01*
X023812Y027403D01*
X023808Y027409D01*
X023796Y027424D01*
X02378Y02744D01*
X023771Y02745D01*
X023909D01*
X0239Y02744D01*
D02*
G37*
G36*
X024038Y02731D02*
X024037Y027314D01*
X024036Y027317D01*
X024034Y02732D01*
X024031Y027323D01*
X024027Y027325D01*
X024023Y027327D01*
X024018Y027328D01*
X024011Y027329D01*
X024004Y02733D01*
X023997Y02733D01*
Y02737D01*
X024004Y02737D01*
X024011Y027371D01*
X024018Y027372D01*
X024023Y027373D01*
X024027Y027375D01*
X024031Y027377D01*
X024034Y02738D01*
X024036Y027383D01*
X024037Y027386D01*
X024038Y02739D01*
Y02731D01*
D02*
G37*
G36*
X022438Y026684D02*
X022437Y026688D01*
X022436Y026691D01*
X022434Y026694D01*
X022431Y026697D01*
X022427Y026699D01*
X022423Y026701D01*
X022417Y026702D01*
X022411Y026703D01*
X022404Y026704D01*
X022396Y026704D01*
Y026744D01*
X022404Y026744D01*
X022411Y026745D01*
X022417Y026746D01*
X022423Y026747D01*
X022427Y026749D01*
X022431Y026751D01*
X022434Y026754D01*
X022436Y026757D01*
X022437Y02676D01*
X022438Y026764D01*
Y026684D01*
D02*
G37*
G36*
X022246Y026698D02*
X022243Y026695D01*
X022241Y02669D01*
X02224Y026685D01*
X022238Y026679D01*
X022237Y026671D01*
X022237Y026663D01*
X022237Y026642D01*
X022238Y026618D01*
X022133Y026617D01*
X022132Y026512D01*
X022108Y026513D01*
X022087Y026513D01*
X022079Y026513D01*
X022071Y026512D01*
X022065Y02651D01*
X02206Y026509D01*
X022055Y026507D01*
X022052Y026504D01*
X022026Y026534D01*
X022028Y026537D01*
X02203Y026541D01*
X022032Y026546D01*
X022034Y026553D01*
X022041Y026603D01*
X022042Y026616D01*
X022133Y026617D01*
X022134Y026708D01*
X022147Y026709D01*
X022197Y026716D01*
X022204Y026718D01*
X022209Y02672D01*
X022213Y026722D01*
X022216Y026724D01*
X022246Y026698D01*
D02*
G37*
G36*
X021863Y026536D02*
X021864Y026533D01*
X021866Y02653D01*
X021869Y026527D01*
X021873Y026525D01*
X021877Y026523D01*
X021882Y026522D01*
X021889Y026521D01*
X021896Y02652D01*
X021903Y02652D01*
Y02648D01*
X021896Y02648D01*
X021889Y026479D01*
X021882Y026478D01*
X021877Y026477D01*
X021873Y026475D01*
X021869Y026473D01*
X021866Y02647D01*
X021864Y026467D01*
X021863Y026464D01*
X021862Y02646D01*
Y02654D01*
X021863Y026536D01*
D02*
G37*
G36*
X021772Y026324D02*
X021768Y026322D01*
X021765Y02632D01*
X021763Y026317D01*
X02176Y026314D01*
X021759Y026309D01*
X021757Y026304D01*
X021756Y026298D01*
X021756Y026291D01*
X021755Y026283D01*
X021715D01*
X021715Y026291D01*
X021715Y026298D01*
X021714Y026304D01*
X021712Y026309D01*
X02171Y026314D01*
X021708Y026317D01*
X021706Y02632D01*
X021703Y026322D01*
X021699Y026324D01*
X021695Y026324D01*
X021775D01*
X021772Y026324D01*
D02*
G37*
G36*
X021756Y026159D02*
X021756Y026152D01*
X021757Y026146D01*
X021759Y026141D01*
X02176Y026136D01*
X021763Y026133D01*
X021765Y02613D01*
X021768Y026128D01*
X021772Y026126D01*
X021775Y026126D01*
X021695D01*
X021699Y026126D01*
X021703Y026128D01*
X021706Y02613D01*
X021708Y026133D01*
X02171Y026136D01*
X021712Y026141D01*
X021714Y026146D01*
X021715Y026152D01*
X021715Y026159D01*
X021715Y026167D01*
X021755D01*
X021756Y026159D01*
D02*
G37*
G36*
X022438Y025936D02*
X022437Y02594D01*
X022436Y025943D01*
X022434Y025946D01*
X022431Y025949D01*
X022427Y025951D01*
X022423Y025953D01*
X022417Y025954D01*
X022411Y025955D01*
X022404Y025956D01*
X022396Y025956D01*
Y025996D01*
X022404Y025996D01*
X022411Y025997D01*
X022417Y025998D01*
X022423Y025999D01*
X022427Y026001D01*
X022431Y026003D01*
X022434Y026006D01*
X022436Y026009D01*
X022437Y026012D01*
X022438Y026016D01*
Y025936D01*
D02*
G37*
G36*
X021886Y025578D02*
X021879Y02557D01*
X021868Y025557D01*
X021864Y025551D01*
X021861Y025546D01*
X021859Y025541D01*
X021858Y025537D01*
X021858Y025533D01*
X02186Y025529D01*
X021862Y025526D01*
X021809Y025584D01*
X021811Y025582D01*
X021815Y02558D01*
X021818Y02558D01*
X021823Y025581D01*
X021827Y025583D01*
X021833Y025585D01*
X021838Y025589D01*
X021845Y025594D01*
X021851Y0256D01*
X021858Y025607D01*
X021886Y025578D01*
D02*
G37*
G36*
X023663Y026386D02*
X023664Y026383D01*
X023666Y02638D01*
X023669Y026377D01*
X023673Y026375D01*
X023677Y026373D01*
X023683Y026372D01*
X023689Y026371D01*
X023696Y02637D01*
X023704Y02637D01*
Y02633D01*
X023696Y02633D01*
X023689Y026329D01*
X023683Y026328D01*
X023677Y026327D01*
X023673Y026325D01*
X023669Y026323D01*
X023666Y02632D01*
X023664Y026317D01*
X023663Y026314D01*
X023662Y02631D01*
Y02639D01*
X023663Y026386D01*
D02*
G37*
G36*
X02396Y02641D02*
X023991Y026382D01*
X023997Y026378D01*
X024002Y026374D01*
X024008Y026372D01*
X024012Y02637D01*
X024016Y02637D01*
Y02633D01*
X024012Y02633D01*
X024008Y026328D01*
X024002Y026326D01*
X023997Y026322D01*
X023991Y026318D01*
X023976Y026306D01*
X02396Y02629D01*
X02395Y026281D01*
X02388Y02635D01*
X02395Y026419D01*
X02396Y02641D01*
D02*
G37*
G36*
X02388Y02635D02*
X02381Y026281D01*
X0238Y02629D01*
X023784Y026306D01*
X023769Y026318D01*
X023763Y026322D01*
X023758Y026326D01*
X023752Y026328D01*
X023748Y02633D01*
X023744Y02633D01*
Y02637D01*
X023748Y02637D01*
X023752Y026372D01*
X023758Y026374D01*
X023763Y026378D01*
X023769Y026382D01*
X0238Y02641D01*
X02381Y026419D01*
X02388Y02635D01*
D02*
G37*
G36*
X024185Y026159D02*
X024185Y026152D01*
X024186Y026146D01*
X024188Y026141D01*
X02419Y026136D01*
X024192Y026133D01*
X024194Y02613D01*
X024197Y026128D01*
X024201Y026126D01*
X024205Y026126D01*
X024125D01*
X024128Y026126D01*
X024132Y026128D01*
X024135Y02613D01*
X024137Y026133D01*
X02414Y026136D01*
X024141Y026141D01*
X024143Y026146D01*
X024144Y026152D01*
X024144Y026159D01*
X024145Y026167D01*
X024185D01*
X024185Y026159D01*
D02*
G37*
G36*
X024825Y027185D02*
X024817Y027182D01*
X02481Y027176D01*
X024803Y027168D01*
X024798Y027158D01*
X024793Y027145D01*
X02479Y027131D01*
X024787Y027114D01*
X024786Y027094D01*
X024785Y027073D01*
X024685D01*
X024685Y027094D01*
X024683Y027114D01*
X024681Y027131D01*
X024678Y027145D01*
X024673Y027158D01*
X024668Y027168D01*
X024661Y027176D01*
X024654Y027182D01*
X024645Y027185D01*
X024636Y027186D01*
X024835D01*
X024825Y027185D01*
D02*
G37*
G36*
X024678Y026846D02*
X024682Y026808D01*
X024685Y026793D01*
X02469Y02678D01*
X024695Y026769D01*
X024701Y026761D01*
X024709Y026755D01*
X024717Y026751D01*
X024727Y02675D01*
X024528D01*
X024537Y026751D01*
X024546Y026755D01*
X024553Y026761D01*
X024559Y026769D01*
X024565Y02678D01*
X024569Y026793D01*
X024573Y026808D01*
X024575Y026826D01*
X024577Y026846D01*
X024577Y026868D01*
X024677D01*
X024678Y026846D01*
D02*
G37*
G36*
X024717Y026549D02*
X024709Y026545D01*
X024701Y026539D01*
X024695Y026531D01*
X02469Y02652D01*
X024685Y026507D01*
X024682Y026492D01*
X024679Y026474D01*
X024678Y026454D01*
X024677Y026432D01*
X024577D01*
X024577Y026454D01*
X024573Y026492D01*
X024569Y026507D01*
X024565Y02652D01*
X024559Y026531D01*
X024553Y026539D01*
X024546Y026545D01*
X024537Y026549D01*
X024528Y02655D01*
X024727D01*
X024717Y026549D01*
D02*
G37*
G36*
X024786Y026206D02*
X024787Y026186D01*
X02479Y026169D01*
X024793Y026155D01*
X024798Y026142D01*
X024803Y026132D01*
X02481Y026124D01*
X024817Y026118D01*
X024825Y026115D01*
X024835Y026114D01*
X024636D01*
X024645Y026115D01*
X024654Y026118D01*
X024661Y026124D01*
X024668Y026132D01*
X024673Y026142D01*
X024678Y026155D01*
X024681Y026169D01*
X024683Y026186D01*
X024685Y026206D01*
X024685Y026227D01*
X024785D01*
X024786Y026206D01*
D02*
G37*
G36*
X024863Y02604D02*
X024866Y026032D01*
X024871Y026024D01*
X024878Y026018D01*
X024888Y026012D01*
X024899Y026008D01*
X024912Y026005D01*
X024927Y026002D01*
X024944Y026D01*
X024963Y026D01*
Y0259D01*
X024944Y0259D01*
X024927Y025898D01*
X024912Y025896D01*
X024899Y025892D01*
X024888Y025887D01*
X024878Y025882D01*
X024871Y025875D01*
X024866Y025868D01*
X024863Y025859D01*
X024862Y02585D01*
Y02605D01*
X024863Y02604D01*
D02*
G37*
G36*
X025735Y02591D02*
Y02571D01*
X025675Y02565D01*
X025255D01*
X025145Y02576D01*
X025145Y025925D01*
X0252Y02598D01*
X025665D01*
X025735Y02591D01*
D02*
G37*
D12*
X03325Y01829D02*
G03*
X03325Y01829I-00085J0D01*
G01*
X01786Y02797D02*
G03*
X01786Y02797I-00085J0D01*
G01*
Y01182D02*
G03*
X01786Y01182I-00085J0D01*
G01*
X01589Y02329D02*
Y02372D01*
X014062Y020935D02*
X014337Y02066D01*
X01545Y022889D02*
X01547D01*
X013957Y020935D02*
X014062D01*
X014166Y021402D02*
X014308D01*
X01534Y022904D02*
X01545Y022889D01*
X014556Y020694D02*
Y020784D01*
X014308Y021402D02*
X01467Y02104D01*
X01555Y02295D02*
X01589Y02329D01*
X014337Y020493D02*
X01434Y02049D01*
X015122Y022933D02*
X01534Y022904D01*
X014337Y020493D02*
Y02066D01*
X01427Y021636D02*
X01475Y02142D01*
X01547Y022889D02*
X01555Y02295D01*
X014556Y020694D02*
X01459Y02066D01*
X015058Y023017D02*
X015122Y022933D01*
X014062Y021169D02*
X014171D01*
X014894Y023039D02*
X015058Y023017D01*
X014171Y021169D02*
X014556Y020784D01*
X01467Y02094D02*
Y02104D01*
X01443Y02461D02*
X015D01*
X014478Y022104D02*
X01497Y02191D01*
X015Y02461D02*
X01589Y02372D01*
X014374Y02187D02*
X01476Y02171D01*
D14*
X024735Y02595D02*
X02517D01*
X0253Y02582D01*
X024627Y026393D02*
X024735Y026285D01*
Y02595D02*
Y026285D01*
X024627Y026393D02*
Y02665D01*
Y026887D01*
X024735Y026995D01*
Y02735D01*
D17*
X01488Y025203D02*
D03*
Y025597D02*
D03*
X01588Y024843D02*
D03*
Y025237D02*
D03*
D31*
X02015Y023004D02*
D03*
Y022296D02*
D03*
D32*
X01539Y025223D02*
D03*
Y025577D02*
D03*
X01684Y024863D02*
D03*
Y025217D02*
D03*
X01636Y024863D02*
D03*
Y025217D02*
D03*
D33*
X01455Y02626D02*
D03*
X01518D02*
D03*
X021056Y02705D02*
D03*
X021686D02*
D03*
X020105Y0185D02*
D03*
X019475D02*
D03*
D45*
X021735Y0265D02*
D03*
X021165D02*
D03*
X021165Y02595D02*
D03*
X021735D02*
D03*
X024165D02*
D03*
X024735D02*
D03*
X024165Y02735D02*
D03*
X024735D02*
D03*
X021735Y0276D02*
D03*
X021165D02*
D03*
X021735Y02541D02*
D03*
X021165D02*
D03*
X021165Y02815D02*
D03*
X021735D02*
D03*
X021735Y02865D02*
D03*
X021165D02*
D03*
X019405Y02172D02*
D03*
X019975D02*
D03*
Y02117D02*
D03*
X019405D02*
D03*
D80*
X02532Y01752D02*
Y02173D01*
X02455Y0225D02*
X02532Y02173D01*
X0255Y01837D02*
X02683D01*
X0255Y01797D02*
X02683D01*
X0255Y01876D02*
X02632D01*
X0255Y01915D02*
X02626D01*
X02259Y01479D02*
X02532Y01752D01*
X02259Y01365D02*
Y01479D01*
X0255Y01758D02*
X02751D01*
X02569Y0194D02*
X031175Y024885D01*
X02569Y01778D02*
X02755D01*
X02569Y01896D02*
X02636D01*
X02569Y01857D02*
X02681D01*
X02569Y01818D02*
X0269D01*
X02569Y01936D02*
Y0194D01*
X02404Y02635D02*
X024165Y026225D01*
X023467Y02635D02*
X02404D01*
X024165Y02595D02*
Y026225D01*
X030989Y022129D02*
X032097D01*
X02683Y01797D02*
X030989Y022129D01*
X018872Y019082D02*
X01969Y0199D01*
X018718Y019082D02*
X018872D01*
X01969Y0199D02*
Y02199D01*
X01887Y01985D02*
X01914Y02012D01*
Y021406D01*
X018718Y01985D02*
X01887D01*
X018718Y019594D02*
X018864D01*
X019405Y020135D02*
Y02117D01*
X018864Y019594D02*
X019405Y020135D01*
X018718Y019338D02*
X018868D01*
X0196Y02007D02*
Y02194D01*
X018868Y019338D02*
X0196Y02007D01*
X01914Y021406D02*
X019405Y021671D01*
Y02172D01*
X02202Y0265D02*
X022244Y026724D01*
X01945Y02504D02*
X02064Y02623D01*
X01945Y02223D02*
Y02504D01*
Y02223D02*
X01969Y02199D01*
X01937Y02217D02*
X0196Y02194D01*
X01937Y02217D02*
Y02758D01*
X02074Y02895D01*
X02167D02*
X021735Y028885D01*
X02074Y02895D02*
X02167D01*
X021735Y02865D02*
Y028885D01*
Y02865D02*
X021735Y02865D01*
X021735Y025455D02*
X022256Y025976D01*
X022633D01*
X021735Y02541D02*
Y025455D01*
X022244Y026724D02*
X022633D01*
X021735Y0265D02*
X02202D01*
X021735Y0265D02*
X021735Y0265D01*
X021735Y02595D02*
X021735Y02595D01*
Y0265D01*
X022Y0276D02*
X022224Y027376D01*
X022633D01*
X021735Y0276D02*
X022D01*
X022206Y028124D02*
X022633D01*
X02218Y02815D02*
X022206Y028124D01*
X021735Y02815D02*
X02218D01*
X021735Y02815D02*
Y02865D01*
Y02815D02*
X021735Y02815D01*
X01388Y02668D02*
X01423Y02703D01*
X01476D01*
X01388Y02668D02*
X01388D01*
X01476Y02703D02*
X01488Y02691D01*
Y025597D02*
Y02691D01*
X01489Y025587D02*
X01538D01*
X01539Y025577D01*
X01488Y025597D02*
X01489Y025587D01*
X01539Y025223D02*
X015397Y02523D01*
X015873D01*
X01588Y025237D01*
X01489Y025213D02*
X01538D01*
X01488Y025203D02*
X01489Y025213D01*
X01538D02*
X01539Y025223D01*
X02384Y02738D02*
X02387Y02735D01*
X024165D01*
X02384Y02738D02*
Y02752D01*
Y0277D01*
X02379Y02775D02*
X02384Y0277D01*
X023467Y02775D02*
X02379D01*
X031175Y024885D02*
X032097D01*
X02626Y01915D02*
X031602Y024492D01*
X032097D01*
X031498Y024098D02*
X032097D01*
X02636Y01896D02*
X031498Y024098D01*
X031264Y023704D02*
X032097D01*
X02632Y01876D02*
X031264Y023704D01*
X031551Y023311D02*
X032097D01*
X02681Y01857D02*
X031551Y023311D01*
X031377Y022917D02*
X032097D01*
X02683Y01837D02*
X031377Y022917D01*
X0269Y01818D02*
X031243Y022523D01*
X032097D01*
X02755Y01778D02*
X031506Y021736D01*
X032097D01*
X02751Y01758D02*
X031272Y021342D01*
X032097D01*
D81*
X01086Y02176D02*
X0113Y0222D01*
X011837D01*
X01086Y02159D02*
Y02176D01*
X011948Y022089D02*
X011955Y022091D01*
X011639Y021968D02*
X011871Y021864D01*
X011837Y0222D02*
X011948Y022089D01*
X01141Y02202D02*
X011523D01*
X011955Y022091D02*
X011975Y022097D01*
X011523Y02202D02*
X011639Y021968D01*
X01117Y02178D02*
X01141Y02202D01*
X01159Y02143D02*
X011767Y021607D01*
Y02163D01*
D83*
X03226Y01573D02*
D03*
D84*
X030567Y015139D02*
D03*
D85*
Y016321D02*
D03*
D86*
X02026Y02735D02*
D03*
X02051D02*
D03*
X02077D02*
D03*
X02025Y02759D02*
D03*
X0205D02*
D03*
X02076D02*
D03*
X02025Y02784D02*
D03*
X0205D02*
D03*
X02076D02*
D03*
Y02809D02*
D03*
X0205D02*
D03*
X02025D02*
D03*
X02666Y02405D02*
D03*
X02646Y02424D02*
D03*
X02625Y02444D02*
D03*
X0269Y02411D02*
D03*
X02669Y02429D02*
D03*
X02649Y02448D02*
D03*
X02632Y02467D02*
D03*
X02714Y0242D02*
D03*
X02694Y02436D02*
D03*
X02675Y02454D02*
D03*
X02657Y02472D02*
D03*
X02638Y02492D02*
D03*
X02548Y0225D02*
D03*
X02547Y02283D02*
D03*
X02665Y0163D02*
D03*
X02646Y01612D02*
D03*
X02627Y01596D02*
D03*
X02609Y01579D02*
D03*
X02556Y01689D02*
D03*
Y01714D02*
D03*
X02532Y01493D02*
D03*
X02561D02*
D03*
X02035Y02339D02*
D03*
X01397Y0203D02*
D03*
X01371Y02048D02*
D03*
X01434Y02049D02*
D03*
X01475Y02142D02*
D03*
X01459Y02066D02*
D03*
X01497Y02191D02*
D03*
X01467Y02094D02*
D03*
X01476Y02171D02*
D03*
X01443Y02461D02*
D03*
X01086Y02159D02*
D03*
X01117Y02178D02*
D03*
X01159Y02143D02*
D03*
X02549Y01994D02*
D03*
X0255Y01797D02*
D03*
Y01876D02*
D03*
Y01915D02*
D03*
Y01837D02*
D03*
X01774Y02596D02*
D03*
Y02621D02*
D03*
X01775Y02646D02*
D03*
X03208Y0262D02*
D03*
X03183D02*
D03*
X03158D02*
D03*
X03133D02*
D03*
X03108D02*
D03*
X03083D02*
D03*
X03058D02*
D03*
Y02595D02*
D03*
X03083D02*
D03*
X03108D02*
D03*
X03133D02*
D03*
X03158D02*
D03*
X03183D02*
D03*
X03208D02*
D03*
X03058Y0257D02*
D03*
X03083D02*
D03*
X03108D02*
D03*
X03133D02*
D03*
X03158D02*
D03*
X03183D02*
D03*
X03208D02*
D03*
X03207Y02545D02*
D03*
X03182D02*
D03*
X03157D02*
D03*
X03132D02*
D03*
X03107D02*
D03*
X03082D02*
D03*
X03057D02*
D03*
X02051Y01908D02*
D03*
Y01933D02*
D03*
X0255Y01758D02*
D03*
X02551Y02167D02*
D03*
Y02139D02*
D03*
X02569Y01936D02*
D03*
Y01818D02*
D03*
Y01857D02*
D03*
X02568Y02015D02*
D03*
X02569Y01778D02*
D03*
Y01975D02*
D03*
Y01896D02*
D03*
X02552Y02074D02*
D03*
Y02047D02*
D03*
X02035Y02367D02*
D03*
Y02396D02*
D03*
Y02423D02*
D03*
X03023Y01363D02*
D03*
X03051D02*
D03*
X0308D02*
D03*
X03108D02*
D03*
X03137D02*
D03*
X03166D02*
D03*
X03195D02*
D03*
X03223D02*
D03*
X03023Y0139D02*
D03*
X03051D02*
D03*
X0308D02*
D03*
X03108D02*
D03*
X03137D02*
D03*
X03166D02*
D03*
X03195D02*
D03*
X03223D02*
D03*
X03224Y01417D02*
D03*
X03196D02*
D03*
X03167D02*
D03*
X03138D02*
D03*
X03109D02*
D03*
X03081D02*
D03*
X03052D02*
D03*
X03024D02*
D03*
X01244Y02155D02*
D03*
X01268Y02143D02*
D03*
X02018Y01414D02*
D03*
X02019Y01442D02*
D03*
X02075D02*
D03*
X02074Y01413D02*
D03*
X02047Y01442D02*
D03*
X02046Y01414D02*
D03*
X0183Y02581D02*
D03*
X02362Y01549D02*
D03*
X02333Y01526D02*
D03*
X01209Y01525D02*
D03*
X0123Y01544D02*
D03*
X01249Y01564D02*
D03*
X01269Y01584D02*
D03*
X01289Y01604D02*
D03*
X0131Y01623D02*
D03*
X0133Y01645D02*
D03*
X01349Y01625D02*
D03*
X0133Y01604D02*
D03*
X01309Y01585D02*
D03*
X01289Y01565D02*
D03*
X01269Y01545D02*
D03*
X0125Y01524D02*
D03*
X01229Y01505D02*
D03*
X0121Y01484D02*
D03*
X0123Y01466D02*
D03*
X0125Y01445D02*
D03*
X01271Y01426D02*
D03*
X01291Y01405D02*
D03*
X01313Y01387D02*
D03*
X01332Y01369D02*
D03*
X01352Y01387D02*
D03*
X01332Y01407D02*
D03*
X0131Y01426D02*
D03*
X0129Y01446D02*
D03*
X01269Y01466D02*
D03*
X01249Y01486D02*
D03*
X0127Y01505D02*
D03*
X0129Y01485D02*
D03*
X01311Y01465D02*
D03*
X01331Y01445D02*
D03*
X01353Y01426D02*
D03*
X01373Y01406D02*
D03*
X01392Y01427D02*
D03*
X01372Y01446D02*
D03*
X0135Y01466D02*
D03*
X0133Y01485D02*
D03*
X01309Y01506D02*
D03*
X01289Y01525D02*
D03*
X01309Y01545D02*
D03*
X01329Y01526D02*
D03*
X0135Y01505D02*
D03*
X0137Y01486D02*
D03*
X01392Y01466D02*
D03*
X01412Y01447D02*
D03*
X01432Y01467D02*
D03*
X01412Y01486D02*
D03*
X0139Y01506D02*
D03*
X0137Y01525D02*
D03*
X01349Y01546D02*
D03*
X01329Y01565D02*
D03*
X0135Y01584D02*
D03*
X0137Y01565D02*
D03*
X01391Y01544D02*
D03*
X01411Y01525D02*
D03*
X01433Y01505D02*
D03*
X01453Y01486D02*
D03*
X01472Y01507D02*
D03*
X01453Y01527D02*
D03*
X0143Y01546D02*
D03*
X01411Y01566D02*
D03*
X01389Y01586D02*
D03*
X0137Y01606D02*
D03*
X02833Y02148D02*
D03*
X02787Y02102D02*
D03*
X02809Y02123D02*
D03*
X02783Y02129D02*
D03*
X02806Y0215D02*
D03*
X02825Y01875D02*
D03*
X028495Y019345D02*
D03*
X02639Y02043D02*
D03*
X02632Y02069D02*
D03*
X01804Y02594D02*
D03*
X01803Y02569D02*
D03*
X02036Y02516D02*
D03*
X02055Y02535D02*
D03*
X02574Y02443D02*
D03*
X02739Y01795D02*
D03*
X02756Y01822D02*
D03*
X02664Y0213D02*
D03*
Y021D02*
D03*
X02074Y02554D02*
D03*
X02016Y02496D02*
D03*
X01541Y02348D02*
D03*
X01567D02*
D03*
X01579Y02627D02*
D03*
X02931Y02527D02*
D03*
X02799Y02523D02*
D03*
X01827Y02009D02*
D03*
X01834Y02036D02*
D03*
X01894Y02086D02*
D03*
X01889Y02111D02*
D03*
X01868Y02092D02*
D03*
X02013Y01924D02*
D03*
X01979Y01923D02*
D03*
X02082Y02089D02*
D03*
X02111D02*
D03*
X02082Y02118D02*
D03*
X02059Y02048D02*
D03*
X02031Y02047D02*
D03*
X01992Y01986D02*
D03*
X02053Y01861D02*
D03*
X0208Y01862D02*
D03*
X02142Y01971D02*
D03*
X02214Y02661D02*
D03*
X02064Y02623D02*
D03*
X0253Y02582D02*
D03*
X02559Y02581D02*
D03*
X01096Y0222D02*
D03*
X01243Y0246D02*
D03*
X01213Y02463D02*
D03*
X01228Y02487D02*
D03*
X01209Y02512D02*
D03*
X01194Y02482D02*
D03*
X01084Y0225D02*
D03*
X01072Y02203D02*
D03*
X01112Y02244D02*
D03*
X01145D02*
D03*
X01399Y02365D02*
D03*
X01387Y02339D02*
D03*
X01373Y02377D02*
D03*
X01362Y02351D02*
D03*
X01347Y02387D02*
D03*
X01336Y02362D02*
D03*
X0128Y02168D02*
D03*
X01294Y02194D02*
D03*
X01254Y02179D02*
D03*
X01268Y02204D02*
D03*
X01412Y02577D02*
D03*
X01458Y02517D02*
D03*
X01433Y02527D02*
D03*
X01413Y02547D02*
D03*
X01388Y02559D02*
D03*
X01476Y02703D02*
D03*
X01093Y02283D02*
D03*
X01121Y02281D02*
D03*
X0114Y02305D02*
D03*
X01112Y02307D02*
D03*
X01149Y02278D02*
D03*
X01193Y02423D02*
D03*
X01169Y02444D02*
D03*
X01198Y02384D02*
D03*
X01173Y02398D02*
D03*
X01148Y0241D02*
D03*
X01173Y02342D02*
D03*
X01156Y02367D02*
D03*
X01143Y02341D02*
D03*
X01116D02*
D03*
X01127Y02367D02*
D03*
X01586Y02658D02*
D03*
X01606Y02638D02*
D03*
X01575Y02599D02*
D03*
X01604D02*
D03*
X01625Y02618D02*
D03*
X01053Y01987D02*
D03*
X01082D02*
D03*
X01111D02*
D03*
X0114D02*
D03*
X01169D02*
D03*
X01198D02*
D03*
X01052Y01959D02*
D03*
X01081D02*
D03*
X0111D02*
D03*
X01139D02*
D03*
X01168D02*
D03*
X01197D02*
D03*
X01226D02*
D03*
X01255Y01931D02*
D03*
X01226D02*
D03*
X01197D02*
D03*
X01168D02*
D03*
X01139D02*
D03*
X0111D02*
D03*
X01081D02*
D03*
X01052D02*
D03*
X01631Y01338D02*
D03*
X01611Y01316D02*
D03*
X0159Y01297D02*
D03*
X0157Y01277D02*
D03*
X0155Y01257D02*
D03*
X01531Y01237D02*
D03*
X0151Y01218D02*
D03*
X01491Y01198D02*
D03*
X0153D02*
D03*
X01551Y01217D02*
D03*
X0157Y01238D02*
D03*
X0159Y01258D02*
D03*
X0161Y01278D02*
D03*
X01631Y01297D02*
D03*
X0165Y01318D02*
D03*
X01589Y01377D02*
D03*
X01569Y01355D02*
D03*
X01548Y01336D02*
D03*
X01528Y01316D02*
D03*
X01508Y01296D02*
D03*
X01489Y01276D02*
D03*
X01468Y01257D02*
D03*
X01449Y01237D02*
D03*
X01469Y01216D02*
D03*
X01488Y01237D02*
D03*
X01509Y01256D02*
D03*
X01528Y01277D02*
D03*
X01548Y01297D02*
D03*
X01568Y01317D02*
D03*
X01589Y01336D02*
D03*
X01608Y01357D02*
D03*
X01548Y01417D02*
D03*
X01528Y01395D02*
D03*
X01507Y01376D02*
D03*
X01487Y01356D02*
D03*
X01467Y01336D02*
D03*
X01448Y01316D02*
D03*
X01427Y01297D02*
D03*
X01408Y01277D02*
D03*
X01428Y01256D02*
D03*
X01447Y01277D02*
D03*
X01468Y01296D02*
D03*
X01487Y01317D02*
D03*
X01507Y01337D02*
D03*
X01527Y01357D02*
D03*
X01548Y01376D02*
D03*
X01567Y01397D02*
D03*
X01527Y01436D02*
D03*
X01508Y01415D02*
D03*
X01487Y01396D02*
D03*
X01467Y01376D02*
D03*
X01447Y01356D02*
D03*
X01428Y01335D02*
D03*
X01407Y01316D02*
D03*
X01388Y01295D02*
D03*
X01368Y01316D02*
D03*
X01387Y01336D02*
D03*
X01408Y01355D02*
D03*
X01427Y01375D02*
D03*
X01447Y01395D02*
D03*
X01467Y01415D02*
D03*
X01488Y01434D02*
D03*
X01508Y01456D02*
D03*
X02142Y01997D02*
D03*
X02384Y02752D02*
D03*
X02388Y02635D02*
D03*
X02737Y01946D02*
D03*
X02793Y01853D02*
D03*
X02143Y01345D02*
D03*
X02169Y01358D02*
D03*
X02739Y02064D02*
D03*
X02259Y01365D02*
D03*
X02284Y01381D02*
D03*
X02455Y0225D02*
D03*
X02487Y02178D02*
D03*
D87*
X011767Y02163D02*
D03*
X011871Y021864D02*
D03*
X011975Y022097D02*
D03*
X01208Y022331D02*
D03*
X012184Y022565D02*
D03*
X012288Y022799D02*
D03*
X012392Y023032D02*
D03*
X012496Y023266D02*
D03*
X0126Y0235D02*
D03*
X012704Y023734D02*
D03*
X012808Y023968D02*
D03*
X012912Y024201D02*
D03*
X013016Y024435D02*
D03*
X01312Y024669D02*
D03*
X015206Y02374D02*
D03*
X015102Y023506D02*
D03*
X014998Y023273D02*
D03*
X014894Y023039D02*
D03*
X01479Y022805D02*
D03*
X014686Y022571D02*
D03*
X014582Y022337D02*
D03*
X014478Y022104D02*
D03*
X014374Y02187D02*
D03*
X01427Y021636D02*
D03*
X014166Y021402D02*
D03*
X014062Y021169D02*
D03*
X013957Y020935D02*
D03*
X013853Y020701D02*
D03*
D88*
X013487Y022685D02*
D03*
D89*
X013602Y026402D02*
D03*
X01388Y02668D02*
D03*
D90*
X033599Y020043D02*
D03*
Y025397D02*
D03*
D91*
X032097Y024885D02*
D03*
Y024492D02*
D03*
Y024098D02*
D03*
Y023704D02*
D03*
Y023311D02*
D03*
Y022917D02*
D03*
Y022523D02*
D03*
Y022129D02*
D03*
Y021736D02*
D03*
Y021342D02*
D03*
Y020948D02*
D03*
Y020555D02*
D03*
D92*
X022633Y026724D02*
D03*
X023467Y02635D02*
D03*
X022633Y025976D02*
D03*
Y028124D02*
D03*
X023467Y02775D02*
D03*
X022633Y027376D02*
D03*
D93*
X024627Y02665D02*
D03*
X024273D02*
D03*
D94*
X020982Y019082D02*
D03*
Y019338D02*
D03*
Y019594D02*
D03*
Y01985D02*
D03*
Y020106D02*
D03*
Y020362D02*
D03*
Y020618D02*
D03*
X018718D02*
D03*
Y019338D02*
D03*
Y019082D02*
D03*
Y019594D02*
D03*
Y01985D02*
D03*
Y020106D02*
D03*
Y020362D02*
D03*
D95*
X01971Y02238D02*
Y02419D01*
X02092Y0254D01*
X021165D01*
X020636Y019594D02*
X020982D01*
X019975Y020255D02*
X020636Y019594D01*
X019975Y020255D02*
Y02117D01*
X01999Y021735D02*
Y0219D01*
X02015Y02206D02*
Y022296D01*
X01999Y0219D02*
X02015Y02206D01*
X019975Y02117D02*
Y02172D01*
X01999Y021735D01*
X021165Y0254D02*
Y02595D01*
X021165Y02595D01*
Y0265D01*
Y026725D01*
X02106Y02683D02*
X021165Y026725D01*
X02106Y02683D02*
Y027046D01*
X021056Y02705D02*
X02106Y027046D01*
X021056Y02705D02*
X02107Y027064D01*
Y02727D01*
X021165Y027365D01*
Y0276D01*
Y02815D01*
X021165Y02815D02*
X021165Y02815D01*
X021165Y02865D02*
X021165Y02865D01*
Y02815D02*
Y02865D01*
X019794Y022296D02*
X02015D01*
X01971Y02238D02*
X019794Y022296D01*
M02*
