G04*
G04 #@! TF.GenerationSoftware,Altium Limited,Altium Designer,22.5.1 (42)*
G04*
G04 Layer_Color=8388736*
%FSTAX24Y24*%
%MOIN*%
G70*
G04*
G04 #@! TF.SameCoordinates,090E5D1A-85BE-42B9-9E0A-55F43D75D69B*
G04*
G04*
G04 #@! TF.FilePolarity,Negative*
G04*
G01*
G75*
G04:AMPARAMS|DCode=46|XSize=23.6mil|YSize=27.6mil|CornerRadius=6.9mil|HoleSize=0mil|Usage=FLASHONLY|Rotation=270.000|XOffset=0mil|YOffset=0mil|HoleType=Round|Shape=RoundedRectangle|*
%AMROUNDEDRECTD46*
21,1,0.0236,0.0138,0,0,270.0*
21,1,0.0098,0.0276,0,0,270.0*
1,1,0.0138,-0.0069,-0.0049*
1,1,0.0138,-0.0069,0.0049*
1,1,0.0138,0.0069,0.0049*
1,1,0.0138,0.0069,-0.0049*
%
%ADD46ROUNDEDRECTD46*%
G04:AMPARAMS|DCode=47|XSize=26.4mil|YSize=16.9mil|CornerRadius=5mil|HoleSize=0mil|Usage=FLASHONLY|Rotation=270.000|XOffset=0mil|YOffset=0mil|HoleType=Round|Shape=RoundedRectangle|*
%AMROUNDEDRECTD47*
21,1,0.0264,0.0069,0,0,270.0*
21,1,0.0163,0.0169,0,0,270.0*
1,1,0.0100,-0.0034,-0.0082*
1,1,0.0100,-0.0034,0.0082*
1,1,0.0100,0.0034,0.0082*
1,1,0.0100,0.0034,-0.0082*
%
%ADD47ROUNDEDRECTD47*%
G04:AMPARAMS|DCode=48|XSize=26.4mil|YSize=16.9mil|CornerRadius=5mil|HoleSize=0mil|Usage=FLASHONLY|Rotation=0.000|XOffset=0mil|YOffset=0mil|HoleType=Round|Shape=RoundedRectangle|*
%AMROUNDEDRECTD48*
21,1,0.0264,0.0069,0,0,0.0*
21,1,0.0163,0.0169,0,0,0.0*
1,1,0.0100,0.0082,-0.0034*
1,1,0.0100,-0.0082,-0.0034*
1,1,0.0100,-0.0082,0.0034*
1,1,0.0100,0.0082,0.0034*
%
%ADD48ROUNDEDRECTD48*%
G04:AMPARAMS|DCode=49|XSize=74.9mil|YSize=31.6mil|CornerRadius=9.9mil|HoleSize=0mil|Usage=FLASHONLY|Rotation=0.000|XOffset=0mil|YOffset=0mil|HoleType=Round|Shape=RoundedRectangle|*
%AMROUNDEDRECTD49*
21,1,0.0749,0.0118,0,0,0.0*
21,1,0.0551,0.0316,0,0,0.0*
1,1,0.0198,0.0276,-0.0059*
1,1,0.0198,-0.0276,-0.0059*
1,1,0.0198,-0.0276,0.0059*
1,1,0.0198,0.0276,0.0059*
%
%ADD49ROUNDEDRECTD49*%
G04:AMPARAMS|DCode=50|XSize=118.2mil|YSize=47.4mil|CornerRadius=13.8mil|HoleSize=0mil|Usage=FLASHONLY|Rotation=0.000|XOffset=0mil|YOffset=0mil|HoleType=Round|Shape=RoundedRectangle|*
%AMROUNDEDRECTD50*
21,1,0.1182,0.0197,0,0,0.0*
21,1,0.0906,0.0474,0,0,0.0*
1,1,0.0277,0.0453,-0.0098*
1,1,0.0277,-0.0453,-0.0098*
1,1,0.0277,-0.0453,0.0098*
1,1,0.0277,0.0453,0.0098*
%
%ADD50ROUNDEDRECTD50*%
G04:AMPARAMS|DCode=51|XSize=23.6mil|YSize=27.6mil|CornerRadius=6.9mil|HoleSize=0mil|Usage=FLASHONLY|Rotation=180.000|XOffset=0mil|YOffset=0mil|HoleType=Round|Shape=RoundedRectangle|*
%AMROUNDEDRECTD51*
21,1,0.0236,0.0138,0,0,180.0*
21,1,0.0098,0.0276,0,0,180.0*
1,1,0.0138,-0.0049,0.0069*
1,1,0.0138,0.0049,0.0069*
1,1,0.0138,0.0049,-0.0069*
1,1,0.0138,-0.0049,-0.0069*
%
%ADD51ROUNDEDRECTD51*%
G04:AMPARAMS|DCode=52|XSize=27.6mil|YSize=27.6mil|CornerRadius=7.9mil|HoleSize=0mil|Usage=FLASHONLY|Rotation=135.000|XOffset=0mil|YOffset=0mil|HoleType=Round|Shape=RoundedRectangle|*
%AMROUNDEDRECTD52*
21,1,0.0276,0.0118,0,0,135.0*
21,1,0.0118,0.0276,0,0,135.0*
1,1,0.0157,0.0000,0.0084*
1,1,0.0157,0.0084,0.0000*
1,1,0.0157,0.0000,-0.0084*
1,1,0.0157,-0.0084,0.0000*
%
%ADD52ROUNDEDRECTD52*%
G04:AMPARAMS|DCode=53|XSize=41.5mil|YSize=31.6mil|CornerRadius=0mil|HoleSize=0mil|Usage=FLASHONLY|Rotation=156.000|XOffset=0mil|YOffset=0mil|HoleType=Round|Shape=Rectangle|*
%AMROTATEDRECTD53*
4,1,4,0.0254,0.0060,0.0125,-0.0229,-0.0254,-0.0060,-0.0125,0.0229,0.0254,0.0060,0.0*
%
%ADD53ROTATEDRECTD53*%

G04:AMPARAMS|DCode=54|XSize=41.5mil|YSize=35.6mil|CornerRadius=0mil|HoleSize=0mil|Usage=FLASHONLY|Rotation=156.000|XOffset=0mil|YOffset=0mil|HoleType=Round|Shape=Rectangle|*
%AMROTATEDRECTD54*
4,1,4,0.0262,0.0078,0.0117,-0.0247,-0.0262,-0.0078,-0.0117,0.0247,0.0262,0.0078,0.0*
%
%ADD54ROTATEDRECTD54*%

G04:AMPARAMS|DCode=55|XSize=47.4mil|YSize=71mil|CornerRadius=13.8mil|HoleSize=0mil|Usage=FLASHONLY|Rotation=180.000|XOffset=0mil|YOffset=0mil|HoleType=Round|Shape=RoundedRectangle|*
%AMROUNDEDRECTD55*
21,1,0.0474,0.0433,0,0,180.0*
21,1,0.0197,0.0710,0,0,180.0*
1,1,0.0277,-0.0098,0.0217*
1,1,0.0277,0.0098,0.0217*
1,1,0.0277,0.0098,-0.0217*
1,1,0.0277,-0.0098,-0.0217*
%
%ADD55ROUNDEDRECTD55*%
G04:AMPARAMS|DCode=56|XSize=34mil|YSize=20.6mil|CornerRadius=7.2mil|HoleSize=0mil|Usage=FLASHONLY|Rotation=180.000|XOffset=0mil|YOffset=0mil|HoleType=Round|Shape=RoundedRectangle|*
%AMROUNDEDRECTD56*
21,1,0.0340,0.0063,0,0,180.0*
21,1,0.0197,0.0206,0,0,180.0*
1,1,0.0143,-0.0098,0.0032*
1,1,0.0143,0.0098,0.0032*
1,1,0.0143,0.0098,-0.0032*
1,1,0.0143,-0.0098,-0.0032*
%
%ADD56ROUNDEDRECTD56*%
G04:AMPARAMS|DCode=57|XSize=65.1mil|YSize=31.2mil|CornerRadius=6.9mil|HoleSize=0mil|Usage=FLASHONLY|Rotation=135.000|XOffset=0mil|YOffset=0mil|HoleType=Round|Shape=RoundedRectangle|*
%AMROUNDEDRECTD57*
21,1,0.0651,0.0174,0,0,135.0*
21,1,0.0513,0.0312,0,0,135.0*
1,1,0.0138,-0.0120,0.0243*
1,1,0.0138,0.0243,-0.0120*
1,1,0.0138,0.0120,-0.0243*
1,1,0.0138,-0.0243,0.0120*
%
%ADD57ROUNDEDRECTD57*%
G04:AMPARAMS|DCode=58|XSize=23.6mil|YSize=27.6mil|CornerRadius=6.9mil|HoleSize=0mil|Usage=FLASHONLY|Rotation=315.000|XOffset=0mil|YOffset=0mil|HoleType=Round|Shape=RoundedRectangle|*
%AMROUNDEDRECTD58*
21,1,0.0236,0.0138,0,0,315.0*
21,1,0.0098,0.0276,0,0,315.0*
1,1,0.0138,-0.0014,-0.0084*
1,1,0.0138,-0.0084,-0.0014*
1,1,0.0138,0.0014,0.0084*
1,1,0.0138,0.0084,0.0014*
%
%ADD58ROUNDEDRECTD58*%
G04:AMPARAMS|DCode=59|XSize=141.8mil|YSize=55.2mil|CornerRadius=14.8mil|HoleSize=0mil|Usage=FLASHONLY|Rotation=45.000|XOffset=0mil|YOffset=0mil|HoleType=Round|Shape=RoundedRectangle|*
%AMROUNDEDRECTD59*
21,1,0.1418,0.0256,0,0,45.0*
21,1,0.1122,0.0552,0,0,45.0*
1,1,0.0296,0.0487,0.0306*
1,1,0.0296,-0.0306,-0.0487*
1,1,0.0296,-0.0487,-0.0306*
1,1,0.0296,0.0306,0.0487*
%
%ADD59ROUNDEDRECTD59*%
G04:AMPARAMS|DCode=60|XSize=36.2mil|YSize=35.4mil|CornerRadius=9.8mil|HoleSize=0mil|Usage=FLASHONLY|Rotation=90.000|XOffset=0mil|YOffset=0mil|HoleType=Round|Shape=RoundedRectangle|*
%AMROUNDEDRECTD60*
21,1,0.0362,0.0157,0,0,90.0*
21,1,0.0165,0.0354,0,0,90.0*
1,1,0.0197,0.0079,0.0083*
1,1,0.0197,0.0079,-0.0083*
1,1,0.0197,-0.0079,-0.0083*
1,1,0.0197,-0.0079,0.0083*
%
%ADD60ROUNDEDRECTD60*%
G04:AMPARAMS|DCode=61|XSize=47.2mil|YSize=63mil|CornerRadius=12.8mil|HoleSize=0mil|Usage=FLASHONLY|Rotation=90.000|XOffset=0mil|YOffset=0mil|HoleType=Round|Shape=RoundedRectangle|*
%AMROUNDEDRECTD61*
21,1,0.0472,0.0374,0,0,90.0*
21,1,0.0217,0.0630,0,0,90.0*
1,1,0.0256,0.0187,0.0108*
1,1,0.0256,0.0187,-0.0108*
1,1,0.0256,-0.0187,-0.0108*
1,1,0.0256,-0.0187,0.0108*
%
%ADD61ROUNDEDRECTD61*%
G04:AMPARAMS|DCode=62|XSize=27.6mil|YSize=27.6mil|CornerRadius=7.9mil|HoleSize=0mil|Usage=FLASHONLY|Rotation=270.000|XOffset=0mil|YOffset=0mil|HoleType=Round|Shape=RoundedRectangle|*
%AMROUNDEDRECTD62*
21,1,0.0276,0.0118,0,0,270.0*
21,1,0.0118,0.0276,0,0,270.0*
1,1,0.0157,-0.0059,-0.0059*
1,1,0.0157,-0.0059,0.0059*
1,1,0.0157,0.0059,0.0059*
1,1,0.0157,0.0059,-0.0059*
%
%ADD62ROUNDEDRECTD62*%
G04:AMPARAMS|DCode=63|XSize=39.4mil|YSize=43.3mil|CornerRadius=10.8mil|HoleSize=0mil|Usage=FLASHONLY|Rotation=0.000|XOffset=0mil|YOffset=0mil|HoleType=Round|Shape=RoundedRectangle|*
%AMROUNDEDRECTD63*
21,1,0.0394,0.0217,0,0,0.0*
21,1,0.0177,0.0433,0,0,0.0*
1,1,0.0217,0.0089,-0.0108*
1,1,0.0217,-0.0089,-0.0108*
1,1,0.0217,-0.0089,0.0108*
1,1,0.0217,0.0089,0.0108*
%
%ADD63ROUNDEDRECTD63*%
%ADD64P,0.1728X4X85.0*%
%ADD65P,0.1728X4X100.0*%
G04:AMPARAMS|DCode=66|XSize=47.2mil|YSize=63mil|CornerRadius=12.8mil|HoleSize=0mil|Usage=FLASHONLY|Rotation=0.000|XOffset=0mil|YOffset=0mil|HoleType=Round|Shape=RoundedRectangle|*
%AMROUNDEDRECTD66*
21,1,0.0472,0.0374,0,0,0.0*
21,1,0.0217,0.0630,0,0,0.0*
1,1,0.0256,0.0108,-0.0187*
1,1,0.0256,-0.0108,-0.0187*
1,1,0.0256,-0.0108,0.0187*
1,1,0.0256,0.0108,0.0187*
%
%ADD66ROUNDEDRECTD66*%
G04:AMPARAMS|DCode=67|XSize=29.5mil|YSize=39.4mil|CornerRadius=8.4mil|HoleSize=0mil|Usage=FLASHONLY|Rotation=90.000|XOffset=0mil|YOffset=0mil|HoleType=Round|Shape=RoundedRectangle|*
%AMROUNDEDRECTD67*
21,1,0.0295,0.0226,0,0,90.0*
21,1,0.0128,0.0394,0,0,90.0*
1,1,0.0167,0.0113,0.0064*
1,1,0.0167,0.0113,-0.0064*
1,1,0.0167,-0.0113,-0.0064*
1,1,0.0167,-0.0113,0.0064*
%
%ADD67ROUNDEDRECTD67*%
G04:AMPARAMS|DCode=68|XSize=35.6mil|YSize=34mil|CornerRadius=0mil|HoleSize=0mil|Usage=FLASHONLY|Rotation=208.000|XOffset=0mil|YOffset=0mil|HoleType=Round|Shape=Rectangle|*
%AMROTATEDRECTD68*
4,1,4,0.0077,0.0234,0.0237,-0.0067,-0.0077,-0.0234,-0.0237,0.0067,0.0077,0.0234,0.0*
%
%ADD68ROTATEDRECTD68*%

G04:AMPARAMS|DCode=69|XSize=19.8mil|YSize=41.9mil|CornerRadius=0mil|HoleSize=0mil|Usage=FLASHONLY|Rotation=208.000|XOffset=0mil|YOffset=0mil|HoleType=Round|Shape=Rectangle|*
%AMROTATEDRECTD69*
4,1,4,-0.0011,0.0231,0.0186,-0.0138,0.0011,-0.0231,-0.0186,0.0138,-0.0011,0.0231,0.0*
%
%ADD69ROTATEDRECTD69*%

G04:AMPARAMS|DCode=70|XSize=39.4mil|YSize=43.3mil|CornerRadius=10.8mil|HoleSize=0mil|Usage=FLASHONLY|Rotation=90.000|XOffset=0mil|YOffset=0mil|HoleType=Round|Shape=RoundedRectangle|*
%AMROUNDEDRECTD70*
21,1,0.0394,0.0217,0,0,90.0*
21,1,0.0177,0.0433,0,0,90.0*
1,1,0.0217,0.0108,0.0089*
1,1,0.0217,0.0108,-0.0089*
1,1,0.0217,-0.0108,-0.0089*
1,1,0.0217,-0.0108,0.0089*
%
%ADD70ROUNDEDRECTD70*%
%ADD71R,0.1269X0.0611*%
%ADD72R,0.0340X0.0356*%
%ADD73R,0.0419X0.0198*%
G04:AMPARAMS|DCode=74|XSize=47.4mil|YSize=31.6mil|CornerRadius=7mil|HoleSize=0mil|Usage=FLASHONLY|Rotation=270.000|XOffset=0mil|YOffset=0mil|HoleType=Round|Shape=RoundedRectangle|*
%AMROUNDEDRECTD74*
21,1,0.0474,0.0177,0,0,270.0*
21,1,0.0335,0.0316,0,0,270.0*
1,1,0.0139,-0.0089,-0.0167*
1,1,0.0139,-0.0089,0.0167*
1,1,0.0139,0.0089,0.0167*
1,1,0.0139,0.0089,-0.0167*
%
%ADD74ROUNDEDRECTD74*%
G04:AMPARAMS|DCode=75|XSize=29.5mil|YSize=39.4mil|CornerRadius=8.4mil|HoleSize=0mil|Usage=FLASHONLY|Rotation=180.000|XOffset=0mil|YOffset=0mil|HoleType=Round|Shape=RoundedRectangle|*
%AMROUNDEDRECTD75*
21,1,0.0295,0.0226,0,0,180.0*
21,1,0.0128,0.0394,0,0,180.0*
1,1,0.0167,-0.0064,0.0113*
1,1,0.0167,0.0064,0.0113*
1,1,0.0167,0.0064,-0.0113*
1,1,0.0167,-0.0064,-0.0113*
%
%ADD75ROUNDEDRECTD75*%
%ADD76C,0.1241*%
%ADD77C,0.0658*%
%ADD78R,0.0658X0.0658*%
G36*
X020091Y020346D02*
X020094Y020345D01*
X020096Y020345D01*
X020099Y020344D01*
X020102Y020344D01*
X020104Y020343D01*
X020106Y020342D01*
X020109Y020341D01*
X020111Y020339D01*
X020113Y020338D01*
X020115Y020337D01*
X020117Y020335D01*
X020119Y020333D01*
X020121Y020331D01*
X020123Y02033D01*
X020124Y020328D01*
X020126Y020326D01*
X020128Y020324D01*
X020129Y020322D01*
X02013Y020319D01*
X020131Y020317D01*
X020132Y020315D01*
X020133Y020312D01*
X020134Y020309D01*
X020134Y020307D01*
X020135Y020305D01*
X020135Y020302D01*
X020135Y0203D01*
Y020297D01*
Y020124D01*
Y020121D01*
X020135Y020119D01*
X020135Y020116D01*
X020134Y020113D01*
X020134Y020111D01*
X020133Y020108D01*
X020132Y020106D01*
X020131Y020104D01*
X02013Y020101D01*
X020129Y020099D01*
X020128Y020097D01*
X020126Y020095D01*
X020124Y020093D01*
X020123Y020091D01*
X020121Y020089D01*
X020119Y020087D01*
X020117Y020085D01*
X020115Y020084D01*
X020113Y020082D01*
X020111Y020081D01*
X020109Y02008D01*
X020106Y020079D01*
X020104Y020078D01*
X020102Y020077D01*
X020099Y020076D01*
X020096Y020076D01*
X020094Y020075D01*
X020091Y020075D01*
X020089Y020074D01*
X020005D01*
X020002Y020075D01*
X02Y020075D01*
X019997Y020076D01*
X019995Y020076D01*
X019992Y020077D01*
X01999Y020078D01*
X019987Y020079D01*
X019985Y02008D01*
X019983Y020081D01*
X019981Y020082D01*
X019979Y020084D01*
X019976Y020085D01*
X019974Y020087D01*
X019973Y020089D01*
X019971Y020091D01*
X019969Y020093D01*
X019968Y020095D01*
X019966Y020097D01*
X019965Y020099D01*
X019964Y020101D01*
X019963Y020104D01*
X019961Y020106D01*
X019961Y020108D01*
X01996Y020111D01*
X019959Y020113D01*
X019959Y020116D01*
X019959Y020119D01*
X019958Y020121D01*
Y020124D01*
Y020297D01*
Y0203D01*
X019959Y020302D01*
X019959Y020305D01*
X019959Y020307D01*
X01996Y020309D01*
X019961Y020312D01*
X019961Y020315D01*
X019963Y020317D01*
X019964Y020319D01*
X019965Y020322D01*
X019966Y020324D01*
X019968Y020326D01*
X019969Y020328D01*
X019971Y02033D01*
X019973Y020331D01*
X019974Y020333D01*
X019976Y020335D01*
X019979Y020337D01*
X019981Y020338D01*
X019983Y020339D01*
X019985Y020341D01*
X019987Y020342D01*
X01999Y020343D01*
X019992Y020344D01*
X019995Y020344D01*
X019997Y020345D01*
X02Y020345D01*
X020002Y020346D01*
X020005Y020346D01*
X020089D01*
X020091Y020346D01*
D02*
G37*
G36*
X019894D02*
X019897Y020345D01*
X0199Y020345D01*
X019902Y020344D01*
X019905Y020344D01*
X019907Y020343D01*
X019909Y020342D01*
X019912Y020341D01*
X019914Y020339D01*
X019916Y020338D01*
X019918Y020337D01*
X01992Y020335D01*
X019922Y020333D01*
X019924Y020331D01*
X019926Y02033D01*
X019928Y020328D01*
X019929Y020326D01*
X019931Y020324D01*
X019932Y020322D01*
X019933Y020319D01*
X019934Y020317D01*
X019935Y020315D01*
X019936Y020312D01*
X019937Y020309D01*
X019937Y020307D01*
X019938Y020305D01*
X019938Y020302D01*
X019939Y0203D01*
Y020297D01*
Y020124D01*
Y020121D01*
X019938Y020119D01*
X019938Y020116D01*
X019937Y020113D01*
X019937Y020111D01*
X019936Y020108D01*
X019935Y020106D01*
X019934Y020104D01*
X019933Y020101D01*
X019932Y020099D01*
X019931Y020097D01*
X019929Y020095D01*
X019928Y020093D01*
X019926Y020091D01*
X019924Y020089D01*
X019922Y020087D01*
X01992Y020085D01*
X019918Y020084D01*
X019916Y020082D01*
X019914Y020081D01*
X019912Y02008D01*
X019909Y020079D01*
X019907Y020078D01*
X019905Y020077D01*
X019902Y020076D01*
X0199Y020076D01*
X019897Y020075D01*
X019894Y020075D01*
X019892Y020074D01*
X019808D01*
X019806Y020075D01*
X019803Y020075D01*
X0198Y020076D01*
X019798Y020076D01*
X019795Y020077D01*
X019793Y020078D01*
X019791Y020079D01*
X019788Y02008D01*
X019786Y020081D01*
X019784Y020082D01*
X019782Y020084D01*
X01978Y020085D01*
X019778Y020087D01*
X019776Y020089D01*
X019774Y020091D01*
X019772Y020093D01*
X019771Y020095D01*
X019769Y020097D01*
X019768Y020099D01*
X019767Y020101D01*
X019766Y020104D01*
X019765Y020106D01*
X019764Y020108D01*
X019763Y020111D01*
X019763Y020113D01*
X019762Y020116D01*
X019762Y020119D01*
X019761Y020121D01*
Y020124D01*
Y020297D01*
Y0203D01*
X019762Y020302D01*
X019762Y020305D01*
X019763Y020307D01*
X019763Y020309D01*
X019764Y020312D01*
X019765Y020315D01*
X019766Y020317D01*
X019767Y020319D01*
X019768Y020322D01*
X019769Y020324D01*
X019771Y020326D01*
X019772Y020328D01*
X019774Y02033D01*
X019776Y020331D01*
X019778Y020333D01*
X01978Y020335D01*
X019782Y020337D01*
X019784Y020338D01*
X019786Y020339D01*
X019788Y020341D01*
X019791Y020342D01*
X019793Y020343D01*
X019795Y020344D01*
X019798Y020344D01*
X0198Y020345D01*
X019803Y020345D01*
X019806Y020346D01*
X019808Y020346D01*
X019892D01*
X019894Y020346D01*
D02*
G37*
G36*
X019698D02*
X0197Y020345D01*
X019703Y020345D01*
X019705Y020344D01*
X019708Y020344D01*
X01971Y020343D01*
X019713Y020342D01*
X019715Y020341D01*
X019717Y020339D01*
X019719Y020338D01*
X019721Y020337D01*
X019724Y020335D01*
X019726Y020333D01*
X019727Y020331D01*
X019729Y02033D01*
X019731Y020328D01*
X019732Y020326D01*
X019734Y020324D01*
X019735Y020322D01*
X019736Y020319D01*
X019737Y020317D01*
X019739Y020315D01*
X019739Y020312D01*
X01974Y020309D01*
X019741Y020307D01*
X019741Y020305D01*
X019741Y020302D01*
X019742Y0203D01*
Y020297D01*
Y020124D01*
Y020121D01*
X019741Y020119D01*
X019741Y020116D01*
X019741Y020113D01*
X01974Y020111D01*
X019739Y020108D01*
X019739Y020106D01*
X019737Y020104D01*
X019736Y020101D01*
X019735Y020099D01*
X019734Y020097D01*
X019732Y020095D01*
X019731Y020093D01*
X019729Y020091D01*
X019727Y020089D01*
X019726Y020087D01*
X019724Y020085D01*
X019721Y020084D01*
X019719Y020082D01*
X019717Y020081D01*
X019715Y02008D01*
X019713Y020079D01*
X01971Y020078D01*
X019708Y020077D01*
X019705Y020076D01*
X019703Y020076D01*
X0197Y020075D01*
X019698Y020075D01*
X019695Y020074D01*
X019611D01*
X019609Y020075D01*
X019606Y020075D01*
X019604Y020076D01*
X019601Y020076D01*
X019598Y020077D01*
X019596Y020078D01*
X019594Y020079D01*
X019591Y02008D01*
X019589Y020081D01*
X019587Y020082D01*
X019585Y020084D01*
X019583Y020085D01*
X019581Y020087D01*
X019579Y020089D01*
X019577Y020091D01*
X019576Y020093D01*
X019574Y020095D01*
X019572Y020097D01*
X019571Y020099D01*
X01957Y020101D01*
X019569Y020104D01*
X019568Y020106D01*
X019567Y020108D01*
X019566Y020111D01*
X019566Y020113D01*
X019565Y020116D01*
X019565Y020119D01*
X019565Y020121D01*
Y020124D01*
Y020297D01*
Y0203D01*
X019565Y020302D01*
X019565Y020305D01*
X019566Y020307D01*
X019566Y020309D01*
X019567Y020312D01*
X019568Y020315D01*
X019569Y020317D01*
X01957Y020319D01*
X019571Y020322D01*
X019572Y020324D01*
X019574Y020326D01*
X019576Y020328D01*
X019577Y02033D01*
X019579Y020331D01*
X019581Y020333D01*
X019583Y020335D01*
X019585Y020337D01*
X019587Y020338D01*
X019589Y020339D01*
X019591Y020341D01*
X019594Y020342D01*
X019596Y020343D01*
X019598Y020344D01*
X019601Y020344D01*
X019604Y020345D01*
X019606Y020345D01*
X019609Y020346D01*
X019611Y020346D01*
X019695D01*
X019698Y020346D01*
D02*
G37*
G36*
X0204Y020233D02*
X020403Y020233D01*
X020406Y020233D01*
X020408Y020232D01*
X020411Y020231D01*
X020413Y020231D01*
X020415Y02023D01*
X020418Y020228D01*
X02042Y020227D01*
X020422Y020226D01*
X020424Y020224D01*
X020426Y020223D01*
X020428Y020221D01*
X02043Y020219D01*
X020432Y020218D01*
X020433Y020216D01*
X020435Y020213D01*
X020437Y020211D01*
X020438Y020209D01*
X020439Y020207D01*
X02044Y020205D01*
X020441Y020202D01*
X020442Y0202D01*
X020443Y020197D01*
X020443Y020195D01*
X020444Y020193D01*
X020444Y02019D01*
X020444Y020187D01*
Y020185D01*
Y020106D01*
Y020103D01*
X020444Y020101D01*
X020444Y020098D01*
X020443Y020096D01*
X020443Y020093D01*
X020442Y020091D01*
X020441Y020088D01*
X02044Y020086D01*
X020439Y020083D01*
X020438Y020082D01*
X020437Y020079D01*
X020435Y020077D01*
X020433Y020075D01*
X020432Y020073D01*
X02043Y020071D01*
X020428Y020069D01*
X020426Y020068D01*
X020424Y020066D01*
X020422Y020065D01*
X02042Y020063D01*
X020418Y020062D01*
X020415Y020061D01*
X020413Y02006D01*
X020411Y020059D01*
X020408Y020058D01*
X020406Y020058D01*
X020403Y020057D01*
X0204Y020057D01*
X020398Y020057D01*
X020219D01*
X020217Y020057D01*
X020214Y020057D01*
X020212Y020058D01*
X020209Y020058D01*
X020207Y020059D01*
X020204Y02006D01*
X020202Y020061D01*
X0202Y020062D01*
X020197Y020063D01*
X020195Y020065D01*
X020193Y020066D01*
X020191Y020068D01*
X020189Y020069D01*
X020187Y020071D01*
X020185Y020073D01*
X020184Y020075D01*
X020182Y020077D01*
X020181Y020079D01*
X02018Y020082D01*
X020178Y020083D01*
X020177Y020086D01*
X020176Y020088D01*
X020175Y020091D01*
X020174Y020093D01*
X020174Y020096D01*
X020174Y020098D01*
X020173Y020101D01*
X020173Y020103D01*
Y020106D01*
Y020185D01*
Y020187D01*
X020173Y02019D01*
X020174Y020193D01*
X020174Y020195D01*
X020174Y020197D01*
X020175Y0202D01*
X020176Y020202D01*
X020177Y020205D01*
X020178Y020207D01*
X02018Y020209D01*
X020181Y020211D01*
X020182Y020213D01*
X020184Y020216D01*
X020185Y020218D01*
X020187Y020219D01*
X020189Y020221D01*
X020191Y020223D01*
X020193Y020224D01*
X020195Y020226D01*
X020197Y020227D01*
X0202Y020228D01*
X020202Y02023D01*
X020204Y020231D01*
X020207Y020231D01*
X020209Y020232D01*
X020212Y020233D01*
X020214Y020233D01*
X020217Y020233D01*
X020219Y020234D01*
X020398D01*
X0204Y020233D01*
D02*
G37*
G36*
X019483D02*
X019486Y020233D01*
X019488Y020233D01*
X019491Y020232D01*
X019493Y020231D01*
X019496Y020231D01*
X019498Y02023D01*
X0195Y020228D01*
X019503Y020227D01*
X019505Y020226D01*
X019507Y020224D01*
X019509Y020223D01*
X019511Y020221D01*
X019513Y020219D01*
X019515Y020218D01*
X019516Y020216D01*
X019518Y020213D01*
X019519Y020211D01*
X01952Y020209D01*
X019522Y020207D01*
X019523Y020205D01*
X019524Y020202D01*
X019525Y0202D01*
X019526Y020197D01*
X019526Y020195D01*
X019526Y020193D01*
X019527Y02019D01*
X019527Y020187D01*
Y020185D01*
Y020106D01*
Y020103D01*
X019527Y020101D01*
X019526Y020098D01*
X019526Y020096D01*
X019526Y020093D01*
X019525Y020091D01*
X019524Y020088D01*
X019523Y020086D01*
X019522Y020083D01*
X01952Y020082D01*
X019519Y020079D01*
X019518Y020077D01*
X019516Y020075D01*
X019515Y020073D01*
X019513Y020071D01*
X019511Y020069D01*
X019509Y020068D01*
X019507Y020066D01*
X019505Y020065D01*
X019503Y020063D01*
X0195Y020062D01*
X019498Y020061D01*
X019496Y02006D01*
X019493Y020059D01*
X019491Y020058D01*
X019488Y020058D01*
X019486Y020057D01*
X019483Y020057D01*
X019481Y020057D01*
X019302D01*
X0193Y020057D01*
X019297Y020057D01*
X019294Y020058D01*
X019292Y020058D01*
X019289Y020059D01*
X019287Y02006D01*
X019285Y020061D01*
X019282Y020062D01*
X01928Y020063D01*
X019278Y020065D01*
X019276Y020066D01*
X019274Y020068D01*
X019272Y020069D01*
X01927Y020071D01*
X019268Y020073D01*
X019267Y020075D01*
X019265Y020077D01*
X019263Y020079D01*
X019262Y020082D01*
X019261Y020083D01*
X01926Y020086D01*
X019259Y020088D01*
X019258Y020091D01*
X019257Y020093D01*
X019257Y020096D01*
X019256Y020098D01*
X019256Y020101D01*
X019256Y020103D01*
Y020106D01*
Y020185D01*
Y020187D01*
X019256Y02019D01*
X019256Y020193D01*
X019257Y020195D01*
X019257Y020197D01*
X019258Y0202D01*
X019259Y020202D01*
X01926Y020205D01*
X019261Y020207D01*
X019262Y020209D01*
X019263Y020211D01*
X019265Y020213D01*
X019267Y020216D01*
X019268Y020218D01*
X01927Y020219D01*
X019272Y020221D01*
X019274Y020223D01*
X019276Y020224D01*
X019278Y020226D01*
X01928Y020227D01*
X019282Y020228D01*
X019285Y02023D01*
X019287Y020231D01*
X019289Y020231D01*
X019292Y020232D01*
X019294Y020233D01*
X019297Y020233D01*
X0193Y020233D01*
X019302Y020234D01*
X019481D01*
X019483Y020233D01*
D02*
G37*
G36*
X0204Y020037D02*
X020403Y020036D01*
X020406Y020036D01*
X020408Y020035D01*
X020411Y020035D01*
X020413Y020034D01*
X020415Y020033D01*
X020418Y020031D01*
X02042Y02003D01*
X020422Y020029D01*
X020424Y020028D01*
X020426Y020026D01*
X020428Y020024D01*
X02043Y020022D01*
X020432Y020021D01*
X020433Y020019D01*
X020435Y020017D01*
X020437Y020015D01*
X020438Y020012D01*
X020439Y02001D01*
X02044Y020008D01*
X020441Y020006D01*
X020442Y020003D01*
X020443Y02D01*
X020443Y019998D01*
X020444Y019996D01*
X020444Y019993D01*
X020444Y019991D01*
Y019988D01*
Y019909D01*
Y019906D01*
X020444Y019904D01*
X020444Y019901D01*
X020443Y019899D01*
X020443Y019896D01*
X020442Y019894D01*
X020441Y019891D01*
X02044Y019889D01*
X020439Y019887D01*
X020438Y019885D01*
X020437Y019882D01*
X020435Y01988D01*
X020433Y019878D01*
X020432Y019876D01*
X02043Y019874D01*
X020428Y019872D01*
X020426Y019871D01*
X020424Y019869D01*
X020422Y019868D01*
X02042Y019867D01*
X020418Y019865D01*
X020415Y019864D01*
X020413Y019863D01*
X020411Y019862D01*
X020408Y019861D01*
X020406Y019861D01*
X020403Y019861D01*
X0204Y01986D01*
X020398Y01986D01*
X020219D01*
X020217Y01986D01*
X020214Y019861D01*
X020212Y019861D01*
X020209Y019861D01*
X020207Y019862D01*
X020204Y019863D01*
X020202Y019864D01*
X0202Y019865D01*
X020197Y019867D01*
X020195Y019868D01*
X020193Y019869D01*
X020191Y019871D01*
X020189Y019872D01*
X020187Y019874D01*
X020185Y019876D01*
X020184Y019878D01*
X020182Y01988D01*
X020181Y019882D01*
X02018Y019885D01*
X020178Y019887D01*
X020177Y019889D01*
X020176Y019891D01*
X020175Y019894D01*
X020174Y019896D01*
X020174Y019899D01*
X020174Y019901D01*
X020173Y019904D01*
X020173Y019906D01*
Y019909D01*
Y019988D01*
Y019991D01*
X020173Y019993D01*
X020174Y019996D01*
X020174Y019998D01*
X020174Y02D01*
X020175Y020003D01*
X020176Y020006D01*
X020177Y020008D01*
X020178Y02001D01*
X02018Y020012D01*
X020181Y020015D01*
X020182Y020017D01*
X020184Y020019D01*
X020185Y020021D01*
X020187Y020022D01*
X020189Y020024D01*
X020191Y020026D01*
X020193Y020028D01*
X020195Y020029D01*
X020197Y02003D01*
X0202Y020031D01*
X020202Y020033D01*
X020204Y020034D01*
X020207Y020035D01*
X020209Y020035D01*
X020212Y020036D01*
X020214Y020036D01*
X020217Y020037D01*
X020219Y020037D01*
X020398D01*
X0204Y020037D01*
D02*
G37*
G36*
X019483D02*
X019486Y020036D01*
X019488Y020036D01*
X019491Y020035D01*
X019493Y020035D01*
X019496Y020034D01*
X019498Y020033D01*
X0195Y020031D01*
X019503Y02003D01*
X019505Y020029D01*
X019507Y020028D01*
X019509Y020026D01*
X019511Y020024D01*
X019513Y020022D01*
X019515Y020021D01*
X019516Y020019D01*
X019518Y020017D01*
X019519Y020015D01*
X01952Y020012D01*
X019522Y02001D01*
X019523Y020008D01*
X019524Y020006D01*
X019525Y020003D01*
X019526Y02D01*
X019526Y019998D01*
X019526Y019996D01*
X019527Y019993D01*
X019527Y019991D01*
Y019988D01*
Y019909D01*
Y019906D01*
X019527Y019904D01*
X019526Y019901D01*
X019526Y019899D01*
X019526Y019896D01*
X019525Y019894D01*
X019524Y019891D01*
X019523Y019889D01*
X019522Y019887D01*
X01952Y019885D01*
X019519Y019882D01*
X019518Y01988D01*
X019516Y019878D01*
X019515Y019876D01*
X019513Y019874D01*
X019511Y019872D01*
X019509Y019871D01*
X019507Y019869D01*
X019505Y019868D01*
X019503Y019867D01*
X0195Y019865D01*
X019498Y019864D01*
X019496Y019863D01*
X019493Y019862D01*
X019491Y019861D01*
X019488Y019861D01*
X019486Y019861D01*
X019483Y01986D01*
X019481Y01986D01*
X019302D01*
X0193Y01986D01*
X019297Y019861D01*
X019294Y019861D01*
X019292Y019861D01*
X019289Y019862D01*
X019287Y019863D01*
X019285Y019864D01*
X019282Y019865D01*
X01928Y019867D01*
X019278Y019868D01*
X019276Y019869D01*
X019274Y019871D01*
X019272Y019872D01*
X01927Y019874D01*
X019268Y019876D01*
X019267Y019878D01*
X019265Y01988D01*
X019263Y019882D01*
X019262Y019885D01*
X019261Y019887D01*
X01926Y019889D01*
X019259Y019891D01*
X019258Y019894D01*
X019257Y019896D01*
X019257Y019899D01*
X019256Y019901D01*
X019256Y019904D01*
X019256Y019906D01*
Y019909D01*
Y019988D01*
Y019991D01*
X019256Y019993D01*
X019256Y019996D01*
X019257Y019998D01*
X019257Y02D01*
X019258Y020003D01*
X019259Y020006D01*
X01926Y020008D01*
X019261Y02001D01*
X019262Y020012D01*
X019263Y020015D01*
X019265Y020017D01*
X019267Y020019D01*
X019268Y020021D01*
X01927Y020022D01*
X019272Y020024D01*
X019274Y020026D01*
X019276Y020028D01*
X019278Y020029D01*
X01928Y02003D01*
X019282Y020031D01*
X019285Y020033D01*
X019287Y020034D01*
X019289Y020035D01*
X019292Y020035D01*
X019294Y020036D01*
X019297Y020036D01*
X0193Y020037D01*
X019302Y020037D01*
X019481D01*
X019483Y020037D01*
D02*
G37*
G36*
X0204Y01984D02*
X020403Y019839D01*
X020406Y019839D01*
X020408Y019839D01*
X020411Y019838D01*
X020413Y019837D01*
X020415Y019836D01*
X020418Y019835D01*
X02042Y019833D01*
X020422Y019832D01*
X020424Y019831D01*
X020426Y019829D01*
X020428Y019828D01*
X02043Y019826D01*
X020432Y019824D01*
X020433Y019822D01*
X020435Y01982D01*
X020437Y019818D01*
X020438Y019815D01*
X020439Y019813D01*
X02044Y019811D01*
X020441Y019809D01*
X020442Y019806D01*
X020443Y019804D01*
X020443Y019801D01*
X020444Y019799D01*
X020444Y019796D01*
X020444Y019794D01*
Y019791D01*
Y019712D01*
Y019709D01*
X020444Y019707D01*
X020444Y019704D01*
X020443Y019702D01*
X020443Y0197D01*
X020442Y019697D01*
X020441Y019694D01*
X02044Y019692D01*
X020439Y01969D01*
X020438Y019688D01*
X020437Y019685D01*
X020435Y019683D01*
X020433Y019681D01*
X020432Y019679D01*
X02043Y019678D01*
X020428Y019676D01*
X020426Y019674D01*
X020424Y019672D01*
X020422Y019671D01*
X02042Y01967D01*
X020418Y019669D01*
X020415Y019667D01*
X020413Y019666D01*
X020411Y019665D01*
X020408Y019665D01*
X020406Y019664D01*
X020403Y019664D01*
X0204Y019663D01*
X020398Y019663D01*
X020219D01*
X020217Y019663D01*
X020214Y019664D01*
X020212Y019664D01*
X020209Y019665D01*
X020207Y019665D01*
X020204Y019666D01*
X020202Y019667D01*
X0202Y019669D01*
X020197Y01967D01*
X020195Y019671D01*
X020193Y019672D01*
X020191Y019674D01*
X020189Y019676D01*
X020187Y019678D01*
X020185Y019679D01*
X020184Y019681D01*
X020182Y019683D01*
X020181Y019685D01*
X02018Y019688D01*
X020178Y01969D01*
X020177Y019692D01*
X020176Y019694D01*
X020175Y019697D01*
X020174Y0197D01*
X020174Y019702D01*
X020174Y019704D01*
X020173Y019707D01*
X020173Y019709D01*
Y019712D01*
Y019791D01*
Y019794D01*
X020173Y019796D01*
X020174Y019799D01*
X020174Y019801D01*
X020174Y019804D01*
X020175Y019806D01*
X020176Y019809D01*
X020177Y019811D01*
X020178Y019813D01*
X02018Y019815D01*
X020181Y019818D01*
X020182Y01982D01*
X020184Y019822D01*
X020185Y019824D01*
X020187Y019826D01*
X020189Y019828D01*
X020191Y019829D01*
X020193Y019831D01*
X020195Y019832D01*
X020197Y019833D01*
X0202Y019835D01*
X020202Y019836D01*
X020204Y019837D01*
X020207Y019838D01*
X020209Y019839D01*
X020212Y019839D01*
X020214Y019839D01*
X020217Y01984D01*
X020219Y01984D01*
X020398D01*
X0204Y01984D01*
D02*
G37*
G36*
X019483D02*
X019486Y019839D01*
X019488Y019839D01*
X019491Y019839D01*
X019493Y019838D01*
X019496Y019837D01*
X019498Y019836D01*
X0195Y019835D01*
X019503Y019833D01*
X019505Y019832D01*
X019507Y019831D01*
X019509Y019829D01*
X019511Y019828D01*
X019513Y019826D01*
X019515Y019824D01*
X019516Y019822D01*
X019518Y01982D01*
X019519Y019818D01*
X01952Y019815D01*
X019522Y019813D01*
X019523Y019811D01*
X019524Y019809D01*
X019525Y019806D01*
X019526Y019804D01*
X019526Y019801D01*
X019526Y019799D01*
X019527Y019796D01*
X019527Y019794D01*
Y019791D01*
Y019712D01*
Y019709D01*
X019527Y019707D01*
X019526Y019704D01*
X019526Y019702D01*
X019526Y0197D01*
X019525Y019697D01*
X019524Y019694D01*
X019523Y019692D01*
X019522Y01969D01*
X01952Y019688D01*
X019519Y019685D01*
X019518Y019683D01*
X019516Y019681D01*
X019515Y019679D01*
X019513Y019678D01*
X019511Y019676D01*
X019509Y019674D01*
X019507Y019672D01*
X019505Y019671D01*
X019503Y01967D01*
X0195Y019669D01*
X019498Y019667D01*
X019496Y019666D01*
X019493Y019665D01*
X019491Y019665D01*
X019488Y019664D01*
X019486Y019664D01*
X019483Y019663D01*
X019481Y019663D01*
X019302D01*
X0193Y019663D01*
X019297Y019664D01*
X019294Y019664D01*
X019292Y019665D01*
X019289Y019665D01*
X019287Y019666D01*
X019285Y019667D01*
X019282Y019669D01*
X01928Y01967D01*
X019278Y019671D01*
X019276Y019672D01*
X019274Y019674D01*
X019272Y019676D01*
X01927Y019678D01*
X019268Y019679D01*
X019267Y019681D01*
X019265Y019683D01*
X019263Y019685D01*
X019262Y019688D01*
X019261Y01969D01*
X01926Y019692D01*
X019259Y019694D01*
X019258Y019697D01*
X019257Y0197D01*
X019257Y019702D01*
X019256Y019704D01*
X019256Y019707D01*
X019256Y019709D01*
Y019712D01*
Y019791D01*
Y019794D01*
X019256Y019796D01*
X019256Y019799D01*
X019257Y019801D01*
X019257Y019804D01*
X019258Y019806D01*
X019259Y019809D01*
X01926Y019811D01*
X019261Y019813D01*
X019262Y019815D01*
X019263Y019818D01*
X019265Y01982D01*
X019267Y019822D01*
X019268Y019824D01*
X01927Y019826D01*
X019272Y019828D01*
X019274Y019829D01*
X019276Y019831D01*
X019278Y019832D01*
X01928Y019833D01*
X019282Y019835D01*
X019285Y019836D01*
X019287Y019837D01*
X019289Y019838D01*
X019292Y019839D01*
X019294Y019839D01*
X019297Y019839D01*
X0193Y01984D01*
X019302Y01984D01*
X019481D01*
X019483Y01984D01*
D02*
G37*
G36*
X0204Y019643D02*
X020403Y019643D01*
X020406Y019642D01*
X020408Y019642D01*
X020411Y019641D01*
X020413Y01964D01*
X020415Y019639D01*
X020418Y019638D01*
X02042Y019637D01*
X020422Y019635D01*
X020424Y019634D01*
X020426Y019632D01*
X020428Y019631D01*
X02043Y019629D01*
X020432Y019627D01*
X020433Y019625D01*
X020435Y019623D01*
X020437Y019621D01*
X020438Y019619D01*
X020439Y019617D01*
X02044Y019614D01*
X020441Y019612D01*
X020442Y019609D01*
X020443Y019607D01*
X020443Y019604D01*
X020444Y019602D01*
X020444Y019599D01*
X020444Y019597D01*
Y019594D01*
Y019515D01*
Y019513D01*
X020444Y01951D01*
X020444Y019507D01*
X020443Y019505D01*
X020443Y019503D01*
X020442Y0195D01*
X020441Y019498D01*
X02044Y019495D01*
X020439Y019493D01*
X020438Y019491D01*
X020437Y019489D01*
X020435Y019487D01*
X020433Y019484D01*
X020432Y019482D01*
X02043Y019481D01*
X020428Y019479D01*
X020426Y019477D01*
X020424Y019476D01*
X020422Y019474D01*
X02042Y019473D01*
X020418Y019472D01*
X020415Y01947D01*
X020413Y019469D01*
X020411Y019468D01*
X020408Y019468D01*
X020406Y019467D01*
X020403Y019467D01*
X0204Y019467D01*
X020398Y019466D01*
X020219D01*
X020217Y019467D01*
X020214Y019467D01*
X020212Y019467D01*
X020209Y019468D01*
X020207Y019468D01*
X020204Y019469D01*
X020202Y01947D01*
X0202Y019472D01*
X020197Y019473D01*
X020195Y019474D01*
X020193Y019476D01*
X020191Y019477D01*
X020189Y019479D01*
X020187Y019481D01*
X020185Y019482D01*
X020184Y019484D01*
X020182Y019487D01*
X020181Y019489D01*
X02018Y019491D01*
X020178Y019493D01*
X020177Y019495D01*
X020176Y019498D01*
X020175Y0195D01*
X020174Y019503D01*
X020174Y019505D01*
X020174Y019507D01*
X020173Y01951D01*
X020173Y019513D01*
Y019515D01*
Y019594D01*
Y019597D01*
X020173Y019599D01*
X020174Y019602D01*
X020174Y019604D01*
X020174Y019607D01*
X020175Y019609D01*
X020176Y019612D01*
X020177Y019614D01*
X020178Y019617D01*
X02018Y019619D01*
X020181Y019621D01*
X020182Y019623D01*
X020184Y019625D01*
X020185Y019627D01*
X020187Y019629D01*
X020189Y019631D01*
X020191Y019632D01*
X020193Y019634D01*
X020195Y019635D01*
X020197Y019637D01*
X0202Y019638D01*
X020202Y019639D01*
X020204Y01964D01*
X020207Y019641D01*
X020209Y019642D01*
X020212Y019642D01*
X020214Y019643D01*
X020217Y019643D01*
X020219Y019643D01*
X020398D01*
X0204Y019643D01*
D02*
G37*
G36*
X019483D02*
X019486Y019643D01*
X019488Y019642D01*
X019491Y019642D01*
X019493Y019641D01*
X019496Y01964D01*
X019498Y019639D01*
X0195Y019638D01*
X019503Y019637D01*
X019505Y019635D01*
X019507Y019634D01*
X019509Y019632D01*
X019511Y019631D01*
X019513Y019629D01*
X019515Y019627D01*
X019516Y019625D01*
X019518Y019623D01*
X019519Y019621D01*
X01952Y019619D01*
X019522Y019617D01*
X019523Y019614D01*
X019524Y019612D01*
X019525Y019609D01*
X019526Y019607D01*
X019526Y019604D01*
X019526Y019602D01*
X019527Y019599D01*
X019527Y019597D01*
Y019594D01*
Y019515D01*
Y019513D01*
X019527Y01951D01*
X019526Y019507D01*
X019526Y019505D01*
X019526Y019503D01*
X019525Y0195D01*
X019524Y019498D01*
X019523Y019495D01*
X019522Y019493D01*
X01952Y019491D01*
X019519Y019489D01*
X019518Y019487D01*
X019516Y019484D01*
X019515Y019482D01*
X019513Y019481D01*
X019511Y019479D01*
X019509Y019477D01*
X019507Y019476D01*
X019505Y019474D01*
X019503Y019473D01*
X0195Y019472D01*
X019498Y01947D01*
X019496Y019469D01*
X019493Y019468D01*
X019491Y019468D01*
X019488Y019467D01*
X019486Y019467D01*
X019483Y019467D01*
X019481Y019466D01*
X019302D01*
X0193Y019467D01*
X019297Y019467D01*
X019294Y019467D01*
X019292Y019468D01*
X019289Y019468D01*
X019287Y019469D01*
X019285Y01947D01*
X019282Y019472D01*
X01928Y019473D01*
X019278Y019474D01*
X019276Y019476D01*
X019274Y019477D01*
X019272Y019479D01*
X01927Y019481D01*
X019268Y019482D01*
X019267Y019484D01*
X019265Y019487D01*
X019263Y019489D01*
X019262Y019491D01*
X019261Y019493D01*
X01926Y019495D01*
X019259Y019498D01*
X019258Y0195D01*
X019257Y019503D01*
X019257Y019505D01*
X019256Y019507D01*
X019256Y01951D01*
X019256Y019513D01*
Y019515D01*
Y019594D01*
Y019597D01*
X019256Y019599D01*
X019256Y019602D01*
X019257Y019604D01*
X019257Y019607D01*
X019258Y019609D01*
X019259Y019612D01*
X01926Y019614D01*
X019261Y019617D01*
X019262Y019619D01*
X019263Y019621D01*
X019265Y019623D01*
X019267Y019625D01*
X019268Y019627D01*
X01927Y019629D01*
X019272Y019631D01*
X019274Y019632D01*
X019276Y019634D01*
X019278Y019635D01*
X01928Y019637D01*
X019282Y019638D01*
X019285Y019639D01*
X019287Y01964D01*
X019289Y019641D01*
X019292Y019642D01*
X019294Y019642D01*
X019297Y019643D01*
X0193Y019643D01*
X019302Y019643D01*
X019481D01*
X019483Y019643D01*
D02*
G37*
G36*
X020091Y019625D02*
X020094Y019625D01*
X020096Y019624D01*
X020099Y019624D01*
X020102Y019623D01*
X020104Y019622D01*
X020106Y019621D01*
X020109Y01962D01*
X020111Y019619D01*
X020113Y019618D01*
X020115Y019616D01*
X020117Y019615D01*
X020119Y019613D01*
X020121Y019611D01*
X020123Y019609D01*
X020124Y019607D01*
X020126Y019605D01*
X020128Y019603D01*
X020129Y019601D01*
X02013Y019599D01*
X020131Y019596D01*
X020132Y019594D01*
X020133Y019592D01*
X020134Y019589D01*
X020134Y019587D01*
X020135Y019584D01*
X020135Y019582D01*
X020135Y019579D01*
Y019576D01*
Y019403D01*
Y0194D01*
X020135Y019398D01*
X020135Y019395D01*
X020134Y019393D01*
X020134Y019391D01*
X020133Y019388D01*
X020132Y019385D01*
X020131Y019383D01*
X02013Y019381D01*
X020129Y019378D01*
X020128Y019376D01*
X020126Y019374D01*
X020124Y019372D01*
X020123Y01937D01*
X020121Y019368D01*
X020119Y019367D01*
X020117Y019365D01*
X020115Y019363D01*
X020113Y019362D01*
X020111Y019361D01*
X020109Y019359D01*
X020106Y019358D01*
X020104Y019357D01*
X020102Y019356D01*
X020099Y019356D01*
X020096Y019355D01*
X020094Y019355D01*
X020091Y019354D01*
X020089Y019354D01*
X020005D01*
X020002Y019354D01*
X02Y019355D01*
X019997Y019355D01*
X019995Y019356D01*
X019992Y019356D01*
X01999Y019357D01*
X019987Y019358D01*
X019985Y019359D01*
X019983Y019361D01*
X019981Y019362D01*
X019979Y019363D01*
X019976Y019365D01*
X019974Y019367D01*
X019973Y019368D01*
X019971Y01937D01*
X019969Y019372D01*
X019968Y019374D01*
X019966Y019376D01*
X019965Y019378D01*
X019964Y019381D01*
X019963Y019383D01*
X019961Y019385D01*
X019961Y019388D01*
X01996Y019391D01*
X019959Y019393D01*
X019959Y019395D01*
X019959Y019398D01*
X019958Y0194D01*
Y019403D01*
Y019576D01*
Y019579D01*
X019959Y019582D01*
X019959Y019584D01*
X019959Y019587D01*
X01996Y019589D01*
X019961Y019592D01*
X019961Y019594D01*
X019963Y019596D01*
X019964Y019599D01*
X019965Y019601D01*
X019966Y019603D01*
X019968Y019605D01*
X019969Y019607D01*
X019971Y019609D01*
X019973Y019611D01*
X019974Y019613D01*
X019976Y019615D01*
X019979Y019616D01*
X019981Y019618D01*
X019983Y019619D01*
X019985Y01962D01*
X019987Y019621D01*
X01999Y019622D01*
X019992Y019623D01*
X019995Y019624D01*
X019997Y019624D01*
X02Y019625D01*
X020002Y019625D01*
X020005Y019626D01*
X020089D01*
X020091Y019625D01*
D02*
G37*
G36*
X019894D02*
X019897Y019625D01*
X0199Y019624D01*
X019902Y019624D01*
X019905Y019623D01*
X019907Y019622D01*
X019909Y019621D01*
X019912Y01962D01*
X019914Y019619D01*
X019916Y019618D01*
X019918Y019616D01*
X01992Y019615D01*
X019922Y019613D01*
X019924Y019611D01*
X019926Y019609D01*
X019928Y019607D01*
X019929Y019605D01*
X019931Y019603D01*
X019932Y019601D01*
X019933Y019599D01*
X019934Y019596D01*
X019935Y019594D01*
X019936Y019592D01*
X019937Y019589D01*
X019937Y019587D01*
X019938Y019584D01*
X019938Y019582D01*
X019939Y019579D01*
Y019576D01*
Y019403D01*
Y0194D01*
X019938Y019398D01*
X019938Y019395D01*
X019937Y019393D01*
X019937Y019391D01*
X019936Y019388D01*
X019935Y019385D01*
X019934Y019383D01*
X019933Y019381D01*
X019932Y019378D01*
X019931Y019376D01*
X019929Y019374D01*
X019928Y019372D01*
X019926Y01937D01*
X019924Y019368D01*
X019922Y019367D01*
X01992Y019365D01*
X019918Y019363D01*
X019916Y019362D01*
X019914Y019361D01*
X019912Y019359D01*
X019909Y019358D01*
X019907Y019357D01*
X019905Y019356D01*
X019902Y019356D01*
X0199Y019355D01*
X019897Y019355D01*
X019894Y019354D01*
X019892Y019354D01*
X019808D01*
X019806Y019354D01*
X019803Y019355D01*
X0198Y019355D01*
X019798Y019356D01*
X019795Y019356D01*
X019793Y019357D01*
X019791Y019358D01*
X019788Y019359D01*
X019786Y019361D01*
X019784Y019362D01*
X019782Y019363D01*
X01978Y019365D01*
X019778Y019367D01*
X019776Y019368D01*
X019774Y01937D01*
X019772Y019372D01*
X019771Y019374D01*
X019769Y019376D01*
X019768Y019378D01*
X019767Y019381D01*
X019766Y019383D01*
X019765Y019385D01*
X019764Y019388D01*
X019763Y019391D01*
X019763Y019393D01*
X019762Y019395D01*
X019762Y019398D01*
X019761Y0194D01*
Y019403D01*
Y019576D01*
Y019579D01*
X019762Y019582D01*
X019762Y019584D01*
X019763Y019587D01*
X019763Y019589D01*
X019764Y019592D01*
X019765Y019594D01*
X019766Y019596D01*
X019767Y019599D01*
X019768Y019601D01*
X019769Y019603D01*
X019771Y019605D01*
X019772Y019607D01*
X019774Y019609D01*
X019776Y019611D01*
X019778Y019613D01*
X01978Y019615D01*
X019782Y019616D01*
X019784Y019618D01*
X019786Y019619D01*
X019788Y01962D01*
X019791Y019621D01*
X019793Y019622D01*
X019795Y019623D01*
X019798Y019624D01*
X0198Y019624D01*
X019803Y019625D01*
X019806Y019625D01*
X019808Y019626D01*
X019892D01*
X019894Y019625D01*
D02*
G37*
G36*
X019698D02*
X0197Y019625D01*
X019703Y019624D01*
X019705Y019624D01*
X019708Y019623D01*
X01971Y019622D01*
X019713Y019621D01*
X019715Y01962D01*
X019717Y019619D01*
X019719Y019618D01*
X019721Y019616D01*
X019724Y019615D01*
X019726Y019613D01*
X019727Y019611D01*
X019729Y019609D01*
X019731Y019607D01*
X019732Y019605D01*
X019734Y019603D01*
X019735Y019601D01*
X019736Y019599D01*
X019737Y019596D01*
X019739Y019594D01*
X019739Y019592D01*
X01974Y019589D01*
X019741Y019587D01*
X019741Y019584D01*
X019741Y019582D01*
X019742Y019579D01*
Y019576D01*
Y019403D01*
Y0194D01*
X019741Y019398D01*
X019741Y019395D01*
X019741Y019393D01*
X01974Y019391D01*
X019739Y019388D01*
X019739Y019385D01*
X019737Y019383D01*
X019736Y019381D01*
X019735Y019378D01*
X019734Y019376D01*
X019732Y019374D01*
X019731Y019372D01*
X019729Y01937D01*
X019727Y019368D01*
X019726Y019367D01*
X019724Y019365D01*
X019721Y019363D01*
X019719Y019362D01*
X019717Y019361D01*
X019715Y019359D01*
X019713Y019358D01*
X01971Y019357D01*
X019708Y019356D01*
X019705Y019356D01*
X019703Y019355D01*
X0197Y019355D01*
X019698Y019354D01*
X019695Y019354D01*
X019611D01*
X019609Y019354D01*
X019606Y019355D01*
X019604Y019355D01*
X019601Y019356D01*
X019598Y019356D01*
X019596Y019357D01*
X019594Y019358D01*
X019591Y019359D01*
X019589Y019361D01*
X019587Y019362D01*
X019585Y019363D01*
X019583Y019365D01*
X019581Y019367D01*
X019579Y019368D01*
X019577Y01937D01*
X019576Y019372D01*
X019574Y019374D01*
X019572Y019376D01*
X019571Y019378D01*
X01957Y019381D01*
X019569Y019383D01*
X019568Y019385D01*
X019567Y019388D01*
X019566Y019391D01*
X019566Y019393D01*
X019565Y019395D01*
X019565Y019398D01*
X019565Y0194D01*
Y019403D01*
Y019576D01*
Y019579D01*
X019565Y019582D01*
X019565Y019584D01*
X019566Y019587D01*
X019566Y019589D01*
X019567Y019592D01*
X019568Y019594D01*
X019569Y019596D01*
X01957Y019599D01*
X019571Y019601D01*
X019572Y019603D01*
X019574Y019605D01*
X019576Y019607D01*
X019577Y019609D01*
X019579Y019611D01*
X019581Y019613D01*
X019583Y019615D01*
X019585Y019616D01*
X019587Y019618D01*
X019589Y019619D01*
X019591Y01962D01*
X019594Y019621D01*
X019596Y019622D01*
X019598Y019623D01*
X019601Y019624D01*
X019604Y019624D01*
X019606Y019625D01*
X019609Y019625D01*
X019611Y019626D01*
X019695D01*
X019698Y019625D01*
D02*
G37*
D46*
X02473Y017157D02*
D03*
Y016763D02*
D03*
X01755Y025203D02*
D03*
Y025597D02*
D03*
X02515Y016763D02*
D03*
Y017157D02*
D03*
D47*
X020047Y02021D02*
D03*
X01985D02*
D03*
X019653D02*
D03*
Y01949D02*
D03*
X01985D02*
D03*
X020047D02*
D03*
D48*
X019391Y020145D02*
D03*
Y019948D02*
D03*
Y019752D02*
D03*
Y019555D02*
D03*
X020309D02*
D03*
Y019752D02*
D03*
Y019948D02*
D03*
Y020145D02*
D03*
D49*
X032091Y024934D02*
D03*
Y024442D02*
D03*
Y02395D02*
D03*
Y023458D02*
D03*
Y021489D02*
D03*
Y021981D02*
D03*
Y022474D02*
D03*
Y022966D02*
D03*
Y020997D02*
D03*
Y020505D02*
D03*
D50*
X033409Y019777D02*
D03*
Y025623D02*
D03*
D51*
X028004Y01886D02*
D03*
X02761D02*
D03*
X018253Y02765D02*
D03*
X018647D02*
D03*
X027603Y01946D02*
D03*
X027997D02*
D03*
X025197Y02205D02*
D03*
X024803D02*
D03*
X025197Y0225D02*
D03*
X024803D02*
D03*
D52*
X013935Y025245D02*
D03*
X014185Y024995D02*
D03*
X01549Y02681D02*
D03*
X015741Y026559D02*
D03*
D53*
X013219Y02223D02*
D03*
X013411Y022662D02*
D03*
X013603Y023094D02*
D03*
D54*
X015145Y022903D02*
D03*
X014393Y021212D02*
D03*
D55*
X01845Y0265D02*
D03*
D56*
X018046Y026244D02*
D03*
Y0265D02*
D03*
Y026756D02*
D03*
X018854D02*
D03*
Y0265D02*
D03*
Y026244D02*
D03*
D57*
X013994Y026267D02*
D03*
X014258Y026532D02*
D03*
X014523Y026796D02*
D03*
X015166Y026153D02*
D03*
X014902Y025888D02*
D03*
X014637Y025624D02*
D03*
D58*
X014872Y027432D02*
D03*
X015151Y027154D02*
D03*
X015509Y027501D02*
D03*
X015231Y027779D02*
D03*
D59*
X015624Y025066D02*
D03*
X016236Y024454D02*
D03*
D60*
X019815Y02765D02*
D03*
X019185D02*
D03*
D61*
X0197Y026959D02*
D03*
Y02625D02*
D03*
D62*
X0203Y026527D02*
D03*
Y026173D02*
D03*
X02745Y025873D02*
D03*
Y026227D02*
D03*
D63*
X018135Y0253D02*
D03*
X018765D02*
D03*
X020235Y02195D02*
D03*
X019605D02*
D03*
D64*
X01515Y01625D02*
D03*
D65*
X0166Y01495D02*
D03*
D66*
X019696Y02095D02*
D03*
X020404D02*
D03*
D67*
X0189Y020135D02*
D03*
Y019565D02*
D03*
X0209Y020135D02*
D03*
Y019565D02*
D03*
X02013Y018395D02*
D03*
Y018965D02*
D03*
X01958Y018395D02*
D03*
Y018965D02*
D03*
X01243Y021145D02*
D03*
Y020575D02*
D03*
X0287Y023185D02*
D03*
Y022615D02*
D03*
X02935Y023185D02*
D03*
Y022615D02*
D03*
X02985Y025779D02*
D03*
Y02635D02*
D03*
X02925D02*
D03*
Y025779D02*
D03*
X02865D02*
D03*
Y02635D02*
D03*
X02805D02*
D03*
Y025779D02*
D03*
D68*
X021271Y0125D02*
D03*
X020743Y01351D02*
D03*
X024718Y015624D02*
D03*
X025247Y014614D02*
D03*
D69*
X022706Y014508D02*
D03*
X023749Y015063D02*
D03*
X023923Y015155D02*
D03*
X024097Y015247D02*
D03*
X02427Y01534D02*
D03*
X02149Y013861D02*
D03*
X021316Y013769D02*
D03*
X024444Y015432D02*
D03*
X021663Y013954D02*
D03*
X023575Y01497D02*
D03*
X023401Y014878D02*
D03*
X023228Y014785D02*
D03*
X023054Y014693D02*
D03*
X02288Y0146D02*
D03*
X022532Y014416D02*
D03*
X022359Y014323D02*
D03*
X022185Y014231D02*
D03*
X022011Y014138D02*
D03*
X021837Y014046D02*
D03*
X021142Y013676D02*
D03*
X021552Y012695D02*
D03*
X021726Y012787D02*
D03*
X0219Y01288D02*
D03*
X022074Y012972D02*
D03*
X022247Y013065D02*
D03*
X022421Y013157D02*
D03*
X022595Y01325D02*
D03*
X022769Y013342D02*
D03*
X022943Y013434D02*
D03*
X023116Y013527D02*
D03*
X02329Y013619D02*
D03*
X023464Y013712D02*
D03*
X023638Y013804D02*
D03*
X023812Y013896D02*
D03*
X023986Y013989D02*
D03*
X024159Y014081D02*
D03*
X024333Y014174D02*
D03*
X024507Y014266D02*
D03*
X024681Y014359D02*
D03*
X024855Y014451D02*
D03*
D70*
X0116Y02047D02*
D03*
Y0211D02*
D03*
X01085Y020485D02*
D03*
Y021115D02*
D03*
X01236Y018925D02*
D03*
Y018295D02*
D03*
X01161Y018925D02*
D03*
Y018295D02*
D03*
X01086Y018925D02*
D03*
Y018295D02*
D03*
X01308Y025535D02*
D03*
Y024905D02*
D03*
D71*
X013501Y018856D02*
D03*
X013501Y017761D02*
D03*
D72*
X027079Y022848D02*
D03*
X02594Y017163D02*
D03*
X02708Y017157D02*
D03*
X02594Y022848D02*
D03*
D73*
X02598Y022508D02*
D03*
Y022311D02*
D03*
Y022114D02*
D03*
Y021918D02*
D03*
Y021721D02*
D03*
Y021524D02*
D03*
Y017587D02*
D03*
Y017784D02*
D03*
Y01798D02*
D03*
Y018177D02*
D03*
Y018374D02*
D03*
Y018571D02*
D03*
Y018768D02*
D03*
Y018965D02*
D03*
Y019161D02*
D03*
Y019358D02*
D03*
Y019555D02*
D03*
Y019752D02*
D03*
Y019949D02*
D03*
Y020146D02*
D03*
Y020343D02*
D03*
Y020539D02*
D03*
Y020736D02*
D03*
Y020933D02*
D03*
Y02113D02*
D03*
Y021327D02*
D03*
X027039Y021228D02*
D03*
Y020441D02*
D03*
Y020244D02*
D03*
Y020047D02*
D03*
Y01985D02*
D03*
Y019654D02*
D03*
Y01926D02*
D03*
Y019063D02*
D03*
Y018866D02*
D03*
Y018669D02*
D03*
Y018472D02*
D03*
Y020638D02*
D03*
Y017488D02*
D03*
Y021032D02*
D03*
Y020835D02*
D03*
Y017685D02*
D03*
Y017882D02*
D03*
Y018079D02*
D03*
Y018276D02*
D03*
Y019457D02*
D03*
Y021425D02*
D03*
Y021622D02*
D03*
Y021819D02*
D03*
Y022016D02*
D03*
Y022213D02*
D03*
Y02241D02*
D03*
D74*
X030124Y024617D02*
D03*
X02975Y023783D02*
D03*
X029376Y024617D02*
D03*
X028674D02*
D03*
X0283Y023783D02*
D03*
X027926Y024617D02*
D03*
D75*
X013859Y02431D02*
D03*
X01443D02*
D03*
D76*
X03226Y01573D02*
D03*
D77*
X030567Y015139D02*
D03*
D78*
Y016321D02*
D03*
M02*
