G04*
G04 #@! TF.GenerationSoftware,Altium Limited,Altium Designer,22.5.1 (42)*
G04*
G04 Layer_Color=128*
%FSTAX24Y24*%
%MOIN*%
G70*
G04*
G04 #@! TF.SameCoordinates,090E5D1A-85BE-42B9-9E0A-55F43D75D69B*
G04*
G04*
G04 #@! TF.FilePolarity,Positive*
G04*
G01*
G75*
%ADD110C,0.0020*%
D110*
X031669Y01573D02*
X032851D01*
X03226Y015139D02*
Y016321D01*
X030366Y015139D02*
X030768D01*
X030567Y014939D02*
Y01534D01*
X030366Y016321D02*
X030768D01*
X030567Y01612D02*
Y016521D01*
X020201Y02735D02*
X020319D01*
X02026Y02729D02*
Y02741D01*
X02045Y02735D02*
X02057D01*
X02051Y02729D02*
Y02741D01*
X02071Y02735D02*
X02083D01*
X02077Y02729D02*
Y02741D01*
X02019Y02759D02*
X02031D01*
X02025Y027531D02*
Y02765D01*
X02044Y02759D02*
X020559D01*
X0205Y027531D02*
Y02765D01*
X020701Y02759D02*
X020819D01*
X02076Y027531D02*
Y02765D01*
X02019Y02784D02*
X02031D01*
X02025Y02778D02*
Y027899D01*
X02044Y02784D02*
X020559D01*
X0205Y02778D02*
Y027899D01*
X020701Y02784D02*
X020819D01*
X02076Y02778D02*
Y027899D01*
X020701Y02809D02*
X020819D01*
X02076Y028031D02*
Y028149D01*
X02044Y02809D02*
X020559D01*
X0205Y028031D02*
Y028149D01*
X02019Y02809D02*
X02031D01*
X02025Y028031D02*
Y028149D01*
X0266Y02405D02*
X02672D01*
X02666Y02399D02*
Y024109D01*
X0264Y02424D02*
X026519D01*
X02646Y024181D02*
Y024299D01*
X026191Y02444D02*
X026309D01*
X02625Y024381D02*
Y024499D01*
X026841Y02411D02*
X02696D01*
X0269Y024051D02*
Y024169D01*
X02663Y02429D02*
X026749D01*
X02669Y02423D02*
Y02435D01*
X02643Y02448D02*
X026549D01*
X02649Y02442D02*
Y024539D01*
X02626Y02467D02*
X026379D01*
X02632Y024611D02*
Y024729D01*
X027081Y0242D02*
X027199D01*
X02714Y024141D02*
Y02426D01*
X026881Y02436D02*
X026999D01*
X02694Y0243D02*
Y02442D01*
X02669Y02454D02*
X026809D01*
X02675Y024481D02*
Y024599D01*
X026511Y02472D02*
X02663D01*
X02657Y02466D02*
Y02478D01*
X026321Y02492D02*
X026439D01*
X02638Y02486D02*
Y02498D01*
X02542Y0225D02*
X02554D01*
X02548Y022441D02*
Y022559D01*
X02541Y02283D02*
X025529D01*
X02547Y022771D02*
Y022889D01*
X02659Y0163D02*
X026709D01*
X02665Y016241D02*
Y016359D01*
X0264Y01612D02*
X026519D01*
X02646Y016061D02*
Y016179D01*
X02621Y01596D02*
X02633D01*
X02627Y0159D02*
Y01602D01*
X02603Y01579D02*
X026149D01*
X02609Y015731D02*
Y015849D01*
X025501Y01689D02*
X025619D01*
X02556Y016831D02*
Y016949D01*
X025501Y01714D02*
X025619D01*
X02556Y017081D02*
Y017199D01*
X025261Y01493D02*
X02538D01*
X02532Y014871D02*
Y01499D01*
X02555Y01493D02*
X02567D01*
X02561Y014871D02*
Y01499D01*
X020291Y02339D02*
X02041D01*
X02035Y023331D02*
Y023449D01*
X01391Y0203D02*
X01403D01*
X01397Y02024D02*
Y020359D01*
X01365Y02048D02*
X01377D01*
X01371Y02042D02*
Y02054D01*
X014281Y02049D02*
X014399D01*
X01434Y020431D02*
Y020549D01*
X014691Y02142D02*
X014809D01*
X01475Y02136D02*
Y021479D01*
X014531Y02066D02*
X014649D01*
X01459Y020601D02*
Y020719D01*
X014911Y02191D02*
X015029D01*
X01497Y021851D02*
Y021969D01*
X014611Y02094D02*
X014729D01*
X01467Y02088D02*
Y021D01*
X0147Y02171D02*
X01482D01*
X01476Y021651D02*
Y021769D01*
X01437Y02461D02*
X01449D01*
X01443Y02455D02*
Y024669D01*
X0108Y02159D02*
X01092D01*
X01086Y02153D02*
Y021649D01*
X011111Y02178D02*
X011229D01*
X01117Y02172D02*
Y021839D01*
X01153Y02143D02*
X01165D01*
X01159Y02137D02*
Y02149D01*
X025431Y01994D02*
X025549D01*
X02549Y01988D02*
Y02D01*
X02544Y01797D02*
X025559D01*
X0255Y01791D02*
Y01803D01*
X02544Y01876D02*
X025559D01*
X0255Y0187D02*
Y01882D01*
X02544Y01915D02*
X025559D01*
X0255Y01909D02*
Y01921D01*
X02544Y01837D02*
X025559D01*
X0255Y018311D02*
Y018429D01*
X01768Y02596D02*
X0178D01*
X01774Y0259D02*
Y026019D01*
X01768Y02621D02*
X0178D01*
X01774Y026151D02*
Y02627D01*
X017691Y02646D02*
X017809D01*
X01775Y0264D02*
Y026519D01*
X03202Y0262D02*
X032139D01*
X03208Y02614D02*
Y02626D01*
X031771Y0262D02*
X03189D01*
X03183Y02614D02*
Y02626D01*
X031521Y0262D02*
X031639D01*
X03158Y02614D02*
Y02626D01*
X03127Y0262D02*
X03139D01*
X03133Y02614D02*
Y02626D01*
X031021Y0262D02*
X03114D01*
X03108Y02614D02*
Y02626D01*
X03077Y0262D02*
X030889D01*
X03083Y02614D02*
Y02626D01*
X030521Y0262D02*
X03064D01*
X03058Y02614D02*
Y02626D01*
X030521Y02595D02*
X03064D01*
X03058Y025891D02*
Y02601D01*
X03077Y02595D02*
X030889D01*
X03083Y025891D02*
Y02601D01*
X031021Y02595D02*
X03114D01*
X03108Y025891D02*
Y02601D01*
X03127Y02595D02*
X03139D01*
X03133Y025891D02*
Y02601D01*
X031521Y02595D02*
X031639D01*
X03158Y025891D02*
Y02601D01*
X031771Y02595D02*
X03189D01*
X03183Y025891D02*
Y02601D01*
X03202Y02595D02*
X032139D01*
X03208Y025891D02*
Y02601D01*
X030521Y0257D02*
X03064D01*
X03058Y02564D02*
Y025759D01*
X03077Y0257D02*
X030889D01*
X03083Y02564D02*
Y025759D01*
X031021Y0257D02*
X03114D01*
X03108Y02564D02*
Y025759D01*
X03127Y0257D02*
X03139D01*
X03133Y02564D02*
Y025759D01*
X031521Y0257D02*
X031639D01*
X03158Y02564D02*
Y025759D01*
X031771Y0257D02*
X03189D01*
X03183Y02564D02*
Y025759D01*
X03202Y0257D02*
X032139D01*
X03208Y02564D02*
Y025759D01*
X032011Y02545D02*
X032129D01*
X03207Y025391D02*
Y02551D01*
X03176Y02545D02*
X031879D01*
X03182Y025391D02*
Y02551D01*
X031511Y02545D02*
X03163D01*
X03157Y025391D02*
Y02551D01*
X03126Y02545D02*
X031379D01*
X03132Y025391D02*
Y02551D01*
X03101Y02545D02*
X03113D01*
X03107Y025391D02*
Y02551D01*
X030761Y02545D02*
X030879D01*
X03082Y025391D02*
Y02551D01*
X03051Y02545D02*
X030629D01*
X03057Y025391D02*
Y02551D01*
X02045Y01908D02*
X02057D01*
X02051Y019021D02*
Y019139D01*
X02045Y01933D02*
X02057D01*
X02051Y01927D02*
Y019389D01*
X02544Y01758D02*
X025559D01*
X0255Y017521D02*
Y017639D01*
X02545Y02167D02*
X02557D01*
X02551Y021611D02*
Y02173D01*
X02545Y02139D02*
X02557D01*
X02551Y02133D02*
Y021449D01*
X025631Y01936D02*
X025749D01*
X02569Y019301D02*
Y019419D01*
X025631Y01818D02*
X025749D01*
X02569Y01812D02*
Y01824D01*
X025631Y01857D02*
X025749D01*
X02569Y018511D02*
Y018629D01*
X025621Y02015D02*
X02574D01*
X02568Y02009D02*
Y02021D01*
X025631Y01778D02*
X025749D01*
X02569Y017721D02*
Y017839D01*
X025631Y01975D02*
X025749D01*
X02569Y019691D02*
Y019809D01*
X025631Y01896D02*
X025749D01*
X02569Y018901D02*
Y01902D01*
X025461Y02074D02*
X02558D01*
X02552Y02068D02*
Y0208D01*
X025461Y02047D02*
X02558D01*
X02552Y02041D02*
Y020529D01*
X020291Y02367D02*
X02041D01*
X02035Y02361D02*
Y02373D01*
X020291Y02396D02*
X02041D01*
X02035Y0239D02*
Y024019D01*
X020291Y02423D02*
X02041D01*
X02035Y02417D02*
Y02429D01*
X030171Y01363D02*
X030289D01*
X03023Y01357D02*
Y01369D01*
X03045Y01363D02*
X03057D01*
X03051Y01357D02*
Y01369D01*
X03074Y01363D02*
X030859D01*
X0308Y01357D02*
Y01369D01*
X031021Y01363D02*
X03114D01*
X03108Y01357D02*
Y01369D01*
X031311Y01363D02*
X03143D01*
X03137Y01357D02*
Y01369D01*
X0316Y01363D02*
X03172D01*
X03166Y01357D02*
Y01369D01*
X03189Y01363D02*
X032009D01*
X03195Y01357D02*
Y01369D01*
X032171Y01363D02*
X03229D01*
X03223Y01357D02*
Y01369D01*
X030171Y0139D02*
X030289D01*
X03023Y013841D02*
Y013959D01*
X03045Y0139D02*
X03057D01*
X03051Y013841D02*
Y013959D01*
X03074Y0139D02*
X030859D01*
X0308Y013841D02*
Y013959D01*
X031021Y0139D02*
X03114D01*
X03108Y013841D02*
Y013959D01*
X031311Y0139D02*
X03143D01*
X03137Y013841D02*
Y013959D01*
X0316Y0139D02*
X03172D01*
X03166Y013841D02*
Y013959D01*
X03189Y0139D02*
X032009D01*
X03195Y013841D02*
Y013959D01*
X032171Y0139D02*
X03229D01*
X03223Y013841D02*
Y013959D01*
X032181Y01417D02*
X032299D01*
X03224Y01411D02*
Y01423D01*
X0319Y01417D02*
X03202D01*
X03196Y01411D02*
Y01423D01*
X031611Y01417D02*
X03173D01*
X03167Y01411D02*
Y01423D01*
X031321Y01417D02*
X031439D01*
X03138Y01411D02*
Y01423D01*
X03103Y01417D02*
X031149D01*
X03109Y01411D02*
Y01423D01*
X030751Y01417D02*
X03087D01*
X03081Y01411D02*
Y01423D01*
X030461Y01417D02*
X03058D01*
X03052Y01411D02*
Y01423D01*
X03018Y01417D02*
X030299D01*
X03024Y01411D02*
Y01423D01*
X01238Y02155D02*
X0125D01*
X01244Y02149D02*
Y021609D01*
X012621Y02143D02*
X012739D01*
X01268Y02137D02*
Y02149D01*
X02012Y01414D02*
X02024D01*
X02018Y01408D02*
Y0142D01*
X020131Y01442D02*
X02025D01*
X02019Y014361D02*
Y01448D01*
X020691Y01442D02*
X02081D01*
X02075Y014361D02*
Y01448D01*
X02068Y01413D02*
X0208D01*
X02074Y014071D02*
Y014189D01*
X02041Y01442D02*
X020529D01*
X02047Y014361D02*
Y01448D01*
X020401Y01414D02*
X020519D01*
X02046Y01408D02*
Y0142D01*
X01824Y02581D02*
X01836D01*
X0183Y025751D02*
Y02587D01*
X023561Y01549D02*
X023679D01*
X02362Y015431D02*
Y015549D01*
X02327Y01526D02*
X023389D01*
X02333Y015201D02*
Y015319D01*
X012031Y01525D02*
X012149D01*
X01209Y015191D02*
Y015309D01*
X012241Y01544D02*
X012359D01*
X0123Y015381D02*
Y0155D01*
X01243Y01564D02*
X01255D01*
X01249Y015581D02*
Y015699D01*
X01263Y01584D02*
X01275D01*
X01269Y015781D02*
Y015899D01*
X01283Y01604D02*
X01295D01*
X01289Y01598D02*
Y016099D01*
X01304Y01623D02*
X01316D01*
X0131Y016171D02*
Y016289D01*
X01324Y01645D02*
X01336D01*
X0133Y016391D02*
Y016509D01*
X013431Y01625D02*
X013549D01*
X01349Y016191D02*
Y016309D01*
X01324Y01604D02*
X01336D01*
X0133Y01598D02*
Y016099D01*
X013031Y01585D02*
X013149D01*
X01309Y01579D02*
Y01591D01*
X01283Y01565D02*
X01295D01*
X01289Y01559D02*
Y01571D01*
X01263Y01545D02*
X01275D01*
X01269Y01539D02*
Y01551D01*
X012441Y01524D02*
X012559D01*
X0125Y01518D02*
Y0153D01*
X01223Y01505D02*
X012349D01*
X01229Y014991D02*
Y015109D01*
X01204Y01484D02*
X01216D01*
X0121Y01478D02*
Y014899D01*
X012241Y01466D02*
X012359D01*
X0123Y0146D02*
Y01472D01*
X012441Y01445D02*
X012559D01*
X0125Y01439D02*
Y01451D01*
X012651Y01426D02*
X01277D01*
X01271Y014201D02*
Y014319D01*
X012851Y01405D02*
X012969D01*
X01291Y01399D02*
Y014109D01*
X01307Y01387D02*
X01319D01*
X01313Y01381D02*
Y01393D01*
X013261Y01369D02*
X013379D01*
X01332Y01363D02*
Y01375D01*
X013461Y01387D02*
X013579D01*
X01352Y01381D02*
Y01393D01*
X013261Y01407D02*
X013379D01*
X01332Y01401D02*
Y01413D01*
X01304Y01426D02*
X01316D01*
X0131Y014201D02*
Y014319D01*
X01284Y01446D02*
X01296D01*
X0129Y014401D02*
Y014519D01*
X01263Y01466D02*
X01275D01*
X01269Y0146D02*
Y01472D01*
X01243Y01486D02*
X01255D01*
X01249Y0148D02*
Y01492D01*
X012641Y01505D02*
X012759D01*
X0127Y014991D02*
Y015109D01*
X01284Y01485D02*
X01296D01*
X0129Y014791D02*
Y014909D01*
X013051Y01465D02*
X013169D01*
X01311Y014591D02*
Y01471D01*
X01325Y01445D02*
X013369D01*
X01331Y01439D02*
Y01451D01*
X01347Y01426D02*
X01359D01*
X01353Y014201D02*
Y014319D01*
X013671Y01406D02*
X013789D01*
X01373Y014001D02*
Y014119D01*
X01386Y01427D02*
X01398D01*
X01392Y01421D02*
Y01433D01*
X013661Y01446D02*
X013779D01*
X01372Y014401D02*
Y014519D01*
X013441Y01466D02*
X013559D01*
X0135Y0146D02*
Y01472D01*
X01324Y01485D02*
X01336D01*
X0133Y014791D02*
Y014909D01*
X013031Y01506D02*
X013149D01*
X01309Y015D02*
Y01512D01*
X01283Y01525D02*
X01295D01*
X01289Y015191D02*
Y015309D01*
X013031Y01545D02*
X013149D01*
X01309Y01539D02*
Y01551D01*
X013231Y01526D02*
X013349D01*
X01329Y015201D02*
Y015319D01*
X013441Y01505D02*
X013559D01*
X0135Y014991D02*
Y015109D01*
X013641Y01486D02*
X013759D01*
X0137Y0148D02*
Y01492D01*
X01386Y01466D02*
X01398D01*
X01392Y0146D02*
Y01472D01*
X01406Y01447D02*
X01418D01*
X01412Y014411D02*
Y01453D01*
X01426Y01467D02*
X01438D01*
X01432Y014611D02*
Y014729D01*
X01406Y01486D02*
X01418D01*
X01412Y0148D02*
Y01492D01*
X013841Y01506D02*
X013959D01*
X0139Y015D02*
Y01512D01*
X013641Y01525D02*
X013759D01*
X0137Y015191D02*
Y015309D01*
X013431Y01546D02*
X013549D01*
X01349Y015401D02*
Y015519D01*
X013231Y01565D02*
X013349D01*
X01329Y01559D02*
Y01571D01*
X013441Y01584D02*
X013559D01*
X0135Y015781D02*
Y015899D01*
X013641Y01565D02*
X013759D01*
X0137Y01559D02*
Y01571D01*
X013851Y01544D02*
X01397D01*
X01391Y015381D02*
Y0155D01*
X014051Y01525D02*
X014169D01*
X01411Y015191D02*
Y015309D01*
X01427Y01505D02*
X014389D01*
X01433Y014991D02*
Y015109D01*
X01447Y01486D02*
X01459D01*
X01453Y0148D02*
Y01492D01*
X014661Y01507D02*
X014779D01*
X01472Y01501D02*
Y015129D01*
X01447Y01527D02*
X01459D01*
X01453Y01521D02*
Y01533D01*
X01424Y01546D02*
X01436D01*
X0143Y015401D02*
Y015519D01*
X014051Y01566D02*
X014169D01*
X01411Y015601D02*
Y015719D01*
X01383Y01586D02*
X01395D01*
X01389Y0158D02*
Y01592D01*
X013641Y01606D02*
X013759D01*
X0137Y016D02*
Y01612D01*
X02827Y02148D02*
X028389D01*
X02833Y021421D02*
Y021539D01*
X02781Y02102D02*
X027929D01*
X02787Y020961D02*
Y021079D01*
X028031Y02123D02*
X028149D01*
X02809Y02117D02*
Y02129D01*
X027771Y02129D02*
X027889D01*
X02783Y02123D02*
Y021349D01*
X028001Y0215D02*
X028119D01*
X02806Y02144D02*
Y02156D01*
X028191Y01875D02*
X02831D01*
X02825Y018691D02*
Y018809D01*
X028435Y019345D02*
X028554D01*
X028495Y019286D02*
Y019404D01*
X02633Y02043D02*
X026449D01*
X02639Y020371D02*
Y020489D01*
X02626Y02069D02*
X026379D01*
X02632Y020631D02*
Y020749D01*
X017981Y02594D02*
X018099D01*
X01804Y02588D02*
Y026D01*
X01797Y02569D02*
X018089D01*
X01803Y025631D02*
Y025749D01*
X020301Y02516D02*
X020419D01*
X02036Y025101D02*
Y02522D01*
X020491Y02535D02*
X02061D01*
X02055Y025291D02*
Y02541D01*
X02568Y02443D02*
X0258D01*
X02574Y024371D02*
Y02449D01*
X027331Y01795D02*
X02745D01*
X02739Y01789D02*
Y01801D01*
X027501Y01822D02*
X02762D01*
X02756Y018161D02*
Y01828D01*
X026581Y0213D02*
X0267D01*
X02664Y02124D02*
Y02136D01*
X026581Y021D02*
X0267D01*
X02664Y02094D02*
Y02106D01*
X02068Y02554D02*
X0208D01*
X02074Y02548D02*
Y0256D01*
X020101Y02496D02*
X02022D01*
X02016Y024901D02*
Y02502D01*
X015351Y02348D02*
X015469D01*
X01541Y023421D02*
Y02354D01*
X015611Y02348D02*
X01573D01*
X01567Y023421D02*
Y02354D01*
X015731Y02627D02*
X015849D01*
X01579Y02621D02*
Y02633D01*
X029251Y02527D02*
X029369D01*
X02931Y02521D02*
Y025329D01*
X027931Y02523D02*
X028049D01*
X02799Y025171D02*
Y025289D01*
X018211Y02009D02*
X018329D01*
X01827Y020031D02*
Y02015D01*
X018281Y02036D02*
X018399D01*
X01834Y020301D02*
Y020419D01*
X01888Y02086D02*
X019D01*
X01894Y0208D02*
Y020919D01*
X01883Y02111D02*
X01895D01*
X01889Y021051D02*
Y02117D01*
X018621Y02092D02*
X01874D01*
X01868Y020861D02*
Y020979D01*
X020071Y01924D02*
X020189D01*
X02013Y019181D02*
Y019299D01*
X01973Y01923D02*
X019849D01*
X01979Y019171D02*
Y019289D01*
X020761Y02089D02*
X020879D01*
X02082Y020831D02*
Y020949D01*
X021051Y02089D02*
X02117D01*
X02111Y020831D02*
Y020949D01*
X020761Y02118D02*
X020879D01*
X02082Y021121D02*
Y02124D01*
X020531Y02048D02*
X020649D01*
X02059Y02042D02*
Y02054D01*
X02025Y02047D02*
X02037D01*
X02031Y02041D02*
Y020529D01*
X019861Y01986D02*
X019979D01*
X01992Y0198D02*
Y01992D01*
X02047Y01861D02*
X020589D01*
X02053Y01855D02*
Y01867D01*
X02074Y01862D02*
X020859D01*
X0208Y018561D02*
Y018679D01*
X02136Y01971D02*
X021479D01*
X02142Y01965D02*
Y01977D01*
X022081Y02661D02*
X022199D01*
X02214Y026551D02*
Y026669D01*
X02058Y02623D02*
X0207D01*
X02064Y02617D02*
Y02629D01*
X02524Y02582D02*
X025359D01*
X0253Y025761D02*
Y025879D01*
X025531Y02581D02*
X025649D01*
X02559Y025751D02*
Y02587D01*
X0109Y0222D02*
X01102D01*
X01096Y022141D02*
Y02226D01*
X012371Y0246D02*
X01249D01*
X01243Y024541D02*
Y02466D01*
X01207Y02463D02*
X01219D01*
X01213Y024571D02*
Y02469D01*
X01222Y02487D02*
X01234D01*
X01228Y024811D02*
Y024929D01*
X012031Y02512D02*
X012149D01*
X01209Y025061D02*
Y02518D01*
X011881Y02482D02*
X011999D01*
X01194Y02476D02*
Y02488D01*
X010781Y0225D02*
X010899D01*
X01084Y022441D02*
Y022559D01*
X010661Y02203D02*
X01078D01*
X01072Y021971D02*
Y02209D01*
X011061Y02244D02*
X011179D01*
X01112Y02238D02*
Y022499D01*
X011391Y02244D02*
X011509D01*
X01145Y02238D02*
Y022499D01*
X01393Y02365D02*
X01405D01*
X01399Y023591D02*
Y023709D01*
X01381Y02339D02*
X01393D01*
X01387Y023331D02*
Y023449D01*
X013671Y02377D02*
X013789D01*
X01373Y02371D02*
Y02383D01*
X013561Y02351D02*
X013679D01*
X01362Y023451D02*
Y02357D01*
X013411Y02387D02*
X013529D01*
X01347Y023811D02*
Y02393D01*
X0133Y02362D02*
X01342D01*
X01336Y023561D02*
Y023679D01*
X01274Y02168D02*
X012859D01*
X0128Y021621D02*
Y021739D01*
X012881Y02194D02*
X013D01*
X01294Y021881D02*
Y021999D01*
X01248Y02179D02*
X0126D01*
X01254Y02173D02*
Y02185D01*
X012621Y02204D02*
X012739D01*
X01268Y021981D02*
Y022099D01*
X01406Y02577D02*
X01418D01*
X01412Y02571D02*
Y02583D01*
X01452Y02517D02*
X01464D01*
X01458Y02511D02*
Y025229D01*
X01427Y02527D02*
X014389D01*
X01433Y02521D02*
Y025329D01*
X014071Y02547D02*
X014189D01*
X01413Y02541D02*
Y025529D01*
X013821Y02559D02*
X013939D01*
X01388Y025531D02*
Y025649D01*
X0147Y02703D02*
X01482D01*
X01476Y026971D02*
Y02709D01*
X01087Y02283D02*
X01099D01*
X01093Y022771D02*
Y022889D01*
X01115Y02281D02*
X01127D01*
X01121Y02275D02*
Y02287D01*
X011341Y02305D02*
X011459D01*
X0114Y022991D02*
Y02311D01*
X011061Y02307D02*
X011179D01*
X01112Y02301D02*
Y023129D01*
X01143Y02278D02*
X01155D01*
X01149Y02272D02*
Y02284D01*
X01187Y02423D02*
X01199D01*
X01193Y02417D02*
Y02429D01*
X011631Y02444D02*
X01175D01*
X01169Y024381D02*
Y024499D01*
X01192Y02384D02*
X01204D01*
X01198Y023781D02*
Y0239D01*
X011671Y02398D02*
X011789D01*
X01173Y023921D02*
Y024039D01*
X011421Y0241D02*
X011539D01*
X01148Y024041D02*
Y02416D01*
X011671Y02342D02*
X011789D01*
X01173Y023361D02*
Y023479D01*
X011501Y02367D02*
X011619D01*
X01156Y02361D02*
Y02373D01*
X011371Y02341D02*
X011489D01*
X01143Y023351D02*
Y02347D01*
X0111Y02341D02*
X01122D01*
X01116Y023351D02*
Y02347D01*
X011211Y02367D02*
X011329D01*
X01127Y02361D02*
Y02373D01*
X0158Y02658D02*
X01592D01*
X01586Y026521D02*
Y026639D01*
X016Y02638D02*
X01612D01*
X01606Y026321D02*
Y026439D01*
X01569Y02599D02*
X01581D01*
X01575Y025931D02*
Y026049D01*
X01598Y02599D02*
X016099D01*
X01604Y025931D02*
Y026049D01*
X016191Y02618D02*
X016309D01*
X01625Y026121D02*
Y02624D01*
X01047Y01987D02*
X010589D01*
X01053Y019811D02*
Y019929D01*
X010761Y01987D02*
X010879D01*
X01082Y019811D02*
Y019929D01*
X01105Y01987D02*
X01117D01*
X01111Y019811D02*
Y019929D01*
X011341Y01987D02*
X011459D01*
X0114Y019811D02*
Y019929D01*
X011631Y01987D02*
X01175D01*
X01169Y019811D02*
Y019929D01*
X01192Y01987D02*
X01204D01*
X01198Y019811D02*
Y019929D01*
X01046Y01959D02*
X01058D01*
X01052Y019531D02*
Y019649D01*
X01075Y01959D02*
X010869D01*
X01081Y019531D02*
Y019649D01*
X011041Y01959D02*
X011159D01*
X0111Y019531D02*
Y019649D01*
X01133Y01959D02*
X01145D01*
X01139Y019531D02*
Y019649D01*
X011621Y01959D02*
X011739D01*
X01168Y019531D02*
Y019649D01*
X011911Y01959D02*
X01203D01*
X01197Y019531D02*
Y019649D01*
X0122Y01959D02*
X01232D01*
X01226Y019531D02*
Y019649D01*
X012491Y01931D02*
X012609D01*
X01255Y019251D02*
Y019369D01*
X0122Y01931D02*
X01232D01*
X01226Y019251D02*
Y019369D01*
X011911Y01931D02*
X01203D01*
X01197Y019251D02*
Y019369D01*
X011621Y01931D02*
X011739D01*
X01168Y019251D02*
Y019369D01*
X01133Y01931D02*
X01145D01*
X01139Y019251D02*
Y019369D01*
X011041Y01931D02*
X011159D01*
X0111Y019251D02*
Y019369D01*
X01075Y01931D02*
X010869D01*
X01081Y019251D02*
Y019369D01*
X01046Y01931D02*
X01058D01*
X01052Y019251D02*
Y019369D01*
X01625Y01338D02*
X01637D01*
X01631Y01332D02*
Y01344D01*
X01605Y01316D02*
X01617D01*
X01611Y013101D02*
Y013219D01*
X015841Y01297D02*
X01596D01*
X0159Y01291D02*
Y01303D01*
X01564Y01277D02*
X01576D01*
X0157Y01271D02*
Y01283D01*
X01544Y01257D02*
X01556D01*
X0155Y01251D02*
Y012629D01*
X015251Y01237D02*
X015369D01*
X01531Y012311D02*
Y012429D01*
X015041Y01218D02*
X015159D01*
X0151Y01212D02*
Y01224D01*
X01485Y01198D02*
X01497D01*
X01491Y01192D02*
Y01204D01*
X01524Y01198D02*
X015359D01*
X0153Y01192D02*
Y01204D01*
X015451Y01217D02*
X015569D01*
X01551Y012111D02*
Y012229D01*
X01564Y01238D02*
X01576D01*
X0157Y01232D02*
Y01244D01*
X015841Y01258D02*
X01596D01*
X0159Y012521D02*
Y012639D01*
X016041Y01278D02*
X016159D01*
X0161Y012721D02*
Y012839D01*
X01625Y01297D02*
X01637D01*
X01631Y01291D02*
Y01303D01*
X016441Y01318D02*
X016559D01*
X0165Y01312D02*
Y01324D01*
X015831Y01377D02*
X015949D01*
X01589Y013711D02*
Y013829D01*
X015631Y01355D02*
X015749D01*
X01569Y013491D02*
Y013609D01*
X015421Y01336D02*
X015539D01*
X01548Y0133D02*
Y01342D01*
X015221Y01316D02*
X015339D01*
X01528Y013101D02*
Y013219D01*
X015021Y01296D02*
X015139D01*
X01508Y012901D02*
Y013019D01*
X01483Y01276D02*
X01495D01*
X01489Y012701D02*
Y012819D01*
X01462Y01257D02*
X01474D01*
X01468Y01251D02*
Y012629D01*
X014431Y01237D02*
X014549D01*
X01449Y012311D02*
Y012429D01*
X014631Y01216D02*
X014749D01*
X01469Y0121D02*
Y01222D01*
X01482Y01237D02*
X01494D01*
X01488Y012311D02*
Y012429D01*
X01503Y01256D02*
X01515D01*
X01509Y0125D02*
Y01262D01*
X015221Y01277D02*
X015339D01*
X01528Y01271D02*
Y01283D01*
X015421Y01297D02*
X015539D01*
X01548Y01291D02*
Y01303D01*
X01562Y01317D02*
X01574D01*
X01568Y013111D02*
Y01323D01*
X015831Y01336D02*
X015949D01*
X01589Y0133D02*
Y01342D01*
X01602Y01357D02*
X01614D01*
X01608Y013511D02*
Y013629D01*
X015421Y01417D02*
X015539D01*
X01548Y01411D02*
Y01423D01*
X015221Y01395D02*
X015339D01*
X01528Y013891D02*
Y014009D01*
X01501Y01376D02*
X015129D01*
X01507Y0137D02*
Y01382D01*
X014811Y01356D02*
X014929D01*
X01487Y0135D02*
Y01362D01*
X014611Y01336D02*
X014729D01*
X01467Y0133D02*
Y01342D01*
X01442Y01316D02*
X01454D01*
X01448Y013101D02*
Y013219D01*
X01421Y01297D02*
X01433D01*
X01427Y01291D02*
Y01303D01*
X014021Y01277D02*
X014139D01*
X01408Y01271D02*
Y01283D01*
X01422Y01256D02*
X014339D01*
X01428Y0125D02*
Y01262D01*
X014411Y01277D02*
X01453D01*
X01447Y01271D02*
Y01283D01*
X01462Y01296D02*
X01474D01*
X01468Y012901D02*
Y013019D01*
X014811Y01317D02*
X014929D01*
X01487Y013111D02*
Y01323D01*
X01501Y01337D02*
X015129D01*
X01507Y013311D02*
Y013429D01*
X01521Y01357D02*
X01533D01*
X01527Y013511D02*
Y013629D01*
X015421Y01376D02*
X015539D01*
X01548Y0137D02*
Y01382D01*
X015611Y01397D02*
X01573D01*
X01567Y01391D02*
Y01403D01*
X01521Y01436D02*
X01533D01*
X01527Y014301D02*
Y014419D01*
X015021Y01415D02*
X015139D01*
X01508Y01409D02*
Y01421D01*
X014811Y01396D02*
X014929D01*
X01487Y013901D02*
Y01402D01*
X014611Y01376D02*
X014729D01*
X01467Y0137D02*
Y01382D01*
X014411Y01356D02*
X01453D01*
X01447Y0135D02*
Y01362D01*
X01422Y01335D02*
X014339D01*
X01428Y01329D02*
Y01341D01*
X01401Y01316D02*
X01413D01*
X01407Y013101D02*
Y013219D01*
X013821Y01295D02*
X013939D01*
X01388Y01289D02*
Y01301D01*
X013621Y01316D02*
X01374D01*
X01368Y013101D02*
Y013219D01*
X01381Y01336D02*
X01393D01*
X01387Y0133D02*
Y01342D01*
X014021Y01355D02*
X014139D01*
X01408Y013491D02*
Y013609D01*
X01421Y01375D02*
X01433D01*
X01427Y013691D02*
Y013809D01*
X014411Y01395D02*
X01453D01*
X01447Y013891D02*
Y014009D01*
X014611Y01415D02*
X014729D01*
X01467Y01409D02*
Y01421D01*
X01482Y01434D02*
X01494D01*
X01488Y014281D02*
Y014399D01*
X015021Y01456D02*
X015139D01*
X01508Y0145D02*
Y014619D01*
X02136Y01997D02*
X021479D01*
X02142Y019911D02*
Y020029D01*
X023781Y02752D02*
X0239D01*
X02384Y02746D02*
Y02758D01*
X023821Y02635D02*
X023939D01*
X02388Y026291D02*
Y026409D01*
X027311Y01946D02*
X027429D01*
X02737Y019401D02*
Y019519D01*
X027871Y01853D02*
X027989D01*
X02793Y01847D02*
Y01859D01*
X02137Y01345D02*
X02149D01*
X02143Y013391D02*
Y01351D01*
X02163Y01358D02*
X021749D01*
X02169Y01352D02*
Y01364D01*
X027331Y02064D02*
X02745D01*
X02739Y02058D02*
Y0207D01*
X022531Y01365D02*
X02265D01*
X02259Y013591D02*
Y013709D01*
X02278Y01381D02*
X022899D01*
X02284Y01375D02*
Y01387D01*
X02449Y0225D02*
X024609D01*
X02455Y022441D02*
Y022559D01*
X024811Y02178D02*
X024929D01*
X02487Y02172D02*
Y021839D01*
M02*
