G04*
G04 #@! TF.GenerationSoftware,Altium Limited,Altium Designer,22.5.1 (42)*
G04*
G04 Layer_Color=255*
%FSTAX24Y24*%
%MOIN*%
G70*
G04*
G04 #@! TF.SameCoordinates,090E5D1A-85BE-42B9-9E0A-55F43D75D69B*
G04*
G04*
G04 #@! TF.FilePolarity,Positive*
G04*
G01*
G75*
G04:AMPARAMS|DCode=17|XSize=19.7mil|YSize=23.6mil|CornerRadius=4.9mil|HoleSize=0mil|Usage=FLASHONLY|Rotation=270.000|XOffset=0mil|YOffset=0mil|HoleType=Round|Shape=RoundedRectangle|*
%AMROUNDEDRECTD17*
21,1,0.0197,0.0138,0,0,270.0*
21,1,0.0098,0.0236,0,0,270.0*
1,1,0.0098,-0.0069,-0.0049*
1,1,0.0098,-0.0069,0.0049*
1,1,0.0098,0.0069,0.0049*
1,1,0.0098,0.0069,-0.0049*
%
%ADD17ROUNDEDRECTD17*%
G04:AMPARAMS|DCode=18|XSize=23.2mil|YSize=13.8mil|CornerRadius=3.4mil|HoleSize=0mil|Usage=FLASHONLY|Rotation=270.000|XOffset=0mil|YOffset=0mil|HoleType=Round|Shape=RoundedRectangle|*
%AMROUNDEDRECTD18*
21,1,0.0232,0.0069,0,0,270.0*
21,1,0.0163,0.0138,0,0,270.0*
1,1,0.0069,-0.0034,-0.0082*
1,1,0.0069,-0.0034,0.0082*
1,1,0.0069,0.0034,0.0082*
1,1,0.0069,0.0034,-0.0082*
%
%ADD18ROUNDEDRECTD18*%
G04:AMPARAMS|DCode=19|XSize=23.2mil|YSize=13.8mil|CornerRadius=3.4mil|HoleSize=0mil|Usage=FLASHONLY|Rotation=0.000|XOffset=0mil|YOffset=0mil|HoleType=Round|Shape=RoundedRectangle|*
%AMROUNDEDRECTD19*
21,1,0.0232,0.0069,0,0,0.0*
21,1,0.0163,0.0138,0,0,0.0*
1,1,0.0069,0.0082,-0.0034*
1,1,0.0069,-0.0082,-0.0034*
1,1,0.0069,-0.0082,0.0034*
1,1,0.0069,0.0082,0.0034*
%
%ADD19ROUNDEDRECTD19*%
G04:AMPARAMS|DCode=20|XSize=66.9mil|YSize=23.6mil|CornerRadius=5.9mil|HoleSize=0mil|Usage=FLASHONLY|Rotation=0.000|XOffset=0mil|YOffset=0mil|HoleType=Round|Shape=RoundedRectangle|*
%AMROUNDEDRECTD20*
21,1,0.0669,0.0118,0,0,0.0*
21,1,0.0551,0.0236,0,0,0.0*
1,1,0.0118,0.0276,-0.0059*
1,1,0.0118,-0.0276,-0.0059*
1,1,0.0118,-0.0276,0.0059*
1,1,0.0118,0.0276,0.0059*
%
%ADD20ROUNDEDRECTD20*%
G04:AMPARAMS|DCode=21|XSize=110.2mil|YSize=39.4mil|CornerRadius=9.8mil|HoleSize=0mil|Usage=FLASHONLY|Rotation=0.000|XOffset=0mil|YOffset=0mil|HoleType=Round|Shape=RoundedRectangle|*
%AMROUNDEDRECTD21*
21,1,0.1102,0.0197,0,0,0.0*
21,1,0.0906,0.0394,0,0,0.0*
1,1,0.0197,0.0453,-0.0098*
1,1,0.0197,-0.0453,-0.0098*
1,1,0.0197,-0.0453,0.0098*
1,1,0.0197,0.0453,0.0098*
%
%ADD21ROUNDEDRECTD21*%
G04:AMPARAMS|DCode=22|XSize=19.7mil|YSize=23.6mil|CornerRadius=4.9mil|HoleSize=0mil|Usage=FLASHONLY|Rotation=180.000|XOffset=0mil|YOffset=0mil|HoleType=Round|Shape=RoundedRectangle|*
%AMROUNDEDRECTD22*
21,1,0.0197,0.0138,0,0,180.0*
21,1,0.0098,0.0236,0,0,180.0*
1,1,0.0098,-0.0049,0.0069*
1,1,0.0098,0.0049,0.0069*
1,1,0.0098,0.0049,-0.0069*
1,1,0.0098,-0.0049,-0.0069*
%
%ADD22ROUNDEDRECTD22*%
G04:AMPARAMS|DCode=23|XSize=23.6mil|YSize=23.6mil|CornerRadius=5.9mil|HoleSize=0mil|Usage=FLASHONLY|Rotation=135.000|XOffset=0mil|YOffset=0mil|HoleType=Round|Shape=RoundedRectangle|*
%AMROUNDEDRECTD23*
21,1,0.0236,0.0118,0,0,135.0*
21,1,0.0118,0.0236,0,0,135.0*
1,1,0.0118,0.0000,0.0084*
1,1,0.0118,0.0084,0.0000*
1,1,0.0118,0.0000,-0.0084*
1,1,0.0118,-0.0084,0.0000*
%
%ADD23ROUNDEDRECTD23*%
G04:AMPARAMS|DCode=24|XSize=33.5mil|YSize=23.6mil|CornerRadius=0mil|HoleSize=0mil|Usage=FLASHONLY|Rotation=156.000|XOffset=0mil|YOffset=0mil|HoleType=Round|Shape=Rectangle|*
%AMROTATEDRECTD24*
4,1,4,0.0201,0.0040,0.0105,-0.0176,-0.0201,-0.0040,-0.0105,0.0176,0.0201,0.0040,0.0*
%
%ADD24ROTATEDRECTD24*%

G04:AMPARAMS|DCode=25|XSize=33.5mil|YSize=27.6mil|CornerRadius=0mil|HoleSize=0mil|Usage=FLASHONLY|Rotation=156.000|XOffset=0mil|YOffset=0mil|HoleType=Round|Shape=Rectangle|*
%AMROTATEDRECTD25*
4,1,4,0.0209,0.0058,0.0097,-0.0194,-0.0209,-0.0058,-0.0097,0.0194,0.0209,0.0058,0.0*
%
%ADD25ROTATEDRECTD25*%

G04:AMPARAMS|DCode=26|XSize=26mil|YSize=12.6mil|CornerRadius=3.2mil|HoleSize=0mil|Usage=FLASHONLY|Rotation=180.000|XOffset=0mil|YOffset=0mil|HoleType=Round|Shape=RoundedRectangle|*
%AMROUNDEDRECTD26*
21,1,0.0260,0.0063,0,0,180.0*
21,1,0.0197,0.0126,0,0,180.0*
1,1,0.0063,-0.0098,0.0032*
1,1,0.0063,0.0098,0.0032*
1,1,0.0063,0.0098,-0.0032*
1,1,0.0063,-0.0098,-0.0032*
%
%ADD26ROUNDEDRECTD26*%
G04:AMPARAMS|DCode=27|XSize=57.1mil|YSize=23.2mil|CornerRadius=2.9mil|HoleSize=0mil|Usage=FLASHONLY|Rotation=135.000|XOffset=0mil|YOffset=0mil|HoleType=Round|Shape=RoundedRectangle|*
%AMROUNDEDRECTD27*
21,1,0.0571,0.0174,0,0,135.0*
21,1,0.0513,0.0232,0,0,135.0*
1,1,0.0058,-0.0120,0.0243*
1,1,0.0058,0.0243,-0.0120*
1,1,0.0058,0.0120,-0.0243*
1,1,0.0058,-0.0243,0.0120*
%
%ADD27ROUNDEDRECTD27*%
G04:AMPARAMS|DCode=28|XSize=19.7mil|YSize=23.6mil|CornerRadius=4.9mil|HoleSize=0mil|Usage=FLASHONLY|Rotation=315.000|XOffset=0mil|YOffset=0mil|HoleType=Round|Shape=RoundedRectangle|*
%AMROUNDEDRECTD28*
21,1,0.0197,0.0138,0,0,315.0*
21,1,0.0098,0.0236,0,0,315.0*
1,1,0.0098,-0.0014,-0.0084*
1,1,0.0098,-0.0084,-0.0014*
1,1,0.0098,0.0014,0.0084*
1,1,0.0098,0.0084,0.0014*
%
%ADD28ROUNDEDRECTD28*%
G04:AMPARAMS|DCode=29|XSize=137.8mil|YSize=51.2mil|CornerRadius=12.8mil|HoleSize=0mil|Usage=FLASHONLY|Rotation=45.000|XOffset=0mil|YOffset=0mil|HoleType=Round|Shape=RoundedRectangle|*
%AMROUNDEDRECTD29*
21,1,0.1378,0.0256,0,0,45.0*
21,1,0.1122,0.0512,0,0,45.0*
1,1,0.0256,0.0487,0.0306*
1,1,0.0256,-0.0306,-0.0487*
1,1,0.0256,-0.0487,-0.0306*
1,1,0.0256,0.0306,0.0487*
%
%ADD29ROUNDEDRECTD29*%
G04:AMPARAMS|DCode=30|XSize=32.3mil|YSize=31.5mil|CornerRadius=7.9mil|HoleSize=0mil|Usage=FLASHONLY|Rotation=90.000|XOffset=0mil|YOffset=0mil|HoleType=Round|Shape=RoundedRectangle|*
%AMROUNDEDRECTD30*
21,1,0.0323,0.0157,0,0,90.0*
21,1,0.0165,0.0315,0,0,90.0*
1,1,0.0157,0.0079,0.0083*
1,1,0.0157,0.0079,-0.0083*
1,1,0.0157,-0.0079,-0.0083*
1,1,0.0157,-0.0079,0.0083*
%
%ADD30ROUNDEDRECTD30*%
G04:AMPARAMS|DCode=31|XSize=43.3mil|YSize=59.1mil|CornerRadius=10.8mil|HoleSize=0mil|Usage=FLASHONLY|Rotation=90.000|XOffset=0mil|YOffset=0mil|HoleType=Round|Shape=RoundedRectangle|*
%AMROUNDEDRECTD31*
21,1,0.0433,0.0374,0,0,90.0*
21,1,0.0217,0.0591,0,0,90.0*
1,1,0.0217,0.0187,0.0108*
1,1,0.0217,0.0187,-0.0108*
1,1,0.0217,-0.0187,-0.0108*
1,1,0.0217,-0.0187,0.0108*
%
%ADD31ROUNDEDRECTD31*%
G04:AMPARAMS|DCode=32|XSize=23.6mil|YSize=23.6mil|CornerRadius=5.9mil|HoleSize=0mil|Usage=FLASHONLY|Rotation=270.000|XOffset=0mil|YOffset=0mil|HoleType=Round|Shape=RoundedRectangle|*
%AMROUNDEDRECTD32*
21,1,0.0236,0.0118,0,0,270.0*
21,1,0.0118,0.0236,0,0,270.0*
1,1,0.0118,-0.0059,-0.0059*
1,1,0.0118,-0.0059,0.0059*
1,1,0.0118,0.0059,0.0059*
1,1,0.0118,0.0059,-0.0059*
%
%ADD32ROUNDEDRECTD32*%
G04:AMPARAMS|DCode=33|XSize=35.4mil|YSize=39.4mil|CornerRadius=8.9mil|HoleSize=0mil|Usage=FLASHONLY|Rotation=0.000|XOffset=0mil|YOffset=0mil|HoleType=Round|Shape=RoundedRectangle|*
%AMROUNDEDRECTD33*
21,1,0.0354,0.0217,0,0,0.0*
21,1,0.0177,0.0394,0,0,0.0*
1,1,0.0177,0.0089,-0.0108*
1,1,0.0177,-0.0089,-0.0108*
1,1,0.0177,-0.0089,0.0108*
1,1,0.0177,0.0089,0.0108*
%
%ADD33ROUNDEDRECTD33*%
%ADD34P,0.1615X4X85.0*%
%ADD35P,0.1615X4X100.0*%
G04:AMPARAMS|DCode=36|XSize=43.3mil|YSize=59.1mil|CornerRadius=10.8mil|HoleSize=0mil|Usage=FLASHONLY|Rotation=0.000|XOffset=0mil|YOffset=0mil|HoleType=Round|Shape=RoundedRectangle|*
%AMROUNDEDRECTD36*
21,1,0.0433,0.0374,0,0,0.0*
21,1,0.0217,0.0591,0,0,0.0*
1,1,0.0217,0.0108,-0.0187*
1,1,0.0217,-0.0108,-0.0187*
1,1,0.0217,-0.0108,0.0187*
1,1,0.0217,0.0108,0.0187*
%
%ADD36ROUNDEDRECTD36*%
G04:AMPARAMS|DCode=37|XSize=25.6mil|YSize=35.4mil|CornerRadius=6.4mil|HoleSize=0mil|Usage=FLASHONLY|Rotation=90.000|XOffset=0mil|YOffset=0mil|HoleType=Round|Shape=RoundedRectangle|*
%AMROUNDEDRECTD37*
21,1,0.0256,0.0226,0,0,90.0*
21,1,0.0128,0.0354,0,0,90.0*
1,1,0.0128,0.0113,0.0064*
1,1,0.0128,0.0113,-0.0064*
1,1,0.0128,-0.0113,-0.0064*
1,1,0.0128,-0.0113,0.0064*
%
%ADD37ROUNDEDRECTD37*%
G04:AMPARAMS|DCode=38|XSize=27.6mil|YSize=26mil|CornerRadius=0mil|HoleSize=0mil|Usage=FLASHONLY|Rotation=208.000|XOffset=0mil|YOffset=0mil|HoleType=Round|Shape=Rectangle|*
%AMROTATEDRECTD38*
4,1,4,0.0061,0.0179,0.0183,-0.0050,-0.0061,-0.0179,-0.0183,0.0050,0.0061,0.0179,0.0*
%
%ADD38ROTATEDRECTD38*%

G04:AMPARAMS|DCode=39|XSize=11.8mil|YSize=33.9mil|CornerRadius=0mil|HoleSize=0mil|Usage=FLASHONLY|Rotation=208.000|XOffset=0mil|YOffset=0mil|HoleType=Round|Shape=Rectangle|*
%AMROTATEDRECTD39*
4,1,4,-0.0027,0.0177,0.0132,-0.0122,0.0027,-0.0177,-0.0132,0.0122,-0.0027,0.0177,0.0*
%
%ADD39ROTATEDRECTD39*%

G04:AMPARAMS|DCode=40|XSize=35.4mil|YSize=39.4mil|CornerRadius=8.9mil|HoleSize=0mil|Usage=FLASHONLY|Rotation=90.000|XOffset=0mil|YOffset=0mil|HoleType=Round|Shape=RoundedRectangle|*
%AMROUNDEDRECTD40*
21,1,0.0354,0.0217,0,0,90.0*
21,1,0.0177,0.0394,0,0,90.0*
1,1,0.0177,0.0108,0.0089*
1,1,0.0177,0.0108,-0.0089*
1,1,0.0177,-0.0108,-0.0089*
1,1,0.0177,-0.0108,0.0089*
%
%ADD40ROUNDEDRECTD40*%
%ADD41R,0.1189X0.0531*%
%ADD42R,0.0260X0.0276*%
%ADD43R,0.0339X0.0118*%
G04:AMPARAMS|DCode=44|XSize=39.4mil|YSize=23.6mil|CornerRadius=3mil|HoleSize=0mil|Usage=FLASHONLY|Rotation=270.000|XOffset=0mil|YOffset=0mil|HoleType=Round|Shape=RoundedRectangle|*
%AMROUNDEDRECTD44*
21,1,0.0394,0.0177,0,0,270.0*
21,1,0.0335,0.0236,0,0,270.0*
1,1,0.0059,-0.0089,-0.0167*
1,1,0.0059,-0.0089,0.0167*
1,1,0.0059,0.0089,0.0167*
1,1,0.0059,0.0089,-0.0167*
%
%ADD44ROUNDEDRECTD44*%
G04:AMPARAMS|DCode=45|XSize=25.6mil|YSize=35.4mil|CornerRadius=6.4mil|HoleSize=0mil|Usage=FLASHONLY|Rotation=180.000|XOffset=0mil|YOffset=0mil|HoleType=Round|Shape=RoundedRectangle|*
%AMROUNDEDRECTD45*
21,1,0.0256,0.0226,0,0,180.0*
21,1,0.0128,0.0354,0,0,180.0*
1,1,0.0128,-0.0064,0.0113*
1,1,0.0128,0.0064,0.0113*
1,1,0.0128,0.0064,-0.0113*
1,1,0.0128,-0.0064,-0.0113*
%
%ADD45ROUNDEDRECTD45*%
G04:AMPARAMS|DCode=79|XSize=39.4mil|YSize=63mil|CornerRadius=9.8mil|HoleSize=0mil|Usage=FLASHONLY|Rotation=180.000|XOffset=0mil|YOffset=0mil|HoleType=Round|Shape=RoundedRectangle|*
%AMROUNDEDRECTD79*
21,1,0.0394,0.0433,0,0,180.0*
21,1,0.0197,0.0630,0,0,180.0*
1,1,0.0197,-0.0098,0.0217*
1,1,0.0197,0.0098,0.0217*
1,1,0.0197,0.0098,-0.0217*
1,1,0.0197,-0.0098,-0.0217*
%
%ADD79ROUNDEDRECTD79*%
%ADD83C,0.1181*%
%ADD84C,0.0598*%
%ADD85R,0.0598X0.0598*%
D17*
X02473Y017157D02*
D03*
Y016763D02*
D03*
X01755Y025203D02*
D03*
Y025597D02*
D03*
X02515Y016763D02*
D03*
Y017157D02*
D03*
D18*
X020047Y02021D02*
D03*
X01985D02*
D03*
X019653D02*
D03*
Y01949D02*
D03*
X01985D02*
D03*
X020047D02*
D03*
D19*
X019391Y020145D02*
D03*
Y019948D02*
D03*
Y019752D02*
D03*
Y019555D02*
D03*
X020309D02*
D03*
Y019752D02*
D03*
Y019948D02*
D03*
Y020145D02*
D03*
D20*
X032091Y024934D02*
D03*
Y024442D02*
D03*
Y02395D02*
D03*
Y023458D02*
D03*
Y021489D02*
D03*
Y021981D02*
D03*
Y022474D02*
D03*
Y022966D02*
D03*
Y020997D02*
D03*
Y020505D02*
D03*
D21*
X033409Y019777D02*
D03*
Y025623D02*
D03*
D22*
X028004Y01886D02*
D03*
X02761D02*
D03*
X018253Y02765D02*
D03*
X018647D02*
D03*
X027603Y01946D02*
D03*
X027997D02*
D03*
X025197Y02205D02*
D03*
X024803D02*
D03*
X025197Y0225D02*
D03*
X024803D02*
D03*
D23*
X013935Y025245D02*
D03*
X014185Y024995D02*
D03*
X01549Y02681D02*
D03*
X015741Y026559D02*
D03*
D24*
X013219Y02223D02*
D03*
X013411Y022662D02*
D03*
X013603Y023094D02*
D03*
D25*
X015145Y022903D02*
D03*
X014393Y021212D02*
D03*
D26*
X018046Y026244D02*
D03*
Y0265D02*
D03*
Y026756D02*
D03*
X018854D02*
D03*
Y0265D02*
D03*
Y026244D02*
D03*
D27*
X013994Y026267D02*
D03*
X014258Y026532D02*
D03*
X014523Y026796D02*
D03*
X015166Y026153D02*
D03*
X014902Y025888D02*
D03*
X014637Y025624D02*
D03*
D28*
X014872Y027432D02*
D03*
X015151Y027154D02*
D03*
X015509Y027501D02*
D03*
X015231Y027779D02*
D03*
D29*
X015624Y025066D02*
D03*
X016236Y024454D02*
D03*
D30*
X019815Y02765D02*
D03*
X019185D02*
D03*
D31*
X0197Y026959D02*
D03*
Y02625D02*
D03*
D32*
X0203Y026527D02*
D03*
Y026173D02*
D03*
X02745Y025873D02*
D03*
Y026227D02*
D03*
D33*
X018135Y0253D02*
D03*
X018765D02*
D03*
X020235Y02195D02*
D03*
X019605D02*
D03*
D34*
X01515Y01625D02*
D03*
D35*
X0166Y01495D02*
D03*
D36*
X019696Y02095D02*
D03*
X020404D02*
D03*
D37*
X0189Y020135D02*
D03*
Y019565D02*
D03*
X0209Y020135D02*
D03*
Y019565D02*
D03*
X02013Y018395D02*
D03*
Y018965D02*
D03*
X01958Y018395D02*
D03*
Y018965D02*
D03*
X01243Y021145D02*
D03*
Y020575D02*
D03*
X0287Y023185D02*
D03*
Y022615D02*
D03*
X02935Y023185D02*
D03*
Y022615D02*
D03*
X02985Y025779D02*
D03*
Y02635D02*
D03*
X02925D02*
D03*
Y025779D02*
D03*
X02865D02*
D03*
Y02635D02*
D03*
X02805D02*
D03*
Y025779D02*
D03*
D38*
X021271Y0125D02*
D03*
X020743Y01351D02*
D03*
X024718Y015624D02*
D03*
X025247Y014614D02*
D03*
D39*
X022706Y014508D02*
D03*
X023749Y015063D02*
D03*
X023923Y015155D02*
D03*
X024097Y015247D02*
D03*
X02427Y01534D02*
D03*
X02149Y013861D02*
D03*
X021316Y013769D02*
D03*
X024444Y015432D02*
D03*
X021663Y013954D02*
D03*
X023575Y01497D02*
D03*
X023401Y014878D02*
D03*
X023228Y014785D02*
D03*
X023054Y014693D02*
D03*
X02288Y0146D02*
D03*
X022532Y014416D02*
D03*
X022359Y014323D02*
D03*
X022185Y014231D02*
D03*
X022011Y014138D02*
D03*
X021837Y014046D02*
D03*
X021142Y013676D02*
D03*
X021552Y012695D02*
D03*
X021726Y012787D02*
D03*
X0219Y01288D02*
D03*
X022074Y012972D02*
D03*
X022247Y013065D02*
D03*
X022421Y013157D02*
D03*
X022595Y01325D02*
D03*
X022769Y013342D02*
D03*
X022943Y013434D02*
D03*
X023116Y013527D02*
D03*
X02329Y013619D02*
D03*
X023464Y013712D02*
D03*
X023638Y013804D02*
D03*
X023812Y013896D02*
D03*
X023986Y013989D02*
D03*
X024159Y014081D02*
D03*
X024333Y014174D02*
D03*
X024507Y014266D02*
D03*
X024681Y014359D02*
D03*
X024855Y014451D02*
D03*
D40*
X0116Y02047D02*
D03*
Y0211D02*
D03*
X01085Y020485D02*
D03*
Y021115D02*
D03*
X01236Y018925D02*
D03*
Y018295D02*
D03*
X01161Y018925D02*
D03*
Y018295D02*
D03*
X01086Y018925D02*
D03*
Y018295D02*
D03*
X01308Y025535D02*
D03*
Y024905D02*
D03*
D41*
X013501Y018856D02*
D03*
X013501Y017761D02*
D03*
D42*
X027079Y022848D02*
D03*
X02594Y017163D02*
D03*
X02708Y017157D02*
D03*
X02594Y022848D02*
D03*
D43*
X02598Y022508D02*
D03*
Y022311D02*
D03*
Y022114D02*
D03*
Y021918D02*
D03*
Y021721D02*
D03*
Y021524D02*
D03*
Y017587D02*
D03*
Y017784D02*
D03*
Y01798D02*
D03*
Y018177D02*
D03*
Y018374D02*
D03*
Y018571D02*
D03*
Y018768D02*
D03*
Y018965D02*
D03*
Y019161D02*
D03*
Y019358D02*
D03*
Y019555D02*
D03*
Y019752D02*
D03*
Y019949D02*
D03*
Y020146D02*
D03*
Y020343D02*
D03*
Y020539D02*
D03*
Y020736D02*
D03*
Y020933D02*
D03*
Y02113D02*
D03*
Y021327D02*
D03*
X027039Y021228D02*
D03*
Y020441D02*
D03*
Y020244D02*
D03*
Y020047D02*
D03*
Y01985D02*
D03*
Y019654D02*
D03*
Y01926D02*
D03*
Y019063D02*
D03*
Y018866D02*
D03*
Y018669D02*
D03*
Y018472D02*
D03*
Y020638D02*
D03*
Y017488D02*
D03*
Y021032D02*
D03*
Y020835D02*
D03*
Y017685D02*
D03*
Y017882D02*
D03*
Y018079D02*
D03*
Y018276D02*
D03*
Y019457D02*
D03*
Y021425D02*
D03*
Y021622D02*
D03*
Y021819D02*
D03*
Y022016D02*
D03*
Y022213D02*
D03*
Y02241D02*
D03*
D44*
X030124Y024617D02*
D03*
X02975Y023783D02*
D03*
X029376Y024617D02*
D03*
X028674D02*
D03*
X0283Y023783D02*
D03*
X027926Y024617D02*
D03*
D45*
X013859Y02431D02*
D03*
X01443D02*
D03*
D79*
X01845Y0265D02*
D03*
D83*
X03226Y01573D02*
D03*
D84*
X030567Y015139D02*
D03*
D85*
Y016321D02*
D03*
M02*
