G04*
G04 #@! TF.GenerationSoftware,Altium Limited,Altium Designer,22.5.1 (42)*
G04*
G04 Layer_Color=32896*
%FSTAX24Y24*%
%MOIN*%
G70*
G04*
G04 #@! TF.SameCoordinates,090E5D1A-85BE-42B9-9E0A-55F43D75D69B*
G04*
G04*
G04 #@! TF.FilePolarity,Positive*
G04*
G01*
G75*
%ADD10C,0.0079*%
%ADD11C,0.0200*%
%ADD12C,0.0050*%
%ADD14C,0.0100*%
%ADD15C,0.0059*%
%ADD16C,0.0060*%
G36*
X013489Y026256D02*
X013471Y026238D01*
X013411Y026298D01*
X013388Y026275D01*
X013386Y026272D01*
X013385Y026271D01*
X013383Y026269D01*
X013383Y026268D01*
X013382Y026267D01*
X013382Y026267D01*
X013381Y026266D01*
X013379Y026262D01*
X013378Y02626D01*
X013378Y026259D01*
X013377Y026257D01*
X013377Y026256D01*
X013377Y026255D01*
Y026255D01*
X013376Y026252D01*
X013376Y026249D01*
Y026243D01*
Y02624D01*
X013376Y026238D01*
X013377Y026237D01*
Y026236D01*
X013377Y026232D01*
X013378Y026227D01*
X013379Y026221D01*
X01338Y026216D01*
X013381Y026212D01*
X013382Y026208D01*
X013382Y026207D01*
X013382Y026206D01*
Y026205D01*
X013382Y026205D01*
X013393Y026159D01*
X01337Y026137D01*
X013357Y026197D01*
X013356Y026203D01*
X013355Y026209D01*
X013354Y026215D01*
X013354Y02622D01*
Y026224D01*
Y026227D01*
Y026229D01*
Y02623D01*
X013354Y026232D01*
X013354Y026235D01*
X013356Y026241D01*
X013357Y026243D01*
X013357Y026245D01*
X013357Y026247D01*
X013358Y026247D01*
X013353Y026244D01*
X01335Y026241D01*
X013346Y02624D01*
X013342Y026237D01*
X013338Y026236D01*
X013335Y026235D01*
X013332Y026233D01*
X013329Y026232D01*
X013326Y026232D01*
X013323Y026231D01*
X013321Y026231D01*
X01332Y026231D01*
X013318Y026231D01*
X013316D01*
X013313Y026231D01*
X013309Y026231D01*
X013303Y026233D01*
X013297Y026236D01*
X013292Y026239D01*
X013288Y026241D01*
X013286Y026242D01*
X013285Y026244D01*
X013284Y026244D01*
X013283Y026245D01*
X013283Y026246D01*
X013283Y026246D01*
X013279Y02625D01*
X013275Y026254D01*
X013273Y026259D01*
X013271Y026263D01*
X01327Y026267D01*
X013268Y026269D01*
X013268Y026271D01*
Y026272D01*
X013268Y026272D01*
X013267Y026277D01*
X013267Y026282D01*
X013267Y026287D01*
X013267Y026291D01*
X013268Y026295D01*
X013269Y026298D01*
X01327Y026299D01*
Y0263D01*
X01327Y0263D01*
X013271Y026302D01*
X013273Y026305D01*
X013276Y02631D01*
X01328Y026316D01*
X013284Y02632D01*
X013288Y026325D01*
X01329Y026326D01*
X013291Y026328D01*
X013354Y026391D01*
X013489Y026256D01*
D02*
G37*
G36*
X013261Y026199D02*
X013257Y026197D01*
X013253Y026196D01*
X013248Y026194D01*
X013244Y026193D01*
X013241Y026192D01*
X013238Y026191D01*
X013236Y02619D01*
X013235D01*
X013235Y02619D01*
X013229Y026189D01*
X013224Y026188D01*
X013219Y026187D01*
X013216Y026187D01*
X013212Y026186D01*
X01321D01*
X013208Y026186D01*
X013208D01*
X013314Y02608D01*
X013297Y026063D01*
X013161Y026199D01*
X013172Y02621D01*
X013177Y026209D01*
X013182Y026208D01*
X013188Y026207D01*
X013193Y026207D01*
X013198D01*
X013201Y026207D01*
X013203Y026207D01*
X013205D01*
X013212Y026208D01*
X013219Y026209D01*
X013226Y02621D01*
X013232Y026212D01*
X013237Y026213D01*
X01324Y026213D01*
X013241Y026214D01*
X013243Y026214D01*
X013244Y026215D01*
X013245D01*
X013245Y026215D01*
X013261Y026199D01*
D02*
G37*
G36*
X013187Y026082D02*
X013174Y026064D01*
X01317Y026065D01*
X013167D01*
X013163Y026065D01*
X013161Y026065D01*
X013158Y026064D01*
X013156Y026064D01*
X013155Y026063D01*
X013154D01*
X013151Y026062D01*
X013147Y026061D01*
X013144Y026059D01*
X013141Y026057D01*
X013139Y026055D01*
X013137Y026054D01*
X013133Y02605D01*
X013132Y026047D01*
X013128Y026042D01*
X013126Y026037D01*
X013124Y026033D01*
X013124Y026029D01*
X013123Y026026D01*
Y026024D01*
X013123Y026023D01*
X013123Y026023D01*
X013124Y026017D01*
X013125Y026012D01*
X013128Y026006D01*
X013131Y026002D01*
X013133Y025998D01*
X013134Y025996D01*
X013135Y025995D01*
X013136Y025994D01*
X013137Y025993D01*
X013137Y025993D01*
X013138Y025993D01*
X01314Y02599D01*
X013143Y025988D01*
X013149Y025984D01*
X013155Y025981D01*
X013159Y025979D01*
X013164Y025978D01*
X013167Y025977D01*
X013168D01*
X013169Y025977D01*
X013173D01*
X013176Y025977D01*
X013182Y025978D01*
X013187Y02598D01*
X013191Y025983D01*
X013195Y025984D01*
X013197Y025987D01*
X013198Y025987D01*
X013199Y025988D01*
X013203Y025992D01*
X013206Y025996D01*
X013208Y026D01*
X013209Y026004D01*
X01321Y026007D01*
X01321Y02601D01*
Y026011D01*
X01321Y026012D01*
X01321Y026017D01*
X013209Y026022D01*
X013207Y026027D01*
X013206Y026031D01*
X013203Y026035D01*
X013202Y026037D01*
X013201Y026039D01*
X013201Y026039D01*
X0132Y02604D01*
X0132Y02604D01*
X013219Y026056D01*
X013222Y026052D01*
X013224Y026049D01*
X013228Y026042D01*
X01323Y026035D01*
X013231Y026032D01*
X013232Y026029D01*
X013233Y026026D01*
X013233Y026023D01*
X013233Y026021D01*
Y026019D01*
Y026017D01*
X013234Y026016D01*
X013233Y026016D01*
Y026015D01*
X013233Y026011D01*
X013232Y026007D01*
X013231Y026003D01*
X013229Y026D01*
X013226Y025993D01*
X013223Y025987D01*
X013221Y025984D01*
X013219Y025982D01*
X013217Y02598D01*
X013216Y025978D01*
X013215Y025976D01*
X013213Y025975D01*
X013209Y025971D01*
X013204Y025967D01*
X0132Y025965D01*
X013196Y025962D01*
X013191Y02596D01*
X013187Y025959D01*
X013183Y025957D01*
X013179Y025957D01*
X013175Y025956D01*
X013172Y025956D01*
X013169D01*
X013166Y025955D01*
X013162D01*
X013161Y025956D01*
X013161D01*
X013157Y025956D01*
X013152Y025957D01*
X013148Y025958D01*
X013144Y02596D01*
X013137Y025963D01*
X013131Y025967D01*
X013128Y025969D01*
X013126Y025971D01*
X013124Y025972D01*
X013122Y025974D01*
X01312Y025975D01*
X013119Y025976D01*
X013119Y025976D01*
X013119Y025976D01*
X013115Y02598D01*
X013112Y025984D01*
X01311Y025988D01*
X013107Y025992D01*
X013106Y025995D01*
X013104Y025999D01*
X013103Y026003D01*
X013102Y026006D01*
X013101Y026009D01*
X0131Y026012D01*
X0131Y026014D01*
X013099Y026016D01*
X013099Y026018D01*
Y026019D01*
Y02602D01*
Y026021D01*
X013099Y026025D01*
X0131Y026029D01*
X013101Y026033D01*
X013102Y026037D01*
X013103Y026041D01*
X013105Y026045D01*
X013108Y026051D01*
X01311Y026054D01*
X013111Y026056D01*
X013113Y026058D01*
X013114Y02606D01*
X013115Y026061D01*
X013119Y026065D01*
X013122Y026067D01*
X013128Y026071D01*
X013133Y026074D01*
X013139Y026076D01*
X013144Y026078D01*
X013146Y026079D01*
X013148Y026079D01*
X013149Y026079D01*
X01315Y02608D01*
X013151Y02608D01*
X013151D01*
X013107Y026109D01*
X013053Y026055D01*
X013037Y026071D01*
X013104Y026138D01*
X013187Y026082D01*
D02*
G37*
G36*
X019115Y018726D02*
X019119Y018725D01*
X019124Y018725D01*
X019128Y018724D01*
X019132Y018724D01*
X019136Y018723D01*
X019139Y018722D01*
X019142Y018722D01*
X019145Y018721D01*
X019147Y01872D01*
X019149Y01872D01*
X01915Y018719D01*
X019151Y018719D01*
X019152Y018719D01*
X019152D01*
X019158Y018716D01*
X019164Y018712D01*
X019168Y018708D01*
X019172Y018704D01*
X019175Y0187D01*
X019177Y018697D01*
X019178Y018696D01*
X019178Y018695D01*
X019179Y018695D01*
Y018694D01*
X019182Y018688D01*
X019184Y01868D01*
X019186Y018673D01*
X019187Y018666D01*
X019187Y018663D01*
X019187Y01866D01*
X019188Y018657D01*
Y018655D01*
X019188Y018653D01*
Y01865D01*
X019187Y01864D01*
X019187Y018636D01*
X019186Y018632D01*
X019185Y018628D01*
X019185Y018624D01*
X019184Y018621D01*
X019183Y018618D01*
X019182Y018615D01*
X019181Y018613D01*
X01918Y018611D01*
X019179Y018609D01*
X019178Y018607D01*
X019178Y018607D01*
X019177Y018606D01*
Y018606D01*
X019173Y0186D01*
X019169Y018595D01*
X019164Y018591D01*
X01916Y018588D01*
X019156Y018585D01*
X019153Y018583D01*
X019152Y018583D01*
X019151Y018582D01*
X01915Y018582D01*
X01915D01*
X019147Y018581D01*
X019143Y01858D01*
X019136Y018578D01*
X019128Y018577D01*
X01912Y018576D01*
X019117Y018576D01*
X019114Y018576D01*
X019111D01*
X019108Y018575D01*
X019106D01*
X019105D01*
X019104D01*
X019104D01*
X018993D01*
Y018601D01*
X019104D01*
X01911D01*
X019116Y018601D01*
X019121Y018602D01*
X019126Y018603D01*
X019131Y018604D01*
X019135Y018605D01*
X019139Y018606D01*
X019142Y018607D01*
X019144Y018608D01*
X019147Y018609D01*
X019148Y01861D01*
X01915Y018611D01*
X019151Y018612D01*
X019152Y018612D01*
X019152Y018612D01*
X019152Y018613D01*
X019155Y018615D01*
X019157Y018618D01*
X01916Y018624D01*
X019162Y01863D01*
X019163Y018637D01*
X019164Y018643D01*
X019165Y018646D01*
Y018648D01*
X019165Y01865D01*
Y018653D01*
X019165Y018658D01*
X019164Y018664D01*
X019163Y018669D01*
X019162Y018673D01*
X01916Y018676D01*
X01916Y018678D01*
X019159Y01868D01*
X019159Y01868D01*
X019156Y018684D01*
X019153Y018688D01*
X01915Y01869D01*
X019147Y018692D01*
X019144Y018694D01*
X019142Y018695D01*
X019141Y018696D01*
X019141Y018696D01*
X019138Y018697D01*
X019136Y018697D01*
X01913Y018699D01*
X019124Y018699D01*
X019118Y0187D01*
X019112Y0187D01*
X01911D01*
X019108Y018701D01*
X019106D01*
X019105D01*
X019104D01*
X019104D01*
X018993D01*
Y018726D01*
X019104D01*
X019109D01*
X019115Y018726D01*
D02*
G37*
G36*
X019061Y01852D02*
X019059Y018516D01*
X019057Y018512D01*
X019056Y018508D01*
X019054Y018505D01*
X019052Y018502D01*
X019051Y018501D01*
X019051Y0185D01*
Y0185D01*
X019048Y018495D01*
X019045Y018491D01*
X019042Y018487D01*
X01904Y018484D01*
X019038Y018481D01*
X019036Y018479D01*
X019035Y018478D01*
X019035Y018478D01*
X019185D01*
Y018454D01*
X018992D01*
Y018469D01*
X018997Y018472D01*
X019001Y018475D01*
X019006Y018479D01*
X01901Y018482D01*
X019013Y018485D01*
X019016Y018488D01*
X019016Y018489D01*
X019017Y01849D01*
X019018Y01849D01*
X019018Y01849D01*
X019023Y018496D01*
X019027Y018502D01*
X019031Y018507D01*
X019034Y018513D01*
X019037Y018518D01*
X019038Y01852D01*
X019039Y018521D01*
X019039Y018523D01*
X01904Y018524D01*
X01904Y018524D01*
Y018525D01*
X019063D01*
X019061Y01852D01*
D02*
G37*
G36*
X020436Y021249D02*
X020351D01*
Y021216D01*
X020351Y021213D01*
Y021211D01*
X020351Y021209D01*
X020352Y021207D01*
Y021206D01*
X020352Y021206D01*
Y021205D01*
X020353Y021201D01*
X020354Y021199D01*
X020355Y021197D01*
X020356Y021196D01*
X020356Y021195D01*
X020357Y021194D01*
X020357Y021194D01*
X020359Y021192D01*
X020361Y021189D01*
X020365Y021185D01*
X020367Y021183D01*
X020368Y021182D01*
X020369Y021181D01*
X02037Y021181D01*
X020374Y021178D01*
X020378Y021175D01*
X020382Y021172D01*
X020386Y021169D01*
X02039Y021166D01*
X020393Y021164D01*
X020394Y021164D01*
X020395Y021163D01*
X020396Y021163D01*
X020396D01*
X020436Y021137D01*
Y021106D01*
X020384Y021139D01*
X020378Y021143D01*
X020373Y021146D01*
X020369Y02115D01*
X020365Y021153D01*
X020362Y021156D01*
X02036Y021158D01*
X020359Y021159D01*
X020358Y02116D01*
X020357Y021162D01*
X020355Y021164D01*
X020352Y021169D01*
X020351Y021172D01*
X020349Y021173D01*
X020349Y021174D01*
X020349Y021175D01*
X020348Y02117D01*
X020347Y021165D01*
X020346Y021161D01*
X020344Y021157D01*
X020343Y021153D01*
X020341Y02115D01*
X02034Y021147D01*
X020339Y021144D01*
X020337Y021142D01*
X020336Y02114D01*
X020334Y021138D01*
X020333Y021137D01*
X020333Y021136D01*
X020332Y021135D01*
X020331Y021135D01*
X020331Y021134D01*
X020328Y021132D01*
X020326Y02113D01*
X02032Y021127D01*
X020314Y021124D01*
X020308Y021123D01*
X020304Y021122D01*
X020302Y021121D01*
X0203D01*
X020298Y021121D01*
X020297D01*
X020297D01*
X020297D01*
X020291Y021121D01*
X020285Y021122D01*
X02028Y021123D01*
X020276Y021125D01*
X020273Y021127D01*
X02027Y021128D01*
X020268Y021129D01*
X020268Y021129D01*
X020268D01*
X020263Y021132D01*
X020259Y021136D01*
X020256Y021139D01*
X020254Y021143D01*
X020252Y021146D01*
X020251Y021148D01*
X02025Y02115D01*
X020249Y02115D01*
Y02115D01*
X020249Y021153D01*
X020248Y021156D01*
X020246Y021162D01*
X020246Y021169D01*
X020245Y021175D01*
X020244Y021181D01*
Y021183D01*
X020244Y021185D01*
Y021274D01*
X020436D01*
Y021249D01*
D02*
G37*
G36*
X02039Y021015D02*
X020436D01*
Y020992D01*
X02039D01*
Y020966D01*
X020368D01*
Y020992D01*
X020244D01*
Y021011D01*
X020368Y021099D01*
X02039D01*
Y021015D01*
D02*
G37*
G36*
X020382Y021841D02*
X020297Y021839D01*
X020298Y021807D01*
X020298Y021804D01*
X020298Y021801D01*
X020299Y021799D01*
X020299Y021798D01*
X020299Y021797D01*
X020299Y021796D01*
X020299Y021796D01*
X020301Y021792D01*
X020301Y02179D01*
X020302Y021788D01*
X020303Y021786D01*
X020304Y021785D01*
X020304Y021785D01*
X020304Y021785D01*
X020306Y021782D01*
X020308Y02178D01*
X020312Y021776D01*
X020314Y021774D01*
X020316Y021773D01*
X020317Y021772D01*
X020317Y021772D01*
X020321Y021769D01*
X020325Y021766D01*
X02033Y021763D01*
X020334Y02176D01*
X020338Y021758D01*
X020341Y021756D01*
X020342Y021755D01*
X020343Y021754D01*
X020344Y021754D01*
X020344Y021754D01*
X020384Y021729D01*
X020385Y021698D01*
X020332Y02173D01*
X020327Y021734D01*
X020322Y021737D01*
X020317Y021741D01*
X020313Y021744D01*
X020311Y021746D01*
X020308Y021749D01*
X020307Y02175D01*
X020306Y02175D01*
X020305Y021753D01*
X020303Y021755D01*
X020299Y02176D01*
X020298Y021762D01*
X020297Y021764D01*
X020297Y021765D01*
X020296Y021766D01*
X020296Y021761D01*
X020295Y021756D01*
X020294Y021752D01*
X020293Y021747D01*
X020291Y021744D01*
X02029Y02174D01*
X020288Y021737D01*
X020287Y021735D01*
X020285Y021732D01*
X020284Y02173D01*
X020283Y021728D01*
X020282Y021727D01*
X020281Y021726D01*
X02028Y021725D01*
X02028Y021725D01*
X02028Y021725D01*
X020277Y021722D01*
X020274Y02172D01*
X020268Y021717D01*
X020263Y021714D01*
X020257Y021712D01*
X020252Y021711D01*
X02025Y021711D01*
X020249Y021711D01*
X020247Y021711D01*
X020246Y021711D01*
X020246Y021711D01*
X020245Y021711D01*
X020239Y021711D01*
X020234Y021711D01*
X020229Y021713D01*
X020225Y021714D01*
X020221Y021716D01*
X020219Y021717D01*
X020217Y021718D01*
X020217Y021718D01*
X020216Y021718D01*
X020212Y021721D01*
X020208Y021725D01*
X020204Y021728D01*
X020202Y021731D01*
X0202Y021734D01*
X020199Y021737D01*
X020198Y021739D01*
X020198Y021739D01*
X020198Y021739D01*
X020197Y021742D01*
X020196Y021745D01*
X020194Y021751D01*
X020193Y021757D01*
X020192Y021763D01*
X020192Y021769D01*
X020192Y021772D01*
X020192Y021774D01*
X02019Y021863D01*
X020382Y021866D01*
X020382Y021841D01*
D02*
G37*
G36*
X020339Y021681D02*
X020343Y02168D01*
X020351Y021678D01*
X020358Y021675D01*
X02036Y021674D01*
X020363Y021672D01*
X020366Y02167D01*
X020368Y021669D01*
X02037Y021667D01*
X020371Y021666D01*
X020372Y021665D01*
X020373Y021664D01*
X020374Y021664D01*
X020374Y021664D01*
X020376Y02166D01*
X020379Y021657D01*
X020381Y021654D01*
X020383Y02165D01*
X020386Y021643D01*
X020387Y021637D01*
X020388Y021634D01*
X020389Y021631D01*
X020389Y021628D01*
X020389Y021626D01*
X020389Y021625D01*
X02039Y021622D01*
X020389Y021617D01*
X020389Y021612D01*
X020388Y021607D01*
X020387Y021603D01*
X020386Y021599D01*
X020384Y021595D01*
X020383Y021591D01*
X020381Y021588D01*
X02038Y021585D01*
X020378Y021583D01*
X020377Y021581D01*
X020376Y021579D01*
X020375Y021577D01*
X020374Y021576D01*
X020373Y021576D01*
X020373Y021575D01*
X02037Y021572D01*
X020366Y021569D01*
X020363Y021567D01*
X020359Y021564D01*
X020356Y021563D01*
X020352Y021561D01*
X020345Y021559D01*
X020342Y021558D01*
X02034Y021557D01*
X020337Y021557D01*
X020335Y021556D01*
X020333Y021556D01*
X020332Y021556D01*
X020331Y021556D01*
X020331Y021556D01*
X020324Y021556D01*
X020318Y021557D01*
X020313Y021559D01*
X020308Y02156D01*
X020305Y021562D01*
X020302Y021564D01*
X0203Y021565D01*
X0203Y021565D01*
X020295Y021569D01*
X020292Y021573D01*
X020289Y021577D01*
X020287Y021582D01*
X020285Y021586D01*
X020284Y021589D01*
X020283Y02159D01*
X020283Y02159D01*
X020283Y021591D01*
X020283Y021591D01*
X02028Y021587D01*
X020278Y021583D01*
X020275Y021579D01*
X020273Y021576D01*
X020271Y021574D01*
X020269Y021572D01*
X020268Y021572D01*
X020267Y021571D01*
X020263Y021569D01*
X020259Y021567D01*
X020256Y021566D01*
X020252Y021565D01*
X020249Y021564D01*
X020247Y021564D01*
X020245Y021564D01*
X020245Y021564D01*
X02024Y021564D01*
X020235Y021565D01*
X020231Y021566D01*
X020227Y021567D01*
X020224Y021569D01*
X020222Y02157D01*
X02022Y02157D01*
X02022Y021571D01*
X020216Y021573D01*
X020212Y021577D01*
X020209Y02158D01*
X020206Y021583D01*
X020204Y021586D01*
X020202Y021588D01*
X020201Y02159D01*
X020201Y02159D01*
X020201Y021591D01*
X020199Y021596D01*
X020197Y021601D01*
X020196Y021606D01*
X020195Y02161D01*
X020194Y021614D01*
X020194Y021617D01*
X020194Y021623D01*
X020194Y021627D01*
X020195Y021635D01*
X020197Y021641D01*
X0202Y021647D01*
X020201Y021649D01*
X020202Y021651D01*
X020203Y021653D01*
X020204Y021655D01*
X020205Y021656D01*
X020205Y021657D01*
X020206Y021657D01*
X020206Y021658D01*
X020211Y021663D01*
X020217Y021667D01*
X020223Y021671D01*
X020229Y021673D01*
X020234Y021675D01*
X020236Y021676D01*
X020238Y021677D01*
X02024Y021677D01*
X020241Y021677D01*
X020242Y021678D01*
X020242Y021678D01*
X020247Y021654D01*
X020241Y021653D01*
X020236Y021651D01*
X020231Y021649D01*
X020228Y021647D01*
X020225Y021645D01*
X020223Y021643D01*
X020222Y021642D01*
X020221Y021642D01*
X020219Y021638D01*
X020216Y021634D01*
X020215Y021631D01*
X020214Y021627D01*
X020214Y021624D01*
X020213Y021621D01*
X020213Y021619D01*
X020213Y021614D01*
X020215Y02161D01*
X020216Y021606D01*
X020218Y021603D01*
X020219Y0216D01*
X020221Y021598D01*
X020222Y021597D01*
X020222Y021597D01*
X020225Y021594D01*
X020229Y021591D01*
X020233Y02159D01*
X020236Y021589D01*
X020239Y021589D01*
X020241Y021588D01*
X020243Y021588D01*
X020243Y021588D01*
X020244Y021588D01*
X020247Y021588D01*
X020249Y021589D01*
X020254Y02159D01*
X020258Y021592D01*
X020262Y021595D01*
X020264Y021597D01*
X020266Y021599D01*
X020267Y0216D01*
X020267Y0216D01*
X020267Y021601D01*
X02027Y021605D01*
X020272Y02161D01*
X020273Y021615D01*
X020274Y021619D01*
X020274Y021622D01*
X020275Y021625D01*
X020275Y021629D01*
X020274Y02163D01*
X020274Y021632D01*
X020295Y021635D01*
X020294Y021631D01*
X020294Y021628D01*
X020293Y021625D01*
X020293Y021623D01*
X020293Y021621D01*
X020293Y021618D01*
X020294Y021612D01*
X020295Y021607D01*
X020297Y021602D01*
X020299Y021598D01*
X020301Y021595D01*
X020302Y021593D01*
X020303Y021592D01*
X020304Y021591D01*
X020308Y021588D01*
X020313Y021585D01*
X020317Y021583D01*
X020322Y021582D01*
X020325Y021582D01*
X020328Y021581D01*
X020329Y021581D01*
X02033Y021581D01*
X020331Y021581D01*
X020331Y021581D01*
X020337Y021582D01*
X020343Y021583D01*
X020347Y021585D01*
X020351Y021587D01*
X020355Y02159D01*
X020357Y021591D01*
X020359Y021593D01*
X020359Y021593D01*
X020363Y021598D01*
X020366Y021602D01*
X020368Y021607D01*
X020369Y021612D01*
X02037Y021616D01*
X02037Y021619D01*
X02037Y02162D01*
X02037Y021621D01*
X02037Y021626D01*
X020369Y021631D01*
X020367Y021635D01*
X020365Y021638D01*
X020364Y021641D01*
X020363Y021643D01*
X020361Y021645D01*
X020361Y021645D01*
X020357Y021648D01*
X020353Y021651D01*
X020348Y021653D01*
X020343Y021655D01*
X020339Y021657D01*
X020337Y021657D01*
X020335Y021657D01*
X020334Y021658D01*
X020333Y021658D01*
X020332Y021658D01*
X020332Y021658D01*
X020334Y021682D01*
X020339Y021681D01*
D02*
G37*
G36*
X020858Y026558D02*
X020773D01*
Y026525D01*
X020773Y026522D01*
Y02652D01*
X020773Y026518D01*
X020774Y026517D01*
Y026516D01*
X020774Y026515D01*
Y026515D01*
X020775Y02651D01*
X020776Y026509D01*
X020777Y026507D01*
X020778Y026505D01*
X020778Y026504D01*
X020779Y026504D01*
X020779Y026503D01*
X020781Y026501D01*
X020783Y026499D01*
X020787Y026495D01*
X020789Y026493D01*
X02079Y026491D01*
X020791Y026491D01*
X020792Y02649D01*
X020796Y026487D01*
X0208Y026484D01*
X020804Y026481D01*
X020808Y026478D01*
X020812Y026476D01*
X020815Y026474D01*
X020816Y026473D01*
X020817Y026473D01*
X020818Y026472D01*
X020818D01*
X020858Y026447D01*
Y026415D01*
X020806Y026448D01*
X0208Y026452D01*
X020795Y026456D01*
X020791Y026459D01*
X020787Y026462D01*
X020785Y026465D01*
X020782Y026467D01*
X020781Y026469D01*
X02078Y026469D01*
X020779Y026471D01*
X020777Y026474D01*
X020774Y026479D01*
X020773Y026481D01*
X020771Y026483D01*
X020771Y026484D01*
X020771Y026484D01*
X02077Y026479D01*
X020769Y026475D01*
X020768Y026471D01*
X020767Y026466D01*
X020765Y026463D01*
X020763Y02646D01*
X020762Y026456D01*
X020761Y026454D01*
X020759Y026451D01*
X020758Y026449D01*
X020757Y026448D01*
X020755Y026446D01*
X020755Y026445D01*
X020754Y026444D01*
X020753Y026444D01*
X020753Y026444D01*
X02075Y026441D01*
X020748Y026439D01*
X020742Y026436D01*
X020736Y026434D01*
X020731Y026432D01*
X020726Y026431D01*
X020724Y026431D01*
X020722D01*
X020721Y02643D01*
X020719D01*
X020719D01*
X020719D01*
X020713Y026431D01*
X020708Y026432D01*
X020703Y026433D01*
X020698Y026434D01*
X020695Y026436D01*
X020692Y026437D01*
X02069Y026438D01*
X02069Y026438D01*
X02069D01*
X020685Y026442D01*
X020681Y026445D01*
X020678Y026449D01*
X020676Y026452D01*
X020674Y026455D01*
X020673Y026458D01*
X020672Y026459D01*
X020672Y02646D01*
Y02646D01*
X020671Y026462D01*
X02067Y026465D01*
X020668Y026471D01*
X020668Y026478D01*
X020667Y026484D01*
X020667Y02649D01*
Y026492D01*
X020666Y026495D01*
Y026584D01*
X020858D01*
Y026558D01*
D02*
G37*
G36*
Y026276D02*
X020835D01*
Y026371D01*
X020831Y026368D01*
X020829Y026366D01*
X020827Y026364D01*
X020825Y026363D01*
X020824Y026362D01*
X020823Y026361D01*
X020823Y026361D01*
X020821Y02636D01*
X02082Y026358D01*
X020816Y026354D01*
X020812Y02635D01*
X020808Y026345D01*
X020804Y02634D01*
X020803Y026338D01*
X020801Y026337D01*
X0208Y026335D01*
X020799Y026334D01*
X020799Y026334D01*
X020798Y026333D01*
X020794Y026329D01*
X020791Y026325D01*
X020787Y026321D01*
X020784Y026317D01*
X020781Y026314D01*
X020778Y026311D01*
X020776Y026308D01*
X020774Y026306D01*
X020771Y026304D01*
X02077Y026302D01*
X020768Y026301D01*
X020767Y026299D01*
X020765Y026298D01*
X020765Y026297D01*
X02076Y026294D01*
X020756Y02629D01*
X020752Y026287D01*
X020749Y026285D01*
X020745Y026284D01*
X020743Y026282D01*
X020742Y026282D01*
X020741Y026282D01*
X020737Y02628D01*
X020733Y026279D01*
X020729Y026278D01*
X020726Y026277D01*
X020723Y026277D01*
X020721Y026277D01*
X020719D01*
X020719D01*
X020714Y026277D01*
X020711Y026278D01*
X020707Y026278D01*
X020703Y026279D01*
X020697Y026282D01*
X020691Y026285D01*
X020689Y026286D01*
X020687Y026288D01*
X020685Y026289D01*
X020684Y026291D01*
X020683Y026292D01*
X020681Y026292D01*
X020681Y026293D01*
X020681Y026293D01*
X020678Y026296D01*
X020676Y026299D01*
X020674Y026303D01*
X020672Y026307D01*
X020669Y026314D01*
X020667Y026321D01*
X020667Y026324D01*
X020666Y026327D01*
X020666Y02633D01*
X020666Y026332D01*
X020665Y026334D01*
Y026337D01*
X020666Y026342D01*
X020666Y026346D01*
X020667Y026351D01*
X020668Y026355D01*
X020669Y026359D01*
X02067Y026363D01*
X020671Y026366D01*
X020673Y026369D01*
X020674Y026372D01*
X020675Y026374D01*
X020676Y026376D01*
X020678Y026378D01*
X020678Y026379D01*
X020679Y02638D01*
X02068Y02638D01*
X02068Y026381D01*
X020683Y026383D01*
X020686Y026386D01*
X020689Y026388D01*
X020692Y02639D01*
X020699Y026394D01*
X020706Y026396D01*
X020709Y026397D01*
X020712Y026397D01*
X020714Y026398D01*
X020716Y026399D01*
X020718Y026399D01*
X02072D01*
X020721Y026399D01*
X020721D01*
X020723Y026375D01*
X020717Y026374D01*
X020711Y026373D01*
X020706Y026372D01*
X020703Y02637D01*
X020699Y026368D01*
X020697Y026366D01*
X020696Y026365D01*
X020695Y026365D01*
X020692Y026361D01*
X020689Y026356D01*
X020687Y026351D01*
X020686Y026347D01*
X020685Y026343D01*
X020685Y02634D01*
X020685Y026339D01*
Y026337D01*
X020685Y026332D01*
X020686Y026326D01*
X020688Y026322D01*
X020689Y026318D01*
X020691Y026315D01*
X020693Y026313D01*
X020694Y026312D01*
X020694Y026311D01*
X020698Y026308D01*
X020702Y026305D01*
X020706Y026303D01*
X02071Y026302D01*
X020713Y026301D01*
X020716Y026301D01*
X020717Y026301D01*
X020718D01*
X020718D01*
X020723Y026301D01*
X020728Y026302D01*
X020733Y026304D01*
X020737Y026306D01*
X020741Y026309D01*
X020744Y02631D01*
X020745Y026311D01*
X020746Y026312D01*
X020746Y026312D01*
X020747D01*
X02075Y026314D01*
X020753Y026317D01*
X020756Y02632D01*
X020759Y026323D01*
X020766Y02633D01*
X020773Y026337D01*
X020776Y026341D01*
X020778Y026344D01*
X020781Y026347D01*
X020783Y02635D01*
X020785Y026351D01*
X020786Y026353D01*
X020787Y026354D01*
X020787Y026355D01*
X020793Y026361D01*
X020799Y026368D01*
X020804Y026373D01*
X020808Y026377D01*
X020811Y026381D01*
X020814Y026383D01*
X020816Y026385D01*
X020816Y026385D01*
X020816D01*
X020821Y026389D01*
X020825Y026392D01*
X02083Y026395D01*
X020834Y026397D01*
X020837Y026399D01*
X020839Y0264D01*
X020841Y0264D01*
X020841Y026401D01*
X020842D01*
X020845Y026402D01*
X020847Y026402D01*
X02085Y026403D01*
X020853Y026403D01*
X020855Y026404D01*
X020857D01*
X020858D01*
X020858D01*
Y026276D01*
D02*
G37*
G36*
X020858Y02826D02*
X020773D01*
Y028228D01*
X020773Y028225D01*
Y028223D01*
X020773Y028221D01*
X020774Y028219D01*
Y028218D01*
X020774Y028218D01*
Y028217D01*
X020775Y028213D01*
X020776Y028211D01*
X020777Y028209D01*
X020778Y028208D01*
X020778Y028206D01*
X020779Y028206D01*
X020779Y028206D01*
X020781Y028203D01*
X020783Y028201D01*
X020787Y028197D01*
X020789Y028195D01*
X02079Y028194D01*
X020791Y028193D01*
X020792Y028193D01*
X020796Y02819D01*
X0208Y028187D01*
X020804Y028184D01*
X020808Y028181D01*
X020812Y028178D01*
X020815Y028176D01*
X020816Y028175D01*
X020817Y028175D01*
X020818Y028174D01*
X020818D01*
X020858Y028149D01*
Y028118D01*
X020806Y028151D01*
X0208Y028154D01*
X020795Y028158D01*
X020791Y028162D01*
X020787Y028165D01*
X020785Y028167D01*
X020782Y02817D01*
X020781Y028171D01*
X02078Y028172D01*
X020779Y028174D01*
X020777Y028176D01*
X020774Y028181D01*
X020773Y028183D01*
X020771Y028185D01*
X020771Y028186D01*
X020771Y028187D01*
X02077Y028182D01*
X020769Y028177D01*
X020768Y028173D01*
X020767Y028169D01*
X020765Y028165D01*
X020763Y028162D01*
X020762Y028159D01*
X020761Y028156D01*
X020759Y028154D01*
X020758Y028152D01*
X020757Y02815D01*
X020755Y028149D01*
X020755Y028147D01*
X020754Y028147D01*
X020753Y028146D01*
X020753Y028146D01*
X02075Y028144D01*
X020748Y028142D01*
X020742Y028138D01*
X020736Y028136D01*
X020731Y028134D01*
X020726Y028133D01*
X020724Y028133D01*
X020722D01*
X020721Y028133D01*
X020719D01*
X020719D01*
X020719D01*
X020713Y028133D01*
X020708Y028134D01*
X020703Y028135D01*
X020698Y028137D01*
X020695Y028138D01*
X020692Y028139D01*
X02069Y028141D01*
X02069Y028141D01*
X02069D01*
X020685Y028144D01*
X020681Y028147D01*
X020678Y028151D01*
X020676Y028154D01*
X020674Y028157D01*
X020673Y02816D01*
X020672Y028162D01*
X020672Y028162D01*
Y028162D01*
X020671Y028165D01*
X02067Y028168D01*
X020668Y028174D01*
X020668Y02818D01*
X020667Y028187D01*
X020667Y028192D01*
Y028195D01*
X020666Y028197D01*
Y028286D01*
X020858D01*
Y02826D01*
D02*
G37*
G36*
X020735Y02808D02*
X020733Y028076D01*
X020731Y028072D01*
X020729Y028068D01*
X020727Y028065D01*
X020726Y028062D01*
X020725Y02806D01*
X020724Y02806D01*
Y02806D01*
X020721Y028055D01*
X020718Y028051D01*
X020716Y028047D01*
X020713Y028044D01*
X020711Y028041D01*
X020709Y028039D01*
X020708Y028038D01*
X020708Y028037D01*
X020858D01*
Y028014D01*
X020665D01*
Y028029D01*
X02067Y028032D01*
X020675Y028035D01*
X020679Y028039D01*
X020683Y028042D01*
X020686Y028045D01*
X020689Y028048D01*
X02069Y028049D01*
X020691Y02805D01*
X020691Y02805D01*
X020691Y02805D01*
X020696Y028056D01*
X0207Y028062D01*
X020704Y028067D01*
X020707Y028073D01*
X02071Y028078D01*
X020711Y02808D01*
X020712Y028081D01*
X020713Y028083D01*
X020713Y028084D01*
X020714Y028084D01*
Y028085D01*
X020736D01*
X020735Y02808D01*
D02*
G37*
G36*
X011706Y020951D02*
X011714Y020951D01*
X011721Y02095D01*
X011727Y020949D01*
X011733Y020948D01*
X011738Y020947D01*
X011743Y020946D01*
X011748Y020945D01*
X011752Y020944D01*
X011755Y020943D01*
X011757Y020942D01*
X011759Y020942D01*
X011761Y020941D01*
X011762Y020941D01*
X011762D01*
X011772Y020936D01*
X01178Y02093D01*
X011786Y020924D01*
X011792Y020918D01*
X011797Y020913D01*
X0118Y020908D01*
X011801Y020907D01*
X011802Y020905D01*
X011803Y020905D01*
Y020904D01*
X011807Y020894D01*
X011811Y020883D01*
X011813Y020872D01*
X011815Y020861D01*
X011815Y020857D01*
X011816Y020852D01*
X011816Y020848D01*
Y020845D01*
X011816Y020842D01*
Y020838D01*
X011816Y020823D01*
X011815Y020816D01*
X011814Y02081D01*
X011813Y020804D01*
X011811Y020798D01*
X01181Y020793D01*
X011809Y020789D01*
X011807Y020785D01*
X011806Y020781D01*
X011804Y020778D01*
X011803Y020776D01*
X011802Y020773D01*
X011801Y020772D01*
X011801Y020771D01*
Y020771D01*
X011794Y020762D01*
X011787Y020754D01*
X011781Y020749D01*
X011774Y020744D01*
X011768Y02074D01*
X011764Y020737D01*
X011762Y020736D01*
X011761Y020736D01*
X01176Y020735D01*
X011759D01*
X011754Y020734D01*
X011749Y020732D01*
X011738Y020729D01*
X011726Y020728D01*
X011715Y020726D01*
X01171Y020726D01*
X011705Y020726D01*
X011701D01*
X011697Y020725D01*
X011694D01*
X011692D01*
X01169D01*
X01169D01*
X011524D01*
Y020763D01*
X01169D01*
X0117D01*
X011709Y020764D01*
X011717Y020765D01*
X011724Y020766D01*
X011731Y020768D01*
X011737Y020769D01*
X011742Y020771D01*
X011747Y020772D01*
X011751Y020774D01*
X011754Y020776D01*
X011757Y020777D01*
X011759Y020778D01*
X011761Y02078D01*
X011762Y020781D01*
X011763Y020781D01*
X011763Y020781D01*
X011767Y020785D01*
X011769Y020789D01*
X011774Y020798D01*
X011777Y020808D01*
X011779Y020818D01*
X011781Y020827D01*
X011781Y020831D01*
Y020835D01*
X011782Y020837D01*
Y020841D01*
X011781Y02085D01*
X01178Y020858D01*
X011779Y020865D01*
X011777Y020871D01*
X011775Y020876D01*
X011774Y02088D01*
X011773Y020882D01*
X011772Y020883D01*
X011769Y020889D01*
X011764Y020894D01*
X011759Y020898D01*
X011755Y020901D01*
X011751Y020903D01*
X011748Y020905D01*
X011746Y020906D01*
X011745Y020907D01*
X011742Y020908D01*
X011738Y020909D01*
X011729Y02091D01*
X01172Y020912D01*
X011711Y020912D01*
X011703Y020913D01*
X011699D01*
X011696Y020913D01*
X011694D01*
X011692D01*
X01169D01*
X01169D01*
X011524D01*
Y020951D01*
X01169D01*
X011698D01*
X011706Y020951D01*
D02*
G37*
G36*
X011742Y020563D02*
X011811D01*
Y020528D01*
X011742D01*
Y020489D01*
X01171D01*
Y020528D01*
X011524D01*
Y020556D01*
X01171Y020688D01*
X011742D01*
Y020563D01*
D02*
G37*
G36*
X014986Y024813D02*
X014901D01*
Y02478D01*
X014901Y024777D01*
Y024775D01*
X014902Y024773D01*
X014902Y024772D01*
Y024771D01*
X014902Y02477D01*
Y02477D01*
X014904Y024766D01*
X014905Y024764D01*
X014905Y024762D01*
X014906Y02476D01*
X014907Y024759D01*
X014907Y024759D01*
X014907Y024758D01*
X014909Y024756D01*
X014911Y024754D01*
X014915Y02475D01*
X014917Y024748D01*
X014919Y024746D01*
X01492Y024746D01*
X01492Y024745D01*
X014924Y024743D01*
X014928Y024739D01*
X014933Y024736D01*
X014937Y024733D01*
X014941Y024731D01*
X014944Y024729D01*
X014945Y024728D01*
X014946Y024728D01*
X014946Y024727D01*
X014946D01*
X014986Y024702D01*
Y02467D01*
X014934Y024703D01*
X014929Y024707D01*
X014924Y024711D01*
X01492Y024714D01*
X014916Y024717D01*
X014913Y02472D01*
X014911Y024722D01*
X014909Y024724D01*
X014909Y024724D01*
X014907Y024726D01*
X014905Y024729D01*
X014902Y024734D01*
X014901Y024736D01*
X0149Y024738D01*
X014899Y024739D01*
X014899Y024739D01*
X014898Y024735D01*
X014897Y02473D01*
X014896Y024726D01*
X014895Y024721D01*
X014893Y024718D01*
X014892Y024715D01*
X01489Y024712D01*
X014889Y024709D01*
X014887Y024707D01*
X014886Y024704D01*
X014885Y024703D01*
X014884Y024701D01*
X014883Y0247D01*
X014882Y024699D01*
X014882Y024699D01*
X014882Y024699D01*
X014879Y024697D01*
X014876Y024694D01*
X01487Y024691D01*
X014864Y024689D01*
X014859Y024687D01*
X014854Y024686D01*
X014852Y024686D01*
X01485D01*
X014849Y024685D01*
X014848D01*
X014847D01*
X014847D01*
X014841Y024686D01*
X014836Y024687D01*
X014831Y024688D01*
X014827Y024689D01*
X014823Y024691D01*
X01482Y024692D01*
X014819Y024693D01*
X014818Y024694D01*
X014818D01*
X014814Y024697D01*
X01481Y0247D01*
X014806Y024704D01*
X014804Y024707D01*
X014802Y02471D01*
X014801Y024713D01*
X0148Y024714D01*
X0148Y024715D01*
Y024715D01*
X014799Y024717D01*
X014798Y02472D01*
X014797Y024726D01*
X014796Y024733D01*
X014795Y024739D01*
X014795Y024745D01*
Y024748D01*
X014795Y02475D01*
Y024839D01*
X014986D01*
Y024813D01*
D02*
G37*
G36*
X014863Y024633D02*
X014861Y024629D01*
X014859Y024625D01*
X014857Y024621D01*
X014856Y024618D01*
X014854Y024615D01*
X014853Y024613D01*
X014853Y024613D01*
Y024613D01*
X01485Y024608D01*
X014847Y024603D01*
X014844Y024599D01*
X014841Y024596D01*
X014839Y024594D01*
X014838Y024592D01*
X014837Y02459D01*
X014836Y02459D01*
X014986D01*
Y024567D01*
X014794D01*
Y024582D01*
X014798Y024585D01*
X014803Y024588D01*
X014807Y024591D01*
X014811Y024595D01*
X014815Y024598D01*
X014817Y0246D01*
X014818Y024602D01*
X014819Y024602D01*
X014819Y024603D01*
X01482Y024603D01*
X014824Y024609D01*
X014829Y024615D01*
X014833Y02462D01*
X014836Y024626D01*
X014838Y02463D01*
X014839Y024632D01*
X01484Y024634D01*
X014841Y024635D01*
X014841Y024636D01*
X014842Y024637D01*
Y024637D01*
X014865D01*
X014863Y024633D01*
D02*
G37*
G36*
X01494Y024431D02*
X014986D01*
Y024407D01*
X01494D01*
Y024381D01*
X014919D01*
Y024407D01*
X014795D01*
Y024426D01*
X014919Y024514D01*
X01494D01*
Y024431D01*
D02*
G37*
G36*
X015956Y026053D02*
X015871D01*
Y02602D01*
X015871Y026017D01*
Y026015D01*
X015872Y026013D01*
X015872Y026011D01*
Y02601D01*
X015872Y02601D01*
Y026009D01*
X015874Y026005D01*
X015875Y026003D01*
X015875Y026001D01*
X015876Y026D01*
X015877Y025999D01*
X015877Y025998D01*
X015877Y025998D01*
X015879Y025996D01*
X015881Y025993D01*
X015885Y025989D01*
X015887Y025987D01*
X015889Y025986D01*
X01589Y025985D01*
X01589Y025985D01*
X015894Y025982D01*
X015898Y025979D01*
X015903Y025976D01*
X015907Y025973D01*
X015911Y02597D01*
X015914Y025968D01*
X015915Y025968D01*
X015916Y025967D01*
X015916Y025966D01*
X015916D01*
X015956Y025941D01*
Y02591D01*
X015904Y025943D01*
X015899Y025947D01*
X015894Y02595D01*
X01589Y025954D01*
X015886Y025957D01*
X015883Y02596D01*
X015881Y025962D01*
X015879Y025963D01*
X015879Y025964D01*
X015877Y025966D01*
X015875Y025968D01*
X015872Y025973D01*
X015871Y025976D01*
X01587Y025977D01*
X015869Y025978D01*
X015869Y025979D01*
X015868Y025974D01*
X015867Y025969D01*
X015866Y025965D01*
X015865Y025961D01*
X015863Y025957D01*
X015862Y025954D01*
X01586Y025951D01*
X015859Y025948D01*
X015857Y025946D01*
X015856Y025944D01*
X015855Y025942D01*
X015854Y025941D01*
X015853Y02594D01*
X015852Y025939D01*
X015852Y025938D01*
X015852Y025938D01*
X015849Y025936D01*
X015846Y025934D01*
X01584Y02593D01*
X015834Y025928D01*
X015829Y025927D01*
X015824Y025925D01*
X015822Y025925D01*
X01582D01*
X015819Y025925D01*
X015818D01*
X015817D01*
X015817D01*
X015811Y025925D01*
X015806Y025926D01*
X015801Y025927D01*
X015797Y025929D01*
X015793Y02593D01*
X01579Y025932D01*
X015789Y025933D01*
X015788Y025933D01*
X015788D01*
X015784Y025936D01*
X01578Y02594D01*
X015776Y025943D01*
X015774Y025947D01*
X015772Y02595D01*
X015771Y025952D01*
X01577Y025954D01*
X01577Y025954D01*
Y025954D01*
X015769Y025957D01*
X015768Y02596D01*
X015767Y025966D01*
X015766Y025973D01*
X015765Y025979D01*
X015765Y025984D01*
Y025987D01*
X015765Y025989D01*
Y026078D01*
X015956D01*
Y026053D01*
D02*
G37*
G36*
X015833Y025873D02*
X015831Y025868D01*
X015829Y025864D01*
X015827Y02586D01*
X015826Y025857D01*
X015824Y025854D01*
X015823Y025853D01*
X015823Y025852D01*
Y025852D01*
X01582Y025847D01*
X015817Y025843D01*
X015814Y025839D01*
X015811Y025836D01*
X015809Y025833D01*
X015808Y025831D01*
X015807Y02583D01*
X015806Y02583D01*
X015956D01*
Y025806D01*
X015764D01*
Y025821D01*
X015768Y025824D01*
X015773Y025827D01*
X015777Y025831D01*
X015781Y025834D01*
X015785Y025837D01*
X015787Y02584D01*
X015788Y025841D01*
X015789Y025842D01*
X015789Y025842D01*
X01579Y025842D01*
X015794Y025848D01*
X015799Y025854D01*
X015803Y02586D01*
X015806Y025865D01*
X015808Y02587D01*
X015809Y025872D01*
X01581Y025873D01*
X015811Y025875D01*
X015811Y025876D01*
X015812Y025876D01*
Y025877D01*
X015835D01*
X015833Y025873D01*
D02*
G37*
G36*
X015956Y025622D02*
X015934D01*
Y025716D01*
X015929Y025713D01*
X015927Y025711D01*
X015925Y02571D01*
X015923Y025709D01*
X015922Y025707D01*
X015921Y025707D01*
X015921Y025706D01*
X01592Y025705D01*
X015918Y025703D01*
X015915Y025699D01*
X015911Y025695D01*
X015906Y02569D01*
X015903Y025686D01*
X015901Y025684D01*
X015899Y025682D01*
X015898Y025681D01*
X015898Y02568D01*
X015897Y025679D01*
X015897Y025679D01*
X015893Y025675D01*
X015889Y02567D01*
X015886Y025666D01*
X015883Y025663D01*
X01588Y025659D01*
X015877Y025657D01*
X015874Y025654D01*
X015872Y025652D01*
X01587Y025649D01*
X015868Y025648D01*
X015867Y025646D01*
X015865Y025645D01*
X015864Y025643D01*
X015863Y025643D01*
X015858Y025639D01*
X015854Y025636D01*
X01585Y025633D01*
X015847Y025631D01*
X015844Y025629D01*
X015842Y025628D01*
X01584Y025627D01*
X01584Y025627D01*
X015835Y025625D01*
X015831Y025624D01*
X015827Y025623D01*
X015824Y025623D01*
X015821Y025622D01*
X015819Y025622D01*
X015817D01*
X015817D01*
X015813Y025622D01*
X015809Y025623D01*
X015805Y025624D01*
X015802Y025625D01*
X015795Y025627D01*
X01579Y02563D01*
X015787Y025632D01*
X015785Y025633D01*
X015783Y025635D01*
X015782Y025636D01*
X015781Y025637D01*
X01578Y025638D01*
X01578Y025638D01*
X015779Y025639D01*
X015776Y025642D01*
X015774Y025645D01*
X015772Y025648D01*
X01577Y025652D01*
X015768Y025659D01*
X015766Y025666D01*
X015765Y02567D01*
X015765Y025673D01*
X015764Y025675D01*
X015764Y025678D01*
X015764Y02568D01*
Y025682D01*
X015764Y025687D01*
X015764Y025692D01*
X015765Y025696D01*
X015766Y025701D01*
X015767Y025704D01*
X015768Y025708D01*
X01577Y025711D01*
X015771Y025714D01*
X015772Y025717D01*
X015774Y025719D01*
X015775Y025721D01*
X015776Y025723D01*
X015777Y025724D01*
X015778Y025725D01*
X015778Y025726D01*
X015778Y025726D01*
X015781Y025729D01*
X015784Y025731D01*
X015787Y025734D01*
X015791Y025736D01*
X015797Y025739D01*
X015804Y025741D01*
X015807Y025742D01*
X01581Y025743D01*
X015812Y025743D01*
X015815Y025744D01*
X015817Y025744D01*
X015818D01*
X015819Y025745D01*
X015819D01*
X015822Y025721D01*
X015815Y02572D01*
X01581Y025719D01*
X015805Y025717D01*
X015801Y025715D01*
X015798Y025714D01*
X015795Y025712D01*
X015794Y025711D01*
X015793Y02571D01*
X01579Y025706D01*
X015788Y025702D01*
X015786Y025697D01*
X015785Y025693D01*
X015784Y025689D01*
X015783Y025686D01*
X015783Y025684D01*
Y025683D01*
X015783Y025677D01*
X015785Y025672D01*
X015786Y025667D01*
X015788Y025663D01*
X01579Y02566D01*
X015791Y025658D01*
X015792Y025657D01*
X015793Y025657D01*
X015797Y025653D01*
X015801Y025651D01*
X015804Y025649D01*
X015808Y025648D01*
X015811Y025647D01*
X015814Y025647D01*
X015816Y025646D01*
X015816D01*
X015816D01*
X015821Y025647D01*
X015827Y025648D01*
X015831Y02565D01*
X015836Y025652D01*
X015839Y025654D01*
X015842Y025656D01*
X015844Y025657D01*
X015844Y025657D01*
X015845Y025658D01*
X015845D01*
X015848Y02566D01*
X015851Y025663D01*
X015854Y025666D01*
X015858Y025669D01*
X015864Y025676D01*
X015871Y025683D01*
X015874Y025686D01*
X015877Y025689D01*
X015879Y025693D01*
X015881Y025695D01*
X015883Y025697D01*
X015885Y025699D01*
X015885Y0257D01*
X015886Y0257D01*
X015891Y025707D01*
X015897Y025713D01*
X015902Y025719D01*
X015906Y025723D01*
X01591Y025726D01*
X015912Y025729D01*
X015914Y02573D01*
X015914Y025731D01*
X015914D01*
X015919Y025735D01*
X015924Y025738D01*
X015928Y02574D01*
X015932Y025743D01*
X015935Y025744D01*
X015938Y025745D01*
X015939Y025746D01*
X01594Y025746D01*
X01594D01*
X015943Y025747D01*
X015946Y025748D01*
X015948Y025748D01*
X015951Y025749D01*
X015953Y025749D01*
X015955D01*
X015956D01*
X015956D01*
Y025622D01*
D02*
G37*
G36*
X025109Y026874D02*
X025118Y026873D01*
X025127Y026871D01*
X025131Y02687D01*
X025135Y026869D01*
X025138Y026869D01*
X025141Y026867D01*
X025144Y026867D01*
X025146Y026866D01*
X025148Y026865D01*
X025149Y026865D01*
X02515Y026864D01*
X02515D01*
X025158Y02686D01*
X025166Y026856D01*
X025172Y026851D01*
X025175Y026848D01*
X025177Y026846D01*
X02518Y026844D01*
X025181Y026841D01*
X025183Y026839D01*
X025184Y026838D01*
X025185Y026837D01*
X025186Y026836D01*
X025186Y026835D01*
X025187Y026835D01*
X025189Y026831D01*
X025191Y026827D01*
X025194Y026819D01*
X025196Y02681D01*
X025198Y026802D01*
X025198Y026799D01*
X025199Y026795D01*
X025199Y026792D01*
Y02679D01*
X025199Y026787D01*
Y026784D01*
X025199Y026779D01*
X025198Y026774D01*
X025198Y026769D01*
X025197Y026764D01*
X025195Y026759D01*
X025194Y026755D01*
X025193Y026751D01*
X025191Y026748D01*
X025189Y026745D01*
X025188Y026742D01*
X025187Y026739D01*
X025185Y026737D01*
X025184Y026736D01*
X025184Y026735D01*
X025183Y026734D01*
X025183Y026734D01*
X02518Y02673D01*
X025176Y026726D01*
X025172Y026723D01*
X025168Y02672D01*
X025161Y026715D01*
X025153Y026712D01*
X025149Y02671D01*
X025146Y026708D01*
X025143Y026707D01*
X02514Y026707D01*
X025138Y026706D01*
X025137Y026705D01*
X025135Y026705D01*
X025135D01*
X025129Y02673D01*
X025133Y026731D01*
X025137Y026733D01*
X025141Y026734D01*
X025145Y026736D01*
X025148Y026737D01*
X025151Y026739D01*
X025154Y026741D01*
X025156Y026743D01*
X025158Y026744D01*
X02516Y026746D01*
X025162Y026747D01*
X025163Y026748D01*
X025164Y026749D01*
X025165Y02675D01*
X025165Y02675D01*
X025165Y026751D01*
X025168Y026753D01*
X025169Y026756D01*
X025172Y026762D01*
X025175Y026768D01*
X025176Y026774D01*
X025177Y026779D01*
X025177Y026781D01*
Y026783D01*
X025178Y026785D01*
Y026787D01*
X025177Y026793D01*
X025176Y026799D01*
X025175Y026805D01*
X025173Y02681D01*
X025171Y026813D01*
X025171Y026815D01*
X02517Y026817D01*
X02517Y026818D01*
X025169Y026818D01*
X025169Y026819D01*
Y026819D01*
X025165Y026825D01*
X025161Y026829D01*
X025156Y026833D01*
X025152Y026836D01*
X025148Y026838D01*
X025144Y02684D01*
X025143Y026841D01*
X025142Y026841D01*
X025142Y026841D01*
X025141D01*
X025134Y026844D01*
X025127Y026845D01*
X02512Y026847D01*
X025113Y026848D01*
X02511Y026848D01*
X025107Y026848D01*
X025105D01*
X025103Y026848D01*
X025101D01*
X0251D01*
X025099D01*
X025099D01*
X025091Y026848D01*
X025085Y026848D01*
X025079Y026846D01*
X025073Y026845D01*
X025068Y026844D01*
X025066Y026844D01*
X025065Y026843D01*
X025063Y026843D01*
X025063Y026843D01*
X025062Y026843D01*
X025062D01*
X025055Y02684D01*
X02505Y026837D01*
X025045Y026833D01*
X025041Y02683D01*
X025037Y026827D01*
X025035Y026824D01*
X025034Y026822D01*
X025033Y026822D01*
Y026822D01*
X02503Y026816D01*
X025027Y02681D01*
X025025Y026803D01*
X025024Y026798D01*
X025023Y026792D01*
X025023Y02679D01*
Y026788D01*
X025022Y026787D01*
Y026785D01*
X025023Y026778D01*
X025024Y026771D01*
X025025Y026766D01*
X025027Y026761D01*
X025029Y026758D01*
X02503Y026755D01*
X025032Y026753D01*
X025032Y026753D01*
X025036Y026748D01*
X025041Y026744D01*
X025046Y026741D01*
X025051Y026738D01*
X025055Y026736D01*
X025058Y026735D01*
X025059Y026735D01*
X025061Y026734D01*
X025062Y026733D01*
X025062Y026733D01*
X025063D01*
X025057Y026708D01*
X025052Y02671D01*
X025047Y026712D01*
X025043Y026714D01*
X025039Y026716D01*
X025035Y026718D01*
X025032Y02672D01*
X025029Y026723D01*
X025026Y026725D01*
X025024Y026727D01*
X025022Y026729D01*
X02502Y026731D01*
X025018Y026732D01*
X025017Y026734D01*
X025016Y026735D01*
X025016Y026735D01*
X025016Y026736D01*
X025013Y026739D01*
X025011Y026743D01*
X025009Y026747D01*
X025007Y026751D01*
X025004Y02676D01*
X025003Y026767D01*
X025002Y026771D01*
X025002Y026774D01*
X025001Y026777D01*
X025001Y026779D01*
X025001Y026781D01*
Y026784D01*
X025001Y026793D01*
X025003Y026802D01*
X025004Y02681D01*
X025006Y026813D01*
X025007Y026817D01*
X025008Y02682D01*
X025009Y026823D01*
X02501Y026825D01*
X025011Y026827D01*
X025011Y026828D01*
X025012Y02683D01*
X025012Y02683D01*
X025012Y026831D01*
X025017Y026838D01*
X025023Y026844D01*
X025028Y02685D01*
X025034Y026855D01*
X025039Y026858D01*
X025041Y02686D01*
X025043Y026861D01*
X025044Y026862D01*
X025045Y026862D01*
X025046Y026863D01*
X025047Y026863D01*
X025055Y026867D01*
X025064Y02687D01*
X025073Y026872D01*
X025081Y026873D01*
X025084Y026874D01*
X025088Y026874D01*
X025091Y026874D01*
X025094D01*
X025096Y026874D01*
X025097D01*
X025098D01*
X025099D01*
X025109Y026874D01*
D02*
G37*
G36*
X025073Y026661D02*
X025071Y026657D01*
X025069Y026653D01*
X025067Y026649D01*
X025065Y026646D01*
X025064Y026643D01*
X025063Y026641D01*
X025062Y026641D01*
Y026641D01*
X025059Y026636D01*
X025056Y026631D01*
X025053Y026627D01*
X025051Y026624D01*
X025049Y026621D01*
X025047Y02662D01*
X025046Y026618D01*
X025046Y026618D01*
X025196D01*
Y026595D01*
X025003D01*
Y02661D01*
X025008Y026613D01*
X025012Y026616D01*
X025017Y026619D01*
X025021Y026623D01*
X025024Y026626D01*
X025027Y026628D01*
X025028Y02663D01*
X025029Y02663D01*
X025029Y026631D01*
X025029Y026631D01*
X025034Y026637D01*
X025038Y026643D01*
X025042Y026648D01*
X025045Y026654D01*
X025048Y026658D01*
X025049Y02666D01*
X02505Y026662D01*
X025051Y026663D01*
X025051Y026664D01*
X025052Y026665D01*
Y026665D01*
X025074D01*
X025073Y026661D01*
D02*
G37*
G36*
Y026512D02*
X025071Y026508D01*
X025069Y026504D01*
X025067Y0265D01*
X025065Y026497D01*
X025064Y026494D01*
X025063Y026492D01*
X025062Y026492D01*
Y026492D01*
X025059Y026487D01*
X025056Y026482D01*
X025053Y026478D01*
X025051Y026475D01*
X025049Y026472D01*
X025047Y026471D01*
X025046Y026469D01*
X025046Y026469D01*
X025196D01*
Y026446D01*
X025003D01*
Y026461D01*
X025008Y026464D01*
X025012Y026467D01*
X025017Y02647D01*
X025021Y026474D01*
X025024Y026477D01*
X025027Y026479D01*
X025028Y026481D01*
X025029Y026481D01*
X025029Y026482D01*
X025029Y026482D01*
X025034Y026488D01*
X025038Y026494D01*
X025042Y026499D01*
X025045Y026505D01*
X025048Y026509D01*
X025049Y026511D01*
X02505Y026513D01*
X025051Y026514D01*
X025051Y026515D01*
X025052Y026516D01*
Y026516D01*
X025074D01*
X025073Y026512D01*
D02*
G37*
G36*
X015399Y024908D02*
X015408Y024907D01*
X015417Y024906D01*
X015421Y024904D01*
X015425Y024904D01*
X015428Y024903D01*
X015431Y024902D01*
X015434Y024901D01*
X015436Y0249D01*
X015438Y024899D01*
X015439Y024899D01*
X01544Y024899D01*
X01544D01*
X015448Y024894D01*
X015456Y02489D01*
X015462Y024885D01*
X015465Y024882D01*
X015467Y02488D01*
X015469Y024878D01*
X015471Y024876D01*
X015473Y024874D01*
X015474Y024872D01*
X015475Y024871D01*
X015476Y02487D01*
X015476Y024869D01*
X015477Y024869D01*
X015479Y024865D01*
X015481Y024861D01*
X015484Y024853D01*
X015486Y024845D01*
X015488Y024837D01*
X015488Y024833D01*
X015489Y024829D01*
X015489Y024826D01*
Y024824D01*
X015489Y024822D01*
Y024819D01*
X015489Y024813D01*
X015488Y024808D01*
X015488Y024803D01*
X015487Y024798D01*
X015485Y024794D01*
X015484Y024789D01*
X015483Y024786D01*
X015481Y024782D01*
X015479Y024779D01*
X015478Y024776D01*
X015477Y024774D01*
X015475Y024771D01*
X015474Y02477D01*
X015474Y024769D01*
X015473Y024768D01*
X015473Y024768D01*
X015469Y024764D01*
X015466Y024761D01*
X015462Y024758D01*
X015458Y024755D01*
X015451Y02475D01*
X015443Y024746D01*
X015439Y024744D01*
X015436Y024743D01*
X015433Y024742D01*
X01543Y024741D01*
X015428Y02474D01*
X015427Y024739D01*
X015425Y024739D01*
X015425D01*
X015419Y024765D01*
X015423Y024766D01*
X015427Y024767D01*
X015431Y024768D01*
X015435Y02477D01*
X015438Y024771D01*
X015441Y024773D01*
X015444Y024775D01*
X015446Y024777D01*
X015448Y024778D01*
X01545Y02478D01*
X015452Y024781D01*
X015453Y024782D01*
X015454Y024783D01*
X015455Y024784D01*
X015455Y024784D01*
X015455Y024785D01*
X015458Y024788D01*
X015459Y024791D01*
X015462Y024797D01*
X015465Y024802D01*
X015466Y024808D01*
X015467Y024813D01*
X015467Y024815D01*
Y024817D01*
X015468Y024819D01*
Y024821D01*
X015467Y024827D01*
X015466Y024833D01*
X015465Y024839D01*
X015463Y024844D01*
X015461Y024848D01*
X015461Y024849D01*
X01546Y024851D01*
X01546Y024852D01*
X015459Y024853D01*
X015459Y024853D01*
Y024853D01*
X015455Y024859D01*
X015451Y024863D01*
X015446Y024867D01*
X015442Y02487D01*
X015438Y024873D01*
X015434Y024874D01*
X015433Y024875D01*
X015432Y024875D01*
X015432Y024876D01*
X015431D01*
X015424Y024878D01*
X015417Y02488D01*
X01541Y024881D01*
X015403Y024882D01*
X0154Y024882D01*
X015397Y024882D01*
X015395D01*
X015393Y024883D01*
X015391D01*
X01539D01*
X015389D01*
X015389D01*
X015381Y024882D01*
X015375Y024882D01*
X015369Y024881D01*
X015363Y02488D01*
X015358Y024879D01*
X015356Y024878D01*
X015355Y024878D01*
X015353Y024877D01*
X015353Y024877D01*
X015352Y024877D01*
X015352D01*
X015345Y024874D01*
X01534Y024871D01*
X015335Y024868D01*
X015331Y024864D01*
X015327Y024861D01*
X015325Y024858D01*
X015324Y024857D01*
X015323Y024856D01*
Y024856D01*
X01532Y02485D01*
X015317Y024844D01*
X015315Y024838D01*
X015314Y024832D01*
X015313Y024827D01*
X015313Y024824D01*
Y024822D01*
X015312Y024821D01*
Y024819D01*
X015313Y024812D01*
X015314Y024806D01*
X015315Y0248D01*
X015317Y024796D01*
X015319Y024792D01*
X01532Y024789D01*
X015322Y024788D01*
X015322Y024787D01*
X015326Y024783D01*
X015331Y024778D01*
X015336Y024775D01*
X015341Y024772D01*
X015345Y02477D01*
X015348Y024769D01*
X015349Y024769D01*
X015351Y024768D01*
X015352Y024768D01*
X015352Y024767D01*
X015353D01*
X015347Y024742D01*
X015342Y024744D01*
X015337Y024746D01*
X015333Y024748D01*
X015329Y02475D01*
X015325Y024752D01*
X015322Y024755D01*
X015319Y024757D01*
X015316Y024759D01*
X015314Y024761D01*
X015312Y024763D01*
X01531Y024765D01*
X015308Y024766D01*
X015307Y024768D01*
X015306Y024769D01*
X015306Y02477D01*
X015306Y02477D01*
X015303Y024774D01*
X015301Y024778D01*
X015299Y024781D01*
X015297Y024786D01*
X015294Y024794D01*
X015293Y024801D01*
X015292Y024805D01*
X015292Y024808D01*
X015291Y024811D01*
X015291Y024814D01*
X015291Y024816D01*
Y024818D01*
X015291Y024827D01*
X015293Y024836D01*
X015294Y024844D01*
X015296Y024848D01*
X015297Y024851D01*
X015298Y024854D01*
X015299Y024857D01*
X0153Y024859D01*
X015301Y024861D01*
X015301Y024863D01*
X015302Y024864D01*
X015302Y024865D01*
X015302Y024865D01*
X015307Y024872D01*
X015313Y024879D01*
X015318Y024884D01*
X015324Y024889D01*
X015329Y024893D01*
X015331Y024894D01*
X015333Y024895D01*
X015334Y024896D01*
X015335Y024897D01*
X015336Y024897D01*
X015337Y024897D01*
X015345Y024901D01*
X015354Y024904D01*
X015363Y024906D01*
X015371Y024907D01*
X015374Y024908D01*
X015378Y024908D01*
X015381Y024908D01*
X015384D01*
X015386Y024909D01*
X015387D01*
X015388D01*
X015389D01*
X015399Y024908D01*
D02*
G37*
G36*
X015363Y024717D02*
X015368Y024717D01*
X015373Y024716D01*
X015377Y024715D01*
X015381Y024714D01*
X015385Y024712D01*
X015388Y024711D01*
X015391Y024709D01*
X015394Y024708D01*
X015397Y024706D01*
X015399Y024705D01*
X015401Y024704D01*
X015402Y024702D01*
X015403Y024702D01*
X015403Y024701D01*
X015404Y024701D01*
X015407Y024698D01*
X015409Y024695D01*
X015412Y024691D01*
X015414Y024688D01*
X015415Y024684D01*
X015417Y024681D01*
X015419Y024675D01*
X015419Y024672D01*
X01542Y024669D01*
X01542Y024667D01*
X01542Y024665D01*
X015421Y024663D01*
Y024661D01*
X01542Y024656D01*
X01542Y024651D01*
X015419Y024646D01*
X015417Y024642D01*
X015416Y024639D01*
X015415Y024637D01*
X015414Y024635D01*
X015414Y024634D01*
X015411Y02463D01*
X015408Y024626D01*
X015405Y024623D01*
X015402Y02462D01*
X015399Y024618D01*
X015397Y024616D01*
X015396Y024615D01*
X015396Y024615D01*
X015398D01*
X015399D01*
X0154D01*
X0154D01*
X015406Y024615D01*
X015411Y024616D01*
X015416Y024616D01*
X01542Y024617D01*
X015424Y024617D01*
X015427Y024618D01*
X015428Y024618D01*
X015429D01*
X015429Y024619D01*
X015429D01*
X015434Y02462D01*
X015438Y024621D01*
X015442Y024623D01*
X015446Y024624D01*
X015448Y024625D01*
X01545Y024626D01*
X015451Y024627D01*
X015452Y024627D01*
X015455Y024629D01*
X015457Y024632D01*
X01546Y024634D01*
X015461Y024636D01*
X015463Y024638D01*
X015464Y024639D01*
X015465Y02464D01*
X015465Y024641D01*
X015467Y024644D01*
X015468Y024647D01*
X015469Y02465D01*
X015469Y024653D01*
X015469Y024656D01*
X01547Y024658D01*
Y02466D01*
X015469Y024664D01*
X015469Y024668D01*
X015468Y024672D01*
X015466Y024675D01*
X015465Y024677D01*
X015464Y024679D01*
X015463Y02468D01*
X015463Y02468D01*
X01546Y024683D01*
X015456Y024685D01*
X015452Y024687D01*
X015448Y024689D01*
X015445Y02469D01*
X015442Y024691D01*
X015441Y024691D01*
X01544D01*
X01544Y024691D01*
X01544D01*
X015442Y024714D01*
X01545Y024712D01*
X015456Y02471D01*
X015463Y024707D01*
X015468Y024704D01*
X015471Y024702D01*
X015473Y0247D01*
X015474Y024699D01*
X015475Y024698D01*
X015476Y024698D01*
X015476Y024697D01*
X015477Y024697D01*
X015479Y024694D01*
X015481Y024691D01*
X015484Y024685D01*
X015486Y024679D01*
X015488Y024673D01*
X015489Y024668D01*
X015489Y024666D01*
Y024664D01*
X015489Y024662D01*
Y02466D01*
X015489Y024652D01*
X015488Y024645D01*
X015486Y024639D01*
X015483Y024634D01*
X015483Y024632D01*
X015481Y024629D01*
X01548Y024628D01*
X015479Y024626D01*
X015479Y024625D01*
X015478Y024624D01*
X015478Y024624D01*
Y024623D01*
X015473Y024618D01*
X015468Y024613D01*
X015462Y024609D01*
X015457Y024606D01*
X015452Y024603D01*
X01545Y024602D01*
X015448Y024601D01*
X015447Y0246D01*
X015446Y0246D01*
X015445Y024599D01*
X015445D01*
X015441Y024598D01*
X015436Y024597D01*
X015427Y024595D01*
X015417Y024593D01*
X015407Y024593D01*
X015403Y024592D01*
X015399Y024592D01*
X015395D01*
X015392Y024591D01*
X01539D01*
X015388D01*
X015386D01*
X015386D01*
X01538D01*
X015374Y024592D01*
X015368Y024592D01*
X015363Y024593D01*
X015358Y024593D01*
X015354Y024594D01*
X01535Y024595D01*
X015346Y024596D01*
X015343Y024596D01*
X01534Y024597D01*
X015338Y024598D01*
X015336Y024598D01*
X015334Y024599D01*
X015333Y024599D01*
X015333Y0246D01*
X015332D01*
X015326Y024603D01*
X01532Y024607D01*
X015315Y024611D01*
X015311Y024614D01*
X015308Y024618D01*
X015306Y024621D01*
X015305Y024622D01*
X015304Y024623D01*
X015304Y024623D01*
Y024623D01*
X0153Y024629D01*
X015298Y024635D01*
X015296Y024641D01*
X015295Y024646D01*
X015294Y024651D01*
X015294Y024653D01*
Y024654D01*
X015293Y024655D01*
Y024657D01*
X015294Y024662D01*
X015294Y024666D01*
X015295Y024671D01*
X015296Y024675D01*
X015299Y024682D01*
X015301Y024686D01*
X015302Y024688D01*
X015304Y024691D01*
X015306Y024693D01*
X015307Y024696D01*
X015309Y024697D01*
X01531Y024699D01*
X01531Y024699D01*
X015311Y0247D01*
X015311Y0247D01*
X015315Y024703D01*
X015319Y024706D01*
X015322Y024708D01*
X015326Y02471D01*
X01533Y024712D01*
X015334Y024713D01*
X015341Y024715D01*
X015345Y024716D01*
X015348Y024717D01*
X015351Y024717D01*
X015353Y024717D01*
X015355Y024717D01*
X015357D01*
X015358D01*
X015358D01*
X015363Y024717D01*
D02*
G37*
G36*
X016829Y025948D02*
X016838Y025947D01*
X016847Y025946D01*
X016851Y025944D01*
X016855Y025944D01*
X016858Y025943D01*
X016861Y025942D01*
X016864Y025941D01*
X016866Y02594D01*
X016868Y025939D01*
X016869Y025939D01*
X01687Y025939D01*
X01687D01*
X016878Y025934D01*
X016886Y02593D01*
X016892Y025925D01*
X016895Y025922D01*
X016897Y02592D01*
X016899Y025918D01*
X016901Y025916D01*
X016903Y025914D01*
X016904Y025912D01*
X016905Y025911D01*
X016906Y02591D01*
X016906Y025909D01*
X016907Y025909D01*
X016909Y025905D01*
X016911Y025901D01*
X016914Y025893D01*
X016916Y025885D01*
X016918Y025877D01*
X016918Y025873D01*
X016919Y025869D01*
X016919Y025866D01*
Y025864D01*
X016919Y025862D01*
Y025859D01*
X016919Y025853D01*
X016918Y025848D01*
X016918Y025843D01*
X016917Y025838D01*
X016915Y025834D01*
X016914Y025829D01*
X016913Y025826D01*
X016911Y025822D01*
X016909Y025819D01*
X016908Y025816D01*
X016907Y025814D01*
X016905Y025811D01*
X016904Y02581D01*
X016904Y025809D01*
X016903Y025808D01*
X016903Y025808D01*
X016899Y025804D01*
X016896Y025801D01*
X016892Y025798D01*
X016888Y025795D01*
X016881Y02579D01*
X016873Y025786D01*
X016869Y025784D01*
X016866Y025783D01*
X016863Y025782D01*
X01686Y025781D01*
X016858Y02578D01*
X016857Y025779D01*
X016855Y025779D01*
X016855D01*
X016849Y025805D01*
X016853Y025806D01*
X016857Y025807D01*
X016861Y025808D01*
X016865Y02581D01*
X016868Y025811D01*
X016871Y025813D01*
X016874Y025815D01*
X016876Y025817D01*
X016878Y025818D01*
X01688Y02582D01*
X016882Y025821D01*
X016883Y025822D01*
X016884Y025823D01*
X016885Y025824D01*
X016885Y025824D01*
X016885Y025825D01*
X016888Y025828D01*
X016889Y025831D01*
X016892Y025837D01*
X016895Y025842D01*
X016896Y025848D01*
X016897Y025853D01*
X016897Y025855D01*
Y025857D01*
X016898Y025859D01*
Y025861D01*
X016897Y025867D01*
X016896Y025873D01*
X016895Y025879D01*
X016893Y025884D01*
X016891Y025888D01*
X016891Y025889D01*
X01689Y025891D01*
X01689Y025892D01*
X016889Y025893D01*
X016889Y025893D01*
Y025893D01*
X016885Y025899D01*
X016881Y025903D01*
X016876Y025907D01*
X016872Y02591D01*
X016868Y025913D01*
X016864Y025914D01*
X016863Y025915D01*
X016862Y025915D01*
X016862Y025916D01*
X016861D01*
X016854Y025918D01*
X016847Y025919D01*
X01684Y025921D01*
X016833Y025922D01*
X01683Y025922D01*
X016827Y025922D01*
X016825D01*
X016823Y025923D01*
X016821D01*
X01682D01*
X016819D01*
X016819D01*
X016811Y025922D01*
X016805Y025922D01*
X016799Y025921D01*
X016793Y025919D01*
X016788Y025919D01*
X016786Y025918D01*
X016785Y025918D01*
X016783Y025917D01*
X016783Y025917D01*
X016782Y025917D01*
X016782D01*
X016775Y025914D01*
X01677Y025911D01*
X016765Y025908D01*
X016761Y025904D01*
X016757Y025901D01*
X016755Y025898D01*
X016754Y025897D01*
X016753Y025896D01*
Y025896D01*
X01675Y02589D01*
X016747Y025884D01*
X016745Y025878D01*
X016744Y025872D01*
X016743Y025867D01*
X016743Y025864D01*
Y025862D01*
X016742Y025861D01*
Y025859D01*
X016743Y025852D01*
X016744Y025846D01*
X016745Y02584D01*
X016747Y025836D01*
X016749Y025832D01*
X01675Y025829D01*
X016752Y025828D01*
X016752Y025827D01*
X016756Y025823D01*
X016761Y025818D01*
X016766Y025815D01*
X016771Y025812D01*
X016775Y02581D01*
X016778Y025809D01*
X016779Y025809D01*
X016781Y025808D01*
X016782Y025808D01*
X016782Y025807D01*
X016783D01*
X016777Y025782D01*
X016772Y025784D01*
X016767Y025786D01*
X016763Y025788D01*
X016759Y02579D01*
X016755Y025792D01*
X016752Y025795D01*
X016749Y025797D01*
X016746Y025799D01*
X016744Y025801D01*
X016742Y025803D01*
X01674Y025805D01*
X016738Y025806D01*
X016737Y025808D01*
X016736Y025809D01*
X016736Y02581D01*
X016736Y02581D01*
X016733Y025814D01*
X016731Y025818D01*
X016729Y025821D01*
X016727Y025826D01*
X016724Y025834D01*
X016723Y025841D01*
X016722Y025845D01*
X016722Y025848D01*
X016721Y025851D01*
X016721Y025854D01*
X016721Y025856D01*
Y025858D01*
X016721Y025867D01*
X016723Y025876D01*
X016724Y025884D01*
X016726Y025888D01*
X016727Y025891D01*
X016728Y025894D01*
X016729Y025897D01*
X01673Y025899D01*
X016731Y025901D01*
X016731Y025903D01*
X016732Y025904D01*
X016732Y025905D01*
X016732Y025905D01*
X016737Y025912D01*
X016743Y025919D01*
X016748Y025924D01*
X016754Y025929D01*
X016759Y025933D01*
X016761Y025934D01*
X016763Y025935D01*
X016764Y025936D01*
X016765Y025937D01*
X016766Y025937D01*
X016767Y025937D01*
X016775Y025941D01*
X016784Y025944D01*
X016793Y025946D01*
X016801Y025947D01*
X016804Y025948D01*
X016808Y025948D01*
X016811Y025948D01*
X016814D01*
X016816Y025949D01*
X016817D01*
X016818D01*
X016819D01*
X016829Y025948D01*
D02*
G37*
G36*
X016865Y025757D02*
X01687Y025757D01*
X016874Y025756D01*
X016878Y025755D01*
X016885Y025752D01*
X016888Y025751D01*
X016891Y025749D01*
X016894Y025747D01*
X016896Y025746D01*
X016898Y025744D01*
X016899Y025743D01*
X016901Y025742D01*
X016902Y025741D01*
X016902Y025741D01*
X016903Y025741D01*
X016906Y025737D01*
X016908Y025734D01*
X01691Y02573D01*
X016912Y025726D01*
X016914Y025722D01*
X016915Y025718D01*
X016917Y025711D01*
X016918Y025708D01*
X016918Y025705D01*
X016919Y025702D01*
X016919Y025699D01*
X016919Y025697D01*
Y025695D01*
X016919Y025689D01*
X016918Y025685D01*
X016918Y02568D01*
X016917Y025675D01*
X016915Y025672D01*
X016914Y025668D01*
X016913Y025664D01*
X016911Y025661D01*
X016909Y025658D01*
X016908Y025656D01*
X016906Y025654D01*
X016905Y025652D01*
X016904Y025651D01*
X016903Y02565D01*
X016903Y025649D01*
X016903Y025649D01*
X016899Y025646D01*
X016896Y025643D01*
X016893Y025641D01*
X016889Y025639D01*
X016886Y025637D01*
X016882Y025636D01*
X016876Y025634D01*
X016873Y025633D01*
X01687Y025632D01*
X016867Y025632D01*
X016865Y025632D01*
X016864Y025631D01*
X016862D01*
X016862D01*
X016861D01*
X016855Y025632D01*
X016849Y025633D01*
X016844Y025634D01*
X016839Y025636D01*
X016836Y025638D01*
X016833Y025639D01*
X016831Y025641D01*
X016831Y025641D01*
X016831D01*
X016826Y025645D01*
X016822Y025649D01*
X016819Y025653D01*
X016817Y025657D01*
X016815Y025661D01*
X016813Y025665D01*
X016813Y025666D01*
X016813Y025667D01*
X016812Y025667D01*
Y025667D01*
X01681Y025662D01*
X016808Y025658D01*
X016805Y025655D01*
X016803Y025652D01*
X0168Y025649D01*
X016799Y025648D01*
X016798Y025647D01*
X016797Y025646D01*
X016793Y025644D01*
X016789Y025642D01*
X016785Y025641D01*
X016782Y02564D01*
X016778Y025639D01*
X016776Y025639D01*
X016774D01*
X016774D01*
X016774D01*
X01677Y025639D01*
X016766Y02564D01*
X016759Y025642D01*
X016753Y025644D01*
X016748Y025647D01*
X016744Y02565D01*
X016742Y025651D01*
X01674Y025652D01*
X016739Y025653D01*
X016739Y025654D01*
X016738Y025654D01*
X016738Y025655D01*
X016736Y025658D01*
X016733Y025661D01*
X016731Y025664D01*
X016729Y025667D01*
X016727Y025674D01*
X016725Y025681D01*
X016724Y025683D01*
X016724Y025686D01*
X016724Y025689D01*
X016724Y025691D01*
X016723Y025693D01*
Y025695D01*
X016724Y0257D01*
X016724Y025704D01*
X016726Y025712D01*
X016727Y025715D01*
X016728Y025719D01*
X016729Y025722D01*
X016731Y025724D01*
X016732Y025727D01*
X016733Y025729D01*
X016734Y025731D01*
X016736Y025732D01*
X016736Y025733D01*
X016737Y025734D01*
X016737Y025735D01*
X016738Y025735D01*
X01674Y025738D01*
X016743Y02574D01*
X016746Y025742D01*
X016749Y025744D01*
X016755Y025746D01*
X016761Y025748D01*
X016765Y025749D01*
X016768Y025749D01*
X016769Y02575D01*
X016771Y02575D01*
X016772D01*
X016773D01*
X016773D01*
X016778Y02575D01*
X016783Y025749D01*
X016787Y025748D01*
X01679Y025746D01*
X016793Y025745D01*
X016795Y025744D01*
X016796Y025743D01*
X016797Y025743D01*
X0168Y02574D01*
X016803Y025737D01*
X016806Y025733D01*
X016808Y025729D01*
X01681Y025726D01*
X016811Y025724D01*
X016812Y025723D01*
X016812Y025722D01*
X016812Y025721D01*
Y025721D01*
X016814Y025728D01*
X016817Y025733D01*
X01682Y025738D01*
X016822Y025741D01*
X016825Y025744D01*
X016827Y025747D01*
X016829Y025748D01*
X016829Y025748D01*
X016829D01*
X016834Y025751D01*
X01684Y025754D01*
X016845Y025756D01*
X01685Y025757D01*
X016854Y025757D01*
X016856Y025757D01*
X016858D01*
X016859Y025758D01*
X01686D01*
X01686D01*
X016861D01*
X016865Y025757D01*
D02*
G37*
G36*
X016369Y025928D02*
X016378Y025927D01*
X016387Y025925D01*
X016391Y025924D01*
X016395Y025923D01*
X016398Y025923D01*
X016401Y025922D01*
X016404Y025921D01*
X016406Y02592D01*
X016408Y025919D01*
X016409Y025919D01*
X01641Y025918D01*
X01641D01*
X016418Y025914D01*
X016426Y02591D01*
X016432Y025905D01*
X016435Y025902D01*
X016437Y0259D01*
X016439Y025898D01*
X016441Y025895D01*
X016443Y025894D01*
X016444Y025892D01*
X016445Y025891D01*
X016446Y02589D01*
X016446Y025889D01*
X016447Y025889D01*
X016449Y025885D01*
X016451Y025881D01*
X016454Y025873D01*
X016456Y025864D01*
X016458Y025856D01*
X016458Y025853D01*
X016459Y025849D01*
X016459Y025846D01*
Y025844D01*
X016459Y025841D01*
Y025838D01*
X016459Y025833D01*
X016458Y025828D01*
X016458Y025823D01*
X016457Y025818D01*
X016455Y025813D01*
X016454Y025809D01*
X016453Y025805D01*
X016451Y025802D01*
X016449Y025799D01*
X016448Y025796D01*
X016447Y025794D01*
X016445Y025791D01*
X016444Y02579D01*
X016444Y025789D01*
X016443Y025788D01*
X016443Y025788D01*
X016439Y025784D01*
X016436Y025781D01*
X016432Y025777D01*
X016428Y025774D01*
X016421Y025769D01*
X016413Y025766D01*
X016409Y025764D01*
X016406Y025763D01*
X016403Y025761D01*
X0164Y025761D01*
X016398Y02576D01*
X016397Y025759D01*
X016395Y025759D01*
X016395D01*
X016389Y025784D01*
X016393Y025786D01*
X016397Y025787D01*
X016401Y025788D01*
X016405Y02579D01*
X016408Y025791D01*
X016411Y025793D01*
X016414Y025795D01*
X016416Y025797D01*
X016418Y025798D01*
X01642Y0258D01*
X016422Y025801D01*
X016423Y025802D01*
X016424Y025803D01*
X016425Y025804D01*
X016425Y025804D01*
X016425Y025805D01*
X016428Y025807D01*
X016429Y02581D01*
X016432Y025817D01*
X016435Y025822D01*
X016436Y025828D01*
X016437Y025833D01*
X016437Y025835D01*
Y025837D01*
X016438Y025839D01*
Y025841D01*
X016437Y025847D01*
X016436Y025853D01*
X016435Y025859D01*
X016433Y025864D01*
X016431Y025868D01*
X016431Y025869D01*
X01643Y025871D01*
X01643Y025872D01*
X016429Y025872D01*
X016429Y025873D01*
Y025873D01*
X016425Y025879D01*
X016421Y025883D01*
X016416Y025887D01*
X016412Y02589D01*
X016408Y025892D01*
X016404Y025894D01*
X016403Y025895D01*
X016402Y025895D01*
X016402Y025895D01*
X016401D01*
X016394Y025898D01*
X016387Y025899D01*
X01638Y025901D01*
X016373Y025902D01*
X01637Y025902D01*
X016367Y025902D01*
X016365D01*
X016363Y025902D01*
X016361D01*
X01636D01*
X016359D01*
X016359D01*
X016351Y025902D01*
X016345Y025902D01*
X016339Y0259D01*
X016333Y025899D01*
X016328Y025899D01*
X016326Y025898D01*
X016325Y025897D01*
X016323Y025897D01*
X016323Y025897D01*
X016322Y025897D01*
X016322D01*
X016315Y025894D01*
X01631Y025891D01*
X016305Y025887D01*
X016301Y025884D01*
X016297Y025881D01*
X016295Y025878D01*
X016294Y025876D01*
X016293Y025876D01*
Y025876D01*
X01629Y02587D01*
X016287Y025864D01*
X016285Y025858D01*
X016284Y025852D01*
X016283Y025846D01*
X016283Y025844D01*
Y025842D01*
X016282Y025841D01*
Y025839D01*
X016283Y025832D01*
X016284Y025825D01*
X016285Y02582D01*
X016287Y025815D01*
X016289Y025812D01*
X01629Y025809D01*
X016292Y025807D01*
X016292Y025807D01*
X016296Y025802D01*
X016301Y025798D01*
X016306Y025795D01*
X016311Y025792D01*
X016315Y02579D01*
X016318Y025789D01*
X016319Y025789D01*
X016321Y025788D01*
X016322Y025787D01*
X016322Y025787D01*
X016323D01*
X016317Y025762D01*
X016312Y025764D01*
X016307Y025766D01*
X016303Y025768D01*
X016299Y02577D01*
X016295Y025772D01*
X016292Y025774D01*
X016289Y025777D01*
X016286Y025779D01*
X016284Y025781D01*
X016282Y025783D01*
X01628Y025785D01*
X016278Y025786D01*
X016277Y025788D01*
X016276Y025789D01*
X016276Y025789D01*
X016276Y02579D01*
X016273Y025794D01*
X016271Y025797D01*
X016269Y025801D01*
X016267Y025805D01*
X016264Y025814D01*
X016263Y025821D01*
X016262Y025825D01*
X016262Y025828D01*
X016261Y025831D01*
X016261Y025833D01*
X016261Y025835D01*
Y025838D01*
X016261Y025847D01*
X016263Y025856D01*
X016264Y025864D01*
X016266Y025868D01*
X016267Y025871D01*
X016268Y025874D01*
X016269Y025877D01*
X01627Y025879D01*
X016271Y025881D01*
X016271Y025882D01*
X016272Y025884D01*
X016272Y025884D01*
X016272Y025885D01*
X016277Y025892D01*
X016283Y025899D01*
X016288Y025904D01*
X016294Y025909D01*
X016299Y025912D01*
X016301Y025914D01*
X016303Y025915D01*
X016304Y025916D01*
X016305Y025917D01*
X016306Y025917D01*
X016307Y025917D01*
X016315Y025921D01*
X016324Y025924D01*
X016333Y025926D01*
X016341Y025927D01*
X016344Y025928D01*
X016348Y025928D01*
X016351Y025928D01*
X016354D01*
X016356Y025928D01*
X016357D01*
X016358D01*
X016359D01*
X016369Y025928D01*
D02*
G37*
G36*
X016289Y025642D02*
X016297Y025648D01*
X016306Y025655D01*
X016314Y02566D01*
X016322Y025666D01*
X016326Y025668D01*
X016329Y02567D01*
X016332Y025672D01*
X016335Y025673D01*
X016337Y025674D01*
X016338Y025675D01*
X016339Y025676D01*
X01634Y025676D01*
X016351Y025681D01*
X016362Y025686D01*
X016372Y025691D01*
X016377Y025692D01*
X016382Y025694D01*
X016386Y025695D01*
X01639Y025697D01*
X016393Y025698D01*
X016396Y025699D01*
X016399Y025699D01*
X0164Y0257D01*
X016401Y0257D01*
X016402D01*
X016413Y025703D01*
X016418Y025704D01*
X016423Y025705D01*
X016428Y025706D01*
X016433Y025707D01*
X016437Y025707D01*
X016441Y025708D01*
X016444Y025708D01*
X016447Y025708D01*
X01645Y025709D01*
X016452D01*
X016454Y025709D01*
X016455D01*
X016456D01*
X016456D01*
Y025685D01*
X016445Y025684D01*
X016436Y025682D01*
X016427Y025681D01*
X016423Y02568D01*
X016419Y025679D01*
X016415Y025679D01*
X016412Y025678D01*
X01641Y025677D01*
X016407Y025677D01*
X016406Y025676D01*
X016404Y025676D01*
X016403Y025676D01*
X016403D01*
X01639Y025672D01*
X016379Y025667D01*
X016373Y025665D01*
X016367Y025663D01*
X016362Y02566D01*
X016357Y025658D01*
X016353Y025656D01*
X016349Y025654D01*
X016346Y025653D01*
X016343Y025651D01*
X01634Y02565D01*
X016338Y025649D01*
X016337Y025648D01*
X016337Y025648D01*
X016331Y025645D01*
X016325Y025641D01*
X01632Y025638D01*
X016315Y025635D01*
X016311Y025632D01*
X016306Y025629D01*
X016302Y025626D01*
X016299Y025623D01*
X016296Y025621D01*
X016293Y025618D01*
X016291Y025616D01*
X016289Y025615D01*
X016287Y025613D01*
X016286Y025612D01*
X016285Y025612D01*
X016285Y025612D01*
X016267D01*
Y025736D01*
X016289D01*
Y025642D01*
D02*
G37*
G36*
X014879Y026929D02*
X014888Y026927D01*
X014897Y026926D01*
X014901Y026925D01*
X014905Y026924D01*
X014908Y026923D01*
X014911Y026922D01*
X014914Y026921D01*
X014916Y026921D01*
X014918Y02692D01*
X014919Y02692D01*
X01492Y026919D01*
X01492D01*
X014928Y026915D01*
X014936Y02691D01*
X014942Y026905D01*
X014945Y026903D01*
X014947Y026901D01*
X01495Y026898D01*
X014951Y026896D01*
X014953Y026894D01*
X014954Y026893D01*
X014955Y026891D01*
X014956Y02689D01*
X014956Y02689D01*
X014957Y02689D01*
X014959Y026886D01*
X014961Y026882D01*
X014964Y026873D01*
X014966Y026865D01*
X014967Y026857D01*
X014968Y026853D01*
X014969Y02685D01*
X014969Y026847D01*
Y026844D01*
X014969Y026842D01*
Y026839D01*
X014969Y026834D01*
X014968Y026828D01*
X014968Y026823D01*
X014967Y026819D01*
X014965Y026814D01*
X014964Y02681D01*
X014963Y026806D01*
X014961Y026803D01*
X014959Y026799D01*
X014958Y026796D01*
X014957Y026794D01*
X014955Y026792D01*
X014954Y026791D01*
X014954Y026789D01*
X014953Y026789D01*
X014953Y026788D01*
X01495Y026785D01*
X014946Y026781D01*
X014942Y026778D01*
X014938Y026775D01*
X014931Y02677D01*
X014923Y026766D01*
X014919Y026765D01*
X014916Y026763D01*
X014913Y026762D01*
X01491Y026761D01*
X014908Y02676D01*
X014907Y02676D01*
X014905Y02676D01*
X014905D01*
X014899Y026785D01*
X014903Y026786D01*
X014907Y026788D01*
X014911Y026789D01*
X014915Y02679D01*
X014918Y026792D01*
X014921Y026794D01*
X014924Y026796D01*
X014926Y026797D01*
X014928Y026799D01*
X01493Y0268D01*
X014932Y026802D01*
X014933Y026803D01*
X014934Y026804D01*
X014935Y026805D01*
X014935Y026805D01*
X014935Y026805D01*
X014938Y026808D01*
X014939Y026811D01*
X014942Y026817D01*
X014945Y026823D01*
X014946Y026829D01*
X014947Y026834D01*
X014947Y026836D01*
Y026838D01*
X014948Y026839D01*
Y026841D01*
X014947Y026848D01*
X014946Y026854D01*
X014945Y026859D01*
X014943Y026864D01*
X014941Y026868D01*
X014941Y02687D01*
X01494Y026871D01*
X01494Y026872D01*
X014939Y026873D01*
X014939Y026874D01*
Y026874D01*
X014935Y026879D01*
X014931Y026884D01*
X014926Y026888D01*
X014922Y026891D01*
X014918Y026893D01*
X014914Y026895D01*
X014913Y026895D01*
X014912Y026896D01*
X014912Y026896D01*
X014911D01*
X014904Y026898D01*
X014897Y0269D01*
X01489Y026901D01*
X014883Y026902D01*
X01488Y026903D01*
X014877Y026903D01*
X014875D01*
X014873Y026903D01*
X014871D01*
X01487D01*
X014869D01*
X014869D01*
X014861Y026903D01*
X014855Y026902D01*
X014849Y026901D01*
X014843Y0269D01*
X014838Y026899D01*
X014836Y026899D01*
X014835Y026898D01*
X014833Y026898D01*
X014833Y026898D01*
X014832Y026897D01*
X014832D01*
X014825Y026895D01*
X01482Y026891D01*
X014815Y026888D01*
X014811Y026885D01*
X014807Y026881D01*
X014805Y026879D01*
X014804Y026877D01*
X014803Y026877D01*
Y026877D01*
X0148Y026871D01*
X014797Y026864D01*
X014795Y026858D01*
X014794Y026852D01*
X014793Y026847D01*
X014793Y026845D01*
Y026843D01*
X014792Y026842D01*
Y026839D01*
X014793Y026832D01*
X014794Y026826D01*
X014795Y026821D01*
X014797Y026816D01*
X014799Y026813D01*
X0148Y02681D01*
X014802Y026808D01*
X014802Y026808D01*
X014806Y026803D01*
X014811Y026799D01*
X014816Y026796D01*
X014821Y026793D01*
X014825Y026791D01*
X014828Y02679D01*
X014829Y026789D01*
X014831Y026789D01*
X014832Y026788D01*
X014832Y026788D01*
X014833D01*
X014827Y026763D01*
X014822Y026765D01*
X014817Y026766D01*
X014813Y026768D01*
X014809Y02677D01*
X014805Y026773D01*
X014802Y026775D01*
X014799Y026777D01*
X014796Y02678D01*
X014794Y026782D01*
X014792Y026784D01*
X01479Y026786D01*
X014788Y026787D01*
X014787Y026788D01*
X014786Y02679D01*
X014786Y02679D01*
X014786Y02679D01*
X014783Y026794D01*
X014781Y026798D01*
X014779Y026802D01*
X014777Y026806D01*
X014774Y026814D01*
X014773Y026822D01*
X014772Y026826D01*
X014772Y026829D01*
X014771Y026832D01*
X014771Y026834D01*
X014771Y026836D01*
Y026839D01*
X014771Y026848D01*
X014773Y026857D01*
X014774Y026865D01*
X014776Y026868D01*
X014777Y026872D01*
X014778Y026875D01*
X014779Y026877D01*
X01478Y02688D01*
X014781Y026882D01*
X014781Y026883D01*
X014782Y026884D01*
X014782Y026885D01*
X014782Y026885D01*
X014787Y026893D01*
X014793Y026899D01*
X014798Y026905D01*
X014804Y026909D01*
X014809Y026913D01*
X014811Y026914D01*
X014813Y026916D01*
X014814Y026917D01*
X014815Y026917D01*
X014816Y026918D01*
X014817Y026918D01*
X014825Y026922D01*
X014834Y026924D01*
X014843Y026926D01*
X014851Y026928D01*
X014854Y026928D01*
X014858Y026929D01*
X014861Y026929D01*
X014864D01*
X014866Y026929D01*
X014867D01*
X014868D01*
X014869D01*
X014879Y026929D01*
D02*
G37*
G36*
X01492Y026737D02*
X014924Y026737D01*
X014932Y026734D01*
X014939Y026731D01*
X014942Y026729D01*
X014944Y026728D01*
X014947Y026726D01*
X014949Y026725D01*
X014951Y026723D01*
X014952Y026722D01*
X014953Y026721D01*
X014954Y02672D01*
X014954Y02672D01*
X014955Y026719D01*
X014957Y026716D01*
X014959Y026713D01*
X014961Y026709D01*
X014963Y026706D01*
X014966Y026699D01*
X014967Y026692D01*
X014968Y026689D01*
X014968Y026686D01*
X014969Y026683D01*
X014969Y026681D01*
X014969Y026679D01*
Y026677D01*
X014969Y026671D01*
X014968Y026665D01*
X014967Y02666D01*
X014966Y026655D01*
X014964Y026651D01*
X014962Y026647D01*
X01496Y026643D01*
X014958Y026639D01*
X014955Y026636D01*
X014953Y026634D01*
X014951Y026631D01*
X01495Y026629D01*
X014948Y026628D01*
X014947Y026627D01*
X014946Y026626D01*
X014946Y026626D01*
X014942Y026623D01*
X014938Y026621D01*
X014935Y026619D01*
X014931Y026617D01*
X014923Y026614D01*
X014916Y026613D01*
X014913Y026612D01*
X01491Y026612D01*
X014908Y026611D01*
X014905Y026611D01*
X014904Y026611D01*
X014902D01*
X014901D01*
X014901D01*
X014896Y026611D01*
X014891Y026612D01*
X014887Y026613D01*
X014882Y026614D01*
X014879Y026615D01*
X014875Y026616D01*
X014871Y026618D01*
X014868Y026619D01*
X014866Y026621D01*
X014863Y026623D01*
X014861Y026624D01*
X014859Y026626D01*
X014858Y026627D01*
X014857Y026627D01*
X014856Y026628D01*
X014856Y026628D01*
X014853Y026632D01*
X01485Y026635D01*
X014848Y026639D01*
X014846Y026642D01*
X014844Y026646D01*
X014843Y026649D01*
X014841Y026656D01*
X01484Y026659D01*
X01484Y026662D01*
X014839Y026664D01*
X014839Y026667D01*
X014839Y026668D01*
Y026674D01*
X014839Y026678D01*
X014841Y026684D01*
X014843Y02669D01*
X014845Y026696D01*
X014847Y0267D01*
X014848Y026702D01*
X014849Y026704D01*
X01485Y026705D01*
X01485Y026706D01*
X014851Y026707D01*
X014851Y026707D01*
X014799Y026697D01*
Y02662D01*
X014777D01*
Y026715D01*
X014875Y026734D01*
X014878Y026712D01*
X014875Y02671D01*
X014873Y026707D01*
X01487Y026705D01*
X014868Y026703D01*
X014867Y026701D01*
X014866Y026699D01*
X014865Y026698D01*
X014865Y026698D01*
X014863Y026694D01*
X014862Y02669D01*
X014861Y026687D01*
X01486Y026684D01*
X01486Y026681D01*
X014859Y026679D01*
Y026673D01*
X01486Y02667D01*
X014861Y026664D01*
X014863Y026659D01*
X014865Y026655D01*
X014868Y026652D01*
X014869Y026649D01*
X014871Y026648D01*
X014871Y026647D01*
X014871D01*
X014876Y026643D01*
X014881Y026641D01*
X014886Y026639D01*
X014892Y026637D01*
X014896Y026636D01*
X014898Y026636D01*
X0149D01*
X014901Y026636D01*
X014902D01*
X014903D01*
X014903D01*
X014907D01*
X01491Y026636D01*
X014917Y026638D01*
X014923Y02664D01*
X014928Y026642D01*
X014932Y026644D01*
X014935Y026646D01*
X014936Y026647D01*
X014936Y026647D01*
X014937Y026647D01*
X014937Y026648D01*
X014939Y02665D01*
X014941Y026652D01*
X014945Y026657D01*
X014947Y026662D01*
X014948Y026667D01*
X014949Y02667D01*
X01495Y026674D01*
X01495Y026675D01*
Y026677D01*
X01495Y026682D01*
X014948Y026686D01*
X014947Y026691D01*
X014945Y026694D01*
X014944Y026697D01*
X014942Y026699D01*
X014941Y0267D01*
X014941Y026701D01*
X014937Y026704D01*
X014933Y026707D01*
X014928Y026709D01*
X014924Y026711D01*
X01492Y026712D01*
X014917Y026713D01*
X014915Y026713D01*
X014915Y026713D01*
X014914D01*
X014914D01*
X014916Y026738D01*
X01492Y026737D01*
D02*
G37*
G36*
X025175Y027583D02*
X02509D01*
Y027551D01*
X02509Y027548D01*
Y027545D01*
X02509Y027543D01*
X02509Y027542D01*
Y027541D01*
X025091Y02754D01*
Y02754D01*
X025092Y027536D01*
X025093Y027534D01*
X025094Y027532D01*
X025095Y02753D01*
X025095Y027529D01*
X025095Y027529D01*
X025096Y027528D01*
X025097Y027526D01*
X025099Y027524D01*
X025103Y02752D01*
X025105Y027518D01*
X025107Y027517D01*
X025108Y027516D01*
X025108Y027515D01*
X025112Y027513D01*
X025116Y02751D01*
X025121Y027507D01*
X025125Y027504D01*
X025129Y027501D01*
X025132Y027499D01*
X025133Y027498D01*
X025134Y027498D01*
X025134Y027497D01*
X025135D01*
X025175Y027472D01*
Y02744D01*
X025123Y027473D01*
X025117Y027477D01*
X025112Y027481D01*
X025108Y027484D01*
X025104Y027487D01*
X025101Y02749D01*
X025099Y027492D01*
X025098Y027494D01*
X025097Y027494D01*
X025095Y027497D01*
X025093Y027499D01*
X02509Y027504D01*
X025089Y027506D01*
X025088Y027508D01*
X025088Y027509D01*
X025087Y02751D01*
X025087Y027505D01*
X025086Y0275D01*
X025084Y027496D01*
X025083Y027492D01*
X025082Y027488D01*
X02508Y027485D01*
X025079Y027482D01*
X025077Y027479D01*
X025076Y027477D01*
X025074Y027474D01*
X025073Y027473D01*
X025072Y027471D01*
X025071Y02747D01*
X02507Y027469D01*
X02507Y027469D01*
X02507Y027469D01*
X025067Y027467D01*
X025064Y027464D01*
X025059Y027461D01*
X025053Y027459D01*
X025047Y027457D01*
X025042Y027456D01*
X025041Y027456D01*
X025039D01*
X025037Y027456D01*
X025036D01*
X025036D01*
X025035D01*
X025029Y027456D01*
X025024Y027457D01*
X025019Y027458D01*
X025015Y027459D01*
X025011Y027461D01*
X025009Y027462D01*
X025007Y027463D01*
X025007Y027464D01*
X025006D01*
X025002Y027467D01*
X024998Y02747D01*
X024995Y027474D01*
X024992Y027477D01*
X02499Y02748D01*
X024989Y027483D01*
X024988Y027484D01*
X024988Y027485D01*
Y027485D01*
X024987Y027487D01*
X024987Y027491D01*
X024985Y027497D01*
X024984Y027503D01*
X024983Y027509D01*
X024983Y027515D01*
Y027518D01*
X024983Y02752D01*
Y027609D01*
X025175D01*
Y027583D01*
D02*
G37*
G36*
X025051Y027403D02*
X025049Y027399D01*
X025047Y027395D01*
X025046Y027391D01*
X025044Y027388D01*
X025042Y027385D01*
X025041Y027383D01*
X025041Y027383D01*
Y027383D01*
X025038Y027378D01*
X025035Y027373D01*
X025032Y027369D01*
X02503Y027366D01*
X025028Y027364D01*
X025026Y027362D01*
X025025Y027361D01*
X025025Y02736D01*
X025175D01*
Y027337D01*
X024982D01*
Y027352D01*
X024987Y027355D01*
X024991Y027358D01*
X024996Y027361D01*
X025Y027365D01*
X025003Y027368D01*
X025006Y027371D01*
X025006Y027372D01*
X025007Y027373D01*
X025008Y027373D01*
X025008Y027373D01*
X025013Y027379D01*
X025017Y027385D01*
X025021Y02739D01*
X025024Y027396D01*
X025027Y027401D01*
X025028Y027402D01*
X025029Y027404D01*
X025029Y027405D01*
X02503Y027407D01*
X02503Y027407D01*
Y027407D01*
X025053D01*
X025051Y027403D01*
D02*
G37*
G36*
X02509Y027276D02*
X025099Y027276D01*
X025107Y027275D01*
X025115Y027273D01*
X025122Y027272D01*
X025129Y02727D01*
X025134Y027269D01*
X025139Y027267D01*
X025144Y027265D01*
X025148Y027263D01*
X025151Y027262D01*
X025154Y027261D01*
X025156Y027259D01*
X025157Y027258D01*
X025158Y027258D01*
X025158Y027258D01*
X025162Y027255D01*
X025165Y027251D01*
X025167Y027248D01*
X02517Y027244D01*
X025172Y02724D01*
X025173Y027237D01*
X025174Y027233D01*
X025175Y02723D01*
X025176Y027227D01*
X025177Y027223D01*
X025177Y027221D01*
X025178Y027219D01*
X025178Y027217D01*
Y027214D01*
X025177Y027206D01*
X025176Y027199D01*
X025174Y027194D01*
X025172Y027189D01*
X02517Y027184D01*
X025169Y027183D01*
X025168Y027182D01*
X025168Y027181D01*
X025167Y02718D01*
X025167Y027179D01*
Y027179D01*
X025162Y027174D01*
X025157Y02717D01*
X025152Y027166D01*
X025147Y027164D01*
X025142Y027161D01*
X02514Y02716D01*
X025138Y02716D01*
X025137Y027159D01*
X025136Y027159D01*
X025135Y027158D01*
X025135D01*
X025131Y027157D01*
X025126Y027156D01*
X025118Y027154D01*
X025108Y027153D01*
X0251Y027152D01*
X025096Y027152D01*
X025092Y027151D01*
X025089D01*
X025086Y027151D01*
X025083D01*
X025082D01*
X02508D01*
X02508D01*
X025075D01*
X02507Y027151D01*
X025065D01*
X025061Y027152D01*
X025057Y027152D01*
X025053Y027153D01*
X02505Y027153D01*
X025047Y027153D01*
X025044Y027154D01*
X025042Y027154D01*
X02504Y027155D01*
X025038Y027155D01*
X025037Y027155D01*
X025036Y027155D01*
X025035Y027156D01*
X025035D01*
X025029Y027157D01*
X025023Y027159D01*
X025019Y027161D01*
X025014Y027163D01*
X025011Y027165D01*
X025008Y027166D01*
X025007Y027167D01*
X025006Y027168D01*
X025002Y027171D01*
X024999Y027174D01*
X024996Y027177D01*
X024993Y02718D01*
X024991Y027183D01*
X02499Y027185D01*
X024989Y027186D01*
X024988Y027187D01*
Y027187D01*
X024986Y027191D01*
X024985Y027196D01*
X024984Y027201D01*
X024983Y027205D01*
X024982Y027208D01*
X024982Y027211D01*
Y027214D01*
X024983Y027221D01*
X024984Y027228D01*
X024986Y027234D01*
X024988Y027239D01*
X02499Y027243D01*
X024991Y027245D01*
X024992Y027246D01*
X024992Y027247D01*
X024993Y027248D01*
X024993Y027248D01*
Y027249D01*
X024998Y027254D01*
X025003Y027258D01*
X025008Y027261D01*
X025013Y027264D01*
X025018Y027266D01*
X02502Y027268D01*
X025022Y027268D01*
X025023Y027269D01*
X025024Y027269D01*
X025025Y027269D01*
X025025D01*
X025029Y027271D01*
X025034Y027272D01*
X025043Y027273D01*
X025052Y027275D01*
X02506Y027276D01*
X025065Y027276D01*
X025068Y027276D01*
X025072D01*
X025075Y027276D01*
X025077D01*
X025079D01*
X02508D01*
X02508D01*
X02509Y027276D01*
D02*
G37*
G36*
X020855Y027749D02*
X02077D01*
Y027717D01*
X02077Y027713D01*
Y027711D01*
X02077Y027709D01*
X02077Y027708D01*
Y027707D01*
X020771Y027706D01*
Y027706D01*
X020772Y027702D01*
X020773Y0277D01*
X020774Y027698D01*
X020775Y027696D01*
X020775Y027695D01*
X020775Y027695D01*
X020776Y027694D01*
X020777Y027692D01*
X020779Y02769D01*
X020783Y027686D01*
X020785Y027684D01*
X020787Y027682D01*
X020788Y027682D01*
X020788Y027681D01*
X020792Y027679D01*
X020796Y027676D01*
X020801Y027672D01*
X020805Y027669D01*
X020809Y027667D01*
X020812Y027665D01*
X020813Y027664D01*
X020814Y027664D01*
X020814Y027663D01*
X020815D01*
X020855Y027638D01*
Y027606D01*
X020803Y027639D01*
X020797Y027643D01*
X020792Y027647D01*
X020788Y02765D01*
X020784Y027653D01*
X020781Y027656D01*
X020779Y027658D01*
X020778Y02766D01*
X020777Y02766D01*
X020775Y027663D01*
X020773Y027665D01*
X02077Y02767D01*
X020769Y027672D01*
X020768Y027674D01*
X020768Y027675D01*
X020767Y027676D01*
X020767Y027671D01*
X020766Y027666D01*
X020764Y027662D01*
X020763Y027658D01*
X020762Y027654D01*
X02076Y027651D01*
X020759Y027648D01*
X020757Y027645D01*
X020756Y027643D01*
X020754Y02764D01*
X020753Y027639D01*
X020752Y027637D01*
X020751Y027636D01*
X02075Y027635D01*
X02075Y027635D01*
X02075Y027635D01*
X020747Y027633D01*
X020744Y02763D01*
X020739Y027627D01*
X020733Y027625D01*
X020727Y027623D01*
X020722Y027622D01*
X020721Y027622D01*
X020719D01*
X020717Y027622D01*
X020716D01*
X020716D01*
X020715D01*
X020709Y027622D01*
X020704Y027623D01*
X020699Y027624D01*
X020695Y027625D01*
X020691Y027627D01*
X020689Y027628D01*
X020687Y027629D01*
X020687Y02763D01*
X020686D01*
X020682Y027633D01*
X020678Y027636D01*
X020675Y02764D01*
X020672Y027643D01*
X02067Y027646D01*
X020669Y027649D01*
X020668Y02765D01*
X020668Y027651D01*
Y027651D01*
X020667Y027653D01*
X020667Y027656D01*
X020665Y027663D01*
X020664Y027669D01*
X020663Y027675D01*
X020663Y027681D01*
Y027684D01*
X020663Y027686D01*
Y027775D01*
X020855D01*
Y027749D01*
D02*
G37*
G36*
X020732Y027591D02*
X020737Y02759D01*
X020742Y02759D01*
X020746Y027589D01*
X02075Y027587D01*
X020754Y027586D01*
X020757Y027585D01*
X02076Y027583D01*
X020763Y027582D01*
X020765Y02758D01*
X020767Y027579D01*
X020769Y027577D01*
X020771Y027576D01*
X020771Y027576D01*
X020772Y027575D01*
X020772Y027575D01*
X020775Y027572D01*
X020778Y027569D01*
X02078Y027565D01*
X020782Y027562D01*
X020784Y027558D01*
X020785Y027555D01*
X020787Y027549D01*
X020788Y027546D01*
X020789Y027543D01*
X020789Y027541D01*
X020789Y027539D01*
X020789Y027537D01*
Y027535D01*
X020789Y02753D01*
X020788Y027525D01*
X020787Y02752D01*
X020786Y027516D01*
X020785Y027513D01*
X020784Y02751D01*
X020783Y027509D01*
X020783Y027508D01*
X02078Y027504D01*
X020777Y0275D01*
X020774Y027497D01*
X020771Y027494D01*
X020768Y027492D01*
X020766Y02749D01*
X020765Y027489D01*
X020764Y027489D01*
X020767D01*
X020768D01*
X020769D01*
X020769D01*
X020775Y027489D01*
X02078Y027489D01*
X020785Y02749D01*
X020789Y02749D01*
X020793Y027491D01*
X020795Y027492D01*
X020796Y027492D01*
X020797D01*
X020798Y027492D01*
X020798D01*
X020803Y027494D01*
X020807Y027495D01*
X020811Y027497D01*
X020814Y027498D01*
X020817Y027499D01*
X020819Y0275D01*
X02082Y027501D01*
X020821Y027501D01*
X020824Y027503D01*
X020826Y027505D01*
X020828Y027508D01*
X02083Y02751D01*
X020832Y027512D01*
X020833Y027513D01*
X020834Y027514D01*
X020834Y027515D01*
X020835Y027518D01*
X020837Y027521D01*
X020837Y027524D01*
X020838Y027527D01*
X020838Y02753D01*
X020839Y027531D01*
Y027533D01*
X020838Y027538D01*
X020837Y027542D01*
X020836Y027546D01*
X020835Y027549D01*
X020834Y027551D01*
X020833Y027553D01*
X020832Y027554D01*
X020832Y027554D01*
X020829Y027557D01*
X020825Y027559D01*
X020821Y027561D01*
X020817Y027563D01*
X020814Y027564D01*
X020811Y027564D01*
X02081Y027565D01*
X020809D01*
X020809Y027565D01*
X020808D01*
X02081Y027588D01*
X020818Y027586D01*
X020825Y027584D01*
X020831Y027581D01*
X020836Y027578D01*
X02084Y027576D01*
X020842Y027574D01*
X020843Y027573D01*
X020844Y027572D01*
X020845Y027571D01*
X020845Y027571D01*
X020845Y027571D01*
X020848Y027568D01*
X02085Y027565D01*
X020853Y027559D01*
X020855Y027553D01*
X020856Y027547D01*
X020857Y027542D01*
X020858Y02754D01*
Y027538D01*
X020858Y027536D01*
Y027534D01*
X020857Y027526D01*
X020856Y027519D01*
X020854Y027513D01*
X020852Y027508D01*
X020851Y027505D01*
X02085Y027503D01*
X020849Y027502D01*
X020848Y0275D01*
X020848Y027499D01*
X020847Y027498D01*
X020847Y027497D01*
Y027497D01*
X020842Y027492D01*
X020837Y027487D01*
X020831Y027483D01*
X020826Y027479D01*
X020821Y027477D01*
X020819Y027476D01*
X020817Y027475D01*
X020816Y027474D01*
X020814Y027474D01*
X020814Y027473D01*
X020814D01*
X020809Y027472D01*
X020805Y027471D01*
X020795Y027469D01*
X020785Y027467D01*
X020776Y027466D01*
X020772Y027466D01*
X020768Y027466D01*
X020764D01*
X020761Y027465D01*
X020758D01*
X020757D01*
X020755D01*
X020755D01*
X020749D01*
X020742Y027466D01*
X020737Y027466D01*
X020732Y027467D01*
X020727Y027467D01*
X020722Y027468D01*
X020718Y027469D01*
X020715Y027469D01*
X020712Y02747D01*
X020709Y027471D01*
X020706Y027472D01*
X020704Y027472D01*
X020703Y027473D01*
X020702Y027473D01*
X020701Y027474D01*
X020701D01*
X020694Y027477D01*
X020689Y027481D01*
X020684Y027485D01*
X02068Y027488D01*
X020676Y027492D01*
X020674Y027495D01*
X020673Y027496D01*
X020673Y027497D01*
X020672Y027497D01*
Y027497D01*
X020669Y027503D01*
X020667Y027509D01*
X020665Y027515D01*
X020663Y02752D01*
X020663Y027525D01*
X020662Y027527D01*
Y027528D01*
X020662Y027529D01*
Y027531D01*
X020662Y027536D01*
X020663Y02754D01*
X020664Y027545D01*
X020665Y027549D01*
X020668Y027556D01*
X020669Y027559D01*
X020671Y027562D01*
X020673Y027565D01*
X020674Y027567D01*
X020676Y027569D01*
X020677Y027571D01*
X020678Y027572D01*
X020679Y027573D01*
X02068Y027574D01*
X02068Y027574D01*
X020683Y027577D01*
X020687Y02758D01*
X020691Y027582D01*
X020695Y027584D01*
X020699Y027586D01*
X020703Y027587D01*
X02071Y027589D01*
X020714Y02759D01*
X020717Y02759D01*
X02072Y027591D01*
X020722Y027591D01*
X020724Y027591D01*
X020726D01*
X020727D01*
X020727D01*
X020732Y027591D01*
D02*
G37*
G36*
X020855Y028779D02*
X02077D01*
Y028747D01*
X02077Y028743D01*
Y028741D01*
X02077Y028739D01*
X02077Y028738D01*
Y028737D01*
X020771Y028736D01*
Y028736D01*
X020772Y028732D01*
X020773Y02873D01*
X020774Y028728D01*
X020775Y028726D01*
X020775Y028725D01*
X020775Y028725D01*
X020776Y028724D01*
X020777Y028722D01*
X020779Y02872D01*
X020783Y028716D01*
X020785Y028714D01*
X020787Y028712D01*
X020788Y028712D01*
X020788Y028711D01*
X020792Y028709D01*
X020796Y028706D01*
X020801Y028702D01*
X020805Y028699D01*
X020809Y028697D01*
X020812Y028695D01*
X020813Y028694D01*
X020814Y028694D01*
X020814Y028693D01*
X020815D01*
X020855Y028668D01*
Y028636D01*
X020803Y028669D01*
X020797Y028673D01*
X020792Y028677D01*
X020788Y02868D01*
X020784Y028683D01*
X020781Y028686D01*
X020779Y028688D01*
X020778Y02869D01*
X020777Y02869D01*
X020775Y028693D01*
X020773Y028695D01*
X02077Y0287D01*
X020769Y028702D01*
X020768Y028704D01*
X020768Y028705D01*
X020767Y028706D01*
X020767Y028701D01*
X020766Y028696D01*
X020764Y028692D01*
X020763Y028688D01*
X020762Y028684D01*
X02076Y028681D01*
X020759Y028678D01*
X020757Y028675D01*
X020756Y028673D01*
X020754Y02867D01*
X020753Y028669D01*
X020752Y028667D01*
X020751Y028666D01*
X02075Y028665D01*
X02075Y028665D01*
X02075Y028665D01*
X020747Y028663D01*
X020744Y02866D01*
X020739Y028657D01*
X020733Y028655D01*
X020727Y028653D01*
X020722Y028652D01*
X020721Y028652D01*
X020719D01*
X020717Y028652D01*
X020716D01*
X020716D01*
X020715D01*
X020709Y028652D01*
X020704Y028653D01*
X020699Y028654D01*
X020695Y028655D01*
X020691Y028657D01*
X020689Y028658D01*
X020687Y028659D01*
X020687Y02866D01*
X020686D01*
X020682Y028663D01*
X020678Y028666D01*
X020675Y02867D01*
X020672Y028673D01*
X02067Y028676D01*
X020669Y028679D01*
X020668Y02868D01*
X020668Y028681D01*
Y028681D01*
X020667Y028683D01*
X020667Y028686D01*
X020665Y028693D01*
X020664Y028699D01*
X020663Y028705D01*
X020663Y028711D01*
Y028714D01*
X020663Y028716D01*
Y028805D01*
X020855D01*
Y028779D01*
D02*
G37*
G36*
X020804Y028621D02*
X020808Y028621D01*
X020812Y02862D01*
X020817Y028619D01*
X020824Y028616D01*
X020827Y028615D01*
X02083Y028613D01*
X020832Y028611D01*
X020835Y02861D01*
X020837Y028608D01*
X020838Y028607D01*
X02084Y028606D01*
X02084Y028605D01*
X020841Y028605D01*
X020841Y028604D01*
X020844Y028601D01*
X020847Y028598D01*
X020849Y028594D01*
X020851Y02859D01*
X020852Y028586D01*
X020854Y028582D01*
X020856Y028575D01*
X020857Y028571D01*
X020857Y028568D01*
X020857Y028566D01*
X020858Y028563D01*
X020858Y028561D01*
Y028558D01*
X020858Y028553D01*
X020857Y028548D01*
X020856Y028544D01*
X020855Y028539D01*
X020854Y028535D01*
X020853Y028532D01*
X020851Y028528D01*
X02085Y028525D01*
X020848Y028522D01*
X020847Y02852D01*
X020845Y028518D01*
X020844Y028516D01*
X020843Y028514D01*
X020842Y028514D01*
X020842Y028513D01*
X020841Y028513D01*
X020838Y02851D01*
X020835Y028507D01*
X020831Y028505D01*
X020828Y028503D01*
X020824Y028501D01*
X020821Y028499D01*
X020814Y028498D01*
X020811Y028497D01*
X020809Y028496D01*
X020806Y028496D01*
X020804Y028496D01*
X020803Y028495D01*
X020801D01*
X0208D01*
X0208D01*
X020794Y028496D01*
X020788Y028497D01*
X020783Y028498D01*
X020778Y0285D01*
X020775Y028502D01*
X020772Y028503D01*
X02077Y028504D01*
X02077Y028505D01*
X02077D01*
X020765Y028509D01*
X020761Y028513D01*
X020758Y028517D01*
X020755Y028521D01*
X020753Y028525D01*
X020752Y028529D01*
X020752Y02853D01*
X020751Y02853D01*
X020751Y028531D01*
Y028531D01*
X020749Y028526D01*
X020746Y028522D01*
X020744Y028519D01*
X020741Y028516D01*
X020739Y028513D01*
X020737Y028512D01*
X020736Y028511D01*
X020736Y02851D01*
X020732Y028508D01*
X020728Y028506D01*
X020724Y028505D01*
X02072Y028504D01*
X020717Y028503D01*
X020715Y028503D01*
X020713D01*
X020713D01*
X020712D01*
X020709Y028503D01*
X020705Y028504D01*
X020698Y028506D01*
X020692Y028508D01*
X020687Y028511D01*
X020683Y028514D01*
X020681Y028515D01*
X020679Y028516D01*
X020678Y028517D01*
X020677Y028518D01*
X020677Y028518D01*
X020677Y028519D01*
X020674Y028522D01*
X020672Y028525D01*
X02067Y028528D01*
X020668Y028531D01*
X020666Y028538D01*
X020664Y028545D01*
X020663Y028547D01*
X020663Y02855D01*
X020663Y028553D01*
X020662Y028555D01*
X020662Y028557D01*
Y028559D01*
X020662Y028563D01*
X020663Y028568D01*
X020664Y028576D01*
X020665Y028579D01*
X020667Y028583D01*
X020668Y028586D01*
X020669Y028588D01*
X020671Y028591D01*
X020672Y028593D01*
X020673Y028595D01*
X020674Y028596D01*
X020675Y028597D01*
X020676Y028598D01*
X020676Y028599D01*
X020676Y028599D01*
X020679Y028601D01*
X020682Y028604D01*
X020685Y028606D01*
X020688Y028607D01*
X020694Y02861D01*
X020699Y028612D01*
X020704Y028613D01*
X020706Y028613D01*
X020708Y028614D01*
X02071Y028614D01*
X020711D01*
X020711D01*
X020712D01*
X020717Y028614D01*
X020721Y028613D01*
X020726Y028612D01*
X020729Y02861D01*
X020732Y028609D01*
X020734Y028608D01*
X020735Y028607D01*
X020736Y028607D01*
X020739Y028604D01*
X020742Y028601D01*
X020745Y028597D01*
X020747Y028593D01*
X020749Y02859D01*
X02075Y028588D01*
X02075Y028586D01*
X020751Y028586D01*
X020751Y028585D01*
Y028585D01*
X020753Y028591D01*
X020755Y028597D01*
X020758Y028601D01*
X020761Y028605D01*
X020764Y028608D01*
X020766Y028611D01*
X020768Y028612D01*
X020768Y028612D01*
X020768D01*
X020773Y028615D01*
X020778Y028618D01*
X020783Y028619D01*
X020788Y028621D01*
X020793Y028621D01*
X020795Y028621D01*
X020796D01*
X020798Y028622D01*
X020799D01*
X020799D01*
X020799D01*
X020804Y028621D01*
D02*
G37*
G36*
X025226Y026039D02*
X025141D01*
Y026006D01*
X025141Y026003D01*
Y026001D01*
X025141Y025999D01*
X025142Y025998D01*
Y025997D01*
X025142Y025996D01*
Y025996D01*
X025143Y025991D01*
X025144Y025989D01*
X025145Y025988D01*
X025146Y025986D01*
X025146Y025985D01*
X025147Y025985D01*
X025147Y025984D01*
X025149Y025982D01*
X02515Y02598D01*
X025155Y025976D01*
X025157Y025974D01*
X025158Y025972D01*
X025159Y025971D01*
X02516Y025971D01*
X025164Y025968D01*
X025168Y025965D01*
X025172Y025962D01*
X025176Y025959D01*
X02518Y025957D01*
X025183Y025955D01*
X025184Y025954D01*
X025185Y025953D01*
X025186Y025953D01*
X025186D01*
X025226Y025928D01*
Y025896D01*
X025174Y025929D01*
X025168Y025933D01*
X025163Y025937D01*
X025159Y02594D01*
X025155Y025943D01*
X025152Y025946D01*
X02515Y025948D01*
X025149Y02595D01*
X025148Y02595D01*
X025147Y025952D01*
X025145Y025955D01*
X025142Y02596D01*
X025141Y025962D01*
X025139Y025964D01*
X025139Y025965D01*
X025139Y025965D01*
X025138Y02596D01*
X025137Y025956D01*
X025136Y025952D01*
X025134Y025947D01*
X025133Y025944D01*
X025131Y02594D01*
X02513Y025937D01*
X025129Y025935D01*
X025127Y025932D01*
X025126Y02593D01*
X025124Y025929D01*
X025123Y025927D01*
X025123Y025926D01*
X025122Y025925D01*
X025121Y025925D01*
X025121Y025925D01*
X025118Y025922D01*
X025116Y02592D01*
X02511Y025917D01*
X025104Y025915D01*
X025098Y025913D01*
X025094Y025912D01*
X025092Y025912D01*
X02509D01*
X025088Y025911D01*
X025087D01*
X025087D01*
X025087D01*
X025081Y025912D01*
X025075Y025912D01*
X02507Y025914D01*
X025066Y025915D01*
X025063Y025917D01*
X02506Y025918D01*
X025058Y025919D01*
X025058Y025919D01*
X025058D01*
X025053Y025923D01*
X025049Y025926D01*
X025046Y02593D01*
X025044Y025933D01*
X025042Y025936D01*
X025041Y025939D01*
X02504Y02594D01*
X025039Y02594D01*
Y025941D01*
X025039Y025943D01*
X025038Y025946D01*
X025036Y025952D01*
X025036Y025959D01*
X025035Y025965D01*
X025034Y025971D01*
Y025973D01*
X025034Y025976D01*
Y026065D01*
X025226D01*
Y026039D01*
D02*
G37*
G36*
X025059Y025786D02*
X025067Y025792D01*
X025076Y025799D01*
X025084Y025804D01*
X025092Y025809D01*
X025096Y025812D01*
X025099Y025814D01*
X025102Y025816D01*
X025105Y025817D01*
X025107Y025818D01*
X025108Y025819D01*
X02511Y025819D01*
X02511Y02582D01*
X025121Y025825D01*
X025132Y02583D01*
X025142Y025834D01*
X025147Y025836D01*
X025152Y025838D01*
X025156Y025839D01*
X02516Y02584D01*
X025163Y025842D01*
X025166Y025842D01*
X025168Y025843D01*
X02517Y025844D01*
X025171Y025844D01*
X025172D01*
X025183Y025847D01*
X025188Y025848D01*
X025193Y025849D01*
X025198Y02585D01*
X025203Y02585D01*
X025207Y025851D01*
X025211Y025852D01*
X025214Y025852D01*
X025217Y025852D01*
X02522Y025852D01*
X025222D01*
X025224Y025853D01*
X025225D01*
X025226D01*
X025226D01*
Y025829D01*
X025215Y025828D01*
X025206Y025826D01*
X025197Y025825D01*
X025193Y025824D01*
X025189Y025823D01*
X025185Y025823D01*
X025182Y025822D01*
X02518Y025821D01*
X025177Y025821D01*
X025176Y02582D01*
X025174Y02582D01*
X025173Y02582D01*
X025173D01*
X02516Y025816D01*
X025149Y025811D01*
X025143Y025809D01*
X025137Y025807D01*
X025132Y025804D01*
X025127Y025802D01*
X025123Y0258D01*
X025119Y025798D01*
X025116Y025796D01*
X025113Y025795D01*
X02511Y025794D01*
X025108Y025793D01*
X025107Y025792D01*
X025107Y025792D01*
X025101Y025789D01*
X025095Y025785D01*
X02509Y025782D01*
X025085Y025779D01*
X025081Y025776D01*
X025076Y025773D01*
X025072Y02577D01*
X025069Y025767D01*
X025066Y025765D01*
X025063Y025762D01*
X025061Y02576D01*
X025059Y025758D01*
X025057Y025757D01*
X025056Y025756D01*
X025055Y025756D01*
X025055Y025755D01*
X025037D01*
Y02588D01*
X025059D01*
Y025786D01*
D02*
G37*
G36*
X020855Y025499D02*
X02077D01*
Y025466D01*
X02077Y025463D01*
Y025461D01*
X02077Y025459D01*
X02077Y025458D01*
Y025457D01*
X020771Y025456D01*
Y025456D01*
X020772Y025451D01*
X020773Y02545D01*
X020774Y025448D01*
X020775Y025446D01*
X020775Y025445D01*
X020775Y025445D01*
X020776Y025444D01*
X020777Y025442D01*
X020779Y02544D01*
X020783Y025436D01*
X020785Y025434D01*
X020787Y025432D01*
X020788Y025431D01*
X020788Y025431D01*
X020792Y025428D01*
X020796Y025425D01*
X020801Y025422D01*
X020805Y025419D01*
X020809Y025417D01*
X020812Y025415D01*
X020813Y025414D01*
X020814Y025413D01*
X020814Y025413D01*
X020815D01*
X020855Y025388D01*
Y025356D01*
X020803Y025389D01*
X020797Y025393D01*
X020792Y025397D01*
X020788Y0254D01*
X020784Y025403D01*
X020781Y025406D01*
X020779Y025408D01*
X020778Y02541D01*
X020777Y02541D01*
X020775Y025412D01*
X020773Y025415D01*
X02077Y02542D01*
X020769Y025422D01*
X020768Y025424D01*
X020768Y025425D01*
X020767Y025425D01*
X020767Y02542D01*
X020766Y025416D01*
X020764Y025412D01*
X020763Y025407D01*
X020762Y025404D01*
X02076Y0254D01*
X020759Y025397D01*
X020757Y025395D01*
X020756Y025392D01*
X020754Y02539D01*
X020753Y025389D01*
X020752Y025387D01*
X020751Y025386D01*
X02075Y025385D01*
X02075Y025385D01*
X02075Y025385D01*
X020747Y025382D01*
X020744Y02538D01*
X020739Y025377D01*
X020733Y025375D01*
X020727Y025373D01*
X020722Y025372D01*
X020721Y025372D01*
X020719D01*
X020717Y025371D01*
X020716D01*
X020716D01*
X020715D01*
X020709Y025372D01*
X020704Y025372D01*
X020699Y025374D01*
X020695Y025375D01*
X020691Y025377D01*
X020689Y025378D01*
X020687Y025379D01*
X020687Y025379D01*
X020686D01*
X020682Y025383D01*
X020678Y025386D01*
X020675Y02539D01*
X020672Y025393D01*
X02067Y025396D01*
X020669Y025399D01*
X020668Y0254D01*
X020668Y0254D01*
Y025401D01*
X020667Y025403D01*
X020667Y025406D01*
X020665Y025412D01*
X020664Y025419D01*
X020663Y025425D01*
X020663Y025431D01*
Y025433D01*
X020663Y025436D01*
Y025525D01*
X020855D01*
Y025499D01*
D02*
G37*
G36*
X020774Y025342D02*
X020782Y025341D01*
X02079Y025341D01*
X020797Y025339D01*
X020804Y025338D01*
X020809Y025336D01*
X020815Y025335D01*
X020819Y025333D01*
X020823Y025331D01*
X020827Y02533D01*
X02083Y025328D01*
X020832Y025327D01*
X020834Y025325D01*
X020835Y025325D01*
X020836Y025324D01*
X020836Y025324D01*
X02084Y02532D01*
X020844Y025316D01*
X020846Y025312D01*
X020849Y025309D01*
X020851Y025304D01*
X020853Y0253D01*
X020854Y025297D01*
X020855Y025293D01*
X020856Y025289D01*
X020857Y025286D01*
X020857Y025283D01*
X020858Y025281D01*
Y025279D01*
X020858Y025277D01*
Y025276D01*
X020858Y025269D01*
X020857Y025264D01*
X020855Y025258D01*
X020854Y025254D01*
X020852Y02525D01*
X020851Y025247D01*
X020851Y025246D01*
X02085Y025245D01*
X02085Y025245D01*
Y025245D01*
X020847Y02524D01*
X020843Y025236D01*
X020839Y025232D01*
X020835Y025229D01*
X020831Y025227D01*
X020829Y025225D01*
X020827Y025224D01*
X020827Y025224D01*
X020826Y025223D01*
X020826D01*
X02082Y025221D01*
X020814Y025219D01*
X020809Y025217D01*
X020803Y025217D01*
X020799Y025216D01*
X020797D01*
X020796Y025215D01*
X020794D01*
X020793D01*
X020793D01*
X020793D01*
X020788Y025216D01*
X020783Y025216D01*
X020778Y025217D01*
X020774Y025218D01*
X02077Y025219D01*
X020766Y025221D01*
X020763Y025222D01*
X02076Y025224D01*
X020757Y025225D01*
X020755Y025227D01*
X020753Y025228D01*
X020751Y02523D01*
X020749Y02523D01*
X020749Y025231D01*
X020748Y025232D01*
X020748Y025232D01*
X020745Y025235D01*
X020742Y025238D01*
X02074Y025242D01*
X020738Y025245D01*
X020736Y025249D01*
X020734Y025252D01*
X020732Y025258D01*
X020732Y025261D01*
X020731Y025264D01*
X020731Y025266D01*
X020731Y025268D01*
X02073Y02527D01*
Y025272D01*
X020731Y025277D01*
X020731Y025282D01*
X020732Y025286D01*
X020733Y02529D01*
X020735Y025294D01*
X020735Y025296D01*
X020736Y025298D01*
X020737Y025298D01*
Y025298D01*
X020739Y025303D01*
X020742Y025307D01*
X020745Y02531D01*
X020749Y025313D01*
X020752Y025315D01*
X020754Y025317D01*
X020755Y025318D01*
X020756Y025319D01*
X020751D01*
X020746Y025318D01*
X020741Y025318D01*
X020737Y025318D01*
X020733Y025317D01*
X020729Y025317D01*
X020726Y025316D01*
X020723Y025315D01*
X02072Y025315D01*
X020718Y025314D01*
X020716Y025314D01*
X020714Y025313D01*
X020713Y025313D01*
X020712Y025313D01*
X020712Y025312D01*
X020712D01*
X020706Y02531D01*
X020701Y025307D01*
X020697Y025304D01*
X020694Y025301D01*
X020691Y025299D01*
X020689Y025297D01*
X020688Y025295D01*
X020688Y025295D01*
X020686Y025291D01*
X020684Y025288D01*
X020683Y025285D01*
X020682Y025281D01*
X020682Y025279D01*
X020681Y025277D01*
Y025275D01*
X020682Y02527D01*
X020683Y025265D01*
X020685Y025261D01*
X020686Y025258D01*
X020688Y025255D01*
X02069Y025253D01*
X020691Y025252D01*
X020692Y025251D01*
X020694Y025249D01*
X020697Y025247D01*
X020701Y025246D01*
X020704Y025245D01*
X020707Y025243D01*
X020709Y025243D01*
X020711Y025242D01*
X020711Y025242D01*
X020712D01*
X02071Y025218D01*
X020702Y02522D01*
X020695Y025223D01*
X020689Y025225D01*
X020684Y025228D01*
X02068Y025231D01*
X020678Y025233D01*
X020677Y025234D01*
X020676Y025235D01*
X020675Y025236D01*
X020675Y025236D01*
X020675Y025236D01*
X020673Y025239D01*
X020671Y025242D01*
X020667Y025248D01*
X020665Y025254D01*
X020664Y02526D01*
X020663Y025265D01*
X020662Y025268D01*
Y025269D01*
X020662Y025271D01*
Y025273D01*
X020662Y025279D01*
X020663Y025284D01*
X020664Y025289D01*
X020665Y025294D01*
X020667Y025298D01*
X020669Y025302D01*
X020671Y025306D01*
X020673Y025309D01*
X020675Y025312D01*
X020677Y025315D01*
X020679Y025317D01*
X020681Y025318D01*
X020682Y02532D01*
X020683Y025321D01*
X020684Y025322D01*
X020684Y025322D01*
X020689Y025325D01*
X020695Y025328D01*
X020701Y025331D01*
X020708Y025334D01*
X020714Y025336D01*
X020721Y025337D01*
X020728Y025339D01*
X020734Y02534D01*
X02074Y025341D01*
X020746Y025341D01*
X020752Y025342D01*
X020756Y025342D01*
X02076D01*
X020763Y025342D01*
X020764D01*
X020765D01*
X020765D01*
X020765D01*
X020774Y025342D01*
D02*
G37*
G36*
X020855Y02604D02*
X02077D01*
Y026007D01*
X02077Y026004D01*
Y026002D01*
X02077Y026D01*
X02077Y025998D01*
Y025997D01*
X020771Y025997D01*
Y025997D01*
X020772Y025992D01*
X020773Y02599D01*
X020774Y025989D01*
X020775Y025987D01*
X020775Y025986D01*
X020775Y025985D01*
X020776Y025985D01*
X020777Y025983D01*
X020779Y025981D01*
X020783Y025976D01*
X020785Y025974D01*
X020787Y025973D01*
X020788Y025972D01*
X020788Y025972D01*
X020792Y025969D01*
X020796Y025966D01*
X020801Y025963D01*
X020805Y02596D01*
X020809Y025958D01*
X020812Y025956D01*
X020813Y025955D01*
X020814Y025954D01*
X020814Y025954D01*
X020815D01*
X020855Y025928D01*
Y025897D01*
X020803Y02593D01*
X020797Y025934D01*
X020792Y025937D01*
X020788Y025941D01*
X020784Y025944D01*
X020781Y025947D01*
X020779Y025949D01*
X020778Y02595D01*
X020777Y025951D01*
X020775Y025953D01*
X020773Y025956D01*
X02077Y025961D01*
X020769Y025963D01*
X020768Y025964D01*
X020768Y025966D01*
X020767Y025966D01*
X020767Y025961D01*
X020766Y025956D01*
X020764Y025952D01*
X020763Y025948D01*
X020762Y025944D01*
X02076Y025941D01*
X020759Y025938D01*
X020757Y025935D01*
X020756Y025933D01*
X020754Y025931D01*
X020753Y025929D01*
X020752Y025928D01*
X020751Y025927D01*
X02075Y025926D01*
X02075Y025926D01*
X02075Y025925D01*
X020747Y025923D01*
X020744Y025921D01*
X020739Y025918D01*
X020733Y025915D01*
X020727Y025914D01*
X020722Y025913D01*
X020721Y025912D01*
X020719D01*
X020717Y025912D01*
X020716D01*
X020716D01*
X020715D01*
X020709Y025912D01*
X020704Y025913D01*
X020699Y025915D01*
X020695Y025916D01*
X020691Y025918D01*
X020689Y025919D01*
X020687Y02592D01*
X020687Y02592D01*
X020686D01*
X020682Y025923D01*
X020678Y025927D01*
X020675Y02593D01*
X020672Y025934D01*
X02067Y025937D01*
X020669Y025939D01*
X020668Y025941D01*
X020668Y025941D01*
Y025941D01*
X020667Y025944D01*
X020667Y025947D01*
X020665Y025953D01*
X020664Y02596D01*
X020663Y025966D01*
X020663Y025972D01*
Y025974D01*
X020663Y025976D01*
Y026065D01*
X020855D01*
Y02604D01*
D02*
G37*
G36*
X020809Y025881D02*
X020813Y02588D01*
X020821Y025878D01*
X020827Y025875D01*
X020831Y025873D01*
X020833Y025872D01*
X020835Y02587D01*
X020838Y025869D01*
X020839Y025867D01*
X020841Y025866D01*
X020842Y025865D01*
X020843Y025864D01*
X020843Y025864D01*
X020844Y025863D01*
X020846Y02586D01*
X020848Y025857D01*
X02085Y025853D01*
X020852Y025849D01*
X020854Y025843D01*
X020856Y025836D01*
X020857Y025833D01*
X020857Y02583D01*
X020857Y025827D01*
X020858Y025825D01*
X020858Y025823D01*
Y02582D01*
X020858Y025815D01*
X020857Y025809D01*
X020856Y025804D01*
X020854Y025799D01*
X020852Y025795D01*
X02085Y02579D01*
X020849Y025787D01*
X020846Y025783D01*
X020844Y02578D01*
X020842Y025777D01*
X02084Y025775D01*
X020838Y025773D01*
X020837Y025772D01*
X020836Y025771D01*
X020835Y02577D01*
X020835Y02577D01*
X020831Y025767D01*
X020827Y025765D01*
X020824Y025763D01*
X02082Y025761D01*
X020812Y025758D01*
X020805Y025757D01*
X020802Y025756D01*
X020799Y025756D01*
X020796Y025755D01*
X020794Y025755D01*
X020792Y025755D01*
X020791D01*
X02079D01*
X02079D01*
X020785Y025755D01*
X02078Y025756D01*
X020775Y025756D01*
X020771Y025758D01*
X020767Y025759D01*
X020763Y02576D01*
X02076Y025762D01*
X020757Y025763D01*
X020754Y025765D01*
X020752Y025767D01*
X02075Y025768D01*
X020748Y025769D01*
X020747Y025771D01*
X020746Y025771D01*
X020745Y025772D01*
X020745Y025772D01*
X020742Y025776D01*
X020739Y025779D01*
X020737Y025782D01*
X020735Y025786D01*
X020733Y02579D01*
X020732Y025793D01*
X02073Y0258D01*
X020729Y025803D01*
X020728Y025806D01*
X020728Y025808D01*
X020728Y02581D01*
X020727Y025812D01*
Y025818D01*
X020728Y025821D01*
X020729Y025828D01*
X020731Y025834D01*
X020734Y02584D01*
X020736Y025844D01*
X020737Y025846D01*
X020738Y025848D01*
X020739Y025849D01*
X020739Y02585D01*
X020739Y025851D01*
X02074Y025851D01*
X020688Y025841D01*
Y025764D01*
X020665D01*
Y025859D01*
X020764Y025878D01*
X020767Y025856D01*
X020764Y025854D01*
X020762Y025851D01*
X020759Y025849D01*
X020757Y025847D01*
X020756Y025844D01*
X020754Y025843D01*
X020754Y025842D01*
X020753Y025841D01*
X020752Y025838D01*
X02075Y025834D01*
X02075Y025831D01*
X020749Y025828D01*
X020749Y025825D01*
X020748Y025823D01*
Y025817D01*
X020749Y025814D01*
X02075Y025808D01*
X020752Y025803D01*
X020754Y025799D01*
X020756Y025795D01*
X020758Y025793D01*
X02076Y025792D01*
X02076Y025791D01*
X02076D01*
X020765Y025787D01*
X02077Y025784D01*
X020775Y025782D01*
X02078Y025781D01*
X020785Y02578D01*
X020787Y02578D01*
X020788D01*
X02079Y02578D01*
X020791D01*
X020791D01*
X020792D01*
X020796D01*
X020799Y02578D01*
X020806Y025782D01*
X020812Y025784D01*
X020817Y025785D01*
X020821Y025788D01*
X020824Y02579D01*
X020824Y02579D01*
X020825Y025791D01*
X020826Y025791D01*
X020826Y025792D01*
X020828Y025794D01*
X02083Y025796D01*
X020833Y025801D01*
X020835Y025806D01*
X020837Y02581D01*
X020838Y025814D01*
X020838Y025818D01*
X020839Y025819D01*
Y02582D01*
X020838Y025826D01*
X020837Y02583D01*
X020836Y025835D01*
X020834Y025838D01*
X020832Y025841D01*
X020831Y025843D01*
X02083Y025844D01*
X02083Y025845D01*
X020826Y025848D01*
X020822Y025851D01*
X020817Y025853D01*
X020813Y025855D01*
X020809Y025856D01*
X020806Y025857D01*
X020804Y025857D01*
X020803Y025857D01*
X020803D01*
X020803D01*
X020804Y025882D01*
X020809Y025881D01*
D02*
G37*
G36*
X022155Y027775D02*
X022164Y027774D01*
X022169Y027773D01*
X022173Y027772D01*
X022177Y027771D01*
X022181Y02777D01*
X022184Y027769D01*
X022187Y027768D01*
X02219Y027767D01*
X022192Y027766D01*
X022193Y027766D01*
X022195Y027765D01*
X022195Y027764D01*
X022196D01*
X022204Y02776D01*
X022211Y027754D01*
X022217Y027749D01*
X022222Y027744D01*
X022226Y027739D01*
X022227Y027737D01*
X022229Y027735D01*
X022229Y027734D01*
X02223Y027733D01*
X022231Y027732D01*
X022231Y027732D01*
X022233Y027728D01*
X022235Y027724D01*
X022238Y027716D01*
X02224Y027708D01*
X022242Y0277D01*
X022242Y027697D01*
X022243Y027694D01*
X022243Y027691D01*
Y027689D01*
X022243Y027687D01*
Y027685D01*
X022243Y02768D01*
X022243Y027675D01*
X022241Y027666D01*
X022239Y027658D01*
X022238Y027655D01*
X022237Y027651D01*
X022236Y027648D01*
X022235Y027646D01*
X022234Y027643D01*
X022233Y027641D01*
X022233Y02764D01*
X022232Y027638D01*
X022231Y027638D01*
Y027638D01*
X022237Y02763D01*
X022242Y027622D01*
X022246Y027615D01*
X022249Y027609D01*
X022251Y027607D01*
X022252Y027604D01*
X022253Y027602D01*
X022254Y0276D01*
X022254Y027598D01*
X022255Y027597D01*
X022255Y027597D01*
Y027596D01*
X022238Y027589D01*
X022235Y027594D01*
X022233Y0276D01*
X022229Y027606D01*
X022226Y027611D01*
X022224Y027615D01*
X022223Y027617D01*
X022222Y027618D01*
X022221Y02762D01*
X02222Y02762D01*
X02222Y027621D01*
Y027621D01*
X022214Y027616D01*
X022209Y027612D01*
X022203Y027608D01*
X022198Y027605D01*
X022193Y027603D01*
X022192Y027602D01*
X02219Y027601D01*
X022189Y0276D01*
X022188Y0276D01*
X022187Y0276D01*
X022187D01*
X02218Y027597D01*
X022172Y027595D01*
X022165Y027594D01*
X022158Y027593D01*
X022156Y027593D01*
X022153Y027593D01*
X02215D01*
X022148Y027592D01*
X022146D01*
X022145D01*
X022144D01*
X022144D01*
X022134Y027593D01*
X022124Y027594D01*
X02212Y027595D01*
X022116Y027596D01*
X022112Y027597D01*
X022108Y027598D01*
X022105Y027599D01*
X022102Y0276D01*
X022099Y027601D01*
X022097Y027602D01*
X022095Y027603D01*
X022094Y027603D01*
X022093Y027604D01*
X022093D01*
X022085Y027608D01*
X022078Y027613D01*
X022072Y027619D01*
X022067Y027624D01*
X022063Y027629D01*
X022061Y027631D01*
X02206Y027633D01*
X022059Y027634D01*
X022058Y027635D01*
X022058Y027636D01*
X022058Y027636D01*
X022056Y02764D01*
X022054Y027644D01*
X02205Y027653D01*
X022048Y027661D01*
X022047Y027668D01*
X022046Y027671D01*
X022046Y027675D01*
X022045Y027677D01*
Y02768D01*
X022045Y027682D01*
Y027689D01*
X022046Y027694D01*
X022047Y027703D01*
X022049Y027711D01*
X02205Y027714D01*
X022051Y027718D01*
X022052Y027721D01*
X022053Y027724D01*
X022054Y027726D01*
X022055Y027728D01*
X022056Y02773D01*
X022057Y027731D01*
X022057Y027731D01*
X022057Y027732D01*
X022062Y027739D01*
X022068Y027746D01*
X022074Y027751D01*
X022079Y027756D01*
X022085Y02776D01*
X022087Y027761D01*
X022089Y027762D01*
X02209Y027763D01*
X022092Y027764D01*
X022092Y027764D01*
X022093Y027764D01*
X022102Y027768D01*
X022111Y027771D01*
X022119Y027773D01*
X022127Y027774D01*
X022131Y027775D01*
X022134Y027775D01*
X022137Y027776D01*
X02214D01*
X022142Y027776D01*
X022143D01*
X022144D01*
X022144D01*
X022155Y027775D01*
D02*
G37*
G36*
X02224Y027444D02*
X022217D01*
Y027539D01*
X022213Y027535D01*
X022211Y027534D01*
X022209Y027532D01*
X022207Y027531D01*
X022206Y02753D01*
X022205Y027529D01*
X022205Y027529D01*
X022203Y027527D01*
X022202Y027526D01*
X022198Y027522D01*
X022194Y027517D01*
X02219Y027513D01*
X022187Y027508D01*
X022185Y027506D01*
X022183Y027505D01*
X022182Y027503D01*
X022181Y027502D01*
X022181Y027502D01*
X02218Y027501D01*
X022177Y027497D01*
X022173Y027492D01*
X022169Y027489D01*
X022166Y027485D01*
X022163Y027482D01*
X022161Y027479D01*
X022158Y027476D01*
X022156Y027474D01*
X022154Y027472D01*
X022152Y02747D01*
X022151Y027469D01*
X022149Y027467D01*
X022148Y027466D01*
X022147Y027465D01*
X022142Y027461D01*
X022138Y027458D01*
X022134Y027455D01*
X022131Y027453D01*
X022128Y027451D01*
X022125Y02745D01*
X022124Y02745D01*
X022123Y027449D01*
X022119Y027448D01*
X022115Y027447D01*
X022111Y027446D01*
X022108Y027445D01*
X022105Y027445D01*
X022103Y027444D01*
X022101D01*
X022101D01*
X022097Y027445D01*
X022093Y027445D01*
X022089Y027446D01*
X022085Y027447D01*
X022079Y02745D01*
X022074Y027453D01*
X022071Y027454D01*
X022069Y027456D01*
X022067Y027457D01*
X022066Y027458D01*
X022065Y027459D01*
X022064Y02746D01*
X022063Y027461D01*
X022063Y027461D01*
X02206Y027464D01*
X022058Y027467D01*
X022056Y027471D01*
X022054Y027474D01*
X022051Y027482D01*
X022049Y027489D01*
X022049Y027492D01*
X022048Y027495D01*
X022048Y027498D01*
X022048Y0275D01*
X022048Y027502D01*
Y027505D01*
X022048Y02751D01*
X022048Y027514D01*
X022049Y027519D01*
X02205Y027523D01*
X022051Y027527D01*
X022052Y02753D01*
X022053Y027534D01*
X022055Y027537D01*
X022056Y02754D01*
X022057Y027542D01*
X022059Y027544D01*
X02206Y027545D01*
X022061Y027547D01*
X022061Y027548D01*
X022062Y027548D01*
X022062Y027548D01*
X022065Y027551D01*
X022068Y027554D01*
X022071Y027556D01*
X022074Y027558D01*
X022081Y027561D01*
X022088Y027564D01*
X022091Y027564D01*
X022094Y027565D01*
X022096Y027566D01*
X022098Y027566D01*
X0221Y027567D01*
X022102D01*
X022103Y027567D01*
X022103D01*
X022105Y027543D01*
X022099Y027542D01*
X022093Y027541D01*
X022089Y02754D01*
X022085Y027538D01*
X022081Y027536D01*
X022079Y027534D01*
X022078Y027533D01*
X022077Y027533D01*
X022074Y027528D01*
X022071Y027524D01*
X022069Y027519D01*
X022068Y027515D01*
X022067Y027511D01*
X022067Y027508D01*
X022067Y027507D01*
Y027505D01*
X022067Y027499D01*
X022068Y027494D01*
X02207Y02749D01*
X022072Y027486D01*
X022074Y027483D01*
X022075Y027481D01*
X022076Y027479D01*
X022077Y027479D01*
X02208Y027476D01*
X022084Y027473D01*
X022088Y027471D01*
X022092Y02747D01*
X022095Y027469D01*
X022098Y027469D01*
X0221Y027469D01*
X0221D01*
X0221D01*
X022105Y027469D01*
X02211Y02747D01*
X022115Y027472D01*
X02212Y027474D01*
X022123Y027476D01*
X022126Y027478D01*
X022127Y027479D01*
X022128Y027479D01*
X022128Y02748D01*
X022129D01*
X022132Y027482D01*
X022135Y027485D01*
X022138Y027488D01*
X022141Y027491D01*
X022148Y027498D01*
X022155Y027505D01*
X022158Y027509D01*
X022161Y027512D01*
X022163Y027515D01*
X022165Y027517D01*
X022167Y027519D01*
X022168Y027521D01*
X022169Y027522D01*
X022169Y027522D01*
X022175Y027529D01*
X022181Y027536D01*
X022186Y027541D01*
X02219Y027545D01*
X022193Y027549D01*
X022196Y027551D01*
X022198Y027553D01*
X022198Y027553D01*
X022198D01*
X022203Y027557D01*
X022207Y02756D01*
X022212Y027563D01*
X022216Y027565D01*
X022219Y027567D01*
X022221Y027568D01*
X022223Y027568D01*
X022223Y027569D01*
X022224D01*
X022227Y02757D01*
X022229Y02757D01*
X022232Y027571D01*
X022235Y027571D01*
X022237Y027571D01*
X022239D01*
X02224D01*
X02224D01*
Y027444D01*
D02*
G37*
G36*
X022225Y025588D02*
X022234Y025587D01*
X022239Y025585D01*
X022243Y025585D01*
X022247Y025583D01*
X022251Y025582D01*
X022254Y025582D01*
X022257Y02558D01*
X02226Y025579D01*
X022262Y025578D01*
X022263Y025578D01*
X022265Y025577D01*
X022265Y025577D01*
X022266D01*
X022274Y025572D01*
X022281Y025567D01*
X022287Y025562D01*
X022292Y025556D01*
X022296Y025552D01*
X022297Y02555D01*
X022299Y025548D01*
X022299Y025546D01*
X0223Y025545D01*
X022301Y025545D01*
X022301Y025544D01*
X022303Y02554D01*
X022305Y025536D01*
X022308Y025528D01*
X02231Y02552D01*
X022312Y025513D01*
X022312Y02551D01*
X022313Y025506D01*
X022313Y025504D01*
Y025501D01*
X022313Y0255D01*
Y025497D01*
X022313Y025492D01*
X022313Y025488D01*
X022311Y025479D01*
X022309Y025471D01*
X022308Y025467D01*
X022307Y025464D01*
X022306Y025461D01*
X022305Y025458D01*
X022304Y025456D01*
X022303Y025454D01*
X022303Y025452D01*
X022302Y025451D01*
X022301Y02545D01*
Y02545D01*
X022307Y025442D01*
X022312Y025435D01*
X022316Y025428D01*
X022319Y025422D01*
X022321Y025419D01*
X022322Y025416D01*
X022323Y025414D01*
X022324Y025412D01*
X022324Y025411D01*
X022325Y02541D01*
X022325Y025409D01*
Y025409D01*
X022308Y025401D01*
X022305Y025407D01*
X022303Y025413D01*
X022299Y025418D01*
X022296Y025423D01*
X022294Y025427D01*
X022293Y025429D01*
X022292Y025431D01*
X022291Y025432D01*
X02229Y025433D01*
X02229Y025433D01*
Y025434D01*
X022284Y025429D01*
X022279Y025424D01*
X022273Y02542D01*
X022268Y025417D01*
X022263Y025415D01*
X022262Y025414D01*
X02226Y025413D01*
X022259Y025413D01*
X022258Y025412D01*
X022257Y025412D01*
X022257D01*
X02225Y02541D01*
X022242Y025408D01*
X022235Y025406D01*
X022228Y025406D01*
X022226Y025405D01*
X022223Y025405D01*
X02222D01*
X022218Y025405D01*
X022216D01*
X022215D01*
X022214D01*
X022214D01*
X022204Y025405D01*
X022194Y025406D01*
X02219Y025407D01*
X022186Y025408D01*
X022182Y02541D01*
X022178Y02541D01*
X022175Y025411D01*
X022172Y025413D01*
X022169Y025413D01*
X022167Y025415D01*
X022165Y025415D01*
X022164Y025416D01*
X022163Y025416D01*
X022163D01*
X022155Y025421D01*
X022148Y025426D01*
X022142Y025431D01*
X022137Y025436D01*
X022133Y025441D01*
X022131Y025443D01*
X02213Y025445D01*
X022129Y025447D01*
X022128Y025448D01*
X022128Y025448D01*
X022128Y025449D01*
X022126Y025453D01*
X022124Y025457D01*
X02212Y025465D01*
X022118Y025473D01*
X022117Y02548D01*
X022116Y025484D01*
X022116Y025487D01*
X022115Y02549D01*
Y025492D01*
X022115Y025494D01*
Y025501D01*
X022116Y025506D01*
X022117Y025515D01*
X022119Y025523D01*
X02212Y025527D01*
X022121Y02553D01*
X022122Y025533D01*
X022123Y025536D01*
X022124Y025538D01*
X022125Y02554D01*
X022126Y025542D01*
X022127Y025543D01*
X022127Y025544D01*
X022127Y025544D01*
X022132Y025552D01*
X022138Y025558D01*
X022144Y025564D01*
X022149Y025568D01*
X022155Y025572D01*
X022157Y025574D01*
X022159Y025575D01*
X02216Y025576D01*
X022162Y025576D01*
X022162Y025577D01*
X022163Y025577D01*
X022172Y025581D01*
X022181Y025583D01*
X022189Y025585D01*
X022197Y025587D01*
X022201Y025587D01*
X022204Y025588D01*
X022207Y025588D01*
X02221D01*
X022212Y025588D01*
X022213D01*
X022214D01*
X022214D01*
X022225Y025588D01*
D02*
G37*
G36*
X022187Y025358D02*
X022185Y025354D01*
X022183Y02535D01*
X022181Y025346D01*
X022179Y025343D01*
X022178Y02534D01*
X022177Y025338D01*
X022177Y025338D01*
Y025338D01*
X022173Y025333D01*
X02217Y025328D01*
X022168Y025324D01*
X022165Y025321D01*
X022163Y025319D01*
X022162Y025317D01*
X02216Y025316D01*
X02216Y025315D01*
X02231D01*
Y025292D01*
X022118D01*
Y025307D01*
X022122Y02531D01*
X022127Y025313D01*
X022131Y025316D01*
X022135Y02532D01*
X022138Y025323D01*
X022141Y025326D01*
X022142Y025327D01*
X022143Y025328D01*
X022143Y025328D01*
X022143Y025328D01*
X022148Y025334D01*
X022152Y02534D01*
X022156Y025345D01*
X022159Y025351D01*
X022162Y025356D01*
X022163Y025357D01*
X022164Y025359D01*
X022165Y025361D01*
X022165Y025362D01*
X022166Y025362D01*
Y025362D01*
X022188D01*
X022187Y025358D01*
D02*
G37*
G36*
X031461Y019691D02*
X031465Y01969D01*
X031469Y01969D01*
X031473Y019689D01*
X031477Y019688D01*
X03148Y019687D01*
X031483Y019685D01*
X031485Y019684D01*
X031487Y019683D01*
X031489Y019682D01*
X031491Y019681D01*
X031492Y01968D01*
X031493Y019679D01*
X031493Y019679D01*
X031494Y019679D01*
X031496Y019676D01*
X031498Y019673D01*
X0315Y01967D01*
X031502Y019667D01*
X031504Y019661D01*
X031506Y019654D01*
X031507Y019649D01*
X031507Y019646D01*
X031508Y019644D01*
X031508Y019643D01*
Y01964D01*
X031508Y019634D01*
X031507Y019628D01*
X031506Y019623D01*
X031504Y019619D01*
X031503Y019615D01*
X031502Y019613D01*
X031501Y019611D01*
X031501Y019611D01*
X031498Y019606D01*
X031495Y019602D01*
X031492Y019599D01*
X031489Y019597D01*
X031485Y019595D01*
X031483Y019593D01*
X031482Y019592D01*
X031481Y019592D01*
X031481D01*
X031476Y01959D01*
X03147Y019589D01*
X031463Y019587D01*
X031457Y019587D01*
X031452Y019586D01*
X03145D01*
X031448Y019586D01*
X031446D01*
X031445D01*
X031444D01*
X031444D01*
X031313D01*
Y019612D01*
X031445D01*
X031451D01*
X031456Y019612D01*
X03146Y019612D01*
X031463Y019613D01*
X031466Y019613D01*
X031468Y019614D01*
X031469Y019614D01*
X031469D01*
X031472Y019615D01*
X031474Y019617D01*
X031476Y019618D01*
X031478Y01962D01*
X031479Y019621D01*
X03148Y019623D01*
X031481Y019623D01*
X031481Y019624D01*
X031482Y019626D01*
X031484Y019629D01*
X031484Y019632D01*
X031485Y019635D01*
X031485Y019637D01*
X031485Y019639D01*
Y01964D01*
X031485Y019645D01*
X031484Y019649D01*
X031483Y019652D01*
X031481Y019655D01*
X03148Y019657D01*
X031478Y019659D01*
X031477Y01966D01*
X031477Y019661D01*
X031476Y019662D01*
X031474Y019663D01*
X031469Y019665D01*
X031464Y019666D01*
X031459Y019667D01*
X031454Y019668D01*
X031453D01*
X031451Y019668D01*
X031449Y019669D01*
X031448D01*
X031448D01*
X031447D01*
X031451Y019692D01*
X031456D01*
X031461Y019691D01*
D02*
G37*
G36*
X031424Y019555D02*
X031432Y019554D01*
X03144Y019554D01*
X031447Y019552D01*
X031454Y019551D01*
X031459Y019549D01*
X031465Y019548D01*
X031469Y019546D01*
X031473Y019544D01*
X031477Y019543D01*
X03148Y019541D01*
X031482Y01954D01*
X031484Y019538D01*
X031485Y019538D01*
X031486Y019537D01*
X031486Y019537D01*
X03149Y019533D01*
X031494Y019529D01*
X031496Y019525D01*
X031499Y019521D01*
X031501Y019517D01*
X031503Y019513D01*
X031504Y01951D01*
X031505Y019506D01*
X031506Y019502D01*
X031507Y019499D01*
X031507Y019496D01*
X031508Y019494D01*
Y019492D01*
X031508Y01949D01*
Y019489D01*
X031508Y019482D01*
X031507Y019477D01*
X031505Y019471D01*
X031504Y019467D01*
X031502Y019463D01*
X031501Y01946D01*
X031501Y019459D01*
X0315Y019458D01*
X0315Y019458D01*
Y019458D01*
X031497Y019453D01*
X031493Y019449D01*
X031489Y019445D01*
X031485Y019442D01*
X031481Y01944D01*
X031479Y019438D01*
X031477Y019437D01*
X031477Y019437D01*
X031476Y019436D01*
X031476D01*
X03147Y019434D01*
X031464Y019432D01*
X031459Y01943D01*
X031453Y01943D01*
X031449Y019429D01*
X031447D01*
X031446Y019428D01*
X031444D01*
X031443D01*
X031443D01*
X031443D01*
X031438Y019429D01*
X031433Y019429D01*
X031428Y01943D01*
X031424Y019431D01*
X03142Y019432D01*
X031416Y019434D01*
X031413Y019435D01*
X03141Y019437D01*
X031407Y019438D01*
X031405Y01944D01*
X031403Y019441D01*
X031401Y019443D01*
X031399Y019443D01*
X031398Y019444D01*
X031398Y019445D01*
X031398Y019445D01*
X031395Y019448D01*
X031392Y019451D01*
X03139Y019455D01*
X031388Y019458D01*
X031386Y019462D01*
X031384Y019465D01*
X031382Y019471D01*
X031382Y019474D01*
X031381Y019477D01*
X031381Y019479D01*
X031381Y019481D01*
X03138Y019483D01*
Y019485D01*
X031381Y01949D01*
X031381Y019495D01*
X031382Y019499D01*
X031383Y019503D01*
X031385Y019507D01*
X031385Y019509D01*
X031386Y019511D01*
X031387Y019511D01*
Y019511D01*
X031389Y019516D01*
X031392Y01952D01*
X031395Y019523D01*
X031399Y019526D01*
X031402Y019528D01*
X031404Y01953D01*
X031405Y019531D01*
X031406Y019532D01*
X031401D01*
X031396Y019531D01*
X031391Y019531D01*
X031387Y019531D01*
X031383Y01953D01*
X031379Y01953D01*
X031376Y019529D01*
X031373Y019528D01*
X03137Y019528D01*
X031368Y019527D01*
X031366Y019527D01*
X031364Y019526D01*
X031363Y019526D01*
X031362Y019526D01*
X031362Y019525D01*
X031362D01*
X031356Y019523D01*
X031351Y01952D01*
X031347Y019517D01*
X031344Y019514D01*
X031341Y019512D01*
X031339Y01951D01*
X031338Y019508D01*
X031338Y019508D01*
X031336Y019504D01*
X031334Y019501D01*
X031333Y019498D01*
X031332Y019494D01*
X031332Y019492D01*
X031331Y01949D01*
Y019488D01*
X031332Y019483D01*
X031333Y019478D01*
X031335Y019474D01*
X031336Y019471D01*
X031338Y019468D01*
X03134Y019466D01*
X031341Y019465D01*
X031342Y019464D01*
X031344Y019462D01*
X031347Y01946D01*
X031351Y019459D01*
X031354Y019458D01*
X031357Y019456D01*
X031359Y019456D01*
X031361Y019455D01*
X031361Y019455D01*
X031362D01*
X03136Y019431D01*
X031352Y019433D01*
X031345Y019436D01*
X031339Y019438D01*
X031334Y019441D01*
X03133Y019444D01*
X031328Y019446D01*
X031327Y019447D01*
X031326Y019448D01*
X031325Y019449D01*
X031325Y019449D01*
X031325Y019449D01*
X031323Y019452D01*
X031321Y019455D01*
X031317Y019461D01*
X031315Y019467D01*
X031314Y019473D01*
X031313Y019478D01*
X031312Y019481D01*
Y019482D01*
X031312Y019484D01*
Y019486D01*
X031312Y019492D01*
X031313Y019497D01*
X031314Y019502D01*
X031315Y019507D01*
X031317Y019511D01*
X031319Y019515D01*
X031321Y019519D01*
X031323Y019522D01*
X031325Y019525D01*
X031327Y019528D01*
X031329Y01953D01*
X031331Y019531D01*
X031332Y019533D01*
X031333Y019534D01*
X031334Y019535D01*
X031334Y019535D01*
X031339Y019538D01*
X031345Y019541D01*
X031351Y019544D01*
X031358Y019547D01*
X031364Y019549D01*
X031371Y01955D01*
X031378Y019552D01*
X031384Y019553D01*
X03139Y019554D01*
X031396Y019554D01*
X031402Y019555D01*
X031406Y019555D01*
X03141D01*
X031413Y019555D01*
X031414D01*
X031415D01*
X031415D01*
X031415D01*
X031424Y019555D01*
D02*
G37*
G36*
X019529Y022688D02*
X019538Y022687D01*
X019547Y022685D01*
X019551Y022684D01*
X019555Y022683D01*
X019558Y022683D01*
X019561Y022682D01*
X019564Y022681D01*
X019566Y02268D01*
X019568Y022679D01*
X019569Y022679D01*
X01957Y022678D01*
X01957D01*
X019578Y022674D01*
X019586Y02267D01*
X019592Y022665D01*
X019595Y022662D01*
X019597Y02266D01*
X019599Y022658D01*
X019601Y022655D01*
X019603Y022654D01*
X019604Y022652D01*
X019605Y022651D01*
X019606Y02265D01*
X019606Y022649D01*
X019607Y022649D01*
X019609Y022645D01*
X019611Y022641D01*
X019614Y022633D01*
X019616Y022624D01*
X019618Y022616D01*
X019618Y022613D01*
X019619Y022609D01*
X019619Y022606D01*
Y022604D01*
X019619Y022601D01*
Y022598D01*
X019619Y022593D01*
X019618Y022588D01*
X019618Y022583D01*
X019617Y022578D01*
X019615Y022573D01*
X019614Y022569D01*
X019613Y022565D01*
X019611Y022562D01*
X019609Y022559D01*
X019608Y022556D01*
X019607Y022554D01*
X019605Y022551D01*
X019604Y02255D01*
X019604Y022549D01*
X019603Y022548D01*
X019603Y022548D01*
X019599Y022544D01*
X019596Y022541D01*
X019592Y022537D01*
X019588Y022534D01*
X019581Y022529D01*
X019573Y022526D01*
X019569Y022524D01*
X019566Y022523D01*
X019563Y022521D01*
X01956Y022521D01*
X019558Y02252D01*
X019557Y022519D01*
X019555Y022519D01*
X019555D01*
X019549Y022544D01*
X019553Y022546D01*
X019557Y022547D01*
X019561Y022548D01*
X019565Y02255D01*
X019568Y022551D01*
X019571Y022553D01*
X019574Y022555D01*
X019576Y022557D01*
X019578Y022558D01*
X01958Y02256D01*
X019582Y022561D01*
X019583Y022562D01*
X019584Y022563D01*
X019585Y022564D01*
X019585Y022564D01*
X019585Y022565D01*
X019588Y022567D01*
X019589Y02257D01*
X019592Y022577D01*
X019595Y022582D01*
X019596Y022588D01*
X019597Y022593D01*
X019597Y022595D01*
Y022597D01*
X019598Y022599D01*
Y022601D01*
X019597Y022607D01*
X019596Y022613D01*
X019595Y022619D01*
X019593Y022624D01*
X019591Y022627D01*
X019591Y022629D01*
X01959Y022631D01*
X01959Y022632D01*
X019589Y022632D01*
X019589Y022633D01*
Y022633D01*
X019585Y022639D01*
X019581Y022643D01*
X019576Y022647D01*
X019572Y02265D01*
X019568Y022652D01*
X019564Y022654D01*
X019563Y022655D01*
X019562Y022655D01*
X019562Y022655D01*
X019561D01*
X019554Y022658D01*
X019547Y022659D01*
X01954Y022661D01*
X019533Y022662D01*
X01953Y022662D01*
X019527Y022662D01*
X019525D01*
X019523Y022662D01*
X019521D01*
X01952D01*
X019519D01*
X019519D01*
X019511Y022662D01*
X019505Y022662D01*
X019499Y02266D01*
X019493Y022659D01*
X019488Y022659D01*
X019486Y022658D01*
X019485Y022657D01*
X019483Y022657D01*
X019483Y022657D01*
X019482Y022657D01*
X019482D01*
X019475Y022654D01*
X01947Y022651D01*
X019465Y022647D01*
X019461Y022644D01*
X019457Y022641D01*
X019455Y022638D01*
X019454Y022636D01*
X019453Y022636D01*
Y022636D01*
X01945Y02263D01*
X019447Y022624D01*
X019445Y022618D01*
X019444Y022612D01*
X019443Y022606D01*
X019443Y022604D01*
Y022602D01*
X019442Y022601D01*
Y022599D01*
X019443Y022592D01*
X019444Y022585D01*
X019445Y02258D01*
X019447Y022575D01*
X019449Y022572D01*
X01945Y022569D01*
X019452Y022567D01*
X019452Y022567D01*
X019456Y022562D01*
X019461Y022558D01*
X019466Y022555D01*
X019471Y022552D01*
X019475Y02255D01*
X019478Y022549D01*
X019479Y022549D01*
X019481Y022548D01*
X019482Y022547D01*
X019482Y022547D01*
X019483D01*
X019477Y022522D01*
X019472Y022524D01*
X019467Y022526D01*
X019463Y022528D01*
X019459Y02253D01*
X019455Y022532D01*
X019452Y022534D01*
X019449Y022537D01*
X019446Y022539D01*
X019444Y022541D01*
X019442Y022543D01*
X01944Y022545D01*
X019438Y022546D01*
X019437Y022548D01*
X019436Y022549D01*
X019436Y022549D01*
X019436Y02255D01*
X019433Y022554D01*
X019431Y022557D01*
X019429Y022561D01*
X019427Y022565D01*
X019424Y022574D01*
X019423Y022581D01*
X019422Y022585D01*
X019422Y022588D01*
X019421Y022591D01*
X019421Y022593D01*
X019421Y022595D01*
Y022598D01*
X019421Y022607D01*
X019423Y022616D01*
X019424Y022624D01*
X019426Y022627D01*
X019427Y022631D01*
X019428Y022634D01*
X019429Y022637D01*
X01943Y022639D01*
X019431Y022641D01*
X019431Y022642D01*
X019432Y022644D01*
X019432Y022644D01*
X019432Y022645D01*
X019437Y022652D01*
X019443Y022659D01*
X019448Y022664D01*
X019454Y022669D01*
X019459Y022672D01*
X019461Y022674D01*
X019463Y022675D01*
X019464Y022676D01*
X019465Y022677D01*
X019466Y022677D01*
X019467Y022677D01*
X019475Y022681D01*
X019484Y022684D01*
X019493Y022686D01*
X019501Y022687D01*
X019504Y022688D01*
X019508Y022688D01*
X019511Y022688D01*
X019514D01*
X019516Y022688D01*
X019517D01*
X019518D01*
X019519D01*
X019529Y022688D01*
D02*
G37*
G36*
X01957Y022496D02*
X019574Y022496D01*
X019581Y022493D01*
X019588Y02249D01*
X019591Y022488D01*
X019594Y022487D01*
X019596Y022485D01*
X019598Y022483D01*
X0196Y022482D01*
X019601Y022481D01*
X019603Y02248D01*
X019603Y022479D01*
X019604Y022478D01*
X019604Y022478D01*
X019607Y022475D01*
X019609Y022472D01*
X019611Y022468D01*
X019613Y022465D01*
X019616Y022458D01*
X019617Y022451D01*
X019618Y022448D01*
X019618Y022445D01*
X019619Y022443D01*
X019619Y022441D01*
X019619Y022439D01*
Y022436D01*
X019619Y022431D01*
X019618Y022426D01*
X019618Y022422D01*
X019616Y022417D01*
X019615Y022413D01*
X019614Y02241D01*
X019612Y022406D01*
X01961Y022403D01*
X019609Y0224D01*
X019607Y022397D01*
X019606Y022395D01*
X019604Y022393D01*
X019603Y022392D01*
X019603Y022391D01*
X019602Y02239D01*
X019602Y02239D01*
X019598Y022387D01*
X019595Y022384D01*
X019591Y022382D01*
X019588Y022379D01*
X019584Y022378D01*
X019581Y022376D01*
X019574Y022374D01*
X019571Y022373D01*
X019568Y022373D01*
X019566Y022372D01*
X019563Y022372D01*
X019562Y022372D01*
X01956D01*
X01956D01*
X019559D01*
X019553Y022372D01*
X019547Y022373D01*
X019541Y022375D01*
X019537Y022376D01*
X019533Y022378D01*
X019531Y02238D01*
X019529Y022381D01*
X019528Y022381D01*
X019524Y022385D01*
X019521Y022389D01*
X019518Y022393D01*
X019516Y022398D01*
X019514Y022402D01*
X019513Y022405D01*
X019513Y022406D01*
X019512Y022407D01*
X019512Y022407D01*
Y022408D01*
X019509Y022403D01*
X019507Y022399D01*
X019504Y022396D01*
X019502Y022393D01*
X019499Y022391D01*
X019498Y022389D01*
X019496Y022388D01*
X019496Y022388D01*
X019492Y022386D01*
X019488Y022384D01*
X019484Y022383D01*
X019481Y022382D01*
X019478Y022381D01*
X019475Y022381D01*
X019474D01*
X019473D01*
X019468Y022381D01*
X019464Y022382D01*
X01946Y022383D01*
X019456Y022385D01*
X019453Y022386D01*
X01945Y022387D01*
X019449Y022388D01*
X019449Y022388D01*
X019444Y022391D01*
X019441Y022394D01*
X019438Y022398D01*
X019435Y022401D01*
X019433Y022404D01*
X019431Y022406D01*
X019431Y022408D01*
X01943Y022408D01*
Y022408D01*
X019428Y022413D01*
X019426Y022418D01*
X019425Y022423D01*
X019424Y022428D01*
X019424Y022431D01*
X019423Y022434D01*
Y022441D01*
X019424Y022445D01*
X019425Y022453D01*
X019427Y022459D01*
X01943Y022465D01*
X019431Y022467D01*
X019432Y022469D01*
X019433Y022471D01*
X019434Y022472D01*
X019435Y022473D01*
X019436Y022474D01*
X019436Y022475D01*
X019436Y022475D01*
X019442Y02248D01*
X019447Y022485D01*
X019454Y022488D01*
X01946Y022491D01*
X019465Y022492D01*
X019467Y022493D01*
X019469Y022494D01*
X019471Y022494D01*
X019472Y022494D01*
X019473Y022495D01*
X019473D01*
X019477Y022471D01*
X019471Y02247D01*
X019466Y022468D01*
X019461Y022466D01*
X019458Y022464D01*
X019455Y022462D01*
X019453Y022461D01*
X019452Y02246D01*
X019451Y022459D01*
X019449Y022456D01*
X019446Y022452D01*
X019445Y022448D01*
X019444Y022445D01*
X019443Y022441D01*
X019443Y022439D01*
Y022437D01*
X019443Y022432D01*
X019444Y022427D01*
X019445Y022423D01*
X019447Y02242D01*
X019449Y022418D01*
X01945Y022416D01*
X019451Y022414D01*
X019451Y022414D01*
X019455Y022411D01*
X019458Y022409D01*
X019462Y022407D01*
X019465Y022406D01*
X019468Y022406D01*
X01947Y022405D01*
X019472D01*
X019472D01*
X019473D01*
X019476D01*
X019478Y022406D01*
X019483Y022407D01*
X019487Y022409D01*
X019491Y022411D01*
X019493Y022413D01*
X019495Y022415D01*
X019496Y022417D01*
X019497Y022417D01*
Y022417D01*
X019499Y022422D01*
X019501Y022426D01*
X019503Y022431D01*
X019503Y022435D01*
X019504Y022439D01*
X019504Y022442D01*
Y022446D01*
X019504Y022447D01*
Y022448D01*
X019525Y022451D01*
X019524Y022447D01*
X019524Y022444D01*
X019523Y022441D01*
X019523Y022439D01*
X019522Y022437D01*
Y022434D01*
X019523Y022428D01*
X019524Y022423D01*
X019526Y022418D01*
X019528Y022414D01*
X01953Y022411D01*
X019531Y022409D01*
X019532Y022408D01*
X019533Y022407D01*
X019537Y022404D01*
X019542Y022401D01*
X019546Y022399D01*
X01955Y022398D01*
X019554Y022397D01*
X019557Y022397D01*
X019558Y022396D01*
X019559D01*
X01956D01*
X01956D01*
X019566Y022397D01*
X019572Y022398D01*
X019576Y0224D01*
X01958Y022402D01*
X019584Y022405D01*
X019586Y022406D01*
X019588Y022408D01*
X019588Y022408D01*
X019592Y022413D01*
X019595Y022417D01*
X019597Y022422D01*
X019598Y022426D01*
X019599Y02243D01*
X019599Y022433D01*
X0196Y022434D01*
Y022436D01*
X019599Y022441D01*
X019598Y022446D01*
X019597Y02245D01*
X019595Y022453D01*
X019594Y022456D01*
X019593Y022458D01*
X019591Y022459D01*
X019591Y02246D01*
X019587Y022463D01*
X019583Y022466D01*
X019578Y022469D01*
X019573Y02247D01*
X019569Y022472D01*
X019567Y022472D01*
X019565Y022473D01*
X019564Y022473D01*
X019563Y022473D01*
X019562Y022473D01*
X019562D01*
X019565Y022497D01*
X01957Y022496D01*
D02*
G37*
G36*
X020767Y027177D02*
X020777Y027176D01*
X020786Y027174D01*
X02079Y027173D01*
X020793Y027172D01*
X020797Y027172D01*
X0208Y027171D01*
X020803Y02717D01*
X020805Y027169D01*
X020806Y027168D01*
X020808Y027168D01*
X020809Y027167D01*
X020809D01*
X020817Y027163D01*
X020825Y027159D01*
X020831Y027154D01*
X020834Y027151D01*
X020836Y027149D01*
X020838Y027147D01*
X02084Y027145D01*
X020842Y027143D01*
X020843Y027141D01*
X020844Y02714D01*
X020845Y027139D01*
X020845Y027138D01*
X020845Y027138D01*
X020848Y027134D01*
X02085Y02713D01*
X020853Y027122D01*
X020855Y027113D01*
X020856Y027105D01*
X020857Y027102D01*
X020857Y027098D01*
X020858Y027095D01*
Y027093D01*
X020858Y02709D01*
Y027087D01*
X020858Y027082D01*
X020857Y027077D01*
X020857Y027072D01*
X020855Y027067D01*
X020854Y027063D01*
X020853Y027058D01*
X020851Y027054D01*
X02085Y027051D01*
X020848Y027048D01*
X020847Y027045D01*
X020845Y027043D01*
X020844Y02704D01*
X020843Y027039D01*
X020842Y027038D01*
X020842Y027037D01*
X020842Y027037D01*
X020838Y027033D01*
X020835Y02703D01*
X020831Y027027D01*
X020827Y027023D01*
X020819Y027018D01*
X020812Y027015D01*
X020808Y027013D01*
X020805Y027012D01*
X020802Y02701D01*
X020799Y02701D01*
X020797Y027009D01*
X020795Y027008D01*
X020794Y027008D01*
X020794D01*
X020788Y027033D01*
X020792Y027035D01*
X020796Y027036D01*
X0208Y027037D01*
X020804Y027039D01*
X020807Y02704D01*
X02081Y027042D01*
X020812Y027044D01*
X020815Y027046D01*
X020817Y027047D01*
X020819Y027049D01*
X020821Y02705D01*
X020822Y027051D01*
X020823Y027052D01*
X020824Y027053D01*
X020824Y027053D01*
X020824Y027054D01*
X020826Y027056D01*
X020828Y027059D01*
X020831Y027066D01*
X020833Y027071D01*
X020835Y027077D01*
X020836Y027082D01*
X020836Y027084D01*
Y027086D01*
X020836Y027088D01*
Y02709D01*
X020836Y027096D01*
X020835Y027102D01*
X020834Y027108D01*
X020832Y027113D01*
X02083Y027117D01*
X020829Y027118D01*
X020829Y02712D01*
X020828Y027121D01*
X020828Y027122D01*
X020827Y027122D01*
Y027122D01*
X020824Y027128D01*
X020819Y027132D01*
X020815Y027136D01*
X02081Y027139D01*
X020806Y027141D01*
X020803Y027143D01*
X020802Y027144D01*
X020801Y027144D01*
X0208Y027145D01*
X0208D01*
X020793Y027147D01*
X020786Y027148D01*
X020778Y02715D01*
X020772Y027151D01*
X020769Y027151D01*
X020766Y027151D01*
X020763D01*
X020762Y027151D01*
X02076D01*
X020758D01*
X020758D01*
X020757D01*
X02075Y027151D01*
X020744Y027151D01*
X020737Y02715D01*
X020732Y027148D01*
X020727Y027148D01*
X020725Y027147D01*
X020724Y027146D01*
X020722Y027146D01*
X020721Y027146D01*
X020721Y027146D01*
X020721D01*
X020714Y027143D01*
X020708Y02714D01*
X020704Y027136D01*
X020699Y027133D01*
X020696Y02713D01*
X020694Y027127D01*
X020693Y027125D01*
X020692Y027125D01*
Y027125D01*
X020688Y027119D01*
X020686Y027113D01*
X020684Y027107D01*
X020683Y027101D01*
X020682Y027095D01*
X020681Y027093D01*
Y027091D01*
X020681Y02709D01*
Y027088D01*
X020681Y027081D01*
X020683Y027074D01*
X020684Y027069D01*
X020686Y027064D01*
X020688Y027061D01*
X020689Y027058D01*
X02069Y027056D01*
X020691Y027056D01*
X020695Y027051D01*
X0207Y027047D01*
X020705Y027044D01*
X02071Y027041D01*
X020714Y027039D01*
X020716Y027038D01*
X020718Y027038D01*
X020719Y027037D01*
X020721Y027036D01*
X020721Y027036D01*
X020721D01*
X020716Y027011D01*
X020711Y027013D01*
X020706Y027015D01*
X020702Y027017D01*
X020698Y027019D01*
X020694Y027021D01*
X020691Y027023D01*
X020688Y027026D01*
X020685Y027028D01*
X020683Y02703D01*
X02068Y027032D01*
X020678Y027034D01*
X020677Y027035D01*
X020676Y027037D01*
X020675Y027038D01*
X020675Y027038D01*
X020674Y027039D01*
X020672Y027043D01*
X020669Y027046D01*
X020667Y02705D01*
X020666Y027054D01*
X020663Y027063D01*
X020662Y02707D01*
X020661Y027074D01*
X02066Y027077D01*
X02066Y02708D01*
X02066Y027082D01*
X02066Y027084D01*
Y027087D01*
X02066Y027096D01*
X020662Y027105D01*
X020663Y027113D01*
X020664Y027117D01*
X020665Y02712D01*
X020667Y027123D01*
X020668Y027126D01*
X020668Y027128D01*
X020669Y02713D01*
X02067Y027131D01*
X020671Y027133D01*
X020671Y027133D01*
X020671Y027134D01*
X020676Y027141D01*
X020681Y027148D01*
X020687Y027153D01*
X020693Y027158D01*
X020698Y027161D01*
X0207Y027163D01*
X020702Y027164D01*
X020703Y027165D01*
X020704Y027166D01*
X020705Y027166D01*
X020705Y027166D01*
X020714Y02717D01*
X020723Y027173D01*
X020732Y027175D01*
X02074Y027176D01*
X020743Y027177D01*
X020747Y027177D01*
X02075Y027177D01*
X020752D01*
X020754Y027177D01*
X020756D01*
X020757D01*
X020757D01*
X020767Y027177D01*
D02*
G37*
G36*
X020855Y026863D02*
X020832D01*
Y026957D01*
X020827Y026954D01*
X020825Y026952D01*
X020823Y026951D01*
X020822Y026949D01*
X020821Y026948D01*
X02082Y026947D01*
X020819Y026947D01*
X020818Y026946D01*
X020817Y026944D01*
X020813Y02694D01*
X020809Y026936D01*
X020805Y026931D01*
X020801Y026927D01*
X020799Y026925D01*
X020798Y026923D01*
X020797Y026922D01*
X020796Y02692D01*
X020795Y02692D01*
X020795Y02692D01*
X020791Y026915D01*
X020788Y026911D01*
X020784Y026907D01*
X020781Y026903D01*
X020778Y0269D01*
X020775Y026897D01*
X020773Y026894D01*
X02077Y026892D01*
X020768Y02689D01*
X020767Y026888D01*
X020765Y026887D01*
X020764Y026886D01*
X020762Y026884D01*
X020762Y026884D01*
X020757Y02688D01*
X020753Y026876D01*
X020749Y026874D01*
X020745Y026871D01*
X020742Y02687D01*
X02074Y026869D01*
X020739Y026868D01*
X020738Y026868D01*
X020734Y026866D01*
X02073Y026865D01*
X020726Y026864D01*
X020722Y026863D01*
X020719Y026863D01*
X020717Y026863D01*
X020716D01*
X020715D01*
X020711Y026863D01*
X020707Y026864D01*
X020703Y026864D01*
X0207Y026865D01*
X020693Y026868D01*
X020688Y026871D01*
X020686Y026872D01*
X020684Y026874D01*
X020682Y026875D01*
X02068Y026877D01*
X020679Y026878D01*
X020678Y026878D01*
X020678Y026879D01*
X020678Y026879D01*
X020675Y026882D01*
X020672Y026886D01*
X02067Y026889D01*
X020669Y026893D01*
X020666Y0269D01*
X020664Y026907D01*
X020663Y02691D01*
X020663Y026913D01*
X020663Y026916D01*
X020662Y026918D01*
X020662Y02692D01*
Y026923D01*
X020662Y026928D01*
X020663Y026933D01*
X020663Y026937D01*
X020664Y026941D01*
X020665Y026945D01*
X020667Y026949D01*
X020668Y026952D01*
X020669Y026955D01*
X020671Y026958D01*
X020672Y02696D01*
X020673Y026962D01*
X020674Y026964D01*
X020675Y026965D01*
X020676Y026966D01*
X020676Y026966D01*
X020676Y026967D01*
X020679Y026969D01*
X020682Y026972D01*
X020686Y026974D01*
X020689Y026976D01*
X020696Y02698D01*
X020702Y026982D01*
X020705Y026983D01*
X020708Y026984D01*
X020711Y026984D01*
X020713Y026985D01*
X020715Y026985D01*
X020716D01*
X020717Y026985D01*
X020717D01*
X02072Y026961D01*
X020714Y026961D01*
X020708Y026959D01*
X020703Y026958D01*
X020699Y026956D01*
X020696Y026954D01*
X020694Y026953D01*
X020692Y026951D01*
X020692Y026951D01*
X020688Y026947D01*
X020686Y026942D01*
X020684Y026938D01*
X020683Y026933D01*
X020682Y02693D01*
X020682Y026926D01*
X020681Y026925D01*
Y026923D01*
X020682Y026918D01*
X020683Y026912D01*
X020685Y026908D01*
X020686Y026904D01*
X020688Y026901D01*
X020689Y026899D01*
X020691Y026898D01*
X020691Y026897D01*
X020695Y026894D01*
X020699Y026891D01*
X020703Y026889D01*
X020707Y026888D01*
X02071Y026887D01*
X020712Y026887D01*
X020714Y026887D01*
X020714D01*
X020715D01*
X02072Y026887D01*
X020725Y026889D01*
X02073Y02689D01*
X020734Y026892D01*
X020738Y026895D01*
X020741Y026897D01*
X020742Y026897D01*
X020743Y026898D01*
X020743Y026898D01*
X020743D01*
X020746Y0269D01*
X020749Y026903D01*
X020753Y026906D01*
X020756Y02691D01*
X020763Y026917D01*
X020769Y026923D01*
X020772Y026927D01*
X020775Y02693D01*
X020778Y026933D01*
X02078Y026936D01*
X020781Y026938D01*
X020783Y026939D01*
X020784Y02694D01*
X020784Y026941D01*
X02079Y026948D01*
X020795Y026954D01*
X0208Y026959D01*
X020804Y026963D01*
X020808Y026967D01*
X020811Y026969D01*
X020812Y026971D01*
X020812Y026971D01*
X020813D01*
X020817Y026975D01*
X020822Y026978D01*
X020826Y026981D01*
X02083Y026983D01*
X020834Y026985D01*
X020836Y026986D01*
X020838Y026987D01*
X020838Y026987D01*
X020838D01*
X020841Y026988D01*
X020844Y026989D01*
X020847Y026989D01*
X020849Y026989D01*
X020852Y02699D01*
X020853D01*
X020854D01*
X020855D01*
Y026863D01*
D02*
G37*
G36*
X020519Y018719D02*
X020528Y018718D01*
X020537Y018717D01*
X020541Y018716D01*
X020545Y018715D01*
X020548Y018714D01*
X020551Y018713D01*
X020554Y018712D01*
X020556Y018712D01*
X020558Y018711D01*
X020559Y01871D01*
X02056Y01871D01*
X02056D01*
X020568Y018706D01*
X020576Y018701D01*
X020582Y018696D01*
X020585Y018694D01*
X020587Y018691D01*
X020589Y018689D01*
X020591Y018687D01*
X020593Y018685D01*
X020594Y018683D01*
X020595Y018682D01*
X020596Y018681D01*
X020596Y018681D01*
X020597Y01868D01*
X020599Y018676D01*
X020601Y018673D01*
X020604Y018664D01*
X020606Y018656D01*
X020608Y018648D01*
X020608Y018644D01*
X020609Y018641D01*
X020609Y018638D01*
Y018635D01*
X020609Y018633D01*
Y01863D01*
X020609Y018624D01*
X020608Y018619D01*
X020608Y018614D01*
X020607Y018609D01*
X020605Y018605D01*
X020604Y018601D01*
X020603Y018597D01*
X020601Y018593D01*
X020599Y01859D01*
X020598Y018587D01*
X020597Y018585D01*
X020595Y018583D01*
X020594Y018581D01*
X020594Y01858D01*
X020593Y018579D01*
X020593Y018579D01*
X020589Y018575D01*
X020586Y018572D01*
X020582Y018569D01*
X020578Y018566D01*
X020571Y018561D01*
X020563Y018557D01*
X020559Y018555D01*
X020556Y018554D01*
X020553Y018553D01*
X02055Y018552D01*
X020548Y018551D01*
X020547Y018551D01*
X020545Y01855D01*
X020545D01*
X020539Y018576D01*
X020543Y018577D01*
X020547Y018578D01*
X020551Y01858D01*
X020555Y018581D01*
X020558Y018583D01*
X020561Y018584D01*
X020564Y018586D01*
X020566Y018588D01*
X020568Y018589D01*
X02057Y018591D01*
X020572Y018592D01*
X020573Y018594D01*
X020574Y018595D01*
X020575Y018596D01*
X020575Y018596D01*
X020575Y018596D01*
X020578Y018599D01*
X020579Y018602D01*
X020582Y018608D01*
X020585Y018614D01*
X020586Y01862D01*
X020587Y018625D01*
X020587Y018627D01*
Y018628D01*
X020588Y01863D01*
Y018632D01*
X020587Y018638D01*
X020586Y018645D01*
X020585Y01865D01*
X020583Y018655D01*
X020581Y018659D01*
X020581Y018661D01*
X02058Y018662D01*
X02058Y018663D01*
X020579Y018664D01*
X020579Y018664D01*
Y018665D01*
X020575Y01867D01*
X020571Y018674D01*
X020566Y018678D01*
X020562Y018681D01*
X020558Y018684D01*
X020554Y018686D01*
X020553Y018686D01*
X020552Y018687D01*
X020552Y018687D01*
X020551D01*
X020544Y018689D01*
X020537Y018691D01*
X02053Y018692D01*
X020523Y018693D01*
X02052Y018693D01*
X020517Y018694D01*
X020515D01*
X020513Y018694D01*
X020511D01*
X02051D01*
X020509D01*
X020509D01*
X020501Y018694D01*
X020495Y018693D01*
X020489Y018692D01*
X020483Y018691D01*
X020478Y01869D01*
X020476Y018689D01*
X020475Y018689D01*
X020473Y018689D01*
X020473Y018688D01*
X020472Y018688D01*
X020472D01*
X020465Y018685D01*
X02046Y018682D01*
X020455Y018679D01*
X020451Y018675D01*
X020447Y018672D01*
X020445Y01867D01*
X020444Y018668D01*
X020443Y018668D01*
Y018667D01*
X02044Y018661D01*
X020437Y018655D01*
X020435Y018649D01*
X020434Y018643D01*
X020433Y018638D01*
X020433Y018636D01*
Y018634D01*
X020432Y018632D01*
Y01863D01*
X020433Y018623D01*
X020434Y018617D01*
X020435Y018612D01*
X020437Y018607D01*
X020439Y018603D01*
X02044Y0186D01*
X020442Y018599D01*
X020442Y018598D01*
X020446Y018594D01*
X020451Y01859D01*
X020456Y018586D01*
X020461Y018584D01*
X020465Y018581D01*
X020468Y018581D01*
X020469Y01858D01*
X020471Y018579D01*
X020472Y018579D01*
X020472Y018579D01*
X020473D01*
X020467Y018554D01*
X020462Y018555D01*
X020457Y018557D01*
X020453Y018559D01*
X020449Y018561D01*
X020445Y018563D01*
X020442Y018566D01*
X020439Y018568D01*
X020436Y01857D01*
X020434Y018573D01*
X020432Y018574D01*
X02043Y018576D01*
X020428Y018578D01*
X020427Y018579D01*
X020426Y01858D01*
X020426Y018581D01*
X020426Y018581D01*
X020423Y018585D01*
X020421Y018589D01*
X020419Y018593D01*
X020417Y018597D01*
X020414Y018605D01*
X020413Y018613D01*
X020412Y018616D01*
X020412Y018619D01*
X020411Y018622D01*
X020411Y018625D01*
X020411Y018627D01*
Y01863D01*
X020411Y018639D01*
X020413Y018648D01*
X020414Y018655D01*
X020416Y018659D01*
X020417Y018662D01*
X020418Y018665D01*
X020419Y018668D01*
X02042Y01867D01*
X020421Y018673D01*
X020421Y018674D01*
X020422Y018675D01*
X020422Y018676D01*
X020422Y018676D01*
X020427Y018684D01*
X020433Y01869D01*
X020438Y018696D01*
X020444Y0187D01*
X020449Y018704D01*
X020451Y018705D01*
X020453Y018706D01*
X020454Y018707D01*
X020455Y018708D01*
X020456Y018708D01*
X020457Y018709D01*
X020465Y018712D01*
X020474Y018715D01*
X020483Y018717D01*
X020491Y018719D01*
X020494Y018719D01*
X020498Y018719D01*
X020501Y01872D01*
X020504D01*
X020506Y01872D01*
X020507D01*
X020508D01*
X020509D01*
X020519Y018719D01*
D02*
G37*
G36*
X020483Y018507D02*
X020481Y018502D01*
X020479Y018498D01*
X020477Y018494D01*
X020475Y018491D01*
X020474Y018488D01*
X020473Y018487D01*
X020472Y018486D01*
Y018486D01*
X020469Y018481D01*
X020466Y018477D01*
X020463Y018473D01*
X020461Y01847D01*
X020459Y018467D01*
X020457Y018465D01*
X020456Y018464D01*
X020456Y018464D01*
X020606D01*
Y01844D01*
X020413D01*
Y018455D01*
X020418Y018458D01*
X020422Y018461D01*
X020427Y018465D01*
X020431Y018468D01*
X020434Y018471D01*
X020437Y018474D01*
X020438Y018475D01*
X020439Y018476D01*
X020439Y018476D01*
X020439Y018476D01*
X020444Y018482D01*
X020448Y018488D01*
X020452Y018494D01*
X020455Y018499D01*
X020458Y018504D01*
X020459Y018506D01*
X02046Y018507D01*
X020461Y018509D01*
X020461Y01851D01*
X020462Y01851D01*
Y018511D01*
X020484D01*
X020483Y018507D01*
D02*
G37*
%LPC*%
G36*
X013351Y026358D02*
X013308Y026315D01*
X013303Y02631D01*
X013299Y026305D01*
X013296Y0263D01*
X013295Y026296D01*
X013293Y026292D01*
X013293Y026289D01*
X013293Y026288D01*
X013292Y026287D01*
X013293Y026282D01*
X013293Y026278D01*
X013295Y026274D01*
X013296Y02627D01*
X013298Y026268D01*
X0133Y026266D01*
X013301Y026264D01*
X013301Y026264D01*
X013301Y026264D01*
X013304Y026262D01*
X013306Y02626D01*
X013309Y026259D01*
X013311Y026257D01*
X013314Y026257D01*
X013315Y026256D01*
X013317Y026256D01*
X013317D01*
X01332Y026255D01*
X013324D01*
X013327Y026255D01*
X01333Y026256D01*
X013332Y026257D01*
X013334Y026257D01*
X013335Y026258D01*
X013336Y026258D01*
X013339Y02626D01*
X013343Y026262D01*
X013347Y026265D01*
X01335Y026268D01*
X013353Y026271D01*
X013355Y026273D01*
X013396Y026313D01*
X013351Y026358D01*
D02*
G37*
G36*
X020329Y021249D02*
X020265D01*
Y021188D01*
X020266Y021181D01*
X020267Y021174D01*
X020268Y021169D01*
X02027Y021165D01*
X020272Y021161D01*
X020273Y021159D01*
X020274Y021158D01*
X020274Y021157D01*
X020278Y021154D01*
X020282Y021151D01*
X020285Y021149D01*
X020289Y021148D01*
X020292Y021148D01*
X020295Y021147D01*
X020296Y021147D01*
X020297D01*
X020297D01*
X0203Y021147D01*
X020303Y021148D01*
X020306Y021149D01*
X020309Y021149D01*
X020311Y021151D01*
X020313Y021151D01*
X020314Y021152D01*
X020314Y021152D01*
X020317Y021154D01*
X020319Y021157D01*
X020321Y021159D01*
X020323Y021162D01*
X020324Y021164D01*
X020325Y021166D01*
X020325Y021167D01*
X020326Y021167D01*
X020327Y021171D01*
X020328Y021176D01*
X020328Y02118D01*
X020328Y021184D01*
X020329Y021188D01*
X020329Y021192D01*
Y021249D01*
D02*
G37*
G36*
X020368Y021076D02*
X020282Y021015D01*
X020368D01*
Y021076D01*
D02*
G37*
G36*
X020275Y021839D02*
X020212Y021838D01*
X020213Y021777D01*
X020213Y02177D01*
X020215Y021764D01*
X020216Y021758D01*
X020218Y021754D01*
X02022Y02175D01*
X020221Y021748D01*
X020222Y021747D01*
X020222Y021746D01*
X020226Y021743D01*
X02023Y021741D01*
X020234Y021739D01*
X020237Y021738D01*
X02024Y021737D01*
X020243Y021737D01*
X020245Y021737D01*
X020245Y021737D01*
X020245Y021737D01*
X020248Y021737D01*
X020252Y021738D01*
X020254Y021738D01*
X020257Y021739D01*
X020259Y02174D01*
X020261Y021741D01*
X020262Y021742D01*
X020262Y021742D01*
X020265Y021744D01*
X020267Y021747D01*
X020269Y021749D01*
X020271Y021752D01*
X020272Y021754D01*
X020273Y021756D01*
X020273Y021757D01*
X020273Y021757D01*
X020275Y021761D01*
X020275Y021766D01*
X020276Y02177D01*
X020276Y021775D01*
X020276Y021778D01*
X020276Y021782D01*
X020275Y021839D01*
D02*
G37*
G36*
X020751Y026558D02*
X020688D01*
Y026498D01*
X020688Y02649D01*
X020689Y026484D01*
X02069Y026478D01*
X020692Y026474D01*
X020694Y026471D01*
X020695Y026468D01*
X020696Y026467D01*
X020696Y026466D01*
X0207Y026463D01*
X020704Y026461D01*
X020708Y026459D01*
X020711Y026458D01*
X020714Y026457D01*
X020717Y026457D01*
X020718Y026456D01*
X020719D01*
X020719D01*
X020722Y026457D01*
X020726Y026457D01*
X020728Y026458D01*
X020731Y026459D01*
X020733Y02646D01*
X020735Y026461D01*
X020736Y026461D01*
X020736Y026462D01*
X020739Y026464D01*
X020741Y026466D01*
X020743Y026469D01*
X020745Y026471D01*
X020746Y026473D01*
X020747Y026475D01*
X020747Y026476D01*
X020748Y026477D01*
X020749Y026481D01*
X02075Y026485D01*
X02075Y026489D01*
X02075Y026494D01*
X020751Y026498D01*
X020751Y026501D01*
Y026558D01*
D02*
G37*
G36*
X020751Y02826D02*
X020688D01*
Y0282D01*
X020688Y028193D01*
X020689Y028186D01*
X02069Y028181D01*
X020692Y028177D01*
X020694Y028173D01*
X020695Y028171D01*
X020696Y028169D01*
X020696Y028169D01*
X0207Y028165D01*
X020704Y028163D01*
X020708Y028161D01*
X020711Y02816D01*
X020714Y028159D01*
X020717Y028159D01*
X020718Y028159D01*
X020719D01*
X020719D01*
X020722Y028159D01*
X020726Y02816D01*
X020728Y02816D01*
X020731Y028161D01*
X020733Y028162D01*
X020735Y028163D01*
X020736Y028164D01*
X020736Y028164D01*
X020739Y028166D01*
X020741Y028169D01*
X020743Y028171D01*
X020745Y028173D01*
X020746Y028176D01*
X020747Y028177D01*
X020747Y028178D01*
X020748Y028179D01*
X020749Y028183D01*
X02075Y028187D01*
X02075Y028192D01*
X02075Y028196D01*
X020751Y0282D01*
X020751Y028203D01*
Y02826D01*
D02*
G37*
G36*
X01171Y020654D02*
X011581Y020563D01*
X01171D01*
Y020654D01*
D02*
G37*
G36*
X014879Y024813D02*
X014816D01*
Y024753D01*
X014816Y024745D01*
X014817Y024739D01*
X014819Y024733D01*
X01482Y024729D01*
X014822Y024726D01*
X014823Y024723D01*
X014824Y024722D01*
X014825Y024721D01*
X014828Y024718D01*
X014832Y024716D01*
X014836Y024714D01*
X014839Y024713D01*
X014842Y024712D01*
X014845Y024712D01*
X014847Y024712D01*
X014847D01*
X014847D01*
X014851Y024712D01*
X014854Y024712D01*
X014857Y024713D01*
X014859Y024714D01*
X014861Y024715D01*
X014863Y024716D01*
X014864Y024717D01*
X014864Y024717D01*
X014867Y024719D01*
X01487Y024721D01*
X014872Y024724D01*
X014873Y024726D01*
X014874Y024728D01*
X014875Y02473D01*
X014876Y024731D01*
X014876Y024732D01*
X014877Y024736D01*
X014878Y02474D01*
X014878Y024744D01*
X014879Y024749D01*
X014879Y024753D01*
X014879Y024756D01*
Y024813D01*
D02*
G37*
G36*
X014919Y024491D02*
X014833Y024431D01*
X014919D01*
Y024491D01*
D02*
G37*
G36*
X015849Y026053D02*
X015786D01*
Y025992D01*
X015786Y025985D01*
X015787Y025978D01*
X015789Y025973D01*
X01579Y025969D01*
X015792Y025965D01*
X015793Y025963D01*
X015794Y025961D01*
X015795Y025961D01*
X015798Y025958D01*
X015802Y025955D01*
X015806Y025953D01*
X015809Y025952D01*
X015812Y025952D01*
X015815Y025951D01*
X015817Y025951D01*
X015817D01*
X015817D01*
X015821Y025951D01*
X015824Y025952D01*
X015827Y025953D01*
X015829Y025953D01*
X015831Y025955D01*
X015833Y025955D01*
X015834Y025956D01*
X015834Y025956D01*
X015837Y025958D01*
X01584Y025961D01*
X015842Y025963D01*
X015843Y025966D01*
X015844Y025968D01*
X015845Y02597D01*
X015846Y025971D01*
X015846Y025971D01*
X015847Y025975D01*
X015848Y025979D01*
X015848Y025984D01*
X015849Y025988D01*
X015849Y025992D01*
X015849Y025996D01*
Y026053D01*
D02*
G37*
G36*
X015361Y024693D02*
X01536D01*
X015359D01*
X015359D01*
X015352Y024693D01*
X015345Y024692D01*
X015339Y02469D01*
X015335Y024688D01*
X015331Y024686D01*
X015328Y024684D01*
X015327Y024683D01*
X015326Y024683D01*
X015326Y024682D01*
X015326D01*
X015324Y02468D01*
X015321Y024678D01*
X015318Y024673D01*
X015316Y024668D01*
X015314Y024664D01*
X015313Y02466D01*
X015313Y024657D01*
X015313Y024656D01*
Y024652D01*
X015313Y024649D01*
X015315Y024644D01*
X015317Y024639D01*
X015319Y024635D01*
X015321Y024632D01*
X015323Y02463D01*
X015324Y024629D01*
X015324Y024628D01*
X015325D01*
X015329Y024625D01*
X015335Y024622D01*
X01534Y02462D01*
X015345Y024619D01*
X01535Y024618D01*
X015352Y024618D01*
X015354D01*
X015355Y024617D01*
X015356D01*
X015357D01*
X015357D01*
X015364Y024618D01*
X015371Y024619D01*
X015376Y024621D01*
X01538Y024623D01*
X015384Y024625D01*
X015386Y024627D01*
X015388Y024628D01*
X015389Y024628D01*
X015392Y024632D01*
X015395Y024637D01*
X015397Y024641D01*
X015399Y024646D01*
X015399Y024649D01*
X0154Y024652D01*
X0154Y024653D01*
Y024655D01*
X015399Y024661D01*
X015398Y024666D01*
X015396Y024671D01*
X015394Y024675D01*
X015392Y024678D01*
X01539Y024681D01*
X015389Y024682D01*
X015389Y024683D01*
X015384Y024686D01*
X015379Y024689D01*
X015374Y024691D01*
X015369Y024692D01*
X015365Y024693D01*
X015364Y024693D01*
X015362D01*
X015361Y024693D01*
D02*
G37*
G36*
X016773Y025726D02*
X016773D01*
X016772D01*
X016768Y025726D01*
X016764Y025724D01*
X01676Y025723D01*
X016757Y025721D01*
X016755Y02572D01*
X016753Y025719D01*
X016752Y025718D01*
X016752Y025717D01*
X016749Y025714D01*
X016746Y02571D01*
X016745Y025706D01*
X016744Y025703D01*
X016743Y025699D01*
X016743Y025697D01*
Y025695D01*
X016743Y02569D01*
X016744Y025685D01*
X016745Y025682D01*
X016747Y025679D01*
X016749Y025676D01*
X01675Y025674D01*
X016751Y025673D01*
X016752Y025672D01*
X016755Y025669D01*
X016759Y025667D01*
X016762Y025665D01*
X016766Y025664D01*
X016769Y025664D01*
X016771Y025663D01*
X016773D01*
X016773D01*
X016773D01*
X016778Y025664D01*
X016782Y025665D01*
X016786Y025666D01*
X016789Y025668D01*
X016791Y025669D01*
X016793Y025671D01*
X016794Y025672D01*
X016795Y025672D01*
X016797Y025675D01*
X016799Y025679D01*
X016801Y025683D01*
X016802Y025687D01*
X016803Y02569D01*
X016803Y025692D01*
X016803Y025694D01*
Y025695D01*
X016803Y0257D01*
X016802Y025704D01*
X0168Y025708D01*
X016799Y025711D01*
X016797Y025714D01*
X016796Y025716D01*
X016795Y025717D01*
X016795Y025717D01*
X016791Y02572D01*
X016787Y025722D01*
X016784Y025724D01*
X01678Y025725D01*
X016777Y025725D01*
X016775Y025726D01*
X016773Y025726D01*
D02*
G37*
G36*
X016862Y025734D02*
X016861D01*
X016861D01*
X016855Y025733D01*
X01685Y025732D01*
X016845Y02573D01*
X016841Y025728D01*
X016838Y025726D01*
X016835Y025724D01*
X016834Y025723D01*
X016833Y025723D01*
X01683Y025719D01*
X016827Y025714D01*
X016825Y02571D01*
X016824Y025705D01*
X016823Y025701D01*
X016822Y025698D01*
X016822Y025697D01*
Y025695D01*
X016823Y025689D01*
X016824Y025684D01*
X016826Y025679D01*
X016828Y025675D01*
X01683Y025671D01*
X016832Y025669D01*
X016833Y025667D01*
X016834Y025667D01*
X016838Y025663D01*
X016843Y02566D01*
X016847Y025658D01*
X016852Y025657D01*
X016856Y025656D01*
X016859Y025656D01*
X01686Y025656D01*
X016861D01*
X016861D01*
X016862D01*
X016867Y025656D01*
X016873Y025657D01*
X016878Y025659D01*
X016881Y025661D01*
X016885Y025663D01*
X016887Y025665D01*
X016888Y025666D01*
X016889Y025667D01*
X016893Y025671D01*
X016895Y025675D01*
X016897Y02568D01*
X016898Y025685D01*
X016899Y025688D01*
X016899Y025692D01*
X0169Y025693D01*
Y025695D01*
X016899Y025698D01*
X016899Y025702D01*
X016898Y025706D01*
X016897Y025709D01*
X016896Y025711D01*
X016896Y025713D01*
X016895Y025715D01*
X016895Y025715D01*
X016893Y025718D01*
X01689Y025721D01*
X016888Y025724D01*
X016885Y025726D01*
X016883Y025727D01*
X016882Y025728D01*
X01688Y025729D01*
X01688Y025729D01*
X016877Y025731D01*
X016873Y025732D01*
X01687Y025733D01*
X016867Y025733D01*
X016864Y025733D01*
X016862Y025734D01*
D02*
G37*
G36*
X025068Y027583D02*
X025004D01*
Y027523D01*
X025005Y027515D01*
X025006Y027509D01*
X025007Y027504D01*
X025009Y027499D01*
X02501Y027496D01*
X025012Y027494D01*
X025013Y027492D01*
X025013Y027492D01*
X025017Y027488D01*
X02502Y027486D01*
X025024Y027484D01*
X025028Y027483D01*
X025031Y027482D01*
X025033Y027482D01*
X025035Y027482D01*
X025035D01*
X025036D01*
X025039Y027482D01*
X025042Y027482D01*
X025045Y027483D01*
X025047Y027484D01*
X02505Y027485D01*
X025051Y027486D01*
X025052Y027487D01*
X025053Y027487D01*
X025055Y027489D01*
X025058Y027491D01*
X02506Y027494D01*
X025062Y027496D01*
X025063Y027499D01*
X025064Y0275D01*
X025064Y027501D01*
X025064Y027502D01*
X025065Y027506D01*
X025066Y02751D01*
X025067Y027515D01*
X025067Y027519D01*
X025067Y027523D01*
X025068Y027526D01*
Y027583D01*
D02*
G37*
G36*
X025085Y027252D02*
X025082D01*
X025081D01*
X02508D01*
X025072Y027252D01*
X025064Y027252D01*
X025057Y027251D01*
X02505Y02725D01*
X025044Y02725D01*
X025039Y027248D01*
X025034Y027247D01*
X02503Y027246D01*
X025026Y027245D01*
X025023Y027244D01*
X025021Y027243D01*
X025019Y027242D01*
X025017Y027241D01*
X025016Y027241D01*
X025016Y02724D01*
X025015D01*
X025013Y027238D01*
X025011Y027237D01*
X025009Y027234D01*
X025007Y027232D01*
X025005Y027228D01*
X025003Y027223D01*
X025002Y02722D01*
X025002Y027217D01*
X025001Y027216D01*
Y027214D01*
X025002Y027211D01*
X025002Y027208D01*
X025003Y027205D01*
X025004Y027203D01*
X025006Y027198D01*
X025009Y027194D01*
X025012Y027191D01*
X025015Y027188D01*
X025016Y027187D01*
X025017Y027187D01*
X025017Y027186D01*
X025017D01*
X025021Y027184D01*
X025024Y027183D01*
X025029Y027181D01*
X025034Y02718D01*
X025039Y027179D01*
X025044Y027178D01*
X025054Y027177D01*
X02506Y027176D01*
X025064Y027176D01*
X025069Y027176D01*
X025072D01*
X025076Y027175D01*
X025078D01*
X02508D01*
X02508D01*
X02508D01*
X025089D01*
X025096Y027176D01*
X025103Y027176D01*
X02511Y027177D01*
X025116Y027178D01*
X025121Y027179D01*
X025125Y02718D01*
X025129Y027181D01*
X025133Y027182D01*
X025136Y027183D01*
X025138Y027184D01*
X02514Y027185D01*
X025141Y027186D01*
X025142Y027186D01*
X025143Y027187D01*
X025143D01*
X025146Y027189D01*
X025148Y027191D01*
X02515Y027193D01*
X025152Y027196D01*
X025155Y0272D01*
X025157Y027204D01*
X025158Y027208D01*
X025158Y027211D01*
X025159Y027212D01*
Y027214D01*
X025158Y027217D01*
X025158Y02722D01*
X025156Y027225D01*
X025154Y02723D01*
X025151Y027234D01*
X025148Y027237D01*
X025146Y027239D01*
X025144Y027241D01*
X025143Y027241D01*
X025143D01*
X02514Y027243D01*
X025136Y027245D01*
X025131Y027246D01*
X025127Y027248D01*
X025122Y027249D01*
X025116Y02725D01*
X025106Y027251D01*
X025101Y027251D01*
X025096Y027252D01*
X025091Y027252D01*
X025088D01*
X025085Y027252D01*
D02*
G37*
G36*
X020748Y027749D02*
X020684D01*
Y027689D01*
X020685Y027681D01*
X020686Y027675D01*
X020687Y027669D01*
X020689Y027665D01*
X02069Y027662D01*
X020692Y027659D01*
X020693Y027658D01*
X020693Y027658D01*
X020697Y027654D01*
X0207Y027652D01*
X020704Y02765D01*
X020708Y027649D01*
X020711Y027648D01*
X020713Y027648D01*
X020715Y027648D01*
X020715D01*
X020716D01*
X020719Y027648D01*
X020722Y027648D01*
X020725Y027649D01*
X020727Y02765D01*
X02073Y027651D01*
X020731Y027652D01*
X020732Y027653D01*
X020733Y027653D01*
X020735Y027655D01*
X020738Y027657D01*
X02074Y02766D01*
X020742Y027662D01*
X020743Y027664D01*
X020744Y027666D01*
X020744Y027667D01*
X020744Y027668D01*
X020745Y027672D01*
X020746Y027676D01*
X020747Y027681D01*
X020747Y027685D01*
X020747Y027689D01*
X020748Y027692D01*
Y027749D01*
D02*
G37*
G36*
X020729Y027567D02*
X020729D01*
X020728D01*
X020728D01*
X020721Y027567D01*
X020714Y027566D01*
X020708Y027564D01*
X020703Y027561D01*
X020699Y027559D01*
X020697Y027558D01*
X020696Y027557D01*
X020695Y027556D01*
X020695Y027556D01*
X020694D01*
X020692Y027554D01*
X02069Y027551D01*
X020687Y027547D01*
X020685Y027542D01*
X020683Y027538D01*
X020682Y027534D01*
X020682Y027531D01*
X020681Y02753D01*
Y027525D01*
X020682Y027523D01*
X020683Y027518D01*
X020685Y027513D01*
X020687Y027509D01*
X020689Y027506D01*
X020691Y027504D01*
X020693Y027503D01*
X020693Y027502D01*
X020693D01*
X020698Y027499D01*
X020703Y027496D01*
X020709Y027494D01*
X020714Y027493D01*
X020719Y027492D01*
X020721Y027492D01*
X020722D01*
X020724Y027491D01*
X020725D01*
X020726D01*
X020726D01*
X020733Y027492D01*
X020739Y027493D01*
X020745Y027495D01*
X020749Y027497D01*
X020753Y027499D01*
X020755Y0275D01*
X020757Y027502D01*
X020757Y027502D01*
X020761Y027506D01*
X020764Y027511D01*
X020766Y027515D01*
X020767Y02752D01*
X020768Y027523D01*
X020768Y027526D01*
X020769Y027527D01*
Y027529D01*
X020768Y027535D01*
X020767Y02754D01*
X020765Y027545D01*
X020763Y027549D01*
X020761Y027552D01*
X020759Y027554D01*
X020758Y027556D01*
X020757Y027556D01*
X020753Y02756D01*
X020748Y027563D01*
X020743Y027564D01*
X020738Y027566D01*
X020734Y027567D01*
X020732Y027567D01*
X020731D01*
X020729Y027567D01*
D02*
G37*
G36*
X020748Y028779D02*
X020684D01*
Y028719D01*
X020685Y028711D01*
X020686Y028705D01*
X020687Y028699D01*
X020689Y028695D01*
X02069Y028692D01*
X020692Y028689D01*
X020693Y028688D01*
X020693Y028688D01*
X020697Y028684D01*
X0207Y028682D01*
X020704Y02868D01*
X020708Y028679D01*
X020711Y028678D01*
X020713Y028678D01*
X020715Y028678D01*
X020715D01*
X020716D01*
X020719Y028678D01*
X020722Y028678D01*
X020725Y028679D01*
X020727Y02868D01*
X02073Y028681D01*
X020731Y028682D01*
X020732Y028683D01*
X020733Y028683D01*
X020735Y028685D01*
X020738Y028687D01*
X02074Y02869D01*
X020742Y028692D01*
X020743Y028694D01*
X020744Y028696D01*
X020744Y028697D01*
X020744Y028698D01*
X020745Y028702D01*
X020746Y028706D01*
X020747Y028711D01*
X020747Y028715D01*
X020747Y028719D01*
X020748Y028722D01*
Y028779D01*
D02*
G37*
G36*
X020712Y02859D02*
X020711D01*
X020711D01*
X020707Y028589D01*
X020703Y028588D01*
X020699Y028587D01*
X020696Y028585D01*
X020694Y028584D01*
X020692Y028583D01*
X020691Y028581D01*
X02069Y028581D01*
X020687Y028578D01*
X020685Y028574D01*
X020684Y02857D01*
X020683Y028566D01*
X020682Y028563D01*
X020681Y028561D01*
Y028558D01*
X020682Y028554D01*
X020683Y028549D01*
X020684Y028546D01*
X020686Y028542D01*
X020688Y02854D01*
X020689Y028538D01*
X02069Y028537D01*
X02069Y028536D01*
X020694Y028533D01*
X020698Y028531D01*
X020701Y028529D01*
X020704Y028528D01*
X020708Y028528D01*
X02071Y028527D01*
X020712D01*
X020712D01*
X020712D01*
X020717Y028527D01*
X020721Y028529D01*
X020724Y02853D01*
X020727Y028532D01*
X02073Y028533D01*
X020732Y028535D01*
X020733Y028536D01*
X020733Y028536D01*
X020736Y028539D01*
X020738Y028543D01*
X02074Y028547D01*
X020741Y02855D01*
X020741Y028554D01*
X020742Y028556D01*
X020742Y028558D01*
Y028558D01*
X020742Y028563D01*
X02074Y028568D01*
X020739Y028572D01*
X020737Y028575D01*
X020736Y028578D01*
X020735Y028579D01*
X020734Y028581D01*
X020733Y028581D01*
X02073Y028584D01*
X020726Y028586D01*
X020722Y028588D01*
X020719Y028589D01*
X020716Y028589D01*
X020713Y028589D01*
X020712Y02859D01*
D02*
G37*
G36*
X020801Y028598D02*
X0208D01*
X020799D01*
X020794Y028597D01*
X020788Y028596D01*
X020784Y028594D01*
X02078Y028592D01*
X020776Y02859D01*
X020774Y028588D01*
X020773Y028587D01*
X020772Y028587D01*
X020768Y028583D01*
X020766Y028578D01*
X020764Y028573D01*
X020762Y028569D01*
X020762Y028565D01*
X020761Y028562D01*
X020761Y028561D01*
Y028559D01*
X020762Y028553D01*
X020763Y028548D01*
X020765Y028543D01*
X020767Y028539D01*
X020769Y028535D01*
X020771Y028533D01*
X020772Y028531D01*
X020772Y028531D01*
X020777Y028527D01*
X020781Y028524D01*
X020786Y028522D01*
X02079Y028521D01*
X020794Y02852D01*
X020798Y02852D01*
X020799Y028519D01*
X020799D01*
X0208D01*
X0208D01*
X020806Y02852D01*
X020812Y028521D01*
X020816Y028523D01*
X02082Y028525D01*
X020823Y028527D01*
X020826Y028529D01*
X020827Y02853D01*
X020828Y02853D01*
X020831Y028535D01*
X020834Y028539D01*
X020836Y028544D01*
X020837Y028548D01*
X020838Y028552D01*
X020838Y028556D01*
X020839Y028557D01*
Y028558D01*
X020838Y028562D01*
X020838Y028566D01*
X020837Y02857D01*
X020836Y028573D01*
X020835Y028575D01*
X020834Y028577D01*
X020834Y028578D01*
X020834Y028579D01*
X020831Y028582D01*
X020829Y028585D01*
X020827Y028588D01*
X020824Y028589D01*
X020822Y028591D01*
X020821Y028592D01*
X020819Y028593D01*
X020819Y028593D01*
X020815Y028594D01*
X020812Y028596D01*
X020809Y028596D01*
X020806Y028597D01*
X020803Y028597D01*
X020801Y028598D01*
D02*
G37*
G36*
X025119Y026039D02*
X025055D01*
Y025979D01*
X025056Y025971D01*
X025057Y025965D01*
X025058Y025959D01*
X02506Y025955D01*
X025062Y025952D01*
X025063Y025949D01*
X025064Y025948D01*
X025064Y025947D01*
X025068Y025944D01*
X025072Y025942D01*
X025075Y02594D01*
X025079Y025939D01*
X025082Y025938D01*
X025085Y025938D01*
X025086Y025937D01*
X025087D01*
X025087D01*
X02509Y025938D01*
X025093Y025938D01*
X025096Y025939D01*
X025099Y02594D01*
X025101Y025941D01*
X025103Y025942D01*
X025104Y025942D01*
X025104Y025943D01*
X025107Y025945D01*
X025109Y025947D01*
X025111Y02595D01*
X025113Y025952D01*
X025114Y025954D01*
X025115Y025956D01*
X025115Y025957D01*
X025116Y025958D01*
X025117Y025962D01*
X025118Y025966D01*
X025118Y02597D01*
X025118Y025975D01*
X025119Y025979D01*
X025119Y025982D01*
Y026039D01*
D02*
G37*
G36*
X020748Y025499D02*
X020684D01*
Y025439D01*
X020685Y025431D01*
X020686Y025425D01*
X020687Y025419D01*
X020689Y025415D01*
X02069Y025412D01*
X020692Y025409D01*
X020693Y025408D01*
X020693Y025407D01*
X020697Y025404D01*
X0207Y025402D01*
X020704Y0254D01*
X020708Y025399D01*
X020711Y025398D01*
X020713Y025398D01*
X020715Y025397D01*
X020715D01*
X020716D01*
X020719Y025398D01*
X020722Y025398D01*
X020725Y025399D01*
X020727Y0254D01*
X02073Y025401D01*
X020731Y025402D01*
X020732Y025402D01*
X020733Y025403D01*
X020735Y025405D01*
X020738Y025407D01*
X02074Y02541D01*
X020742Y025412D01*
X020743Y025414D01*
X020744Y025416D01*
X020744Y025417D01*
X020744Y025418D01*
X020745Y025422D01*
X020746Y025426D01*
X020747Y02543D01*
X020747Y025435D01*
X020747Y025439D01*
X020748Y025442D01*
Y025499D01*
D02*
G37*
G36*
X020794Y025315D02*
X020793D01*
X020793D01*
X020786Y025315D01*
X02078Y025313D01*
X020775Y025312D01*
X020771Y02531D01*
X020767Y025308D01*
X020765Y025306D01*
X020763Y025305D01*
X020763Y025304D01*
X020759Y0253D01*
X020756Y025295D01*
X020754Y025291D01*
X020752Y025286D01*
X020752Y025282D01*
X020751Y02528D01*
X020751Y025279D01*
Y025277D01*
X020752Y025271D01*
X020753Y025266D01*
X020755Y025261D01*
X020757Y025258D01*
X020759Y025254D01*
X020761Y025252D01*
X020762Y025251D01*
X020763Y02525D01*
X020767Y025247D01*
X020772Y025244D01*
X020778Y025242D01*
X020783Y025241D01*
X020787Y02524D01*
X020789Y02524D01*
X020791D01*
X020792Y02524D01*
X020793D01*
X020794D01*
X020794D01*
X020801Y02524D01*
X020808Y025241D01*
X020813Y025243D01*
X020818Y025245D01*
X020822Y025247D01*
X020824Y025249D01*
X020826Y02525D01*
X020826Y02525D01*
X020827D01*
X020829Y025252D01*
X020831Y025254D01*
X020834Y025259D01*
X020835Y025263D01*
X020837Y025267D01*
X020838Y025271D01*
X020838Y025274D01*
X020839Y025275D01*
Y025276D01*
X020838Y02528D01*
X020838Y025284D01*
X020837Y025287D01*
X020835Y02529D01*
X020835Y025292D01*
X020834Y025294D01*
X020833Y025295D01*
X020833Y025296D01*
X02083Y025299D01*
X020828Y025302D01*
X020825Y025304D01*
X020822Y025306D01*
X02082Y025308D01*
X020818Y025309D01*
X020816Y02531D01*
X020816Y02531D01*
X020812Y025312D01*
X020808Y025313D01*
X020804Y025314D01*
X0208Y025315D01*
X020797Y025315D01*
X020794Y025315D01*
D02*
G37*
G36*
X020748Y02604D02*
X020684D01*
Y025979D01*
X020685Y025972D01*
X020686Y025966D01*
X020687Y02596D01*
X020689Y025956D01*
X02069Y025952D01*
X020692Y02595D01*
X020693Y025949D01*
X020693Y025948D01*
X020697Y025945D01*
X0207Y025942D01*
X020704Y025941D01*
X020708Y025939D01*
X020711Y025939D01*
X020713Y025938D01*
X020715Y025938D01*
X020715D01*
X020716D01*
X020719Y025938D01*
X020722Y025939D01*
X020725Y02594D01*
X020727Y025941D01*
X02073Y025942D01*
X020731Y025943D01*
X020732Y025943D01*
X020733Y025943D01*
X020735Y025945D01*
X020738Y025948D01*
X02074Y02595D01*
X020742Y025953D01*
X020743Y025955D01*
X020744Y025957D01*
X020744Y025958D01*
X020744Y025958D01*
X020745Y025962D01*
X020746Y025967D01*
X020747Y025971D01*
X020747Y025976D01*
X020747Y025979D01*
X020748Y025983D01*
Y02604D01*
D02*
G37*
G36*
X022148Y02775D02*
X022146D01*
X022145D01*
X022144D01*
X022138Y027749D01*
X022131Y027749D01*
X022125Y027748D01*
X022119Y027747D01*
X022114Y027745D01*
X022109Y027744D01*
X022105Y027742D01*
X022101Y02774D01*
X022098Y027739D01*
X022095Y027737D01*
X022092Y027736D01*
X02209Y027734D01*
X022089Y027733D01*
X022087Y027732D01*
X022087Y027731D01*
X022087Y027731D01*
X022083Y027728D01*
X02208Y027724D01*
X022077Y02772D01*
X022075Y027716D01*
X022073Y027712D01*
X022072Y027708D01*
X022071Y027704D01*
X022069Y0277D01*
X022069Y027697D01*
X022068Y027694D01*
X022067Y027691D01*
X022067Y027689D01*
X022067Y027687D01*
Y027684D01*
X022067Y027677D01*
X022068Y027671D01*
X02207Y027665D01*
X022072Y02766D01*
X022074Y027656D01*
X022074Y027654D01*
X022075Y027653D01*
X022076Y027651D01*
X022076Y02765D01*
X022077Y02765D01*
Y02765D01*
X02208Y027644D01*
X022085Y02764D01*
X022089Y027636D01*
X022094Y027632D01*
X022098Y02763D01*
X022101Y027628D01*
X022102Y027627D01*
X022103Y027627D01*
X022103Y027626D01*
X022104D01*
X02211Y027624D01*
X022117Y027622D01*
X022124Y02762D01*
X022131Y02762D01*
X022133Y027619D01*
X022136Y027619D01*
X022138D01*
X022141Y027618D01*
X022142D01*
X022143D01*
X022144D01*
X022144D01*
X022152Y027619D01*
X022159Y027619D01*
X022165Y02762D01*
X022171Y027622D01*
X022177Y027624D01*
X022182Y027626D01*
X022186Y027628D01*
X02219Y02763D01*
X022194Y027632D01*
X022197Y027634D01*
X0222Y027636D01*
X022202Y027637D01*
X022203Y027639D01*
X022205Y02764D01*
X022205Y027641D01*
X022206Y027641D01*
X022201Y027647D01*
X022198Y027653D01*
X022195Y027659D01*
X022192Y027664D01*
X02219Y027669D01*
X022189Y027672D01*
X022188Y027674D01*
X022188Y027675D01*
X022188Y027676D01*
X022187Y027677D01*
Y027677D01*
X022206Y027684D01*
X022207Y027679D01*
X022209Y027674D01*
X022211Y02767D01*
X022212Y027666D01*
X022214Y027663D01*
X022215Y02766D01*
X022216Y027659D01*
X022217Y027658D01*
X022218Y027663D01*
X02222Y027667D01*
X022221Y027672D01*
X022221Y027676D01*
X022221Y027679D01*
X022222Y027682D01*
Y027684D01*
X022221Y027689D01*
X022221Y027694D01*
X02222Y027699D01*
X022219Y027704D01*
X022217Y027708D01*
X022215Y027712D01*
X022214Y027715D01*
X022212Y027718D01*
X02221Y027721D01*
X022208Y027724D01*
X022207Y027726D01*
X022205Y027728D01*
X022204Y02773D01*
X022203Y027731D01*
X022202Y027731D01*
X022202Y027731D01*
X022198Y027735D01*
X022193Y027738D01*
X022189Y02774D01*
X022184Y027742D01*
X02218Y027744D01*
X022175Y027745D01*
X022166Y027748D01*
X022161Y027748D01*
X022157Y027749D01*
X022154Y027749D01*
X022151Y027749D01*
X022148Y02775D01*
D02*
G37*
G36*
X022218Y025562D02*
X022216D01*
X022215D01*
X022214D01*
X022208Y025562D01*
X022201Y025561D01*
X022195Y025561D01*
X022189Y025559D01*
X022184Y025558D01*
X022179Y025556D01*
X022175Y025555D01*
X022171Y025553D01*
X022168Y025551D01*
X022165Y025549D01*
X022162Y025548D01*
X02216Y025546D01*
X022159Y025545D01*
X022157Y025544D01*
X022157Y025544D01*
X022157Y025544D01*
X022153Y02554D01*
X02215Y025536D01*
X022147Y025532D01*
X022145Y025528D01*
X022143Y025524D01*
X022142Y02552D01*
X022141Y025517D01*
X022139Y025513D01*
X022139Y02551D01*
X022138Y025506D01*
X022137Y025504D01*
X022137Y025501D01*
X022137Y025499D01*
Y025497D01*
X022137Y02549D01*
X022138Y025483D01*
X02214Y025477D01*
X022142Y025472D01*
X022144Y025468D01*
X022144Y025466D01*
X022145Y025465D01*
X022146Y025464D01*
X022146Y025463D01*
X022147Y025462D01*
Y025462D01*
X02215Y025457D01*
X022155Y025452D01*
X022159Y025448D01*
X022164Y025445D01*
X022168Y025442D01*
X022171Y02544D01*
X022172Y02544D01*
X022173Y025439D01*
X022173Y025439D01*
X022174D01*
X02218Y025436D01*
X022187Y025434D01*
X022194Y025433D01*
X022201Y025432D01*
X022203Y025431D01*
X022206Y025431D01*
X022208D01*
X022211Y025431D01*
X022212D01*
X022213D01*
X022214D01*
X022214D01*
X022222Y025431D01*
X022229Y025432D01*
X022235Y025433D01*
X022241Y025434D01*
X022247Y025436D01*
X022252Y025438D01*
X022256Y02544D01*
X02226Y025442D01*
X022264Y025444D01*
X022267Y025446D01*
X02227Y025448D01*
X022272Y02545D01*
X022273Y025451D01*
X022275Y025452D01*
X022275Y025453D01*
X022276Y025453D01*
X022271Y025459D01*
X022268Y025465D01*
X022265Y025471D01*
X022262Y025477D01*
X02226Y025482D01*
X022259Y025484D01*
X022259Y025486D01*
X022258Y025487D01*
X022258Y025488D01*
X022257Y025489D01*
Y02549D01*
X022276Y025496D01*
X022277Y025491D01*
X022279Y025486D01*
X022281Y025482D01*
X022282Y025478D01*
X022284Y025475D01*
X022285Y025473D01*
X022286Y025471D01*
X022287Y025471D01*
X022288Y025475D01*
X02229Y02548D01*
X022291Y025484D01*
X022291Y025488D01*
X022291Y025492D01*
X022292Y025494D01*
Y025497D01*
X022291Y025502D01*
X022291Y025507D01*
X02229Y025511D01*
X022289Y025516D01*
X022287Y02552D01*
X022285Y025524D01*
X022284Y025528D01*
X022282Y025531D01*
X02228Y025534D01*
X022278Y025536D01*
X022277Y025539D01*
X022275Y025541D01*
X022274Y025542D01*
X022273Y025543D01*
X022272Y025544D01*
X022272Y025544D01*
X022268Y025547D01*
X022263Y02555D01*
X022259Y025552D01*
X022254Y025554D01*
X02225Y025556D01*
X022245Y025558D01*
X022236Y02556D01*
X022231Y025561D01*
X022227Y025561D01*
X022224Y025562D01*
X022221Y025562D01*
X022218Y025562D01*
D02*
G37*
G36*
X031444Y019528D02*
X031443D01*
X031443D01*
X031436Y019528D01*
X03143Y019526D01*
X031425Y019525D01*
X031421Y019523D01*
X031417Y019521D01*
X031415Y019519D01*
X031413Y019518D01*
X031413Y019517D01*
X031409Y019513D01*
X031406Y019508D01*
X031404Y019503D01*
X031402Y019499D01*
X031402Y019495D01*
X031401Y019493D01*
X031401Y019492D01*
Y01949D01*
X031402Y019484D01*
X031403Y019479D01*
X031405Y019474D01*
X031407Y019471D01*
X031409Y019467D01*
X031411Y019465D01*
X031412Y019464D01*
X031413Y019463D01*
X031417Y01946D01*
X031422Y019457D01*
X031428Y019455D01*
X031433Y019454D01*
X031437Y019453D01*
X031439Y019453D01*
X031441D01*
X031442Y019453D01*
X031443D01*
X031444D01*
X031444D01*
X031451Y019453D01*
X031458Y019454D01*
X031463Y019456D01*
X031468Y019458D01*
X031472Y01946D01*
X031474Y019462D01*
X031476Y019463D01*
X031476Y019463D01*
X031477D01*
X031479Y019465D01*
X031481Y019467D01*
X031484Y019472D01*
X031485Y019476D01*
X031487Y01948D01*
X031488Y019484D01*
X031488Y019487D01*
X031489Y019488D01*
Y019489D01*
X031488Y019493D01*
X031488Y019497D01*
X031487Y0195D01*
X031485Y019503D01*
X031485Y019505D01*
X031484Y019507D01*
X031483Y019508D01*
X031483Y019509D01*
X03148Y019512D01*
X031478Y019515D01*
X031475Y019517D01*
X031472Y019519D01*
X03147Y019521D01*
X031468Y019522D01*
X031466Y019523D01*
X031466Y019523D01*
X031462Y019525D01*
X031458Y019526D01*
X031454Y019527D01*
X03145Y019528D01*
X031447Y019528D01*
X031444Y019528D01*
D02*
G37*
%LPD*%
D10*
X011685Y021205D02*
G03*
X011685Y021205I-000039J0D01*
G01*
X022204Y025838D02*
G03*
X022204Y025838I-000039J0D01*
G01*
Y027238D02*
G03*
X022204Y027238I-000039J0D01*
G01*
X021391Y026638D02*
X021509D01*
X021391Y026362D02*
X021509D01*
X021391Y025812D02*
X021509D01*
X021391Y026088D02*
X021509D01*
X014826Y026105D02*
X014904D01*
X014826Y026414D02*
X014904D01*
X024391Y025812D02*
X024509D01*
X024391Y026088D02*
X024509D01*
X024391Y027212D02*
X024509D01*
X024391Y027488D02*
X024509D01*
X021391Y027738D02*
X021509D01*
X021391Y027462D02*
X021509D01*
X021391Y025548D02*
X021509D01*
X021391Y025272D02*
X021509D01*
X021332Y026895D02*
X021411D01*
X021332Y027205D02*
X021411D01*
X021391Y028012D02*
X021509D01*
X021391Y028288D02*
X021509D01*
X021391Y028788D02*
X021509D01*
X021391Y028512D02*
X021509D01*
X019751Y018655D02*
X019829D01*
X019751Y018345D02*
X019829D01*
X020392Y022591D02*
Y022709D01*
X019906Y022591D02*
Y022709D01*
X019631Y021582D02*
X019749D01*
X019631Y021858D02*
X019749D01*
X019631Y021308D02*
X019749D01*
X019631Y021032D02*
X019749D01*
D11*
X032247Y019388D02*
G03*
X032247Y019388I-00015J0D01*
G01*
D12*
X011919Y021293D02*
X011932Y021322D01*
X013459Y024753D02*
X013472Y024782D01*
X013502Y020588D02*
X013514Y020617D01*
X015042Y024048D02*
X015055Y024077D01*
X011919Y021293D02*
X011984Y021264D01*
X013437Y020617D02*
X013502Y020588D01*
X013472Y024782D02*
X013537Y024753D01*
X01499Y024106D02*
X015055Y024077D01*
X01529Y025385D02*
Y025415D01*
X01549Y025385D02*
Y025415D01*
X01674Y025025D02*
Y025055D01*
X01694Y025025D02*
Y025055D01*
X01626Y025025D02*
Y025055D01*
X01646Y025025D02*
Y025055D01*
X023306Y026594D02*
Y026968D01*
Y025732D02*
Y026106D01*
X022794Y026968D02*
X023306D01*
X022794Y025732D02*
X023306D01*
X024435Y02655D02*
X024465D01*
X024435Y02675D02*
X024465D01*
X023306Y027994D02*
Y028368D01*
Y027132D02*
Y027506D01*
X022794Y028368D02*
X023306D01*
X022794Y027132D02*
X023306D01*
X019004Y020817D02*
X020696D01*
X019004Y018883D02*
X020696D01*
D14*
X0187Y01873D02*
G03*
X0187Y01873I-00003J0D01*
G01*
D15*
X013785Y026452D02*
X01383Y026496D01*
X013652Y026585D02*
X013696Y02663D01*
X014974Y025368D02*
Y025431D01*
X014786Y025368D02*
Y025431D01*
X015974Y025008D02*
Y025071D01*
X015786Y025008D02*
Y025071D01*
D16*
X032155Y025146D02*
Y025535D01*
X033093D01*
X032155Y019905D02*
Y020294D01*
Y019905D02*
X033093D01*
X033945Y020429D02*
Y025011D01*
M02*
