G04*
G04 #@! TF.GenerationSoftware,Altium Limited,Altium Designer,22.5.1 (42)*
G04*
G04 Layer_Color=8388736*
%FSTAX24Y24*%
%MOIN*%
G70*
G04*
G04 #@! TF.SameCoordinates,090E5D1A-85BE-42B9-9E0A-55F43D75D69B*
G04*
G04*
G04 #@! TF.FilePolarity,Positive*
G04*
G01*
G75*
%ADD12C,0.0050*%
%ADD81C,0.0080*%
%ADD101C,0.0020*%
%ADD102C,0.0010*%
%ADD103C,0.0039*%
%ADD105R,0.0496X0.0157*%
%ADD106R,0.0197X0.0118*%
%ADD107R,0.0157X0.0315*%
%ADD110C,0.0020*%
%ADD113R,0.0118X0.0197*%
%ADD114R,0.0394X0.0096*%
G36*
X021765Y028473D02*
X021647D01*
Y028827D01*
X021765D01*
Y028473D01*
D02*
G37*
G36*
X021253D02*
X021135D01*
Y028827D01*
X021253D01*
Y028473D01*
D02*
G37*
G36*
X021765Y027973D02*
X021647D01*
Y028327D01*
X021765D01*
Y027973D01*
D02*
G37*
G36*
X021253D02*
X021135D01*
Y028327D01*
X021253D01*
Y027973D01*
D02*
G37*
G36*
X021765Y027423D02*
X021647D01*
Y027777D01*
X021765D01*
Y027423D01*
D02*
G37*
G36*
X021253D02*
X021135D01*
Y027777D01*
X021253D01*
Y027423D01*
D02*
G37*
G36*
X024765Y027173D02*
X024647D01*
Y027527D01*
X024765D01*
Y027173D01*
D02*
G37*
G36*
X024253D02*
X024135D01*
Y027527D01*
X024253D01*
Y027173D01*
D02*
G37*
G36*
X013813Y026747D02*
X013813Y026747D01*
X013947Y026613D01*
X013947Y026613D01*
X013948Y026611D01*
Y02661D01*
X013947Y026608D01*
X013947Y026608D01*
X013897Y026558D01*
X013896Y026557D01*
X013895Y026556D01*
X013893D01*
X013892Y026557D01*
X013891Y026558D01*
X013758Y026691D01*
X013757Y026692D01*
X013756Y026693D01*
X013756Y026695D01*
X013757Y026696D01*
X013758Y026697D01*
X013808Y026747D01*
X013808Y026747D01*
X01381Y026748D01*
X013811Y026748D01*
X013813Y026747D01*
D02*
G37*
G36*
X01359Y026525D02*
X01359Y026524D01*
X013724Y02639D01*
X013725Y02639D01*
X013725Y026388D01*
X013725Y026387D01*
X013725Y026385D01*
X013724Y026385D01*
X013674Y026335D01*
X013673Y026334D01*
X013672Y026334D01*
X01367Y026334D01*
X013669Y026334D01*
X013668Y026335D01*
X013535Y026468D01*
X013534Y026469D01*
X013534Y02647D01*
X013534Y026472D01*
X013534Y026473D01*
X013535Y026474D01*
X013585Y026524D01*
X013585Y026525D01*
X013587Y026525D01*
X013588D01*
X01359Y026525D01*
D02*
G37*
G36*
X021765Y026323D02*
X021647D01*
Y026677D01*
X021765D01*
Y026323D01*
D02*
G37*
G36*
X021253D02*
X021135D01*
Y026677D01*
X021253D01*
Y026323D01*
D02*
G37*
G36*
X024765Y025773D02*
X024647D01*
Y026127D01*
X024765D01*
Y025773D01*
D02*
G37*
G36*
X024253D02*
X024135D01*
Y026127D01*
X024253D01*
Y025773D01*
D02*
G37*
G36*
X021765D02*
X021647D01*
Y026127D01*
X021765D01*
Y025773D01*
D02*
G37*
G36*
X021253D02*
X021135D01*
Y026127D01*
X021253D01*
Y025773D01*
D02*
G37*
G36*
X014977Y025596D02*
X014978Y025595D01*
X014978Y025594D01*
Y025593D01*
Y025522D01*
Y025521D01*
X014978Y02552D01*
X014977Y025519D01*
X014975Y025518D01*
X014785D01*
X014783Y025519D01*
X014782Y02552D01*
X014782Y025521D01*
X014782Y025522D01*
Y025593D01*
Y025594D01*
X014782Y025595D01*
X014783Y025596D01*
X014785Y025597D01*
X014975D01*
X014977Y025596D01*
D02*
G37*
G36*
X021765Y025233D02*
X021647D01*
Y025587D01*
X021765D01*
Y025233D01*
D02*
G37*
G36*
X021253D02*
X021135D01*
Y025587D01*
X021253D01*
Y025233D01*
D02*
G37*
G36*
X014977Y025281D02*
X014978Y02528D01*
X014978Y025279D01*
Y025278D01*
Y025207D01*
Y025206D01*
X014978Y025205D01*
X014977Y025204D01*
X014975Y025203D01*
X014785D01*
X014783Y025204D01*
X014782Y025205D01*
X014782Y025206D01*
Y025207D01*
Y025278D01*
Y025279D01*
X014782Y02528D01*
X014783Y025281D01*
X014785Y025282D01*
X014975D01*
X014977Y025281D01*
D02*
G37*
G36*
X015977Y025236D02*
X015978Y025235D01*
X015978Y025234D01*
Y025233D01*
Y025162D01*
Y025161D01*
X015978Y02516D01*
X015977Y025159D01*
X015975Y025158D01*
X015785D01*
X015783Y025159D01*
X015782Y02516D01*
X015782Y025161D01*
X015782Y025162D01*
Y025233D01*
Y025234D01*
X015782Y025235D01*
X015783Y025236D01*
X015785Y025237D01*
X015975D01*
X015977Y025236D01*
D02*
G37*
G36*
Y024921D02*
X015978Y02492D01*
X015978Y024919D01*
Y024918D01*
Y024847D01*
Y024846D01*
X015978Y024845D01*
X015977Y024844D01*
X015975Y024843D01*
X015785D01*
X015783Y024844D01*
X015782Y024845D01*
X015782Y024846D01*
Y024847D01*
Y024918D01*
Y024919D01*
X015782Y02492D01*
X015783Y024921D01*
X015785Y024922D01*
X015975D01*
X015977Y024921D01*
D02*
G37*
G36*
X020005Y021543D02*
X019887D01*
Y021897D01*
X020005D01*
Y021543D01*
D02*
G37*
G36*
X019493D02*
X019375D01*
Y021897D01*
X019493D01*
Y021543D01*
D02*
G37*
G36*
X020005Y020993D02*
X019887D01*
Y021347D01*
X020005D01*
Y020993D01*
D02*
G37*
G36*
X019493D02*
X019375D01*
Y021347D01*
X019493D01*
Y020993D01*
D02*
G37*
D12*
X01455Y026103D02*
X01518D01*
X01455Y026417D02*
X01518D01*
X01455Y026103D02*
Y026417D01*
X01518Y026103D02*
Y026417D01*
X021056Y026893D02*
Y027207D01*
X021686Y026893D02*
Y027207D01*
X021056Y026893D02*
X021686D01*
X021056Y027207D02*
X021686D01*
X020105Y018343D02*
Y018657D01*
X019475Y018343D02*
Y018657D01*
X020105D01*
X019475Y018343D02*
X020105D01*
X019904Y022256D02*
X020396D01*
X019904Y023044D02*
X020396D01*
Y022256D02*
Y023044D01*
X019904Y022256D02*
Y023044D01*
D81*
X01925Y019172D02*
G03*
X01925Y019092I0J-00004D01*
G01*
D02*
G03*
X01925Y019172I0J00004D01*
G01*
D101*
X013947Y026608D02*
G03*
X013947Y026613I-000003J000003D01*
G01*
X013813Y026747D02*
G03*
X013808Y026747I-000003J-000003D01*
G01*
X013891Y026558D02*
G03*
X013897Y026558I000003J000003D01*
G01*
X013757Y026697D02*
G03*
X013757Y026691I000003J-000003D01*
G01*
X013724Y026385D02*
G03*
X013724Y026391I-000003J000003D01*
G01*
X01359Y026524D02*
G03*
X013585Y026524I-000003J-000003D01*
G01*
X013668Y026335D02*
G03*
X013674Y026335I000003J000003D01*
G01*
X013535Y026474D02*
G03*
X013535Y026468I000003J-000003D01*
G01*
X014978Y025593D02*
G03*
X014975Y025597I-000004J0D01*
G01*
X014786D02*
G03*
X014782Y025593I0J-000004D01*
G01*
X014975Y025518D02*
G03*
X014978Y025522I0J000004D01*
G01*
X014782D02*
G03*
X014786Y025518I000004J0D01*
G01*
X014978Y025278D02*
G03*
X014975Y025282I-000004J0D01*
G01*
X014786D02*
G03*
X014782Y025278I0J-000004D01*
G01*
X014975Y025203D02*
G03*
X014978Y025207I0J000004D01*
G01*
X014782D02*
G03*
X014786Y025203I000004J0D01*
G01*
X015978Y025233D02*
G03*
X015975Y025237I-000004J0D01*
G01*
X015786D02*
G03*
X015782Y025233I0J-000004D01*
G01*
X015975Y025158D02*
G03*
X015978Y025162I0J000004D01*
G01*
X015782D02*
G03*
X015786Y025158I000004J0D01*
G01*
X015978Y024918D02*
G03*
X015975Y024922I-000004J0D01*
G01*
X015786D02*
G03*
X015782Y024918I0J-000004D01*
G01*
X015975Y024843D02*
G03*
X015978Y024847I0J000004D01*
G01*
X015782D02*
G03*
X015786Y024843I000004J0D01*
G01*
X013813Y026747D02*
X013947Y026613D01*
X013911Y026571D02*
X013947Y026608D01*
X013771Y026711D02*
X013808Y026747D01*
X013897Y026558D02*
X013911Y026571D01*
X013757Y026697D02*
X013771Y026711D01*
X013757Y026691D02*
X013891Y026558D01*
X013724Y026391D02*
X013891Y026558D01*
X01359Y026524D02*
X013757Y026691D01*
X01359Y026524D02*
X013724Y026391D01*
X01371Y026371D02*
X013724Y026385D01*
X013571Y02651D02*
X013585Y026524D01*
X013674Y026335D02*
X01371Y026371D01*
X013535Y026474D02*
X013571Y02651D01*
X013535Y026468D02*
X013668Y026335D01*
X014786Y025597D02*
X014975D01*
X014978Y025542D02*
Y025593D01*
X014782Y025542D02*
Y025593D01*
X014978Y025522D02*
Y025542D01*
X014782Y025522D02*
Y025542D01*
X014786Y025518D02*
X014975D01*
Y025282D02*
Y025518D01*
X014786Y025282D02*
Y025518D01*
Y025282D02*
X014975D01*
X014978Y025258D02*
Y025278D01*
X014782Y025258D02*
Y025278D01*
X014978Y025207D02*
Y025258D01*
X014782Y025207D02*
Y025258D01*
X014786Y025203D02*
X014975D01*
X015786Y025237D02*
X015975D01*
X015978Y025182D02*
Y025233D01*
X015782Y025182D02*
Y025233D01*
X015978Y025162D02*
Y025182D01*
X015782Y025162D02*
Y025182D01*
X015786Y025158D02*
X015975D01*
Y024922D02*
Y025158D01*
X015786Y024922D02*
Y025158D01*
Y024922D02*
X015975D01*
X015978Y024898D02*
Y024918D01*
X015782Y024898D02*
Y024918D01*
X015978Y024847D02*
Y024898D01*
X015782Y024847D02*
Y024898D01*
X015786Y024843D02*
X015975D01*
D102*
X015292Y025203D02*
X015488D01*
X015292Y025597D02*
X015488D01*
Y025203D02*
Y025597D01*
X015292Y025203D02*
Y025597D01*
X016938Y024843D02*
Y025237D01*
X016742Y024843D02*
Y025237D01*
Y024843D02*
X016938D01*
X016742Y025237D02*
X016938D01*
X016458Y024843D02*
Y025237D01*
X016262Y024843D02*
Y025237D01*
Y024843D02*
X016458D01*
X016262Y025237D02*
X016458D01*
X024253Y026748D02*
X024647D01*
X024253Y026552D02*
X024647D01*
Y026748D01*
X024253Y026552D02*
Y026748D01*
D103*
X021765Y026323D02*
Y026677D01*
X021663D02*
X021765D01*
X021663Y026323D02*
X021765D01*
X021655Y026677D02*
X021663D01*
X021647D02*
X021655D01*
X021647Y026323D02*
X021655D01*
X021647D02*
Y026677D01*
X021655Y026323D02*
X021663D01*
X021253Y026677D02*
X021647D01*
X021253Y026323D02*
X021647D01*
X021253D02*
Y026677D01*
X021245Y026323D02*
X021253D01*
X021245Y026677D02*
X021253D01*
X021237Y026323D02*
X021245D01*
X021237Y026677D02*
X021245D01*
X021135Y026323D02*
X021237D01*
X021135Y026677D02*
X021237D01*
X021135Y026323D02*
Y026677D01*
X021135Y025773D02*
Y026127D01*
Y025773D02*
X021237D01*
X021135Y026127D02*
X021237D01*
Y025773D02*
X021245D01*
X021253D01*
X021245Y026127D02*
X021253D01*
Y025773D02*
Y026127D01*
X021237D02*
X021245D01*
X021253Y025773D02*
X021647D01*
X021253Y026127D02*
X021647D01*
Y025773D02*
Y026127D01*
X021655D01*
X021647Y025773D02*
X021655D01*
Y026127D02*
X021663D01*
X021655Y025773D02*
X021663D01*
Y026127D02*
X021765D01*
X021663Y025773D02*
X021765D01*
Y026127D01*
X024135Y025773D02*
Y026127D01*
X024237D01*
X024135Y025773D02*
X024237D01*
Y026127D02*
X024245D01*
X024237Y025773D02*
X024245D01*
Y026127D02*
X024253D01*
X024245Y025773D02*
X024253D01*
Y026127D01*
Y025773D02*
X024647D01*
X024253Y026127D02*
X024647D01*
X024655Y025773D02*
X024663D01*
X024647D02*
Y026127D01*
Y025773D02*
X024655D01*
X024647Y026127D02*
X024655D01*
X024663D01*
Y025773D02*
X024765D01*
X024663Y026127D02*
X024765D01*
Y025773D02*
Y026127D01*
X024135Y027173D02*
Y027527D01*
X024237D01*
X024135Y027173D02*
X024237D01*
Y027527D02*
X024245D01*
X024237Y027173D02*
X024245D01*
Y027527D02*
X024253D01*
X024245Y027173D02*
X024253D01*
Y027527D01*
Y027173D02*
X024647D01*
X024253Y027527D02*
X024647D01*
X024655Y027173D02*
X024663D01*
X024647D02*
Y027527D01*
Y027173D02*
X024655D01*
X024647Y027527D02*
X024655D01*
X024663D01*
Y027173D02*
X024765D01*
X024663Y027527D02*
X024765D01*
Y027173D02*
Y027527D01*
X021765Y027423D02*
Y027777D01*
X021663Y027423D02*
X021765D01*
X021663Y027777D02*
X021765D01*
X021655Y027423D02*
X021663D01*
X021655Y027777D02*
X021663D01*
X021647Y027423D02*
X021655D01*
X021647Y027777D02*
X021655D01*
X021647Y027423D02*
Y027777D01*
X021253D02*
X021647D01*
X021253Y027423D02*
X021647D01*
X021237Y027777D02*
X021245D01*
X021253Y027423D02*
Y027777D01*
X021245D02*
X021253D01*
X021245Y027423D02*
X021253D01*
X021237D02*
X021245D01*
X021135Y027777D02*
X021237D01*
X021135Y027423D02*
X021237D01*
X021135D02*
Y027777D01*
X021765Y025233D02*
Y025587D01*
X021663Y025233D02*
X021765D01*
X021663Y025587D02*
X021765D01*
X021655Y025233D02*
X021663D01*
X021655Y025587D02*
X021663D01*
X021647Y025233D02*
X021655D01*
X021647Y025587D02*
X021655D01*
X021647Y025233D02*
Y025587D01*
X021253D02*
X021647D01*
X021253Y025233D02*
X021647D01*
X021237Y025587D02*
X021245D01*
X021253Y025233D02*
Y025587D01*
X021245D02*
X021253D01*
X021245Y025233D02*
X021253D01*
X021237D02*
X021245D01*
X021135Y025587D02*
X021237D01*
X021135Y025233D02*
X021237D01*
X021135D02*
Y025587D01*
X021135Y027973D02*
Y028327D01*
X021237D01*
X021135Y027973D02*
X021237D01*
Y028327D02*
X021245D01*
X021237Y027973D02*
X021245D01*
Y028327D02*
X021253D01*
X021245Y027973D02*
X021253D01*
Y028327D01*
Y027973D02*
X021647D01*
X021253Y028327D02*
X021647D01*
X021655Y027973D02*
X021663D01*
X021647D02*
Y028327D01*
Y027973D02*
X021655D01*
X021647Y028327D02*
X021655D01*
X021663D01*
Y027973D02*
X021765D01*
X021663Y028327D02*
X021765D01*
Y027973D02*
Y028327D01*
X021765Y028473D02*
Y028827D01*
X021663Y028473D02*
X021765D01*
X021663Y028827D02*
X021765D01*
X021655Y028473D02*
X021663D01*
X021655Y028827D02*
X021663D01*
X021647Y028473D02*
X021655D01*
X021647Y028827D02*
X021655D01*
X021647Y028473D02*
Y028827D01*
X021253D02*
X021647D01*
X021253Y028473D02*
X021647D01*
X021237Y028827D02*
X021245D01*
X021253Y028473D02*
Y028827D01*
X021245D02*
X021253D01*
X021245Y028473D02*
X021253D01*
X021237D02*
X021245D01*
X021135Y028827D02*
X021237D01*
X021135Y028473D02*
X021237D01*
X021135D02*
Y028827D01*
X019375Y021543D02*
Y021897D01*
Y021543D02*
X019477D01*
X019375Y021897D02*
X019477D01*
Y021543D02*
X019485D01*
X019493D01*
X019485Y021897D02*
X019493D01*
Y021543D02*
Y021897D01*
X019477D02*
X019485D01*
X019493Y021543D02*
X019887D01*
X019493Y021897D02*
X019887D01*
Y021543D02*
Y021897D01*
X019895D01*
X019887Y021543D02*
X019895D01*
Y021897D02*
X019903D01*
X019895Y021543D02*
X019903D01*
Y021897D02*
X020005D01*
X019903Y021543D02*
X020005D01*
Y021897D01*
Y020993D02*
Y021347D01*
X019903Y020993D02*
X020005D01*
X019903Y021347D02*
X020005D01*
X019895Y020993D02*
X019903D01*
X019895Y021347D02*
X019903D01*
X019887Y020993D02*
X019895D01*
X019887Y021347D02*
X019895D01*
X019887Y020993D02*
Y021347D01*
X019493D02*
X019887D01*
X019493Y020993D02*
X019887D01*
X019477Y021347D02*
X019485D01*
X019493Y020993D02*
Y021347D01*
X019485D02*
X019493D01*
X019485Y020993D02*
X019493D01*
X019477D02*
X019485D01*
X019375Y021347D02*
X019477D01*
X019375Y020993D02*
X019477D01*
X019375D02*
Y021347D01*
D105*
X020148Y022965D02*
D03*
Y022335D02*
D03*
D106*
X01539Y025258D02*
D03*
X015392Y025542D02*
D03*
X016838Y024898D02*
D03*
X01684Y025182D02*
D03*
X016358Y024898D02*
D03*
X01636Y025182D02*
D03*
D107*
X015101Y02626D02*
D03*
X014629Y02626D02*
D03*
X021607Y02705D02*
D03*
X021135D02*
D03*
X019554Y0185D02*
D03*
X020026D02*
D03*
D110*
X020716Y020757D02*
G03*
X020639Y020834I-000079J-000002D01*
G01*
X020716Y020756D02*
G03*
X020716Y020757I-000079J0D01*
G01*
X020639Y018866D02*
G03*
X020716Y018943I-000002J000079D01*
G01*
D02*
G03*
X020716Y018944I-000079J000002D01*
G01*
X019061Y020834D02*
G03*
X018984Y020757I000002J-000079D01*
G01*
X019063Y020834D02*
G03*
X019061Y020834I0J-000079D01*
G01*
X018984Y020757D02*
G03*
X018984Y020756I000079J-000002D01*
G01*
X020639Y020834D02*
G03*
X020637Y020834I-000002J-000079D01*
G01*
X019061Y018866D02*
G03*
X019063Y018866I000002J000079D01*
G01*
X018984Y018943D02*
G03*
X019061Y018866I000079J000002D01*
G01*
X018984Y018944D02*
G03*
X018984Y018943I000079J0D01*
G01*
X020637Y018866D02*
G03*
X020639Y018866I0J000079D01*
G01*
X02111Y020058D02*
Y020154D01*
Y020314D02*
Y02041D01*
X020969Y019898D02*
X02111D01*
X020969Y020058D02*
X02111D01*
X020939Y02041D02*
X020969D01*
X020939Y020314D02*
X020969D01*
X020939Y020154D02*
X020969D01*
X020939Y020058D02*
X020969D01*
X020939Y019898D02*
X020969D01*
Y02041D02*
X02111D01*
X020969Y020314D02*
X02111D01*
X020969Y020154D02*
X02111D01*
Y019802D02*
Y019898D01*
X020969Y019802D02*
X02111D01*
X020939D02*
X020969D01*
X020795Y020569D02*
X020881D01*
X020939D02*
X020969D01*
X02111D01*
X020716D02*
X020795D01*
X020969Y020666D02*
X02111D01*
X020795D02*
X020881D01*
X020716Y020569D02*
Y020666D01*
X020881D02*
X020939D01*
X020969D01*
X020716D02*
X020795D01*
X02111Y020569D02*
Y020666D01*
X020881Y020569D02*
X020939D01*
X020795Y020314D02*
X020881D01*
X020795Y02041D02*
X020881D01*
X020716Y020314D02*
Y02041D01*
Y020058D02*
Y020154D01*
X020795Y020058D02*
X020881D01*
X020716Y02041D02*
X020795D01*
X020716Y020314D02*
X020795D01*
X020716Y020154D02*
X020795D01*
X020716Y020058D02*
X020795D01*
Y020154D02*
X020881D01*
Y019642D02*
X020939D01*
X020969Y019546D02*
X02111D01*
Y019642D01*
X020939D02*
X020969D01*
X02111D01*
X020939Y019546D02*
X020969D01*
X020881D02*
X020939D01*
X020795Y01929D02*
X020881D01*
X020795Y019386D02*
X020881D01*
X020795Y019131D02*
X020881D01*
X020716Y01929D02*
Y019386D01*
Y019034D02*
Y019131D01*
Y019386D02*
X020795D01*
X020716Y019131D02*
X020795D01*
X020716Y01929D02*
X020795D01*
X020716Y019034D02*
X020795D01*
X020881D01*
Y019386D02*
X020939D01*
X020881Y01929D02*
X020939D01*
X020881Y019131D02*
X020939D01*
X020881Y019034D02*
X020939D01*
Y019386D02*
X020969D01*
X020939Y01929D02*
X020969D01*
X020939Y019131D02*
X020969D01*
X020939Y019034D02*
X020969D01*
Y019386D02*
X02111D01*
X020969Y019131D02*
X02111D01*
X020969Y01929D02*
X02111D01*
X020969Y019034D02*
X02111D01*
Y01929D02*
Y019386D01*
Y019034D02*
Y019131D01*
X020881Y019898D02*
X020939D01*
X020716D02*
X020795D01*
X020881D01*
Y02041D02*
X020939D01*
X020881Y020314D02*
X020939D01*
X020881Y020154D02*
X020939D01*
X020881Y020058D02*
X020939D01*
X020716Y019802D02*
X020795D01*
X020881D01*
X020939D01*
X020716Y019546D02*
X020795D01*
X020716Y019642D02*
X020795D01*
X020881D01*
X020716Y019802D02*
Y019898D01*
Y018944D02*
Y020756D01*
Y019546D02*
Y019642D01*
X020795Y019546D02*
X020881D01*
X01859Y019898D02*
X018731D01*
X018761D01*
X018819D01*
X018761Y020314D02*
X018819D01*
X018731Y020569D02*
X018761D01*
Y020666D02*
X018819D01*
X018731D02*
X018761D01*
X019063Y020834D02*
X020637D01*
X01859Y020569D02*
Y020666D01*
Y020569D02*
X018731D01*
X018761D02*
X018819D01*
X01859Y020666D02*
X018731D01*
X01859Y02041D02*
X018731D01*
X018761Y020154D02*
X018819D01*
X01859Y020314D02*
Y02041D01*
Y020058D02*
Y020154D01*
Y020314D02*
X018731D01*
X01859Y020058D02*
X018731D01*
X01859Y020154D02*
X018731D01*
Y02041D02*
X018761D01*
X018731Y020154D02*
X018761D01*
X018731Y020058D02*
X018761D01*
X018731Y020314D02*
X018761D01*
Y02041D02*
X018819D01*
X018761Y020058D02*
X018819D01*
X018761Y019546D02*
X018819D01*
X01859D02*
Y019642D01*
X018761D02*
X018819D01*
X018731D02*
X018761D01*
X018819D02*
X018905D01*
X01859D02*
X018731D01*
Y019546D02*
X018761D01*
X01859D02*
X018731D01*
X018819D02*
X018905D01*
X018761Y019131D02*
X018819D01*
X01859Y01929D02*
Y019386D01*
Y019034D02*
Y019131D01*
X018761Y01929D02*
X018819D01*
X01859Y019386D02*
X018731D01*
X01859Y01929D02*
X018731D01*
X01859Y019034D02*
X018731D01*
X01859Y019131D02*
X018731D01*
X018761D01*
X018731Y019034D02*
X018761D01*
X018731Y019386D02*
X018761D01*
X018731Y01929D02*
X018761D01*
Y019386D02*
X018819D01*
X018761Y019034D02*
X018819D01*
X019063Y018866D02*
X020637D01*
X018819Y01929D02*
X018905D01*
X018819Y019131D02*
X018905D01*
X018819Y019386D02*
X018905D01*
X018819Y019034D02*
X018905D01*
Y019386D02*
X018984D01*
Y019802D02*
Y019898D01*
X018905D02*
X018984D01*
X018905Y019802D02*
X018984D01*
X018905Y019642D02*
X018984D01*
Y019546D02*
Y019642D01*
X018905Y019546D02*
X018984D01*
X018819Y020666D02*
X018905D01*
X018819Y020569D02*
X018905D01*
X018819Y02041D02*
X018905D01*
X018819Y020314D02*
X018905D01*
X018819Y020154D02*
X018905D01*
X018819Y020058D02*
X018905D01*
X01859Y019802D02*
Y019898D01*
X018819Y019802D02*
X018905D01*
X018761D02*
X018819D01*
X018731D02*
X018761D01*
X018819Y019898D02*
X018905D01*
X01859Y019802D02*
X018731D01*
X018905Y020666D02*
X018984D01*
X018905Y02041D02*
X018984D01*
X018905Y020314D02*
X018984D01*
X018905Y020154D02*
X018984D01*
Y020314D02*
Y02041D01*
Y020058D02*
Y020154D01*
X018905Y020569D02*
X018984D01*
Y020666D01*
X018905Y020058D02*
X018984D01*
Y018944D02*
Y020756D01*
X018905Y01929D02*
X018984D01*
X018905Y019034D02*
X018984D01*
X018905Y019131D02*
X018984D01*
Y019034D02*
Y019131D01*
Y01929D02*
Y019386D01*
D113*
X024592Y026648D02*
D03*
X024308Y02665D02*
D03*
D114*
X018787Y019082D02*
D03*
Y019338D02*
D03*
Y019594D02*
D03*
Y01985D02*
D03*
Y020106D02*
D03*
Y020362D02*
D03*
Y020618D02*
D03*
X020913Y019082D02*
D03*
Y019338D02*
D03*
Y019594D02*
D03*
Y01985D02*
D03*
Y020106D02*
D03*
Y020362D02*
D03*
Y020618D02*
D03*
M02*
