G04*
G04 #@! TF.GenerationSoftware,Altium Limited,Altium Designer,22.5.1 (42)*
G04*
G04 Layer_Color=8388736*
%FSTAX24Y24*%
%MOIN*%
G70*
G04*
G04 #@! TF.SameCoordinates,090E5D1A-85BE-42B9-9E0A-55F43D75D69B*
G04*
G04*
G04 #@! TF.FilePolarity,Positive*
G04*
G01*
G75*
%ADD110C,0.0020*%
D110*
X021027Y026686D02*
X021873D01*
X021027Y026314D02*
X021873D01*
Y026686D01*
X021027Y026314D02*
Y026686D01*
Y025764D02*
X021873D01*
X021027Y026136D02*
X021873D01*
X021027Y025764D02*
Y026136D01*
X021873Y025764D02*
Y026136D01*
X013615Y026235D02*
X014047Y026666D01*
X013435Y026415D02*
X013866Y026847D01*
X013435Y026415D02*
X013615Y026235D01*
X013866Y026847D02*
X014047Y026666D01*
X014752Y025095D02*
X015008D01*
X014752Y025705D02*
X015008D01*
Y025095D02*
Y025705D01*
X014752Y025095D02*
Y025705D01*
X015752Y024735D02*
X016008D01*
X015752Y025345D02*
X016008D01*
Y024735D02*
Y025345D01*
X015752Y024735D02*
Y025345D01*
X015259Y025092D02*
X015522D01*
X015259Y025708D02*
X015522D01*
Y025092D02*
Y025708D01*
X015259Y025092D02*
Y025708D01*
X014353Y026049D02*
X015381D01*
X014353Y026466D02*
X015381D01*
X014353Y026049D02*
X014353Y026466D01*
X015381Y026049D02*
Y026466D01*
X016971Y024732D02*
Y025348D01*
X016709Y024732D02*
Y025348D01*
Y024732D02*
X016971D01*
X016709Y025348D02*
X016971D01*
X016492Y024732D02*
Y025348D01*
X016228Y024732D02*
Y025348D01*
Y024732D02*
X016492D01*
X016228Y025348D02*
X016492D01*
X024027Y025764D02*
Y026136D01*
X024873Y025764D02*
Y026136D01*
X024027Y025764D02*
X024873D01*
X024027Y026136D02*
X024873D01*
X024142Y026781D02*
X024758D01*
X024142Y026518D02*
X024758D01*
Y026781D01*
X024142Y026518D02*
Y026781D01*
X024027Y027164D02*
Y027536D01*
X024873Y027164D02*
Y027536D01*
X024027Y027164D02*
X024873D01*
X024027Y027536D02*
X024873D01*
X021873Y027414D02*
Y027786D01*
X021027Y027414D02*
Y027786D01*
X021873D01*
X021027Y027414D02*
X021873D01*
X021873Y025224D02*
Y025596D01*
X021027Y025224D02*
Y025596D01*
X021873D01*
X021027Y025224D02*
X021873D01*
X020855Y026844D02*
Y027261D01*
X021883Y026844D02*
Y027261D01*
X020855Y026844D02*
X021883D01*
X020855Y027261D02*
X021883D01*
X021027Y027964D02*
Y028336D01*
X021873Y027964D02*
Y028336D01*
X021027Y027964D02*
X021873D01*
X021027Y028336D02*
X021873D01*
Y028464D02*
Y028836D01*
X021027Y028464D02*
Y028836D01*
X021873D01*
X021027Y028464D02*
X021873D01*
X020306Y018289D02*
Y018706D01*
X019279Y018289D02*
Y018706D01*
X020306D01*
X019279Y018289D02*
X020306D01*
X019846Y022071D02*
X020454D01*
X019846Y023229D02*
X020454D01*
Y022071D02*
Y023229D01*
X019846Y022071D02*
Y023229D01*
X019267Y021534D02*
X020113D01*
X019267Y021906D02*
X020113D01*
X019267Y021534D02*
Y021906D01*
X020113Y021534D02*
Y021906D01*
Y020984D02*
Y021356D01*
X019267Y020984D02*
Y021356D01*
X020113D01*
X019267Y020984D02*
X020113D01*
M02*
