G04*
G04 #@! TF.GenerationSoftware,Altium Limited,Altium Designer,22.5.1 (42)*
G04*
G04 Layer_Color=128*
%FSTAX24Y24*%
%MOIN*%
G70*
G04*
G04 #@! TF.SameCoordinates,090E5D1A-85BE-42B9-9E0A-55F43D75D69B*
G04*
G04*
G04 #@! TF.FilePolarity,Positive*
G04*
G01*
G75*
G04:AMPARAMS|DCode=17|XSize=19.7mil|YSize=23.6mil|CornerRadius=4.9mil|HoleSize=0mil|Usage=FLASHONLY|Rotation=270.000|XOffset=0mil|YOffset=0mil|HoleType=Round|Shape=RoundedRectangle|*
%AMROUNDEDRECTD17*
21,1,0.0197,0.0138,0,0,270.0*
21,1,0.0098,0.0236,0,0,270.0*
1,1,0.0098,-0.0069,-0.0049*
1,1,0.0098,-0.0069,0.0049*
1,1,0.0098,0.0069,0.0049*
1,1,0.0098,0.0069,-0.0049*
%
%ADD17ROUNDEDRECTD17*%
G04:AMPARAMS|DCode=31|XSize=43.3mil|YSize=59.1mil|CornerRadius=10.8mil|HoleSize=0mil|Usage=FLASHONLY|Rotation=90.000|XOffset=0mil|YOffset=0mil|HoleType=Round|Shape=RoundedRectangle|*
%AMROUNDEDRECTD31*
21,1,0.0433,0.0374,0,0,90.0*
21,1,0.0217,0.0591,0,0,90.0*
1,1,0.0217,0.0187,0.0108*
1,1,0.0217,0.0187,-0.0108*
1,1,0.0217,-0.0187,-0.0108*
1,1,0.0217,-0.0187,0.0108*
%
%ADD31ROUNDEDRECTD31*%
G04:AMPARAMS|DCode=32|XSize=23.6mil|YSize=23.6mil|CornerRadius=5.9mil|HoleSize=0mil|Usage=FLASHONLY|Rotation=270.000|XOffset=0mil|YOffset=0mil|HoleType=Round|Shape=RoundedRectangle|*
%AMROUNDEDRECTD32*
21,1,0.0236,0.0118,0,0,270.0*
21,1,0.0118,0.0236,0,0,270.0*
1,1,0.0118,-0.0059,-0.0059*
1,1,0.0118,-0.0059,0.0059*
1,1,0.0118,0.0059,0.0059*
1,1,0.0118,0.0059,-0.0059*
%
%ADD32ROUNDEDRECTD32*%
G04:AMPARAMS|DCode=33|XSize=35.4mil|YSize=39.4mil|CornerRadius=8.9mil|HoleSize=0mil|Usage=FLASHONLY|Rotation=0.000|XOffset=0mil|YOffset=0mil|HoleType=Round|Shape=RoundedRectangle|*
%AMROUNDEDRECTD33*
21,1,0.0354,0.0217,0,0,0.0*
21,1,0.0177,0.0394,0,0,0.0*
1,1,0.0177,0.0089,-0.0108*
1,1,0.0177,-0.0089,-0.0108*
1,1,0.0177,-0.0089,0.0108*
1,1,0.0177,0.0089,0.0108*
%
%ADD33ROUNDEDRECTD33*%
G04:AMPARAMS|DCode=45|XSize=25.6mil|YSize=35.4mil|CornerRadius=6.4mil|HoleSize=0mil|Usage=FLASHONLY|Rotation=180.000|XOffset=0mil|YOffset=0mil|HoleType=Round|Shape=RoundedRectangle|*
%AMROUNDEDRECTD45*
21,1,0.0256,0.0226,0,0,180.0*
21,1,0.0128,0.0354,0,0,180.0*
1,1,0.0128,-0.0064,0.0113*
1,1,0.0128,0.0064,0.0113*
1,1,0.0128,0.0064,-0.0113*
1,1,0.0128,-0.0064,-0.0113*
%
%ADD45ROUNDEDRECTD45*%
G04:AMPARAMS|DCode=87|XSize=59.1mil|YSize=17.7mil|CornerRadius=1.8mil|HoleSize=0mil|Usage=FLASHONLY|Rotation=336.000|XOffset=0mil|YOffset=0mil|HoleType=Round|Shape=RoundedRectangle|*
%AMROUNDEDRECTD87*
21,1,0.0591,0.0142,0,0,336.0*
21,1,0.0555,0.0177,0,0,336.0*
1,1,0.0035,0.0225,-0.0178*
1,1,0.0035,-0.0282,0.0048*
1,1,0.0035,-0.0225,0.0178*
1,1,0.0035,0.0282,-0.0048*
%
%ADD87ROUNDEDRECTD87*%
G04:AMPARAMS|DCode=89|XSize=19.7mil|YSize=23.6mil|CornerRadius=4.9mil|HoleSize=0mil|Usage=FLASHONLY|Rotation=225.000|XOffset=0mil|YOffset=0mil|HoleType=Round|Shape=RoundedRectangle|*
%AMROUNDEDRECTD89*
21,1,0.0197,0.0138,0,0,225.0*
21,1,0.0098,0.0236,0,0,225.0*
1,1,0.0098,-0.0084,0.0014*
1,1,0.0098,-0.0014,0.0084*
1,1,0.0098,0.0084,-0.0014*
1,1,0.0098,0.0014,-0.0084*
%
%ADD89ROUNDEDRECTD89*%
%ADD90R,0.0750X0.0510*%
%ADD91R,0.0650X0.0260*%
G04:AMPARAMS|DCode=92|XSize=39.4mil|YSize=23.6mil|CornerRadius=3mil|HoleSize=0mil|Usage=FLASHONLY|Rotation=0.000|XOffset=0mil|YOffset=0mil|HoleType=Round|Shape=RoundedRectangle|*
%AMROUNDEDRECTD92*
21,1,0.0394,0.0177,0,0,0.0*
21,1,0.0335,0.0236,0,0,0.0*
1,1,0.0059,0.0167,-0.0089*
1,1,0.0059,-0.0167,-0.0089*
1,1,0.0059,-0.0167,0.0089*
1,1,0.0059,0.0167,0.0089*
%
%ADD92ROUNDEDRECTD92*%
G04:AMPARAMS|DCode=93|XSize=23.6mil|YSize=23.6mil|CornerRadius=5.9mil|HoleSize=0mil|Usage=FLASHONLY|Rotation=0.000|XOffset=0mil|YOffset=0mil|HoleType=Round|Shape=RoundedRectangle|*
%AMROUNDEDRECTD93*
21,1,0.0236,0.0118,0,0,0.0*
21,1,0.0118,0.0236,0,0,0.0*
1,1,0.0118,0.0059,-0.0059*
1,1,0.0118,-0.0059,-0.0059*
1,1,0.0118,-0.0059,0.0059*
1,1,0.0118,0.0059,0.0059*
%
%ADD93ROUNDEDRECTD93*%
G04:AMPARAMS|DCode=94|XSize=43.3mil|YSize=13.8mil|CornerRadius=3.4mil|HoleSize=0mil|Usage=FLASHONLY|Rotation=0.000|XOffset=0mil|YOffset=0mil|HoleType=Round|Shape=RoundedRectangle|*
%AMROUNDEDRECTD94*
21,1,0.0433,0.0069,0,0,0.0*
21,1,0.0364,0.0138,0,0,0.0*
1,1,0.0069,0.0182,-0.0034*
1,1,0.0069,-0.0182,-0.0034*
1,1,0.0069,-0.0182,0.0034*
1,1,0.0069,0.0182,0.0034*
%
%ADD94ROUNDEDRECTD94*%
G36*
X013615Y021512D02*
X013615Y021512D01*
X013617Y021512D01*
X013617Y021512D01*
X013619Y021511D01*
X013619Y021511D01*
X013621Y021511D01*
X013622Y021512D01*
X013623Y021512D01*
X013624Y021512D01*
X013625Y021512D01*
X013626Y021513D01*
X013627Y021513D01*
X013628Y021513D01*
X013629Y021514D01*
X013629Y021514D01*
X01363Y021515D01*
X013631Y021515D01*
X013632Y021516D01*
X013633Y021517D01*
X013634Y021517D01*
X013635Y021518D01*
X013635Y021519D01*
X013636Y02152D01*
X013636Y02152D01*
X013637Y021521D01*
X013637Y021522D01*
X013638Y021523D01*
X014451Y02335D01*
X014452Y023351D01*
X014452Y023352D01*
X014452Y023353D01*
X014452Y023354D01*
X014452Y023355D01*
X014453Y023356D01*
X014453Y023357D01*
X014453Y023358D01*
X014453Y023359D01*
X014453Y02336D01*
X014453Y023361D01*
X014452Y023362D01*
X014452Y023363D01*
X014452Y023364D01*
X014451Y023365D01*
X014451Y023366D01*
X014451Y023367D01*
X01445Y023368D01*
X01445Y023369D01*
X014449Y02337D01*
X014449Y023371D01*
X014448Y023372D01*
X014447Y023372D01*
X014446Y023373D01*
X014445Y023373D01*
X014445Y023374D01*
X014444Y023375D01*
X014443Y023375D01*
X01336Y023857D01*
X013359Y023858D01*
X013358Y023858D01*
X013357Y023858D01*
X013356Y023858D01*
X013355Y023858D01*
X013354Y023858D01*
X013353Y023859D01*
X013352Y023858D01*
X013351Y023858D01*
X01335Y023858D01*
X013349Y023858D01*
X013348Y023857D01*
X013347Y023857D01*
X013346Y023856D01*
X013345Y023856D01*
X013344Y023856D01*
X013343Y023855D01*
X013343Y023855D01*
X013342Y023854D01*
X013341Y023853D01*
X01334Y023853D01*
X013339Y023852D01*
X013339Y023851D01*
X013338Y02385D01*
X013338Y023849D01*
X013337Y023848D01*
X013337Y023848D01*
X013336Y023847D01*
X012523Y02202D01*
X012522Y022019D01*
X012522Y022018D01*
X012522Y022017D01*
X012521Y022016D01*
X012521Y022015D01*
X012521Y022014D01*
X012521Y022013D01*
X012521Y022012D01*
X012521Y022011D01*
X012521Y022009D01*
X012521Y022009D01*
X012522Y022008D01*
X012522Y022007D01*
X012522Y022006D01*
X012522Y022005D01*
X012523Y022004D01*
X012523Y022003D01*
X012524Y022002D01*
X012524Y022001D01*
X012525Y022D01*
X012525Y021999D01*
X012526Y021998D01*
X012527Y021998D01*
X012528Y021997D01*
X012528Y021996D01*
X012529Y021996D01*
X01253Y021995D01*
X012531Y021994D01*
X013613Y021512D01*
X013615Y021512D01*
D02*
G37*
D17*
X01488Y025203D02*
D03*
Y025597D02*
D03*
X01588Y024843D02*
D03*
Y025237D02*
D03*
D31*
X02015Y023004D02*
D03*
Y022296D02*
D03*
D32*
X01539Y025223D02*
D03*
Y025577D02*
D03*
X01684Y024863D02*
D03*
Y025217D02*
D03*
X01636Y024863D02*
D03*
Y025217D02*
D03*
D33*
X01455Y02626D02*
D03*
X01518D02*
D03*
X021056Y02705D02*
D03*
X021686D02*
D03*
X020105Y0185D02*
D03*
X019475D02*
D03*
D45*
X021735Y0265D02*
D03*
X021165D02*
D03*
X021165Y02595D02*
D03*
X021735D02*
D03*
X024165D02*
D03*
X024735D02*
D03*
X024165Y02735D02*
D03*
X024735D02*
D03*
X021735Y0276D02*
D03*
X021165D02*
D03*
X021735Y02541D02*
D03*
X021165D02*
D03*
X021165Y02815D02*
D03*
X021735D02*
D03*
X021735Y02865D02*
D03*
X021165D02*
D03*
X019405Y02172D02*
D03*
X019975D02*
D03*
Y02117D02*
D03*
X019405D02*
D03*
D87*
X011767Y02163D02*
D03*
X011871Y021864D02*
D03*
X011975Y022097D02*
D03*
X01208Y022331D02*
D03*
X012184Y022565D02*
D03*
X012288Y022799D02*
D03*
X012392Y023032D02*
D03*
X012496Y023266D02*
D03*
X0126Y0235D02*
D03*
X012704Y023734D02*
D03*
X012808Y023968D02*
D03*
X012912Y024201D02*
D03*
X013016Y024435D02*
D03*
X01312Y024669D02*
D03*
X015206Y02374D02*
D03*
X015102Y023506D02*
D03*
X014998Y023273D02*
D03*
X014894Y023039D02*
D03*
X01479Y022805D02*
D03*
X014686Y022571D02*
D03*
X014582Y022337D02*
D03*
X014478Y022104D02*
D03*
X014374Y02187D02*
D03*
X01427Y021636D02*
D03*
X014166Y021402D02*
D03*
X014062Y021169D02*
D03*
X013957Y020935D02*
D03*
X013853Y020701D02*
D03*
D89*
X013602Y026402D02*
D03*
X01388Y02668D02*
D03*
D90*
X033599Y020043D02*
D03*
Y025397D02*
D03*
D91*
X032097Y024885D02*
D03*
Y024492D02*
D03*
Y024098D02*
D03*
Y023704D02*
D03*
Y023311D02*
D03*
Y022917D02*
D03*
Y022523D02*
D03*
Y022129D02*
D03*
Y021736D02*
D03*
Y021342D02*
D03*
Y020948D02*
D03*
Y020555D02*
D03*
D92*
X022633Y026724D02*
D03*
X023467Y02635D02*
D03*
X022633Y025976D02*
D03*
Y028124D02*
D03*
X023467Y02775D02*
D03*
X022633Y027376D02*
D03*
D93*
X024627Y02665D02*
D03*
X024273D02*
D03*
D94*
X020982Y019082D02*
D03*
Y019338D02*
D03*
Y019594D02*
D03*
Y01985D02*
D03*
Y020106D02*
D03*
Y020362D02*
D03*
Y020618D02*
D03*
X018718D02*
D03*
Y019338D02*
D03*
Y019082D02*
D03*
Y019594D02*
D03*
Y01985D02*
D03*
Y020106D02*
D03*
Y020362D02*
D03*
M02*
