G04*
G04 #@! TF.GenerationSoftware,Altium Limited,Altium Designer,21.3.2 (30)*
G04*
G04 Layer_Physical_Order=6*
G04 Layer_Color=11930379*
%FSLAX25Y25*%
%MOIN*%
G70*
G04*
G04 #@! TF.SameCoordinates,20047665-8901-4395-8F35-5F40874213DC*
G04*
G04*
G04 #@! TF.FilePolarity,Positive*
G04*
G01*
G75*
%ADD10C,0.00600*%
%ADD15C,0.00500*%
G04:AMPARAMS|DCode=18|XSize=23.62mil|YSize=23.62mil|CornerRadius=5.91mil|HoleSize=0mil|Usage=FLASHONLY|Rotation=90.000|XOffset=0mil|YOffset=0mil|HoleType=Round|Shape=RoundedRectangle|*
%AMROUNDEDRECTD18*
21,1,0.02362,0.01181,0,0,90.0*
21,1,0.01181,0.02362,0,0,90.0*
1,1,0.01181,0.00591,0.00591*
1,1,0.01181,0.00591,-0.00591*
1,1,0.01181,-0.00591,-0.00591*
1,1,0.01181,-0.00591,0.00591*
%
%ADD18ROUNDEDRECTD18*%
G04:AMPARAMS|DCode=20|XSize=35.43mil|YSize=39.37mil|CornerRadius=8.86mil|HoleSize=0mil|Usage=FLASHONLY|Rotation=270.000|XOffset=0mil|YOffset=0mil|HoleType=Round|Shape=RoundedRectangle|*
%AMROUNDEDRECTD20*
21,1,0.03543,0.02165,0,0,270.0*
21,1,0.01772,0.03937,0,0,270.0*
1,1,0.01772,-0.01083,-0.00886*
1,1,0.01772,-0.01083,0.00886*
1,1,0.01772,0.01083,0.00886*
1,1,0.01772,0.01083,-0.00886*
%
%ADD20ROUNDEDRECTD20*%
%ADD21R,0.06614X0.06614*%
G04:AMPARAMS|DCode=22|XSize=9.84mil|YSize=31.5mil|CornerRadius=2.46mil|HoleSize=0mil|Usage=FLASHONLY|Rotation=180.000|XOffset=0mil|YOffset=0mil|HoleType=Round|Shape=RoundedRectangle|*
%AMROUNDEDRECTD22*
21,1,0.00984,0.02657,0,0,180.0*
21,1,0.00492,0.03150,0,0,180.0*
1,1,0.00492,-0.00246,0.01329*
1,1,0.00492,0.00246,0.01329*
1,1,0.00492,0.00246,-0.01329*
1,1,0.00492,-0.00246,-0.01329*
%
%ADD22ROUNDEDRECTD22*%
G04:AMPARAMS|DCode=23|XSize=9.84mil|YSize=31.5mil|CornerRadius=2.46mil|HoleSize=0mil|Usage=FLASHONLY|Rotation=270.000|XOffset=0mil|YOffset=0mil|HoleType=Round|Shape=RoundedRectangle|*
%AMROUNDEDRECTD23*
21,1,0.00984,0.02657,0,0,270.0*
21,1,0.00492,0.03150,0,0,270.0*
1,1,0.00492,-0.01329,-0.00246*
1,1,0.00492,-0.01329,0.00246*
1,1,0.00492,0.01329,0.00246*
1,1,0.00492,0.01329,-0.00246*
%
%ADD23ROUNDEDRECTD23*%
G04:AMPARAMS|DCode=29|XSize=19.68mil|YSize=23.62mil|CornerRadius=4.92mil|HoleSize=0mil|Usage=FLASHONLY|Rotation=270.000|XOffset=0mil|YOffset=0mil|HoleType=Round|Shape=RoundedRectangle|*
%AMROUNDEDRECTD29*
21,1,0.01968,0.01378,0,0,270.0*
21,1,0.00984,0.02362,0,0,270.0*
1,1,0.00984,-0.00689,-0.00492*
1,1,0.00984,-0.00689,0.00492*
1,1,0.00984,0.00689,0.00492*
1,1,0.00984,0.00689,-0.00492*
%
%ADD29ROUNDEDRECTD29*%
G04:AMPARAMS|DCode=30|XSize=23.62mil|YSize=23.62mil|CornerRadius=5.91mil|HoleSize=0mil|Usage=FLASHONLY|Rotation=180.000|XOffset=0mil|YOffset=0mil|HoleType=Round|Shape=RoundedRectangle|*
%AMROUNDEDRECTD30*
21,1,0.02362,0.01181,0,0,180.0*
21,1,0.01181,0.02362,0,0,180.0*
1,1,0.01181,-0.00591,0.00591*
1,1,0.01181,0.00591,0.00591*
1,1,0.01181,0.00591,-0.00591*
1,1,0.01181,-0.00591,-0.00591*
%
%ADD30ROUNDEDRECTD30*%
G04:AMPARAMS|DCode=35|XSize=19.68mil|YSize=23.62mil|CornerRadius=4.92mil|HoleSize=0mil|Usage=FLASHONLY|Rotation=180.000|XOffset=0mil|YOffset=0mil|HoleType=Round|Shape=RoundedRectangle|*
%AMROUNDEDRECTD35*
21,1,0.01968,0.01378,0,0,180.0*
21,1,0.00984,0.02362,0,0,180.0*
1,1,0.00984,-0.00492,0.00689*
1,1,0.00984,0.00492,0.00689*
1,1,0.00984,0.00492,-0.00689*
1,1,0.00984,-0.00492,-0.00689*
%
%ADD35ROUNDEDRECTD35*%
%ADD58C,0.00400*%
%ADD61C,0.01000*%
%ADD62C,0.01968*%
%ADD63C,0.00800*%
G36*
X112570Y78436D02*
X114004Y77842D01*
X115294Y76981D01*
X116391Y75884D01*
X117252Y74594D01*
X117845Y73160D01*
X118148Y71639D01*
X118147Y70863D01*
X118147Y41906D01*
X117647Y41549D01*
X106800D01*
X106341Y41359D01*
X106151Y40900D01*
Y32800D01*
X106341Y32341D01*
X106800Y32151D01*
X111684D01*
Y26138D01*
X108931Y23384D01*
X101638D01*
X101618Y23487D01*
X101376Y23848D01*
X101015Y24089D01*
X100589Y24174D01*
X99211D01*
X98785Y24089D01*
X98424Y23848D01*
X98182Y23487D01*
X98097Y23061D01*
Y22076D01*
X98182Y21650D01*
X98424Y21289D01*
X98785Y21048D01*
X99211Y20963D01*
X100589D01*
X101015Y21048D01*
X101376Y21289D01*
X101618Y21650D01*
X101638Y21753D01*
X109268D01*
X109268Y21753D01*
X109581Y21815D01*
X109845Y21992D01*
X113077Y25223D01*
X113077Y25223D01*
X113254Y25488D01*
X113316Y25800D01*
X113316Y25800D01*
Y32151D01*
X117800D01*
X118147Y31919D01*
X118147Y7871D01*
X118147Y7871D01*
X118148Y7096D01*
X117845Y5574D01*
X117252Y4141D01*
X116391Y2851D01*
X115294Y1754D01*
X114004Y892D01*
X112570Y299D01*
X111049Y-3D01*
X110273Y-3D01*
X92545D01*
X92338Y497D01*
X92543Y703D01*
X92784Y1285D01*
Y1915D01*
X92750Y1997D01*
X95577Y4823D01*
X95754Y5088D01*
X95816Y5400D01*
X95816Y5400D01*
Y17051D01*
X96115Y17111D01*
X96476Y17352D01*
X96718Y17713D01*
X96803Y18139D01*
Y19124D01*
X96718Y19550D01*
X96476Y19911D01*
X96267Y20051D01*
X96279Y20326D01*
X96351Y20576D01*
X96407Y20600D01*
X96536Y20600D01*
X96554Y20617D01*
X96578Y20619D01*
X96578Y20619D01*
X96648Y20700D01*
X96747Y20741D01*
X96759Y20770D01*
X96759Y20770D01*
X96797Y20860D01*
X96888Y20952D01*
X96900Y20981D01*
Y20990D01*
X96904Y20995D01*
X96900Y21052D01*
X96900Y21110D01*
X96949Y21229D01*
Y21358D01*
X96949Y21358D01*
Y37931D01*
X99315Y40297D01*
X99315Y40297D01*
X103459Y44441D01*
X103459Y44441D01*
X105413Y46395D01*
X105414Y46395D01*
X107368Y48349D01*
X107368Y48349D01*
X107417Y48469D01*
X107509Y48560D01*
X107528Y48607D01*
Y48607D01*
X107528Y48607D01*
X107600Y48781D01*
Y48910D01*
X107649Y49029D01*
Y49158D01*
X107649Y49158D01*
Y52671D01*
X107600Y52790D01*
Y52919D01*
X107509Y53140D01*
X107417Y53231D01*
X107368Y53351D01*
X107042Y53676D01*
X107042Y53676D01*
X106951Y53768D01*
X106831Y53817D01*
X106740Y53909D01*
X106693Y53928D01*
X106693D01*
X106693Y53928D01*
X106519Y54000D01*
X106390D01*
X106271Y54049D01*
X106142D01*
X106142Y54049D01*
X102269D01*
X101549Y54769D01*
Y55442D01*
X101549Y55442D01*
X101549Y55571D01*
X101549Y55571D01*
X101549Y55571D01*
X101500Y55690D01*
Y55819D01*
X101409Y55911D01*
X101359Y56030D01*
X101359D01*
X101359Y56030D01*
X101356Y56031D01*
X101331Y56042D01*
X101242Y56131D01*
X101242Y56131D01*
X101230Y56159D01*
X101111Y56209D01*
X101019Y56300D01*
X100890D01*
X100771Y56349D01*
X100642Y56349D01*
X100642Y56349D01*
X100174D01*
X100115Y56848D01*
X100476Y57089D01*
X100718Y57450D01*
X100745Y57588D01*
X100881Y57615D01*
X101145Y57792D01*
X103377Y60023D01*
X103377Y60023D01*
X103378Y60024D01*
X103697Y60157D01*
X104143Y60603D01*
X104384Y61185D01*
Y61815D01*
X104143Y62397D01*
X103697Y62843D01*
X103115Y63084D01*
X102485D01*
X101949Y62862D01*
X101720Y62945D01*
X101449Y63097D01*
Y70400D01*
X101259Y70859D01*
X100800Y71049D01*
X86600D01*
X86141Y70859D01*
X85951Y70400D01*
Y64300D01*
Y62243D01*
X85885Y62204D01*
X85451Y62090D01*
X85244Y62296D01*
X84943Y62703D01*
X85184Y63285D01*
Y63915D01*
X84943Y64497D01*
X84497Y64943D01*
X83915Y65184D01*
X83285D01*
X82703Y64943D01*
X82257Y64497D01*
X82016Y63915D01*
Y63285D01*
X82257Y62703D01*
X82556Y62404D01*
X82857Y61997D01*
X82616Y61415D01*
Y60785D01*
X82857Y60203D01*
X83303Y59757D01*
X83885Y59516D01*
X84515D01*
X85097Y59757D01*
X85451Y60110D01*
X85885Y59996D01*
X85951Y59957D01*
Y56593D01*
X79579Y50221D01*
X79358Y49890D01*
X79280Y49500D01*
Y48024D01*
X78784Y48015D01*
X78543Y48597D01*
X78267Y48873D01*
X78097Y49043D01*
X78258Y49518D01*
X78343Y49603D01*
X78584Y50185D01*
Y50815D01*
X78343Y51397D01*
X77897Y51843D01*
X77315Y52084D01*
X77338Y52574D01*
X77384Y52685D01*
Y53315D01*
X77143Y53897D01*
X76811Y54229D01*
X77094Y54653D01*
X77185Y54616D01*
X77815D01*
X78397Y54857D01*
X78843Y55303D01*
X79084Y55885D01*
Y56515D01*
X78843Y57097D01*
X78454Y57487D01*
X78736Y57769D01*
X78977Y58351D01*
Y58981D01*
X78736Y59564D01*
X78290Y60009D01*
X77708Y60250D01*
X77078D01*
X76495Y60009D01*
X76050Y59564D01*
X75809Y58981D01*
Y58351D01*
X76050Y57769D01*
X76439Y57380D01*
X76157Y57097D01*
X75916Y56515D01*
Y55885D01*
X76157Y55303D01*
X76489Y54971D01*
X76206Y54547D01*
X76115Y54584D01*
X75485D01*
X74903Y54343D01*
X74457Y53897D01*
X74300Y53518D01*
X74128Y53306D01*
X73716Y53260D01*
X73415Y53384D01*
X72785D01*
X72203Y53143D01*
X71757Y52697D01*
X71516Y52115D01*
Y51485D01*
X71757Y50903D01*
X72159Y50500D01*
X71757Y50097D01*
X71516Y49515D01*
Y48885D01*
X71757Y48303D01*
X72203Y47857D01*
X72785Y47616D01*
X73415D01*
X73997Y47857D01*
X74443Y48303D01*
X74684Y48885D01*
Y49515D01*
X74443Y50097D01*
X74041Y50500D01*
X74443Y50903D01*
X74600Y51282D01*
X74772Y51494D01*
X75024Y51523D01*
X75473Y51172D01*
X75462Y50925D01*
X75416Y50815D01*
Y50185D01*
X75657Y49603D01*
X75933Y49327D01*
X76103Y49157D01*
X75942Y48682D01*
X75857Y48597D01*
X75616Y48015D01*
Y47385D01*
X75857Y46803D01*
X76133Y46527D01*
X76286Y46309D01*
X76142Y45882D01*
X75957Y45697D01*
X75716Y45115D01*
Y44485D01*
X75957Y43903D01*
X76359Y43500D01*
X75957Y43097D01*
X75716Y42515D01*
Y41885D01*
X75957Y41303D01*
X76403Y40857D01*
X76985Y40616D01*
X77615D01*
X78197Y40857D01*
X78643Y41303D01*
X78780Y41634D01*
X79280Y41535D01*
Y38050D01*
X79076Y37949D01*
X78780Y37897D01*
X78397Y38280D01*
X77815Y38521D01*
X77680D01*
X77184Y38915D01*
X77156Y38983D01*
Y38983D01*
X77139Y39023D01*
X76943Y39497D01*
X76497Y39943D01*
X75915Y40184D01*
X75285D01*
X74703Y39943D01*
X74257Y39497D01*
X73738Y39551D01*
X73415Y39684D01*
X72785D01*
X72203Y39443D01*
X71757Y38997D01*
X71516Y38415D01*
Y37785D01*
X71757Y37203D01*
X72203Y36757D01*
X72785Y36516D01*
X73415D01*
X73997Y36757D01*
X74443Y37203D01*
X74962Y37149D01*
X75285Y37016D01*
X75420D01*
X75916Y36622D01*
X75944Y36554D01*
X76157Y36040D01*
X76494Y35703D01*
X76157Y35366D01*
X75916Y34784D01*
Y34153D01*
X76157Y33571D01*
X76603Y33125D01*
X76723Y33076D01*
Y32534D01*
X76503Y32443D01*
X76057Y31997D01*
X75816Y31415D01*
Y30785D01*
X76057Y30203D01*
X76410Y29850D01*
X76057Y29497D01*
X75938Y29210D01*
X75401Y29044D01*
X75373Y29053D01*
X74815Y29284D01*
X74185D01*
X73603Y29043D01*
X73157Y28597D01*
X72916Y28015D01*
Y27484D01*
X72485D01*
X71903Y27243D01*
X71457Y26797D01*
X71216Y26215D01*
Y25585D01*
X71457Y25003D01*
X71903Y24557D01*
X72485Y24316D01*
X73115D01*
X73697Y24557D01*
X74143Y25003D01*
X74384Y25585D01*
Y26116D01*
X74815D01*
X75316Y26323D01*
X75629Y26197D01*
X75816Y26068D01*
Y25816D01*
X76057Y25234D01*
X76503Y24788D01*
X76508Y24786D01*
Y24245D01*
X76503Y24243D01*
X76057Y23797D01*
X75816Y23215D01*
Y22585D01*
X75884Y22420D01*
X75866Y22313D01*
X75569Y21874D01*
X75410Y21842D01*
X75079Y21621D01*
X74842Y21384D01*
X74510Y21530D01*
X74384Y21633D01*
Y22215D01*
X74143Y22797D01*
X73697Y23243D01*
X73115Y23484D01*
X72485D01*
X71903Y23243D01*
X71457Y22797D01*
X71216Y22215D01*
Y21585D01*
X71457Y21003D01*
X71903Y20557D01*
X72485Y20316D01*
X73115D01*
X73303Y20393D01*
X73401Y20339D01*
X73699Y20016D01*
X73649Y19769D01*
Y18894D01*
X73626Y18859D01*
X73560Y18529D01*
Y15871D01*
X73626Y15541D01*
X73813Y15261D01*
X74093Y15074D01*
X74423Y15009D01*
X74915D01*
X75245Y15074D01*
X75525Y15261D01*
X75782D01*
X76062Y15074D01*
X76392Y15009D01*
X76884D01*
X77214Y15074D01*
X77494Y15261D01*
X77751D01*
X78031Y15074D01*
X78361Y15009D01*
X78714D01*
X78979Y14826D01*
X79162Y14560D01*
Y14207D01*
X79228Y13877D01*
X79415Y13598D01*
Y13340D01*
X79228Y13061D01*
X79162Y12731D01*
Y12238D01*
X79228Y11908D01*
X79415Y11629D01*
Y11372D01*
X79228Y11092D01*
X79162Y10762D01*
Y10269D01*
X79228Y9939D01*
X79415Y9659D01*
Y9403D01*
X79228Y9123D01*
X79162Y8793D01*
Y8440D01*
X78979Y8174D01*
X78714Y7991D01*
X78361D01*
X78031Y7926D01*
X77751Y7739D01*
X77494D01*
X77214Y7926D01*
X76884Y7991D01*
X76392D01*
X76062Y7926D01*
X75782Y7739D01*
X75525D01*
X75245Y7926D01*
X74915Y7991D01*
X74423D01*
X74093Y7926D01*
X73813Y7739D01*
X73556D01*
X73276Y7926D01*
X72946Y7991D01*
X72593D01*
X72328Y8174D01*
X72145Y8440D01*
Y8793D01*
X72079Y9123D01*
X71892Y9403D01*
Y9659D01*
X72079Y9939D01*
X72145Y10269D01*
Y10762D01*
X72079Y11092D01*
X71892Y11372D01*
Y11629D01*
X72079Y11908D01*
X72145Y12238D01*
Y12731D01*
X72079Y13061D01*
X71892Y13340D01*
Y13598D01*
X72079Y13877D01*
X72145Y14207D01*
Y14700D01*
X72079Y15030D01*
X71892Y15310D01*
X71612Y15496D01*
X71282Y15562D01*
X68625D01*
X68295Y15496D01*
X68015Y15310D01*
X67967Y15238D01*
X67701Y15185D01*
X67436Y15008D01*
X67436Y15008D01*
X66491Y14062D01*
X66000Y14160D01*
X65943Y14297D01*
X65601Y14639D01*
X65943Y14981D01*
X66184Y15564D01*
Y16101D01*
X66210Y16218D01*
X66573Y16563D01*
X66915D01*
X67497Y16804D01*
X67943Y17250D01*
X68184Y17832D01*
Y18462D01*
X67943Y19045D01*
X67606Y19381D01*
X67943Y19718D01*
X68184Y20301D01*
Y20931D01*
X67943Y21513D01*
X67497Y21959D01*
X67527Y22488D01*
X67897Y22641D01*
X68343Y23087D01*
X68584Y23669D01*
Y24299D01*
X68343Y24882D01*
X67897Y25327D01*
X67329Y25563D01*
X67308Y25616D01*
X67242Y26068D01*
X67697Y26257D01*
X68143Y26703D01*
X68384Y27285D01*
Y27915D01*
X68143Y28497D01*
X67697Y28943D01*
X67115Y29184D01*
X66485D01*
X65903Y28943D01*
X65825Y28958D01*
X65643Y29397D01*
X65241Y29800D01*
X65643Y30203D01*
X65884Y30785D01*
Y31415D01*
X65643Y31997D01*
X65197Y32443D01*
X65039Y32509D01*
Y33050D01*
X65297Y33157D01*
X65743Y33603D01*
X65984Y34185D01*
Y34815D01*
X65743Y35397D01*
X65390Y35750D01*
X65743Y36103D01*
X65927Y36547D01*
X66485Y36316D01*
X67115D01*
X67697Y36557D01*
X68143Y37003D01*
X68384Y37585D01*
Y38215D01*
X68143Y38797D01*
X67791Y39150D01*
X68143Y39503D01*
X68384Y40085D01*
Y40715D01*
X68143Y41297D01*
X68017Y41423D01*
X67704Y41750D01*
X68017Y42077D01*
X68143Y42203D01*
X68384Y42785D01*
Y43415D01*
X68143Y43997D01*
X67697Y44443D01*
X67695Y44455D01*
X68043Y44803D01*
X68284Y45385D01*
Y46015D01*
X68043Y46597D01*
X67597Y47043D01*
X67015Y47284D01*
X66385D01*
X65803Y47043D01*
X65357Y46597D01*
X65116Y46015D01*
Y45385D01*
X65357Y44803D01*
X65803Y44357D01*
X65805Y44345D01*
X65457Y43997D01*
X65216Y43415D01*
Y42785D01*
X65457Y42203D01*
X65583Y42077D01*
X65896Y41750D01*
X65583Y41423D01*
X65457Y41297D01*
X65216Y40715D01*
Y40085D01*
X65457Y39503D01*
X65810Y39150D01*
X65457Y38797D01*
X65273Y38353D01*
X64715Y38584D01*
X64085D01*
X63503Y38343D01*
X63057Y37897D01*
X62816Y37315D01*
Y36685D01*
X63057Y36103D01*
X63410Y35750D01*
X63057Y35397D01*
X62816Y34815D01*
Y34185D01*
X63057Y33603D01*
X63503Y33157D01*
X63661Y33091D01*
Y32550D01*
X63403Y32443D01*
X62957Y31997D01*
X62716Y31415D01*
Y30785D01*
X62957Y30203D01*
X63359Y29800D01*
X62957Y29397D01*
X62716Y28815D01*
Y28185D01*
X62957Y27603D01*
X63403Y27157D01*
X63985Y26916D01*
X64615D01*
X65197Y27157D01*
X65275Y27141D01*
X65457Y26703D01*
X65903Y26257D01*
X66471Y26021D01*
X66492Y25968D01*
X66558Y25516D01*
X66103Y25327D01*
X65657Y24882D01*
X65416Y24299D01*
Y23669D01*
X65657Y23087D01*
X66103Y22641D01*
X66073Y22112D01*
X65703Y21959D01*
X65257Y21513D01*
X65016Y20931D01*
Y20301D01*
X65257Y19718D01*
X65594Y19381D01*
X65257Y19045D01*
X65016Y18462D01*
Y17925D01*
X64990Y17808D01*
X64627Y17463D01*
X64285D01*
X63703Y17222D01*
X63257Y16776D01*
X63116Y16435D01*
X62616Y16535D01*
Y18600D01*
X62554Y18912D01*
X62377Y19177D01*
X62377Y19177D01*
X59450Y22103D01*
X59484Y22185D01*
Y22815D01*
X59243Y23397D01*
X58797Y23843D01*
X58215Y24084D01*
X57585D01*
X57003Y23843D01*
X56872Y23712D01*
X56443Y23797D01*
X55997Y24243D01*
X55415Y24484D01*
X54785D01*
X54203Y24243D01*
X53757Y23797D01*
X53516Y23215D01*
Y22585D01*
X53570Y22454D01*
X53403Y21843D01*
X52957Y21397D01*
X52716Y20815D01*
Y20185D01*
X52957Y19603D01*
X53038Y19522D01*
X53003Y19343D01*
X52557Y18897D01*
X52316Y18315D01*
Y17685D01*
X52557Y17103D01*
X52905Y16755D01*
X52903Y16743D01*
X52457Y16297D01*
X52216Y15715D01*
Y15085D01*
X52457Y14503D01*
X52843Y14116D01*
X52456Y13729D01*
X52019Y13596D01*
X51987Y13618D01*
X51561Y13702D01*
X50576D01*
X50150Y13618D01*
X49789Y13376D01*
X49548Y13015D01*
X49463Y12589D01*
Y11211D01*
X49548Y10785D01*
X49789Y10424D01*
X50007Y10278D01*
X50027Y10213D01*
Y9787D01*
X50007Y9722D01*
X49789Y9576D01*
X49548Y9215D01*
X49463Y8789D01*
Y7411D01*
X49100Y7103D01*
X48991Y7196D01*
X48737Y7535D01*
Y8789D01*
X48652Y9215D01*
X48411Y9576D01*
X48193Y9722D01*
X48173Y9787D01*
Y10213D01*
X48193Y10278D01*
X48411Y10424D01*
X48652Y10785D01*
X48737Y11211D01*
Y12589D01*
X48652Y13015D01*
X48411Y13376D01*
X48050Y13618D01*
X47624Y13702D01*
X46639D01*
X46584Y13691D01*
X46084Y14087D01*
Y14115D01*
X45843Y14697D01*
X45753Y14787D01*
X45582Y15257D01*
X45759Y15435D01*
X46027Y15703D01*
X46268Y16285D01*
Y16915D01*
X46027Y17497D01*
X45582Y17943D01*
X44999Y18184D01*
X44369D01*
X43918Y17998D01*
X43787Y17943D01*
X43245Y18108D01*
X41800Y19554D01*
X41919Y20142D01*
X42197Y20257D01*
X42643Y20703D01*
X42884Y21285D01*
Y21915D01*
X42643Y22497D01*
X42241Y22900D01*
X42643Y23303D01*
X42884Y23885D01*
Y24515D01*
X42643Y25097D01*
X42197Y25543D01*
X41615Y25784D01*
X40985D01*
X40896Y25747D01*
X40354Y26012D01*
X40177Y26277D01*
X40177Y26277D01*
X39603Y26851D01*
Y27724D01*
X39518Y28150D01*
X39276Y28511D01*
X38915Y28752D01*
X38489Y28837D01*
X37111D01*
X36685Y28752D01*
X36324Y28511D01*
X36082Y28150D01*
X35998Y27724D01*
Y26739D01*
X36082Y26313D01*
X35650Y26117D01*
X35477Y26377D01*
X35477Y26377D01*
X35102Y26751D01*
Y27724D01*
X35018Y28150D01*
X34776Y28511D01*
X34415Y28752D01*
X33989Y28837D01*
X32611D01*
X32185Y28752D01*
X31824Y28511D01*
X31582Y28150D01*
X31497Y27724D01*
Y26739D01*
X31582Y26313D01*
X31824Y25952D01*
X31848Y25935D01*
X31897Y25438D01*
X31857Y25397D01*
X31616Y24815D01*
Y24185D01*
X31857Y23603D01*
X32303Y23157D01*
X32661Y23009D01*
X32884Y22699D01*
X32882Y22417D01*
X32716Y22015D01*
Y21385D01*
X32957Y20803D01*
X33403Y20357D01*
X33985Y20116D01*
X34615D01*
X34697Y20150D01*
X35284Y19562D01*
Y18131D01*
X35045Y18084D01*
X34651Y17820D01*
X34388Y17427D01*
X34296Y16962D01*
Y15781D01*
X34388Y15317D01*
X34651Y14923D01*
X35045Y14660D01*
X35509Y14567D01*
X36691D01*
X37155Y14660D01*
X37549Y14923D01*
X37812Y15317D01*
X37904Y15781D01*
Y16962D01*
X37812Y17427D01*
X37549Y17820D01*
X37155Y18084D01*
X36916Y18131D01*
Y19842D01*
X37052Y19950D01*
X37391Y20074D01*
X39953Y17512D01*
Y11632D01*
X39953Y11632D01*
X40015Y11320D01*
X40192Y11055D01*
X42869Y8378D01*
X42678Y7916D01*
X36338D01*
X33310Y10943D01*
X33359Y11441D01*
X33376Y11452D01*
X33618Y11813D01*
X33702Y12239D01*
Y13224D01*
X33618Y13650D01*
X33376Y14011D01*
X33015Y14252D01*
X32589Y14337D01*
X31211D01*
X30785Y14252D01*
X30424Y14011D01*
X30182Y13650D01*
X30097Y13224D01*
X29603D01*
X29518Y13650D01*
X29276Y14011D01*
X28915Y14252D01*
X28489Y14337D01*
X27111D01*
X26685Y14252D01*
X26324Y14011D01*
X26082Y13650D01*
X25997Y13224D01*
Y12239D01*
X26082Y11813D01*
X26324Y11452D01*
X26685Y11211D01*
X27015Y11145D01*
X27046Y10988D01*
X27223Y10723D01*
X28999Y8948D01*
X28649Y8593D01*
X28319Y8814D01*
X27928Y8891D01*
X27419D01*
X27412Y8927D01*
X27149Y9320D01*
X26755Y9584D01*
X26291Y9676D01*
X25527D01*
X25276Y10031D01*
X25230Y10176D01*
X25302Y10539D01*
Y11524D01*
X25218Y11950D01*
X24976Y12311D01*
X24615Y12552D01*
X24189Y12637D01*
X22811D01*
X22385Y12552D01*
X22024Y12311D01*
X21782Y11950D01*
X21698Y11524D01*
X21203D01*
X21118Y11950D01*
X20876Y12311D01*
X20515Y12552D01*
X20089Y12637D01*
X18711D01*
X18285Y12552D01*
X17924Y12311D01*
X17682Y11950D01*
X17597Y11524D01*
Y10539D01*
X17682Y10113D01*
X17924Y9752D01*
X18285Y9511D01*
X18584Y9451D01*
Y3500D01*
X18584Y3500D01*
X18646Y3188D01*
X18823Y2923D01*
X21249Y497D01*
X21042Y-3D01*
X7911D01*
X7136Y-3D01*
X5615Y300D01*
X4182Y894D01*
X2892Y1756D01*
X1796Y2853D01*
X934Y4142D01*
X340Y5575D01*
X37Y7096D01*
X37Y7871D01*
Y70863D01*
X37Y71639D01*
X340Y73160D01*
X934Y74592D01*
X1796Y75882D01*
X2892Y76978D01*
X4182Y77840D01*
X5615Y78434D01*
X7136Y78737D01*
X7911Y78737D01*
X17990D01*
X18197Y78237D01*
X17957Y77997D01*
X17716Y77415D01*
Y76785D01*
X17799Y76583D01*
X17416Y76201D01*
X17215Y76284D01*
X16585D01*
X16003Y76043D01*
X15557Y75597D01*
X15316Y75015D01*
Y74385D01*
X15557Y73803D01*
X16003Y73357D01*
X16585Y73116D01*
X17215D01*
X17797Y73357D01*
X18243Y73803D01*
X18484Y74385D01*
Y75015D01*
X18401Y75217D01*
X18783Y75599D01*
X18985Y75516D01*
X19615D01*
X20197Y75757D01*
X20643Y76203D01*
X20884Y76785D01*
Y77415D01*
X20643Y77997D01*
X20403Y78237D01*
X20610Y78737D01*
X39282D01*
X39496Y78416D01*
X39551Y78237D01*
Y72400D01*
X39741Y71941D01*
X42795Y68887D01*
X42856Y68861D01*
X42893Y68806D01*
X43081Y68681D01*
X43206Y68493D01*
X43251Y68463D01*
Y68313D01*
X43257Y68296D01*
X43255Y68291D01*
Y67110D01*
X43257Y67104D01*
X43251Y67087D01*
Y66974D01*
X43081Y66719D01*
X42794Y66528D01*
X42774Y66498D01*
X42658Y66449D01*
X37500D01*
X37041Y66259D01*
X36341Y65559D01*
X36151Y65100D01*
Y65067D01*
X35651Y65018D01*
X35612Y65212D01*
X35349Y65606D01*
X34955Y65869D01*
X34491Y65961D01*
X33310D01*
X32845Y65869D01*
X32451Y65606D01*
X32188Y65212D01*
X32096Y64747D01*
Y63566D01*
X32188Y63102D01*
X32289Y62950D01*
X32301Y62742D01*
X31896Y62295D01*
X29052D01*
X28631Y62121D01*
X27150Y60640D01*
X26985Y60650D01*
X26598Y60795D01*
X26521Y60982D01*
X26281Y61221D01*
X25969Y61350D01*
X25631D01*
X25319Y61221D01*
X25079Y60982D01*
X24950Y60669D01*
Y60450D01*
X24500Y60000D01*
X24496Y59998D01*
X24362D01*
X24050Y59869D01*
X23811Y59629D01*
X23284D01*
X23044Y59869D01*
X22732Y59998D01*
X22394D01*
X22082Y59869D01*
X21842Y59629D01*
X21315D01*
X21076Y59869D01*
X20764Y59998D01*
X20425D01*
X20113Y59869D01*
X19874Y59629D01*
X19347D01*
X19107Y59869D01*
X18795Y59998D01*
X18457D01*
X18145Y59869D01*
X17905Y59629D01*
X17776Y59317D01*
Y59129D01*
X17697Y59050D01*
X17531D01*
X17219Y58921D01*
X16979Y58681D01*
X16899Y58487D01*
X16523Y58343D01*
X16350Y58329D01*
X15405Y59274D01*
X14984Y59448D01*
X14625D01*
X14625Y59449D01*
X14385Y59688D01*
X14302Y59723D01*
X13366Y60659D01*
X13376Y60710D01*
Y61891D01*
X13284Y62355D01*
X13021Y62749D01*
X12627Y63012D01*
X12162Y63104D01*
X10981D01*
X10517Y63012D01*
X10123Y62749D01*
X9860Y62355D01*
X9767Y61891D01*
Y60710D01*
X9860Y60245D01*
X10123Y59851D01*
X10382Y59678D01*
X10407Y59592D01*
Y59208D01*
X10382Y59122D01*
X10123Y58949D01*
X9860Y58555D01*
X9767Y58091D01*
Y56910D01*
X9860Y56445D01*
X10123Y56051D01*
X10517Y55788D01*
X10981Y55696D01*
X12162D01*
X12627Y55788D01*
X13021Y56051D01*
X13069Y56124D01*
X13367Y56427D01*
X13731Y56350D01*
X14069D01*
X14381Y56479D01*
X14621Y56718D01*
X14750Y57031D01*
Y57369D01*
X14621Y57682D01*
X14984Y58011D01*
X15808Y57188D01*
Y57011D01*
X15937Y56698D01*
X16176Y56459D01*
X16488Y56330D01*
X16827D01*
X16850Y56314D01*
Y56031D01*
X16979Y55718D01*
X17165Y55533D01*
X17200Y55273D01*
X17171Y54958D01*
X16994Y54782D01*
X16865Y54469D01*
X16830Y54127D01*
X16488Y54093D01*
X16176Y53963D01*
X15937Y53724D01*
X15863Y53545D01*
X15805Y53411D01*
X15369Y53250D01*
X15031D01*
X14718Y53121D01*
X14479Y52881D01*
X14350Y52569D01*
Y52231D01*
X14479Y51919D01*
X14718Y51679D01*
X15031Y51550D01*
X15369D01*
X15440Y51579D01*
X15796Y51224D01*
X15796Y51223D01*
X15803Y51216D01*
X15808Y51208D01*
Y51105D01*
X15937Y50792D01*
X16108Y50621D01*
X16047Y50301D01*
X15955Y50121D01*
X13130D01*
X13084Y50355D01*
X12821Y50749D01*
X12427Y51012D01*
X11962Y51104D01*
X10781D01*
X10317Y51012D01*
X9923Y50749D01*
X9660Y50355D01*
X9567Y49891D01*
Y48709D01*
X9577Y48659D01*
X4969Y44050D01*
X4887Y44084D01*
X4256D01*
X3674Y43843D01*
X3386Y43555D01*
X3097Y43843D01*
X2515Y44084D01*
X1885D01*
X1303Y43843D01*
X857Y43397D01*
X616Y42815D01*
Y42185D01*
X857Y41603D01*
X1303Y41157D01*
X1885Y40916D01*
X2515D01*
X3097Y41157D01*
X3386Y41445D01*
X3674Y41157D01*
X3783Y41112D01*
X3861Y40720D01*
X3837Y40549D01*
X3616Y40015D01*
Y39385D01*
X3857Y38803D01*
X4303Y38357D01*
X4885Y38116D01*
X5515D01*
X6097Y38357D01*
X6543Y38803D01*
X6577Y38884D01*
X6600D01*
X6600Y38884D01*
X6912Y38946D01*
X7000Y39005D01*
X7039Y38998D01*
X8024D01*
X8450Y39082D01*
X8811Y39324D01*
X9052Y39685D01*
X9137Y40111D01*
Y41489D01*
X9052Y41915D01*
X8811Y42276D01*
X8450Y42518D01*
X8024Y42603D01*
X7039D01*
X7000Y42595D01*
X6474Y42960D01*
X6446Y43221D01*
X10731Y47506D01*
X10781Y47496D01*
X11962D01*
X12427Y47588D01*
X12821Y47851D01*
X13084Y48245D01*
X13132Y48490D01*
X15955D01*
X16047Y48310D01*
X16108Y47990D01*
X15937Y47818D01*
X15808Y47506D01*
Y47168D01*
X15937Y46856D01*
X16176Y46616D01*
X16488Y46487D01*
X16827D01*
X17139Y46616D01*
X17378Y46856D01*
X17905D01*
X18145Y46616D01*
X18457Y46487D01*
X18795D01*
X19107Y46616D01*
X19347Y46856D01*
X19874D01*
X20113Y46616D01*
X20425Y46487D01*
X20764D01*
X21076Y46616D01*
X21315Y46856D01*
X21842D01*
X22082Y46616D01*
Y46089D01*
X21842Y45850D01*
X21713Y45538D01*
Y45199D01*
X21842Y44887D01*
X22082Y44648D01*
Y44121D01*
X21842Y43881D01*
X21315D01*
X21076Y44121D01*
X20764Y44250D01*
X20425D01*
X20113Y44121D01*
X19874Y43881D01*
X19347D01*
X19107Y44121D01*
X18795Y44250D01*
X18457D01*
X18145Y44121D01*
X17905Y43881D01*
X17378D01*
X17139Y44121D01*
X16827Y44250D01*
X16488D01*
X16176Y44121D01*
X15937Y43881D01*
X15808Y43569D01*
Y43231D01*
X15824Y43191D01*
X15441Y42808D01*
X15341Y42850D01*
X15003D01*
X14690Y42721D01*
X14451Y42481D01*
X14322Y42169D01*
Y41831D01*
X14451Y41519D01*
X14690Y41279D01*
X15003Y41150D01*
X15341D01*
X15653Y41279D01*
X15892Y41519D01*
X16022Y41831D01*
Y42168D01*
X16104Y42233D01*
X16242Y42341D01*
X16677Y42324D01*
X16792Y42186D01*
X16838Y42076D01*
X16921Y41874D01*
X17160Y41635D01*
X17473Y41506D01*
X17776D01*
Y41262D01*
X17905Y40950D01*
X18145Y40711D01*
Y40184D01*
X17905Y39944D01*
X17378D01*
X17139Y40184D01*
X16827Y40313D01*
X16488D01*
X16176Y40184D01*
X15937Y39944D01*
X15808Y39632D01*
Y39294D01*
X15937Y38982D01*
X15920Y38348D01*
X15706Y38144D01*
X14394D01*
X13966Y37967D01*
X13149D01*
Y38000D01*
X12959Y38459D01*
X12559Y38859D01*
X12100Y39049D01*
X10400Y39049D01*
X9941Y38859D01*
X9541Y38459D01*
X9351Y38000D01*
Y35169D01*
X9231Y35049D01*
X4700D01*
X4241Y34859D01*
X3841Y34459D01*
X3651Y34000D01*
Y29800D01*
X3841Y29341D01*
X4941Y28241D01*
X5400Y28051D01*
X8231D01*
X8383Y27551D01*
X8324Y27511D01*
X8082Y27150D01*
X7998Y26724D01*
Y25739D01*
X8082Y25313D01*
X8324Y24952D01*
X8685Y24711D01*
X8884Y24671D01*
Y23277D01*
X8803Y23243D01*
X8357Y22797D01*
X8116Y22215D01*
Y21585D01*
X8357Y21003D01*
X8803Y20557D01*
X9385Y20316D01*
X10015D01*
X10351Y20455D01*
X10851Y20157D01*
Y17500D01*
X11041Y17041D01*
X11441Y16641D01*
X11900Y16451D01*
X13500D01*
X13959Y16641D01*
X14459Y17141D01*
X14649Y17600D01*
Y20631D01*
X14801Y20782D01*
X21766D01*
X22188Y20324D01*
X22015Y19984D01*
X21385D01*
X20803Y19743D01*
X20408Y19349D01*
X20132Y19626D01*
X19549Y19867D01*
X18919D01*
X18337Y19626D01*
X17891Y19180D01*
X17650Y18598D01*
Y17967D01*
X17891Y17385D01*
X18279Y16998D01*
X18282Y16707D01*
X18221Y16446D01*
X17924Y16248D01*
X17682Y15887D01*
X17597Y15461D01*
Y14476D01*
X17682Y14050D01*
X17924Y13689D01*
X18285Y13448D01*
X18711Y13363D01*
X20089D01*
X20515Y13448D01*
X20876Y13689D01*
X21118Y14050D01*
X21203Y14476D01*
X21698D01*
X21782Y14050D01*
X22024Y13689D01*
X22385Y13448D01*
X22811Y13363D01*
X24189D01*
X24615Y13448D01*
X24976Y13689D01*
X25218Y14050D01*
X25302Y14476D01*
Y15461D01*
X25218Y15887D01*
X24976Y16248D01*
X24615Y16489D01*
X24316Y16600D01*
X24254Y16912D01*
X24077Y17177D01*
X24077Y17177D01*
X23416Y17837D01*
X23463Y18284D01*
X23785Y18616D01*
X24415D01*
X24997Y18857D01*
X25077Y18937D01*
X25667Y18820D01*
X25757Y18603D01*
X26026Y18334D01*
X26196Y18113D01*
X26123Y17649D01*
X26082Y17587D01*
X25997Y17161D01*
Y16176D01*
X26082Y15750D01*
X26324Y15389D01*
X26685Y15148D01*
X27111Y15063D01*
X28489D01*
X28915Y15148D01*
X29276Y15389D01*
X29518Y15750D01*
X29603Y16176D01*
X30097D01*
X30182Y15750D01*
X30424Y15389D01*
X30785Y15148D01*
X31211Y15063D01*
X32589D01*
X33015Y15148D01*
X33376Y15389D01*
X33618Y15750D01*
X33702Y16176D01*
Y17161D01*
X33618Y17587D01*
X33376Y17948D01*
X33015Y18189D01*
X32716Y18300D01*
X32654Y18612D01*
X32477Y18877D01*
X31377Y19977D01*
X31112Y20154D01*
X31102Y20156D01*
X31043Y20297D01*
X30597Y20743D01*
X30015Y20984D01*
X29385D01*
X28803Y20743D01*
X28455Y20395D01*
X28443Y20397D01*
X27997Y20843D01*
X27415Y21084D01*
X26785D01*
X26203Y20843D01*
X26123Y20763D01*
X25533Y20880D01*
X25443Y21097D01*
X24997Y21543D01*
X24415Y21784D01*
X23813D01*
X23249Y22349D01*
X22951Y22548D01*
X22600Y22618D01*
X14801D01*
X14649Y22769D01*
Y28051D01*
X24640D01*
X24759Y28100D01*
X24889D01*
X25214Y28235D01*
X25586D01*
X25911Y28100D01*
X26041D01*
X26160Y28051D01*
X28800D01*
X29259Y28241D01*
X29459Y28441D01*
X29649Y28900D01*
Y29205D01*
X30372D01*
X30703Y29271D01*
X30985Y29459D01*
X31451Y29926D01*
X31824Y29889D01*
X32185Y29648D01*
X32611Y29563D01*
X33989D01*
X34415Y29648D01*
X34776Y29889D01*
X35018Y30250D01*
X35102Y30676D01*
Y31661D01*
X35018Y32087D01*
X34776Y32448D01*
X34415Y32689D01*
X34350Y33131D01*
Y33469D01*
X34221Y33781D01*
X33981Y34021D01*
X33669Y34150D01*
X33449D01*
X33166Y34406D01*
X33057Y34573D01*
X33176Y34991D01*
X33656Y35042D01*
X33893Y34805D01*
X34205Y34676D01*
X34543D01*
X34855Y34805D01*
X35095Y35045D01*
X35622D01*
X35861Y34805D01*
X36173Y34676D01*
X36329Y34549D01*
X36463Y34324D01*
X36283Y33832D01*
X36257Y33819D01*
X36018Y33721D01*
X35779Y33481D01*
X35650Y33169D01*
Y32831D01*
X35779Y32519D01*
X36018Y32279D01*
X36025Y32277D01*
X36082Y32087D01*
X35998Y31661D01*
Y30676D01*
X36082Y30250D01*
X36324Y29889D01*
X36685Y29648D01*
X37111Y29563D01*
X38489D01*
X38915Y29648D01*
X39276Y29889D01*
X39518Y30250D01*
X39603Y30676D01*
Y31661D01*
X39518Y32087D01*
X39276Y32448D01*
X38915Y32689D01*
X38489Y32774D01*
X38481D01*
X38454Y32912D01*
X38277Y33177D01*
X38067Y33317D01*
X38004Y33498D01*
X38004Y33503D01*
X37982Y33869D01*
X38142Y34029D01*
X38272Y34341D01*
Y34679D01*
X38142Y34992D01*
X37903Y35231D01*
X37874Y35243D01*
X37832Y35766D01*
X38071Y36005D01*
X38200Y36318D01*
Y36645D01*
X38480D01*
X38792Y36774D01*
X38918Y36899D01*
X39673D01*
X39798Y36774D01*
Y36247D01*
X39559Y36007D01*
X39430Y35695D01*
Y35357D01*
X39559Y35045D01*
X39798Y34805D01*
X40110Y34676D01*
X40449D01*
X40761Y34805D01*
X41000Y35045D01*
X41129Y35357D01*
Y35695D01*
X41000Y36007D01*
X40904Y36104D01*
X40950Y36669D01*
X41206Y36832D01*
X42494D01*
X42748Y36882D01*
X42963Y37026D01*
X43350Y37413D01*
X43850Y37206D01*
X43850Y32800D01*
X43350Y32553D01*
X43155Y32684D01*
X42752Y32764D01*
X42677Y32877D01*
X42412Y33054D01*
X42133Y33109D01*
X41850Y33392D01*
Y33569D01*
X41721Y33882D01*
X41482Y34121D01*
X41169Y34250D01*
X40831D01*
X40519Y34121D01*
X40279Y33882D01*
X40150Y33569D01*
Y33231D01*
X40279Y32919D01*
X40369Y32829D01*
X40514Y32620D01*
X40475Y32156D01*
X40388Y32027D01*
X40296Y31562D01*
Y30381D01*
X40388Y29917D01*
X40651Y29523D01*
X41045Y29260D01*
X41509Y29167D01*
X42691D01*
X43155Y29260D01*
X43549Y29523D01*
X44041Y29641D01*
X44500Y29451D01*
X45555Y29451D01*
X45777Y29119D01*
X45820Y28951D01*
Y28374D01*
X46061Y27792D01*
X46456Y27397D01*
X46057Y26997D01*
X45816Y26415D01*
Y25785D01*
X46057Y25203D01*
X46425Y24834D01*
X46057Y24466D01*
X45816Y23884D01*
Y23253D01*
X46057Y22671D01*
X46394Y22334D01*
X46057Y21997D01*
X45816Y21415D01*
Y20785D01*
X46057Y20203D01*
X46503Y19757D01*
X47085Y19516D01*
X47715D01*
X48297Y19757D01*
X48743Y20203D01*
X48984Y20785D01*
Y21415D01*
X48743Y21997D01*
X48406Y22334D01*
X48743Y22671D01*
X48984Y23253D01*
Y23884D01*
X48743Y24466D01*
X48375Y24834D01*
X48743Y25203D01*
X48984Y25785D01*
Y26415D01*
X48743Y26997D01*
X48348Y27392D01*
X48748Y27792D01*
X48989Y28374D01*
Y29004D01*
X48748Y29586D01*
X48302Y30032D01*
X48118Y30108D01*
X48049Y30273D01*
Y39700D01*
X48227Y40128D01*
X48297Y40157D01*
X48743Y40603D01*
X48984Y41185D01*
Y41815D01*
X48743Y42397D01*
X48297Y42843D01*
X48122Y42916D01*
X47959Y43056D01*
X47827Y43546D01*
X47849Y43600D01*
X47849Y45037D01*
X48015Y45516D01*
X48597Y45757D01*
X49043Y46203D01*
X49284Y46785D01*
Y47415D01*
X49043Y47997D01*
X48917Y48123D01*
X48604Y48450D01*
X48917Y48777D01*
X49043Y48903D01*
X49284Y49485D01*
Y50115D01*
X49043Y50697D01*
X48597Y51143D01*
X48015Y51384D01*
X47749D01*
Y53516D01*
X47756Y53533D01*
X48297Y53757D01*
X48743Y54203D01*
X48984Y54785D01*
Y55415D01*
X48743Y55997D01*
X48297Y56443D01*
X47756Y56667D01*
X47749Y56684D01*
Y63031D01*
X47859Y63141D01*
X48049Y63600D01*
X48049Y66800D01*
X48049Y66800D01*
Y78300D01*
X48041Y78321D01*
X48318Y78737D01*
X87790Y78737D01*
X87997Y78237D01*
X87957Y78197D01*
X87716Y77615D01*
Y76985D01*
X87957Y76403D01*
X88403Y75957D01*
X88985Y75716D01*
X89615D01*
X90197Y75957D01*
X90323Y76083D01*
X90650Y76396D01*
X90977Y76083D01*
X91103Y75957D01*
X91685Y75716D01*
X92315D01*
X92897Y75957D01*
X93343Y76403D01*
X93584Y76985D01*
Y77615D01*
X93343Y78197D01*
X93303Y78237D01*
X93510Y78737D01*
X110273D01*
X110273Y78737D01*
X110273Y78737D01*
X111049Y78738D01*
X112570Y78436D01*
D02*
G37*
G36*
X34181Y62985D02*
X34164Y62977D01*
X34149Y62962D01*
X34136Y62941D01*
X34125Y62915D01*
X34116Y62883D01*
X34109Y62845D01*
X34104Y62801D01*
X34101Y62752D01*
X34100Y62696D01*
X33700D01*
X33699Y62752D01*
X33691Y62845D01*
X33684Y62883D01*
X33675Y62915D01*
X33664Y62941D01*
X33651Y62962D01*
X33636Y62977D01*
X33619Y62985D01*
X33600Y62988D01*
X34200D01*
X34181Y62985D01*
D02*
G37*
G36*
X42451Y62985D02*
X42430Y62974D01*
X42411Y62956D01*
X42395Y62930D01*
X42381Y62898D01*
X42370Y62858D01*
X42361Y62811D01*
X42355Y62757D01*
X42351Y62695D01*
X42350Y62626D01*
X41850D01*
X41849Y62695D01*
X41839Y62811D01*
X41830Y62858D01*
X41819Y62898D01*
X41805Y62930D01*
X41789Y62956D01*
X41770Y62974D01*
X41749Y62985D01*
X41725Y62988D01*
X42475D01*
X42451Y62985D01*
D02*
G37*
G36*
X38351D02*
X38330Y62974D01*
X38311Y62956D01*
X38295Y62930D01*
X38281Y62898D01*
X38270Y62858D01*
X38261Y62811D01*
X38255Y62757D01*
X38251Y62695D01*
X38250Y62626D01*
X37750D01*
X37749Y62695D01*
X37739Y62811D01*
X37730Y62858D01*
X37719Y62898D01*
X37705Y62930D01*
X37689Y62956D01*
X37670Y62974D01*
X37649Y62985D01*
X37625Y62988D01*
X38375D01*
X38351Y62985D01*
D02*
G37*
G36*
X32400Y61400D02*
X32385Y61419D01*
X32370Y61436D01*
X32354Y61451D01*
X32339Y61464D01*
X32323Y61475D01*
X32307Y61484D01*
X32291Y61491D01*
X32275Y61496D01*
X32258Y61499D01*
X32242Y61500D01*
Y61900D01*
X32258Y61901D01*
X32275Y61904D01*
X32291Y61909D01*
X32307Y61916D01*
X32323Y61925D01*
X32339Y61936D01*
X32354Y61949D01*
X32370Y61964D01*
X32385Y61981D01*
X32400Y62000D01*
Y61400D01*
D02*
G37*
G36*
X103324Y60667D02*
X103233Y60609D01*
X102751Y60267D01*
X102721Y60238D01*
X102346Y60428D01*
X102359Y60447D01*
X102365Y60469D01*
X102363Y60494D01*
X102354Y60523D01*
X102338Y60554D01*
X102314Y60590D01*
X102284Y60628D01*
X102245Y60670D01*
X102147Y60764D01*
X103324Y60667D01*
D02*
G37*
G36*
X31085Y60100D02*
X31070Y60119D01*
X31055Y60136D01*
X31040Y60151D01*
X31024Y60164D01*
X31008Y60175D01*
X30992Y60184D01*
X30976Y60191D01*
X30960Y60196D01*
X30944Y60199D01*
X30927Y60200D01*
Y60600D01*
X30944Y60601D01*
X30960Y60604D01*
X30976Y60609D01*
X30992Y60616D01*
X31008Y60625D01*
X31024Y60636D01*
X31040Y60649D01*
X31055Y60664D01*
X31070Y60681D01*
X31085Y60700D01*
Y60100D01*
D02*
G37*
G36*
X25759Y60002D02*
X25735Y60003D01*
X25712Y60003D01*
X25691Y60002D01*
X25671Y59999D01*
X25652Y59995D01*
X25635Y59989D01*
X25618Y59982D01*
X25604Y59974D01*
X25590Y59964D01*
X25578Y59953D01*
X25276Y60217D01*
X25287Y60230D01*
X25297Y60244D01*
X25304Y60259D01*
X25310Y60275D01*
X25314Y60293D01*
X25317Y60312D01*
X25318Y60332D01*
X25317Y60353D01*
X25314Y60376D01*
X25310Y60400D01*
X25759Y60002D01*
D02*
G37*
G36*
X12703Y60559D02*
X12699Y60540D01*
X12701Y60518D01*
X12710Y60492D01*
X12724Y60463D01*
X12745Y60431D01*
X12772Y60394D01*
X12806Y60354D01*
X12891Y60264D01*
X12608Y59981D01*
X12561Y60027D01*
X12477Y60099D01*
X12441Y60127D01*
X12408Y60147D01*
X12379Y60162D01*
X12354Y60171D01*
X12331Y60173D01*
X12313Y60169D01*
X12298Y60159D01*
X12713Y60574D01*
X12703Y60559D01*
D02*
G37*
G36*
X11853Y60129D02*
X11836Y60120D01*
X11821Y60105D01*
X11808Y60085D01*
X11797Y60059D01*
X11788Y60027D01*
X11781Y59988D01*
X11776Y59945D01*
X11773Y59895D01*
X11772Y59840D01*
X11372D01*
X11371Y59895D01*
X11363Y59988D01*
X11356Y60027D01*
X11347Y60059D01*
X11336Y60085D01*
X11323Y60105D01*
X11308Y60120D01*
X11291Y60129D01*
X11272Y60132D01*
X11872D01*
X11853Y60129D01*
D02*
G37*
G36*
X25182Y59558D02*
X25147Y59521D01*
X25090Y59452D01*
X25067Y59419D01*
X25049Y59387D01*
X25035Y59357D01*
X25025Y59328D01*
X25020Y59300D01*
X25019Y59273D01*
X25021Y59248D01*
X24573Y59646D01*
X24598Y59646D01*
X24624Y59650D01*
X24652Y59658D01*
X24681Y59670D01*
X24711Y59685D01*
X24743Y59705D01*
X24775Y59728D01*
X24809Y59756D01*
X24881Y59822D01*
X25182Y59558D01*
D02*
G37*
G36*
X33069Y59529D02*
X33034Y59492D01*
X32976Y59423D01*
X32953Y59390D01*
X32934Y59358D01*
X32919Y59328D01*
X32908Y59299D01*
X32902Y59271D01*
X32899Y59244D01*
X32901Y59219D01*
X32476Y59643D01*
X32502Y59641D01*
X32528Y59644D01*
X32556Y59651D01*
X32585Y59662D01*
X32616Y59676D01*
X32647Y59695D01*
X32680Y59718D01*
X32714Y59745D01*
X32786Y59812D01*
X33069Y59529D01*
D02*
G37*
G36*
X29132D02*
X29097Y59492D01*
X29039Y59423D01*
X29016Y59390D01*
X28997Y59358D01*
X28982Y59328D01*
X28971Y59299D01*
X28965Y59271D01*
X28962Y59244D01*
X28964Y59219D01*
X28539Y59643D01*
X28565Y59641D01*
X28591Y59644D01*
X28619Y59651D01*
X28648Y59662D01*
X28679Y59676D01*
X28710Y59695D01*
X28743Y59718D01*
X28777Y59745D01*
X28849Y59812D01*
X29132Y59529D01*
D02*
G37*
G36*
X27163D02*
X27128Y59492D01*
X27070Y59423D01*
X27047Y59390D01*
X27028Y59358D01*
X27013Y59328D01*
X27003Y59299D01*
X26996Y59271D01*
X26994Y59244D01*
X26995Y59219D01*
X26571Y59643D01*
X26596Y59641D01*
X26623Y59644D01*
X26651Y59651D01*
X26680Y59662D01*
X26710Y59676D01*
X26742Y59695D01*
X26774Y59718D01*
X26809Y59745D01*
X26881Y59812D01*
X27163Y59529D01*
D02*
G37*
G36*
X35105Y59525D02*
X35063Y59481D01*
X34991Y59396D01*
X34962Y59354D01*
X34937Y59313D01*
X34916Y59273D01*
X34899Y59233D01*
X34886Y59193D01*
X34877Y59155D01*
X34873Y59117D01*
X34343Y59647D01*
X34381Y59651D01*
X34419Y59660D01*
X34459Y59673D01*
X34499Y59690D01*
X34539Y59711D01*
X34580Y59736D01*
X34622Y59765D01*
X34664Y59799D01*
X34751Y59878D01*
X35105Y59525D01*
D02*
G37*
G36*
X13663Y59493D02*
X13677Y59483D01*
X13692Y59475D01*
X13708Y59469D01*
X13726Y59464D01*
X13745Y59461D01*
X13765Y59459D01*
X13786Y59459D01*
X13809Y59460D01*
X13833Y59463D01*
X13409Y59039D01*
X13412Y59063D01*
X13413Y59085D01*
X13413Y59107D01*
X13411Y59127D01*
X13408Y59146D01*
X13403Y59164D01*
X13396Y59180D01*
X13388Y59195D01*
X13379Y59209D01*
X13368Y59221D01*
X13651Y59504D01*
X13663Y59493D01*
D02*
G37*
G36*
X18233Y58461D02*
X18222Y58449D01*
X18213Y58435D01*
X18205Y58420D01*
X18199Y58404D01*
X18194Y58386D01*
X18191Y58367D01*
X18189Y58347D01*
Y58325D01*
X18191Y58302D01*
X18194Y58278D01*
X17763Y58696D01*
X17787Y58694D01*
X17810Y58693D01*
X17831Y58693D01*
X17851Y58695D01*
X17870Y58699D01*
X17888Y58704D01*
X17904Y58711D01*
X17919Y58719D01*
X17933Y58728D01*
X17945Y58739D01*
X18233Y58461D01*
D02*
G37*
G36*
X11773Y58905D02*
X11781Y58811D01*
X11788Y58774D01*
X11797Y58741D01*
X11808Y58715D01*
X11821Y58695D01*
X11836Y58680D01*
X11853Y58671D01*
X11872Y58668D01*
X11272D01*
X11291Y58671D01*
X11308Y58680D01*
X11323Y58695D01*
X11336Y58715D01*
X11347Y58741D01*
X11356Y58774D01*
X11363Y58811D01*
X11368Y58855D01*
X11371Y58905D01*
X11372Y58960D01*
X11772D01*
X11773Y58905D01*
D02*
G37*
G36*
X20524Y58653D02*
X20498Y58654D01*
X20472Y58652D01*
X20444Y58645D01*
X20415Y58635D01*
X20384Y58620D01*
X20353Y58601D01*
X20320Y58578D01*
X20286Y58551D01*
X20214Y58485D01*
X19931Y58767D01*
X19966Y58804D01*
X20024Y58873D01*
X20047Y58906D01*
X20066Y58938D01*
X20081Y58968D01*
X20092Y58997D01*
X20098Y59025D01*
X20101Y59052D01*
X20099Y59077D01*
X20524Y58653D01*
D02*
G37*
G36*
X18563Y58652D02*
X18538Y58653D01*
X18511Y58650D01*
X18483Y58643D01*
X18454Y58632D01*
X18424Y58617D01*
X18392Y58598D01*
X18359Y58575D01*
X18325Y58548D01*
X18253Y58482D01*
X17966Y58760D01*
X18001Y58796D01*
X18059Y58866D01*
X18082Y58899D01*
X18100Y58930D01*
X18115Y58960D01*
X18125Y58990D01*
X18132Y59018D01*
X18134Y59044D01*
X18132Y59070D01*
X18563Y58652D01*
D02*
G37*
G36*
X20136Y58407D02*
X20125Y58394D01*
X20116Y58381D01*
X20108Y58366D01*
X20101Y58349D01*
X20096Y58332D01*
X20093Y58313D01*
X20091Y58293D01*
X20091Y58271D01*
X20092Y58248D01*
X20095Y58224D01*
X19671Y58649D01*
X19695Y58646D01*
X19718Y58644D01*
X19739Y58645D01*
X19759Y58647D01*
X19778Y58650D01*
X19796Y58655D01*
X19812Y58661D01*
X19827Y58669D01*
X19841Y58679D01*
X19853Y58690D01*
X20136Y58407D01*
D02*
G37*
G36*
X14372Y59146D02*
X14383Y59127D01*
X14395Y59109D01*
X14408Y59094D01*
X14421Y59082D01*
X14435Y59071D01*
X14449Y59063D01*
X14464Y59058D01*
X14480Y59054D01*
X14497Y59053D01*
X14392Y58653D01*
X14375Y58652D01*
X14358Y58650D01*
X14341Y58647D01*
X14324Y58642D01*
X14308Y58636D01*
X14291Y58628D01*
X14274Y58619D01*
X14257Y58609D01*
X14241Y58597D01*
X14224Y58584D01*
X14362Y59168D01*
X14372Y59146D01*
D02*
G37*
G36*
X30932Y59062D02*
X30935Y59036D01*
X30942Y59008D01*
X30954Y58979D01*
X30969Y58949D01*
X30988Y58917D01*
X31011Y58884D01*
X31038Y58850D01*
X31105Y58778D01*
X30828Y58489D01*
X30792Y58524D01*
X30722Y58582D01*
X30689Y58605D01*
X30658Y58623D01*
X30627Y58638D01*
X30598Y58648D01*
X30570Y58655D01*
X30544Y58657D01*
X30518Y58655D01*
X30933Y59088D01*
X30932Y59062D01*
D02*
G37*
G36*
X36836Y59052D02*
X36839Y59025D01*
X36845Y58997D01*
X36856Y58968D01*
X36871Y58938D01*
X36890Y58906D01*
X36913Y58873D01*
X36940Y58839D01*
X37006Y58767D01*
X36723Y58485D01*
X36687Y58520D01*
X36617Y58578D01*
X36584Y58601D01*
X36553Y58620D01*
X36522Y58635D01*
X36493Y58645D01*
X36465Y58652D01*
X36439Y58654D01*
X36413Y58653D01*
X36838Y59077D01*
X36836Y59052D01*
D02*
G37*
G36*
X23056D02*
X23059Y59025D01*
X23066Y58997D01*
X23076Y58968D01*
X23091Y58938D01*
X23110Y58906D01*
X23133Y58873D01*
X23160Y58839D01*
X23170Y58829D01*
X23173Y58827D01*
X23188Y58819D01*
X23204Y58812D01*
X23222Y58807D01*
X23241Y58804D01*
X23261Y58802D01*
X23282Y58802D01*
X23305Y58803D01*
X23329Y58806D01*
X22905Y58382D01*
X22908Y58406D01*
X22909Y58429D01*
X22909Y58450D01*
X22907Y58470D01*
X22904Y58489D01*
X22899Y58507D01*
X22892Y58523D01*
X22884Y58538D01*
X22883Y58539D01*
X22838Y58578D01*
X22805Y58601D01*
X22773Y58620D01*
X22743Y58635D01*
X22714Y58645D01*
X22686Y58652D01*
X22659Y58654D01*
X22634Y58653D01*
X23058Y59077D01*
X23056Y59052D01*
D02*
G37*
G36*
X31159Y58725D02*
X31173Y58716D01*
X31188Y58708D01*
X31204Y58701D01*
X31222Y58696D01*
X31241Y58693D01*
X31261Y58691D01*
X31282Y58691D01*
X31305Y58692D01*
X31329Y58695D01*
X30905Y58271D01*
X30908Y58295D01*
X30909Y58318D01*
X30909Y58339D01*
X30907Y58359D01*
X30904Y58378D01*
X30899Y58396D01*
X30892Y58412D01*
X30884Y58427D01*
X30875Y58441D01*
X30864Y58453D01*
X31147Y58736D01*
X31159Y58725D01*
D02*
G37*
G36*
X37059Y58716D02*
X37073Y58706D01*
X37088Y58698D01*
X37104Y58692D01*
X37122Y58687D01*
X37141Y58684D01*
X37161Y58682D01*
X37182Y58681D01*
X37205Y58683D01*
X37229Y58685D01*
X36805Y58261D01*
X36808Y58285D01*
X36809Y58308D01*
X36809Y58330D01*
X36807Y58350D01*
X36804Y58369D01*
X36799Y58386D01*
X36792Y58403D01*
X36784Y58418D01*
X36775Y58431D01*
X36764Y58444D01*
X37047Y58727D01*
X37059Y58716D01*
D02*
G37*
G36*
X100169Y58649D02*
X100178Y58632D01*
X100193Y58618D01*
X100213Y58605D01*
X100240Y58593D01*
X100272Y58584D01*
X100310Y58578D01*
X100353Y58573D01*
X100403Y58570D01*
X100459Y58569D01*
Y58169D01*
X100403Y58167D01*
X100310Y58160D01*
X100272Y58153D01*
X100240Y58144D01*
X100213Y58132D01*
X100193Y58119D01*
X100178Y58104D01*
X100169Y58087D01*
X100166Y58069D01*
Y58669D01*
X100169Y58649D01*
D02*
G37*
G36*
X27920Y58090D02*
X27920Y58068D01*
X27921Y58046D01*
X27923Y58026D01*
X27927Y58007D01*
X27933Y57990D01*
X27939Y57974D01*
X27948Y57959D01*
X27957Y57945D01*
X27968Y57933D01*
X27698Y57636D01*
X27686Y57648D01*
X27672Y57657D01*
X27657Y57664D01*
X27641Y57670D01*
X27623Y57675D01*
X27604Y57678D01*
X27584Y57679D01*
X27563Y57678D01*
X27540Y57676D01*
X27516Y57672D01*
X27922Y58114D01*
X27920Y58090D01*
D02*
G37*
G36*
X16314Y57808D02*
X16383Y57750D01*
X16416Y57727D01*
X16447Y57708D01*
X16478Y57693D01*
X16507Y57682D01*
X16535Y57676D01*
X16561Y57673D01*
X16587Y57674D01*
X16162Y57250D01*
X16164Y57276D01*
X16161Y57302D01*
X16155Y57330D01*
X16144Y57359D01*
X16129Y57390D01*
X16110Y57421D01*
X16087Y57454D01*
X16060Y57488D01*
X15994Y57560D01*
X16277Y57843D01*
X16314Y57808D01*
D02*
G37*
G36*
X28103Y57799D02*
X28173Y57741D01*
X28206Y57719D01*
X28237Y57700D01*
X28268Y57686D01*
X28297Y57676D01*
X28325Y57670D01*
X28351Y57669D01*
X28377Y57671D01*
X27971Y57229D01*
X27971Y57254D01*
X27968Y57281D01*
X27960Y57309D01*
X27949Y57337D01*
X27934Y57368D01*
X27914Y57399D01*
X27891Y57432D01*
X27863Y57466D01*
X27797Y57538D01*
X28067Y57834D01*
X28103Y57799D01*
D02*
G37*
G36*
X41010Y57556D02*
X40968Y57513D01*
X40897Y57428D01*
X40867Y57386D01*
X40842Y57345D01*
X40821Y57304D01*
X40804Y57264D01*
X40792Y57225D01*
X40783Y57186D01*
X40778Y57148D01*
X40248Y57679D01*
X40286Y57683D01*
X40325Y57692D01*
X40364Y57704D01*
X40404Y57721D01*
X40445Y57742D01*
X40486Y57767D01*
X40527Y57797D01*
X40570Y57830D01*
X40656Y57910D01*
X41010Y57556D01*
D02*
G37*
G36*
X13442Y57000D02*
X13431Y57022D01*
X13420Y57041D01*
X13409Y57059D01*
X13396Y57073D01*
X13383Y57086D01*
X13369Y57096D01*
X13355Y57104D01*
X13340Y57110D01*
X13324Y57114D01*
X13307Y57115D01*
X13411Y57515D01*
X13429Y57516D01*
X13446Y57518D01*
X13463Y57521D01*
X13479Y57526D01*
X13496Y57532D01*
X13513Y57540D01*
X13530Y57549D01*
X13546Y57559D01*
X13563Y57571D01*
X13580Y57584D01*
X13442Y57000D01*
D02*
G37*
G36*
X18228Y56472D02*
X18217Y56460D01*
X18208Y56446D01*
X18200Y56431D01*
X18194Y56415D01*
X18190Y56397D01*
X18187Y56378D01*
X18186Y56358D01*
X18186Y56336D01*
X18188Y56314D01*
X18192Y56289D01*
X17752Y56697D01*
X17776Y56695D01*
X17798Y56695D01*
X17820Y56696D01*
X17840Y56699D01*
X17859Y56702D01*
X17876Y56708D01*
X17893Y56714D01*
X17908Y56723D01*
X17921Y56732D01*
X17934Y56743D01*
X18228Y56472D01*
D02*
G37*
G36*
X20146Y56449D02*
X20135Y56436D01*
X20126Y56422D01*
X20118Y56407D01*
X20111Y56391D01*
X20107Y56374D01*
X20103Y56355D01*
X20101Y56334D01*
X20101Y56313D01*
X20102Y56290D01*
X20105Y56266D01*
X19681Y56690D01*
X19705Y56687D01*
X19728Y56686D01*
X19749Y56687D01*
X19770Y56688D01*
X19788Y56692D01*
X19806Y56697D01*
X19822Y56703D01*
X19837Y56711D01*
X19851Y56720D01*
X19863Y56731D01*
X20146Y56449D01*
D02*
G37*
G36*
X20524Y56685D02*
X20498Y56686D01*
X20472Y56683D01*
X20444Y56677D01*
X20415Y56666D01*
X20384Y56651D01*
X20353Y56632D01*
X20320Y56609D01*
X20286Y56582D01*
X20214Y56516D01*
X19931Y56799D01*
X19966Y56836D01*
X20024Y56905D01*
X20047Y56938D01*
X20066Y56969D01*
X20081Y57000D01*
X20092Y57029D01*
X20098Y57057D01*
X20101Y57083D01*
X20099Y57109D01*
X20524Y56685D01*
D02*
G37*
G36*
X18574Y56682D02*
X18549Y56683D01*
X18522Y56679D01*
X18495Y56672D01*
X18466Y56661D01*
X18435Y56645D01*
X18404Y56626D01*
X18371Y56603D01*
X18337Y56575D01*
X18265Y56509D01*
X17970Y56780D01*
X18006Y56817D01*
X18063Y56886D01*
X18086Y56919D01*
X18104Y56951D01*
X18119Y56981D01*
X18129Y57010D01*
X18135Y57038D01*
X18136Y57065D01*
X18134Y57090D01*
X18574Y56682D01*
D02*
G37*
G36*
X36832Y57062D02*
X36833Y57036D01*
X36839Y57008D01*
X36849Y56979D01*
X36863Y56948D01*
X36882Y56917D01*
X36904Y56884D01*
X36931Y56850D01*
X36962Y56814D01*
X36997Y56778D01*
X36701Y56508D01*
X36665Y56543D01*
X36595Y56602D01*
X36562Y56625D01*
X36531Y56645D01*
X36500Y56660D01*
X36472Y56672D01*
X36444Y56679D01*
X36417Y56682D01*
X36392Y56682D01*
X36834Y57088D01*
X36832Y57062D01*
D02*
G37*
G36*
X100800Y61100D02*
X99674Y59974D01*
X98311D01*
X97938Y59900D01*
X97100D01*
X96000Y58800D01*
Y56600D01*
X95800Y56400D01*
X94955D01*
X94791Y56433D01*
X93609D01*
X93445Y56400D01*
X92100D01*
X91400Y55700D01*
X89755D01*
X89591Y55733D01*
X88409D01*
X88245Y55700D01*
X86600D01*
Y64300D01*
Y70400D01*
X100800D01*
Y61100D01*
D02*
G37*
G36*
X23063Y57124D02*
X23067Y57098D01*
X23075Y57071D01*
X23087Y57042D01*
X23103Y57012D01*
X23123Y56980D01*
X23147Y56948D01*
X23174Y56914D01*
X23241Y56842D01*
X23184Y56773D01*
X23247Y56836D01*
X23259Y56825D01*
X23273Y56816D01*
X23288Y56808D01*
X23304Y56801D01*
X23322Y56796D01*
X23341Y56793D01*
X23361Y56791D01*
X23382Y56791D01*
X23405Y56792D01*
X23429Y56795D01*
X23005Y56371D01*
X23008Y56395D01*
X23009Y56418D01*
X23009Y56439D01*
X23007Y56459D01*
X23004Y56478D01*
X22999Y56496D01*
X22992Y56512D01*
X22984Y56527D01*
X22975Y56541D01*
X22969Y56548D01*
X22947Y56569D01*
X22877Y56626D01*
X22844Y56648D01*
X22813Y56666D01*
X22783Y56680D01*
X22753Y56690D01*
X22726Y56695D01*
X22699Y56695D01*
X22674Y56692D01*
X23062Y57149D01*
X23063Y57124D01*
D02*
G37*
G36*
X37108Y56668D02*
X37122Y56659D01*
X37137Y56650D01*
X37153Y56643D01*
X37170Y56638D01*
X37189Y56634D01*
X37209Y56632D01*
X37231Y56630D01*
X37253Y56631D01*
X37277Y56633D01*
X36835Y56227D01*
X36839Y56251D01*
X36841Y56274D01*
X36842Y56295D01*
X36841Y56315D01*
X36838Y56334D01*
X36834Y56352D01*
X36827Y56368D01*
X36820Y56383D01*
X36810Y56397D01*
X36799Y56410D01*
X37095Y56679D01*
X37108Y56668D01*
D02*
G37*
G36*
X32648Y57684D02*
X32672Y57625D01*
X32911Y57386D01*
X33224Y57257D01*
X33524D01*
Y57011D01*
X33653Y56698D01*
X33893Y56459D01*
Y56094D01*
X33587Y55788D01*
X33031D01*
X32887Y55932D01*
X32575Y56061D01*
X32397D01*
X32350Y56108D01*
Y56286D01*
X32221Y56598D01*
X31982Y56837D01*
X31809Y56908D01*
X31763Y57379D01*
X31861Y57471D01*
X31881Y57479D01*
X32040Y57638D01*
X32126Y57718D01*
X32648Y57684D01*
D02*
G37*
G36*
X26019Y58427D02*
X26331Y58298D01*
X26574D01*
Y57995D01*
X26703Y57682D01*
X26943Y57443D01*
X27255Y57314D01*
X27462D01*
X27618Y57158D01*
X27619Y57157D01*
Y57011D01*
X27748Y56698D01*
X27987Y56459D01*
Y56094D01*
X27681Y55788D01*
X27125D01*
X26981Y55932D01*
X26669Y56061D01*
X26331D01*
X26019Y55932D01*
X25779Y55692D01*
X25252D01*
X25013Y55932D01*
Y56459D01*
X25252Y56698D01*
X25381Y57011D01*
Y57349D01*
X25252Y57661D01*
X25013Y57900D01*
Y58266D01*
X25319Y58571D01*
X25875D01*
X26019Y58427D01*
D02*
G37*
G36*
X97068Y57932D02*
X97207Y57829D01*
X97282Y57450D01*
X97524Y57089D01*
X97885Y56848D01*
X97829Y56349D01*
X97710Y56300D01*
X97581D01*
X97563Y56283D01*
X97539Y56281D01*
X97539Y56281D01*
X97469Y56200D01*
X97370Y56159D01*
X97358Y56131D01*
X97269Y56042D01*
X97269Y56042D01*
X97241Y56030D01*
X97191Y55911D01*
X97100Y55819D01*
Y55690D01*
X97051Y55571D01*
X97051Y55442D01*
X97051Y55442D01*
Y52929D01*
X97100Y52810D01*
Y52681D01*
X97141Y52583D01*
X97141Y52583D01*
Y52583D01*
X97191Y52460D01*
X97283Y52369D01*
X97332Y52249D01*
X97649Y51932D01*
X97769Y51883D01*
X97860Y51791D01*
X98081Y51700D01*
X98210D01*
X98329Y51651D01*
X99831D01*
X100151Y51331D01*
Y50484D01*
X100157Y50468D01*
X100155Y50462D01*
Y49281D01*
X99939Y48841D01*
X99911Y48829D01*
X99531Y48449D01*
X93158D01*
X93158Y48449D01*
X93029Y48449D01*
X93029Y48449D01*
X93029Y48449D01*
X92910Y48400D01*
X92781D01*
X92689Y48309D01*
X92570Y48259D01*
Y48259D01*
X92570Y48259D01*
X92569Y48256D01*
X92558Y48231D01*
X92469Y48142D01*
X92469Y48142D01*
X92441Y48130D01*
X92391Y48011D01*
X92300Y47919D01*
Y47790D01*
X92251Y47671D01*
X92251Y47542D01*
X92251Y47542D01*
Y34675D01*
X91751Y34468D01*
X91459Y34759D01*
X91000Y34949D01*
X87100D01*
X86641Y34759D01*
X86041Y34159D01*
X85851Y33700D01*
Y29969D01*
X84231Y28349D01*
X82200D01*
X81820Y28192D01*
X81320Y28391D01*
Y32376D01*
X81816Y32385D01*
X82057Y31803D01*
X82503Y31357D01*
X83085Y31116D01*
X83715D01*
X84297Y31357D01*
X84743Y31803D01*
X84984Y32385D01*
Y33015D01*
X84743Y33597D01*
X84297Y34043D01*
X83715Y34284D01*
X83085D01*
X82503Y34043D01*
X82057Y33597D01*
X81816Y33015D01*
X81320Y33024D01*
Y49078D01*
X87292Y55051D01*
X88245D01*
X88306Y55076D01*
X88371Y55063D01*
X88473Y55083D01*
X89527D01*
X89629Y55063D01*
X89694Y55076D01*
X89755Y55051D01*
X91400D01*
X91859Y55241D01*
X92369Y55751D01*
X93445D01*
X93506Y55776D01*
X93571Y55763D01*
X93673Y55783D01*
X94727D01*
X94829Y55763D01*
X94894Y55776D01*
X94955Y55751D01*
X95800D01*
X96259Y55941D01*
X96459Y56141D01*
X96649Y56600D01*
Y58058D01*
X96697Y58090D01*
X97068Y57932D01*
D02*
G37*
G36*
X38974Y55592D02*
X38939Y55555D01*
X38881Y55486D01*
X38858Y55453D01*
X38839Y55421D01*
X38824Y55391D01*
X38814Y55362D01*
X38807Y55334D01*
X38805Y55307D01*
X38806Y55282D01*
X38382Y55706D01*
X38407Y55704D01*
X38434Y55707D01*
X38462Y55714D01*
X38491Y55725D01*
X38521Y55739D01*
X38553Y55758D01*
X38586Y55781D01*
X38620Y55808D01*
X38692Y55875D01*
X38974Y55592D01*
D02*
G37*
G36*
X39179Y55655D02*
X39155Y55658D01*
X39132Y55659D01*
X39111Y55659D01*
X39091Y55657D01*
X39072Y55654D01*
X39054Y55649D01*
X39038Y55642D01*
X39023Y55634D01*
X39009Y55625D01*
X38997Y55614D01*
X38714Y55897D01*
X38725Y55909D01*
X38734Y55923D01*
X38742Y55938D01*
X38749Y55954D01*
X38754Y55972D01*
X38757Y55991D01*
X38759Y56011D01*
X38759Y56032D01*
X38758Y56055D01*
X38755Y56079D01*
X39179Y55655D01*
D02*
G37*
G36*
X31992Y56022D02*
X31991Y55999D01*
X31991Y55977D01*
X31993Y55957D01*
X31996Y55938D01*
X32001Y55921D01*
X32008Y55904D01*
X32016Y55889D01*
X32025Y55876D01*
X32034Y55866D01*
X32061Y55839D01*
X32131Y55781D01*
X32164Y55758D01*
X32195Y55739D01*
X32226Y55725D01*
X32255Y55714D01*
X32283Y55707D01*
X32309Y55704D01*
X32335Y55706D01*
X31910Y55282D01*
X31912Y55307D01*
X31909Y55334D01*
X31903Y55362D01*
X31892Y55391D01*
X31877Y55421D01*
X31858Y55453D01*
X31835Y55486D01*
X31808Y55520D01*
X31749Y55585D01*
X31741Y55591D01*
X31727Y55601D01*
X31712Y55609D01*
X31696Y55615D01*
X31678Y55620D01*
X31659Y55624D01*
X31639Y55625D01*
X31618Y55626D01*
X31595Y55624D01*
X31571Y55622D01*
X31995Y56046D01*
X31992Y56022D01*
D02*
G37*
G36*
X18555Y54716D02*
X18530Y54718D01*
X18503Y54715D01*
X18475Y54708D01*
X18446Y54698D01*
X18416Y54683D01*
X18384Y54664D01*
X18351Y54641D01*
X18317Y54614D01*
X18249Y54551D01*
X18240Y54541D01*
X18231Y54527D01*
X18223Y54512D01*
X18216Y54496D01*
X18211Y54478D01*
X18208Y54459D01*
X18206Y54439D01*
X18206Y54418D01*
X18207Y54395D01*
X18210Y54371D01*
X17786Y54795D01*
X17810Y54792D01*
X17833Y54791D01*
X17854Y54791D01*
X17874Y54793D01*
X17893Y54796D01*
X17911Y54801D01*
X17927Y54808D01*
X17942Y54816D01*
X17956Y54825D01*
X17967Y54835D01*
X17998Y54867D01*
X18056Y54936D01*
X18079Y54969D01*
X18098Y55001D01*
X18113Y55031D01*
X18123Y55060D01*
X18130Y55088D01*
X18133Y55115D01*
X18131Y55140D01*
X18555Y54716D01*
D02*
G37*
G36*
X20170Y54503D02*
X20159Y54491D01*
X20149Y54477D01*
X20141Y54462D01*
X20135Y54446D01*
X20130Y54428D01*
X20127Y54409D01*
X20125Y54389D01*
X20124Y54368D01*
X20126Y54345D01*
X20129Y54321D01*
X19704Y54745D01*
X19728Y54742D01*
X19751Y54741D01*
X19773Y54741D01*
X19793Y54743D01*
X19812Y54747D01*
X19829Y54751D01*
X19846Y54758D01*
X19861Y54766D01*
X19874Y54775D01*
X19887Y54786D01*
X20170Y54503D01*
D02*
G37*
G36*
X20524Y54716D02*
X20498Y54718D01*
X20472Y54715D01*
X20444Y54708D01*
X20415Y54698D01*
X20384Y54683D01*
X20353Y54664D01*
X20320Y54641D01*
X20286Y54614D01*
X20214Y54548D01*
X19931Y54830D01*
X19966Y54867D01*
X20024Y54936D01*
X20047Y54969D01*
X20066Y55001D01*
X20081Y55031D01*
X20092Y55060D01*
X20098Y55088D01*
X20101Y55115D01*
X20099Y55140D01*
X20524Y54716D01*
D02*
G37*
G36*
X36836Y55115D02*
X36839Y55088D01*
X36845Y55060D01*
X36856Y55031D01*
X36871Y55001D01*
X36890Y54969D01*
X36913Y54936D01*
X36940Y54902D01*
X37006Y54830D01*
X36723Y54548D01*
X36687Y54583D01*
X36617Y54641D01*
X36584Y54664D01*
X36553Y54683D01*
X36522Y54698D01*
X36493Y54708D01*
X36465Y54715D01*
X36439Y54718D01*
X36413Y54716D01*
X36838Y55140D01*
X36836Y55115D01*
D02*
G37*
G36*
X25025D02*
X25027Y55088D01*
X25034Y55060D01*
X25045Y55031D01*
X25060Y55001D01*
X25079Y54969D01*
X25102Y54936D01*
X25129Y54902D01*
X25195Y54830D01*
X24912Y54548D01*
X24875Y54583D01*
X24806Y54641D01*
X24773Y54664D01*
X24742Y54683D01*
X24711Y54698D01*
X24682Y54708D01*
X24654Y54715D01*
X24628Y54718D01*
X24602Y54716D01*
X25027Y55140D01*
X25025Y55115D01*
D02*
G37*
G36*
X25230Y54796D02*
X25244Y54787D01*
X25259Y54779D01*
X25275Y54773D01*
X25293Y54768D01*
X25312Y54764D01*
X25332Y54763D01*
X25354Y54762D01*
X25376Y54764D01*
X25401Y54766D01*
X24976Y54342D01*
X24979Y54366D01*
X24980Y54389D01*
X24980Y54410D01*
X24978Y54431D01*
X24975Y54449D01*
X24970Y54467D01*
X24963Y54483D01*
X24956Y54498D01*
X24946Y54512D01*
X24935Y54525D01*
X25218Y54807D01*
X25230Y54796D01*
D02*
G37*
G36*
X37059Y54779D02*
X37073Y54769D01*
X37088Y54761D01*
X37104Y54755D01*
X37122Y54750D01*
X37141Y54747D01*
X37161Y54745D01*
X37182Y54744D01*
X37205Y54746D01*
X37229Y54748D01*
X36805Y54324D01*
X36808Y54348D01*
X36809Y54371D01*
X36809Y54393D01*
X36807Y54413D01*
X36804Y54432D01*
X36799Y54449D01*
X36792Y54466D01*
X36784Y54481D01*
X36775Y54494D01*
X36764Y54507D01*
X37047Y54790D01*
X37059Y54779D01*
D02*
G37*
G36*
X31892Y54153D02*
X31891Y54130D01*
X31891Y54109D01*
X31893Y54089D01*
X31896Y54070D01*
X31901Y54052D01*
X31908Y54036D01*
X31916Y54021D01*
X31925Y54007D01*
X31936Y53995D01*
X31653Y53712D01*
X31641Y53723D01*
X31627Y53732D01*
X31612Y53740D01*
X31596Y53747D01*
X31578Y53752D01*
X31559Y53755D01*
X31539Y53757D01*
X31518Y53757D01*
X31495Y53756D01*
X31471Y53753D01*
X31895Y54177D01*
X31892Y54153D01*
D02*
G37*
G36*
X32061Y53871D02*
X32131Y53813D01*
X32164Y53790D01*
X32195Y53771D01*
X32226Y53756D01*
X32255Y53745D01*
X32283Y53739D01*
X32309Y53736D01*
X32335Y53737D01*
X31910Y53313D01*
X31912Y53339D01*
X31909Y53365D01*
X31903Y53393D01*
X31892Y53422D01*
X31877Y53453D01*
X31858Y53484D01*
X31835Y53517D01*
X31808Y53551D01*
X31742Y53623D01*
X32025Y53906D01*
X32061Y53871D01*
D02*
G37*
G36*
X20136Y52553D02*
X20125Y52541D01*
X20116Y52527D01*
X20108Y52512D01*
X20101Y52496D01*
X20096Y52478D01*
X20093Y52459D01*
X20091Y52439D01*
X20091Y52418D01*
X20092Y52395D01*
X20095Y52371D01*
X19671Y52795D01*
X19695Y52792D01*
X19718Y52791D01*
X19739Y52791D01*
X19759Y52793D01*
X19778Y52796D01*
X19796Y52801D01*
X19812Y52808D01*
X19827Y52816D01*
X19841Y52825D01*
X19853Y52836D01*
X20136Y52553D01*
D02*
G37*
G36*
X20488Y52754D02*
X20462Y52757D01*
X20436Y52756D01*
X20408Y52751D01*
X20379Y52742D01*
X20348Y52728D01*
X20317Y52710D01*
X20284Y52688D01*
X20250Y52661D01*
X20214Y52630D01*
X20178Y52595D01*
X19918Y52900D01*
X19953Y52937D01*
X20012Y53007D01*
X20036Y53039D01*
X20055Y53071D01*
X20071Y53101D01*
X20083Y53130D01*
X20091Y53157D01*
X20095Y53183D01*
X20096Y53208D01*
X20488Y52754D01*
D02*
G37*
G36*
X23056Y53143D02*
X23058Y53116D01*
X23065Y53088D01*
X23075Y53059D01*
X23090Y53029D01*
X23107Y53001D01*
X23122Y52996D01*
X23141Y52993D01*
X23161Y52991D01*
X23182Y52991D01*
X23205Y52992D01*
X23229Y52995D01*
X23161Y52927D01*
X23225Y52858D01*
X22940Y52578D01*
X22903Y52613D01*
X22873Y52638D01*
X22805Y52571D01*
X22808Y52595D01*
X22809Y52618D01*
X22809Y52639D01*
X22807Y52659D01*
X22804Y52678D01*
X22799Y52695D01*
X22769Y52713D01*
X22739Y52728D01*
X22710Y52739D01*
X22682Y52746D01*
X22655Y52748D01*
X22630Y52747D01*
X23057Y53168D01*
X23056Y53143D01*
D02*
G37*
G36*
X15690Y52502D02*
X15695Y52487D01*
X15701Y52472D01*
X15708Y52457D01*
X15716Y52443D01*
X15725Y52429D01*
X15734Y52415D01*
X15745Y52402D01*
X15768Y52376D01*
X15613Y51965D01*
X15601Y51976D01*
X15587Y51985D01*
X15573Y51991D01*
X15558Y51995D01*
X15542Y51996D01*
X15525Y51995D01*
X15507Y51991D01*
X15489Y51985D01*
X15469Y51977D01*
X15449Y51966D01*
X15686Y52517D01*
X15690Y52502D01*
D02*
G37*
G36*
X33180Y51671D02*
X33156Y51672D01*
X33134Y51672D01*
X33112Y51671D01*
X33092Y51668D01*
X33073Y51664D01*
X33056Y51658D01*
X33040Y51652D01*
X33025Y51643D01*
X33016Y51637D01*
X32965Y51575D01*
X32942Y51543D01*
X32924Y51511D01*
X32910Y51480D01*
X32900Y51451D01*
X32895Y51423D01*
X32893Y51397D01*
X32896Y51371D01*
X32449Y51772D01*
X32474Y51772D01*
X32501Y51776D01*
X32528Y51783D01*
X32557Y51795D01*
X32588Y51811D01*
X32619Y51830D01*
X32652Y51854D01*
X32686Y51881D01*
X32714Y51907D01*
X32719Y51915D01*
X32727Y51930D01*
X32733Y51946D01*
X32737Y51964D01*
X32740Y51983D01*
X32741Y52003D01*
X32740Y52025D01*
X32737Y52047D01*
X32733Y52071D01*
X33180Y51671D01*
D02*
G37*
G36*
X18224Y52110D02*
X18221Y52087D01*
X18221Y52066D01*
X18222Y52046D01*
X18225Y52027D01*
X18229Y52009D01*
X18235Y51993D01*
X18243Y51978D01*
X18252Y51964D01*
X18263Y51952D01*
X17966Y51683D01*
X17954Y51694D01*
X17940Y51703D01*
X17925Y51712D01*
X17909Y51718D01*
X17891Y51724D01*
X17873Y51728D01*
X17853Y51730D01*
X17831Y51731D01*
X17809Y51731D01*
X17785Y51730D01*
X18227Y52134D01*
X18224Y52110D01*
D02*
G37*
G36*
X18305Y51911D02*
X18375Y51852D01*
X18407Y51829D01*
X18439Y51809D01*
X18469Y51794D01*
X18498Y51782D01*
X18526Y51775D01*
X18552Y51771D01*
X18577Y51772D01*
X18135Y51367D01*
X18137Y51392D01*
X18136Y51419D01*
X18130Y51447D01*
X18120Y51476D01*
X18106Y51506D01*
X18087Y51538D01*
X18065Y51571D01*
X18038Y51605D01*
X18007Y51640D01*
X17972Y51677D01*
X18269Y51946D01*
X18305Y51911D01*
D02*
G37*
G36*
X16265Y51881D02*
X16335Y51823D01*
X16368Y51801D01*
X16399Y51783D01*
X16430Y51770D01*
X16458Y51761D01*
X16486Y51756D01*
X16513Y51756D01*
X16538Y51760D01*
X16158Y51295D01*
X16157Y51320D01*
X16152Y51346D01*
X16144Y51373D01*
X16131Y51402D01*
X16115Y51432D01*
X16095Y51463D01*
X16071Y51496D01*
X16044Y51530D01*
X15977Y51602D01*
X16229Y51916D01*
X16265Y51881D01*
D02*
G37*
G36*
X34303Y50779D02*
X34278Y50780D01*
X34251Y50778D01*
X34223Y50771D01*
X34194Y50761D01*
X34164Y50746D01*
X34132Y50727D01*
X34100Y50704D01*
X34065Y50677D01*
X33993Y50611D01*
X33711Y50893D01*
X33746Y50930D01*
X33804Y50999D01*
X33827Y51032D01*
X33846Y51064D01*
X33861Y51094D01*
X33871Y51123D01*
X33878Y51151D01*
X33880Y51178D01*
X33879Y51203D01*
X34303Y50779D01*
D02*
G37*
G36*
X33896Y50513D02*
X33885Y50501D01*
X33876Y50487D01*
X33868Y50472D01*
X33861Y50456D01*
X33856Y50438D01*
X33853Y50419D01*
X33851Y50399D01*
X33851Y50378D01*
X33852Y50355D01*
X33855Y50331D01*
X33431Y50755D01*
X33455Y50752D01*
X33478Y50751D01*
X33499Y50751D01*
X33519Y50753D01*
X33538Y50757D01*
X33556Y50761D01*
X33572Y50768D01*
X33587Y50776D01*
X33601Y50785D01*
X33613Y50796D01*
X33896Y50513D01*
D02*
G37*
G36*
X25025Y51178D02*
X25027Y51151D01*
X25034Y51123D01*
X25045Y51094D01*
X25060Y51064D01*
X25079Y51032D01*
X25102Y50999D01*
X25129Y50965D01*
X25195Y50893D01*
X24912Y50611D01*
X24875Y50646D01*
X24806Y50704D01*
X24773Y50727D01*
X24742Y50746D01*
X24711Y50761D01*
X24682Y50771D01*
X24654Y50778D01*
X24628Y50780D01*
X24602Y50779D01*
X25027Y51203D01*
X25025Y51178D01*
D02*
G37*
G36*
X25264Y50826D02*
X25278Y50816D01*
X25293Y50809D01*
X25309Y50802D01*
X25326Y50797D01*
X25345Y50794D01*
X25366Y50792D01*
X25387Y50792D01*
X25410Y50793D01*
X25434Y50796D01*
X25010Y50371D01*
X25013Y50396D01*
X25014Y50418D01*
X25014Y50440D01*
X25012Y50460D01*
X25008Y50479D01*
X25003Y50497D01*
X24997Y50513D01*
X24989Y50528D01*
X24980Y50542D01*
X24969Y50554D01*
X25251Y50837D01*
X25264Y50826D01*
D02*
G37*
G36*
X27304Y49727D02*
X27280Y49729D01*
X27257Y49729D01*
X27236Y49728D01*
X27216Y49725D01*
X27197Y49721D01*
X27180Y49716D01*
X27163Y49709D01*
X27149Y49701D01*
X27135Y49691D01*
X27131Y49687D01*
X27118Y49674D01*
X27060Y49604D01*
X27038Y49572D01*
X27020Y49540D01*
X27005Y49510D01*
X26995Y49481D01*
X26990Y49453D01*
X26988Y49426D01*
X26991Y49400D01*
X26546Y49803D01*
X26571Y49803D01*
X26598Y49807D01*
X26625Y49814D01*
X26654Y49826D01*
X26685Y49841D01*
X26716Y49861D01*
X26749Y49884D01*
X26783Y49912D01*
X26835Y49960D01*
X26835Y49960D01*
X26844Y49974D01*
X26852Y49989D01*
X26858Y50005D01*
X26862Y50023D01*
X26865Y50042D01*
X26866Y50062D01*
X26865Y50083D01*
X26863Y50106D01*
X26859Y50130D01*
X27304Y49727D01*
D02*
G37*
G36*
X31390Y49798D02*
X31366Y49802D01*
X31343Y49804D01*
X31321Y49805D01*
X31301Y49804D01*
X31282Y49801D01*
X31264Y49797D01*
X31248Y49790D01*
X31233Y49783D01*
X31219Y49773D01*
X31207Y49762D01*
X30937Y50059D01*
X30948Y50071D01*
X30958Y50085D01*
X30966Y50100D01*
X30973Y50116D01*
X30979Y50133D01*
X30982Y50152D01*
X30985Y50172D01*
X30986Y50194D01*
X30986Y50216D01*
X30984Y50240D01*
X31390Y49798D01*
D02*
G37*
G36*
X31108Y49664D02*
X31073Y49627D01*
X31015Y49558D01*
X30991Y49525D01*
X30972Y49494D01*
X30957Y49463D01*
X30945Y49434D01*
X30938Y49407D01*
X30934Y49380D01*
X30935Y49355D01*
X30529Y49797D01*
X30554Y49795D01*
X30581Y49796D01*
X30609Y49802D01*
X30638Y49812D01*
X30668Y49826D01*
X30700Y49845D01*
X30733Y49867D01*
X30767Y49894D01*
X30802Y49925D01*
X30839Y49960D01*
X31108Y49664D01*
D02*
G37*
G36*
X39703Y50487D02*
Y49931D01*
X39559Y49787D01*
X39193D01*
X38888Y50093D01*
Y50649D01*
X39032Y50792D01*
X39397D01*
X39703Y50487D01*
D02*
G37*
G36*
X16258Y49005D02*
X16241Y49025D01*
X16220Y49042D01*
X16195Y49057D01*
X16167Y49069D01*
X16135Y49081D01*
X16100Y49090D01*
X16060Y49097D01*
X16017Y49101D01*
X15919Y49106D01*
Y49505D01*
X15970Y49507D01*
X16060Y49514D01*
X16100Y49521D01*
X16135Y49531D01*
X16167Y49542D01*
X16195Y49554D01*
X16220Y49569D01*
X16241Y49586D01*
X16258Y49606D01*
Y49005D01*
D02*
G37*
G36*
X12543Y49586D02*
X12552Y49569D01*
X12566Y49554D01*
X12587Y49542D01*
X12613Y49531D01*
X12645Y49521D01*
X12683Y49514D01*
X12727Y49510D01*
X12777Y49507D01*
X12832Y49505D01*
Y49106D01*
X12777Y49104D01*
X12683Y49097D01*
X12645Y49090D01*
X12613Y49081D01*
X12587Y49069D01*
X12566Y49057D01*
X12552Y49042D01*
X12543Y49025D01*
X12540Y49005D01*
Y49606D01*
X12543Y49586D01*
D02*
G37*
G36*
X24136Y48627D02*
X24125Y48615D01*
X24116Y48601D01*
X24108Y48586D01*
X24101Y48570D01*
X24096Y48552D01*
X24093Y48533D01*
X24091Y48513D01*
X24091Y48492D01*
X24092Y48469D01*
X24095Y48445D01*
X23671Y48869D01*
X23695Y48866D01*
X23718Y48865D01*
X23739Y48865D01*
X23759Y48867D01*
X23778Y48870D01*
X23796Y48875D01*
X23812Y48882D01*
X23827Y48890D01*
X23841Y48899D01*
X23853Y48910D01*
X24136Y48627D01*
D02*
G37*
G36*
X24461Y48810D02*
X24435Y48812D01*
X24409Y48809D01*
X24381Y48803D01*
X24352Y48792D01*
X24321Y48777D01*
X24290Y48758D01*
X24257Y48735D01*
X24223Y48708D01*
X24151Y48642D01*
X23868Y48925D01*
X23903Y48961D01*
X23961Y49031D01*
X23984Y49064D01*
X24003Y49095D01*
X24018Y49126D01*
X24029Y49155D01*
X24035Y49183D01*
X24038Y49209D01*
X24036Y49235D01*
X24461Y48810D01*
D02*
G37*
G36*
X32894Y49187D02*
X32896Y49161D01*
X32902Y49133D01*
X32912Y49104D01*
X32926Y49073D01*
X32944Y49042D01*
X32967Y49009D01*
X32994Y48975D01*
X33024Y48939D01*
X33060Y48903D01*
X32763Y48634D01*
X32726Y48669D01*
X32657Y48728D01*
X32624Y48751D01*
X32593Y48770D01*
X32563Y48786D01*
X32533Y48797D01*
X32506Y48805D01*
X32479Y48808D01*
X32454Y48808D01*
X32897Y49213D01*
X32894Y49187D01*
D02*
G37*
G36*
X43171Y58573D02*
X43351Y58510D01*
Y46869D01*
X42541Y46059D01*
X42529Y46031D01*
X41142D01*
X41105Y46047D01*
X41035Y46048D01*
X40981Y46051D01*
X40879Y46060D01*
X40848Y46065D01*
X40821Y46071D01*
X40803Y46077D01*
X40797Y46079D01*
X40788Y46084D01*
X40783Y46086D01*
X40778Y46088D01*
X40765Y46089D01*
X40759Y46090D01*
X40449Y46218D01*
X40110D01*
X39798Y46089D01*
X39764Y46055D01*
X39714Y46041D01*
X39699Y46029D01*
X39697Y46028D01*
X39691Y46025D01*
X39680Y46020D01*
X39673Y46018D01*
X38918D01*
X38910Y46020D01*
X38899Y46025D01*
X38893Y46028D01*
X38892Y46029D01*
X38877Y46041D01*
X38827Y46055D01*
X38792Y46089D01*
X38480Y46218D01*
X38142D01*
X37830Y46089D01*
X37590Y45850D01*
X37063D01*
X36824Y46089D01*
Y46616D01*
X37063Y46856D01*
X37192Y47168D01*
Y47506D01*
X37063Y47818D01*
X36824Y48058D01*
X36512Y48187D01*
X36173D01*
X35861Y48058D01*
X35622Y47818D01*
X35095D01*
X34855Y48058D01*
Y48585D01*
X35095Y48824D01*
X35224Y49136D01*
Y49475D01*
X35095Y49787D01*
X34855Y50026D01*
Y50553D01*
X35095Y50792D01*
X35224Y51105D01*
Y51443D01*
X35095Y51755D01*
X34855Y51995D01*
Y52522D01*
X35095Y52761D01*
X35224Y53073D01*
Y53412D01*
X35095Y53724D01*
X34855Y53963D01*
Y54329D01*
X35161Y54634D01*
X35717D01*
X35861Y54490D01*
X36173Y54361D01*
X36351D01*
X36450Y54262D01*
Y54084D01*
X36579Y53772D01*
X36819Y53533D01*
X37131Y53404D01*
X37461D01*
Y53073D01*
X37590Y52761D01*
X37830Y52522D01*
Y51995D01*
X37590Y51755D01*
X37461Y51443D01*
Y51105D01*
X37590Y50792D01*
X37830Y50553D01*
Y50026D01*
X37590Y49787D01*
X37461Y49475D01*
Y49136D01*
X37590Y48824D01*
X37830Y48585D01*
X38142Y48456D01*
X38480D01*
X38792Y48585D01*
X39032Y48824D01*
X39559D01*
X39798Y48585D01*
X40110Y48456D01*
X40449D01*
X40761Y48585D01*
X41000Y48824D01*
X41129Y49136D01*
Y49475D01*
X41000Y49787D01*
X40761Y50026D01*
Y50553D01*
X41000Y50792D01*
X41129Y51105D01*
Y51443D01*
X41000Y51755D01*
X40761Y51995D01*
Y52522D01*
X41000Y52761D01*
X41129Y53073D01*
Y53412D01*
X41000Y53724D01*
X40761Y53963D01*
X40449Y54093D01*
X40110D01*
X39798Y53963D01*
X39559Y53724D01*
X39193D01*
X38888Y54030D01*
Y54586D01*
X39032Y54729D01*
X39161Y55042D01*
Y55219D01*
X39242Y55300D01*
X39419D01*
X39731Y55429D01*
X39971Y55668D01*
X40053Y55868D01*
X40100Y55981D01*
X40449Y56330D01*
X40761Y56459D01*
X41000Y56698D01*
X41129Y57011D01*
Y57059D01*
X41155Y57104D01*
X41157Y57123D01*
X41157Y57125D01*
X41160Y57131D01*
X41164Y57143D01*
X41168Y57149D01*
X42165Y58146D01*
X42432Y58199D01*
X42713Y58387D01*
X42851Y58593D01*
X43171Y58573D01*
D02*
G37*
G36*
X33082Y48882D02*
X33096Y48872D01*
X33111Y48864D01*
X33127Y48857D01*
X33145Y48851D01*
X33163Y48847D01*
X33184Y48845D01*
X33205Y48844D01*
X33228Y48844D01*
X33251Y48846D01*
X32809Y48441D01*
X32812Y48465D01*
X32815Y48488D01*
X32815Y48509D01*
X32814Y48529D01*
X32811Y48548D01*
X32807Y48566D01*
X32801Y48582D01*
X32793Y48597D01*
X32784Y48611D01*
X32773Y48624D01*
X33070Y48893D01*
X33082Y48882D01*
D02*
G37*
G36*
X10645Y48159D02*
X10630Y48169D01*
X10612Y48173D01*
X10590Y48171D01*
X10564Y48162D01*
X10535Y48147D01*
X10502Y48127D01*
X10466Y48099D01*
X10426Y48066D01*
X10336Y47981D01*
X10053Y48264D01*
X10098Y48311D01*
X10171Y48394D01*
X10198Y48430D01*
X10219Y48463D01*
X10234Y48492D01*
X10242Y48518D01*
X10244Y48540D01*
X10241Y48559D01*
X10231Y48574D01*
X10645Y48159D01*
D02*
G37*
G36*
X18145Y50553D02*
X18457Y50424D01*
X18795D01*
X19107Y50553D01*
X19347Y50792D01*
X19712D01*
X20018Y50487D01*
Y49931D01*
X19874Y49787D01*
X19745Y49475D01*
Y49136D01*
X19874Y48824D01*
X20113Y48585D01*
Y48058D01*
X19874Y47818D01*
X19347D01*
X19107Y48058D01*
X18795Y48187D01*
X18457D01*
X18145Y48058D01*
X17905Y47818D01*
X17540D01*
X17234Y48124D01*
Y48680D01*
X17378Y48824D01*
X17507Y49136D01*
Y49475D01*
X17378Y49787D01*
X17139Y50026D01*
Y50553D01*
X17378Y50792D01*
X17905D01*
X18145Y50553D01*
D02*
G37*
G36*
X100642Y55700D02*
X100771Y55700D01*
X100782Y55672D01*
X100872Y55582D01*
X100900Y55571D01*
X100900Y55571D01*
X100900Y55442D01*
X100900Y55442D01*
Y54769D01*
Y54500D01*
X101090Y54310D01*
X101090Y54310D01*
X101810Y53590D01*
X102000Y53400D01*
X106142D01*
X106142Y53400D01*
X106271D01*
X106445Y53328D01*
X106491Y53309D01*
X106583Y53217D01*
X106909Y52891D01*
X107000Y52671D01*
Y49158D01*
X107000Y49158D01*
Y49029D01*
X106928Y48855D01*
X106909Y48809D01*
X106909D01*
X104954Y46854D01*
X103000Y44900D01*
X103000Y44900D01*
X103000Y44900D01*
X98856Y40756D01*
X96300Y38200D01*
Y37931D01*
Y21358D01*
X96300Y21358D01*
Y21229D01*
X96288Y21200D01*
X96288Y21200D01*
X89400D01*
Y24300D01*
X92900Y27800D01*
Y47542D01*
X92900Y47542D01*
X92900Y47671D01*
X92928Y47682D01*
X93018Y47772D01*
X93029Y47800D01*
X93029Y47800D01*
X93158Y47800D01*
X93158Y47800D01*
X99800D01*
X100370Y48370D01*
X100449Y48423D01*
X100502Y48502D01*
X100800Y48800D01*
Y49259D01*
X100804Y49281D01*
Y50462D01*
X100800Y50484D01*
Y51331D01*
Y51600D01*
X100610Y51790D01*
X100610Y51790D01*
X100290Y52110D01*
X100100Y52300D01*
X98458D01*
X98329D01*
X98231Y52341D01*
X98109Y52391D01*
X98109Y52391D01*
X97791Y52709D01*
X97741Y52831D01*
X97700Y52929D01*
Y53058D01*
Y55442D01*
X97700Y55442D01*
X97700Y55571D01*
X97728Y55582D01*
X97818Y55672D01*
X97829Y55700D01*
X97829Y55700D01*
X100642D01*
X100642Y55700D01*
D02*
G37*
G36*
X23217Y45771D02*
X23182Y45734D01*
X23124Y45665D01*
X23102Y45632D01*
X23083Y45601D01*
X23069Y45570D01*
X23059Y45541D01*
X23053Y45513D01*
X23052Y45486D01*
X23054Y45461D01*
X22612Y45866D01*
X22637Y45866D01*
X22663Y45869D01*
X22691Y45877D01*
X22720Y45888D01*
X22750Y45904D01*
X22782Y45923D01*
X22815Y45946D01*
X22849Y45974D01*
X22921Y46040D01*
X23217Y45771D01*
D02*
G37*
G36*
X25467Y45860D02*
X25443Y45863D01*
X25420Y45865D01*
X25399Y45865D01*
X25379Y45864D01*
X25360Y45860D01*
X25342Y45856D01*
X25326Y45850D01*
X25311Y45842D01*
X25297Y45832D01*
X25284Y45821D01*
X25009Y46112D01*
X25020Y46124D01*
X25030Y46138D01*
X25038Y46153D01*
X25045Y46169D01*
X25050Y46187D01*
X25053Y46206D01*
X25056Y46226D01*
X25056Y46247D01*
X25056Y46270D01*
X25054Y46294D01*
X25467Y45860D01*
D02*
G37*
G36*
X25200Y45737D02*
X25164Y45700D01*
X25106Y45631D01*
X25083Y45598D01*
X25064Y45566D01*
X25049Y45536D01*
X25037Y45507D01*
X25030Y45479D01*
X25027Y45452D01*
X25028Y45427D01*
X24614Y45862D01*
X24640Y45860D01*
X24666Y45862D01*
X24694Y45868D01*
X24723Y45878D01*
X24754Y45893D01*
X24785Y45911D01*
X24818Y45934D01*
X24852Y45961D01*
X24888Y45992D01*
X24924Y46027D01*
X25200Y45737D01*
D02*
G37*
G36*
X23414Y45833D02*
X23390Y45834D01*
X23367Y45835D01*
X23346Y45833D01*
X23326Y45831D01*
X23307Y45827D01*
X23289Y45821D01*
X23273Y45815D01*
X23258Y45806D01*
X23244Y45797D01*
X23232Y45786D01*
X22935Y46055D01*
X22946Y46067D01*
X22956Y46081D01*
X22963Y46096D01*
X22969Y46112D01*
X22974Y46130D01*
X22976Y46149D01*
X22978Y46169D01*
X22977Y46191D01*
X22975Y46214D01*
X22971Y46238D01*
X23414Y45833D01*
D02*
G37*
G36*
X38672Y45720D02*
X38705Y45698D01*
X38742Y45680D01*
X38782Y45663D01*
X38826Y45650D01*
X38873Y45638D01*
X38923Y45630D01*
X38977Y45623D01*
X39094Y45619D01*
Y45118D01*
X39034Y45117D01*
X38923Y45107D01*
X38873Y45099D01*
X38826Y45087D01*
X38782Y45074D01*
X38742Y45057D01*
X38705Y45039D01*
X38672Y45017D01*
X38642Y44993D01*
Y45744D01*
X38672Y45720D01*
D02*
G37*
G36*
X40610Y45749D02*
X40644Y45732D01*
X40683Y45717D01*
X40727Y45704D01*
X40776Y45693D01*
X40830Y45684D01*
X40955Y45673D01*
X41025Y45669D01*
X41100Y45669D01*
Y45068D01*
X41025Y45068D01*
X40830Y45053D01*
X40776Y45044D01*
X40727Y45033D01*
X40683Y45020D01*
X40644Y45005D01*
X40610Y44988D01*
X40581Y44970D01*
Y45767D01*
X40610Y45749D01*
D02*
G37*
G36*
X36840Y45294D02*
X36843Y45267D01*
X36851Y45240D01*
X36862Y45211D01*
X36877Y45180D01*
X36897Y45149D01*
X36920Y45116D01*
X36948Y45082D01*
X37014Y45010D01*
X36744Y44714D01*
X36708Y44749D01*
X36638Y44807D01*
X36605Y44829D01*
X36574Y44848D01*
X36543Y44862D01*
X36514Y44872D01*
X36486Y44878D01*
X36460Y44879D01*
X36434Y44877D01*
X36840Y45319D01*
X36840Y45294D01*
D02*
G37*
G36*
X39949Y45232D02*
X40311Y44870D01*
X40273Y44865D01*
X40234Y44857D01*
X40195Y44844D01*
X40155Y44827D01*
X40115Y44806D01*
X40073Y44780D01*
X40032Y44751D01*
X39989Y44718D01*
X39903Y44638D01*
X39549Y44992D01*
X39591Y45035D01*
X39652Y45109D01*
X39614Y45114D01*
X39496Y45118D01*
Y45619D01*
X39557Y45620D01*
X39668Y45630D01*
X39718Y45638D01*
X39765Y45650D01*
X39808Y45663D01*
X39849Y45680D01*
X39885Y45698D01*
X39919Y45720D01*
X39949Y45744D01*
Y45232D01*
D02*
G37*
G36*
X37124Y44901D02*
X37138Y44892D01*
X37153Y44884D01*
X37169Y44879D01*
X37187Y44874D01*
X37206Y44871D01*
X37226Y44870D01*
X37247Y44871D01*
X37270Y44873D01*
X37294Y44877D01*
X36889Y44435D01*
X36890Y44459D01*
X36891Y44481D01*
X36889Y44503D01*
X36887Y44523D01*
X36883Y44542D01*
X36878Y44559D01*
X36871Y44575D01*
X36862Y44590D01*
X36853Y44604D01*
X36842Y44616D01*
X37111Y44912D01*
X37124Y44901D01*
D02*
G37*
G36*
X35842Y44303D02*
X35840Y44280D01*
X35840Y44258D01*
X35842Y44238D01*
X35846Y44219D01*
X35850Y44201D01*
X35857Y44185D01*
X35865Y44170D01*
X35874Y44156D01*
X35885Y44144D01*
X35601Y43863D01*
X35588Y43874D01*
X35574Y43883D01*
X35559Y43891D01*
X35543Y43898D01*
X35526Y43903D01*
X35507Y43906D01*
X35487Y43908D01*
X35465Y43908D01*
X35442Y43907D01*
X35418Y43905D01*
X35845Y44327D01*
X35842Y44303D01*
D02*
G37*
G36*
X24032Y44297D02*
X24031Y44274D01*
X24031Y44253D01*
X24033Y44232D01*
X24036Y44214D01*
X24041Y44196D01*
X24047Y44180D01*
X24055Y44165D01*
X24065Y44151D01*
X24076Y44139D01*
X23793Y43856D01*
X23781Y43867D01*
X23767Y43876D01*
X23752Y43884D01*
X23736Y43891D01*
X23718Y43895D01*
X23699Y43899D01*
X23679Y43900D01*
X23657Y43901D01*
X23634Y43900D01*
X23610Y43897D01*
X24035Y44321D01*
X24032Y44297D01*
D02*
G37*
G36*
X33913Y44273D02*
X33911Y44251D01*
X33911Y44229D01*
X33913Y44209D01*
X33916Y44190D01*
X33921Y44172D01*
X33927Y44156D01*
X33935Y44141D01*
X33944Y44127D01*
X33955Y44115D01*
X33667Y43837D01*
X33654Y43848D01*
X33641Y43858D01*
X33626Y43866D01*
X33609Y43873D01*
X33592Y43878D01*
X33573Y43881D01*
X33553Y43883D01*
X33531Y43884D01*
X33508Y43883D01*
X33484Y43881D01*
X33916Y44297D01*
X33913Y44273D01*
D02*
G37*
G36*
X34039Y44032D02*
X34109Y43973D01*
X34142Y43950D01*
X34173Y43931D01*
X34204Y43916D01*
X34233Y43905D01*
X34260Y43898D01*
X34287Y43895D01*
X34312Y43896D01*
X33880Y43480D01*
X33882Y43505D01*
X33880Y43532D01*
X33874Y43560D01*
X33863Y43589D01*
X33849Y43619D01*
X33830Y43651D01*
X33807Y43684D01*
X33781Y43718D01*
X33749Y43753D01*
X33714Y43790D01*
X34003Y44067D01*
X34039Y44032D01*
D02*
G37*
G36*
X36001Y44029D02*
X36071Y43971D01*
X36103Y43948D01*
X36135Y43929D01*
X36165Y43914D01*
X36195Y43903D01*
X36222Y43897D01*
X36249Y43894D01*
X36274Y43895D01*
X35848Y43473D01*
X35849Y43499D01*
X35847Y43525D01*
X35840Y43553D01*
X35830Y43582D01*
X35815Y43613D01*
X35796Y43644D01*
X35773Y43677D01*
X35746Y43711D01*
X35680Y43783D01*
X35965Y44065D01*
X36001Y44029D01*
D02*
G37*
G36*
X24187Y44028D02*
X24257Y43970D01*
X24290Y43947D01*
X24321Y43928D01*
X24352Y43913D01*
X24381Y43903D01*
X24409Y43896D01*
X24435Y43894D01*
X24461Y43895D01*
X24036Y43471D01*
X24038Y43496D01*
X24035Y43523D01*
X24029Y43551D01*
X24018Y43580D01*
X24003Y43610D01*
X23984Y43642D01*
X23961Y43674D01*
X23934Y43709D01*
X23868Y43781D01*
X24151Y44063D01*
X24187Y44028D01*
D02*
G37*
G36*
X39042Y43777D02*
X39000Y43733D01*
X38928Y43648D01*
X38899Y43606D01*
X38874Y43565D01*
X38853Y43525D01*
X38836Y43485D01*
X38823Y43445D01*
X38814Y43407D01*
X38810Y43369D01*
X38280Y43899D01*
X38318Y43903D01*
X38356Y43912D01*
X38396Y43925D01*
X38436Y43942D01*
X38476Y43963D01*
X38517Y43988D01*
X38559Y44017D01*
X38601Y44051D01*
X38688Y44131D01*
X39042Y43777D01*
D02*
G37*
G36*
X19119Y43304D02*
X19122Y43277D01*
X19129Y43249D01*
X19139Y43220D01*
X19154Y43190D01*
X19173Y43158D01*
X19196Y43126D01*
X19223Y43091D01*
X19289Y43019D01*
X19007Y42737D01*
X18970Y42772D01*
X18901Y42830D01*
X18868Y42853D01*
X18836Y42872D01*
X18806Y42886D01*
X18777Y42897D01*
X18749Y42904D01*
X18722Y42906D01*
X18697Y42905D01*
X19121Y43329D01*
X19119Y43304D01*
D02*
G37*
G36*
X4803Y43462D02*
X5137Y43437D01*
X5178Y43439D01*
X5211Y43444D01*
X5235Y43452D01*
X5251Y43462D01*
X5534Y43179D01*
X5524Y43164D01*
X5516Y43139D01*
X5511Y43107D01*
X5508Y43066D01*
X5508Y43016D01*
X5516Y42891D01*
X5546Y42639D01*
X4711Y43474D01*
X4803Y43462D01*
D02*
G37*
G36*
X19385Y42925D02*
X19399Y42916D01*
X19414Y42908D01*
X19430Y42901D01*
X19448Y42896D01*
X19467Y42893D01*
X19487Y42891D01*
X19508Y42891D01*
X19531Y42892D01*
X19555Y42895D01*
X19131Y42471D01*
X19134Y42495D01*
X19135Y42518D01*
X19135Y42539D01*
X19133Y42559D01*
X19130Y42578D01*
X19125Y42596D01*
X19118Y42612D01*
X19110Y42627D01*
X19101Y42641D01*
X19090Y42653D01*
X19373Y42936D01*
X19385Y42925D01*
D02*
G37*
G36*
X33329Y41931D02*
X33305Y41934D01*
X33282Y41935D01*
X33261Y41935D01*
X33241Y41933D01*
X33222Y41930D01*
X33204Y41925D01*
X33188Y41918D01*
X33173Y41910D01*
X33159Y41901D01*
X33147Y41890D01*
X32864Y42173D01*
X32875Y42185D01*
X32884Y42199D01*
X32892Y42214D01*
X32899Y42230D01*
X32904Y42248D01*
X32907Y42267D01*
X32909Y42287D01*
X32909Y42308D01*
X32908Y42331D01*
X32905Y42355D01*
X33329Y41931D01*
D02*
G37*
G36*
X35037Y41812D02*
X35002Y41776D01*
X34944Y41706D01*
X34921Y41673D01*
X34902Y41642D01*
X34887Y41611D01*
X34877Y41582D01*
X34870Y41554D01*
X34868Y41528D01*
X34869Y41502D01*
X34445Y41927D01*
X34470Y41925D01*
X34497Y41928D01*
X34525Y41934D01*
X34554Y41945D01*
X34584Y41960D01*
X34616Y41979D01*
X34648Y42002D01*
X34683Y42029D01*
X34755Y42095D01*
X35037Y41812D01*
D02*
G37*
G36*
X33069D02*
X33034Y41776D01*
X32976Y41706D01*
X32953Y41673D01*
X32934Y41642D01*
X32919Y41611D01*
X32908Y41582D01*
X32902Y41554D01*
X32899Y41528D01*
X32901Y41502D01*
X32476Y41927D01*
X32502Y41925D01*
X32528Y41928D01*
X32556Y41934D01*
X32585Y41945D01*
X32616Y41960D01*
X32647Y41979D01*
X32680Y42002D01*
X32714Y42029D01*
X32786Y42095D01*
X33069Y41812D01*
D02*
G37*
G36*
X25195D02*
X25160Y41776D01*
X25102Y41706D01*
X25079Y41673D01*
X25060Y41642D01*
X25045Y41611D01*
X25034Y41582D01*
X25027Y41554D01*
X25025Y41528D01*
X25027Y41502D01*
X24602Y41927D01*
X24628Y41925D01*
X24654Y41928D01*
X24682Y41934D01*
X24711Y41945D01*
X24742Y41960D01*
X24773Y41979D01*
X24806Y42002D01*
X24840Y42029D01*
X24912Y42095D01*
X25195Y41812D01*
D02*
G37*
G36*
X38977Y41805D02*
X38942Y41768D01*
X38884Y41699D01*
X38861Y41666D01*
X38842Y41634D01*
X38827Y41604D01*
X38816Y41575D01*
X38809Y41547D01*
X38806Y41520D01*
X38807Y41495D01*
X38389Y41925D01*
X38414Y41924D01*
X38441Y41926D01*
X38469Y41932D01*
X38498Y41943D01*
X38528Y41957D01*
X38560Y41976D01*
X38593Y41999D01*
X38627Y42026D01*
X38699Y42092D01*
X38977Y41805D01*
D02*
G37*
G36*
X3784Y41909D02*
X3728Y41984D01*
X3509Y42237D01*
X3478Y42265D01*
X3452Y42284D01*
X3429Y42296D01*
X3411Y42300D01*
Y42700D01*
X3429Y42704D01*
X3452Y42716D01*
X3478Y42735D01*
X3509Y42763D01*
X3545Y42798D01*
X3628Y42891D01*
X3784Y43091D01*
Y41909D01*
D02*
G37*
G36*
X3044Y43016D02*
X3262Y42763D01*
X3293Y42735D01*
X3320Y42716D01*
X3342Y42704D01*
X3361Y42700D01*
Y42300D01*
X3342Y42296D01*
X3320Y42284D01*
X3293Y42265D01*
X3262Y42237D01*
X3227Y42202D01*
X3144Y42109D01*
X2987Y41909D01*
Y43091D01*
X3044Y43016D01*
D02*
G37*
G36*
X39222Y41906D02*
X39198Y41909D01*
X39175Y41911D01*
X39154Y41911D01*
X39133Y41909D01*
X39114Y41906D01*
X39097Y41901D01*
X39081Y41895D01*
X39066Y41887D01*
X39052Y41878D01*
X39039Y41867D01*
X38761Y42154D01*
X38772Y42167D01*
X38782Y42180D01*
X38790Y42195D01*
X38796Y42211D01*
X38801Y42229D01*
X38805Y42248D01*
X38807Y42268D01*
X38807Y42290D01*
X38807Y42312D01*
X38804Y42336D01*
X39222Y41906D01*
D02*
G37*
G36*
X25429Y41905D02*
X25405Y41908D01*
X25382Y41909D01*
X25361Y41909D01*
X25341Y41907D01*
X25322Y41904D01*
X25304Y41899D01*
X25288Y41892D01*
X25273Y41884D01*
X25259Y41875D01*
X25247Y41864D01*
X24964Y42147D01*
X24975Y42159D01*
X24984Y42173D01*
X24992Y42188D01*
X24999Y42204D01*
X25004Y42222D01*
X25007Y42241D01*
X25009Y42261D01*
X25009Y42282D01*
X25008Y42305D01*
X25005Y42329D01*
X25429Y41905D01*
D02*
G37*
G36*
X22060Y42332D02*
X22059Y42309D01*
X22059Y42288D01*
X22061Y42267D01*
X22064Y42248D01*
X22069Y42231D01*
X22076Y42215D01*
X22084Y42200D01*
X22093Y42186D01*
X22104Y42173D01*
X21821Y41890D01*
X21809Y41901D01*
X21795Y41911D01*
X21780Y41919D01*
X21764Y41925D01*
X21746Y41930D01*
X21727Y41934D01*
X21707Y41935D01*
X21685Y41936D01*
X21663Y41934D01*
X21639Y41932D01*
X22063Y42356D01*
X22060Y42332D01*
D02*
G37*
G36*
X35229Y41862D02*
X35205Y41865D01*
X35182Y41866D01*
X35161Y41866D01*
X35141Y41864D01*
X35122Y41861D01*
X35104Y41856D01*
X35088Y41850D01*
X35073Y41842D01*
X35059Y41832D01*
X35047Y41821D01*
X34764Y42104D01*
X34775Y42117D01*
X34784Y42130D01*
X34792Y42145D01*
X34799Y42162D01*
X34804Y42179D01*
X34807Y42198D01*
X34809Y42218D01*
X34809Y42240D01*
X34808Y42263D01*
X34805Y42287D01*
X35229Y41862D01*
D02*
G37*
G36*
X22219Y42060D02*
X22288Y42002D01*
X22321Y41979D01*
X22353Y41960D01*
X22383Y41945D01*
X22412Y41934D01*
X22440Y41928D01*
X22467Y41925D01*
X22492Y41927D01*
X22068Y41502D01*
X22070Y41528D01*
X22067Y41554D01*
X22060Y41582D01*
X22050Y41611D01*
X22035Y41642D01*
X22016Y41673D01*
X21993Y41706D01*
X21966Y41740D01*
X21900Y41812D01*
X22182Y42095D01*
X22219Y42060D01*
D02*
G37*
G36*
X41344Y41184D02*
X41328Y41201D01*
X41312Y41217D01*
X41296Y41230D01*
X41279Y41242D01*
X41263Y41252D01*
X41247Y41260D01*
X41230Y41266D01*
X41214Y41271D01*
X41197Y41273D01*
X41180Y41274D01*
X41143Y41674D01*
X41159Y41675D01*
X41175Y41679D01*
X41191Y41684D01*
X41207Y41692D01*
X41222Y41701D01*
X41237Y41713D01*
X41251Y41727D01*
X41265Y41743D01*
X41279Y41761D01*
X41293Y41782D01*
X41344Y41184D01*
D02*
G37*
G36*
X40670Y41747D02*
X40692Y41732D01*
X40717Y41719D01*
X40746Y41707D01*
X40779Y41697D01*
X40815Y41689D01*
X40855Y41682D01*
X40898Y41678D01*
X40997Y41674D01*
X41034Y41274D01*
X40984Y41273D01*
X40894Y41265D01*
X40855Y41257D01*
X40820Y41247D01*
X40789Y41236D01*
X40762Y41222D01*
X40738Y41206D01*
X40719Y41187D01*
X40704Y41167D01*
X40652Y41765D01*
X40670Y41747D01*
D02*
G37*
G36*
X42541Y44641D02*
X43851Y43331D01*
Y39769D01*
X43799Y39717D01*
X43449Y39648D01*
X43151Y39449D01*
X43112Y39390D01*
X42566Y39473D01*
X42521Y39582D01*
X42281Y39821D01*
X41969Y39950D01*
X41699D01*
X41437Y40058D01*
X41016D01*
X40845Y40538D01*
X41236Y40797D01*
X41548Y40667D01*
X41886D01*
X42199Y40797D01*
X42438Y41036D01*
X42567Y41348D01*
Y41686D01*
X42438Y41999D01*
X42199Y42238D01*
X41886Y42367D01*
X41548D01*
X41236Y42238D01*
X41068Y42070D01*
X40848D01*
X40841Y42072D01*
X40761Y42152D01*
X40449Y42281D01*
X40150D01*
Y42569D01*
X40021Y42882D01*
X39781Y43121D01*
X39694Y43157D01*
X39544Y43701D01*
X39547Y43718D01*
X40310Y44480D01*
X40317Y44484D01*
X40328Y44488D01*
X40334Y44491D01*
X40336Y44491D01*
X40355Y44493D01*
X40400Y44519D01*
X40449D01*
X40759Y44647D01*
X40765Y44648D01*
X40778Y44649D01*
X40783Y44652D01*
X40788Y44653D01*
X40797Y44658D01*
X40803Y44661D01*
X40821Y44666D01*
X40848Y44672D01*
X40876Y44676D01*
X41041Y44689D01*
X41105Y44690D01*
X41142Y44706D01*
X42514D01*
X42541Y44641D01*
D02*
G37*
G36*
X26988Y41312D02*
X26990Y41285D01*
X26996Y41257D01*
X27006Y41228D01*
X27020Y41198D01*
X27038Y41166D01*
X27061Y41133D01*
X27087Y41099D01*
X27118Y41064D01*
X27138Y41043D01*
X27145Y41037D01*
X27159Y41027D01*
X27174Y41019D01*
X27190Y41012D01*
X27207Y41007D01*
X27226Y41003D01*
X27246Y41000D01*
X27268Y40999D01*
X27290Y40999D01*
X27314Y41001D01*
X26870Y40597D01*
X26874Y40621D01*
X26876Y40644D01*
X26877Y40666D01*
X26876Y40686D01*
X26873Y40705D01*
X26869Y40723D01*
X26863Y40739D01*
X26855Y40754D01*
X26846Y40768D01*
X26839Y40775D01*
X26819Y40794D01*
X26750Y40853D01*
X26717Y40876D01*
X26685Y40896D01*
X26655Y40911D01*
X26626Y40923D01*
X26599Y40930D01*
X26572Y40934D01*
X26547Y40934D01*
X26991Y41337D01*
X26988Y41312D01*
D02*
G37*
G36*
X35317Y39982D02*
X35293Y39985D01*
X35270Y39986D01*
X35249Y39986D01*
X35229Y39984D01*
X35210Y39981D01*
X35192Y39976D01*
X35176Y39969D01*
X35161Y39961D01*
X35147Y39952D01*
X35135Y39941D01*
X34852Y40224D01*
X34863Y40236D01*
X34872Y40250D01*
X34880Y40265D01*
X34887Y40281D01*
X34892Y40299D01*
X34895Y40318D01*
X34897Y40338D01*
X34897Y40359D01*
X34896Y40382D01*
X34893Y40406D01*
X35317Y39982D01*
D02*
G37*
G36*
X35037Y39844D02*
X35002Y39807D01*
X34944Y39737D01*
X34921Y39705D01*
X34902Y39673D01*
X34887Y39643D01*
X34877Y39614D01*
X34870Y39586D01*
X34868Y39559D01*
X34869Y39534D01*
X34445Y39958D01*
X34470Y39957D01*
X34497Y39959D01*
X34525Y39966D01*
X34554Y39976D01*
X34584Y39991D01*
X34616Y40010D01*
X34648Y40033D01*
X34683Y40060D01*
X34755Y40126D01*
X35037Y39844D01*
D02*
G37*
G36*
X24092Y40300D02*
X24091Y40277D01*
X24091Y40255D01*
X24093Y40235D01*
X24096Y40216D01*
X24101Y40199D01*
X24108Y40182D01*
X24116Y40167D01*
X24125Y40154D01*
X24136Y40141D01*
X23853Y39858D01*
X23841Y39869D01*
X23827Y39879D01*
X23812Y39887D01*
X23796Y39893D01*
X23778Y39898D01*
X23759Y39901D01*
X23739Y39903D01*
X23718Y39904D01*
X23695Y39902D01*
X23671Y39900D01*
X24095Y40324D01*
X24092Y40300D01*
D02*
G37*
G36*
X24187Y40091D02*
X24257Y40033D01*
X24290Y40010D01*
X24321Y39991D01*
X24352Y39976D01*
X24381Y39966D01*
X24409Y39959D01*
X24435Y39957D01*
X24461Y39958D01*
X24036Y39534D01*
X24038Y39559D01*
X24035Y39586D01*
X24029Y39614D01*
X24018Y39643D01*
X24003Y39673D01*
X23984Y39705D01*
X23961Y39737D01*
X23934Y39772D01*
X23868Y39844D01*
X24151Y40126D01*
X24187Y40091D01*
D02*
G37*
G36*
X40696Y39744D02*
X40717Y39727D01*
X40742Y39712D01*
X40770Y39699D01*
X40802Y39688D01*
X40837Y39679D01*
X40877Y39672D01*
X40920Y39667D01*
X41018Y39663D01*
Y39263D01*
X40967Y39262D01*
X40877Y39254D01*
X40837Y39247D01*
X40802Y39238D01*
X40770Y39227D01*
X40742Y39214D01*
X40717Y39199D01*
X40696Y39182D01*
X40679Y39163D01*
Y39763D01*
X40696Y39744D01*
D02*
G37*
G36*
X6044Y40216D02*
X6262Y39963D01*
X6293Y39935D01*
X6320Y39916D01*
X6342Y39904D01*
X6361Y39900D01*
Y39500D01*
X6342Y39496D01*
X6320Y39484D01*
X6293Y39465D01*
X6262Y39437D01*
X6227Y39402D01*
X6144Y39309D01*
X5987Y39109D01*
Y40291D01*
X6044Y40216D01*
D02*
G37*
G36*
X22136Y38753D02*
X22125Y38741D01*
X22116Y38727D01*
X22108Y38712D01*
X22101Y38696D01*
X22096Y38678D01*
X22093Y38659D01*
X22091Y38639D01*
X22091Y38618D01*
X22092Y38595D01*
X22095Y38571D01*
X21671Y38995D01*
X21695Y38992D01*
X21718Y38991D01*
X21739Y38991D01*
X21759Y38993D01*
X21778Y38996D01*
X21796Y39001D01*
X21812Y39008D01*
X21827Y39016D01*
X21841Y39025D01*
X21853Y39036D01*
X22136Y38753D01*
D02*
G37*
G36*
X22492Y38968D02*
X22467Y38969D01*
X22440Y38967D01*
X22412Y38960D01*
X22383Y38949D01*
X22353Y38935D01*
X22321Y38916D01*
X22288Y38893D01*
X22254Y38866D01*
X22182Y38800D01*
X21900Y39082D01*
X21935Y39119D01*
X21993Y39189D01*
X22016Y39221D01*
X22035Y39253D01*
X22050Y39283D01*
X22060Y39312D01*
X22067Y39340D01*
X22070Y39367D01*
X22068Y39392D01*
X22492Y38968D01*
D02*
G37*
G36*
X32897Y39355D02*
X32899Y39328D01*
X32905Y39300D01*
X32915Y39271D01*
X32930Y39241D01*
X32948Y39209D01*
X32971Y39176D01*
X32998Y39142D01*
X33029Y39107D01*
X33064Y39070D01*
X32774Y38795D01*
X32737Y38830D01*
X32668Y38888D01*
X32635Y38912D01*
X32603Y38931D01*
X32573Y38946D01*
X32544Y38957D01*
X32516Y38964D01*
X32489Y38967D01*
X32464Y38966D01*
X32899Y39380D01*
X32897Y39355D01*
D02*
G37*
G36*
X33143Y38993D02*
X33156Y38983D01*
X33171Y38975D01*
X33188Y38969D01*
X33205Y38963D01*
X33224Y38960D01*
X33244Y38958D01*
X33266Y38957D01*
X33288Y38957D01*
X33312Y38960D01*
X32878Y38546D01*
X32882Y38570D01*
X32883Y38593D01*
X32883Y38614D01*
X32882Y38634D01*
X32879Y38653D01*
X32874Y38671D01*
X32868Y38687D01*
X32860Y38702D01*
X32851Y38716D01*
X32840Y38728D01*
X33130Y39004D01*
X33143Y38993D01*
D02*
G37*
G36*
X37830Y40711D02*
X38142Y40582D01*
X38480D01*
X38792Y40711D01*
X39032Y40950D01*
X39397D01*
X39703Y40644D01*
Y40088D01*
X39559Y39944D01*
X39430Y39632D01*
Y39294D01*
X39559Y38982D01*
X39798Y38742D01*
Y38538D01*
X39398Y38138D01*
X38870D01*
X38792Y38215D01*
X38480Y38344D01*
X38142D01*
X37830Y38215D01*
X37590Y37976D01*
X37225D01*
X36919Y38282D01*
Y38838D01*
X37063Y38982D01*
X37192Y39294D01*
Y39632D01*
X37063Y39944D01*
X36824Y40184D01*
Y40711D01*
X37063Y40950D01*
X37590D01*
X37830Y40711D01*
D02*
G37*
G36*
X25195Y37875D02*
X25160Y37839D01*
X25102Y37769D01*
X25079Y37736D01*
X25060Y37705D01*
X25045Y37674D01*
X25034Y37645D01*
X25027Y37617D01*
X25025Y37591D01*
X25027Y37565D01*
X24602Y37990D01*
X24628Y37988D01*
X24654Y37991D01*
X24682Y37997D01*
X24711Y38008D01*
X24742Y38023D01*
X24773Y38042D01*
X24806Y38065D01*
X24840Y38092D01*
X24912Y38158D01*
X25195Y37875D01*
D02*
G37*
G36*
X19289D02*
X19254Y37839D01*
X19196Y37769D01*
X19173Y37736D01*
X19154Y37705D01*
X19139Y37674D01*
X19129Y37645D01*
X19122Y37617D01*
X19119Y37591D01*
X19121Y37565D01*
X18697Y37990D01*
X18722Y37988D01*
X18749Y37991D01*
X18777Y37997D01*
X18806Y38008D01*
X18836Y38023D01*
X18868Y38042D01*
X18901Y38065D01*
X18935Y38092D01*
X19007Y38158D01*
X19289Y37875D01*
D02*
G37*
G36*
X25445Y37984D02*
X25421Y37986D01*
X25398Y37988D01*
X25377Y37988D01*
X25356Y37986D01*
X25337Y37982D01*
X25320Y37977D01*
X25304Y37971D01*
X25289Y37963D01*
X25275Y37954D01*
X25262Y37942D01*
X24980Y38225D01*
X24991Y38238D01*
X25000Y38252D01*
X25008Y38267D01*
X25014Y38283D01*
X25019Y38300D01*
X25023Y38319D01*
X25024Y38340D01*
X25025Y38361D01*
X25023Y38384D01*
X25021Y38408D01*
X25445Y37984D01*
D02*
G37*
G36*
X19539Y37984D02*
X19515Y37986D01*
X19492Y37988D01*
X19471Y37987D01*
X19451Y37986D01*
X19432Y37982D01*
X19414Y37977D01*
X19398Y37971D01*
X19383Y37963D01*
X19369Y37953D01*
X19357Y37942D01*
X19074Y38225D01*
X19085Y38238D01*
X19094Y38251D01*
X19102Y38266D01*
X19109Y38283D01*
X19114Y38300D01*
X19117Y38319D01*
X19119Y38339D01*
X19119Y38361D01*
X19118Y38384D01*
X19115Y38408D01*
X19539Y37984D01*
D02*
G37*
G36*
X24050Y38742D02*
Y38215D01*
X23811Y37976D01*
X23682Y37664D01*
Y37325D01*
X23811Y37013D01*
X24050Y36774D01*
Y36247D01*
X23811Y36007D01*
X23284D01*
X23044Y36247D01*
X22732Y36376D01*
X22394D01*
X22082Y36247D01*
X21842Y36007D01*
X21315D01*
X21076Y36247D01*
X20764Y36376D01*
X20425D01*
X20113Y36247D01*
X19874Y36007D01*
X19508D01*
X19203Y36313D01*
Y36869D01*
X19347Y37013D01*
X19476Y37325D01*
Y37503D01*
X19602Y37629D01*
X19779D01*
X20092Y37758D01*
X20331Y37997D01*
X20339Y38017D01*
X20879Y38019D01*
X21118Y37779D01*
X21431Y37650D01*
X21769D01*
X22082Y37779D01*
X22321Y38019D01*
X22450Y38331D01*
Y38508D01*
X22555Y38613D01*
X22732D01*
X23044Y38742D01*
X23284Y38982D01*
X23811D01*
X24050Y38742D01*
D02*
G37*
G36*
X39880Y37706D02*
X40076Y37719D01*
X40087Y37725D01*
Y37264D01*
X40076Y37270D01*
X40058Y37275D01*
X40031Y37280D01*
X39998Y37284D01*
X39880Y37290D01*
Y37194D01*
X39863Y37214D01*
X39842Y37231D01*
X39818Y37246D01*
X39789Y37258D01*
X39757Y37269D01*
X39722Y37279D01*
X39682Y37286D01*
X39639Y37290D01*
X39541Y37295D01*
Y37694D01*
X39592Y37696D01*
X39682Y37703D01*
X39722Y37710D01*
X39757Y37720D01*
X39789Y37731D01*
X39818Y37743D01*
X39842Y37758D01*
X39863Y37775D01*
X39880Y37795D01*
Y37706D01*
D02*
G37*
G36*
X38728Y37775D02*
X38749Y37758D01*
X38773Y37743D01*
X38801Y37731D01*
X38833Y37720D01*
X38869Y37710D01*
X38908Y37703D01*
X38952Y37699D01*
X39049Y37694D01*
Y37295D01*
X38998Y37293D01*
X38908Y37286D01*
X38869Y37279D01*
X38833Y37269D01*
X38801Y37258D01*
X38773Y37246D01*
X38749Y37231D01*
X38728Y37214D01*
X38711Y37194D01*
Y37795D01*
X38728Y37775D01*
D02*
G37*
G36*
X16327Y37119D02*
X16297Y37143D01*
X16263Y37165D01*
X16227Y37183D01*
X16186Y37200D01*
X16143Y37213D01*
X16096Y37225D01*
X16046Y37233D01*
X15992Y37240D01*
X15875Y37244D01*
Y37745D01*
X15935Y37746D01*
X16046Y37756D01*
X16096Y37764D01*
X16143Y37776D01*
X16186Y37789D01*
X16227Y37806D01*
X16263Y37824D01*
X16297Y37846D01*
X16327Y37870D01*
Y37119D01*
D02*
G37*
G36*
X40610Y37875D02*
X40644Y37858D01*
X40683Y37843D01*
X40727Y37830D01*
X40776Y37819D01*
X40830Y37810D01*
X40955Y37799D01*
X41025Y37795D01*
X41100Y37795D01*
Y37194D01*
X41025Y37194D01*
X40830Y37179D01*
X40776Y37170D01*
X40727Y37159D01*
X40683Y37146D01*
X40644Y37131D01*
X40610Y37114D01*
X40581Y37096D01*
Y37893D01*
X40610Y37875D01*
D02*
G37*
G36*
X28966Y37420D02*
X28969Y37393D01*
X28977Y37366D01*
X28988Y37337D01*
X29003Y37306D01*
X29023Y37275D01*
X29046Y37242D01*
X29074Y37208D01*
X29140Y37136D01*
X28870Y36840D01*
X28834Y36875D01*
X28764Y36933D01*
X28731Y36955D01*
X28700Y36974D01*
X28669Y36988D01*
X28640Y36998D01*
X28612Y37004D01*
X28586Y37005D01*
X28560Y37003D01*
X28966Y37445D01*
X28966Y37420D01*
D02*
G37*
G36*
X36836Y37398D02*
X36839Y37372D01*
X36845Y37344D01*
X36856Y37315D01*
X36871Y37284D01*
X36890Y37253D01*
X36913Y37220D01*
X36940Y37186D01*
X37006Y37114D01*
X36723Y36831D01*
X36687Y36866D01*
X36617Y36924D01*
X36584Y36947D01*
X36553Y36966D01*
X36522Y36981D01*
X36493Y36992D01*
X36465Y36998D01*
X36439Y37001D01*
X36413Y36999D01*
X36838Y37424D01*
X36836Y37398D01*
D02*
G37*
G36*
X26993Y37397D02*
X26996Y37370D01*
X27002Y37342D01*
X27013Y37313D01*
X27028Y37283D01*
X27047Y37251D01*
X27070Y37218D01*
X27097Y37184D01*
X27152Y37124D01*
X27156Y37120D01*
X27170Y37111D01*
X27185Y37103D01*
X27201Y37096D01*
X27219Y37091D01*
X27238Y37088D01*
X27258Y37086D01*
X27279Y37086D01*
X27302Y37087D01*
X27326Y37090D01*
X26901Y36667D01*
X26904Y36691D01*
X26905Y36714D01*
X26905Y36735D01*
X26903Y36755D01*
X26900Y36774D01*
X26895Y36792D01*
X26888Y36808D01*
X26880Y36823D01*
X26871Y36837D01*
X26864Y36845D01*
X26842Y36866D01*
X26773Y36924D01*
X26740Y36947D01*
X26708Y36966D01*
X26678Y36981D01*
X26649Y36991D01*
X26621Y36998D01*
X26594Y37001D01*
X26569Y36999D01*
X26995Y37422D01*
X26993Y37397D01*
D02*
G37*
G36*
X18145Y36774D02*
Y36247D01*
X17905Y36007D01*
X17776Y35695D01*
Y35357D01*
X17905Y35045D01*
X18145Y34805D01*
X18457Y34676D01*
X18795D01*
X18951Y34740D01*
X19364Y34538D01*
X19451Y34448D01*
Y33700D01*
X19641Y33241D01*
X19951Y32931D01*
Y32648D01*
X19179Y31876D01*
X18009D01*
X17545Y31784D01*
X17151Y31521D01*
X17037Y31349D01*
X15469D01*
X13149Y33669D01*
Y36233D01*
X14000D01*
X14332Y36299D01*
X14613Y36487D01*
X14801Y36768D01*
X14816Y36845D01*
X16051D01*
X16058Y36843D01*
X16069Y36838D01*
X16075Y36835D01*
X16077Y36834D01*
X16092Y36822D01*
X16142Y36808D01*
X16176Y36774D01*
X16488Y36645D01*
X16827D01*
X17139Y36774D01*
X17378Y37013D01*
X17905D01*
X18145Y36774D01*
D02*
G37*
G36*
X29251Y37027D02*
X29265Y37017D01*
X29280Y37010D01*
X29296Y37003D01*
X29314Y36999D01*
X29333Y36996D01*
X29353Y36995D01*
X29374Y36996D01*
X29397Y36998D01*
X29421Y37002D01*
X29015Y36560D01*
X29017Y36584D01*
X29017Y36606D01*
X29016Y36628D01*
X29014Y36648D01*
X29010Y36667D01*
X29004Y36684D01*
X28998Y36700D01*
X28989Y36715D01*
X28980Y36729D01*
X28969Y36742D01*
X29239Y37038D01*
X29251Y37027D01*
D02*
G37*
G36*
X37109Y37012D02*
X37123Y37003D01*
X37138Y36995D01*
X37154Y36988D01*
X37172Y36983D01*
X37191Y36980D01*
X37211Y36978D01*
X37232Y36978D01*
X37255Y36979D01*
X37279Y36982D01*
X36855Y36558D01*
X36858Y36582D01*
X36859Y36605D01*
X36859Y36626D01*
X36857Y36646D01*
X36854Y36665D01*
X36849Y36683D01*
X36842Y36699D01*
X36834Y36714D01*
X36825Y36728D01*
X36814Y36740D01*
X37097Y37023D01*
X37109Y37012D01*
D02*
G37*
G36*
X31924Y38742D02*
X32236Y38613D01*
X32397D01*
X32521Y38488D01*
Y38294D01*
X32651Y37982D01*
X32890Y37742D01*
X33202Y37613D01*
X33524D01*
Y37325D01*
X33653Y37013D01*
X33893Y36774D01*
Y36408D01*
X33587Y36103D01*
X33031D01*
X32887Y36247D01*
X32575Y36376D01*
X32236D01*
X31924Y36247D01*
X31685Y36007D01*
X31158D01*
X30918Y36247D01*
Y36774D01*
X31158Y37013D01*
X31287Y37325D01*
Y37664D01*
X31158Y37976D01*
X30918Y38215D01*
Y38581D01*
X31224Y38886D01*
X31780D01*
X31924Y38742D01*
D02*
G37*
G36*
X25456Y36026D02*
X25432Y36029D01*
X25409Y36030D01*
X25387Y36030D01*
X25367Y36028D01*
X25348Y36025D01*
X25331Y36020D01*
X25315Y36013D01*
X25300Y36005D01*
X25286Y35996D01*
X25273Y35985D01*
X24991Y36268D01*
X25001Y36280D01*
X25011Y36294D01*
X25019Y36309D01*
X25025Y36325D01*
X25030Y36343D01*
X25034Y36362D01*
X25035Y36382D01*
X25036Y36404D01*
X25034Y36426D01*
X25032Y36450D01*
X25456Y36026D01*
D02*
G37*
G36*
X25195Y35907D02*
X25160Y35870D01*
X25102Y35800D01*
X25079Y35768D01*
X25060Y35736D01*
X25045Y35706D01*
X25034Y35677D01*
X25027Y35649D01*
X25025Y35622D01*
X25027Y35597D01*
X24602Y36021D01*
X24628Y36020D01*
X24654Y36022D01*
X24682Y36029D01*
X24711Y36039D01*
X24742Y36054D01*
X24773Y36073D01*
X24806Y36096D01*
X24840Y36123D01*
X24912Y36189D01*
X25195Y35907D01*
D02*
G37*
G36*
X22110Y34709D02*
X22099Y34696D01*
X22090Y34683D01*
X22083Y34668D01*
X22078Y34651D01*
X22074Y34634D01*
X22072Y34615D01*
X22072Y34595D01*
X22074Y34574D01*
X22078Y34551D01*
X22084Y34527D01*
X21613Y34900D01*
X21636Y34900D01*
X21658Y34901D01*
X21679Y34904D01*
X21699Y34907D01*
X21717Y34912D01*
X21735Y34918D01*
X21751Y34926D01*
X21766Y34935D01*
X21779Y34945D01*
X21792Y34956D01*
X22110Y34709D01*
D02*
G37*
G36*
X36840Y35452D02*
X36843Y35426D01*
X36851Y35398D01*
X36862Y35369D01*
X36878Y35339D01*
X36897Y35307D01*
X36920Y35275D01*
X36948Y35241D01*
X37014Y35169D01*
X36746Y34872D01*
X36709Y34907D01*
X36639Y34965D01*
X36606Y34987D01*
X36575Y35006D01*
X36544Y35020D01*
X36515Y35030D01*
X36487Y35036D01*
X36461Y35037D01*
X36435Y35035D01*
X36840Y35478D01*
X36840Y35452D01*
D02*
G37*
G36*
X22550Y35026D02*
X22525Y35025D01*
X22499Y35020D01*
X22472Y35011D01*
X22444Y34998D01*
X22414Y34982D01*
X22383Y34962D01*
X22350Y34938D01*
X22281Y34878D01*
X22244Y34843D01*
X21925Y35090D01*
X21960Y35126D01*
X22017Y35196D01*
X22039Y35229D01*
X22057Y35260D01*
X22070Y35290D01*
X22079Y35319D01*
X22084Y35347D01*
X22084Y35373D01*
X22080Y35399D01*
X22550Y35026D01*
D02*
G37*
G36*
X32757Y35165D02*
X32735Y35132D01*
X32717Y35095D01*
X32700Y35055D01*
X32687Y35011D01*
X32675Y34964D01*
X32667Y34914D01*
X32660Y34860D01*
X32656Y34743D01*
X32155D01*
X32154Y34803D01*
X32144Y34914D01*
X32135Y34964D01*
X32124Y35011D01*
X32111Y35055D01*
X32094Y35095D01*
X32076Y35132D01*
X32054Y35165D01*
X32030Y35195D01*
X32781D01*
X32757Y35165D01*
D02*
G37*
G36*
X26993Y35428D02*
X26996Y35402D01*
X27002Y35374D01*
X27013Y35345D01*
X27028Y35314D01*
X27047Y35283D01*
X27070Y35250D01*
X27097Y35216D01*
X27152Y35156D01*
X27156Y35152D01*
X27170Y35142D01*
X27185Y35134D01*
X27201Y35128D01*
X27219Y35123D01*
X27238Y35120D01*
X27258Y35118D01*
X27279Y35117D01*
X27302Y35118D01*
X27326Y35121D01*
X26901Y34698D01*
X26904Y34722D01*
X26905Y34745D01*
X26905Y34767D01*
X26903Y34787D01*
X26900Y34806D01*
X26895Y34823D01*
X26888Y34840D01*
X26880Y34855D01*
X26871Y34868D01*
X26864Y34876D01*
X26842Y34897D01*
X26773Y34955D01*
X26740Y34978D01*
X26708Y34997D01*
X26678Y35012D01*
X26649Y35023D01*
X26621Y35030D01*
X26594Y35032D01*
X26569Y35031D01*
X26995Y35454D01*
X26993Y35428D01*
D02*
G37*
G36*
X37158Y35026D02*
X37172Y35017D01*
X37187Y35009D01*
X37203Y35003D01*
X37221Y34999D01*
X37240Y34996D01*
X37260Y34995D01*
X37282Y34996D01*
X37305Y34998D01*
X37329Y35002D01*
X36924Y34559D01*
X36926Y34583D01*
X36926Y34605D01*
X36925Y34627D01*
X36922Y34647D01*
X36918Y34666D01*
X36913Y34683D01*
X36906Y34699D01*
X36898Y34714D01*
X36888Y34728D01*
X36877Y34740D01*
X37146Y35037D01*
X37158Y35026D01*
D02*
G37*
G36*
X28707Y36234D02*
X28792Y36029D01*
X29032Y35790D01*
X29344Y35660D01*
X29587D01*
Y35357D01*
X29716Y35045D01*
X29956Y34805D01*
X30268Y34676D01*
X30606D01*
X30883Y34791D01*
X30934Y34801D01*
X31479Y34659D01*
X31526Y34545D01*
X30640Y33659D01*
X30450Y33200D01*
Y32182D01*
X30299Y31956D01*
X30233Y31624D01*
Y31158D01*
X30013Y30938D01*
X29551D01*
X29459Y31159D01*
X29364Y31199D01*
X29149Y31521D01*
X28755Y31784D01*
X28291Y31876D01*
X27109D01*
X26645Y31784D01*
X26251Y31521D01*
X26137Y31349D01*
X24763D01*
X24649Y31521D01*
X24611Y31546D01*
X24562Y32043D01*
X25868Y33350D01*
X25969D01*
X26281Y33479D01*
X26485Y33683D01*
X26521Y33718D01*
X26914Y33905D01*
X27226Y33776D01*
X27565D01*
X27877Y33905D01*
X28116Y34144D01*
X28245Y34457D01*
Y34795D01*
X28116Y35107D01*
X27877Y35347D01*
Y35874D01*
X28116Y36113D01*
X28179Y36265D01*
X28231Y36289D01*
X28315Y36299D01*
X28707Y36234D01*
D02*
G37*
G36*
X25729Y33705D02*
X25717Y33706D01*
X25704Y33705D01*
X25692Y33703D01*
X25679Y33700D01*
X25666Y33695D01*
X25653Y33688D01*
X25640Y33680D01*
X25627Y33670D01*
X25613Y33659D01*
X25600Y33646D01*
X25246Y34000D01*
X25259Y34013D01*
X25270Y34027D01*
X25280Y34040D01*
X25288Y34053D01*
X25295Y34066D01*
X25300Y34079D01*
X25304Y34092D01*
X25306Y34104D01*
X25306Y34117D01*
X25305Y34129D01*
X25729Y33705D01*
D02*
G37*
G36*
X41492Y33305D02*
X41491Y33282D01*
X41491Y33261D01*
X41493Y33241D01*
X41496Y33222D01*
X41501Y33204D01*
X41508Y33188D01*
X41516Y33173D01*
X41525Y33159D01*
X41536Y33147D01*
X41253Y32864D01*
X41241Y32875D01*
X41227Y32884D01*
X41212Y32892D01*
X41196Y32899D01*
X41178Y32904D01*
X41159Y32907D01*
X41139Y32909D01*
X41118Y32909D01*
X41095Y32908D01*
X41071Y32905D01*
X41495Y33329D01*
X41492Y33305D01*
D02*
G37*
G36*
X117800Y32800D02*
X106800D01*
Y40900D01*
X117800D01*
Y32800D01*
D02*
G37*
G36*
X33615Y32813D02*
X33593Y32807D01*
X33574Y32800D01*
X33556Y32792D01*
X33541Y32782D01*
X33529Y32772D01*
X33518Y32759D01*
X33510Y32746D01*
X33505Y32732D01*
X33501Y32717D01*
X33500Y32700D01*
X33100Y32900D01*
X33100Y32918D01*
X33097Y32952D01*
X33094Y32969D01*
X33087Y32999D01*
X33083Y33014D01*
X33078Y33027D01*
X33072Y33041D01*
X33065Y33053D01*
X33615Y32813D01*
D02*
G37*
G36*
X36969Y33178D02*
X36980Y33159D01*
X36991Y33141D01*
X37004Y33127D01*
X37017Y33114D01*
X37031Y33104D01*
X37045Y33095D01*
X37060Y33090D01*
X37076Y33086D01*
X37093Y33085D01*
X36988Y32685D01*
X36971Y32684D01*
X36954Y32682D01*
X36937Y32679D01*
X36921Y32674D01*
X36904Y32668D01*
X36887Y32660D01*
X36870Y32651D01*
X36854Y32641D01*
X36837Y32629D01*
X36820Y32616D01*
X36958Y33200D01*
X36969Y33178D01*
D02*
G37*
G36*
X37901Y32375D02*
X37909Y32281D01*
X37916Y32243D01*
X37925Y32211D01*
X37936Y32185D01*
X37949Y32164D01*
X37964Y32150D01*
X37981Y32141D01*
X38000Y32138D01*
X37400D01*
X37419Y32141D01*
X37436Y32150D01*
X37451Y32164D01*
X37464Y32185D01*
X37475Y32211D01*
X37484Y32243D01*
X37491Y32281D01*
X37496Y32325D01*
X37499Y32375D01*
X37500Y32430D01*
X37900D01*
X37901Y32375D01*
D02*
G37*
G36*
X33501D02*
X33509Y32281D01*
X33516Y32243D01*
X33525Y32211D01*
X33536Y32185D01*
X33549Y32164D01*
X33564Y32150D01*
X33581Y32141D01*
X33600Y32138D01*
X33000D01*
X33019Y32141D01*
X33036Y32150D01*
X33051Y32164D01*
X33064Y32185D01*
X33075Y32211D01*
X33084Y32243D01*
X33091Y32281D01*
X33096Y32325D01*
X33099Y32375D01*
X33100Y32430D01*
X33500D01*
X33501Y32375D01*
D02*
G37*
G36*
X23551Y31533D02*
X23561Y31418D01*
X23570Y31370D01*
X23581Y31331D01*
X23595Y31298D01*
X23611Y31273D01*
X23630Y31255D01*
X23651Y31244D01*
X23675Y31240D01*
X22925D01*
X22949Y31244D01*
X22970Y31255D01*
X22989Y31273D01*
X23005Y31298D01*
X23019Y31331D01*
X23030Y31370D01*
X23039Y31418D01*
X23045Y31472D01*
X23049Y31533D01*
X23050Y31602D01*
X23550D01*
X23551Y31533D01*
D02*
G37*
G36*
X19989Y31107D02*
X19930Y31046D01*
X19836Y30939D01*
X19801Y30893D01*
X19774Y30851D01*
X19755Y30813D01*
X19744Y30780D01*
X19741Y30752D01*
X19746Y30729D01*
X19759Y30709D01*
X19238Y31230D01*
X19257Y31218D01*
X19281Y31213D01*
X19309Y31216D01*
X19342Y31227D01*
X19379Y31246D01*
X19421Y31273D01*
X19468Y31308D01*
X19519Y31351D01*
X19635Y31460D01*
X19989Y31107D01*
D02*
G37*
G36*
X47400Y66800D02*
X47400Y66800D01*
X47400Y63600D01*
X47100Y63300D01*
Y56684D01*
X47085D01*
X46503Y56443D01*
X46057Y55997D01*
X45816Y55415D01*
Y54785D01*
X46057Y54203D01*
X46503Y53757D01*
X47085Y53516D01*
X47100D01*
Y51266D01*
X46803Y51143D01*
X46357Y50697D01*
X46116Y50115D01*
Y49485D01*
X46200Y49281D01*
Y47618D01*
X46116Y47415D01*
Y46785D01*
X46200Y46582D01*
Y46500D01*
X46258Y46442D01*
X46357Y46203D01*
X46803Y45757D01*
X47042Y45658D01*
X47200Y45500D01*
X47200Y43600D01*
X45900Y42300D01*
Y42018D01*
X45816Y41815D01*
Y41185D01*
X45900Y40982D01*
Y40600D01*
X46500Y40000D01*
X46881D01*
X47085Y39916D01*
X47184D01*
X47400Y39700D01*
Y30273D01*
X47089D01*
X46671Y30100D01*
X44500Y30100D01*
X44500Y38100D01*
X43800Y38800D01*
X44500Y39500D01*
Y43600D01*
X43000Y45100D01*
Y45600D01*
X44000Y46600D01*
Y63200D01*
X43900Y63300D01*
X36800D01*
Y65100D01*
X37500Y65800D01*
X42900D01*
X43071Y65971D01*
X43155Y65988D01*
X43549Y66251D01*
X43812Y66645D01*
X43829Y66729D01*
X43900Y66800D01*
Y67087D01*
X43904Y67110D01*
Y68291D01*
X43900Y68313D01*
Y68700D01*
X43746Y68854D01*
X43549Y69149D01*
X43254Y69346D01*
X40200Y72400D01*
Y78300D01*
X47400D01*
Y66800D01*
D02*
G37*
G36*
X12100Y38400D02*
X12500Y38000D01*
Y37394D01*
X12531Y37381D01*
X12570Y37370D01*
X12618Y37361D01*
X12672Y37355D01*
X12733Y37351D01*
X12802Y37350D01*
Y36850D01*
X12733Y36849D01*
X12618Y36839D01*
X12570Y36830D01*
X12531Y36819D01*
X12500Y36806D01*
Y33400D01*
X15200Y30700D01*
X29000D01*
Y30341D01*
X29046Y30333D01*
X29100Y30327D01*
X29162Y30323D01*
X29230Y30322D01*
Y29822D01*
X29162Y29820D01*
X29046Y29810D01*
X29000Y29802D01*
Y28900D01*
X28800Y28700D01*
X26160D01*
X25715Y28884D01*
X25085D01*
X24640Y28700D01*
X14000D01*
Y22500D01*
X14800Y21700D01*
X14000Y20900D01*
Y17600D01*
X13500Y17100D01*
X11900D01*
X11500Y17500D01*
Y25287D01*
X11518Y25313D01*
X11603Y25739D01*
Y26724D01*
X11518Y27150D01*
X11500Y27176D01*
Y28200D01*
X11000Y28700D01*
X5400D01*
X4300Y29800D01*
Y34000D01*
X4700Y34400D01*
X9500D01*
X10000Y34900D01*
Y38000D01*
X10400Y38400D01*
X12100Y38400D01*
D02*
G37*
G36*
X38958Y26730D02*
X38956Y26710D01*
X38959Y26687D01*
X38969Y26660D01*
X38985Y26630D01*
X39007Y26597D01*
X39034Y26560D01*
X39108Y26476D01*
X39154Y26429D01*
X38906Y26111D01*
X38859Y26157D01*
X38775Y26230D01*
X38739Y26257D01*
X38706Y26278D01*
X38678Y26292D01*
X38653Y26300D01*
X38632Y26301D01*
X38614Y26296D01*
X38601Y26284D01*
X38967Y26746D01*
X38958Y26730D01*
D02*
G37*
G36*
X34441Y26649D02*
X34437Y26631D01*
X34439Y26609D01*
X34448Y26583D01*
X34463Y26553D01*
X34484Y26520D01*
X34512Y26482D01*
X34547Y26441D01*
X34635Y26348D01*
X34336Y26081D01*
X34288Y26128D01*
X34165Y26231D01*
X34132Y26253D01*
X34102Y26268D01*
X34075Y26277D01*
X34052Y26280D01*
X34033Y26277D01*
X34017Y26268D01*
X34451Y26664D01*
X34441Y26649D01*
D02*
G37*
G36*
X9981Y25259D02*
X9964Y25250D01*
X9949Y25236D01*
X9936Y25215D01*
X9925Y25189D01*
X9916Y25157D01*
X9909Y25119D01*
X9904Y25075D01*
X9901Y25025D01*
X9900Y24970D01*
X9500D01*
X9499Y25025D01*
X9491Y25119D01*
X9484Y25157D01*
X9475Y25189D01*
X9464Y25215D01*
X9451Y25236D01*
X9436Y25250D01*
X9419Y25259D01*
X9400Y25262D01*
X10000D01*
X9981Y25259D01*
D02*
G37*
G36*
X91600Y33700D02*
Y27500D01*
X88400Y24300D01*
X87645D01*
X87627Y24312D01*
X87162Y24404D01*
X85981D01*
X85517Y24312D01*
X85499Y24300D01*
X84101D01*
X84083Y24312D01*
X83619Y24404D01*
X82438D01*
X82319Y24381D01*
X81600Y25100D01*
Y27100D01*
X82200Y27700D01*
X84500D01*
X86500Y29700D01*
Y33700D01*
X87100Y34300D01*
X91000D01*
X91600Y33700D01*
D02*
G37*
G36*
X87500Y23675D02*
X87558Y23687D01*
X87645Y23651D01*
X88400D01*
X88751Y23255D01*
Y21200D01*
X88941Y20741D01*
X89400Y20551D01*
X93581D01*
X93733Y20051D01*
X93524Y19911D01*
X93282Y19550D01*
X93198Y19124D01*
Y18139D01*
X93282Y17713D01*
X93524Y17352D01*
X93885Y17111D01*
X94184Y17051D01*
Y5738D01*
X91597Y3150D01*
X91515Y3184D01*
X90885D01*
X90303Y2943D01*
X89857Y2497D01*
X89616Y1915D01*
Y1285D01*
X89857Y703D01*
X90062Y497D01*
X89855Y-3D01*
X45558D01*
X45351Y497D01*
X46603Y1750D01*
X46685Y1716D01*
X47315D01*
X47897Y1957D01*
X48343Y2403D01*
X48584Y2985D01*
Y3615D01*
X48527Y3753D01*
X48805Y4169D01*
X54209D01*
X55426Y2952D01*
Y1811D01*
X55511Y1385D01*
X55752Y1024D01*
X56113Y782D01*
X56539Y697D01*
X57524D01*
X57950Y782D01*
X58311Y1024D01*
X58552Y1385D01*
X58637Y1811D01*
Y3189D01*
X58552Y3615D01*
X58475Y3732D01*
X58352Y4100D01*
X58475Y4468D01*
X58552Y4585D01*
X58637Y5011D01*
Y6389D01*
X58552Y6815D01*
X58311Y7176D01*
X58230Y7231D01*
X58381Y7731D01*
X59619D01*
X59771Y7231D01*
X59689Y7176D01*
X59448Y6815D01*
X59363Y6389D01*
Y5011D01*
X59448Y4585D01*
X59525Y4468D01*
X59648Y4100D01*
X59525Y3732D01*
X59448Y3615D01*
X59363Y3189D01*
Y1811D01*
X59448Y1385D01*
X59689Y1024D01*
X60050Y782D01*
X60476Y697D01*
X61461D01*
X61887Y782D01*
X62248Y1024D01*
X62489Y1385D01*
X62549Y1684D01*
X72452D01*
X72452Y1684D01*
X72764Y1746D01*
X73028Y1923D01*
X74016Y2911D01*
X74516Y2703D01*
Y2285D01*
X74757Y1703D01*
X75203Y1257D01*
X75785Y1016D01*
X76415D01*
X76997Y1257D01*
X77282Y1542D01*
X77600Y1649D01*
X77918Y1542D01*
X78203Y1257D01*
X78785Y1016D01*
X79415D01*
X79997Y1257D01*
X80443Y1703D01*
X80684Y2285D01*
Y2915D01*
X80443Y3497D01*
X79997Y3943D01*
X79669Y4079D01*
X79650Y4141D01*
X79716Y4471D01*
Y6989D01*
X79899Y7255D01*
X80164Y7438D01*
X82682D01*
X83012Y7503D01*
X83292Y7690D01*
X83319Y7731D01*
X85863D01*
X86196Y7362D01*
Y6181D01*
X86288Y5717D01*
X86551Y5323D01*
X86945Y5060D01*
X87410Y4967D01*
X88591D01*
X89055Y5060D01*
X89449Y5323D01*
X89712Y5717D01*
X89804Y6181D01*
Y7362D01*
X89712Y7827D01*
X89449Y8220D01*
X89055Y8484D01*
X88746Y8545D01*
Y9055D01*
X89055Y9116D01*
X89449Y9380D01*
X89712Y9773D01*
X89804Y10238D01*
Y11419D01*
X89712Y11883D01*
X89449Y12277D01*
X89416Y12299D01*
Y12901D01*
X89449Y12923D01*
X89712Y13317D01*
X89804Y13781D01*
Y14962D01*
X89712Y15427D01*
X89449Y15821D01*
X89055Y16084D01*
X88591Y16176D01*
X87818D01*
X87391Y16568D01*
X87391Y16578D01*
X87627Y16988D01*
X88020Y17251D01*
X88284Y17645D01*
X88376Y18110D01*
Y19291D01*
X88284Y19755D01*
X88020Y20149D01*
X87627Y20412D01*
X87162Y20504D01*
X85981D01*
X85517Y20412D01*
X85123Y20149D01*
X85101Y20116D01*
X84499D01*
X84477Y20149D01*
X84123Y20386D01*
X84095Y20650D01*
X84123Y20914D01*
X84477Y21151D01*
X84740Y21545D01*
X84833Y22009D01*
Y23191D01*
X84818Y23264D01*
X85135Y23651D01*
X85499D01*
X85585Y23687D01*
X85643Y23675D01*
X86045Y23755D01*
X86190D01*
X86285Y23716D01*
X86915D01*
X87010Y23755D01*
X87098D01*
X87500Y23675D01*
D02*
G37*
G36*
X9904Y23042D02*
X9916Y23020D01*
X9935Y22993D01*
X9962Y22962D01*
X9998Y22927D01*
X10091Y22844D01*
X10291Y22687D01*
X9109D01*
X9184Y22744D01*
X9437Y22962D01*
X9465Y22993D01*
X9484Y23020D01*
X9496Y23042D01*
X9500Y23061D01*
X9900D01*
X9904Y23042D01*
D02*
G37*
G36*
X101069Y22850D02*
X101078Y22832D01*
X101093Y22817D01*
X101113Y22805D01*
X101139Y22794D01*
X101172Y22784D01*
X101210Y22777D01*
X101253Y22772D01*
X101303Y22770D01*
X101358Y22769D01*
Y22368D01*
X101303Y22367D01*
X101210Y22359D01*
X101172Y22353D01*
X101139Y22343D01*
X101113Y22332D01*
X101093Y22320D01*
X101078Y22305D01*
X101069Y22287D01*
X101067Y22268D01*
Y22869D01*
X101069Y22850D01*
D02*
G37*
G36*
X56062Y22668D02*
X56037Y22334D01*
X56039Y22293D01*
X56044Y22261D01*
X56052Y22236D01*
X56062Y22221D01*
X55779Y21938D01*
X55764Y21948D01*
X55739Y21956D01*
X55707Y21961D01*
X55666Y21963D01*
X55616Y21963D01*
X55491Y21956D01*
X55239Y21926D01*
X56074Y22761D01*
X56062Y22668D01*
D02*
G37*
G36*
X58862Y22268D02*
X58837Y21934D01*
X58839Y21893D01*
X58844Y21860D01*
X58852Y21836D01*
X58862Y21821D01*
X58579Y21538D01*
X58564Y21548D01*
X58539Y21556D01*
X58507Y21561D01*
X58466Y21563D01*
X58416Y21563D01*
X58291Y21556D01*
X58039Y21526D01*
X58874Y22361D01*
X58862Y22268D01*
D02*
G37*
G36*
X82302Y21459D02*
X82287Y21469D01*
X82269Y21473D01*
X82246Y21471D01*
X82221Y21462D01*
X82192Y21447D01*
X82159Y21427D01*
X82122Y21399D01*
X82083Y21366D01*
X81992Y21281D01*
X81709Y21564D01*
X81755Y21611D01*
X81828Y21694D01*
X81855Y21731D01*
X81876Y21763D01*
X81890Y21792D01*
X81899Y21818D01*
X81901Y21840D01*
X81897Y21859D01*
X81887Y21874D01*
X82302Y21459D01*
D02*
G37*
G36*
X35262Y21468D02*
X35237Y21134D01*
X35239Y21093D01*
X35244Y21060D01*
X35252Y21036D01*
X35262Y21021D01*
X34979Y20738D01*
X34964Y20748D01*
X34940Y20756D01*
X34907Y20761D01*
X34866Y20763D01*
X34816Y20763D01*
X34691Y20756D01*
X34439Y20726D01*
X35274Y21561D01*
X35262Y21468D01*
D02*
G37*
G36*
X23531Y21197D02*
X23557Y21183D01*
X23589Y21172D01*
X23626Y21164D01*
X23668Y21159D01*
X23716Y21156D01*
X23769Y21156D01*
X23892Y21166D01*
X23961Y21174D01*
X23126Y20339D01*
X23134Y20408D01*
X23144Y20531D01*
X23144Y20584D01*
X23141Y20632D01*
X23136Y20674D01*
X23128Y20711D01*
X23117Y20743D01*
X23103Y20769D01*
X23086Y20790D01*
X23510Y21214D01*
X23531Y21197D01*
D02*
G37*
G36*
X30633Y19719D02*
X30646Y19694D01*
X30660Y19672D01*
X30676Y19653D01*
X30694Y19637D01*
X30712Y19624D01*
X30732Y19613D01*
X30753Y19606D01*
X30776Y19602D01*
X30800Y19600D01*
Y19200D01*
X30776Y19198D01*
X30753Y19194D01*
X30732Y19187D01*
X30712Y19176D01*
X30694Y19163D01*
X30676Y19147D01*
X30660Y19128D01*
X30646Y19106D01*
X30633Y19081D01*
X30621Y19053D01*
Y19747D01*
X30633Y19719D01*
D02*
G37*
G36*
X76839Y19003D02*
X76847Y18902D01*
X76853Y18861D01*
X76862Y18827D01*
X76872Y18799D01*
X76885Y18777D01*
X76899Y18761D01*
X76915Y18752D01*
X76933Y18749D01*
X76343D01*
X76361Y18752D01*
X76377Y18761D01*
X76391Y18777D01*
X76404Y18799D01*
X76414Y18827D01*
X76423Y18861D01*
X76429Y18902D01*
X76434Y18949D01*
X76438Y19062D01*
X76838D01*
X76839Y19003D01*
D02*
G37*
G36*
X75094Y18708D02*
X74244D01*
X74249Y18715D01*
X74253Y18734D01*
X74257Y18764D01*
X74263Y18856D01*
X74269Y19278D01*
X75069D01*
X75094Y18708D01*
D02*
G37*
G36*
X27972Y19037D02*
X27937Y18943D01*
X27926Y18902D01*
X27918Y18865D01*
X27915Y18832D01*
X27916Y18803D01*
X27920Y18779D01*
X27929Y18758D01*
X27941Y18741D01*
X27650Y18467D01*
X27628Y18486D01*
X27601Y18502D01*
X27570Y18515D01*
X27535Y18525D01*
X27496Y18533D01*
X27453Y18537D01*
X27405Y18539D01*
X27354Y18537D01*
X27238Y18526D01*
X27995Y19090D01*
X27972Y19037D01*
D02*
G37*
G36*
X32101Y17875D02*
X32109Y17781D01*
X32116Y17743D01*
X32125Y17711D01*
X32136Y17685D01*
X32149Y17664D01*
X32164Y17650D01*
X32181Y17641D01*
X32200Y17638D01*
X31600D01*
X31619Y17641D01*
X31636Y17650D01*
X31651Y17664D01*
X31664Y17685D01*
X31675Y17711D01*
X31684Y17743D01*
X31691Y17781D01*
X31696Y17825D01*
X31699Y17875D01*
X31700Y17930D01*
X32100D01*
X32101Y17875D01*
D02*
G37*
G36*
X28001D02*
X28009Y17781D01*
X28016Y17743D01*
X28025Y17711D01*
X28036Y17685D01*
X28049Y17664D01*
X28064Y17650D01*
X28081Y17641D01*
X28100Y17638D01*
X27500D01*
X27519Y17641D01*
X27536Y17650D01*
X27551Y17664D01*
X27564Y17685D01*
X27575Y17711D01*
X27584Y17743D01*
X27591Y17781D01*
X27596Y17825D01*
X27599Y17875D01*
X27600Y17930D01*
X28000D01*
X28001Y17875D01*
D02*
G37*
G36*
X82302Y17559D02*
X82287Y17569D01*
X82269Y17573D01*
X82246Y17571D01*
X82221Y17562D01*
X82192Y17547D01*
X82159Y17526D01*
X82122Y17499D01*
X82083Y17466D01*
X81992Y17381D01*
X81709Y17664D01*
X81755Y17711D01*
X81828Y17794D01*
X81855Y17831D01*
X81876Y17863D01*
X81890Y17892D01*
X81899Y17918D01*
X81901Y17940D01*
X81897Y17959D01*
X81887Y17974D01*
X82302Y17559D01*
D02*
G37*
G36*
X36301Y17777D02*
X36309Y17683D01*
X36316Y17645D01*
X36325Y17613D01*
X36336Y17587D01*
X36349Y17566D01*
X36364Y17552D01*
X36381Y17543D01*
X36400Y17540D01*
X35800D01*
X35819Y17543D01*
X35836Y17552D01*
X35851Y17566D01*
X35864Y17587D01*
X35875Y17613D01*
X35884Y17645D01*
X35891Y17683D01*
X35896Y17727D01*
X35899Y17777D01*
X35900Y17832D01*
X36300D01*
X36301Y17777D01*
D02*
G37*
G36*
X22662Y18168D02*
X22637Y17834D01*
X22639Y17793D01*
X22644Y17761D01*
X22652Y17736D01*
X22662Y17721D01*
X22379Y17438D01*
X22364Y17448D01*
X22340Y17456D01*
X22307Y17461D01*
X22266Y17463D01*
X22216Y17463D01*
X22091Y17456D01*
X21839Y17426D01*
X22674Y18261D01*
X22662Y18168D01*
D02*
G37*
G36*
X95281Y17659D02*
X95264Y17650D01*
X95249Y17636D01*
X95236Y17615D01*
X95225Y17589D01*
X95216Y17557D01*
X95209Y17519D01*
X95204Y17475D01*
X95201Y17425D01*
X95200Y17370D01*
X94800D01*
X94799Y17425D01*
X94791Y17519D01*
X94784Y17557D01*
X94775Y17589D01*
X94764Y17615D01*
X94751Y17636D01*
X94736Y17650D01*
X94719Y17659D01*
X94700Y17662D01*
X95300D01*
X95281Y17659D01*
D02*
G37*
G36*
X86853Y17529D02*
X86836Y17520D01*
X86821Y17505D01*
X86808Y17485D01*
X86797Y17459D01*
X86788Y17426D01*
X86781Y17389D01*
X86776Y17345D01*
X86773Y17295D01*
X86772Y17240D01*
X86372D01*
X86371Y17295D01*
X86363Y17389D01*
X86356Y17426D01*
X86347Y17459D01*
X86336Y17485D01*
X86323Y17505D01*
X86308Y17520D01*
X86291Y17529D01*
X86272Y17532D01*
X86872D01*
X86853Y17529D01*
D02*
G37*
G36*
X19797Y17475D02*
X19722Y17422D01*
X19464Y17213D01*
X19436Y17183D01*
X19416Y17156D01*
X19404Y17134D01*
X19400Y17116D01*
X19000Y17130D01*
X18996Y17148D01*
X18985Y17170D01*
X18966Y17197D01*
X18939Y17229D01*
X18904Y17265D01*
X18812Y17352D01*
X18617Y17516D01*
X19797Y17475D01*
D02*
G37*
G36*
X79097Y17481D02*
X79106Y17464D01*
X79121Y17449D01*
X79141Y17436D01*
X79167Y17425D01*
X79199Y17416D01*
X79238Y17409D01*
X79281Y17404D01*
X79331Y17401D01*
X79386Y17400D01*
Y17000D01*
X79331Y16999D01*
X79238Y16991D01*
X79199Y16984D01*
X79167Y16975D01*
X79141Y16964D01*
X79121Y16951D01*
X79106Y16936D01*
X79097Y16919D01*
X79094Y16900D01*
Y17500D01*
X79097Y17481D01*
D02*
G37*
G36*
X23701Y16175D02*
X23709Y16081D01*
X23716Y16043D01*
X23725Y16011D01*
X23736Y15985D01*
X23749Y15964D01*
X23764Y15950D01*
X23781Y15941D01*
X23800Y15938D01*
X23200D01*
X23219Y15941D01*
X23236Y15950D01*
X23251Y15964D01*
X23264Y15985D01*
X23275Y16011D01*
X23284Y16043D01*
X23291Y16081D01*
X23296Y16125D01*
X23299Y16175D01*
X23300Y16230D01*
X23700D01*
X23701Y16175D01*
D02*
G37*
G36*
X19601D02*
X19609Y16081D01*
X19616Y16043D01*
X19625Y16011D01*
X19636Y15985D01*
X19649Y15964D01*
X19664Y15950D01*
X19681Y15941D01*
X19700Y15938D01*
X19100D01*
X19119Y15941D01*
X19136Y15950D01*
X19151Y15964D01*
X19164Y15985D01*
X19175Y16011D01*
X19184Y16043D01*
X19191Y16081D01*
X19196Y16125D01*
X19199Y16175D01*
X19200Y16230D01*
X19600D01*
X19601Y16175D01*
D02*
G37*
G36*
X82905Y14731D02*
X82915Y14715D01*
X82930Y14700D01*
X82952Y14688D01*
X82981Y14677D01*
X83015Y14669D01*
X83056Y14662D01*
X83103Y14657D01*
X83216Y14653D01*
Y14254D01*
X83156Y14253D01*
X83056Y14245D01*
X83015Y14238D01*
X82981Y14230D01*
X82952Y14219D01*
X82930Y14207D01*
X82915Y14192D01*
X82905Y14176D01*
X82902Y14158D01*
Y14749D01*
X82905Y14731D01*
D02*
G37*
G36*
X68414Y14136D02*
X68410Y14154D01*
X68400Y14170D01*
X68384Y14184D01*
X68361Y14197D01*
X68332Y14207D01*
X68296Y14216D01*
X68255Y14222D01*
X68207Y14227D01*
X68091Y14231D01*
Y14631D01*
X68150Y14632D01*
X68248Y14640D01*
X68287Y14646D01*
X68321Y14655D01*
X68348Y14665D01*
X68370Y14678D01*
X68384Y14692D01*
X68393Y14708D01*
X68396Y14727D01*
X68414Y14136D01*
D02*
G37*
G36*
X86832Y14072D02*
X86829Y14091D01*
X86820Y14108D01*
X86805Y14123D01*
X86785Y14136D01*
X86759Y14147D01*
X86726Y14156D01*
X86689Y14163D01*
X86645Y14168D01*
X86595Y14171D01*
X86540Y14172D01*
Y14572D01*
X86595Y14573D01*
X86689Y14581D01*
X86726Y14588D01*
X86759Y14597D01*
X86785Y14608D01*
X86805Y14621D01*
X86820Y14636D01*
X86829Y14653D01*
X86832Y14672D01*
Y14072D01*
D02*
G37*
G36*
X82905Y12762D02*
X82915Y12746D01*
X82930Y12731D01*
X82952Y12719D01*
X82981Y12708D01*
X83015Y12700D01*
X83056Y12693D01*
X83103Y12688D01*
X83216Y12685D01*
Y12285D01*
X83156Y12284D01*
X83056Y12276D01*
X83015Y12269D01*
X82981Y12261D01*
X82952Y12250D01*
X82930Y12238D01*
X82915Y12223D01*
X82905Y12207D01*
X82902Y12189D01*
Y12780D01*
X82905Y12762D01*
D02*
G37*
G36*
X68405Y12189D02*
X68402Y12207D01*
X68392Y12223D01*
X68377Y12238D01*
X68355Y12250D01*
X68326Y12261D01*
X68292Y12269D01*
X68251Y12276D01*
X68204Y12281D01*
X68091Y12285D01*
Y12685D01*
X68151Y12686D01*
X68251Y12693D01*
X68292Y12700D01*
X68326Y12708D01*
X68355Y12719D01*
X68377Y12731D01*
X68392Y12746D01*
X68402Y12762D01*
X68405Y12780D01*
Y12189D01*
D02*
G37*
G36*
X46162Y11600D02*
X46159Y11619D01*
X46150Y11636D01*
X46136Y11651D01*
X46115Y11664D01*
X46089Y11675D01*
X46057Y11684D01*
X46019Y11691D01*
X45975Y11696D01*
X45925Y11699D01*
X45870Y11700D01*
Y12100D01*
X45925Y12101D01*
X46019Y12109D01*
X46057Y12116D01*
X46089Y12125D01*
X46115Y12136D01*
X46136Y12149D01*
X46150Y12164D01*
X46159Y12181D01*
X46162Y12200D01*
Y11600D01*
D02*
G37*
G36*
X32181Y11759D02*
X32164Y11750D01*
X32149Y11736D01*
X32136Y11715D01*
X32125Y11689D01*
X32116Y11657D01*
X32109Y11619D01*
X32104Y11575D01*
X32101Y11525D01*
X32100Y11470D01*
X31700D01*
X31699Y11525D01*
X31691Y11619D01*
X31684Y11657D01*
X31675Y11689D01*
X31664Y11715D01*
X31651Y11736D01*
X31636Y11750D01*
X31619Y11759D01*
X31600Y11762D01*
X32200D01*
X32181Y11759D01*
D02*
G37*
G36*
X28081D02*
X28064Y11750D01*
X28049Y11736D01*
X28036Y11715D01*
X28025Y11689D01*
X28016Y11657D01*
X28009Y11619D01*
X28004Y11575D01*
X28001Y11525D01*
X28000Y11470D01*
X27600D01*
X27599Y11525D01*
X27591Y11619D01*
X27584Y11657D01*
X27575Y11689D01*
X27564Y11715D01*
X27551Y11736D01*
X27536Y11750D01*
X27519Y11759D01*
X27500Y11762D01*
X28100D01*
X28081Y11759D01*
D02*
G37*
G36*
X59984Y16862D02*
Y11824D01*
X59984Y11824D01*
X60046Y11512D01*
X60223Y11248D01*
X60669Y10802D01*
X60478Y10340D01*
X53585D01*
X53031Y10894D01*
X53315Y11318D01*
X53484Y11247D01*
X54115D01*
X54697Y11489D01*
X55143Y11934D01*
X55384Y12517D01*
Y13147D01*
X55143Y13729D01*
X54756Y14116D01*
X55143Y14503D01*
X55384Y15085D01*
Y15715D01*
X55143Y16297D01*
X54795Y16645D01*
X54797Y16657D01*
X55243Y17103D01*
X55484Y17685D01*
Y18315D01*
X55243Y18897D01*
X55162Y18979D01*
X55197Y19157D01*
X55643Y19603D01*
X55884Y20185D01*
Y20255D01*
X56384Y20462D01*
X59984Y16862D01*
D02*
G37*
G36*
X52018Y11144D02*
X52014Y11125D01*
X52017Y11102D01*
X52026Y11076D01*
X52041Y11046D01*
X52063Y11013D01*
X52091Y10975D01*
X52126Y10934D01*
X52214Y10841D01*
X51931Y10558D01*
X51882Y10605D01*
X51759Y10709D01*
X51725Y10730D01*
X51695Y10746D01*
X51669Y10755D01*
X51647Y10758D01*
X51628Y10754D01*
X51613Y10744D01*
X52028Y11159D01*
X52018Y11144D01*
D02*
G37*
G36*
X86832Y10528D02*
X86829Y10547D01*
X86820Y10564D01*
X86805Y10579D01*
X86785Y10592D01*
X86759Y10603D01*
X86726Y10612D01*
X86689Y10619D01*
X86645Y10624D01*
X86595Y10627D01*
X86540Y10628D01*
Y11028D01*
X86595Y11029D01*
X86689Y11037D01*
X86726Y11044D01*
X86759Y11053D01*
X86785Y11064D01*
X86805Y11077D01*
X86820Y11092D01*
X86829Y11109D01*
X86832Y11128D01*
Y10528D01*
D02*
G37*
G36*
X82905Y10793D02*
X82915Y10777D01*
X82930Y10762D01*
X82952Y10750D01*
X82981Y10739D01*
X83015Y10731D01*
X83056Y10724D01*
X83103Y10719D01*
X83216Y10716D01*
Y10316D01*
X83156Y10315D01*
X83056Y10307D01*
X83015Y10300D01*
X82981Y10292D01*
X82952Y10281D01*
X82930Y10269D01*
X82915Y10254D01*
X82905Y10238D01*
X82902Y10220D01*
Y10811D01*
X82905Y10793D01*
D02*
G37*
G36*
X68405Y10220D02*
X68402Y10238D01*
X68392Y10254D01*
X68377Y10269D01*
X68355Y10281D01*
X68326Y10292D01*
X68292Y10300D01*
X68251Y10307D01*
X68204Y10312D01*
X68091Y10316D01*
Y10716D01*
X68151Y10717D01*
X68251Y10724D01*
X68292Y10731D01*
X68326Y10739D01*
X68355Y10750D01*
X68377Y10762D01*
X68392Y10777D01*
X68402Y10793D01*
X68405Y10811D01*
Y10220D01*
D02*
G37*
G36*
X23781Y10059D02*
X23764Y10050D01*
X23749Y10036D01*
X23736Y10015D01*
X23725Y9989D01*
X23716Y9957D01*
X23709Y9919D01*
X23704Y9875D01*
X23701Y9825D01*
X23700Y9770D01*
X23300D01*
X23299Y9825D01*
X23291Y9919D01*
X23284Y9957D01*
X23275Y9989D01*
X23264Y10015D01*
X23251Y10036D01*
X23236Y10050D01*
X23219Y10059D01*
X23200Y10062D01*
X23800D01*
X23781Y10059D01*
D02*
G37*
G36*
X19681D02*
X19664Y10050D01*
X19649Y10036D01*
X19636Y10015D01*
X19625Y9989D01*
X19616Y9957D01*
X19609Y9919D01*
X19604Y9875D01*
X19601Y9825D01*
X19600Y9770D01*
X19200D01*
X19199Y9825D01*
X19191Y9919D01*
X19184Y9957D01*
X19175Y9989D01*
X19164Y10015D01*
X19151Y10036D01*
X19136Y10050D01*
X19119Y10059D01*
X19100Y10062D01*
X19700D01*
X19681Y10059D01*
D02*
G37*
G36*
X82905Y8824D02*
X82915Y8808D01*
X82930Y8793D01*
X82952Y8781D01*
X82981Y8770D01*
X83015Y8762D01*
X83056Y8755D01*
X83103Y8750D01*
X83216Y8747D01*
Y8347D01*
X83156Y8346D01*
X83056Y8338D01*
X83015Y8331D01*
X82981Y8323D01*
X82952Y8312D01*
X82930Y8300D01*
X82915Y8285D01*
X82905Y8269D01*
X82902Y8251D01*
Y8842D01*
X82905Y8824D01*
D02*
G37*
G36*
X68405Y8251D02*
X68402Y8269D01*
X68392Y8285D01*
X68377Y8300D01*
X68355Y8312D01*
X68326Y8323D01*
X68292Y8331D01*
X68251Y8338D01*
X68204Y8343D01*
X68091Y8347D01*
Y8747D01*
X68151Y8748D01*
X68251Y8755D01*
X68292Y8762D01*
X68326Y8770D01*
X68355Y8781D01*
X68377Y8793D01*
X68392Y8808D01*
X68402Y8824D01*
X68405Y8842D01*
Y8251D01*
D02*
G37*
G36*
X52041Y8381D02*
X52050Y8364D01*
X52064Y8349D01*
X52085Y8336D01*
X52111Y8325D01*
X52143Y8316D01*
X52181Y8309D01*
X52225Y8304D01*
X52275Y8301D01*
X52330Y8300D01*
Y7900D01*
X52275Y7899D01*
X52181Y7891D01*
X52143Y7884D01*
X52111Y7875D01*
X52085Y7864D01*
X52064Y7851D01*
X52050Y7836D01*
X52041Y7819D01*
X52038Y7800D01*
Y8400D01*
X52041Y8381D01*
D02*
G37*
G36*
X46162Y7800D02*
X46159Y7819D01*
X46150Y7836D01*
X46136Y7851D01*
X46115Y7864D01*
X46089Y7875D01*
X46057Y7884D01*
X46019Y7891D01*
X45975Y7896D01*
X45925Y7899D01*
X45870Y7900D01*
Y8300D01*
X45925Y8301D01*
X46019Y8309D01*
X46057Y8316D01*
X46089Y8325D01*
X46115Y8336D01*
X46136Y8349D01*
X46150Y8364D01*
X46159Y8381D01*
X46162Y8400D01*
Y7800D01*
D02*
G37*
G36*
X87011Y8045D02*
X87094Y7972D01*
X87130Y7945D01*
X87163Y7924D01*
X87192Y7910D01*
X87218Y7901D01*
X87240Y7899D01*
X87259Y7903D01*
X87274Y7913D01*
X86859Y7498D01*
X86869Y7513D01*
X86873Y7531D01*
X86871Y7554D01*
X86862Y7579D01*
X86847Y7608D01*
X86826Y7641D01*
X86799Y7677D01*
X86766Y7717D01*
X86681Y7808D01*
X86964Y8091D01*
X87011Y8045D01*
D02*
G37*
G36*
X26873Y8432D02*
X26890Y8398D01*
X26918Y8369D01*
X26959Y8343D01*
X27010Y8321D01*
X27073Y8303D01*
X27148Y8289D01*
X27234Y8280D01*
X27331Y8274D01*
X27440Y8272D01*
Y7472D01*
X27331Y7470D01*
X27148Y7454D01*
X27073Y7440D01*
X27010Y7422D01*
X26959Y7401D01*
X26918Y7375D01*
X26890Y7345D01*
X26873Y7311D01*
X26867Y7274D01*
Y8469D01*
X26873Y8432D01*
D02*
G37*
G36*
X29232Y7136D02*
X29259Y7117D01*
X29289Y7101D01*
X29320Y7088D01*
X29355Y7078D01*
X29391Y7072D01*
X29430Y7068D01*
X29471Y7067D01*
X29515Y7069D01*
X29561Y7074D01*
X28726Y6239D01*
X28731Y6285D01*
X28733Y6329D01*
X28732Y6370D01*
X28728Y6409D01*
X28722Y6445D01*
X28712Y6480D01*
X28699Y6511D01*
X28683Y6541D01*
X28664Y6568D01*
X28642Y6592D01*
X29208Y7158D01*
X29232Y7136D01*
D02*
G37*
G36*
X28116Y6166D02*
Y5785D01*
X28357Y5203D01*
X28803Y4757D01*
X29385Y4516D01*
X29596D01*
X29930Y4016D01*
X29847Y3815D01*
Y3185D01*
X29904Y3047D01*
X29627Y2631D01*
X25222D01*
X24316Y3538D01*
Y5824D01*
X24816Y6126D01*
X25109Y6067D01*
X26291D01*
X26755Y6160D01*
X27149Y6423D01*
X27181Y6470D01*
X27733Y6525D01*
X28116Y6166D01*
D02*
G37*
G36*
X56062Y5600D02*
X56059Y5619D01*
X56050Y5636D01*
X56036Y5651D01*
X56015Y5664D01*
X55989Y5675D01*
X55957Y5684D01*
X55919Y5691D01*
X55875Y5696D01*
X55825Y5699D01*
X55770Y5700D01*
Y6100D01*
X55825Y6101D01*
X55919Y6109D01*
X55957Y6116D01*
X55989Y6125D01*
X56015Y6136D01*
X56036Y6149D01*
X56050Y6164D01*
X56059Y6181D01*
X56062Y6200D01*
Y5600D01*
D02*
G37*
G36*
X61918Y4944D02*
X61914Y4925D01*
X61917Y4903D01*
X61926Y4876D01*
X61941Y4846D01*
X61963Y4813D01*
X61991Y4775D01*
X62026Y4734D01*
X62114Y4641D01*
X61831Y4358D01*
X61782Y4405D01*
X61659Y4509D01*
X61625Y4530D01*
X61595Y4546D01*
X61569Y4555D01*
X61547Y4558D01*
X61528Y4554D01*
X61513Y4544D01*
X61928Y4959D01*
X61918Y4944D01*
D02*
G37*
G36*
X74594Y4230D02*
X74579Y4239D01*
X74560Y4242D01*
X74536Y4238D01*
X74509Y4227D01*
X74477Y4210D01*
X74441Y4185D01*
X74400Y4154D01*
X74307Y4072D01*
X74254Y4020D01*
X73972Y4303D01*
X74023Y4356D01*
X74137Y4489D01*
X74161Y4525D01*
X74179Y4557D01*
X74190Y4584D01*
X74194Y4608D01*
X74191Y4627D01*
X74182Y4642D01*
X74594Y4230D01*
D02*
G37*
G36*
X72625D02*
X72610Y4239D01*
X72591Y4242D01*
X72567Y4238D01*
X72540Y4227D01*
X72508Y4210D01*
X72472Y4185D01*
X72431Y4154D01*
X72338Y4072D01*
X72285Y4020D01*
X72003Y4303D01*
X72054Y4356D01*
X72168Y4489D01*
X72193Y4525D01*
X72210Y4557D01*
X72221Y4584D01*
X72225Y4608D01*
X72222Y4627D01*
X72213Y4642D01*
X72625Y4230D01*
D02*
G37*
G36*
X78884Y4248D02*
X78868Y4239D01*
X78854Y4223D01*
X78841Y4201D01*
X78831Y4173D01*
X78822Y4138D01*
X78816Y4098D01*
X78811Y4051D01*
X78807Y3938D01*
X78407D01*
X78406Y3997D01*
X78398Y4098D01*
X78392Y4138D01*
X78383Y4173D01*
X78373Y4201D01*
X78360Y4223D01*
X78346Y4239D01*
X78330Y4248D01*
X78312Y4251D01*
X78902D01*
X78884Y4248D01*
D02*
G37*
G36*
X76915D02*
X76899Y4239D01*
X76885Y4223D01*
X76872Y4201D01*
X76862Y4173D01*
X76853Y4138D01*
X76847Y4098D01*
X76842Y4051D01*
X76838Y3938D01*
X76438D01*
X76437Y3997D01*
X76429Y4098D01*
X76423Y4138D01*
X76414Y4173D01*
X76404Y4201D01*
X76391Y4223D01*
X76377Y4239D01*
X76361Y4248D01*
X76343Y4251D01*
X76933D01*
X76915Y4248D01*
D02*
G37*
G36*
X56094Y3722D02*
X56175Y3652D01*
X56210Y3626D01*
X56241Y3608D01*
X56268Y3596D01*
X56291Y3591D01*
X56310Y3593D01*
X56325Y3601D01*
X56336Y3616D01*
X56062Y3057D01*
X56067Y3076D01*
X56067Y3099D01*
X56061Y3124D01*
X56049Y3153D01*
X56031Y3185D01*
X56007Y3221D01*
X55978Y3259D01*
X55901Y3347D01*
X55853Y3395D01*
X56047Y3768D01*
X56094Y3722D01*
D02*
G37*
G36*
X78811Y3715D02*
X78823Y3695D01*
X78844Y3676D01*
X78873Y3658D01*
X78909Y3642D01*
X78954Y3626D01*
X79008Y3612D01*
X79139Y3588D01*
X79217Y3577D01*
X78194Y2986D01*
X78407Y3496D01*
X78807Y3737D01*
X78811Y3715D01*
D02*
G37*
G36*
X76838Y3448D02*
X77025Y2937D01*
X76036Y3582D01*
X76112Y3588D01*
X76241Y3606D01*
X76293Y3617D01*
X76337Y3630D01*
X76374Y3645D01*
X76402Y3661D01*
X76422Y3680D01*
X76434Y3700D01*
X76438Y3721D01*
X76838Y3448D01*
D02*
G37*
G36*
X46861Y2326D02*
X46768Y2338D01*
X46434Y2363D01*
X46393Y2361D01*
X46360Y2356D01*
X46336Y2348D01*
X46321Y2338D01*
X46038Y2621D01*
X46048Y2636D01*
X46056Y2661D01*
X46061Y2693D01*
X46063Y2734D01*
X46063Y2784D01*
X46056Y2909D01*
X46026Y3161D01*
X46861Y2326D01*
D02*
G37*
G36*
X61941Y2781D02*
X61950Y2764D01*
X61964Y2749D01*
X61985Y2736D01*
X62011Y2725D01*
X62043Y2716D01*
X62081Y2709D01*
X62125Y2704D01*
X62175Y2701D01*
X62230Y2700D01*
Y2300D01*
X62175Y2299D01*
X62081Y2291D01*
X62043Y2284D01*
X62011Y2275D01*
X61985Y2264D01*
X61964Y2251D01*
X61950Y2236D01*
X61941Y2219D01*
X61938Y2200D01*
Y2800D01*
X61941Y2781D01*
D02*
G37*
G36*
X41861Y2026D02*
X41768Y2038D01*
X41434Y2063D01*
X41393Y2061D01*
X41361Y2056D01*
X41336Y2048D01*
X41321Y2038D01*
X41038Y2321D01*
X41048Y2336D01*
X41056Y2361D01*
X41061Y2393D01*
X41063Y2434D01*
X41063Y2484D01*
X41056Y2609D01*
X41026Y2861D01*
X41861Y2026D01*
D02*
G37*
G36*
X91432Y2562D02*
X91766Y2537D01*
X91807Y2539D01*
X91839Y2544D01*
X91864Y2552D01*
X91879Y2562D01*
X92162Y2279D01*
X92152Y2264D01*
X92144Y2239D01*
X92139Y2207D01*
X92137Y2166D01*
X92137Y2116D01*
X92144Y1991D01*
X92174Y1739D01*
X91339Y2574D01*
X91432Y2562D01*
D02*
G37*
%LPC*%
G36*
X17515Y65784D02*
X16885D01*
X16303Y65543D01*
X15900Y65140D01*
X15497Y65543D01*
X14915Y65784D01*
X14285D01*
X13703Y65543D01*
X13257Y65097D01*
X13016Y64515D01*
Y63885D01*
X13257Y63303D01*
X13703Y62857D01*
X14285Y62616D01*
X14915D01*
X15497Y62857D01*
X15900Y63260D01*
X16303Y62857D01*
X16885Y62616D01*
X17515D01*
X18097Y62857D01*
X18543Y63303D01*
X18784Y63885D01*
Y64515D01*
X18543Y65097D01*
X18097Y65543D01*
X17515Y65784D01*
D02*
G37*
G36*
X110200Y77783D02*
X108857Y77651D01*
X107566Y77259D01*
X106376Y76623D01*
X105333Y75767D01*
X104477Y74724D01*
X103841Y73534D01*
X103449Y72243D01*
X103317Y70900D01*
X103449Y69557D01*
X103841Y68266D01*
X104477Y67076D01*
X105333Y66033D01*
X106376Y65177D01*
X107566Y64541D01*
X108857Y64149D01*
X110200Y64017D01*
X111543Y64149D01*
X112834Y64541D01*
X114024Y65177D01*
X115067Y66033D01*
X115923Y67076D01*
X116559Y68266D01*
X116951Y69557D01*
X117083Y70900D01*
X116951Y72243D01*
X116559Y73534D01*
X115923Y74724D01*
X115067Y75767D01*
X114024Y76623D01*
X112834Y77259D01*
X111543Y77651D01*
X110200Y77783D01*
D02*
G37*
G36*
X7900D02*
X6557Y77651D01*
X5266Y77259D01*
X4076Y76623D01*
X3033Y75767D01*
X2177Y74724D01*
X1541Y73534D01*
X1149Y72243D01*
X1017Y70900D01*
X1149Y69557D01*
X1541Y68266D01*
X2177Y67076D01*
X3033Y66033D01*
X4076Y65177D01*
X5266Y64541D01*
X6557Y64149D01*
X7900Y64017D01*
X9243Y64149D01*
X10534Y64541D01*
X11724Y65177D01*
X12767Y66033D01*
X13623Y67076D01*
X14259Y68266D01*
X14651Y69557D01*
X14783Y70900D01*
X14651Y72243D01*
X14259Y73534D01*
X13623Y74724D01*
X12767Y75767D01*
X11724Y76623D01*
X10534Y77259D01*
X9243Y77651D01*
X7900Y77783D01*
D02*
G37*
G36*
X54415Y64784D02*
X53785D01*
X53203Y64543D01*
X52757Y64097D01*
X52516Y63515D01*
Y62885D01*
X52757Y62303D01*
X53203Y61857D01*
X53785Y61616D01*
X54415D01*
X54997Y61857D01*
X55443Y62303D01*
X55684Y62885D01*
Y63515D01*
X55443Y64097D01*
X54997Y64543D01*
X54415Y64784D01*
D02*
G37*
G36*
X58615Y59984D02*
X57985D01*
X57403Y59743D01*
X56957Y59297D01*
X56716Y58715D01*
Y58446D01*
X56715Y58085D01*
X56254Y57984D01*
X56085D01*
X55503Y57743D01*
X55057Y57297D01*
X54816Y56715D01*
Y56085D01*
X55057Y55503D01*
X55130Y55429D01*
X54847Y55005D01*
X54415Y55184D01*
X53785D01*
X53203Y54943D01*
X52757Y54497D01*
X52516Y53915D01*
Y53285D01*
X52757Y52703D01*
X53203Y52257D01*
X53785Y52016D01*
X54415D01*
X54997Y52257D01*
X55443Y52703D01*
X55684Y53285D01*
Y53915D01*
X55443Y54497D01*
X55370Y54571D01*
X55653Y54995D01*
X56085Y54816D01*
X56715D01*
X57297Y55057D01*
X57743Y55503D01*
X57984Y56085D01*
Y56354D01*
X57985Y56715D01*
X58446Y56816D01*
X58615D01*
X59197Y57057D01*
X59643Y57503D01*
X59884Y58085D01*
Y58715D01*
X59643Y59297D01*
X59197Y59743D01*
X58615Y59984D01*
D02*
G37*
G36*
X64715Y64784D02*
X64085D01*
X63503Y64543D01*
X63057Y64097D01*
X62816Y63515D01*
Y62885D01*
X63057Y62303D01*
X63233Y62127D01*
X63463Y61800D01*
X63233Y61473D01*
X63057Y61297D01*
X62816Y60715D01*
Y60085D01*
X63057Y59503D01*
X63503Y59057D01*
X64085Y58816D01*
X64715D01*
X64925Y58902D01*
X65297Y58516D01*
X65131Y58115D01*
Y57485D01*
X65373Y56903D01*
X65491Y56784D01*
X65803Y56443D01*
X65357Y55997D01*
X65116Y55415D01*
Y54785D01*
X65357Y54203D01*
X65803Y53757D01*
X66385Y53516D01*
X67015D01*
X67597Y53757D01*
X68043Y54203D01*
X68284Y54785D01*
Y55415D01*
X68043Y55997D01*
X67925Y56116D01*
X67613Y56457D01*
X68059Y56903D01*
X68300Y57485D01*
Y58115D01*
X68059Y58697D01*
X67613Y59143D01*
X67031Y59384D01*
X66401D01*
X66191Y59298D01*
X65818Y59684D01*
X65984Y60085D01*
Y60715D01*
X65743Y61297D01*
X65567Y61473D01*
X65338Y61800D01*
X65567Y62127D01*
X65743Y62303D01*
X65984Y62885D01*
Y63515D01*
X65743Y64097D01*
X65297Y64543D01*
X64715Y64784D01*
D02*
G37*
G36*
X58415Y54584D02*
X57785D01*
X57203Y54343D01*
X56757Y53897D01*
X56516Y53315D01*
Y52685D01*
X56757Y52103D01*
X57109Y51750D01*
X56757Y51397D01*
X56516Y50815D01*
Y50185D01*
X56757Y49603D01*
X56883Y49477D01*
X57196Y49150D01*
X56883Y48823D01*
X56757Y48697D01*
X56516Y48115D01*
Y47485D01*
X56757Y46903D01*
X57083Y46577D01*
X57187Y46371D01*
X57113Y45953D01*
X56857Y45697D01*
X56616Y45115D01*
Y44485D01*
X56857Y43903D01*
X57160Y43600D01*
X56757Y43197D01*
X56516Y42615D01*
Y41985D01*
X56599Y41784D01*
X56586Y41312D01*
X56347Y41186D01*
X56003Y41043D01*
X55557Y40597D01*
X55316Y40015D01*
Y39385D01*
X55557Y38803D01*
X56003Y38357D01*
X56585Y38116D01*
X57215D01*
X57797Y38357D01*
X58243Y38803D01*
X58484Y39385D01*
Y40015D01*
X58401Y40216D01*
X58414Y40688D01*
X58653Y40814D01*
X58997Y40957D01*
X59443Y41403D01*
X59684Y41985D01*
Y42615D01*
X59443Y43197D01*
X59140Y43500D01*
X59543Y43903D01*
X59784Y44485D01*
Y45115D01*
X59543Y45697D01*
X59217Y46023D01*
X59113Y46229D01*
X59187Y46647D01*
X59443Y46903D01*
X59684Y47485D01*
Y48115D01*
X59443Y48697D01*
X59317Y48823D01*
X59004Y49150D01*
X59317Y49477D01*
X59443Y49603D01*
X59684Y50185D01*
Y50815D01*
X59443Y51397D01*
X59091Y51750D01*
X59443Y52103D01*
X59684Y52685D01*
Y53315D01*
X59443Y53897D01*
X58997Y54343D01*
X58415Y54584D01*
D02*
G37*
G36*
X58615Y34384D02*
X57985D01*
X57403Y34143D01*
X57000Y33740D01*
X56597Y34143D01*
X56015Y34384D01*
X55385D01*
X54803Y34143D01*
X54357Y33697D01*
X54116Y33115D01*
Y32485D01*
X54357Y31903D01*
X54803Y31457D01*
X55385Y31216D01*
X56015D01*
X56597Y31457D01*
X57000Y31859D01*
X57403Y31457D01*
X57682Y31341D01*
Y30800D01*
X57303Y30643D01*
X56857Y30197D01*
X56616Y29615D01*
Y28985D01*
X56857Y28403D01*
X57303Y27957D01*
X57885Y27716D01*
X58515D01*
X59097Y27957D01*
X59543Y28403D01*
X59784Y28985D01*
Y29615D01*
X59543Y30197D01*
X59097Y30643D01*
X58818Y30759D01*
Y31300D01*
X59197Y31457D01*
X59643Y31903D01*
X59884Y32485D01*
Y33115D01*
X59643Y33697D01*
X59197Y34143D01*
X58615Y34384D01*
D02*
G37*
G36*
X73131Y33784D02*
X72501D01*
X71918Y33543D01*
X71473Y33097D01*
X71232Y32515D01*
Y31885D01*
X71473Y31303D01*
X71918Y30857D01*
X72501Y30616D01*
X73131D01*
X73713Y30857D01*
X74159Y31303D01*
X74400Y31885D01*
Y32515D01*
X74159Y33097D01*
X73713Y33543D01*
X73131Y33784D01*
D02*
G37*
G36*
X100589Y20237D02*
X99211D01*
X98785Y20152D01*
X98424Y19911D01*
X98182Y19550D01*
X98097Y19124D01*
Y18139D01*
X98182Y17713D01*
X98424Y17352D01*
X98785Y17111D01*
X98884Y17091D01*
Y12777D01*
X98803Y12743D01*
X98357Y12297D01*
X98116Y11715D01*
Y11085D01*
X98357Y10503D01*
X98803Y10057D01*
X99385Y9816D01*
X100015D01*
X100597Y10057D01*
X101043Y10503D01*
X101284Y11085D01*
Y11715D01*
X101043Y12297D01*
X100597Y12743D01*
X100516Y12777D01*
Y17026D01*
X100589D01*
X101015Y17111D01*
X101376Y17352D01*
X101618Y17713D01*
X101702Y18139D01*
Y19124D01*
X101618Y19550D01*
X101376Y19911D01*
X101015Y20152D01*
X100589Y20237D01*
D02*
G37*
G36*
X110300Y14683D02*
X108957Y14551D01*
X107666Y14159D01*
X106476Y13523D01*
X105433Y12667D01*
X104577Y11624D01*
X103941Y10434D01*
X103549Y9143D01*
X103417Y7800D01*
X103549Y6457D01*
X103941Y5166D01*
X104577Y3976D01*
X105433Y2933D01*
X106476Y2077D01*
X107666Y1441D01*
X108957Y1049D01*
X110300Y917D01*
X111643Y1049D01*
X112934Y1441D01*
X114124Y2077D01*
X115167Y2933D01*
X116023Y3976D01*
X116659Y5166D01*
X117051Y6457D01*
X117183Y7800D01*
X117051Y9143D01*
X116659Y10434D01*
X116023Y11624D01*
X115167Y12667D01*
X114124Y13523D01*
X112934Y14159D01*
X111643Y14551D01*
X110300Y14683D01*
D02*
G37*
G36*
X7800D02*
X6457Y14551D01*
X5166Y14159D01*
X3976Y13523D01*
X2933Y12667D01*
X2077Y11624D01*
X1441Y10434D01*
X1049Y9143D01*
X917Y7800D01*
X1049Y6457D01*
X1441Y5166D01*
X2077Y3976D01*
X2933Y2933D01*
X3976Y2077D01*
X5166Y1441D01*
X6457Y1049D01*
X7800Y917D01*
X9143Y1049D01*
X10434Y1441D01*
X11624Y2077D01*
X12667Y2933D01*
X13523Y3976D01*
X14159Y5166D01*
X14551Y6457D01*
X14683Y7800D01*
X14551Y9143D01*
X14159Y10434D01*
X13523Y11624D01*
X12667Y12667D01*
X11624Y13523D01*
X10434Y14159D01*
X9143Y14551D01*
X7800Y14683D01*
D02*
G37*
%LPD*%
G36*
X99981Y17659D02*
X99964Y17650D01*
X99949Y17636D01*
X99936Y17615D01*
X99925Y17589D01*
X99916Y17557D01*
X99909Y17519D01*
X99904Y17475D01*
X99901Y17425D01*
X99900Y17370D01*
X99500D01*
X99499Y17425D01*
X99491Y17519D01*
X99484Y17557D01*
X99475Y17589D01*
X99464Y17615D01*
X99451Y17636D01*
X99436Y17650D01*
X99419Y17659D01*
X99400Y17662D01*
X100000D01*
X99981Y17659D01*
D02*
G37*
G36*
X99904Y12542D02*
X99916Y12520D01*
X99935Y12493D01*
X99963Y12462D01*
X99998Y12427D01*
X100091Y12344D01*
X100291Y12187D01*
X99110D01*
X99184Y12244D01*
X99437Y12462D01*
X99465Y12493D01*
X99484Y12520D01*
X99496Y12542D01*
X99500Y12561D01*
X99900D01*
X99904Y12542D01*
D02*
G37*
%LPC*%
G36*
X87715Y50784D02*
X87085D01*
X86503Y50543D01*
X86057Y50097D01*
X85816Y49515D01*
Y48885D01*
X86057Y48303D01*
X86503Y47857D01*
X87085Y47616D01*
X87715D01*
X88297Y47857D01*
X88743Y48303D01*
X88984Y48885D01*
Y49515D01*
X88743Y50097D01*
X88297Y50543D01*
X87715Y50784D01*
D02*
G37*
G36*
X83815Y39884D02*
X83185D01*
X82603Y39643D01*
X82157Y39197D01*
X81916Y38615D01*
Y37985D01*
X82157Y37403D01*
X82603Y36957D01*
X83185Y36716D01*
X83815D01*
X84397Y36957D01*
X84843Y37403D01*
X85084Y37985D01*
Y38615D01*
X84843Y39197D01*
X84397Y39643D01*
X83815Y39884D01*
D02*
G37*
G36*
X15269Y35049D02*
X14931D01*
X14618Y34920D01*
X14379Y34681D01*
X14250Y34368D01*
Y34030D01*
X14379Y33718D01*
X14618Y33479D01*
X14931Y33349D01*
X15269D01*
X15582Y33479D01*
X15821Y33718D01*
X15950Y34030D01*
Y34368D01*
X15821Y34681D01*
X15582Y34920D01*
X15269Y35049D01*
D02*
G37*
%LPD*%
D10*
X22600Y21700D02*
X24100Y20200D01*
X13740Y21700D02*
X22600D01*
X12640Y20600D02*
X13740Y21700D01*
X12600Y20600D02*
X12640D01*
X40279Y37495D02*
X42494D01*
X43800Y38800D01*
X46028D01*
X40279Y45368D02*
X43868D01*
D15*
X13900Y70900D02*
G03*
X13900Y70900I-6000J0D01*
G01*
X116200D02*
G03*
X116200Y70900I-6000J0D01*
G01*
X116300Y7800D02*
G03*
X116300Y7800I-6000J0D01*
G01*
X13800D02*
G03*
X13800Y7800I-6000J0D01*
G01*
X31100Y30799D02*
Y31624D01*
X30372Y30072D02*
X31100Y30799D01*
X27700Y30072D02*
X30372D01*
X31100Y31624D02*
Y33200D01*
X32405Y34506D02*
Y35526D01*
X31100Y33200D02*
X32405Y34506D01*
X37200Y60600D02*
X38000Y61400D01*
Y64157D01*
X35826Y60600D02*
X37200D01*
X34374Y59148D02*
X35826Y60600D01*
X20600Y32072D02*
Y33200D01*
X18600Y30072D02*
X20600Y32072D01*
X20100Y33700D02*
X20600Y33200D01*
X20100Y33700D02*
Y35000D01*
X20595Y35495D02*
Y35526D01*
X20100Y35000D02*
X20595Y35495D01*
X14394Y37495D02*
X16657D01*
X14000Y37100D02*
X14394Y37495D01*
X11272Y37100D02*
X14000D01*
X38311Y45368D02*
X40279D01*
X23300Y30172D02*
Y31700D01*
X25800Y34200D01*
X23200Y30072D02*
X23300Y30172D01*
X38311Y43400D02*
X40279Y45368D01*
X42100Y59000D02*
Y64157D01*
X40279Y57179D02*
X42100Y59000D01*
D18*
X83000Y26128D02*
D03*
Y29672D02*
D03*
X88000Y10828D02*
D03*
Y14372D02*
D03*
X99000Y49872D02*
D03*
Y46328D02*
D03*
X94200Y54628D02*
D03*
Y58172D02*
D03*
X89000Y53928D02*
D03*
Y57472D02*
D03*
X23200Y26528D02*
D03*
Y30072D02*
D03*
X27700Y26528D02*
D03*
Y30072D02*
D03*
X18600Y26528D02*
D03*
Y30072D02*
D03*
X42100Y67700D02*
D03*
Y64157D02*
D03*
X42100Y27428D02*
D03*
Y30972D02*
D03*
X38000Y64157D02*
D03*
Y67700D02*
D03*
X25700Y7872D02*
D03*
Y4328D02*
D03*
X33900Y64157D02*
D03*
Y67700D02*
D03*
X36100Y16372D02*
D03*
Y12828D02*
D03*
X94300Y46328D02*
D03*
Y49872D02*
D03*
X90700Y22372D02*
D03*
Y18828D02*
D03*
X88000Y6772D02*
D03*
Y3228D02*
D03*
D20*
X88500Y38450D02*
D03*
Y32150D02*
D03*
X104600Y51282D02*
D03*
Y57581D02*
D03*
D21*
X75653Y11500D02*
D03*
D22*
X78607Y17200D02*
D03*
X76638D02*
D03*
X74669D02*
D03*
X72700D02*
D03*
Y5800D02*
D03*
X74669D02*
D03*
X76638D02*
D03*
X78607D02*
D03*
D23*
X69954Y14454D02*
D03*
Y12484D02*
D03*
Y10515D02*
D03*
Y8546D02*
D03*
X81353D02*
D03*
Y10515D02*
D03*
Y12484D02*
D03*
Y14454D02*
D03*
D29*
X99900Y22569D02*
D03*
Y18632D02*
D03*
X99000Y58368D02*
D03*
Y54431D02*
D03*
X9800Y26232D02*
D03*
Y30169D02*
D03*
X95000Y18632D02*
D03*
Y22569D02*
D03*
X23500Y14968D02*
D03*
Y11032D02*
D03*
X19400Y14968D02*
D03*
Y11032D02*
D03*
X31900Y12731D02*
D03*
Y16669D02*
D03*
X27800Y12731D02*
D03*
Y16669D02*
D03*
X33300Y27231D02*
D03*
Y31168D02*
D03*
X37800Y27231D02*
D03*
Y31168D02*
D03*
D30*
X86572Y18700D02*
D03*
X83028D02*
D03*
X49572Y34900D02*
D03*
X46028D02*
D03*
X49572Y38800D02*
D03*
X46028D02*
D03*
X45928Y52400D02*
D03*
X49472D02*
D03*
X7828Y49300D02*
D03*
X11372D02*
D03*
X8028Y57500D02*
D03*
X11572D02*
D03*
X49572Y44300D02*
D03*
X46028D02*
D03*
X8028Y61300D02*
D03*
X11572D02*
D03*
X46028Y31300D02*
D03*
X49572D02*
D03*
X7728Y37100D02*
D03*
X11272D02*
D03*
X83028Y22600D02*
D03*
X86572D02*
D03*
D35*
X47131Y8100D02*
D03*
X51069D02*
D03*
X11468Y40800D02*
D03*
X7531D02*
D03*
X57032Y5700D02*
D03*
X60969D02*
D03*
X57032Y2500D02*
D03*
X60969D02*
D03*
X47131Y11900D02*
D03*
X51069D02*
D03*
D58*
X38321Y41431D02*
X39290Y42400D01*
X38311Y41431D02*
X38321D01*
X39290Y42400D02*
X39300D01*
X40442Y47337D02*
X41064Y46715D01*
X41285D01*
X41400Y46600D01*
X40279Y47337D02*
X40442D01*
X28499Y37495D02*
X29483Y36510D01*
X28468Y37495D02*
X28499D01*
X29483Y36510D02*
X29513D01*
X41674Y41474D02*
X41717Y41517D01*
X40279Y41431D02*
X40322Y41474D01*
X41674D01*
X40279Y43400D02*
X41800D01*
X20595Y37495D02*
Y37495D01*
X19600Y36500D02*
X20595Y37495D01*
X15526Y40300D02*
X16657Y41431D01*
X14800Y40300D02*
X15526D01*
X29500Y33200D02*
Y34495D01*
X28468Y35526D02*
X29500Y34495D01*
X26500Y35524D02*
Y35526D01*
Y35524D02*
X27395Y34628D01*
Y34626D02*
Y34628D01*
X33900Y60642D02*
Y64157D01*
X32405Y59148D02*
X33900Y60642D01*
X24532Y55211D02*
X25471Y54271D01*
X38311Y55211D02*
X39250Y56150D01*
X99900Y22569D02*
X109268D01*
X112500Y25800D01*
Y33600D01*
X15200Y52400D02*
X15461D01*
X16587Y51274D02*
X16657D01*
X15461Y52400D02*
X16587Y51274D01*
X21600Y38500D02*
X22563Y39463D01*
X18626Y37495D02*
X19610Y38479D01*
X18626Y45368D02*
X19610Y44384D01*
Y44384D02*
X20595Y45368D01*
X21568Y42427D02*
X22563Y41431D01*
X24532Y51274D02*
X25505Y50301D01*
X21568Y36500D02*
X22563Y37495D01*
X21600Y34481D02*
X22563Y35445D01*
Y35526D01*
X21600Y34400D02*
Y34481D01*
X18232Y32668D02*
X19339D01*
X16657Y34242D02*
X18232Y32668D01*
X6600Y39700D02*
X7531Y40631D01*
Y40800D01*
X5200Y39700D02*
X6600D01*
X62772Y3700D02*
X71683D01*
X72700Y4717D01*
Y5800D01*
X74669Y4717D02*
Y5800D01*
X72452Y2500D02*
X74669Y4717D01*
X60969Y2500D02*
X72452D01*
X60969Y5503D02*
X62772Y3700D01*
X54547Y4984D02*
X56231Y3301D01*
X57032Y2500D02*
Y2539D01*
X56270Y3301D02*
X57032Y2539D01*
X56231Y3301D02*
X56270D01*
X44916Y4984D02*
X54547D01*
X22000Y900D02*
X44600D01*
X47000Y3300D01*
X19400Y3500D02*
X22000Y900D01*
X23500Y3200D02*
X24884Y1816D01*
X40816D02*
X42000Y3000D01*
X24884Y1816D02*
X40816D01*
X16657Y34242D02*
Y35526D01*
X37700Y31269D02*
Y32600D01*
Y31269D02*
X37800Y31168D01*
X37415Y32885D02*
X37700Y32600D01*
X36500Y33000D02*
X36615Y32885D01*
X37415D01*
X26500Y59148D02*
X29052Y61700D01*
X32800D01*
X16563Y45368D02*
X18626D01*
X14800Y43700D02*
X14895D01*
X16563Y45368D01*
X14984Y58853D02*
X16657Y57179D01*
X14019Y58853D02*
X14984D01*
X13904Y58968D02*
X14019Y58853D01*
X11572Y61300D02*
X13904Y58968D01*
X11572Y57500D02*
Y61300D01*
X13085Y57315D02*
X13785D01*
X13900Y57200D01*
X12900Y57500D02*
X13085Y57315D01*
X11572Y57500D02*
X12900D01*
X11572Y57500D02*
X11572Y57500D01*
X19200Y17100D02*
X19400Y16900D01*
Y14968D02*
Y16900D01*
X19200Y17100D02*
Y18248D01*
X19234Y18283D01*
X9700Y21900D02*
Y26131D01*
X9800Y26232D01*
X102800Y60600D02*
Y61500D01*
X100568Y58368D02*
X102800Y60600D01*
X99000Y58368D02*
X100568D01*
X77100Y19800D02*
X80228D01*
X83028Y22600D01*
X76638Y19338D02*
X77100Y19800D01*
X76638Y17200D02*
Y19338D01*
X78607Y17200D02*
X81528D01*
X83028Y18700D01*
X81353Y14454D02*
X84453D01*
X86572Y16572D01*
Y18700D01*
X26500Y57179D02*
X27400Y56279D01*
X99700Y18431D02*
X99900Y18632D01*
X99700Y11400D02*
Y18431D01*
X95000Y5400D02*
Y18632D01*
X91200Y1600D02*
X95000Y5400D01*
X78607Y3093D02*
X79100Y2600D01*
X78607Y3093D02*
Y5800D01*
X76100Y2600D02*
X76638Y3138D01*
Y5800D01*
X60969Y5503D02*
Y5700D01*
X38311Y37495D02*
X40279D01*
X19400Y3500D02*
Y11032D01*
X23500Y3200D02*
Y11032D01*
X33000Y6100D02*
X43800D01*
X27800Y11300D02*
Y12731D01*
Y11300D02*
X33000Y6100D01*
X36000Y7100D02*
X44450D01*
X31900Y11200D02*
Y12731D01*
Y11200D02*
X36000Y7100D01*
X23500Y14968D02*
Y16600D01*
X21700Y18400D02*
X23500Y16600D01*
X39600Y20600D02*
Y25700D01*
X42800Y13000D02*
Y17400D01*
X39600Y20600D02*
X42800Y17400D01*
X34900Y23718D02*
X40768Y17850D01*
X34900Y23718D02*
Y25800D01*
X40768Y11632D02*
Y17850D01*
X27100Y19300D02*
Y19500D01*
Y19300D02*
X27800Y18600D01*
X4572Y42500D02*
X11372Y49300D01*
X2200Y42500D02*
X4572D01*
X23600Y40394D02*
X24532Y39463D01*
X37356Y44385D02*
X37386D01*
X36342Y45368D02*
X36373D01*
X37356Y44385D01*
X37374Y46400D02*
X38311Y47337D01*
X36342Y49305D02*
X37300Y50263D01*
X32405Y41431D02*
X33400Y42426D01*
X33423Y44364D02*
Y44377D01*
X34374Y43400D02*
Y43413D01*
X33423Y44364D02*
X34374Y43413D01*
X33300Y48348D02*
Y48380D01*
X32405Y49274D02*
X33300Y48380D01*
X27395Y36595D02*
Y36597D01*
X26500Y37492D02*
X27395Y36597D01*
X26500Y37492D02*
Y37495D01*
X25800Y60458D02*
Y60500D01*
X24532Y59190D02*
X25800Y60458D01*
X24532Y37495D02*
X25516Y38479D01*
X41000Y33400D02*
X42100Y32300D01*
X42100Y30972D02*
X42100Y30972D01*
Y32300D01*
X41437Y39463D02*
X41800Y39100D01*
X40279Y39463D02*
X41437D01*
X40279Y45368D02*
X40279Y45368D01*
X32405Y57179D02*
X33285Y56300D01*
X31500Y56116D02*
X32405Y55211D01*
X36342D02*
X37300Y54254D01*
X18626Y45368D02*
Y45368D01*
X19610Y44384D02*
Y44384D01*
X18626Y49305D02*
Y49336D01*
X19528Y50238D02*
Y50269D01*
X18626Y49336D02*
X19528Y50238D01*
X11377Y49305D02*
X16657D01*
X11372Y49300D02*
X11377Y49305D01*
X37327Y40447D02*
X38311Y39463D01*
X18626Y43400D02*
X19626Y42400D01*
X32405Y37495D02*
X33300Y36600D01*
X36342Y37495D02*
X37350Y36487D01*
X36100Y16372D02*
Y19900D01*
X34300Y21700D02*
X36100Y19900D01*
X30800Y19400D02*
X31900Y18300D01*
Y16669D02*
Y18300D01*
X29700Y19400D02*
X30800D01*
X27800Y16669D02*
X27800Y16669D01*
Y18600D01*
X31400Y54248D02*
X32405Y53242D01*
X27424Y58164D02*
X27454D01*
X28438Y57179D02*
X28468D01*
X27454Y58164D02*
X28438Y57179D01*
X30452Y59148D02*
X31400Y58200D01*
X30437Y59148D02*
X30452D01*
X31451Y50290D02*
X31482D01*
X30467Y49305D02*
X31451Y50290D01*
X43800Y6100D02*
X44916Y4984D01*
X44450Y7100D02*
X45650Y5900D01*
X56832D02*
X57032Y5700D01*
X45650Y5900D02*
X56832D01*
X40768Y11632D02*
X44300Y8100D01*
X47131D01*
X42800Y13000D02*
X43900Y11900D01*
X47131D01*
X53146Y8546D02*
X69954D01*
X51069Y8100D02*
X52700D01*
X53146Y8546D01*
X51069Y11703D02*
X53247Y9524D01*
X51069Y11703D02*
Y11900D01*
X53247Y9524D02*
X66624D01*
X17715Y54300D02*
X18626Y55211D01*
X19634Y54250D02*
X20595Y55211D01*
X18626Y57153D02*
Y57179D01*
X17700Y56200D02*
Y56227D01*
X18626Y57153D01*
Y59137D02*
Y59148D01*
X17700Y58211D02*
X18626Y59137D01*
X17700Y58200D02*
Y58211D01*
X19610Y56195D02*
X20595Y57179D01*
X34374Y39463D02*
X35388Y40477D01*
X33371Y38463D02*
Y38480D01*
X32405Y39446D02*
Y39463D01*
Y39446D02*
X33371Y38480D01*
X33360Y50260D02*
X34374Y51274D01*
X32405Y49274D02*
Y49305D01*
X35350Y44396D02*
X36342Y43404D01*
Y43400D02*
Y43404D01*
X35350Y44396D02*
Y44400D01*
X33300Y31168D02*
Y33100D01*
X33500Y33300D01*
X36342Y57149D02*
Y57179D01*
X37327Y56135D02*
Y56165D01*
X36342Y57149D02*
X37327Y56165D01*
X36342Y59148D02*
X37300Y58191D01*
X22621Y57179D02*
X23500Y56300D01*
X22563Y57179D02*
X22621D01*
X26500Y49340D02*
X27350Y50190D01*
Y50225D01*
X26500Y41398D02*
X27361Y40537D01*
X26500Y41398D02*
Y41431D01*
X27361Y40503D02*
Y40537D01*
X19600Y58153D02*
X20595Y59148D01*
X24532Y35526D02*
X25527Y36521D01*
X24549Y45368D02*
X25533Y46353D01*
X25550D01*
X24532Y45368D02*
X24549D01*
X23600Y48374D02*
X24532Y49305D01*
X23540Y44392D02*
X24532Y43400D01*
X33468Y27231D02*
X34900Y25800D01*
X33300Y27231D02*
X33468D01*
X37800D02*
X38069D01*
X39600Y25700D01*
X19600Y52300D02*
X20542Y53242D01*
X20595D01*
X22563Y53237D02*
X23300Y52500D01*
X22563Y53237D02*
Y53242D01*
X18626Y51274D02*
Y51306D01*
X17736Y52196D02*
X18626Y51306D01*
X17736Y52196D02*
Y52227D01*
X34374Y41431D02*
X35300Y42358D01*
X37390Y34510D02*
X37422D01*
X36374Y35526D02*
X37390Y34510D01*
X36342Y35526D02*
X36374D01*
X33224Y52131D02*
Y52169D01*
X32405Y51312D02*
X33224Y52131D01*
X32405Y51274D02*
Y51312D01*
X26500Y49305D02*
Y49340D01*
X30437Y49305D02*
X30467D01*
X22563Y59148D02*
X23400Y58311D01*
X29721Y60400D02*
X31485D01*
X28468Y59148D02*
X29721Y60400D01*
X24532Y41431D02*
X25500Y42400D01*
X24532Y59148D02*
Y59190D01*
X22563Y45368D02*
Y45400D01*
X23462Y46299D01*
Y46330D01*
X86225Y8546D02*
X88000Y6772D01*
X81353Y8546D02*
X86225D01*
X85015Y10515D02*
X85328Y10828D01*
X88000D01*
X81353Y10515D02*
X85015D01*
X86272Y14372D02*
X88000D01*
X84385Y12484D02*
X86272Y14372D01*
X81353Y12484D02*
X84385D01*
X67685D02*
X69954D01*
X62200Y10424D02*
X65624D01*
X67685Y12484D01*
X68013Y14431D02*
X69931D01*
X65298Y11716D02*
X68013Y14431D01*
X62984Y11716D02*
X65298D01*
X61800Y12900D02*
Y18600D01*
X55100Y22900D02*
X60800Y17200D01*
X57900Y22500D02*
X61800Y18600D01*
X55100Y22900D02*
Y22900D01*
X60800Y11824D02*
Y17200D01*
Y11824D02*
X62200Y10424D01*
X66624Y9524D02*
X67615Y10515D01*
X61800Y12900D02*
X62984Y11716D01*
X69931Y14431D02*
X69954Y14454D01*
X67615Y10515D02*
X69954D01*
D61*
X16657Y35526D02*
D03*
X18626D02*
D03*
X20595D02*
D03*
X22563D02*
D03*
X24532D02*
D03*
X26500D02*
D03*
X28468D02*
D03*
X30437D02*
D03*
X32405D02*
D03*
X34374D02*
D03*
X36342D02*
D03*
X38311D02*
D03*
X40279D02*
D03*
X16657Y37495D02*
D03*
X18626D02*
D03*
X20595D02*
D03*
X22563D02*
D03*
X24532D02*
D03*
X26500D02*
D03*
X28468D02*
D03*
X30437D02*
D03*
X32405D02*
D03*
X34374D02*
D03*
X36342D02*
D03*
X38311D02*
D03*
X40279D02*
D03*
X16657Y39463D02*
D03*
X18626D02*
D03*
X20595D02*
D03*
X22563D02*
D03*
X24532D02*
D03*
X26500D02*
D03*
X28468D02*
D03*
X30437D02*
D03*
X32405D02*
D03*
X34374D02*
D03*
X36342D02*
D03*
X38311D02*
D03*
X40279D02*
D03*
X16657Y41431D02*
D03*
X18626D02*
D03*
X20595D02*
D03*
X22563D02*
D03*
X24532D02*
D03*
X26500D02*
D03*
X28468D02*
D03*
X30437D02*
D03*
X32405D02*
D03*
X34374D02*
D03*
X36342D02*
D03*
X38311D02*
D03*
X40279D02*
D03*
X16657Y43400D02*
D03*
X18626D02*
D03*
X20595D02*
D03*
X22563D02*
D03*
X24532D02*
D03*
X26500D02*
D03*
X28468D02*
D03*
X30437D02*
D03*
X32405D02*
D03*
X34374D02*
D03*
X36342D02*
D03*
X38311D02*
D03*
X40279D02*
D03*
X16657Y45368D02*
D03*
X18626D02*
D03*
X20595D02*
D03*
X22563D02*
D03*
X24532D02*
D03*
X26500D02*
D03*
X28468D02*
D03*
X30437D02*
D03*
X32405D02*
D03*
X34374D02*
D03*
X36342D02*
D03*
X38311D02*
D03*
X40279D02*
D03*
X16657Y47337D02*
D03*
X18626D02*
D03*
X20595D02*
D03*
X22563D02*
D03*
X24532D02*
D03*
X26500D02*
D03*
X28468D02*
D03*
X30437D02*
D03*
X32405D02*
D03*
X34374D02*
D03*
X36342D02*
D03*
X38311D02*
D03*
X40279D02*
D03*
X16657Y49305D02*
D03*
X18626D02*
D03*
X20595D02*
D03*
X22563D02*
D03*
X24532D02*
D03*
X26500D02*
D03*
X28468D02*
D03*
X30437D02*
D03*
X32405D02*
D03*
X34374D02*
D03*
X36342D02*
D03*
X38311D02*
D03*
X40279D02*
D03*
X16657Y51274D02*
D03*
X18626D02*
D03*
X20595D02*
D03*
X22563D02*
D03*
X24532D02*
D03*
X26500D02*
D03*
X28468D02*
D03*
X30437D02*
D03*
X32405D02*
D03*
X34374D02*
D03*
X36342D02*
D03*
X38311D02*
D03*
X40279D02*
D03*
X16657Y53242D02*
D03*
X18626D02*
D03*
X20595D02*
D03*
X22563D02*
D03*
X24532D02*
D03*
X26500D02*
D03*
X28468D02*
D03*
X30437D02*
D03*
X32405D02*
D03*
X34374D02*
D03*
X36342D02*
D03*
X38311D02*
D03*
X40279D02*
D03*
X16657Y55211D02*
D03*
X18626D02*
D03*
X20595D02*
D03*
X22563D02*
D03*
X24532D02*
D03*
X26500D02*
D03*
X28468D02*
D03*
X30437D02*
D03*
X32405D02*
D03*
X34374D02*
D03*
X36342D02*
D03*
X38311D02*
D03*
X40279D02*
D03*
X16657Y57179D02*
D03*
X18626D02*
D03*
X20595D02*
D03*
X22563D02*
D03*
X24532D02*
D03*
X26500D02*
D03*
X28468D02*
D03*
X30437D02*
D03*
X32405D02*
D03*
X34374D02*
D03*
X36342D02*
D03*
X38311D02*
D03*
X40279D02*
D03*
X16657Y59148D02*
D03*
X18626D02*
D03*
X20595D02*
D03*
X22563D02*
D03*
X24532D02*
D03*
X26500D02*
D03*
X28468D02*
D03*
X30437D02*
D03*
X32405D02*
D03*
X34374D02*
D03*
X36342D02*
D03*
X38311D02*
D03*
X40279D02*
D03*
X39300Y42400D02*
D03*
X41400Y46600D02*
D03*
X29700Y31600D02*
D03*
X29513Y36510D02*
D03*
X41717Y41517D02*
D03*
X41800Y43400D02*
D03*
X41700Y51200D02*
D03*
X19600Y36500D02*
D03*
X14800Y40300D02*
D03*
X29500Y33200D02*
D03*
X27395Y34626D02*
D03*
X25471Y54271D02*
D03*
X39250Y56150D02*
D03*
X15200Y52400D02*
D03*
X15172Y42000D02*
D03*
X21600Y38500D02*
D03*
X19610Y38479D02*
D03*
Y44384D02*
D03*
X21568Y42427D02*
D03*
X25505Y50301D02*
D03*
X21568Y36500D02*
D03*
X21600Y34400D02*
D03*
X19339Y32668D02*
D03*
X21900Y32100D02*
D03*
X33224Y52169D02*
D03*
X33371Y38463D02*
D03*
X33360Y50260D02*
D03*
X36500Y33000D02*
D03*
X32800Y61700D02*
D03*
X14800Y43700D02*
D03*
X13900Y57200D02*
D03*
X13904Y58968D02*
D03*
X41700Y52900D02*
D03*
X15100Y34199D02*
D03*
X27400Y56279D02*
D03*
X23600Y40394D02*
D03*
X37386Y44385D02*
D03*
X37374Y46400D02*
D03*
X37300Y50263D02*
D03*
X33393Y58107D02*
D03*
X33400Y42426D02*
D03*
X33423Y44377D02*
D03*
X33300Y48348D02*
D03*
X27395Y36595D02*
D03*
X25800Y60500D02*
D03*
X31485Y60400D02*
D03*
X25516Y38479D02*
D03*
X41000Y33400D02*
D03*
X41800Y39100D02*
D03*
X25800Y34200D02*
D03*
X33285Y56300D02*
D03*
X31500Y56116D02*
D03*
X37300Y54254D02*
D03*
X39300Y50300D02*
D03*
X19528Y50269D02*
D03*
X37327Y40447D02*
D03*
X19626Y42400D02*
D03*
X33300Y36600D02*
D03*
X37350Y36487D02*
D03*
X31400Y54248D02*
D03*
X27424Y58164D02*
D03*
X31400Y58200D02*
D03*
X31482Y50290D02*
D03*
X17715Y54300D02*
D03*
X19634Y54250D02*
D03*
X17700Y56200D02*
D03*
Y58200D02*
D03*
X19610Y56195D02*
D03*
X35388Y40477D02*
D03*
X35350Y44400D02*
D03*
X33500Y33300D02*
D03*
X37327Y56135D02*
D03*
X37300Y58191D02*
D03*
X23500Y56300D02*
D03*
X27350Y50225D02*
D03*
X27361Y40503D02*
D03*
X19600Y58153D02*
D03*
X25527Y36521D02*
D03*
X25550Y46353D02*
D03*
X23600Y48374D02*
D03*
X23540Y44392D02*
D03*
X17642Y42355D02*
D03*
X19600Y52300D02*
D03*
X23300Y52500D02*
D03*
X17736Y52227D02*
D03*
X35300Y42358D02*
D03*
X37422Y34510D02*
D03*
X23400Y58311D02*
D03*
X25500Y42400D02*
D03*
X23462Y46330D02*
D03*
D62*
X73100Y49200D02*
D03*
X47400Y41500D02*
D03*
X66700Y55100D02*
D03*
X53800Y12832D02*
D03*
X54100Y63200D02*
D03*
X109100Y25500D02*
D03*
X64300Y31100D02*
D03*
Y28500D02*
D03*
X77400Y31100D02*
D03*
Y28600D02*
D03*
X74500Y27700D02*
D03*
X89300Y77300D02*
D03*
X46200Y74400D02*
D03*
X104100Y47700D02*
D03*
X41300Y74400D02*
D03*
X46200Y76900D02*
D03*
X43800Y74400D02*
D03*
X101600Y74800D02*
D03*
Y77200D02*
D03*
Y72300D02*
D03*
X92000Y77300D02*
D03*
X47405Y28689D02*
D03*
X47400Y21100D02*
D03*
X64400Y63200D02*
D03*
X55700Y32800D02*
D03*
X55100Y22900D02*
D03*
X53800Y15400D02*
D03*
X64400Y60400D02*
D03*
X53900Y18000D02*
D03*
X57900Y22500D02*
D03*
X58300Y58400D02*
D03*
X47400Y26100D02*
D03*
X58300Y16400D02*
D03*
X58100Y47800D02*
D03*
X58300Y32800D02*
D03*
X58200Y44800D02*
D03*
X56400Y56400D02*
D03*
X64400Y37000D02*
D03*
X58100Y53000D02*
D03*
Y50500D02*
D03*
X58200Y29300D02*
D03*
X56900Y39700D02*
D03*
X47400Y23569D02*
D03*
X64400Y34500D02*
D03*
X58100Y42300D02*
D03*
X54300Y20500D02*
D03*
X47700Y49800D02*
D03*
Y47100D02*
D03*
X47400Y55100D02*
D03*
X54100Y53600D02*
D03*
X36700Y3500D02*
D03*
X34132D02*
D03*
X39331D02*
D03*
X31431D02*
D03*
X28400Y3700D02*
D03*
X42000Y3000D02*
D03*
X116300Y34400D02*
D03*
X111200D02*
D03*
X113800D02*
D03*
X108600D02*
D03*
X111100Y46000D02*
D03*
X108600Y48500D02*
D03*
X113600D02*
D03*
X116200Y43500D02*
D03*
Y46000D02*
D03*
X113600D02*
D03*
Y43500D02*
D03*
X116100Y48500D02*
D03*
X111100D02*
D03*
X108600Y46000D02*
D03*
Y43500D02*
D03*
X111100D02*
D03*
X113700Y39500D02*
D03*
X108600Y37000D02*
D03*
X108500Y39600D02*
D03*
X113800Y37000D02*
D03*
X111200D02*
D03*
X111100Y39600D02*
D03*
X116200D02*
D03*
X116300Y37000D02*
D03*
X83200Y1500D02*
D03*
X85700Y1600D02*
D03*
X88200D02*
D03*
X102400D02*
D03*
X99800D02*
D03*
X97200D02*
D03*
X94600D02*
D03*
X113700Y16000D02*
D03*
X111300Y16600D02*
D03*
X108800Y16500D02*
D03*
X106400Y15700D02*
D03*
X104300Y14300D02*
D03*
X102600Y12400D02*
D03*
X45400Y60000D02*
D03*
X95700Y42900D02*
D03*
X98300Y43000D02*
D03*
X100600Y44200D02*
D03*
X102300Y46000D02*
D03*
X45600Y19100D02*
D03*
X47500Y14900D02*
D03*
Y17400D02*
D03*
X17300Y23500D02*
D03*
X19234Y18283D02*
D03*
X12600Y23100D02*
D03*
X3600Y16800D02*
D03*
X9700Y21900D02*
D03*
X99100Y65700D02*
D03*
X91500D02*
D03*
X94000D02*
D03*
X96500D02*
D03*
X92800Y63500D02*
D03*
X95300D02*
D03*
X115700Y58000D02*
D03*
X113300D02*
D03*
X111000D02*
D03*
X108600D02*
D03*
Y60400D02*
D03*
X111000D02*
D03*
X113300D02*
D03*
X115600D02*
D03*
X104000Y77200D02*
D03*
X17000Y3600D02*
D03*
X18600Y1300D02*
D03*
X16300D02*
D03*
X14000D02*
D03*
X1400Y15600D02*
D03*
Y18000D02*
D03*
Y20300D02*
D03*
X73800Y56300D02*
D03*
X73700Y58700D02*
D03*
X75800Y53000D02*
D03*
X16900Y74700D02*
D03*
X19300Y77100D02*
D03*
X1600Y62000D02*
D03*
X3800Y63100D02*
D03*
X1600Y64300D02*
D03*
X54600Y42100D02*
D03*
Y44600D02*
D03*
Y47100D02*
D03*
Y49600D02*
D03*
X84600Y40800D02*
D03*
Y43200D02*
D03*
Y45700D02*
D03*
Y48100D02*
D03*
Y50600D02*
D03*
X102800Y61500D02*
D03*
X87400Y49200D02*
D03*
X86600Y28100D02*
D03*
Y25300D02*
D03*
X88800Y26200D02*
D03*
X90500Y28000D02*
D03*
X100800Y27200D02*
D03*
X102400Y25300D02*
D03*
X104100Y27200D02*
D03*
X105700Y25300D02*
D03*
X107300Y27100D02*
D03*
X36500Y10600D02*
D03*
X43800Y76900D02*
D03*
X41300D02*
D03*
X99700Y11400D02*
D03*
X91200Y1600D02*
D03*
X73600Y11000D02*
D03*
Y13500D02*
D03*
X79100Y2600D02*
D03*
X76100D02*
D03*
X29700Y6100D02*
D03*
X97800Y63500D02*
D03*
X35400Y29200D02*
D03*
X21700Y18400D02*
D03*
X41300Y21600D02*
D03*
X25400Y27300D02*
D03*
X27100Y19500D02*
D03*
X24100Y20200D02*
D03*
X12600Y18200D02*
D03*
Y20600D02*
D03*
X5300Y30300D02*
D03*
Y33400D02*
D03*
X2200Y42500D02*
D03*
X4572D02*
D03*
X17200Y64200D02*
D03*
X14600D02*
D03*
X5200Y39700D02*
D03*
X29700Y19400D02*
D03*
X34300Y21700D02*
D03*
X36800Y24200D02*
D03*
X47000Y3300D02*
D03*
X33200Y24500D02*
D03*
X41300Y24200D02*
D03*
X44684Y16600D02*
D03*
X44500Y13800D02*
D03*
X66800Y43100D02*
D03*
X66700Y45700D02*
D03*
X75600Y38600D02*
D03*
X73100Y38100D02*
D03*
X72816Y32200D02*
D03*
X67000Y33500D02*
D03*
X72800Y21900D02*
D03*
X83500Y38300D02*
D03*
X77300Y44800D02*
D03*
Y42200D02*
D03*
X73100Y51800D02*
D03*
X77200Y47700D02*
D03*
X77000Y50500D02*
D03*
X66716Y57800D02*
D03*
X83600Y63600D02*
D03*
X77393Y58666D02*
D03*
X77500Y56200D02*
D03*
X84200Y61100D02*
D03*
X66800Y37900D02*
D03*
Y40400D02*
D03*
X77500Y34468D02*
D03*
Y36937D02*
D03*
X77400Y26131D02*
D03*
X83400Y32700D02*
D03*
X77400Y22900D02*
D03*
X64600Y15879D02*
D03*
Y13400D02*
D03*
X67000Y23984D02*
D03*
X66600Y20616D02*
D03*
Y18147D02*
D03*
X72800Y25900D02*
D03*
X66800Y27600D02*
D03*
D63*
X25700Y4328D02*
X27441D01*
X28069Y3700D01*
X28400D01*
X80300Y22300D02*
Y49500D01*
X87608Y56808D01*
X88336D02*
X89000Y57472D01*
X87608Y56808D02*
X88336D01*
X74669Y19769D02*
X75800Y20900D01*
X78900D02*
X80300Y22300D01*
X75800Y20900D02*
X78900D01*
X74669Y17200D02*
Y19769D01*
X27928Y7872D02*
X29700Y6100D01*
X25700Y7872D02*
X27928D01*
M02*
