G04*
G04 #@! TF.GenerationSoftware,Altium Limited,Altium Designer,21.3.2 (30)*
G04*
G04 Layer_Color=16711935*
%FSLAX25Y25*%
%MOIN*%
G70*
G04*
G04 #@! TF.SameCoordinates,20047665-8901-4395-8F35-5F40874213DC*
G04*
G04*
G04 #@! TF.FilePolarity,Positive*
G04*
G01*
G75*
%ADD11C,0.00787*%
%ADD15C,0.00500*%
%ADD66C,0.00100*%
D11*
X100318Y29949D02*
G03*
X100318Y29949I-394J0D01*
G01*
D15*
X89491Y17350D02*
Y23650D01*
Y17350D02*
X100909D01*
Y23650D01*
X89491D02*
X100909D01*
X87854Y48445D02*
X99665D01*
X87854Y60256D02*
X99665D01*
D66*
X81753Y5400D02*
Y17600D01*
X69554D02*
X81753D01*
X69554Y5400D02*
Y17600D01*
Y5400D02*
X81753D01*
X69554Y13853D02*
Y15054D01*
Y13853D02*
Y15054D01*
Y11885D02*
Y13084D01*
Y11885D02*
Y13084D01*
Y9916D02*
Y11116D01*
Y9916D02*
Y11116D01*
Y7947D02*
Y9146D01*
Y7947D02*
Y9146D01*
X72100Y5400D02*
X73300D01*
X72100D02*
X73300D01*
X74069D02*
X75269D01*
X74069D02*
X75269D01*
X76038D02*
X77238D01*
X76038D02*
X77238D01*
X78007D02*
X79207D01*
X78007D02*
X79207D01*
X81753Y7947D02*
Y9146D01*
Y7947D02*
Y9146D01*
Y9916D02*
Y11116D01*
Y9916D02*
Y11116D01*
Y11885D02*
Y13084D01*
Y11885D02*
Y13084D01*
Y13853D02*
Y15054D01*
Y13853D02*
Y15054D01*
X78007Y17600D02*
X79207D01*
X78007D02*
X79207D01*
X76038D02*
X77238D01*
X76038D02*
X77238D01*
X74069D02*
X75269D01*
X74069D02*
X75269D01*
X72100D02*
X73300D01*
X72100D02*
X73300D01*
X76753D02*
X81753Y12600D01*
X29300Y6600D02*
Y18800D01*
X41500D01*
Y6600D02*
Y18800D01*
X29300Y6600D02*
X41500D01*
Y15054D02*
Y16253D01*
Y15054D02*
Y16253D01*
Y13084D02*
Y14285D01*
Y13084D02*
Y14285D01*
Y11116D02*
Y12315D01*
Y11116D02*
Y12315D01*
Y9146D02*
Y10346D01*
Y9146D02*
Y10346D01*
X37753Y6600D02*
X38954D01*
X37753D02*
X38954D01*
X35785D02*
X36985D01*
X35785D02*
X36985D01*
X33816D02*
X35015D01*
X33816D02*
X35015D01*
X31846D02*
X33046D01*
X31846D02*
X33046D01*
X29300Y9146D02*
Y10346D01*
Y9146D02*
Y10346D01*
Y11116D02*
Y12315D01*
Y11116D02*
Y12315D01*
Y13084D02*
Y14285D01*
Y13084D02*
Y14285D01*
Y15054D02*
Y16253D01*
Y15054D02*
Y16253D01*
X31846Y18800D02*
X33046D01*
X31846D02*
X33046D01*
X33816D02*
X35015D01*
X33816D02*
X35015D01*
X35785D02*
X36985D01*
X35785D02*
X36985D01*
X37753D02*
X38954D01*
X37753D02*
X38954D01*
X29300Y13800D02*
X34300Y18800D01*
X14569Y34421D02*
X15553Y33437D01*
X14569Y61237D02*
X42369D01*
Y33437D02*
Y61237D01*
X14569Y33437D02*
X42369D01*
X14569D02*
Y61237D01*
X7513Y58602D02*
X11687D01*
X7513Y56398D02*
X11687D01*
X7513D02*
Y58602D01*
X11687Y56398D02*
Y58602D01*
M02*
