G04*
G04 #@! TF.GenerationSoftware,Altium Limited,Altium Designer,21.3.2 (30)*
G04*
G04 Layer_Color=8421504*
%FSLAX25Y25*%
%MOIN*%
G70*
G04*
G04 #@! TF.SameCoordinates,20047665-8901-4395-8F35-5F40874213DC*
G04*
G04*
G04 #@! TF.FilePolarity,Positive*
G04*
G01*
G75*
%ADD17C,0.03000*%
G04:AMPARAMS|DCode=18|XSize=23.62mil|YSize=23.62mil|CornerRadius=5.91mil|HoleSize=0mil|Usage=FLASHONLY|Rotation=90.000|XOffset=0mil|YOffset=0mil|HoleType=Round|Shape=RoundedRectangle|*
%AMROUNDEDRECTD18*
21,1,0.02362,0.01181,0,0,90.0*
21,1,0.01181,0.02362,0,0,90.0*
1,1,0.01181,0.00591,0.00591*
1,1,0.01181,0.00591,-0.00591*
1,1,0.01181,-0.00591,-0.00591*
1,1,0.01181,-0.00591,0.00591*
%
%ADD18ROUNDEDRECTD18*%
G04:AMPARAMS|DCode=19|XSize=32.28mil|YSize=31.5mil|CornerRadius=7.87mil|HoleSize=0mil|Usage=FLASHONLY|Rotation=180.000|XOffset=0mil|YOffset=0mil|HoleType=Round|Shape=RoundedRectangle|*
%AMROUNDEDRECTD19*
21,1,0.03228,0.01575,0,0,180.0*
21,1,0.01654,0.03150,0,0,180.0*
1,1,0.01575,-0.00827,0.00787*
1,1,0.01575,0.00827,0.00787*
1,1,0.01575,0.00827,-0.00787*
1,1,0.01575,-0.00827,-0.00787*
%
%ADD19ROUNDEDRECTD19*%
G04:AMPARAMS|DCode=20|XSize=35.43mil|YSize=39.37mil|CornerRadius=8.86mil|HoleSize=0mil|Usage=FLASHONLY|Rotation=270.000|XOffset=0mil|YOffset=0mil|HoleType=Round|Shape=RoundedRectangle|*
%AMROUNDEDRECTD20*
21,1,0.03543,0.02165,0,0,270.0*
21,1,0.01772,0.03937,0,0,270.0*
1,1,0.01772,-0.01083,-0.00886*
1,1,0.01772,-0.01083,0.00886*
1,1,0.01772,0.01083,0.00886*
1,1,0.01772,0.01083,-0.00886*
%
%ADD20ROUNDEDRECTD20*%
%ADD21R,0.06614X0.06614*%
G04:AMPARAMS|DCode=22|XSize=9.84mil|YSize=31.5mil|CornerRadius=2.46mil|HoleSize=0mil|Usage=FLASHONLY|Rotation=180.000|XOffset=0mil|YOffset=0mil|HoleType=Round|Shape=RoundedRectangle|*
%AMROUNDEDRECTD22*
21,1,0.00984,0.02657,0,0,180.0*
21,1,0.00492,0.03150,0,0,180.0*
1,1,0.00492,-0.00246,0.01329*
1,1,0.00492,0.00246,0.01329*
1,1,0.00492,0.00246,-0.01329*
1,1,0.00492,-0.00246,-0.01329*
%
%ADD22ROUNDEDRECTD22*%
G04:AMPARAMS|DCode=23|XSize=9.84mil|YSize=31.5mil|CornerRadius=2.46mil|HoleSize=0mil|Usage=FLASHONLY|Rotation=270.000|XOffset=0mil|YOffset=0mil|HoleType=Round|Shape=RoundedRectangle|*
%AMROUNDEDRECTD23*
21,1,0.00984,0.02657,0,0,270.0*
21,1,0.00492,0.03150,0,0,270.0*
1,1,0.00492,-0.01329,-0.00246*
1,1,0.00492,-0.01329,0.00246*
1,1,0.00492,0.01329,0.00246*
1,1,0.00492,0.01329,-0.00246*
%
%ADD23ROUNDEDRECTD23*%
G04:AMPARAMS|DCode=24|XSize=49.21mil|YSize=23.23mil|CornerRadius=2.9mil|HoleSize=0mil|Usage=FLASHONLY|Rotation=270.000|XOffset=0mil|YOffset=0mil|HoleType=Round|Shape=RoundedRectangle|*
%AMROUNDEDRECTD24*
21,1,0.04921,0.01742,0,0,270.0*
21,1,0.04341,0.02323,0,0,270.0*
1,1,0.00581,-0.00871,-0.02170*
1,1,0.00581,-0.00871,0.02170*
1,1,0.00581,0.00871,0.02170*
1,1,0.00581,0.00871,-0.02170*
%
%ADD24ROUNDEDRECTD24*%
G04:AMPARAMS|DCode=25|XSize=43.31mil|YSize=59.06mil|CornerRadius=10.83mil|HoleSize=0mil|Usage=FLASHONLY|Rotation=90.000|XOffset=0mil|YOffset=0mil|HoleType=Round|Shape=RoundedRectangle|*
%AMROUNDEDRECTD25*
21,1,0.04331,0.03740,0,0,90.0*
21,1,0.02165,0.05906,0,0,90.0*
1,1,0.02165,0.01870,0.01083*
1,1,0.02165,0.01870,-0.01083*
1,1,0.02165,-0.01870,-0.01083*
1,1,0.02165,-0.01870,0.01083*
%
%ADD25ROUNDEDRECTD25*%
G04:AMPARAMS|DCode=26|XSize=33.07mil|YSize=15.75mil|CornerRadius=3.94mil|HoleSize=0mil|Usage=FLASHONLY|Rotation=270.000|XOffset=0mil|YOffset=0mil|HoleType=Round|Shape=RoundedRectangle|*
%AMROUNDEDRECTD26*
21,1,0.03307,0.00787,0,0,270.0*
21,1,0.02520,0.01575,0,0,270.0*
1,1,0.00787,-0.00394,-0.01260*
1,1,0.00787,-0.00394,0.01260*
1,1,0.00787,0.00394,0.01260*
1,1,0.00787,0.00394,-0.01260*
%
%ADD26ROUNDEDRECTD26*%
%ADD27R,0.02598X0.02756*%
%ADD28R,0.03386X0.01181*%
G04:AMPARAMS|DCode=29|XSize=19.68mil|YSize=23.62mil|CornerRadius=4.92mil|HoleSize=0mil|Usage=FLASHONLY|Rotation=270.000|XOffset=0mil|YOffset=0mil|HoleType=Round|Shape=RoundedRectangle|*
%AMROUNDEDRECTD29*
21,1,0.01968,0.01378,0,0,270.0*
21,1,0.00984,0.02362,0,0,270.0*
1,1,0.00984,-0.00689,-0.00492*
1,1,0.00984,-0.00689,0.00492*
1,1,0.00984,0.00689,0.00492*
1,1,0.00984,0.00689,-0.00492*
%
%ADD29ROUNDEDRECTD29*%
G04:AMPARAMS|DCode=30|XSize=23.62mil|YSize=23.62mil|CornerRadius=5.91mil|HoleSize=0mil|Usage=FLASHONLY|Rotation=180.000|XOffset=0mil|YOffset=0mil|HoleType=Round|Shape=RoundedRectangle|*
%AMROUNDEDRECTD30*
21,1,0.02362,0.01181,0,0,180.0*
21,1,0.01181,0.02362,0,0,180.0*
1,1,0.01181,-0.00591,0.00591*
1,1,0.01181,0.00591,0.00591*
1,1,0.01181,0.00591,-0.00591*
1,1,0.01181,-0.00591,-0.00591*
%
%ADD30ROUNDEDRECTD30*%
G04:AMPARAMS|DCode=31|XSize=33.47mil|YSize=29.53mil|CornerRadius=7.38mil|HoleSize=0mil|Usage=FLASHONLY|Rotation=90.000|XOffset=0mil|YOffset=0mil|HoleType=Round|Shape=RoundedRectangle|*
%AMROUNDEDRECTD31*
21,1,0.03347,0.01476,0,0,90.0*
21,1,0.01870,0.02953,0,0,90.0*
1,1,0.01476,0.00738,0.00935*
1,1,0.01476,0.00738,-0.00935*
1,1,0.01476,-0.00738,-0.00935*
1,1,0.01476,-0.00738,0.00935*
%
%ADD31ROUNDEDRECTD31*%
G04:AMPARAMS|DCode=32|XSize=23.23mil|YSize=13.78mil|CornerRadius=3.45mil|HoleSize=0mil|Usage=FLASHONLY|Rotation=0.000|XOffset=0mil|YOffset=0mil|HoleType=Round|Shape=RoundedRectangle|*
%AMROUNDEDRECTD32*
21,1,0.02323,0.00689,0,0,0.0*
21,1,0.01634,0.01378,0,0,0.0*
1,1,0.00689,0.00817,-0.00345*
1,1,0.00689,-0.00817,-0.00345*
1,1,0.00689,-0.00817,0.00345*
1,1,0.00689,0.00817,0.00345*
%
%ADD32ROUNDEDRECTD32*%
G04:AMPARAMS|DCode=33|XSize=23.23mil|YSize=13.78mil|CornerRadius=3.45mil|HoleSize=0mil|Usage=FLASHONLY|Rotation=270.000|XOffset=0mil|YOffset=0mil|HoleType=Round|Shape=RoundedRectangle|*
%AMROUNDEDRECTD33*
21,1,0.02323,0.00689,0,0,270.0*
21,1,0.01634,0.01378,0,0,270.0*
1,1,0.00689,-0.00345,-0.00817*
1,1,0.00689,-0.00345,0.00817*
1,1,0.00689,0.00345,0.00817*
1,1,0.00689,0.00345,-0.00817*
%
%ADD33ROUNDEDRECTD33*%
G04:AMPARAMS|DCode=34|XSize=112mil|YSize=112mil|CornerRadius=14mil|HoleSize=0mil|Usage=FLASHONLY|Rotation=0.000|XOffset=0mil|YOffset=0mil|HoleType=Round|Shape=RoundedRectangle|*
%AMROUNDEDRECTD34*
21,1,0.11200,0.08400,0,0,0.0*
21,1,0.08400,0.11200,0,0,0.0*
1,1,0.02800,0.04200,-0.04200*
1,1,0.02800,-0.04200,-0.04200*
1,1,0.02800,-0.04200,0.04200*
1,1,0.02800,0.04200,0.04200*
%
%ADD34ROUNDEDRECTD34*%
G04:AMPARAMS|DCode=35|XSize=19.68mil|YSize=23.62mil|CornerRadius=4.92mil|HoleSize=0mil|Usage=FLASHONLY|Rotation=180.000|XOffset=0mil|YOffset=0mil|HoleType=Round|Shape=RoundedRectangle|*
%AMROUNDEDRECTD35*
21,1,0.01968,0.01378,0,0,180.0*
21,1,0.00984,0.02362,0,0,180.0*
1,1,0.00984,-0.00492,0.00689*
1,1,0.00984,0.00492,0.00689*
1,1,0.00984,0.00492,-0.00689*
1,1,0.00984,-0.00492,-0.00689*
%
%ADD35ROUNDEDRECTD35*%
G04:AMPARAMS|DCode=36|XSize=137.8mil|YSize=51.18mil|CornerRadius=12.8mil|HoleSize=0mil|Usage=FLASHONLY|Rotation=180.000|XOffset=0mil|YOffset=0mil|HoleType=Round|Shape=RoundedRectangle|*
%AMROUNDEDRECTD36*
21,1,0.13780,0.02559,0,0,180.0*
21,1,0.11221,0.05118,0,0,180.0*
1,1,0.02559,-0.05610,0.01280*
1,1,0.02559,0.05610,0.01280*
1,1,0.02559,0.05610,-0.01280*
1,1,0.02559,-0.05610,-0.01280*
%
%ADD36ROUNDEDRECTD36*%
G04:AMPARAMS|DCode=37|XSize=21.26mil|YSize=23.62mil|CornerRadius=5.32mil|HoleSize=0mil|Usage=FLASHONLY|Rotation=180.000|XOffset=0mil|YOffset=0mil|HoleType=Round|Shape=RoundedRectangle|*
%AMROUNDEDRECTD37*
21,1,0.02126,0.01299,0,0,180.0*
21,1,0.01063,0.02362,0,0,180.0*
1,1,0.01063,-0.00532,0.00650*
1,1,0.01063,0.00532,0.00650*
1,1,0.01063,0.00532,-0.00650*
1,1,0.01063,-0.00532,-0.00650*
%
%ADD37ROUNDEDRECTD37*%
G36*
X90492Y52106D02*
Y56595D01*
X97028D01*
Y52106D01*
X90492D01*
D02*
G37*
D17*
X35000Y76700D02*
D03*
X29000D02*
D03*
X22800Y72100D02*
D03*
Y76700D02*
D03*
D18*
X42300Y67972D02*
D03*
Y64428D02*
D03*
X22400Y67972D02*
D03*
Y64428D02*
D03*
X16400Y29572D02*
D03*
Y26028D02*
D03*
X3500Y46428D02*
D03*
Y49972D02*
D03*
Y57672D02*
D03*
Y54128D02*
D03*
X42500Y60572D02*
D03*
Y57028D02*
D03*
X38100Y64428D02*
D03*
Y67972D02*
D03*
X24600Y6828D02*
D03*
Y10372D02*
D03*
Y13828D02*
D03*
Y17372D02*
D03*
X89400Y5128D02*
D03*
Y8672D02*
D03*
X104700Y18628D02*
D03*
Y22172D02*
D03*
D19*
X27300Y71120D02*
D03*
Y64822D02*
D03*
X7700Y19251D02*
D03*
Y25549D02*
D03*
D20*
X18800Y7750D02*
D03*
Y14050D02*
D03*
X88600Y73550D02*
D03*
Y67250D02*
D03*
D21*
X35400Y12700D02*
D03*
D22*
X32447Y18400D02*
D03*
X34416D02*
D03*
X36384D02*
D03*
X38353D02*
D03*
Y7000D02*
D03*
X36384D02*
D03*
X34416D02*
D03*
X32447D02*
D03*
D23*
X41100Y15653D02*
D03*
Y13684D02*
D03*
Y11716D02*
D03*
Y9747D02*
D03*
X29700D02*
D03*
Y11716D02*
D03*
Y13684D02*
D03*
Y15653D02*
D03*
D24*
X98940Y25441D02*
D03*
X95200D02*
D03*
X91460D02*
D03*
Y15559D02*
D03*
X95200D02*
D03*
X98940D02*
D03*
D25*
X97100Y67857D02*
D03*
Y74943D02*
D03*
D26*
X97500Y60000D02*
D03*
X93760D02*
D03*
X90020D02*
D03*
Y48701D02*
D03*
X93760D02*
D03*
X97500D02*
D03*
D27*
X80900Y66663D02*
D03*
X69510Y9819D02*
D03*
X80910Y9751D02*
D03*
X69510Y66663D02*
D03*
X61791Y66679D02*
D03*
X50400Y9835D02*
D03*
X61800Y9767D02*
D03*
X50400Y66679D02*
D03*
D28*
X69910Y63265D02*
D03*
Y61297D02*
D03*
Y59328D02*
D03*
Y57360D02*
D03*
Y55391D02*
D03*
Y53423D02*
D03*
Y14051D02*
D03*
Y16020D02*
D03*
Y17988D02*
D03*
Y19957D02*
D03*
Y21925D02*
D03*
Y23894D02*
D03*
Y25862D02*
D03*
Y27831D02*
D03*
Y29799D02*
D03*
Y31768D02*
D03*
Y33736D02*
D03*
Y35705D02*
D03*
Y37673D02*
D03*
Y39642D02*
D03*
Y41610D02*
D03*
Y43579D02*
D03*
Y45547D02*
D03*
Y47516D02*
D03*
Y49484D02*
D03*
Y51453D02*
D03*
X80500Y50468D02*
D03*
Y42595D02*
D03*
Y40626D02*
D03*
Y38658D02*
D03*
Y36689D02*
D03*
Y34721D02*
D03*
Y30784D02*
D03*
Y28815D02*
D03*
Y26847D02*
D03*
Y24878D02*
D03*
Y22909D02*
D03*
Y44563D02*
D03*
Y13067D02*
D03*
Y48500D02*
D03*
Y46532D02*
D03*
Y15035D02*
D03*
Y17004D02*
D03*
Y18972D02*
D03*
Y20941D02*
D03*
Y32752D02*
D03*
Y52439D02*
D03*
Y54407D02*
D03*
Y56376D02*
D03*
Y58344D02*
D03*
Y60313D02*
D03*
Y62281D02*
D03*
X50800Y63281D02*
D03*
Y61313D02*
D03*
Y59344D02*
D03*
Y57376D02*
D03*
Y55407D02*
D03*
Y53439D02*
D03*
Y14067D02*
D03*
Y16036D02*
D03*
Y18004D02*
D03*
Y19973D02*
D03*
Y21941D02*
D03*
Y23910D02*
D03*
Y25878D02*
D03*
Y27847D02*
D03*
Y29815D02*
D03*
Y31784D02*
D03*
Y33752D02*
D03*
Y35721D02*
D03*
Y37689D02*
D03*
Y39658D02*
D03*
Y41626D02*
D03*
Y43595D02*
D03*
Y45563D02*
D03*
Y47532D02*
D03*
Y49500D02*
D03*
Y51468D02*
D03*
X61391Y50484D02*
D03*
Y42610D02*
D03*
Y40642D02*
D03*
Y38673D02*
D03*
Y36705D02*
D03*
Y34736D02*
D03*
Y30799D02*
D03*
Y28831D02*
D03*
Y26862D02*
D03*
Y24894D02*
D03*
Y22925D02*
D03*
Y44579D02*
D03*
Y13083D02*
D03*
Y48516D02*
D03*
Y46547D02*
D03*
Y15051D02*
D03*
Y17020D02*
D03*
Y18988D02*
D03*
Y20957D02*
D03*
Y32768D02*
D03*
Y52454D02*
D03*
Y54423D02*
D03*
Y56391D02*
D03*
Y58360D02*
D03*
Y60328D02*
D03*
Y62297D02*
D03*
D29*
X43300Y27300D02*
D03*
Y31237D02*
D03*
X16900Y44131D02*
D03*
Y48068D02*
D03*
X16900Y40468D02*
D03*
Y36531D02*
D03*
X31800Y68168D02*
D03*
Y64231D02*
D03*
X39600Y36531D02*
D03*
Y40468D02*
D03*
X30400Y42531D02*
D03*
Y46468D02*
D03*
X96700Y4932D02*
D03*
Y8868D02*
D03*
X93100Y4932D02*
D03*
Y8868D02*
D03*
X100400D02*
D03*
Y4932D02*
D03*
X44400Y5669D02*
D03*
Y1732D02*
D03*
X49100Y5669D02*
D03*
Y1732D02*
D03*
X37800Y27231D02*
D03*
Y31168D02*
D03*
D30*
X8028Y61300D02*
D03*
X11572D02*
D03*
X11972Y30500D02*
D03*
X8428D02*
D03*
X11972Y38400D02*
D03*
X8428D02*
D03*
Y34300D02*
D03*
X11972D02*
D03*
X21057Y2700D02*
D03*
X24600D02*
D03*
D31*
X12167Y47343D02*
D03*
Y52658D02*
D03*
X8033D02*
D03*
Y47343D02*
D03*
D32*
X20713Y23747D02*
D03*
Y25716D02*
D03*
Y27684D02*
D03*
Y29653D02*
D03*
X29887D02*
D03*
Y27684D02*
D03*
Y25716D02*
D03*
Y23747D02*
D03*
D33*
X23332Y30302D02*
D03*
X25300D02*
D03*
X27268D02*
D03*
Y23098D02*
D03*
X25300D02*
D03*
X23332D02*
D03*
D34*
X111600Y48000D02*
D03*
Y34800D02*
D03*
D35*
X12168Y42400D02*
D03*
X8231D02*
D03*
D36*
X94400Y32969D02*
D03*
X94400Y41631D02*
D03*
D37*
X7899Y57500D02*
D03*
X11301D02*
D03*
M02*
