G04*
G04 #@! TF.GenerationSoftware,Altium Limited,Altium Designer,21.3.2 (30)*
G04*
G04 Layer_Physical_Order=3*
G04 Layer_Color=36540*
%FSLAX25Y25*%
%MOIN*%
G70*
G04*
G04 #@! TF.SameCoordinates,20047665-8901-4395-8F35-5F40874213DC*
G04*
G04*
G04 #@! TF.FilePolarity,Positive*
G04*
G01*
G75*
%ADD58C,0.00400*%
%ADD60C,0.01500*%
%ADD61C,0.01000*%
%ADD62C,0.01968*%
G36*
X112570Y78436D02*
X114004Y77842D01*
X115294Y76981D01*
X116391Y75884D01*
X117252Y74594D01*
X117845Y73160D01*
X118148Y71639D01*
X118147Y70863D01*
X118147Y40345D01*
X117647Y40246D01*
X117543Y40497D01*
X117097Y40943D01*
X116515Y41184D01*
X115885D01*
X115303Y40943D01*
X114900Y40541D01*
X114597Y40843D01*
X114015Y41084D01*
X113385D01*
X112803Y40843D01*
X112455Y40495D01*
X112443Y40497D01*
X111997Y40943D01*
X111415Y41184D01*
X110785D01*
X110203Y40943D01*
X109800Y40541D01*
X109397Y40943D01*
X108815Y41184D01*
X108185D01*
X107603Y40943D01*
X107157Y40497D01*
X106916Y39915D01*
Y39285D01*
X107157Y38703D01*
X107603Y38257D01*
X107605Y38245D01*
X107257Y37897D01*
X107016Y37315D01*
Y36685D01*
X107257Y36103D01*
X107659Y35700D01*
X107257Y35297D01*
X107016Y34715D01*
Y34085D01*
X107257Y33503D01*
X107703Y33057D01*
X108285Y32816D01*
X108915D01*
X109497Y33057D01*
X109900Y33459D01*
X110303Y33057D01*
X110885Y32816D01*
X111515D01*
X112097Y33057D01*
X112500Y33459D01*
X112903Y33057D01*
X113485Y32816D01*
X114115D01*
X114697Y33057D01*
X115050Y33410D01*
X115403Y33057D01*
X115985Y32816D01*
X116615D01*
X117197Y33057D01*
X117643Y33503D01*
X117647Y33513D01*
X118147Y33413D01*
X118147Y7871D01*
X118147Y7871D01*
X118148Y7096D01*
X117845Y5574D01*
X117252Y4141D01*
X116391Y2851D01*
X115294Y1754D01*
X114004Y892D01*
X112570Y299D01*
X111049Y-3D01*
X110273Y-3D01*
X92545D01*
X92338Y497D01*
X92543Y703D01*
X92784Y1285D01*
Y1915D01*
X92543Y2497D01*
X92097Y2943D01*
X91515Y3184D01*
X90885D01*
X90303Y2943D01*
X89857Y2497D01*
X89616Y1915D01*
Y1285D01*
X89857Y703D01*
X90062Y497D01*
X89855Y-3D01*
X7911D01*
X7136Y-3D01*
X5615Y300D01*
X4182Y894D01*
X2892Y1756D01*
X1796Y2853D01*
X934Y4142D01*
X340Y5575D01*
X37Y7096D01*
X37Y7871D01*
Y70863D01*
X37Y71639D01*
X340Y73160D01*
X934Y74592D01*
X1796Y75882D01*
X2892Y76978D01*
X4182Y77840D01*
X5615Y78434D01*
X7136Y78737D01*
X7911Y78737D01*
X17990D01*
X18197Y78237D01*
X17957Y77997D01*
X17716Y77415D01*
Y76785D01*
X17799Y76583D01*
X17416Y76201D01*
X17215Y76284D01*
X16585D01*
X16003Y76043D01*
X15557Y75597D01*
X15316Y75015D01*
Y74385D01*
X15557Y73803D01*
X16003Y73357D01*
X16585Y73116D01*
X17215D01*
X17797Y73357D01*
X18243Y73803D01*
X18484Y74385D01*
Y75015D01*
X18401Y75217D01*
X18783Y75599D01*
X18985Y75516D01*
X19615D01*
X20197Y75757D01*
X20643Y76203D01*
X20884Y76785D01*
Y77415D01*
X20643Y77997D01*
X20403Y78237D01*
X20610Y78737D01*
X40289D01*
X40396Y78271D01*
X40397Y78237D01*
X39957Y77797D01*
X39716Y77215D01*
Y76585D01*
X39957Y76003D01*
X40310Y75650D01*
X39957Y75297D01*
X39716Y74715D01*
Y74085D01*
X39957Y73503D01*
X40403Y73057D01*
X40985Y72816D01*
X41615D01*
X42197Y73057D01*
X42550Y73409D01*
X42903Y73057D01*
X43485Y72816D01*
X44115D01*
X44697Y73057D01*
X45000Y73360D01*
X45303Y73057D01*
X45885Y72816D01*
X46515D01*
X47097Y73057D01*
X47543Y73503D01*
X47784Y74085D01*
Y74715D01*
X47543Y75297D01*
X47190Y75650D01*
X47543Y76003D01*
X47784Y76585D01*
Y77215D01*
X47543Y77797D01*
X47103Y78237D01*
X47104Y78271D01*
X47211Y78737D01*
X86190Y78737D01*
X86551Y78237D01*
Y75476D01*
X86741Y75016D01*
X87116Y74641D01*
X87576Y74450D01*
X92903Y74451D01*
X99608Y67746D01*
X99472Y67420D01*
X99362Y67284D01*
X98785D01*
X98203Y67043D01*
X97800Y66641D01*
X97397Y67043D01*
X96815Y67284D01*
X96185D01*
X95603Y67043D01*
X95250Y66690D01*
X94897Y67043D01*
X94315Y67284D01*
X93685D01*
X93103Y67043D01*
X92750Y66690D01*
X92397Y67043D01*
X91815Y67284D01*
X91185D01*
X90603Y67043D01*
X90157Y66597D01*
X89916Y66015D01*
Y65385D01*
X90157Y64803D01*
X90603Y64357D01*
X90856Y64252D01*
X91216Y63815D01*
Y63185D01*
X91457Y62603D01*
X91903Y62157D01*
X92485Y61916D01*
X93115D01*
X93697Y62157D01*
X94050Y62510D01*
X94403Y62157D01*
X94985Y61916D01*
X95615D01*
X96197Y62157D01*
X96550Y62510D01*
X96903Y62157D01*
X97485Y61916D01*
X98115D01*
X98697Y62157D01*
X99143Y62603D01*
X99384Y63185D01*
Y63815D01*
X99744Y64252D01*
X99997Y64357D01*
X100443Y64803D01*
X100684Y65385D01*
Y65962D01*
X100820Y66072D01*
X101146Y66208D01*
X104365Y62988D01*
X104344Y62903D01*
X103791Y62749D01*
X103697Y62843D01*
X103115Y63084D01*
X102485D01*
X101903Y62843D01*
X101457Y62397D01*
X101216Y61815D01*
Y61185D01*
X101457Y60603D01*
X101903Y60157D01*
X102485Y59916D01*
X103115D01*
X103697Y60157D01*
X104124Y60583D01*
X104226Y60577D01*
X104624Y60456D01*
Y52942D01*
X97431Y45749D01*
X94629D01*
X94510Y45700D01*
X94381D01*
X94160Y45609D01*
X94069Y45517D01*
X93949Y45468D01*
X92932Y44451D01*
X92883Y44331D01*
X92791Y44240D01*
X92700Y44019D01*
Y43890D01*
X92651Y43771D01*
Y41629D01*
X92700Y41510D01*
Y41381D01*
X92791Y41160D01*
X92883Y41069D01*
X92932Y40949D01*
X93649Y40232D01*
X93769Y40183D01*
X93860Y40091D01*
X94081Y40000D01*
X94210D01*
X94329Y39951D01*
X98700D01*
X99159Y40141D01*
X107546Y48528D01*
X107596Y48647D01*
X107687Y48738D01*
X107700Y48770D01*
X107700Y48899D01*
X107749Y49018D01*
Y52300D01*
X107559Y52759D01*
X107376Y52942D01*
Y63300D01*
X107272Y63827D01*
X106973Y64273D01*
X94849Y76397D01*
Y77700D01*
X94659Y78159D01*
X94543Y78275D01*
X94735Y78737D01*
X110273D01*
X110273Y78737D01*
X110273Y78737D01*
X111049Y78738D01*
X112570Y78436D01*
D02*
G37*
G36*
X94200Y77700D02*
Y76100D01*
X93200Y75100D01*
X87576Y75100D01*
X87200Y75476D01*
Y78400D01*
X87500Y78700D01*
X93200D01*
X94200Y77700D01*
D02*
G37*
G36*
X107100Y52300D02*
Y49018D01*
X107087Y48987D01*
X98700Y40600D01*
X94329D01*
X94109Y40691D01*
X93391Y41409D01*
X93300Y41629D01*
Y43771D01*
X93391Y43991D01*
X94409Y45009D01*
X94629Y45100D01*
X97700D01*
X105300Y52700D01*
X106700D01*
X107100Y52300D01*
D02*
G37*
%LPC*%
G36*
X110702Y75736D02*
X109848D01*
X109797Y75715D01*
X109743Y75726D01*
X108906Y75559D01*
X108860Y75529D01*
X108805D01*
X108017Y75202D01*
X107977Y75163D01*
X107923Y75152D01*
X107214Y74678D01*
X107183Y74632D01*
X107132Y74611D01*
X106528Y74008D01*
X106507Y73956D01*
X106461Y73926D01*
X105987Y73216D01*
X105976Y73162D01*
X105937Y73123D01*
X105611Y72335D01*
Y72279D01*
X105580Y72233D01*
X105414Y71396D01*
X105424Y71342D01*
X105403Y71291D01*
Y70438D01*
X105424Y70386D01*
X105414Y70332D01*
X105580Y69495D01*
X105611Y69449D01*
Y69394D01*
X105937Y68606D01*
X105976Y68567D01*
X105987Y68512D01*
X106461Y67803D01*
X106507Y67772D01*
X106528Y67721D01*
X107132Y67118D01*
X107183Y67096D01*
X107214Y67050D01*
X107923Y66576D01*
X107977Y66566D01*
X108017Y66526D01*
X108805Y66200D01*
X108860D01*
X108906Y66169D01*
X109743Y66003D01*
X109797Y66013D01*
X109848Y65992D01*
X110702D01*
X110753Y66013D01*
X110807Y66003D01*
X111644Y66169D01*
X111690Y66200D01*
X111745D01*
X112533Y66526D01*
X112573Y66566D01*
X112627Y66576D01*
X113336Y67050D01*
X113367Y67097D01*
X113418Y67118D01*
X114022Y67721D01*
X114043Y67772D01*
X114089Y67803D01*
X114563Y68512D01*
X114574Y68567D01*
X114613Y68606D01*
X114939Y69394D01*
Y69449D01*
X114970Y69495D01*
X115137Y70332D01*
X115126Y70386D01*
X115147Y70438D01*
Y71291D01*
X115126Y71342D01*
X115137Y71396D01*
X114970Y72233D01*
X114939Y72279D01*
Y72335D01*
X114613Y73123D01*
X114574Y73162D01*
X114563Y73216D01*
X114089Y73926D01*
X114043Y73956D01*
X114022Y74008D01*
X113418Y74611D01*
X113367Y74632D01*
X113336Y74678D01*
X112627Y75152D01*
X112573Y75163D01*
X112533Y75202D01*
X111745Y75529D01*
X111690D01*
X111644Y75559D01*
X110807Y75726D01*
X110753Y75715D01*
X110702Y75736D01*
D02*
G37*
G36*
X8339D02*
X7486D01*
X7435Y75715D01*
X7381Y75726D01*
X6544Y75559D01*
X6498Y75529D01*
X6442D01*
X5654Y75202D01*
X5615Y75163D01*
X5561Y75152D01*
X4851Y74678D01*
X4821Y74632D01*
X4769Y74611D01*
X4166Y74008D01*
X4145Y73956D01*
X4099Y73926D01*
X3625Y73216D01*
X3614Y73162D01*
X3575Y73123D01*
X3249Y72335D01*
Y72279D01*
X3218Y72233D01*
X3051Y71396D01*
X3062Y71342D01*
X3041Y71291D01*
Y70438D01*
X3062Y70386D01*
X3051Y70332D01*
X3218Y69495D01*
X3249Y69449D01*
Y69394D01*
X3575Y68606D01*
X3614Y68567D01*
X3625Y68512D01*
X4099Y67803D01*
X4145Y67772D01*
X4166Y67721D01*
X4769Y67118D01*
X4821Y67096D01*
X4851Y67050D01*
X5561Y66576D01*
X5615Y66566D01*
X5654Y66526D01*
X6442Y66200D01*
X6498D01*
X6544Y66169D01*
X7381Y66003D01*
X7435Y66013D01*
X7486Y65992D01*
X8339D01*
X8391Y66013D01*
X8445Y66003D01*
X9282Y66169D01*
X9328Y66200D01*
X9383D01*
X10171Y66526D01*
X10210Y66566D01*
X10265Y66576D01*
X10974Y67050D01*
X11005Y67097D01*
X11056Y67118D01*
X11659Y67721D01*
X11681Y67772D01*
X11727Y67803D01*
X12201Y68512D01*
X12212Y68567D01*
X12251Y68606D01*
X12577Y69394D01*
Y69449D01*
X12608Y69495D01*
X12774Y70332D01*
X12764Y70386D01*
X12785Y70438D01*
Y71291D01*
X12764Y71342D01*
X12774Y71396D01*
X12608Y72233D01*
X12577Y72279D01*
Y72335D01*
X12251Y73123D01*
X12212Y73162D01*
X12201Y73216D01*
X11727Y73926D01*
X11681Y73956D01*
X11659Y74008D01*
X11056Y74611D01*
X11005Y74632D01*
X10974Y74678D01*
X10265Y75152D01*
X10210Y75163D01*
X10171Y75202D01*
X9383Y75529D01*
X9328D01*
X9282Y75559D01*
X8445Y75726D01*
X8391Y75715D01*
X8339Y75736D01*
D02*
G37*
G36*
X74100Y71916D02*
X74100Y71916D01*
X31100D01*
X31100Y71916D01*
X30788Y71854D01*
X30523Y71677D01*
X30523Y71677D01*
X21023Y62177D01*
X20846Y61912D01*
X20784Y61600D01*
X20846Y61288D01*
X21005Y61051D01*
Y56777D01*
X20505Y56357D01*
X20460Y56364D01*
X20331Y56677D01*
X20092Y56916D01*
X20082Y57433D01*
X20321Y57672D01*
X20450Y57985D01*
Y58323D01*
X20321Y58635D01*
X20082Y58874D01*
X19769Y59004D01*
X19431D01*
X19118Y58874D01*
X18951Y58707D01*
X18580Y58689D01*
X18376Y58726D01*
X18181Y58921D01*
X17869Y59050D01*
X17531D01*
X17219Y58921D01*
X16979Y58681D01*
X16850Y58369D01*
Y58192D01*
X13667Y55009D01*
X13388Y54954D01*
X13123Y54777D01*
X12946Y54512D01*
X12884Y54200D01*
Y30900D01*
X12884Y30900D01*
X12946Y30588D01*
X13123Y30323D01*
X18419Y25028D01*
Y19659D01*
X18337Y19626D01*
X17891Y19180D01*
X17650Y18598D01*
Y17967D01*
X17891Y17385D01*
X18337Y16939D01*
X18919Y16698D01*
X19549D01*
X20132Y16939D01*
X20526Y17334D01*
X20803Y17057D01*
X21385Y16816D01*
X22015D01*
X22597Y17057D01*
X23043Y17503D01*
X23284Y18085D01*
Y18282D01*
X23784Y18616D01*
X23785Y18616D01*
X24415D01*
X24997Y18857D01*
X25077Y18937D01*
X25667Y18820D01*
X25757Y18603D01*
X26203Y18157D01*
X26785Y17916D01*
X27415D01*
X27997Y18157D01*
X28345Y18505D01*
X28357Y18503D01*
X28803Y18057D01*
X29385Y17816D01*
X30015D01*
X30597Y18057D01*
X31043Y18503D01*
X31284Y19085D01*
Y19715D01*
X31043Y20297D01*
X30597Y20743D01*
X30015Y20984D01*
X29385D01*
X28803Y20743D01*
X28455Y20395D01*
X28443Y20397D01*
X27997Y20843D01*
X27415Y21084D01*
X26785D01*
X26203Y20843D01*
X26123Y20763D01*
X25533Y20880D01*
X25443Y21097D01*
X24997Y21543D01*
X24415Y21784D01*
X23785D01*
X23203Y21543D01*
X23016Y21356D01*
X22516Y21563D01*
Y25900D01*
X22454Y26212D01*
X22277Y26477D01*
X22277Y26477D01*
X17407Y31346D01*
Y32100D01*
X17345Y32412D01*
X17187Y32649D01*
Y41315D01*
X17473Y41506D01*
X17811D01*
X18123Y41635D01*
X18362Y41874D01*
X18372Y41899D01*
X18905Y41919D01*
X19144Y41679D01*
X19457Y41550D01*
X19795D01*
X20108Y41679D01*
X20347Y41919D01*
X20493Y41926D01*
X20884Y41909D01*
X21086Y41706D01*
X21399Y41577D01*
X21737D01*
X22049Y41706D01*
X22288Y41945D01*
X22418Y42258D01*
Y42596D01*
X22288Y42908D01*
X22049Y43147D01*
X21737Y43277D01*
X21399D01*
X21086Y43147D01*
X20847Y42908D01*
X20701Y42900D01*
X20310Y42918D01*
X20108Y43121D01*
X19795Y43250D01*
X19457D01*
X19144Y43121D01*
X18905Y42882D01*
X18895Y42857D01*
X18362Y42837D01*
X18123Y43076D01*
X17983Y43134D01*
X17832Y43599D01*
X17837Y43695D01*
X21193Y47051D01*
X21508Y47146D01*
X21784Y47167D01*
X22612Y46338D01*
Y46161D01*
X22742Y45849D01*
X22981Y45610D01*
X23012Y45409D01*
X23005Y45059D01*
X22819Y44873D01*
X22690Y44561D01*
Y44223D01*
X22819Y43910D01*
X23058Y43671D01*
X23371Y43542D01*
X23709D01*
X24021Y43671D01*
X24260Y43910D01*
X24390Y44223D01*
Y44561D01*
X24260Y44873D01*
X24021Y45112D01*
X23990Y45313D01*
X23998Y45663D01*
X24183Y45849D01*
X24240Y45987D01*
X24774Y46004D01*
X24829Y45871D01*
X25069Y45632D01*
X25381Y45503D01*
X25719D01*
X26032Y45632D01*
X26271Y45871D01*
X26400Y46184D01*
Y46335D01*
X28084Y48019D01*
X28584Y47812D01*
Y46326D01*
X25508Y43250D01*
X25331D01*
X25019Y43121D01*
X24779Y42882D01*
X24650Y42569D01*
Y42231D01*
X24779Y41919D01*
X25019Y41679D01*
X25331Y41550D01*
X25669D01*
X25982Y41679D01*
X26221Y41919D01*
X26350Y42231D01*
Y42408D01*
X28984Y45042D01*
X29484Y44835D01*
Y43468D01*
X27369Y41353D01*
X27192D01*
X26879Y41223D01*
X26640Y40984D01*
X26511Y40672D01*
Y40334D01*
X26640Y40021D01*
X26879Y39782D01*
X27192Y39653D01*
X27530D01*
X27842Y39782D01*
X28082Y40021D01*
X28211Y40334D01*
Y40511D01*
X30333Y42633D01*
X30612Y42688D01*
X30877Y42865D01*
X31054Y43130D01*
X31116Y43442D01*
Y49308D01*
X31313Y49440D01*
X31651D01*
X31963Y49569D01*
X32120Y49726D01*
X32372Y49752D01*
X32708Y49504D01*
X32724Y48974D01*
X32579Y48830D01*
X32450Y48517D01*
Y48179D01*
X32579Y47867D01*
X32818Y47628D01*
X33131Y47498D01*
X33469D01*
X33781Y47628D01*
X34021Y47867D01*
X34150Y48179D01*
Y48517D01*
X34021Y48830D01*
X33849Y49001D01*
X33843Y49406D01*
X33874Y49572D01*
X34081Y49779D01*
X34210Y50091D01*
Y50429D01*
X34081Y50742D01*
X33842Y50981D01*
X33810Y51089D01*
X33797Y51540D01*
X33944Y51687D01*
X34074Y52000D01*
Y52338D01*
X33944Y52650D01*
X33705Y52889D01*
X33393Y53019D01*
X33055D01*
X32742Y52889D01*
X32503Y52650D01*
X32374Y52338D01*
Y52000D01*
X32503Y51687D01*
X32660Y51531D01*
X32634Y50993D01*
X32319Y50802D01*
X32137Y50836D01*
X31963Y51010D01*
X31651Y51140D01*
X31313D01*
X31116Y51271D01*
Y53321D01*
X31231Y53398D01*
X31569D01*
X31881Y53527D01*
X32121Y53767D01*
X32250Y54079D01*
Y54417D01*
X32121Y54729D01*
X31991Y54859D01*
X31983Y55291D01*
X32033Y55447D01*
X32221Y55635D01*
X32350Y55948D01*
Y56286D01*
X32221Y56598D01*
X31982Y56837D01*
X31809Y56908D01*
X31763Y57379D01*
X31861Y57471D01*
X31881Y57479D01*
X32040Y57638D01*
X32126Y57718D01*
X32648Y57684D01*
X32672Y57625D01*
X32911Y57386D01*
X33224Y57257D01*
X33562D01*
X33874Y57386D01*
X34113Y57625D01*
X34243Y57938D01*
Y58276D01*
X34113Y58588D01*
X33874Y58827D01*
X33562Y58957D01*
X33224D01*
X32911Y58827D01*
X32672Y58588D01*
X32145Y58622D01*
X32121Y58681D01*
X31881Y58921D01*
X31569Y59050D01*
X31468D01*
X31414Y59226D01*
X31654Y59550D01*
X31967Y59679D01*
X32206Y59918D01*
X32335Y60231D01*
Y60431D01*
X32518Y60690D01*
X32760Y60850D01*
X32969D01*
X33281Y60979D01*
X33521Y61219D01*
X33650Y61531D01*
Y61869D01*
X33521Y62182D01*
X33281Y62421D01*
X32969Y62550D01*
X32631D01*
X32318Y62421D01*
X32079Y62182D01*
X31950Y61869D01*
Y61669D01*
X31767Y61410D01*
X31573Y61282D01*
X31116Y61469D01*
Y64562D01*
X33638Y67084D01*
X38028D01*
X38219Y66622D01*
X34773Y63177D01*
X34596Y62912D01*
X34534Y62600D01*
X34596Y62288D01*
X34755Y62051D01*
Y45251D01*
X34301Y44896D01*
X34098Y44904D01*
X33904Y45098D01*
X33592Y45227D01*
X33254D01*
X32941Y45098D01*
X32702Y44859D01*
X32573Y44546D01*
Y44208D01*
X32702Y43896D01*
X32941Y43657D01*
X32919Y43147D01*
X32679Y42908D01*
X32550Y42595D01*
Y42257D01*
X32679Y41945D01*
X32919Y41705D01*
X33231Y41576D01*
X33569D01*
X33882Y41705D01*
X34042Y41866D01*
X34451Y41874D01*
X34618Y41838D01*
X34772Y41683D01*
X34816Y41523D01*
X34809Y41100D01*
X34667Y40958D01*
X34538Y40646D01*
Y40308D01*
X34667Y39995D01*
X34906Y39756D01*
X35219Y39627D01*
X35557D01*
X35869Y39756D01*
X36108Y39995D01*
X36238Y40308D01*
Y40646D01*
X36108Y40958D01*
X35916Y41151D01*
X35882Y41272D01*
X35988Y41762D01*
X37058D01*
X37478Y41936D01*
X37950Y42408D01*
X38450Y42231D01*
X38579Y41919D01*
X38818Y41679D01*
X39131Y41550D01*
X39469D01*
X39781Y41679D01*
X40021Y41919D01*
X40150Y42231D01*
Y42569D01*
X40021Y42882D01*
X39781Y43121D01*
X39469Y43250D01*
X39445D01*
X39202Y43567D01*
X39133Y43750D01*
X39195Y43900D01*
Y46873D01*
X39021Y47294D01*
X36695Y49619D01*
Y53043D01*
X37131Y53404D01*
X37469D01*
X37782Y53533D01*
X38021Y53772D01*
X38150Y54084D01*
Y54423D01*
X38021Y54735D01*
X37861Y54895D01*
X37827Y55228D01*
X37872Y55478D01*
X38010Y55616D01*
X38258Y55641D01*
X38576Y55622D01*
X38769Y55429D01*
X39081Y55300D01*
X39419D01*
X39731Y55429D01*
X39971Y55668D01*
X40100Y55981D01*
Y56319D01*
X39971Y56631D01*
X39731Y56871D01*
X39419Y57000D01*
X39081D01*
X38769Y56871D01*
X38567Y56669D01*
X38319Y56644D01*
X38001Y56663D01*
X37808Y56856D01*
X37707Y56898D01*
Y57439D01*
X37782Y57470D01*
X38021Y57709D01*
X38150Y58021D01*
Y58360D01*
X38021Y58672D01*
X37782Y58911D01*
X37469Y59040D01*
X37131D01*
X36695Y59401D01*
Y61042D01*
X40938Y65284D01*
X63084D01*
X63425Y64893D01*
X63399Y64439D01*
X63057Y64097D01*
X62816Y63515D01*
Y62885D01*
X63057Y62303D01*
X63233Y62127D01*
X63463Y61800D01*
X63233Y61473D01*
X63057Y61297D01*
X62816Y60715D01*
Y60085D01*
X63057Y59503D01*
X63503Y59057D01*
X64085Y58816D01*
X64715D01*
X64925Y58902D01*
X65297Y58516D01*
X65131Y58115D01*
Y57485D01*
X65373Y56903D01*
X65491Y56784D01*
X65803Y56443D01*
X65357Y55997D01*
X65116Y55415D01*
Y54785D01*
X65310Y54316D01*
X65091Y53816D01*
X59477D01*
X59443Y53897D01*
X58997Y54343D01*
X58415Y54584D01*
X57785D01*
X57203Y54343D01*
X56757Y53897D01*
X56516Y53315D01*
Y52685D01*
X56757Y52103D01*
X57109Y51750D01*
X56757Y51397D01*
X56516Y50815D01*
Y50185D01*
X56757Y49603D01*
X56883Y49477D01*
X57196Y49150D01*
X56883Y48823D01*
X56757Y48697D01*
X56516Y48115D01*
Y47485D01*
X56757Y46903D01*
X57083Y46577D01*
X57187Y46371D01*
X57113Y45953D01*
X56857Y45697D01*
X56616Y45115D01*
Y44485D01*
X56857Y43903D01*
X57160Y43600D01*
X56757Y43197D01*
X56516Y42615D01*
Y41985D01*
X56599Y41784D01*
X56586Y41312D01*
X56347Y41186D01*
X56003Y41043D01*
X55557Y40597D01*
X55316Y40015D01*
Y39385D01*
X55427Y39116D01*
X55093Y38616D01*
X43061D01*
X42650Y38931D01*
Y39269D01*
X42521Y39582D01*
X42281Y39821D01*
X41969Y39950D01*
X41631D01*
X41319Y39821D01*
X41079Y39582D01*
X40950Y39269D01*
Y38931D01*
X40539Y38616D01*
X40326D01*
X39921Y39021D01*
X39500Y39195D01*
X36900D01*
X36479Y39021D01*
X33453Y35995D01*
X30761D01*
X30363Y36341D01*
Y36679D01*
X30234Y36992D01*
X29994Y37231D01*
X29682Y37360D01*
X29344D01*
X29032Y37231D01*
X28792Y36992D01*
X28722Y36822D01*
X28721Y36821D01*
X28594Y36806D01*
X28201Y36871D01*
X28116Y37076D01*
X27877Y37315D01*
X27565Y37444D01*
X27226D01*
X26914Y37315D01*
X26734Y37135D01*
X26543Y37083D01*
X26145Y37104D01*
X26008Y37242D01*
X25997Y37758D01*
X26236Y37997D01*
X26366Y38310D01*
Y38648D01*
X26236Y38960D01*
X25997Y39199D01*
X25685Y39329D01*
X25347D01*
X25034Y39199D01*
X24795Y38960D01*
X24666Y38648D01*
Y38310D01*
X24795Y37997D01*
X25034Y37758D01*
X25045Y37242D01*
X24806Y37003D01*
X24677Y36690D01*
Y36352D01*
X24806Y36040D01*
X25045Y35801D01*
X25358Y35671D01*
X25696D01*
X26008Y35801D01*
X26188Y35981D01*
X26379Y36033D01*
X26777Y36011D01*
X26914Y35874D01*
Y35347D01*
X26711Y35143D01*
X26675Y35107D01*
X26281Y34921D01*
X25969Y35050D01*
X25631D01*
X25319Y34921D01*
X25079Y34681D01*
X24950Y34369D01*
Y34031D01*
X25079Y33718D01*
X25319Y33479D01*
X25631Y33350D01*
X25969D01*
X26281Y33479D01*
X26485Y33683D01*
X26521Y33718D01*
X26914Y33905D01*
X27226Y33776D01*
X27565D01*
X27877Y33905D01*
X28002Y34031D01*
X32375D01*
X32675Y33531D01*
X32650Y33469D01*
Y33131D01*
X32779Y32818D01*
X33018Y32579D01*
X33331Y32450D01*
X33669D01*
X33981Y32579D01*
X34221Y32818D01*
X34350Y33131D01*
Y33469D01*
X34290Y33615D01*
X34392Y34126D01*
X34456Y34253D01*
X36278Y36075D01*
X36630Y36005D01*
X36869Y35766D01*
X36897Y35754D01*
X36940Y35231D01*
X36701Y34992D01*
X36572Y34679D01*
Y34350D01*
X36571Y34341D01*
X36334Y33856D01*
X36257Y33819D01*
X36018Y33721D01*
X35779Y33481D01*
X35650Y33169D01*
Y32831D01*
X35779Y32519D01*
X36018Y32279D01*
X36331Y32150D01*
X36669D01*
X36981Y32279D01*
X37221Y32519D01*
X37350Y32831D01*
Y33160D01*
X37350Y33169D01*
X37588Y33655D01*
X37664Y33691D01*
X37903Y33790D01*
X38142Y34029D01*
X38272Y34341D01*
Y34405D01*
X40095D01*
X40303Y33905D01*
X40279Y33882D01*
X40150Y33569D01*
Y33231D01*
X40279Y32919D01*
X40519Y32679D01*
X40831Y32550D01*
X41169D01*
X41482Y32679D01*
X41721Y32919D01*
X41850Y33231D01*
Y33569D01*
X41721Y33882D01*
X41697Y33905D01*
X41905Y34405D01*
X43151D01*
X43388Y34246D01*
X43700Y34184D01*
X54137D01*
X54357Y33697D01*
X54116Y33115D01*
Y32485D01*
X54357Y31903D01*
X54803Y31457D01*
X55385Y31216D01*
X56015D01*
X56597Y31457D01*
X57000Y31859D01*
X57403Y31457D01*
X57682Y31341D01*
Y30800D01*
X57303Y30643D01*
X56857Y30197D01*
X56616Y29615D01*
Y28985D01*
X56857Y28403D01*
X57303Y27957D01*
X57885Y27716D01*
X58515D01*
X59097Y27957D01*
X59543Y28403D01*
X59577Y28484D01*
X60562D01*
X63873Y25173D01*
X63873Y25173D01*
X64138Y24996D01*
X64450Y24934D01*
X64450Y24934D01*
X65137D01*
X65472Y24434D01*
X65416Y24299D01*
Y23669D01*
X65657Y23087D01*
X66103Y22641D01*
X66073Y22112D01*
X65703Y21959D01*
X65257Y21513D01*
X65016Y20931D01*
Y20301D01*
X65257Y19718D01*
X65594Y19381D01*
X65257Y19045D01*
X65016Y18462D01*
Y17925D01*
X64990Y17808D01*
X64627Y17463D01*
X64285D01*
X63703Y17222D01*
X63257Y16776D01*
X63016Y16194D01*
Y15564D01*
X63257Y14981D01*
X63599Y14639D01*
X63257Y14297D01*
X63016Y13715D01*
Y13085D01*
X63257Y12503D01*
X63703Y12057D01*
X64285Y11816D01*
X64915D01*
X65497Y12057D01*
X65943Y12503D01*
X66184Y13085D01*
Y13715D01*
X65943Y14297D01*
X65601Y14639D01*
X65943Y14981D01*
X66184Y15564D01*
Y16101D01*
X66210Y16218D01*
X66573Y16563D01*
X66915D01*
X67497Y16804D01*
X67943Y17250D01*
X68184Y17832D01*
Y18462D01*
X67943Y19045D01*
X67606Y19381D01*
X67943Y19718D01*
X68184Y20301D01*
Y20931D01*
X67943Y21513D01*
X67497Y21959D01*
X67527Y22488D01*
X67897Y22641D01*
X68343Y23087D01*
X68584Y23669D01*
Y24155D01*
X69017Y24394D01*
X69046Y24400D01*
X69923Y23523D01*
X69923Y23523D01*
X70188Y23346D01*
X70500Y23284D01*
X71237D01*
X71457Y22797D01*
X71216Y22215D01*
Y21585D01*
X71457Y21003D01*
X71903Y20557D01*
X72485Y20316D01*
X73115D01*
X73697Y20557D01*
X74143Y21003D01*
X74384Y21585D01*
Y22215D01*
X74143Y22797D01*
X74363Y23284D01*
X75354D01*
X75371Y23282D01*
X75816Y22881D01*
Y22585D01*
X76057Y22003D01*
X76503Y21557D01*
X77085Y21316D01*
X77715D01*
X78297Y21557D01*
X78743Y22003D01*
X78984Y22585D01*
Y23215D01*
X78743Y23797D01*
X78297Y24243D01*
X78292Y24245D01*
Y24786D01*
X78297Y24788D01*
X78743Y25234D01*
X78984Y25816D01*
Y26447D01*
X78743Y27029D01*
X78406Y27366D01*
X78743Y27703D01*
X78984Y28285D01*
Y28915D01*
X78743Y29497D01*
X78391Y29850D01*
X78743Y30203D01*
X78984Y30785D01*
Y31415D01*
X78743Y31997D01*
X78297Y32443D01*
X78177Y32493D01*
Y33034D01*
X78397Y33125D01*
X78843Y33571D01*
X79084Y34153D01*
Y34784D01*
X78843Y35366D01*
X78506Y35703D01*
X78843Y36040D01*
X79084Y36622D01*
Y37252D01*
X78843Y37834D01*
X78397Y38280D01*
X77815Y38521D01*
X77904Y38984D01*
X81584D01*
X81916Y38615D01*
Y37985D01*
X82157Y37403D01*
X82603Y36957D01*
X83185Y36716D01*
X83815D01*
X84397Y36957D01*
X84843Y37403D01*
X85084Y37985D01*
Y38615D01*
X84843Y39197D01*
X84397Y39643D01*
X83815Y39884D01*
X83185D01*
X83103Y39850D01*
X82577Y40377D01*
X82312Y40554D01*
X82000Y40616D01*
X82000Y40616D01*
X78663D01*
X78456Y41116D01*
X78643Y41303D01*
X78884Y41885D01*
Y42515D01*
X78643Y43097D01*
X78241Y43500D01*
X78643Y43903D01*
X78884Y44485D01*
Y45115D01*
X78643Y45697D01*
X78367Y45973D01*
X78214Y46191D01*
X78358Y46618D01*
X78543Y46803D01*
X78784Y47385D01*
Y48015D01*
X78543Y48597D01*
X78267Y48873D01*
X78097Y49043D01*
X78258Y49518D01*
X78343Y49603D01*
X78584Y50185D01*
Y50815D01*
X78343Y51397D01*
X77897Y51843D01*
X77315Y52084D01*
X77338Y52574D01*
X77384Y52685D01*
Y53315D01*
X77143Y53897D01*
X76811Y54229D01*
X77094Y54653D01*
X77185Y54616D01*
X77815D01*
X78397Y54857D01*
X78843Y55303D01*
X79084Y55885D01*
Y56515D01*
X79050Y56597D01*
X80077Y57623D01*
X80077Y57623D01*
X80254Y57888D01*
X80316Y58200D01*
X80316Y58200D01*
Y65700D01*
X80254Y66012D01*
X80077Y66277D01*
X80077Y66277D01*
X74677Y71677D01*
X74412Y71854D01*
X74100Y71916D01*
D02*
G37*
G36*
X17515Y65784D02*
X16885D01*
X16303Y65543D01*
X15900Y65140D01*
X15497Y65543D01*
X14915Y65784D01*
X14285D01*
X13703Y65543D01*
X13257Y65097D01*
X13016Y64515D01*
Y63885D01*
X13257Y63303D01*
X13703Y62857D01*
X14285Y62616D01*
X14915D01*
X15497Y62857D01*
X15900Y63260D01*
X16303Y62857D01*
X16885Y62616D01*
X17515D01*
X18097Y62857D01*
X18543Y63303D01*
X18784Y63885D01*
Y64515D01*
X18543Y65097D01*
X18097Y65543D01*
X17515Y65784D01*
D02*
G37*
G36*
X54415Y64784D02*
X53785D01*
X53203Y64543D01*
X52757Y64097D01*
X52516Y63515D01*
Y62885D01*
X52757Y62303D01*
X53203Y61857D01*
X53785Y61616D01*
X54415D01*
X54997Y61857D01*
X55443Y62303D01*
X55684Y62885D01*
Y63515D01*
X55443Y64097D01*
X54997Y64543D01*
X54415Y64784D01*
D02*
G37*
G36*
X83915Y65184D02*
X83285D01*
X82703Y64943D01*
X82257Y64497D01*
X82016Y63915D01*
Y63285D01*
X82257Y62703D01*
X82556Y62404D01*
X82857Y61997D01*
X82616Y61415D01*
Y60785D01*
X82857Y60203D01*
X83303Y59757D01*
X83885Y59516D01*
X84515D01*
X85097Y59757D01*
X85543Y60203D01*
X85784Y60785D01*
Y61415D01*
X85543Y61997D01*
X85244Y62296D01*
X84943Y62703D01*
X85184Y63285D01*
Y63915D01*
X84943Y64497D01*
X84497Y64943D01*
X83915Y65184D01*
D02*
G37*
G36*
X45715Y61584D02*
X45085D01*
X44503Y61343D01*
X44057Y60897D01*
X43816Y60315D01*
Y59685D01*
X44057Y59103D01*
X44503Y58657D01*
X45085Y58416D01*
X45715D01*
X46297Y58657D01*
X46743Y59103D01*
X46984Y59685D01*
Y60315D01*
X46743Y60897D01*
X46297Y61343D01*
X45715Y61584D01*
D02*
G37*
G36*
X14073Y59818D02*
X13735D01*
X13422Y59688D01*
X13183Y59449D01*
X13054Y59137D01*
Y58799D01*
X13183Y58486D01*
X13270Y58400D01*
X13369Y58081D01*
X13268Y57770D01*
X13179Y57682D01*
X13050Y57369D01*
Y57031D01*
X13179Y56718D01*
X13419Y56479D01*
X13731Y56350D01*
X14069D01*
X14381Y56479D01*
X14621Y56718D01*
X14750Y57031D01*
Y57369D01*
X14621Y57682D01*
X14534Y57768D01*
X14435Y58087D01*
X14536Y58398D01*
X14625Y58486D01*
X14754Y58799D01*
Y59137D01*
X14625Y59449D01*
X14385Y59688D01*
X14073Y59818D01*
D02*
G37*
G36*
X58615Y59984D02*
X57985D01*
X57403Y59743D01*
X56957Y59297D01*
X56716Y58715D01*
Y58446D01*
X56715Y58085D01*
X56254Y57984D01*
X56085D01*
X55503Y57743D01*
X55057Y57297D01*
X54816Y56715D01*
Y56085D01*
X55057Y55503D01*
X55130Y55429D01*
X54847Y55005D01*
X54415Y55184D01*
X53785D01*
X53203Y54943D01*
X52757Y54497D01*
X52516Y53915D01*
Y53285D01*
X52757Y52703D01*
X53203Y52257D01*
X53785Y52016D01*
X54415D01*
X54997Y52257D01*
X55443Y52703D01*
X55684Y53285D01*
Y53915D01*
X55443Y54497D01*
X55370Y54571D01*
X55653Y54995D01*
X56085Y54816D01*
X56715D01*
X57297Y55057D01*
X57743Y55503D01*
X57984Y56085D01*
Y56354D01*
X57985Y56715D01*
X58446Y56816D01*
X58615D01*
X59197Y57057D01*
X59643Y57503D01*
X59884Y58085D01*
Y58715D01*
X59643Y59297D01*
X59197Y59743D01*
X58615Y59984D01*
D02*
G37*
G36*
X47715Y56684D02*
X47085D01*
X46503Y56443D01*
X46057Y55997D01*
X45816Y55415D01*
Y54785D01*
X46057Y54203D01*
X46503Y53757D01*
X47085Y53516D01*
X47715D01*
X48297Y53757D01*
X48743Y54203D01*
X48984Y54785D01*
Y55415D01*
X48743Y55997D01*
X48297Y56443D01*
X47715Y56684D01*
D02*
G37*
G36*
X87715Y50784D02*
X87085D01*
X86503Y50543D01*
X86057Y50097D01*
X85816Y49515D01*
Y48885D01*
X86057Y48303D01*
X86503Y47857D01*
X87085Y47616D01*
X87715D01*
X88297Y47857D01*
X88743Y48303D01*
X88984Y48885D01*
Y49515D01*
X88743Y50097D01*
X88297Y50543D01*
X87715Y50784D01*
D02*
G37*
G36*
X48015Y51384D02*
X47385D01*
X46803Y51143D01*
X46357Y50697D01*
X46116Y50115D01*
Y49485D01*
X46357Y48903D01*
X46483Y48777D01*
X46796Y48450D01*
X46483Y48123D01*
X46357Y47997D01*
X46116Y47415D01*
Y46785D01*
X46357Y46203D01*
X46803Y45757D01*
X47385Y45516D01*
X48015D01*
X48597Y45757D01*
X49043Y46203D01*
X49284Y46785D01*
Y47415D01*
X49043Y47997D01*
X48917Y48123D01*
X48604Y48450D01*
X48917Y48777D01*
X49043Y48903D01*
X49284Y49485D01*
Y50115D01*
X49043Y50697D01*
X48597Y51143D01*
X48015Y51384D01*
D02*
G37*
G36*
X4887Y44084D02*
X4256D01*
X3674Y43843D01*
X3386Y43555D01*
X3097Y43843D01*
X2515Y44084D01*
X1885D01*
X1303Y43843D01*
X857Y43397D01*
X616Y42815D01*
Y42185D01*
X857Y41603D01*
X1303Y41157D01*
X1885Y40916D01*
X2515D01*
X3097Y41157D01*
X3386Y41445D01*
X3674Y41157D01*
X3783Y41112D01*
X3881Y40621D01*
X3857Y40597D01*
X3616Y40015D01*
Y39385D01*
X3857Y38803D01*
X4303Y38357D01*
X4885Y38116D01*
X5515D01*
X6097Y38357D01*
X6543Y38803D01*
X6784Y39385D01*
Y40015D01*
X6543Y40597D01*
X6097Y41043D01*
X5988Y41088D01*
X5910Y41480D01*
X5935Y41651D01*
X6156Y42185D01*
Y42815D01*
X5915Y43397D01*
X5469Y43843D01*
X4887Y44084D01*
D02*
G37*
G36*
X41886Y42367D02*
X41548D01*
X41236Y42238D01*
X40997Y41999D01*
X40867Y41686D01*
Y41348D01*
X40997Y41036D01*
X41236Y40797D01*
X41548Y40667D01*
X41886D01*
X42199Y40797D01*
X42438Y41036D01*
X42567Y41348D01*
Y41686D01*
X42438Y41999D01*
X42199Y42238D01*
X41886Y42367D01*
D02*
G37*
G36*
X47715Y43084D02*
X47085D01*
X46503Y42843D01*
X46057Y42397D01*
X45816Y41815D01*
Y41185D01*
X46057Y40603D01*
X46503Y40157D01*
X47085Y39916D01*
X47715D01*
X48297Y40157D01*
X48743Y40603D01*
X48984Y41185D01*
Y41815D01*
X48743Y42397D01*
X48297Y42843D01*
X47715Y43084D01*
D02*
G37*
G36*
X23769Y41245D02*
X23431D01*
X23119Y41115D01*
X22879Y40876D01*
X22750Y40564D01*
Y40225D01*
X22879Y39913D01*
X23119Y39674D01*
X23431Y39544D01*
X23769D01*
X24081Y39674D01*
X24321Y39913D01*
X24450Y40225D01*
Y40564D01*
X24321Y40876D01*
X24081Y41115D01*
X23769Y41245D01*
D02*
G37*
G36*
X21769Y39350D02*
X21431D01*
X21118Y39221D01*
X20879Y38982D01*
X20871Y38962D01*
X20331Y38960D01*
X20092Y39199D01*
X19779Y39329D01*
X19441D01*
X19129Y39199D01*
X18890Y38960D01*
X18760Y38648D01*
Y38309D01*
X18890Y37997D01*
X19129Y37758D01*
X19441Y37629D01*
X19779D01*
X20092Y37758D01*
X20331Y37997D01*
X20339Y38017D01*
X20879Y38019D01*
X21118Y37779D01*
X21431Y37650D01*
X21769D01*
X22082Y37779D01*
X22321Y38019D01*
X22450Y38331D01*
Y38669D01*
X22321Y38982D01*
X22082Y39221D01*
X21769Y39350D01*
D02*
G37*
G36*
X33540Y39313D02*
X33202D01*
X32890Y39184D01*
X32651Y38945D01*
X32521Y38632D01*
Y38294D01*
X32651Y37982D01*
X32890Y37742D01*
X33202Y37613D01*
X33540D01*
X33853Y37742D01*
X34092Y37982D01*
X34221Y38294D01*
Y38632D01*
X34092Y38945D01*
X33853Y39184D01*
X33540Y39313D01*
D02*
G37*
G36*
X21769Y35250D02*
X21431D01*
X21118Y35121D01*
X20879Y34881D01*
X20750Y34569D01*
Y34231D01*
X20879Y33918D01*
X21118Y33679D01*
X21431Y33550D01*
X21769D01*
X22082Y33679D01*
X22321Y33918D01*
X22450Y34231D01*
Y34569D01*
X22321Y34881D01*
X22082Y35121D01*
X21769Y35250D01*
D02*
G37*
G36*
X22069Y32950D02*
X21731D01*
X21418Y32821D01*
X21179Y32581D01*
X21050Y32269D01*
Y31931D01*
X21179Y31618D01*
X21418Y31379D01*
X21731Y31250D01*
X22069D01*
X22381Y31379D01*
X22621Y31618D01*
X22750Y31931D01*
Y32269D01*
X22621Y32581D01*
X22381Y32821D01*
X22069Y32950D01*
D02*
G37*
G36*
X83715Y34284D02*
X83085D01*
X82503Y34043D01*
X82057Y33597D01*
X81816Y33015D01*
Y32385D01*
X82057Y31803D01*
X82503Y31357D01*
X83085Y31116D01*
X83715D01*
X84297Y31357D01*
X84743Y31803D01*
X84984Y32385D01*
Y33015D01*
X84743Y33597D01*
X84297Y34043D01*
X83715Y34284D01*
D02*
G37*
G36*
X5615Y34984D02*
X4985D01*
X4403Y34743D01*
X3957Y34297D01*
X3716Y33715D01*
Y33085D01*
X3957Y32503D01*
X4313Y32147D01*
X4366Y31850D01*
X4313Y31553D01*
X3957Y31197D01*
X3716Y30615D01*
Y29985D01*
X3957Y29403D01*
X4403Y28957D01*
X4985Y28716D01*
X5615D01*
X6197Y28957D01*
X6643Y29403D01*
X6884Y29985D01*
Y30615D01*
X6643Y31197D01*
X6287Y31553D01*
X6234Y31850D01*
X6287Y32147D01*
X6643Y32503D01*
X6884Y33085D01*
Y33715D01*
X6643Y34297D01*
X6197Y34743D01*
X5615Y34984D01*
D02*
G37*
G36*
X86915Y29684D02*
X86285D01*
X85703Y29443D01*
X85257Y28997D01*
X85016Y28415D01*
Y27785D01*
X85257Y27203D01*
X85433Y27027D01*
X85663Y26700D01*
X85433Y26373D01*
X85257Y26197D01*
X85016Y25615D01*
Y24985D01*
X85257Y24403D01*
X85703Y23957D01*
X86285Y23716D01*
X86915D01*
X87497Y23957D01*
X87943Y24403D01*
X88098Y24776D01*
X88485Y24616D01*
X89115D01*
X89697Y24857D01*
X90143Y25303D01*
X90384Y25885D01*
Y26416D01*
X90815D01*
X91397Y26657D01*
X91843Y27103D01*
X92084Y27685D01*
Y28315D01*
X91843Y28897D01*
X91397Y29343D01*
X90815Y29584D01*
X90185D01*
X89603Y29343D01*
X89157Y28897D01*
X88916Y28315D01*
Y28172D01*
X88838Y28102D01*
X88332Y28134D01*
X88184Y28280D01*
Y28415D01*
X87943Y28997D01*
X87497Y29443D01*
X86915Y29684D01*
D02*
G37*
G36*
X12915Y24684D02*
X12285D01*
X11703Y24443D01*
X11257Y23997D01*
X11050Y23498D01*
X10795Y23354D01*
X10516Y23277D01*
X10015Y23484D01*
X9385D01*
X8803Y23243D01*
X8357Y22797D01*
X8116Y22215D01*
Y21585D01*
X8357Y21003D01*
X8803Y20557D01*
X9385Y20316D01*
X10015D01*
X10516Y20523D01*
X10866Y20382D01*
X11016Y20285D01*
X11257Y19703D01*
X11559Y19400D01*
X11257Y19097D01*
X11016Y18515D01*
Y17885D01*
X11257Y17303D01*
X11703Y16857D01*
X12285Y16616D01*
X12915D01*
X13497Y16857D01*
X13943Y17303D01*
X14184Y17885D01*
Y18515D01*
X13943Y19097D01*
X13641Y19400D01*
X13943Y19703D01*
X14184Y20285D01*
Y20915D01*
X13943Y21497D01*
X13590Y21850D01*
X13943Y22203D01*
X14184Y22785D01*
Y23415D01*
X13943Y23997D01*
X13497Y24443D01*
X12915Y24684D01*
D02*
G37*
G36*
X55415Y24484D02*
X54785D01*
X54203Y24243D01*
X53757Y23797D01*
X53516Y23215D01*
Y22585D01*
X53570Y22454D01*
X53403Y21843D01*
X52957Y21397D01*
X52716Y20815D01*
Y20185D01*
X52957Y19603D01*
X53038Y19522D01*
X53003Y19343D01*
X52557Y18897D01*
X52316Y18315D01*
Y17685D01*
X52557Y17103D01*
X52905Y16755D01*
X52903Y16743D01*
X52457Y16297D01*
X52216Y15715D01*
Y15085D01*
X52457Y14503D01*
X52843Y14116D01*
X52456Y13729D01*
X52215Y13147D01*
Y12517D01*
X52456Y11934D01*
X52902Y11489D01*
X53484Y11247D01*
X54115D01*
X54697Y11489D01*
X55143Y11934D01*
X55384Y12517D01*
Y13147D01*
X55143Y13729D01*
X54756Y14116D01*
X55143Y14503D01*
X55384Y15085D01*
Y15715D01*
X55143Y16297D01*
X54795Y16645D01*
X54797Y16657D01*
X55243Y17103D01*
X55484Y17685D01*
Y18315D01*
X55243Y18897D01*
X55162Y18979D01*
X55197Y19157D01*
X55643Y19603D01*
X55884Y20185D01*
Y20815D01*
X55830Y20946D01*
X55997Y21557D01*
X56128Y21688D01*
X56557Y21603D01*
X57003Y21157D01*
X57585Y20916D01*
X58215D01*
X58797Y21157D01*
X59243Y21603D01*
X59484Y22185D01*
Y22815D01*
X59243Y23397D01*
X58797Y23843D01*
X58215Y24084D01*
X57585D01*
X57003Y23843D01*
X56872Y23712D01*
X56443Y23797D01*
X55997Y24243D01*
X55415Y24484D01*
D02*
G37*
G36*
X33515Y26084D02*
X32885D01*
X32303Y25843D01*
X31857Y25397D01*
X31616Y24815D01*
Y24185D01*
X31857Y23603D01*
X32303Y23157D01*
X32661Y23009D01*
X32884Y22699D01*
X32882Y22417D01*
X32716Y22015D01*
Y21385D01*
X32957Y20803D01*
X33403Y20357D01*
X33985Y20116D01*
X34615D01*
X35197Y20357D01*
X35643Y20803D01*
X35884Y21385D01*
Y22015D01*
X35730Y22387D01*
X36113Y22770D01*
X36485Y22616D01*
X36931D01*
X37584Y21962D01*
Y7838D01*
X36123Y6377D01*
X35946Y6112D01*
X35884Y5800D01*
X35884Y5800D01*
Y4877D01*
X35803Y4843D01*
X35416Y4456D01*
X35029Y4843D01*
X34447Y5084D01*
X33816D01*
X33234Y4843D01*
X33108Y4717D01*
X32781Y4404D01*
X32455Y4717D01*
X32329Y4843D01*
X31747Y5084D01*
X31535D01*
X31201Y5584D01*
X31284Y5785D01*
Y6415D01*
X31043Y6997D01*
X30597Y7443D01*
X30015Y7684D01*
X29385D01*
X28803Y7443D01*
X28357Y6997D01*
X28116Y6415D01*
Y5785D01*
X28357Y5203D01*
X28803Y4757D01*
X29385Y4516D01*
X29596D01*
X29930Y4016D01*
X29847Y3815D01*
Y3185D01*
X30088Y2603D01*
X30534Y2157D01*
X31116Y1916D01*
X31747D01*
X32329Y2157D01*
X32455Y2283D01*
X32781Y2596D01*
X33108Y2283D01*
X33234Y2157D01*
X33816Y1916D01*
X34447D01*
X35029Y2157D01*
X35416Y2544D01*
X35803Y2157D01*
X36385Y1916D01*
X37015D01*
X37597Y2157D01*
X38016Y2575D01*
X38434Y2157D01*
X39016Y1916D01*
X39647D01*
X40113Y2109D01*
X40657Y2103D01*
X41103Y1657D01*
X41685Y1416D01*
X42315D01*
X42897Y1657D01*
X43343Y2103D01*
X43584Y2685D01*
Y3315D01*
X43343Y3897D01*
X42897Y4343D01*
X42315Y4584D01*
X41685D01*
X41218Y4391D01*
X40674Y4397D01*
X40229Y4843D01*
X40116Y4890D01*
Y19891D01*
X40616Y20169D01*
X40985Y20016D01*
X41615D01*
X42197Y20257D01*
X42643Y20703D01*
X42884Y21285D01*
Y21915D01*
X42643Y22497D01*
X42241Y22900D01*
X42643Y23303D01*
X42884Y23885D01*
Y24515D01*
X42643Y25097D01*
X42197Y25543D01*
X41615Y25784D01*
X40985D01*
X40403Y25543D01*
X39957Y25097D01*
X39716Y24515D01*
Y23885D01*
X39750Y23803D01*
X38900Y22953D01*
X38263Y23591D01*
X38384Y23885D01*
Y24515D01*
X38143Y25097D01*
X37697Y25543D01*
X37115Y25784D01*
X36485D01*
X35903Y25543D01*
X35457Y25097D01*
X35284Y24680D01*
X34784Y24780D01*
Y24815D01*
X34543Y25397D01*
X34097Y25843D01*
X33515Y26084D01*
D02*
G37*
G36*
X47720Y30273D02*
X47089D01*
X46507Y30032D01*
X46061Y29586D01*
X45820Y29004D01*
Y28374D01*
X46061Y27792D01*
X46456Y27397D01*
X46057Y26997D01*
X45816Y26415D01*
Y25785D01*
X46057Y25203D01*
X46425Y24834D01*
X46057Y24466D01*
X45816Y23884D01*
Y23253D01*
X46057Y22671D01*
X46394Y22334D01*
X46057Y21997D01*
X45816Y21415D01*
Y20785D01*
X46057Y20203D01*
X46503Y19757D01*
X47085Y19516D01*
X47715D01*
X48297Y19757D01*
X48743Y20203D01*
X48984Y20785D01*
Y21415D01*
X48743Y21997D01*
X48406Y22334D01*
X48743Y22671D01*
X48984Y23253D01*
Y23884D01*
X48743Y24466D01*
X48375Y24834D01*
X48743Y25203D01*
X48984Y25785D01*
Y26415D01*
X48743Y26997D01*
X48348Y27392D01*
X48748Y27792D01*
X48989Y28374D01*
Y29004D01*
X48748Y29586D01*
X48302Y30032D01*
X47720Y30273D01*
D02*
G37*
G36*
X110702Y12744D02*
X109849D01*
X109797Y12723D01*
X109743Y12734D01*
X108906Y12567D01*
X108860Y12537D01*
X108805D01*
X108017Y12210D01*
X107977Y12171D01*
X107923Y12160D01*
X107214Y11686D01*
X107183Y11640D01*
X107132Y11619D01*
X106528Y11016D01*
X106507Y10965D01*
X106461Y10934D01*
X105987Y10225D01*
X105976Y10170D01*
X105937Y10131D01*
X105611Y9343D01*
Y9287D01*
X105580Y9241D01*
X105414Y8405D01*
X105424Y8350D01*
X105403Y8299D01*
Y7446D01*
X105424Y7395D01*
X105414Y7340D01*
X105580Y6504D01*
X105611Y6458D01*
Y6402D01*
X105937Y5614D01*
X105976Y5575D01*
X105987Y5520D01*
X106461Y4811D01*
X106507Y4780D01*
X106528Y4729D01*
X107132Y4126D01*
X107183Y4105D01*
X107214Y4059D01*
X107923Y3585D01*
X107977Y3574D01*
X108017Y3535D01*
X108805Y3208D01*
X108860D01*
X108906Y3177D01*
X109743Y3011D01*
X109797Y3022D01*
X109849Y3001D01*
X110702D01*
X110753Y3022D01*
X110807Y3011D01*
X111644Y3177D01*
X111690Y3208D01*
X111745D01*
X112534Y3535D01*
X112573Y3574D01*
X112627Y3585D01*
X113336Y4059D01*
X113367Y4105D01*
X113418Y4126D01*
X114022Y4729D01*
X114043Y4780D01*
X114089Y4811D01*
X114563Y5520D01*
X114574Y5575D01*
X114613Y5614D01*
X114939Y6402D01*
Y6458D01*
X114970Y6504D01*
X115137Y7340D01*
X115126Y7395D01*
X115147Y7446D01*
Y8299D01*
X115126Y8350D01*
X115137Y8405D01*
X114970Y9241D01*
X114939Y9287D01*
Y9343D01*
X114613Y10131D01*
X114574Y10170D01*
X114563Y10225D01*
X114089Y10934D01*
X114043Y10965D01*
X114022Y11016D01*
X113418Y11619D01*
X113367Y11640D01*
X113336Y11686D01*
X112627Y12160D01*
X112573Y12171D01*
X112534Y12210D01*
X111745Y12537D01*
X111690D01*
X111644Y12567D01*
X110807Y12734D01*
X110753Y12723D01*
X110702Y12744D01*
D02*
G37*
G36*
X8339Y12744D02*
X7486D01*
X7435Y12723D01*
X7381Y12734D01*
X6544Y12567D01*
X6498Y12536D01*
X6442D01*
X5654Y12210D01*
X5615Y12171D01*
X5561Y12160D01*
X4851Y11686D01*
X4821Y11640D01*
X4769Y11619D01*
X4166Y11016D01*
X4145Y10964D01*
X4099Y10933D01*
X3625Y10224D01*
X3614Y10170D01*
X3575Y10131D01*
X3249Y9342D01*
Y9287D01*
X3218Y9241D01*
X3051Y8404D01*
X3062Y8350D01*
X3041Y8299D01*
Y7446D01*
X3062Y7394D01*
X3051Y7340D01*
X3218Y6503D01*
X3249Y6457D01*
Y6402D01*
X3575Y5614D01*
X3614Y5574D01*
X3625Y5520D01*
X4099Y4811D01*
X4145Y4780D01*
X4166Y4729D01*
X4769Y4126D01*
X4821Y4104D01*
X4851Y4058D01*
X5561Y3584D01*
X5615Y3573D01*
X5654Y3534D01*
X6442Y3208D01*
X6498D01*
X6544Y3177D01*
X7381Y3011D01*
X7435Y3021D01*
X7486Y3000D01*
X8339D01*
X8391Y3021D01*
X8445Y3011D01*
X9282Y3177D01*
X9328Y3208D01*
X9383D01*
X10171Y3534D01*
X10210Y3573D01*
X10265Y3584D01*
X10974Y4058D01*
X11005Y4104D01*
X11056Y4126D01*
X11659Y4729D01*
X11681Y4780D01*
X11727Y4811D01*
X12201Y5520D01*
X12212Y5574D01*
X12251Y5614D01*
X12577Y6402D01*
Y6457D01*
X12608Y6503D01*
X12774Y7340D01*
X12764Y7394D01*
X12785Y7446D01*
Y8299D01*
X12764Y8350D01*
X12774Y8404D01*
X12608Y9241D01*
X12577Y9287D01*
Y9342D01*
X12251Y10131D01*
X12212Y10170D01*
X12201Y10224D01*
X11727Y10933D01*
X11681Y10964D01*
X11659Y11016D01*
X11056Y11619D01*
X11005Y11640D01*
X10974Y11686D01*
X10265Y12160D01*
X10210Y12171D01*
X10171Y12210D01*
X9383Y12536D01*
X9328D01*
X9282Y12567D01*
X8445Y12734D01*
X8391Y12723D01*
X8339Y12744D01*
D02*
G37*
G36*
X44999Y18184D02*
X44369D01*
X43787Y17943D01*
X43341Y17497D01*
X43100Y16915D01*
Y16285D01*
X43341Y15703D01*
X43431Y15613D01*
X43603Y15143D01*
X43425Y14965D01*
X43157Y14697D01*
X42916Y14115D01*
Y13485D01*
X43157Y12903D01*
X43603Y12457D01*
X44185Y12216D01*
X44815D01*
X45397Y12457D01*
X45843Y12903D01*
X46084Y13485D01*
Y14115D01*
X45843Y14697D01*
X45753Y14787D01*
X45582Y15257D01*
X45759Y15435D01*
X46027Y15703D01*
X46268Y16285D01*
Y16915D01*
X46027Y17497D01*
X45582Y17943D01*
X44999Y18184D01*
D02*
G37*
G36*
X100015Y12984D02*
X99385D01*
X98803Y12743D01*
X98357Y12297D01*
X98116Y11715D01*
Y11085D01*
X98357Y10503D01*
X98803Y10057D01*
X99385Y9816D01*
X100015D01*
X100597Y10057D01*
X101043Y10503D01*
X101284Y11085D01*
Y11715D01*
X101043Y12297D01*
X100597Y12743D01*
X100015Y12984D01*
D02*
G37*
G36*
X79415Y4184D02*
X78785D01*
X78203Y3943D01*
X77918Y3658D01*
X77600Y3551D01*
X77282Y3658D01*
X76997Y3943D01*
X76415Y4184D01*
X75785D01*
X75203Y3943D01*
X74757Y3497D01*
X74516Y2915D01*
Y2285D01*
X74757Y1703D01*
X75203Y1257D01*
X75785Y1016D01*
X76415D01*
X76997Y1257D01*
X77282Y1542D01*
X77600Y1649D01*
X77918Y1542D01*
X78203Y1257D01*
X78785Y1016D01*
X79415D01*
X79997Y1257D01*
X80443Y1703D01*
X80684Y2285D01*
Y2915D01*
X80443Y3497D01*
X79997Y3943D01*
X79415Y4184D01*
D02*
G37*
G36*
X47315Y4884D02*
X46685D01*
X46103Y4643D01*
X45657Y4197D01*
X45416Y3615D01*
Y2985D01*
X45657Y2403D01*
X46103Y1957D01*
X46685Y1716D01*
X47315D01*
X47897Y1957D01*
X48343Y2403D01*
X48584Y2985D01*
Y3615D01*
X48343Y4197D01*
X47897Y4643D01*
X47315Y4884D01*
D02*
G37*
%LPD*%
G36*
X64604Y64342D02*
X64616Y64320D01*
X64635Y64293D01*
X64662Y64262D01*
X64698Y64227D01*
X64791Y64144D01*
X64991Y63987D01*
X63810D01*
X63884Y64044D01*
X64138Y64262D01*
X64165Y64293D01*
X64184Y64320D01*
X64196Y64342D01*
X64200Y64361D01*
X64600D01*
X64604Y64342D01*
D02*
G37*
G36*
X65244Y60916D02*
X65462Y60663D01*
X65493Y60635D01*
X65520Y60616D01*
X65542Y60604D01*
X65561Y60600D01*
Y60200D01*
X65542Y60196D01*
X65520Y60184D01*
X65493Y60165D01*
X65462Y60137D01*
X65427Y60102D01*
X65344Y60009D01*
X65187Y59809D01*
Y60991D01*
X65244Y60916D01*
D02*
G37*
G36*
X77597Y59809D02*
X77608Y59786D01*
X77628Y59759D01*
X77655Y59728D01*
X77690Y59693D01*
X77784Y59610D01*
X77983Y59454D01*
X76802D01*
X76876Y59510D01*
X77130Y59728D01*
X77158Y59759D01*
X77177Y59786D01*
X77189Y59809D01*
X77193Y59827D01*
X77593D01*
X77597Y59809D01*
D02*
G37*
G36*
X67134Y58696D02*
X67393Y58624D01*
X67440Y58617D01*
X67479Y58615D01*
X67510Y58617D01*
X67535Y58623D01*
X67552Y58635D01*
X67774Y58291D01*
X67765Y58278D01*
X67757Y58255D01*
X67749Y58223D01*
X67741Y58182D01*
X67726Y58071D01*
X67698Y57737D01*
X67051Y58725D01*
X67134Y58696D01*
D02*
G37*
G36*
X17629Y57705D02*
X17605Y57708D01*
X17582Y57709D01*
X17561Y57709D01*
X17541Y57707D01*
X17522Y57704D01*
X17504Y57699D01*
X17488Y57692D01*
X17473Y57684D01*
X17459Y57675D01*
X17447Y57664D01*
X17164Y57947D01*
X17175Y57959D01*
X17184Y57973D01*
X17192Y57988D01*
X17199Y58004D01*
X17204Y58022D01*
X17207Y58041D01*
X17209Y58061D01*
X17209Y58082D01*
X17208Y58105D01*
X17205Y58129D01*
X17629Y57705D01*
D02*
G37*
G36*
X77732Y57162D02*
X78066Y57137D01*
X78107Y57139D01*
X78140Y57144D01*
X78164Y57152D01*
X78179Y57162D01*
X78462Y56879D01*
X78452Y56864D01*
X78444Y56840D01*
X78439Y56807D01*
X78437Y56766D01*
X78437Y56716D01*
X78444Y56591D01*
X78474Y56339D01*
X77639Y57174D01*
X77732Y57162D01*
D02*
G37*
G36*
X20102Y56100D02*
X20101Y56078D01*
X20101Y56056D01*
X20103Y56036D01*
X20107Y56017D01*
X20111Y55999D01*
X20118Y55983D01*
X20126Y55968D01*
X20135Y55954D01*
X20146Y55942D01*
X19863Y55659D01*
X19851Y55670D01*
X19837Y55680D01*
X19822Y55687D01*
X19806Y55694D01*
X19788Y55699D01*
X19770Y55702D01*
X19749Y55704D01*
X19728Y55704D01*
X19705Y55703D01*
X19681Y55700D01*
X20105Y56125D01*
X20102Y56100D01*
D02*
G37*
G36*
X27684Y65877D02*
Y59075D01*
X27593Y59014D01*
X27255D01*
X26943Y58884D01*
X26703Y58645D01*
X26574Y58333D01*
Y57995D01*
X26703Y57682D01*
X26943Y57443D01*
X27255Y57314D01*
X27593D01*
X27684Y57253D01*
Y51186D01*
X27519Y51075D01*
X27181D01*
X26869Y50946D01*
X26748Y50826D01*
X26355Y50793D01*
X26151Y50857D01*
X25986Y51021D01*
X25674Y51151D01*
X25336D01*
X25023Y51021D01*
X24784Y50782D01*
X24655Y50470D01*
Y50132D01*
X24784Y49819D01*
X25023Y49580D01*
X25336Y49451D01*
X25674D01*
X25986Y49580D01*
X26106Y49700D01*
X26500Y49733D01*
X26704Y49669D01*
X26869Y49505D01*
X27088Y49414D01*
X27226Y49081D01*
X27257Y48875D01*
X25584Y47203D01*
X25381D01*
X25069Y47073D01*
X24829Y46834D01*
X24772Y46696D01*
X24238Y46679D01*
X24183Y46812D01*
X23944Y47051D01*
X23917Y47062D01*
X23938Y47594D01*
X24081Y47653D01*
X24321Y47892D01*
X24450Y48205D01*
Y48543D01*
X24321Y48856D01*
X24081Y49095D01*
X23769Y49224D01*
X23431D01*
X23119Y49095D01*
X22879Y48856D01*
X22317Y48803D01*
X22195Y48892D01*
Y51739D01*
X22695Y51903D01*
X22818Y51779D01*
X23131Y51650D01*
X23469D01*
X23781Y51779D01*
X24021Y52018D01*
X24150Y52331D01*
Y52669D01*
X24021Y52982D01*
X23781Y53221D01*
X23469Y53350D01*
X23131D01*
X22818Y53221D01*
X22695Y53097D01*
X22195Y53261D01*
Y55922D01*
X22695Y56021D01*
X22779Y55818D01*
X23019Y55579D01*
X23331Y55450D01*
X23669D01*
X23981Y55579D01*
X24221Y55818D01*
X24350Y56131D01*
Y56469D01*
X24221Y56782D01*
X23981Y57021D01*
X23897Y57056D01*
X23881Y57590D01*
X24121Y57829D01*
X24250Y58142D01*
Y58480D01*
X24121Y58793D01*
X23881Y59032D01*
X23569Y59161D01*
X23231D01*
X22919Y59032D01*
X22695Y58808D01*
X22610Y58812D01*
X22195Y58930D01*
Y61042D01*
X27222Y66069D01*
X27684Y65877D01*
D02*
G37*
G36*
X66932Y56062D02*
X67266Y56037D01*
X67307Y56039D01*
X67339Y56044D01*
X67364Y56052D01*
X67379Y56062D01*
X67662Y55779D01*
X67652Y55764D01*
X67644Y55739D01*
X67639Y55707D01*
X67637Y55666D01*
X67637Y55616D01*
X67644Y55491D01*
X67674Y55239D01*
X66839Y56074D01*
X66932Y56062D01*
D02*
G37*
G36*
X76577Y65869D02*
Y60043D01*
X76495Y60009D01*
X76050Y59564D01*
X75809Y58981D01*
Y58351D01*
X76050Y57769D01*
X76439Y57380D01*
X76157Y57097D01*
X75916Y56515D01*
Y55885D01*
X76157Y55303D01*
X76489Y54971D01*
X76206Y54547D01*
X76115Y54584D01*
X75485D01*
X75313Y54513D01*
X75103Y54654D01*
X74791Y54716D01*
X74791Y54716D01*
X71000D01*
X70688Y54654D01*
X70423Y54477D01*
X70423Y54477D01*
X69762Y53816D01*
X68309D01*
X68090Y54316D01*
X68284Y54785D01*
Y55415D01*
X68250Y55497D01*
X70777Y58023D01*
X70777Y58023D01*
X70954Y58288D01*
X71016Y58600D01*
X71016Y58600D01*
Y66700D01*
X71016Y66700D01*
X70954Y67012D01*
X70777Y67277D01*
X69431Y68622D01*
X69622Y69084D01*
X73362D01*
X76577Y65869D01*
D02*
G37*
G36*
X74818Y53062D02*
X74823Y53157D01*
X74821Y53540D01*
X74815Y53572D01*
X74807Y53596D01*
X74797Y53611D01*
X75057Y53917D01*
X75073Y53906D01*
X75098Y53899D01*
X75130Y53895D01*
X75171Y53895D01*
X75220Y53897D01*
X75341Y53913D01*
X75495Y53941D01*
X75585Y53961D01*
X74818Y53062D01*
D02*
G37*
G36*
X58944Y53516D02*
X59162Y53263D01*
X59193Y53235D01*
X59220Y53216D01*
X59242Y53204D01*
X59261Y53200D01*
Y52800D01*
X59242Y52796D01*
X59220Y52784D01*
X59193Y52765D01*
X59162Y52737D01*
X59127Y52702D01*
X59044Y52609D01*
X58887Y52409D01*
Y53591D01*
X58944Y53516D01*
D02*
G37*
G36*
X16917Y55868D02*
X16979Y55718D01*
X17165Y55533D01*
X17200Y55273D01*
X17171Y54958D01*
X16994Y54782D01*
X16865Y54469D01*
Y54131D01*
X16994Y53819D01*
X17233Y53579D01*
X17353Y53530D01*
Y52989D01*
X17255Y52948D01*
X17016Y52709D01*
X16886Y52396D01*
Y52058D01*
X17016Y51746D01*
X17255Y51507D01*
X17567Y51377D01*
X17905D01*
X18218Y51507D01*
X18394Y51683D01*
X18589Y51738D01*
X18985Y51713D01*
X19118Y51579D01*
X19431Y51450D01*
X19769D01*
X20255Y51110D01*
Y47797D01*
X16171Y43713D01*
X15996Y43292D01*
Y43078D01*
X15910Y42988D01*
X15496Y42786D01*
X15341Y42850D01*
X15003D01*
X14516Y43189D01*
Y51229D01*
X15016Y51556D01*
X15031Y51550D01*
X15369D01*
X15682Y51679D01*
X15921Y51919D01*
X16050Y52231D01*
Y52569D01*
X15921Y52881D01*
X15682Y53121D01*
X15369Y53250D01*
X15031D01*
X15016Y53244D01*
X14516Y53571D01*
Y54174D01*
X16357Y56015D01*
X16470Y56019D01*
X16917Y55868D01*
D02*
G37*
G36*
X26093Y46587D02*
X26082Y46575D01*
X26072Y46561D01*
X26064Y46546D01*
X26058Y46530D01*
X26052Y46512D01*
X26048Y46493D01*
X26046Y46473D01*
X26045Y46452D01*
X26045Y46429D01*
X26047Y46405D01*
X25639Y46845D01*
X25663Y46841D01*
X25686Y46839D01*
X25707Y46839D01*
X25728Y46840D01*
X25747Y46843D01*
X25764Y46847D01*
X25780Y46853D01*
X25796Y46861D01*
X25809Y46870D01*
X25822Y46881D01*
X26093Y46587D01*
D02*
G37*
G36*
X23221Y46855D02*
X23235Y46846D01*
X23250Y46838D01*
X23267Y46832D01*
X23284Y46827D01*
X23303Y46823D01*
X23323Y46821D01*
X23345Y46821D01*
X23368Y46822D01*
X23392Y46825D01*
X22967Y46401D01*
X22970Y46425D01*
X22971Y46448D01*
X22971Y46469D01*
X22969Y46490D01*
X22966Y46508D01*
X22961Y46526D01*
X22955Y46542D01*
X22947Y46557D01*
X22937Y46571D01*
X22926Y46584D01*
X23209Y46866D01*
X23221Y46855D01*
D02*
G37*
G36*
X35551Y44942D02*
X35554Y44925D01*
X35559Y44909D01*
X35566Y44893D01*
X35575Y44877D01*
X35586Y44861D01*
X35599Y44846D01*
X35614Y44830D01*
X35631Y44815D01*
X35650Y44800D01*
X35050D01*
X35069Y44815D01*
X35086Y44830D01*
X35101Y44846D01*
X35114Y44861D01*
X35125Y44877D01*
X35134Y44893D01*
X35141Y44909D01*
X35146Y44925D01*
X35149Y44942D01*
X35150Y44958D01*
X35550D01*
X35551Y44942D01*
D02*
G37*
G36*
X26036Y42653D02*
X26025Y42641D01*
X26016Y42627D01*
X26008Y42612D01*
X26001Y42596D01*
X25996Y42578D01*
X25993Y42559D01*
X25991Y42539D01*
X25991Y42518D01*
X25992Y42495D01*
X25995Y42471D01*
X25571Y42895D01*
X25595Y42892D01*
X25618Y42891D01*
X25639Y42891D01*
X25659Y42893D01*
X25678Y42896D01*
X25696Y42901D01*
X25712Y42908D01*
X25727Y42916D01*
X25741Y42925D01*
X25753Y42936D01*
X26036Y42653D01*
D02*
G37*
G36*
X35715Y42638D02*
X35730Y42621D01*
X35746Y42606D01*
X35761Y42594D01*
X35777Y42582D01*
X35793Y42573D01*
X35809Y42566D01*
X35825Y42562D01*
X35842Y42559D01*
X35858Y42557D01*
Y42158D01*
X35842Y42156D01*
X35825Y42153D01*
X35809Y42149D01*
X35793Y42142D01*
X35777Y42132D01*
X35761Y42121D01*
X35746Y42109D01*
X35730Y42094D01*
X35715Y42077D01*
X35700Y42057D01*
Y42658D01*
X35715Y42638D01*
D02*
G37*
G36*
X27897Y40756D02*
X27886Y40744D01*
X27877Y40730D01*
X27869Y40715D01*
X27862Y40699D01*
X27857Y40681D01*
X27854Y40662D01*
X27852Y40642D01*
X27852Y40620D01*
X27853Y40598D01*
X27856Y40574D01*
X27432Y40998D01*
X27456Y40995D01*
X27479Y40994D01*
X27500Y40994D01*
X27520Y40996D01*
X27539Y40999D01*
X27557Y41004D01*
X27573Y41011D01*
X27588Y41019D01*
X27602Y41028D01*
X27614Y41039D01*
X27897Y40756D01*
D02*
G37*
G36*
X82526Y38439D02*
X82538Y38532D01*
X82563Y38866D01*
X82561Y38907D01*
X82556Y38939D01*
X82548Y38964D01*
X82538Y38979D01*
X82821Y39262D01*
X82836Y39252D01*
X82860Y39244D01*
X82893Y39239D01*
X82934Y39237D01*
X82984Y39237D01*
X83109Y39244D01*
X83361Y39274D01*
X82526Y38439D01*
D02*
G37*
G36*
X74998Y39590D02*
X75022Y39582D01*
X75055Y39576D01*
X75096Y39572D01*
X75146Y39569D01*
X75351Y39571D01*
X75531Y39582D01*
X74638Y38809D01*
X74657Y38898D01*
X74699Y39175D01*
X74702Y39224D01*
X74701Y39265D01*
X74697Y39297D01*
X74690Y39322D01*
X74679Y39338D01*
X74983Y39600D01*
X74998Y39590D01*
D02*
G37*
G36*
X27888Y36503D02*
X27887Y36480D01*
X27888Y36459D01*
X27890Y36438D01*
X27893Y36419D01*
X27898Y36402D01*
X27904Y36386D01*
X27912Y36371D01*
X27922Y36357D01*
X27933Y36344D01*
X27652Y36060D01*
X27640Y36071D01*
X27626Y36080D01*
X27611Y36088D01*
X27595Y36094D01*
X27577Y36099D01*
X27558Y36102D01*
X27538Y36104D01*
X27516Y36104D01*
X27494Y36103D01*
X27469Y36100D01*
X27891Y36527D01*
X27888Y36503D01*
D02*
G37*
G36*
X37848Y36426D02*
X37848Y36403D01*
X37849Y36382D01*
X37852Y36362D01*
X37857Y36343D01*
X37862Y36326D01*
X37869Y36310D01*
X37878Y36295D01*
X37887Y36281D01*
X37898Y36269D01*
X37636Y35965D01*
X37624Y35976D01*
X37610Y35985D01*
X37595Y35993D01*
X37579Y35999D01*
X37561Y36003D01*
X37542Y36005D01*
X37522Y36006D01*
X37501Y36005D01*
X37478Y36002D01*
X37454Y35998D01*
X37849Y36450D01*
X37848Y36426D01*
D02*
G37*
G36*
X37969Y34731D02*
X37958Y34718D01*
X37949Y34705D01*
X37940Y34690D01*
X37933Y34673D01*
X37928Y34656D01*
X37923Y34637D01*
X37920Y34617D01*
X37919Y34596D01*
X37919Y34574D01*
X37920Y34550D01*
X37523Y35000D01*
X37548Y34996D01*
X37570Y34993D01*
X37592Y34992D01*
X37612Y34993D01*
X37631Y34995D01*
X37649Y34999D01*
X37665Y35005D01*
X37680Y35013D01*
X37694Y35022D01*
X37706Y35033D01*
X37969Y34731D01*
D02*
G37*
G36*
X27811Y34907D02*
X27826Y34890D01*
X27841Y34875D01*
X27857Y34862D01*
X27873Y34851D01*
X27889Y34842D01*
X27905Y34835D01*
X27921Y34830D01*
X27937Y34827D01*
X27954Y34826D01*
Y34426D01*
X27937Y34425D01*
X27921Y34422D01*
X27905Y34417D01*
X27889Y34410D01*
X27873Y34401D01*
X27857Y34390D01*
X27841Y34377D01*
X27826Y34362D01*
X27811Y34345D01*
X27795Y34326D01*
Y34926D01*
X27811Y34907D01*
D02*
G37*
G36*
X71841Y32339D02*
X71854Y32432D01*
X71879Y32766D01*
X71876Y32807D01*
X71871Y32840D01*
X71864Y32864D01*
X71854Y32879D01*
X72136Y33162D01*
X72152Y33152D01*
X72176Y33144D01*
X72209Y33139D01*
X72250Y33137D01*
X72300Y33137D01*
X72425Y33144D01*
X72676Y33174D01*
X71841Y32339D01*
D02*
G37*
G36*
X59044Y29816D02*
X59262Y29563D01*
X59293Y29535D01*
X59320Y29516D01*
X59342Y29504D01*
X59361Y29500D01*
Y29100D01*
X59342Y29096D01*
X59320Y29084D01*
X59293Y29065D01*
X59262Y29037D01*
X59227Y29002D01*
X59144Y28909D01*
X58987Y28709D01*
Y29891D01*
X59044Y29816D01*
D02*
G37*
G36*
X74704Y28842D02*
X74716Y28820D01*
X74735Y28793D01*
X74762Y28762D01*
X74798Y28727D01*
X74891Y28644D01*
X75090Y28487D01*
X73909D01*
X73984Y28544D01*
X74238Y28762D01*
X74265Y28793D01*
X74284Y28820D01*
X74296Y28842D01*
X74300Y28861D01*
X74700D01*
X74704Y28842D01*
D02*
G37*
G36*
X66485Y36316D02*
X67115D01*
X67484Y36469D01*
X67934Y36241D01*
X67961Y36218D01*
X67992Y36179D01*
X68046Y35904D01*
X68223Y35639D01*
X71265Y32597D01*
X71232Y32515D01*
Y31885D01*
X71473Y31303D01*
X71918Y30857D01*
X72501Y30616D01*
X73131D01*
X73269Y30673D01*
X73684Y30395D01*
Y29077D01*
X73603Y29043D01*
X73157Y28597D01*
X72916Y28015D01*
Y27484D01*
X72485D01*
X71903Y27243D01*
X71457Y26797D01*
X71216Y26215D01*
Y25585D01*
X70819Y25235D01*
X70546Y25208D01*
X69427Y26327D01*
X69162Y26504D01*
X68850Y26566D01*
X68850Y26566D01*
X68628D01*
X68293Y27066D01*
X68384Y27285D01*
Y27915D01*
X68143Y28497D01*
X67697Y28943D01*
X67115Y29184D01*
X66485D01*
X65903Y28943D01*
X65825Y28958D01*
X65643Y29397D01*
X65241Y29800D01*
X65643Y30203D01*
X65884Y30785D01*
Y31415D01*
X65643Y31997D01*
X65197Y32443D01*
X65039Y32509D01*
Y33050D01*
X65297Y33157D01*
X65743Y33603D01*
X65984Y34185D01*
Y34815D01*
X65743Y35397D01*
X65390Y35750D01*
X65743Y36103D01*
X65927Y36547D01*
X66485Y36316D01*
D02*
G37*
G36*
X77261Y25157D02*
X77168Y25170D01*
X76834Y25195D01*
X76793Y25192D01*
X76761Y25187D01*
X76736Y25179D01*
X76721Y25169D01*
X76438Y25452D01*
X76448Y25468D01*
X76456Y25492D01*
X76461Y25525D01*
X76463Y25566D01*
X76463Y25616D01*
X76456Y25741D01*
X76426Y25992D01*
X77261Y25157D01*
D02*
G37*
G36*
X21904Y19542D02*
X21916Y19520D01*
X21935Y19493D01*
X21962Y19462D01*
X21998Y19427D01*
X22091Y19344D01*
X22290Y19187D01*
X21110D01*
X21184Y19244D01*
X21438Y19462D01*
X21465Y19493D01*
X21484Y19520D01*
X21496Y19542D01*
X21500Y19561D01*
X21900D01*
X21904Y19542D01*
D02*
G37*
G36*
X19438Y19425D02*
X19450Y19402D01*
X19469Y19376D01*
X19497Y19345D01*
X19532Y19310D01*
X19626Y19227D01*
X19825Y19070D01*
X18644D01*
X18718Y19126D01*
X18972Y19345D01*
X18999Y19376D01*
X19019Y19402D01*
X19030Y19425D01*
X19034Y19443D01*
X19434D01*
X19438Y19425D01*
D02*
G37*
%LPC*%
G36*
X25969Y61350D02*
X25631D01*
X25319Y61221D01*
X25079Y60982D01*
X24950Y60669D01*
Y60331D01*
X25079Y60018D01*
X25319Y59779D01*
X25631Y59650D01*
X25969D01*
X26281Y59779D01*
X26521Y60018D01*
X26650Y60331D01*
Y60669D01*
X26521Y60982D01*
X26281Y61221D01*
X25969Y61350D01*
D02*
G37*
G36*
X25640Y55121D02*
X25302D01*
X24990Y54992D01*
X24751Y54753D01*
X24621Y54440D01*
Y54102D01*
X24751Y53790D01*
X24990Y53551D01*
X25302Y53421D01*
X25640D01*
X25953Y53551D01*
X26192Y53790D01*
X26321Y54102D01*
Y54440D01*
X26192Y54753D01*
X25953Y54992D01*
X25640Y55121D01*
D02*
G37*
%LPD*%
G36*
X41161Y23226D02*
X41068Y23238D01*
X40734Y23263D01*
X40693Y23261D01*
X40661Y23256D01*
X40636Y23248D01*
X40621Y23238D01*
X40338Y23521D01*
X40348Y23536D01*
X40356Y23561D01*
X40361Y23593D01*
X40363Y23634D01*
X40363Y23684D01*
X40356Y23809D01*
X40326Y24061D01*
X41161Y23226D01*
D02*
G37*
G36*
X37691Y23772D02*
X37617Y23514D01*
X37610Y23468D01*
X37607Y23429D01*
X37609Y23398D01*
X37615Y23373D01*
X37626Y23356D01*
X37280Y23137D01*
X37267Y23146D01*
X37244Y23154D01*
X37212Y23163D01*
X37171Y23171D01*
X36990Y23195D01*
X36726Y23219D01*
X37721Y23854D01*
X37691Y23772D01*
D02*
G37*
G36*
X36904Y4642D02*
X36916Y4620D01*
X36935Y4593D01*
X36963Y4562D01*
X36998Y4527D01*
X37091Y4444D01*
X37291Y4287D01*
X36109D01*
X36184Y4344D01*
X36437Y4562D01*
X36465Y4593D01*
X36484Y4620D01*
X36496Y4642D01*
X36500Y4661D01*
X36900D01*
X36904Y4642D01*
D02*
G37*
G36*
X39504Y4648D02*
X39516Y4626D01*
X39536Y4599D01*
X39564Y4569D01*
X39599Y4535D01*
X39694Y4455D01*
X39821Y4360D01*
X39897Y4306D01*
X38716Y4268D01*
X38789Y4327D01*
X39039Y4555D01*
X39065Y4586D01*
X39085Y4613D01*
X39096Y4636D01*
X39100Y4654D01*
X39500Y4667D01*
X39504Y4648D01*
D02*
G37*
D58*
X36100Y61600D02*
X40600Y66100D01*
X30300Y64900D02*
X33300Y67900D01*
X28500Y49277D02*
Y67100D01*
X29400Y46300D02*
Y65400D01*
X66700Y55100D02*
X70200Y58600D01*
X27395Y34626D02*
X33987D01*
X74500Y27700D02*
Y33100D01*
X20850Y47550D02*
Y54955D01*
X16592Y32100D02*
Y43292D01*
X20850Y47550D01*
X39300Y3531D02*
Y22200D01*
Y3531D02*
X39331Y3500D01*
X36700D02*
Y5800D01*
X13700Y30900D02*
X19234Y25366D01*
Y18283D02*
Y25366D01*
X13700Y30900D02*
Y54200D01*
X17700Y58200D01*
X16592Y31008D02*
Y32100D01*
X21700Y18400D02*
Y25900D01*
X16592Y31008D02*
X21700Y25900D01*
X75691Y53000D02*
X75800D01*
X71000Y53900D02*
X74791D01*
X70100Y53000D02*
X71000Y53900D01*
X74791D02*
X75691Y53000D01*
X58100D02*
X70100D01*
X58200Y29300D02*
X60900D01*
X35300Y42358D02*
X37058D01*
X38600Y43900D02*
Y46873D01*
X37058Y42358D02*
X38600Y43900D01*
X36100Y49373D02*
X38600Y46873D01*
X36100Y49373D02*
Y61600D01*
X35350Y62600D02*
X39750Y67000D01*
X64700D01*
X40600Y66100D02*
X63500D01*
X32900Y68900D02*
X68000D01*
X31300Y69900D02*
X73700D01*
X74100Y71100D02*
X79500Y65700D01*
X29400Y65400D02*
X32900Y68900D01*
X33300Y67900D02*
X67100D01*
X21600Y61600D02*
X31100Y71100D01*
X74100D01*
X67100Y67900D02*
X69300Y65700D01*
X73700Y69900D02*
X77393Y66207D01*
X68000Y68900D02*
X70200Y66700D01*
X28500Y67100D02*
X31300Y69900D01*
X27400Y36595D02*
X28594Y35400D01*
X27395Y36595D02*
X27400D01*
X35350Y44400D02*
Y62600D01*
X33700Y35400D02*
X36900Y38600D01*
X28594Y35400D02*
X33700D01*
X37061Y37700D02*
X39200D01*
X36900Y38600D02*
X39500D01*
X33987Y34626D02*
X37061Y37700D01*
X37350Y36487D02*
X37397D01*
X37884Y36000D02*
X43700D01*
X37397Y36487D02*
X37884Y36000D01*
X36800Y23900D02*
Y24200D01*
Y23900D02*
X38400Y22300D01*
X30300Y43442D02*
Y64900D01*
X27361Y40503D02*
X30300Y43442D01*
X25500Y42400D02*
X29400Y46300D01*
X25576Y46353D02*
X28500Y49277D01*
X19610Y56195D02*
X20850Y54955D01*
X25550Y46353D02*
X25576D01*
X21600Y48193D02*
Y61600D01*
Y48193D02*
X23462Y46330D01*
X36700Y5800D02*
X38400Y7500D01*
Y22300D01*
X39300Y22200D02*
X41300Y24200D01*
X37422Y34510D02*
X37466D01*
X37956Y35000D01*
X76900Y39800D02*
X82000D01*
X71900Y44800D02*
X76900Y39800D01*
X71900Y44800D02*
Y47900D01*
X82000Y39800D02*
X83500Y38300D01*
X69400Y50400D02*
X71900Y47900D01*
X63227Y50400D02*
X69400D01*
X62427Y49600D02*
X63227Y50400D01*
X62300Y49600D02*
X62427D01*
X60600Y47900D02*
X62300Y49600D01*
X60600Y40400D02*
Y47900D01*
X58500Y36900D02*
X61500Y39900D01*
Y47400D01*
X63400Y38900D02*
Y46100D01*
X62500Y46900D02*
X64200Y48600D01*
X64864Y47564D02*
X67536D01*
X64200Y48600D02*
X68400D01*
X63400Y46100D02*
X64864Y47564D01*
X63600Y49500D02*
X68900D01*
X62500Y39400D02*
Y46900D01*
X61500Y47400D02*
X63600Y49500D01*
X58000Y37800D02*
X60600Y40400D01*
X40300Y37800D02*
X58000D01*
X37956Y35000D02*
X43700D01*
X40000Y36900D02*
X58500D01*
X43700Y36000D02*
X59100D01*
X43700Y35000D02*
X59500D01*
X39200Y37700D02*
X40000Y36900D01*
X59100Y36000D02*
X62500Y39400D01*
X59500Y35000D02*
X63400Y38900D01*
X39500Y38600D02*
X40300Y37800D01*
X71000Y43300D02*
Y47400D01*
X68900Y49500D02*
X71000Y47400D01*
Y43300D02*
X75600Y38700D01*
Y38600D02*
Y38700D01*
X69900Y37700D02*
X74500Y33100D01*
X68400Y48600D02*
X69900Y47100D01*
Y37700D02*
Y47100D01*
X68800Y36216D02*
X72816Y32200D01*
X68800Y36216D02*
Y46300D01*
X72816Y32200D02*
X72816D01*
X67536Y47564D02*
X68800Y46300D01*
X70500Y24100D02*
X75368D01*
X68850Y25750D02*
X70500Y24100D01*
X63500Y66100D02*
X64400Y65200D01*
Y63200D02*
Y65200D01*
X65800Y60400D02*
X66500Y61100D01*
X64400Y60400D02*
X65800D01*
X67000Y57800D02*
X69300Y60100D01*
X66716Y57800D02*
X67000D01*
X70200Y58600D02*
Y66700D01*
X69300Y60100D02*
Y65700D01*
X66500Y61100D02*
Y65200D01*
X64700Y67000D02*
X66500Y65200D01*
X77500Y56200D02*
X79500Y58200D01*
Y65700D01*
X77393Y58666D02*
Y66207D01*
X75368Y24100D02*
X77400Y26131D01*
X64450Y25750D02*
X68850D01*
X60900Y29300D02*
X64450Y25750D01*
D60*
X89300Y77300D02*
X92000D01*
X106000Y63300D01*
Y49600D02*
Y63300D01*
X104100Y47700D02*
X106000Y49600D01*
D61*
X39300Y42400D02*
D03*
X41400Y46600D02*
D03*
X29700Y31600D02*
D03*
X29513Y36510D02*
D03*
X41717Y41517D02*
D03*
X41800Y43400D02*
D03*
X41700Y51200D02*
D03*
X19600Y36500D02*
D03*
X14800Y40300D02*
D03*
X29500Y33200D02*
D03*
X27395Y34626D02*
D03*
X25471Y54271D02*
D03*
X39250Y56150D02*
D03*
X15200Y52400D02*
D03*
X15172Y42000D02*
D03*
X21600Y38500D02*
D03*
X19610Y38479D02*
D03*
Y44384D02*
D03*
X21568Y42427D02*
D03*
X25505Y50301D02*
D03*
X21568Y36500D02*
D03*
X21600Y34400D02*
D03*
X19339Y32668D02*
D03*
X21900Y32100D02*
D03*
X33224Y52169D02*
D03*
X33371Y38463D02*
D03*
X33360Y50260D02*
D03*
X36500Y33000D02*
D03*
X32800Y61700D02*
D03*
X14800Y43700D02*
D03*
X13900Y57200D02*
D03*
X13904Y58968D02*
D03*
X41700Y52900D02*
D03*
X15100Y34199D02*
D03*
X27400Y56279D02*
D03*
X23600Y40394D02*
D03*
X37386Y44385D02*
D03*
X37374Y46400D02*
D03*
X37300Y50263D02*
D03*
X33393Y58107D02*
D03*
X33400Y42426D02*
D03*
X33423Y44377D02*
D03*
X33300Y48348D02*
D03*
X27395Y36595D02*
D03*
X25800Y60500D02*
D03*
X31485Y60400D02*
D03*
X25516Y38479D02*
D03*
X41000Y33400D02*
D03*
X41800Y39100D02*
D03*
X25800Y34200D02*
D03*
X33285Y56300D02*
D03*
X31500Y56116D02*
D03*
X37300Y54254D02*
D03*
X39300Y50300D02*
D03*
X19528Y50269D02*
D03*
X37327Y40447D02*
D03*
X19626Y42400D02*
D03*
X33300Y36600D02*
D03*
X37350Y36487D02*
D03*
X31400Y54248D02*
D03*
X27424Y58164D02*
D03*
X31400Y58200D02*
D03*
X31482Y50290D02*
D03*
X17715Y54300D02*
D03*
X19634Y54250D02*
D03*
X17700Y56200D02*
D03*
Y58200D02*
D03*
X19610Y56195D02*
D03*
X35388Y40477D02*
D03*
X35350Y44400D02*
D03*
X33500Y33300D02*
D03*
X37327Y56135D02*
D03*
X37300Y58191D02*
D03*
X23500Y56300D02*
D03*
X27350Y50225D02*
D03*
X27361Y40503D02*
D03*
X19600Y58153D02*
D03*
X25527Y36521D02*
D03*
X25550Y46353D02*
D03*
X23600Y48374D02*
D03*
X23540Y44392D02*
D03*
X17642Y42355D02*
D03*
X19600Y52300D02*
D03*
X23300Y52500D02*
D03*
X17736Y52227D02*
D03*
X35300Y42358D02*
D03*
X37422Y34510D02*
D03*
X23400Y58311D02*
D03*
X25500Y42400D02*
D03*
X23462Y46330D02*
D03*
D62*
X73100Y49200D02*
D03*
X47400Y41500D02*
D03*
X66700Y55100D02*
D03*
X53800Y12832D02*
D03*
X54100Y63200D02*
D03*
X109100Y25500D02*
D03*
X64300Y31100D02*
D03*
Y28500D02*
D03*
X77400Y31100D02*
D03*
Y28600D02*
D03*
X74500Y27700D02*
D03*
X89300Y77300D02*
D03*
X46200Y74400D02*
D03*
X104100Y47700D02*
D03*
X41300Y74400D02*
D03*
X46200Y76900D02*
D03*
X43800Y74400D02*
D03*
X101600Y74800D02*
D03*
Y77200D02*
D03*
Y72300D02*
D03*
X92000Y77300D02*
D03*
X47405Y28689D02*
D03*
X47400Y21100D02*
D03*
X64400Y63200D02*
D03*
X55700Y32800D02*
D03*
X55100Y22900D02*
D03*
X53800Y15400D02*
D03*
X64400Y60400D02*
D03*
X53900Y18000D02*
D03*
X57900Y22500D02*
D03*
X58300Y58400D02*
D03*
X47400Y26100D02*
D03*
X58300Y16400D02*
D03*
X58100Y47800D02*
D03*
X58300Y32800D02*
D03*
X58200Y44800D02*
D03*
X56400Y56400D02*
D03*
X64400Y37000D02*
D03*
X58100Y53000D02*
D03*
Y50500D02*
D03*
X58200Y29300D02*
D03*
X56900Y39700D02*
D03*
X47400Y23569D02*
D03*
X64400Y34500D02*
D03*
X58100Y42300D02*
D03*
X54300Y20500D02*
D03*
X47700Y49800D02*
D03*
Y47100D02*
D03*
X47400Y55100D02*
D03*
X54100Y53600D02*
D03*
X36700Y3500D02*
D03*
X34132D02*
D03*
X39331D02*
D03*
X31431D02*
D03*
X28400Y3700D02*
D03*
X42000Y3000D02*
D03*
X116300Y34400D02*
D03*
X111200D02*
D03*
X113800D02*
D03*
X108600D02*
D03*
X111100Y46000D02*
D03*
X108600Y48500D02*
D03*
X113600D02*
D03*
X116200Y43500D02*
D03*
Y46000D02*
D03*
X113600D02*
D03*
Y43500D02*
D03*
X116100Y48500D02*
D03*
X111100D02*
D03*
X108600Y46000D02*
D03*
Y43500D02*
D03*
X111100D02*
D03*
X113700Y39500D02*
D03*
X108600Y37000D02*
D03*
X108500Y39600D02*
D03*
X113800Y37000D02*
D03*
X111200D02*
D03*
X111100Y39600D02*
D03*
X116200D02*
D03*
X116300Y37000D02*
D03*
X83200Y1500D02*
D03*
X85700Y1600D02*
D03*
X88200D02*
D03*
X102400D02*
D03*
X99800D02*
D03*
X97200D02*
D03*
X94600D02*
D03*
X113700Y16000D02*
D03*
X111300Y16600D02*
D03*
X108800Y16500D02*
D03*
X106400Y15700D02*
D03*
X104300Y14300D02*
D03*
X102600Y12400D02*
D03*
X45400Y60000D02*
D03*
X95700Y42900D02*
D03*
X98300Y43000D02*
D03*
X100600Y44200D02*
D03*
X102300Y46000D02*
D03*
X45600Y19100D02*
D03*
X47500Y14900D02*
D03*
Y17400D02*
D03*
X17300Y23500D02*
D03*
X19234Y18283D02*
D03*
X12600Y23100D02*
D03*
X3600Y16800D02*
D03*
X9700Y21900D02*
D03*
X99100Y65700D02*
D03*
X91500D02*
D03*
X94000D02*
D03*
X96500D02*
D03*
X92800Y63500D02*
D03*
X95300D02*
D03*
X115700Y58000D02*
D03*
X113300D02*
D03*
X111000D02*
D03*
X108600D02*
D03*
Y60400D02*
D03*
X111000D02*
D03*
X113300D02*
D03*
X115600D02*
D03*
X104000Y77200D02*
D03*
X17000Y3600D02*
D03*
X18600Y1300D02*
D03*
X16300D02*
D03*
X14000D02*
D03*
X1400Y15600D02*
D03*
Y18000D02*
D03*
Y20300D02*
D03*
X73800Y56300D02*
D03*
X73700Y58700D02*
D03*
X75800Y53000D02*
D03*
X16900Y74700D02*
D03*
X19300Y77100D02*
D03*
X1600Y62000D02*
D03*
X3800Y63100D02*
D03*
X1600Y64300D02*
D03*
X54600Y42100D02*
D03*
Y44600D02*
D03*
Y47100D02*
D03*
Y49600D02*
D03*
X84600Y40800D02*
D03*
Y43200D02*
D03*
Y45700D02*
D03*
Y48100D02*
D03*
Y50600D02*
D03*
X102800Y61500D02*
D03*
X87400Y49200D02*
D03*
X86600Y28100D02*
D03*
Y25300D02*
D03*
X88800Y26200D02*
D03*
X90500Y28000D02*
D03*
X100800Y27200D02*
D03*
X102400Y25300D02*
D03*
X104100Y27200D02*
D03*
X105700Y25300D02*
D03*
X107300Y27100D02*
D03*
X36500Y10600D02*
D03*
X43800Y76900D02*
D03*
X41300D02*
D03*
X99700Y11400D02*
D03*
X91200Y1600D02*
D03*
X73600Y11000D02*
D03*
Y13500D02*
D03*
X79100Y2600D02*
D03*
X76100D02*
D03*
X29700Y6100D02*
D03*
X97800Y63500D02*
D03*
X35400Y29200D02*
D03*
X21700Y18400D02*
D03*
X41300Y21600D02*
D03*
X25400Y27300D02*
D03*
X27100Y19500D02*
D03*
X24100Y20200D02*
D03*
X12600Y18200D02*
D03*
Y20600D02*
D03*
X5300Y30300D02*
D03*
Y33400D02*
D03*
X2200Y42500D02*
D03*
X4572D02*
D03*
X17200Y64200D02*
D03*
X14600D02*
D03*
X5200Y39700D02*
D03*
X29700Y19400D02*
D03*
X34300Y21700D02*
D03*
X36800Y24200D02*
D03*
X47000Y3300D02*
D03*
X33200Y24500D02*
D03*
X41300Y24200D02*
D03*
X44684Y16600D02*
D03*
X44500Y13800D02*
D03*
X66800Y43100D02*
D03*
X66700Y45700D02*
D03*
X75600Y38600D02*
D03*
X73100Y38100D02*
D03*
X72816Y32200D02*
D03*
X67000Y33500D02*
D03*
X72800Y21900D02*
D03*
X83500Y38300D02*
D03*
X77300Y44800D02*
D03*
Y42200D02*
D03*
X73100Y51800D02*
D03*
X77200Y47700D02*
D03*
X77000Y50500D02*
D03*
X66716Y57800D02*
D03*
X83600Y63600D02*
D03*
X77393Y58666D02*
D03*
X77500Y56200D02*
D03*
X84200Y61100D02*
D03*
X66800Y37900D02*
D03*
Y40400D02*
D03*
X77500Y34468D02*
D03*
Y36937D02*
D03*
X77400Y26131D02*
D03*
X83400Y32700D02*
D03*
X77400Y22900D02*
D03*
X64600Y15879D02*
D03*
Y13400D02*
D03*
X67000Y23984D02*
D03*
X66600Y20616D02*
D03*
Y18147D02*
D03*
X72800Y25900D02*
D03*
X66800Y27600D02*
D03*
M02*
