G04*
G04 #@! TF.GenerationSoftware,Altium Limited,Altium Designer,21.3.2 (30)*
G04*
G04 Layer_Color=8388736*
%FSLAX25Y25*%
%MOIN*%
G70*
G04*
G04 #@! TF.SameCoordinates,20047665-8901-4395-8F35-5F40874213DC*
G04*
G04*
G04 #@! TF.FilePolarity,Positive*
G04*
G01*
G75*
%ADD15C,0.00500*%
%ADD65C,0.00197*%
%ADD66C,0.00100*%
%ADD68R,0.01968X0.01181*%
%ADD69R,0.03150X0.01575*%
%ADD71R,0.01181X0.01968*%
G36*
X99967Y58363D02*
X99978Y58351D01*
X99984Y58337D01*
Y58329D01*
Y57621D01*
Y57613D01*
X99978Y57598D01*
X99967Y57587D01*
X99953Y57581D01*
X98047D01*
X98033Y57587D01*
X98022Y57598D01*
X98016Y57613D01*
Y57621D01*
Y58329D01*
Y58337D01*
X98022Y58351D01*
X98033Y58363D01*
X98047Y58368D01*
X99953D01*
X99967Y58363D01*
D02*
G37*
G36*
Y55213D02*
X99978Y55202D01*
X99984Y55187D01*
X99984Y55180D01*
Y54471D01*
Y54463D01*
X99978Y54449D01*
X99967Y54438D01*
X99953Y54431D01*
X98047D01*
X98033Y54438D01*
X98022Y54449D01*
X98016Y54463D01*
Y54471D01*
Y55180D01*
Y55187D01*
X98022Y55202D01*
X98033Y55213D01*
X98047Y55219D01*
X99953D01*
X99967Y55213D01*
D02*
G37*
G36*
X11451Y41778D02*
X11462Y41767D01*
X11468Y41753D01*
Y41745D01*
Y39855D01*
Y39847D01*
X11462Y39833D01*
X11451Y39822D01*
X11437Y39816D01*
X10713D01*
X10698Y39822D01*
X10687Y39833D01*
X10681Y39847D01*
Y39855D01*
Y41745D01*
Y41753D01*
X10687Y41767D01*
X10698Y41778D01*
X10713Y41784D01*
X11437D01*
X11451Y41778D01*
D02*
G37*
G36*
X8302D02*
X8313Y41767D01*
X8319Y41753D01*
Y41745D01*
Y39855D01*
Y39847D01*
X8313Y39833D01*
X8302Y39822D01*
X8287Y39816D01*
X8280Y39816D01*
X7563D01*
X7549Y39822D01*
X7537Y39833D01*
X7531Y39847D01*
Y39855D01*
Y41745D01*
Y41753D01*
X7537Y41767D01*
X7549Y41778D01*
X7563Y41784D01*
X8287D01*
X8302Y41778D01*
D02*
G37*
G36*
X38767Y31163D02*
X38778Y31151D01*
X38784Y31137D01*
Y31129D01*
Y30421D01*
Y30413D01*
X38778Y30398D01*
X38767Y30387D01*
X38753Y30381D01*
X36847D01*
X36833Y30387D01*
X36822Y30398D01*
X36816Y30413D01*
Y30421D01*
Y31129D01*
Y31137D01*
X36822Y31151D01*
X36833Y31163D01*
X36847Y31168D01*
X38753D01*
X38767Y31163D01*
D02*
G37*
G36*
X34267D02*
X34278Y31151D01*
X34284Y31137D01*
Y31129D01*
Y30421D01*
Y30413D01*
X34278Y30398D01*
X34267Y30387D01*
X34253Y30381D01*
X32347D01*
X32333Y30387D01*
X32322Y30398D01*
X32316Y30413D01*
Y30421D01*
Y31129D01*
Y31137D01*
X32322Y31151D01*
X32333Y31163D01*
X32347Y31168D01*
X34253D01*
X34267Y31163D01*
D02*
G37*
G36*
X10767Y30163D02*
X10778Y30151D01*
X10784Y30137D01*
Y30129D01*
Y29421D01*
Y29413D01*
X10778Y29398D01*
X10767Y29387D01*
X10753Y29381D01*
X8847D01*
X8833Y29387D01*
X8822Y29398D01*
X8816Y29413D01*
Y29421D01*
Y30129D01*
Y30137D01*
X8822Y30151D01*
X8833Y30163D01*
X8847Y30169D01*
X10753D01*
X10767Y30163D01*
D02*
G37*
G36*
X38767Y28013D02*
X38778Y28002D01*
X38784Y27987D01*
X38784Y27979D01*
Y27271D01*
Y27263D01*
X38778Y27249D01*
X38767Y27237D01*
X38753Y27231D01*
X36847D01*
X36833Y27237D01*
X36822Y27249D01*
X36816Y27263D01*
Y27271D01*
Y27979D01*
Y27987D01*
X36822Y28002D01*
X36833Y28013D01*
X36847Y28019D01*
X38753D01*
X38767Y28013D01*
D02*
G37*
G36*
X34267D02*
X34278Y28002D01*
X34284Y27987D01*
X34284Y27979D01*
Y27271D01*
Y27263D01*
X34278Y27249D01*
X34267Y27237D01*
X34253Y27231D01*
X32347D01*
X32333Y27237D01*
X32322Y27249D01*
X32316Y27263D01*
Y27271D01*
Y27979D01*
Y27987D01*
X32322Y28002D01*
X32333Y28013D01*
X32347Y28019D01*
X34253D01*
X34267Y28013D01*
D02*
G37*
G36*
X10767Y27013D02*
X10778Y27002D01*
X10784Y26987D01*
X10784Y26980D01*
Y26271D01*
Y26263D01*
X10778Y26249D01*
X10767Y26237D01*
X10753Y26232D01*
X8847D01*
X8833Y26237D01*
X8822Y26249D01*
X8816Y26263D01*
Y26271D01*
Y26980D01*
Y26987D01*
X8822Y27002D01*
X8833Y27013D01*
X8847Y27019D01*
X10753D01*
X10767Y27013D01*
D02*
G37*
G36*
X100867Y22562D02*
X100878Y22551D01*
X100884Y22537D01*
Y22529D01*
Y21821D01*
Y21813D01*
X100878Y21798D01*
X100867Y21787D01*
X100853Y21781D01*
X98947D01*
X98933Y21787D01*
X98922Y21798D01*
X98916Y21813D01*
Y21821D01*
Y22529D01*
Y22537D01*
X98922Y22551D01*
X98933Y22562D01*
X98947Y22569D01*
X100853D01*
X100867Y22562D01*
D02*
G37*
G36*
X95967D02*
X95978Y22551D01*
X95984Y22537D01*
Y22529D01*
Y21821D01*
Y21813D01*
X95978Y21798D01*
X95967Y21787D01*
X95953Y21781D01*
X94047D01*
X94033Y21787D01*
X94022Y21798D01*
X94016Y21813D01*
Y21821D01*
Y22529D01*
Y22537D01*
X94022Y22551D01*
X94033Y22562D01*
X94047Y22569D01*
X95953D01*
X95967Y22562D01*
D02*
G37*
G36*
X100867Y19413D02*
X100878Y19402D01*
X100884Y19387D01*
X100884Y19379D01*
Y18671D01*
Y18663D01*
X100878Y18649D01*
X100867Y18638D01*
X100853Y18632D01*
X98947D01*
X98933Y18638D01*
X98922Y18649D01*
X98916Y18663D01*
Y18671D01*
Y19379D01*
Y19387D01*
X98922Y19402D01*
X98933Y19413D01*
X98947Y19419D01*
X100853D01*
X100867Y19413D01*
D02*
G37*
G36*
X95967D02*
X95978Y19402D01*
X95984Y19387D01*
X95984Y19379D01*
Y18671D01*
Y18663D01*
X95978Y18649D01*
X95967Y18638D01*
X95953Y18632D01*
X94047D01*
X94033Y18638D01*
X94022Y18649D01*
X94016Y18663D01*
Y18671D01*
Y19379D01*
Y19387D01*
X94022Y19402D01*
X94033Y19413D01*
X94047Y19419D01*
X95953D01*
X95967Y19413D01*
D02*
G37*
G36*
X32867Y16662D02*
X32878Y16651D01*
X32884Y16637D01*
Y16629D01*
Y15921D01*
Y15913D01*
X32878Y15898D01*
X32867Y15887D01*
X32853Y15881D01*
X30947D01*
X30933Y15887D01*
X30922Y15898D01*
X30916Y15913D01*
Y15921D01*
Y16629D01*
Y16637D01*
X30922Y16651D01*
X30933Y16662D01*
X30947Y16669D01*
X32853D01*
X32867Y16662D01*
D02*
G37*
G36*
X28767D02*
X28778Y16651D01*
X28784Y16637D01*
Y16629D01*
Y15921D01*
Y15913D01*
X28778Y15898D01*
X28767Y15887D01*
X28753Y15881D01*
X26847D01*
X26833Y15887D01*
X26822Y15898D01*
X26816Y15913D01*
Y15921D01*
Y16629D01*
Y16637D01*
X26822Y16651D01*
X26833Y16662D01*
X26847Y16669D01*
X28753D01*
X28767Y16662D01*
D02*
G37*
G36*
X24467Y14963D02*
X24478Y14951D01*
X24484Y14937D01*
Y14929D01*
Y14220D01*
Y14213D01*
X24478Y14198D01*
X24467Y14187D01*
X24453Y14181D01*
X22547D01*
X22533Y14187D01*
X22522Y14198D01*
X22516Y14213D01*
X22516Y14220D01*
Y14929D01*
Y14937D01*
X22522Y14951D01*
X22533Y14963D01*
X22547Y14968D01*
X24453D01*
X24467Y14963D01*
D02*
G37*
G36*
X20367D02*
X20378Y14951D01*
X20384Y14937D01*
Y14929D01*
Y14220D01*
Y14213D01*
X20378Y14198D01*
X20367Y14187D01*
X20353Y14181D01*
X18447D01*
X18433Y14187D01*
X18422Y14198D01*
X18416Y14213D01*
X18416Y14220D01*
Y14929D01*
Y14937D01*
X18422Y14951D01*
X18433Y14963D01*
X18447Y14968D01*
X20353D01*
X20367Y14963D01*
D02*
G37*
G36*
X32867Y13513D02*
X32878Y13502D01*
X32884Y13487D01*
X32884Y13479D01*
Y12771D01*
Y12763D01*
X32878Y12749D01*
X32867Y12738D01*
X32853Y12731D01*
X30947D01*
X30933Y12738D01*
X30922Y12749D01*
X30916Y12763D01*
Y12771D01*
Y13479D01*
Y13487D01*
X30922Y13502D01*
X30933Y13513D01*
X30947Y13519D01*
X32853D01*
X32867Y13513D01*
D02*
G37*
G36*
X28767D02*
X28778Y13502D01*
X28784Y13487D01*
X28784Y13479D01*
Y12771D01*
Y12763D01*
X28778Y12749D01*
X28767Y12738D01*
X28753Y12731D01*
X26847D01*
X26833Y12738D01*
X26822Y12749D01*
X26816Y12763D01*
Y12771D01*
Y13479D01*
Y13487D01*
X26822Y13502D01*
X26833Y13513D01*
X26847Y13519D01*
X28753D01*
X28767Y13513D01*
D02*
G37*
G36*
X20367Y11813D02*
X20378Y11802D01*
X20384Y11787D01*
Y11779D01*
Y11071D01*
Y11063D01*
X20378Y11049D01*
X20367Y11038D01*
X20353Y11032D01*
X18447D01*
X18433Y11038D01*
X18422Y11049D01*
X18416Y11063D01*
Y11071D01*
Y11779D01*
Y11787D01*
X18422Y11802D01*
X18433Y11813D01*
X18447Y11819D01*
X18455D01*
X20345Y11819D01*
X20353Y11819D01*
X20367Y11813D01*
D02*
G37*
G36*
X24467D02*
X24478Y11802D01*
X24484Y11787D01*
Y11779D01*
Y11071D01*
Y11063D01*
X24478Y11049D01*
X24467Y11038D01*
X24453Y11032D01*
X22547D01*
X22533Y11038D01*
X22522Y11049D01*
X22516Y11063D01*
Y11071D01*
Y11779D01*
Y11787D01*
X22522Y11802D01*
X22533Y11813D01*
X22547Y11819D01*
X24453D01*
X24467Y11813D01*
D02*
G37*
G36*
X50321Y12884D02*
X51037D01*
X51051Y12878D01*
X51063Y12867D01*
X51069Y12853D01*
Y12845D01*
Y10955D01*
Y10947D01*
X51063Y10933D01*
X51051Y10922D01*
X51037Y10916D01*
X50313D01*
X50298Y10922D01*
X50287Y10933D01*
X50281Y10947D01*
Y10955D01*
Y12845D01*
Y12853D01*
X50287Y12867D01*
X50298Y12878D01*
X50313Y12884D01*
X50321Y12884D01*
D02*
G37*
G36*
X47902Y12878D02*
X47913Y12867D01*
X47919Y12853D01*
Y12845D01*
Y10955D01*
Y10947D01*
X47913Y10933D01*
X47902Y10922D01*
X47887Y10916D01*
X47163D01*
X47149Y10922D01*
X47137Y10933D01*
X47131Y10947D01*
Y10955D01*
Y12845D01*
Y12853D01*
X47137Y12867D01*
X47149Y12878D01*
X47163Y12884D01*
X47887D01*
X47902Y12878D01*
D02*
G37*
G36*
X50321Y9084D02*
X51037D01*
X51051Y9078D01*
X51063Y9067D01*
X51069Y9053D01*
Y9045D01*
Y7155D01*
Y7147D01*
X51063Y7133D01*
X51051Y7122D01*
X51037Y7116D01*
X50313D01*
X50298Y7122D01*
X50287Y7133D01*
X50281Y7147D01*
Y7155D01*
Y9045D01*
Y9053D01*
X50287Y9067D01*
X50298Y9078D01*
X50313Y9084D01*
X50321Y9084D01*
D02*
G37*
G36*
X47902Y9078D02*
X47913Y9067D01*
X47919Y9053D01*
Y9045D01*
Y7155D01*
Y7147D01*
X47913Y7133D01*
X47902Y7122D01*
X47887Y7116D01*
X47163D01*
X47149Y7122D01*
X47137Y7133D01*
X47131Y7147D01*
Y7155D01*
Y9045D01*
Y9053D01*
X47137Y9067D01*
X47149Y9078D01*
X47163Y9084D01*
X47887D01*
X47902Y9078D01*
D02*
G37*
G36*
X60220Y6684D02*
X60937D01*
X60951Y6678D01*
X60962Y6667D01*
X60969Y6653D01*
Y6645D01*
Y4755D01*
Y4747D01*
X60962Y4733D01*
X60951Y4722D01*
X60937Y4716D01*
X60213D01*
X60198Y4722D01*
X60187Y4733D01*
X60181Y4747D01*
Y4755D01*
Y6645D01*
Y6653D01*
X60187Y6667D01*
X60198Y6678D01*
X60213Y6684D01*
X60220Y6684D01*
D02*
G37*
G36*
X57802Y6678D02*
X57813Y6667D01*
X57819Y6653D01*
Y6645D01*
Y4755D01*
Y4747D01*
X57813Y4733D01*
X57802Y4722D01*
X57787Y4716D01*
X57063D01*
X57049Y4722D01*
X57038Y4733D01*
X57032Y4747D01*
Y4755D01*
Y6645D01*
Y6653D01*
X57038Y6667D01*
X57049Y6678D01*
X57063Y6684D01*
X57787D01*
X57802Y6678D01*
D02*
G37*
G36*
X60220Y3484D02*
X60937D01*
X60951Y3478D01*
X60962Y3467D01*
X60969Y3453D01*
Y3445D01*
Y1555D01*
Y1547D01*
X60962Y1533D01*
X60951Y1522D01*
X60937Y1516D01*
X60213D01*
X60198Y1522D01*
X60187Y1533D01*
X60181Y1547D01*
Y1555D01*
Y3445D01*
Y3453D01*
X60187Y3467D01*
X60198Y3478D01*
X60213Y3484D01*
X60220Y3484D01*
D02*
G37*
G36*
X57802Y3478D02*
X57813Y3467D01*
X57819Y3453D01*
Y3445D01*
Y1555D01*
Y1547D01*
X57813Y1533D01*
X57802Y1522D01*
X57787Y1516D01*
X57063D01*
X57049Y1522D01*
X57038Y1533D01*
X57032Y1547D01*
Y1555D01*
Y3445D01*
Y3453D01*
X57038Y3467D01*
X57049Y3478D01*
X57063Y3484D01*
X57787D01*
X57802Y3478D01*
D02*
G37*
D15*
X86925Y32150D02*
Y38450D01*
X90075Y32150D02*
Y38450D01*
X86925D02*
X90075D01*
X86925Y32150D02*
X90075D01*
X103025Y51282D02*
X106175D01*
X103025Y57581D02*
X106175D01*
Y51282D02*
Y57581D01*
X103025Y51282D02*
Y57581D01*
D65*
X98915Y18671D02*
G03*
X98955Y18632I39J0D01*
G01*
X100845D02*
G03*
X100884Y18671I0J39D01*
G01*
X98955Y19419D02*
G03*
X98915Y19379I0J-39D01*
G01*
X100884D02*
G03*
X100845Y19419I-39J0D01*
G01*
X98915Y21821D02*
G03*
X98955Y21781I39J0D01*
G01*
X100845D02*
G03*
X100884Y21821I0J39D01*
G01*
X98955Y22569D02*
G03*
X98915Y22529I0J-39D01*
G01*
X100884D02*
G03*
X100845Y22569I-39J0D01*
G01*
X51029Y7115D02*
G03*
X51069Y7155I0J39D01*
G01*
Y9044D02*
G03*
X51029Y9084I-39J0D01*
G01*
X50281Y7155D02*
G03*
X50321Y7115I39J0D01*
G01*
Y9084D02*
G03*
X50281Y9044I0J-39D01*
G01*
X47879Y7115D02*
G03*
X47919Y7155I0J39D01*
G01*
Y9044D02*
G03*
X47879Y9084I-39J0D01*
G01*
X47131Y7155D02*
G03*
X47171Y7115I39J0D01*
G01*
Y9084D02*
G03*
X47131Y9044I0J-39D01*
G01*
X98015Y54471D02*
G03*
X98055Y54431I39J0D01*
G01*
X99945D02*
G03*
X99984Y54471I0J39D01*
G01*
X98055Y55219D02*
G03*
X98015Y55180I0J-39D01*
G01*
X99984D02*
G03*
X99945Y55219I-39J0D01*
G01*
X98015Y57621D02*
G03*
X98055Y57581I39J0D01*
G01*
X99945D02*
G03*
X99984Y57621I0J39D01*
G01*
X98055Y58368D02*
G03*
X98015Y58329I0J-39D01*
G01*
X99984D02*
G03*
X99945Y58368I-39J0D01*
G01*
X7571Y41785D02*
G03*
X7531Y41745I0J-39D01*
G01*
Y39856D02*
G03*
X7571Y39816I39J0D01*
G01*
X8319Y41745D02*
G03*
X8280Y41785I-39J0D01*
G01*
Y39816D02*
G03*
X8319Y39856I0J39D01*
G01*
X10721Y41785D02*
G03*
X10681Y41745I0J-39D01*
G01*
Y39856D02*
G03*
X10721Y39816I39J0D01*
G01*
X11468Y41745D02*
G03*
X11429Y41785I-39J0D01*
G01*
Y39816D02*
G03*
X11468Y39856I0J39D01*
G01*
X10784Y30129D02*
G03*
X10745Y30169I-39J0D01*
G01*
X8855D02*
G03*
X8815Y30129I0J-39D01*
G01*
X10745Y29381D02*
G03*
X10784Y29421I0J39D01*
G01*
X8815D02*
G03*
X8855Y29381I39J0D01*
G01*
X10784Y26980D02*
G03*
X10745Y27019I-39J0D01*
G01*
X8855D02*
G03*
X8815Y26980I0J-39D01*
G01*
X10745Y26232D02*
G03*
X10784Y26271I0J39D01*
G01*
X8815D02*
G03*
X8855Y26232I39J0D01*
G01*
X60929Y4715D02*
G03*
X60969Y4755I0J39D01*
G01*
Y6645D02*
G03*
X60929Y6684I-39J0D01*
G01*
X60181Y4755D02*
G03*
X60220Y4715I39J0D01*
G01*
Y6684D02*
G03*
X60181Y6645I0J-39D01*
G01*
X57780Y4715D02*
G03*
X57819Y4755I0J39D01*
G01*
Y6645D02*
G03*
X57780Y6684I-39J0D01*
G01*
X57032Y4755D02*
G03*
X57071Y4715I39J0D01*
G01*
Y6684D02*
G03*
X57032Y6645I0J-39D01*
G01*
X60929Y1515D02*
G03*
X60969Y1555I0J39D01*
G01*
Y3445D02*
G03*
X60929Y3484I-39J0D01*
G01*
X60181Y1555D02*
G03*
X60220Y1515I39J0D01*
G01*
Y3484D02*
G03*
X60181Y3445I0J-39D01*
G01*
X57780Y1515D02*
G03*
X57819Y1555I0J39D01*
G01*
Y3445D02*
G03*
X57780Y3484I-39J0D01*
G01*
X57032Y1555D02*
G03*
X57071Y1515I39J0D01*
G01*
Y3484D02*
G03*
X57032Y3445I0J-39D01*
G01*
X51029Y10915D02*
G03*
X51069Y10955I0J39D01*
G01*
Y12845D02*
G03*
X51029Y12884I-39J0D01*
G01*
X50281Y10955D02*
G03*
X50321Y10915I39J0D01*
G01*
Y12884D02*
G03*
X50281Y12845I0J-39D01*
G01*
X47879Y10915D02*
G03*
X47919Y10955I0J39D01*
G01*
Y12845D02*
G03*
X47879Y12884I-39J0D01*
G01*
X47131Y10955D02*
G03*
X47171Y10915I39J0D01*
G01*
Y12884D02*
G03*
X47131Y12845I0J-39D01*
G01*
X95984Y22529D02*
G03*
X95944Y22569I-39J0D01*
G01*
X94055D02*
G03*
X94015Y22529I0J-39D01*
G01*
X95944Y21781D02*
G03*
X95984Y21821I0J39D01*
G01*
X94015D02*
G03*
X94055Y21781I39J0D01*
G01*
X95984Y19379D02*
G03*
X95944Y19419I-39J0D01*
G01*
X94055D02*
G03*
X94015Y19379I0J-39D01*
G01*
X95944Y18632D02*
G03*
X95984Y18671I0J39D01*
G01*
X94015D02*
G03*
X94055Y18632I39J0D01*
G01*
X22516Y11071D02*
G03*
X22555Y11032I39J0D01*
G01*
X24445D02*
G03*
X24485Y11071I0J39D01*
G01*
X22555Y11819D02*
G03*
X22516Y11779I0J-39D01*
G01*
X24485D02*
G03*
X24445Y11819I-39J0D01*
G01*
X22516Y14220D02*
G03*
X22555Y14181I39J0D01*
G01*
X24445D02*
G03*
X24485Y14220I0J39D01*
G01*
X22555Y14968D02*
G03*
X22516Y14929I0J-39D01*
G01*
X24485D02*
G03*
X24445Y14968I-39J0D01*
G01*
X18416Y11071D02*
G03*
X18455Y11032I39J0D01*
G01*
X20345D02*
G03*
X20385Y11071I0J39D01*
G01*
X18455Y11819D02*
G03*
X18416Y11779I0J-39D01*
G01*
X20385D02*
G03*
X20345Y11819I-39J0D01*
G01*
X18416Y14220D02*
G03*
X18455Y14181I39J0D01*
G01*
X20345D02*
G03*
X20385Y14220I0J39D01*
G01*
X18455Y14968D02*
G03*
X18416Y14929I0J-39D01*
G01*
X20385D02*
G03*
X20345Y14968I-39J0D01*
G01*
X32884Y16629D02*
G03*
X32844Y16669I-39J0D01*
G01*
X30955D02*
G03*
X30915Y16629I0J-39D01*
G01*
X32844Y15881D02*
G03*
X32884Y15921I0J39D01*
G01*
X30915D02*
G03*
X30955Y15881I39J0D01*
G01*
X32884Y13479D02*
G03*
X32844Y13519I-39J0D01*
G01*
X30955D02*
G03*
X30915Y13479I0J-39D01*
G01*
X32844Y12731D02*
G03*
X32884Y12771I0J39D01*
G01*
X30915D02*
G03*
X30955Y12731I39J0D01*
G01*
X28784Y16629D02*
G03*
X28745Y16669I-39J0D01*
G01*
X26855D02*
G03*
X26815Y16629I0J-39D01*
G01*
X28745Y15881D02*
G03*
X28784Y15921I0J39D01*
G01*
X26815D02*
G03*
X26855Y15881I39J0D01*
G01*
X28784Y13479D02*
G03*
X28745Y13519I-39J0D01*
G01*
X26855D02*
G03*
X26815Y13479I0J-39D01*
G01*
X28745Y12731D02*
G03*
X28784Y12771I0J39D01*
G01*
X26815D02*
G03*
X26855Y12731I39J0D01*
G01*
X34284Y31129D02*
G03*
X34244Y31168I-39J0D01*
G01*
X32355D02*
G03*
X32315Y31129I0J-39D01*
G01*
X34244Y30381D02*
G03*
X34284Y30421I0J39D01*
G01*
X32315D02*
G03*
X32355Y30381I39J0D01*
G01*
X34284Y27979D02*
G03*
X34244Y28019I-39J0D01*
G01*
X32355D02*
G03*
X32315Y27979I0J-39D01*
G01*
X34244Y27231D02*
G03*
X34284Y27271I0J39D01*
G01*
X32315D02*
G03*
X32355Y27231I39J0D01*
G01*
X38784Y31129D02*
G03*
X38745Y31168I-39J0D01*
G01*
X36855D02*
G03*
X36815Y31129I0J-39D01*
G01*
X38745Y30381D02*
G03*
X38784Y30421I0J39D01*
G01*
X36815D02*
G03*
X36855Y30381I39J0D01*
G01*
X38784Y27979D02*
G03*
X38745Y28019I-39J0D01*
G01*
X36855D02*
G03*
X36815Y27979I0J-39D01*
G01*
X38745Y27231D02*
G03*
X38784Y27271I0J39D01*
G01*
X36815D02*
G03*
X36855Y27231I39J0D01*
G01*
X98955Y18632D02*
X100845D01*
X98915Y18671D02*
Y19183D01*
X100884Y18671D02*
Y19183D01*
X98915D02*
Y19379D01*
X100884Y19183D02*
Y19379D01*
X98955Y19419D02*
X100845D01*
X98955D02*
Y21781D01*
X100845Y19419D02*
Y21781D01*
X98955D02*
X100845D01*
X98915Y21821D02*
Y22017D01*
X100884Y21821D02*
Y22017D01*
X98915D02*
Y22529D01*
X100884Y22017D02*
Y22529D01*
X98955Y22569D02*
X100845D01*
X51069Y7155D02*
Y9044D01*
X50517Y7115D02*
X51029D01*
X50517Y9084D02*
X51029D01*
X50321Y7115D02*
X50517D01*
X50321Y9084D02*
X50517D01*
X50281Y7155D02*
Y9044D01*
X47919Y7155D02*
X50281D01*
X47919Y9044D02*
X50281D01*
X47919Y7155D02*
Y9044D01*
X47683Y7115D02*
X47879D01*
X47683Y9084D02*
X47879D01*
X47171Y7115D02*
X47683D01*
X47171Y9084D02*
X47683D01*
X47131Y7155D02*
Y9044D01*
X98055Y54431D02*
X99945D01*
X98015Y54471D02*
Y54983D01*
X99984Y54471D02*
Y54983D01*
X98015D02*
Y55180D01*
X99984Y54983D02*
Y55180D01*
X98055Y55219D02*
X99945D01*
X98055D02*
Y57581D01*
X99945Y55219D02*
Y57581D01*
X98055D02*
X99945D01*
X98015Y57621D02*
Y57817D01*
X99984Y57621D02*
Y57817D01*
X98015D02*
Y58329D01*
X99984Y57817D02*
Y58329D01*
X98055Y58368D02*
X99945D01*
X7531Y39856D02*
Y41745D01*
X7571Y41785D02*
X8083D01*
X7571Y39816D02*
X8083D01*
Y41785D02*
X8280D01*
X8083Y39816D02*
X8280D01*
X8319Y39856D02*
Y41745D01*
X10681D01*
X8319Y39856D02*
X10681D01*
Y41745D01*
X10721Y41785D02*
X10917D01*
X10721Y39816D02*
X10917D01*
Y41785D02*
X11429D01*
X10917Y39816D02*
X11429D01*
X11468Y39856D02*
Y41745D01*
X8855Y30169D02*
X10745D01*
X10784Y29617D02*
Y30129D01*
X8815Y29617D02*
Y30129D01*
X10784Y29421D02*
Y29617D01*
X8815Y29421D02*
Y29617D01*
X8855Y29381D02*
X10745D01*
Y27019D02*
Y29381D01*
X8855Y27019D02*
Y29381D01*
Y27019D02*
X10745D01*
X10784Y26783D02*
Y26980D01*
X8815Y26783D02*
Y26980D01*
X10784Y26271D02*
Y26783D01*
X8815Y26271D02*
Y26783D01*
X8855Y26232D02*
X10745D01*
X60969Y4755D02*
Y6645D01*
X60417Y4715D02*
X60929D01*
X60417Y6684D02*
X60929D01*
X60220Y4715D02*
X60417D01*
X60220Y6684D02*
X60417D01*
X60181Y4755D02*
Y6645D01*
X57819Y4755D02*
X60181D01*
X57819Y6645D02*
X60181D01*
X57819Y4755D02*
Y6645D01*
X57583Y4715D02*
X57780D01*
X57583Y6684D02*
X57780D01*
X57071Y4715D02*
X57583D01*
X57071Y6684D02*
X57583D01*
X57032Y4755D02*
Y6645D01*
X60969Y1555D02*
Y3445D01*
X60417Y1515D02*
X60929D01*
X60417Y3484D02*
X60929D01*
X60220Y1515D02*
X60417D01*
X60220Y3484D02*
X60417D01*
X60181Y1555D02*
Y3445D01*
X57819Y1555D02*
X60181D01*
X57819Y3445D02*
X60181D01*
X57819Y1555D02*
Y3445D01*
X57583Y1515D02*
X57780D01*
X57583Y3484D02*
X57780D01*
X57071Y1515D02*
X57583D01*
X57071Y3484D02*
X57583D01*
X57032Y1555D02*
Y3445D01*
X51069Y10955D02*
Y12845D01*
X50517Y10915D02*
X51029D01*
X50517Y12884D02*
X51029D01*
X50321Y10915D02*
X50517D01*
X50321Y12884D02*
X50517D01*
X50281Y10955D02*
Y12845D01*
X47919Y10955D02*
X50281D01*
X47919Y12845D02*
X50281D01*
X47919Y10955D02*
Y12845D01*
X47683Y10915D02*
X47879D01*
X47683Y12884D02*
X47879D01*
X47171Y10915D02*
X47683D01*
X47171Y12884D02*
X47683D01*
X47131Y10955D02*
Y12845D01*
X94055Y22569D02*
X95944D01*
X95984Y22017D02*
Y22529D01*
X94015Y22017D02*
Y22529D01*
X95984Y21821D02*
Y22017D01*
X94015Y21821D02*
Y22017D01*
X94055Y21781D02*
X95944D01*
Y19419D02*
Y21781D01*
X94055Y19419D02*
Y21781D01*
Y19419D02*
X95944D01*
X95984Y19183D02*
Y19379D01*
X94015Y19183D02*
Y19379D01*
X95984Y18671D02*
Y19183D01*
X94015Y18671D02*
Y19183D01*
X94055Y18632D02*
X95944D01*
X22555Y11032D02*
X24445D01*
X22516Y11071D02*
Y11583D01*
X24485Y11071D02*
Y11583D01*
X22516D02*
Y11779D01*
X24485Y11583D02*
Y11779D01*
X22555Y11819D02*
X24445D01*
X22555D02*
Y14181D01*
X24445Y11819D02*
Y14181D01*
X22555D02*
X24445D01*
X22516Y14220D02*
Y14417D01*
X24485Y14220D02*
Y14417D01*
X22516D02*
Y14929D01*
X24485Y14417D02*
Y14929D01*
X22555Y14968D02*
X24445D01*
X18455Y11032D02*
X20345D01*
X18416Y11071D02*
Y11583D01*
X20385Y11071D02*
Y11583D01*
X18416D02*
Y11779D01*
X20385D02*
X20385Y11583D01*
X18455Y11819D02*
X20345D01*
X18455D02*
Y14181D01*
X20345Y11819D02*
Y14181D01*
X18455D02*
X20345D01*
X18416Y14220D02*
Y14417D01*
X20385D02*
X20385Y14220D01*
X18416Y14417D02*
Y14929D01*
X20385Y14417D02*
Y14929D01*
X18455Y14968D02*
X20345D01*
X30955Y16669D02*
X32844D01*
X32884Y16117D02*
Y16629D01*
X30915Y16117D02*
Y16629D01*
X32884Y15921D02*
Y16117D01*
X30915Y15921D02*
Y16117D01*
X30955Y15881D02*
X32844D01*
Y13519D02*
Y15881D01*
X30955Y13519D02*
Y15881D01*
Y13519D02*
X32844D01*
X32884Y13283D02*
Y13479D01*
X30915Y13283D02*
Y13479D01*
X32884Y12771D02*
Y13283D01*
X30915Y12771D02*
Y13283D01*
X30955Y12731D02*
X32844D01*
X26855Y16669D02*
X28745D01*
X28784Y16117D02*
Y16629D01*
X26815Y16117D02*
Y16629D01*
X28784Y15921D02*
Y16117D01*
X26815Y15921D02*
Y16117D01*
X26855Y15881D02*
X28745D01*
Y13519D02*
Y15881D01*
X26855Y13519D02*
Y15881D01*
Y13519D02*
X28745D01*
X28784Y13283D02*
Y13479D01*
X26815Y13283D02*
Y13479D01*
X28784Y12771D02*
Y13283D01*
X26815Y12771D02*
Y13283D01*
X26855Y12731D02*
X28745D01*
X32355Y31168D02*
X34244D01*
X34284Y30617D02*
Y31129D01*
X32315Y30617D02*
Y31129D01*
X34284Y30421D02*
Y30617D01*
X32315Y30421D02*
Y30617D01*
X32355Y30381D02*
X34244D01*
Y28019D02*
Y30381D01*
X32355Y28019D02*
Y30381D01*
Y28019D02*
X34244D01*
X34284Y27783D02*
Y27979D01*
X32315Y27783D02*
Y27979D01*
X34284Y27271D02*
Y27783D01*
X32315Y27271D02*
Y27783D01*
X32355Y27231D02*
X34244D01*
X36855Y31168D02*
X38745D01*
X38784Y30617D02*
Y31129D01*
X36815Y30617D02*
Y31129D01*
X38784Y30421D02*
Y30617D01*
X36815Y30421D02*
Y30617D01*
X36855Y30381D02*
X38745D01*
Y28019D02*
Y30381D01*
X36855Y28019D02*
Y30381D01*
Y28019D02*
X38745D01*
X38784Y27783D02*
Y27979D01*
X36815Y27783D02*
Y27979D01*
X38784Y27271D02*
Y27783D01*
X36815Y27271D02*
Y27783D01*
X36855Y27231D02*
X38745D01*
D66*
X83984Y25932D02*
Y29869D01*
X82016Y25932D02*
Y29869D01*
Y25932D02*
X83984D01*
X82016Y29869D02*
X83984D01*
X86769Y17716D02*
Y19684D01*
X82832Y17716D02*
Y19684D01*
X86769D01*
X82832Y17716D02*
X86769D01*
X87016Y10632D02*
X88984D01*
X87016Y14569D02*
X88984D01*
Y10632D02*
Y14569D01*
X87016Y10632D02*
Y14569D01*
X98016Y50068D02*
X99984D01*
X98016Y46132D02*
X99984D01*
X98016D02*
Y50068D01*
X99984Y46132D02*
Y50068D01*
X93216Y54431D02*
X95184D01*
X93216Y58368D02*
X95184D01*
Y54431D02*
Y58368D01*
X93216Y54431D02*
Y58368D01*
X89984Y53732D02*
Y57669D01*
X88016Y53732D02*
Y57669D01*
Y53732D02*
X89984D01*
X88016Y57669D02*
X89984D01*
X45832Y35884D02*
X49768D01*
X45832Y33916D02*
X49768D01*
Y35884D01*
X45832Y33916D02*
Y35884D01*
Y39784D02*
X49768D01*
X45832Y37816D02*
X49768D01*
Y39784D01*
X45832Y37816D02*
Y39784D01*
X45731Y51416D02*
Y53384D01*
X49668Y51416D02*
Y53384D01*
X45731Y51416D02*
X49668D01*
X45731Y53384D02*
X49668D01*
X24184Y26331D02*
Y30268D01*
X22216Y26331D02*
Y30268D01*
Y26331D02*
X24184D01*
X22216Y30268D02*
X24184D01*
X28684Y26331D02*
Y30268D01*
X26716Y26331D02*
Y30268D01*
Y26331D02*
X28684D01*
X26716Y30268D02*
X28684D01*
X19584Y26331D02*
Y30268D01*
X17616Y26331D02*
Y30268D01*
Y26331D02*
X19584D01*
X17616Y30268D02*
X19584D01*
X7632Y48316D02*
X11569D01*
X7632Y50284D02*
X11569D01*
X7632Y48316D02*
Y50284D01*
X11569Y48316D02*
Y50284D01*
X7831Y56516D02*
X11768D01*
X7831Y58484D02*
X11768D01*
X7831Y56516D02*
Y58484D01*
X11768Y56516D02*
Y58484D01*
X41116Y63960D02*
Y67897D01*
X43084Y63960D02*
Y67897D01*
X41116D02*
X43084D01*
X41116Y63960D02*
X43084D01*
X45832Y45284D02*
X49768D01*
X45832Y43316D02*
X49768D01*
Y45284D01*
X45832Y43316D02*
Y45284D01*
X7831Y60316D02*
X11768D01*
X7831Y62284D02*
X11768D01*
X7831Y60316D02*
Y62284D01*
X11768Y60316D02*
Y62284D01*
X43084Y27231D02*
Y31168D01*
X41116Y27231D02*
Y31168D01*
Y27231D02*
X43084D01*
X41116Y31168D02*
X43084D01*
X37016Y63960D02*
X38984D01*
X37016Y67897D02*
X38984D01*
Y63960D02*
Y67897D01*
X37016Y63960D02*
Y67897D01*
X45832Y30316D02*
Y32284D01*
X49768Y30316D02*
Y32284D01*
X45832Y30316D02*
X49768D01*
X45832Y32284D02*
X49768D01*
X24716Y8068D02*
X26684D01*
X24716Y4132D02*
X26684D01*
X24716D02*
Y8068D01*
X26684Y4132D02*
Y8068D01*
X32916Y63960D02*
X34884D01*
X32916Y67897D02*
X34884D01*
Y63960D02*
Y67897D01*
X32916Y63960D02*
Y67897D01*
X7531Y36116D02*
Y38084D01*
X11468Y36116D02*
Y38084D01*
X7531Y36116D02*
X11468D01*
X7531Y38084D02*
X11468D01*
X35116Y12631D02*
Y16568D01*
X37084Y12631D02*
Y16568D01*
X35116D02*
X37084D01*
X35116Y12631D02*
X37084D01*
X95284Y46132D02*
Y50068D01*
X93316Y46132D02*
Y50068D01*
Y46132D02*
X95284D01*
X93316Y50068D02*
X95284D01*
X89716Y18632D02*
Y22569D01*
X91684Y18632D02*
Y22569D01*
X89716D02*
X91684D01*
X89716Y18632D02*
X91684D01*
X82832Y21616D02*
X86769D01*
X82832Y23584D02*
X86769D01*
X82832Y21616D02*
Y23584D01*
X86769Y21616D02*
Y23584D01*
X87016Y3032D02*
Y6968D01*
X88984Y3032D02*
Y6968D01*
X87016D02*
X88984D01*
X87016Y3032D02*
X88984D01*
D68*
X82984Y26478D02*
D03*
X83001Y29319D02*
D03*
X87999Y11178D02*
D03*
X88016Y14019D02*
D03*
X99001Y49519D02*
D03*
X98984Y46677D02*
D03*
X94199Y54978D02*
D03*
X94216Y57819D02*
D03*
X88984Y54281D02*
D03*
X89001Y57122D02*
D03*
X23184Y26880D02*
D03*
X23201Y29722D02*
D03*
X27684Y26880D02*
D03*
X27701Y29722D02*
D03*
X18584Y26880D02*
D03*
X18601Y29722D02*
D03*
X42116Y67347D02*
D03*
X42099Y64505D02*
D03*
X42084Y27781D02*
D03*
X42101Y30622D02*
D03*
X37999Y64505D02*
D03*
X38016Y67347D02*
D03*
X25701Y7522D02*
D03*
X25684Y4680D02*
D03*
X33899Y64505D02*
D03*
X33916Y67347D02*
D03*
X36116Y16019D02*
D03*
X36099Y13178D02*
D03*
X94284Y46678D02*
D03*
X94301Y49519D02*
D03*
X90716Y22022D02*
D03*
X90699Y19181D02*
D03*
X88016Y6419D02*
D03*
X87999Y3578D02*
D03*
D69*
X88500Y32938D02*
D03*
X88500Y37662D02*
D03*
X104600Y56794D02*
D03*
X104600Y52069D02*
D03*
D71*
X86222Y18699D02*
D03*
X83381Y18716D02*
D03*
X49219Y34884D02*
D03*
X46378Y34901D02*
D03*
X49220Y38784D02*
D03*
X46378Y38801D02*
D03*
X46278Y52401D02*
D03*
X49119Y52384D02*
D03*
X8181Y49316D02*
D03*
X11022Y49299D02*
D03*
X8381Y57516D02*
D03*
X11222Y57499D02*
D03*
X49219Y44284D02*
D03*
X46378Y44301D02*
D03*
X8381Y61316D02*
D03*
X11222Y61299D02*
D03*
X46378Y31301D02*
D03*
X49219Y31284D02*
D03*
X8081Y37101D02*
D03*
X10923Y37084D02*
D03*
X83381Y22616D02*
D03*
X86222Y22599D02*
D03*
M02*
