G04*
G04 #@! TF.GenerationSoftware,Altium Limited,Altium Designer,21.3.2 (30)*
G04*
G04 Layer_Color=16711935*
%FSLAX25Y25*%
%MOIN*%
G70*
G04*
G04 #@! TF.SameCoordinates,20047665-8901-4395-8F35-5F40874213DC*
G04*
G04*
G04 #@! TF.FilePolarity,Negative*
G04*
G01*
G75*
%ADD21R,0.06614X0.06614*%
G04:AMPARAMS|DCode=38|XSize=27.56mil|YSize=27.56mil|CornerRadius=7.87mil|HoleSize=0mil|Usage=FLASHONLY|Rotation=90.000|XOffset=0mil|YOffset=0mil|HoleType=Round|Shape=RoundedRectangle|*
%AMROUNDEDRECTD38*
21,1,0.02756,0.01181,0,0,90.0*
21,1,0.01181,0.02756,0,0,90.0*
1,1,0.01575,0.00591,0.00591*
1,1,0.01575,0.00591,-0.00591*
1,1,0.01575,-0.00591,-0.00591*
1,1,0.01575,-0.00591,0.00591*
%
%ADD38ROUNDEDRECTD38*%
G04:AMPARAMS|DCode=40|XSize=39.37mil|YSize=43.31mil|CornerRadius=10.83mil|HoleSize=0mil|Usage=FLASHONLY|Rotation=270.000|XOffset=0mil|YOffset=0mil|HoleType=Round|Shape=RoundedRectangle|*
%AMROUNDEDRECTD40*
21,1,0.03937,0.02165,0,0,270.0*
21,1,0.01772,0.04331,0,0,270.0*
1,1,0.02165,-0.01083,-0.00886*
1,1,0.02165,-0.01083,0.00886*
1,1,0.02165,0.01083,0.00886*
1,1,0.02165,0.01083,-0.00886*
%
%ADD40ROUNDEDRECTD40*%
G04:AMPARAMS|DCode=41|XSize=15.35mil|YSize=37.01mil|CornerRadius=5.22mil|HoleSize=0mil|Usage=FLASHONLY|Rotation=180.000|XOffset=0mil|YOffset=0mil|HoleType=Round|Shape=RoundedRectangle|*
%AMROUNDEDRECTD41*
21,1,0.01535,0.02657,0,0,180.0*
21,1,0.00492,0.03701,0,0,180.0*
1,1,0.01043,-0.00246,0.01329*
1,1,0.01043,0.00246,0.01329*
1,1,0.01043,0.00246,-0.01329*
1,1,0.01043,-0.00246,-0.01329*
%
%ADD41ROUNDEDRECTD41*%
G04:AMPARAMS|DCode=42|XSize=15.35mil|YSize=37.01mil|CornerRadius=5.22mil|HoleSize=0mil|Usage=FLASHONLY|Rotation=270.000|XOffset=0mil|YOffset=0mil|HoleType=Round|Shape=RoundedRectangle|*
%AMROUNDEDRECTD42*
21,1,0.01535,0.02657,0,0,270.0*
21,1,0.00492,0.03701,0,0,270.0*
1,1,0.01043,-0.01329,-0.00246*
1,1,0.01043,-0.01329,0.00246*
1,1,0.01043,0.01329,0.00246*
1,1,0.01043,0.01329,-0.00246*
%
%ADD42ROUNDEDRECTD42*%
G04:AMPARAMS|DCode=49|XSize=23.62mil|YSize=27.56mil|CornerRadius=6.89mil|HoleSize=0mil|Usage=FLASHONLY|Rotation=270.000|XOffset=0mil|YOffset=0mil|HoleType=Round|Shape=RoundedRectangle|*
%AMROUNDEDRECTD49*
21,1,0.02362,0.01378,0,0,270.0*
21,1,0.00984,0.02756,0,0,270.0*
1,1,0.01378,-0.00689,-0.00492*
1,1,0.01378,-0.00689,0.00492*
1,1,0.01378,0.00689,0.00492*
1,1,0.01378,0.00689,-0.00492*
%
%ADD49ROUNDEDRECTD49*%
G04:AMPARAMS|DCode=50|XSize=27.56mil|YSize=27.56mil|CornerRadius=7.87mil|HoleSize=0mil|Usage=FLASHONLY|Rotation=180.000|XOffset=0mil|YOffset=0mil|HoleType=Round|Shape=RoundedRectangle|*
%AMROUNDEDRECTD50*
21,1,0.02756,0.01181,0,0,180.0*
21,1,0.01181,0.02756,0,0,180.0*
1,1,0.01575,-0.00591,0.00591*
1,1,0.01575,0.00591,0.00591*
1,1,0.01575,0.00591,-0.00591*
1,1,0.01575,-0.00591,-0.00591*
%
%ADD50ROUNDEDRECTD50*%
G04:AMPARAMS|DCode=55|XSize=23.62mil|YSize=27.56mil|CornerRadius=6.89mil|HoleSize=0mil|Usage=FLASHONLY|Rotation=180.000|XOffset=0mil|YOffset=0mil|HoleType=Round|Shape=RoundedRectangle|*
%AMROUNDEDRECTD55*
21,1,0.02362,0.01378,0,0,180.0*
21,1,0.00984,0.02756,0,0,180.0*
1,1,0.01378,-0.00492,0.00689*
1,1,0.01378,0.00492,0.00689*
1,1,0.01378,0.00492,-0.00689*
1,1,0.01378,-0.00492,-0.00689*
%
%ADD55ROUNDEDRECTD55*%
%ADD61C,0.01000*%
D21*
X75653Y11500D02*
D03*
D38*
X83000Y26128D02*
D03*
Y29672D02*
D03*
X88000Y10828D02*
D03*
Y14372D02*
D03*
X99000Y49872D02*
D03*
Y46328D02*
D03*
X94200Y54628D02*
D03*
Y58172D02*
D03*
X89000Y53928D02*
D03*
Y57472D02*
D03*
X23200Y26528D02*
D03*
Y30072D02*
D03*
X27700Y26528D02*
D03*
Y30072D02*
D03*
X18600Y26528D02*
D03*
Y30072D02*
D03*
X42100Y67700D02*
D03*
Y64157D02*
D03*
X42100Y27428D02*
D03*
Y30972D02*
D03*
X38000Y64157D02*
D03*
Y67700D02*
D03*
X25700Y7872D02*
D03*
Y4328D02*
D03*
X33900Y64157D02*
D03*
Y67700D02*
D03*
X36100Y16372D02*
D03*
Y12828D02*
D03*
X94300Y46328D02*
D03*
Y49872D02*
D03*
X90700Y22372D02*
D03*
Y18828D02*
D03*
X88000Y6772D02*
D03*
Y3228D02*
D03*
D40*
X88500Y38450D02*
D03*
Y32150D02*
D03*
X104600Y51282D02*
D03*
Y57581D02*
D03*
D41*
X78607Y17200D02*
D03*
X76638D02*
D03*
X74669D02*
D03*
X72700D02*
D03*
Y5800D02*
D03*
X74669D02*
D03*
X76638D02*
D03*
X78607D02*
D03*
D42*
X69954Y14454D02*
D03*
Y12484D02*
D03*
Y10515D02*
D03*
Y8546D02*
D03*
X81353D02*
D03*
Y10515D02*
D03*
Y12484D02*
D03*
Y14454D02*
D03*
D49*
X99900Y22569D02*
D03*
Y18632D02*
D03*
X99000Y58368D02*
D03*
Y54431D02*
D03*
X9800Y26232D02*
D03*
Y30169D02*
D03*
X95000Y18632D02*
D03*
Y22569D02*
D03*
X23500Y14968D02*
D03*
Y11032D02*
D03*
X19400Y14968D02*
D03*
Y11032D02*
D03*
X31900Y12731D02*
D03*
Y16669D02*
D03*
X27800Y12731D02*
D03*
Y16669D02*
D03*
X33300Y27231D02*
D03*
Y31168D02*
D03*
X37800Y27231D02*
D03*
Y31168D02*
D03*
D50*
X86572Y18700D02*
D03*
X83028D02*
D03*
X49572Y34900D02*
D03*
X46028D02*
D03*
X49572Y38800D02*
D03*
X46028D02*
D03*
X45928Y52400D02*
D03*
X49472D02*
D03*
X7828Y49300D02*
D03*
X11372D02*
D03*
X8028Y57500D02*
D03*
X11572D02*
D03*
X49572Y44300D02*
D03*
X46028D02*
D03*
X8028Y61300D02*
D03*
X11572D02*
D03*
X46028Y31300D02*
D03*
X49572D02*
D03*
X7728Y37100D02*
D03*
X11272D02*
D03*
X83028Y22600D02*
D03*
X86572D02*
D03*
D55*
X47131Y8100D02*
D03*
X51069D02*
D03*
X11468Y40800D02*
D03*
X7531D02*
D03*
X57032Y5700D02*
D03*
X60969D02*
D03*
X57032Y2500D02*
D03*
X60969D02*
D03*
X47131Y11900D02*
D03*
X51069D02*
D03*
D61*
X16657Y35526D02*
D03*
X18626D02*
D03*
X20595D02*
D03*
X22563D02*
D03*
X24532D02*
D03*
X26500D02*
D03*
X28468D02*
D03*
X30437D02*
D03*
X32405D02*
D03*
X34374D02*
D03*
X36342D02*
D03*
X38311D02*
D03*
X40279D02*
D03*
X16657Y37495D02*
D03*
X18626D02*
D03*
X20595D02*
D03*
X22563D02*
D03*
X24532D02*
D03*
X26500D02*
D03*
X28468D02*
D03*
X30437D02*
D03*
X32405D02*
D03*
X34374D02*
D03*
X36342D02*
D03*
X38311D02*
D03*
X40279D02*
D03*
X16657Y39463D02*
D03*
X18626D02*
D03*
X20595D02*
D03*
X22563D02*
D03*
X24532D02*
D03*
X26500D02*
D03*
X28468D02*
D03*
X30437D02*
D03*
X32405D02*
D03*
X34374D02*
D03*
X36342D02*
D03*
X38311D02*
D03*
X40279D02*
D03*
X16657Y41431D02*
D03*
X18626D02*
D03*
X20595D02*
D03*
X22563D02*
D03*
X24532D02*
D03*
X26500D02*
D03*
X28468D02*
D03*
X30437D02*
D03*
X32405D02*
D03*
X34374D02*
D03*
X36342D02*
D03*
X38311D02*
D03*
X40279D02*
D03*
X16657Y43400D02*
D03*
X18626D02*
D03*
X20595D02*
D03*
X22563D02*
D03*
X24532D02*
D03*
X26500D02*
D03*
X28468D02*
D03*
X30437D02*
D03*
X32405D02*
D03*
X34374D02*
D03*
X36342D02*
D03*
X38311D02*
D03*
X40279D02*
D03*
X16657Y45368D02*
D03*
X18626D02*
D03*
X20595D02*
D03*
X22563D02*
D03*
X24532D02*
D03*
X26500D02*
D03*
X28468D02*
D03*
X30437D02*
D03*
X32405D02*
D03*
X34374D02*
D03*
X36342D02*
D03*
X38311D02*
D03*
X40279D02*
D03*
X16657Y47337D02*
D03*
X18626D02*
D03*
X20595D02*
D03*
X22563D02*
D03*
X24532D02*
D03*
X26500D02*
D03*
X28468D02*
D03*
X30437D02*
D03*
X32405D02*
D03*
X34374D02*
D03*
X36342D02*
D03*
X38311D02*
D03*
X40279D02*
D03*
X16657Y49305D02*
D03*
X18626D02*
D03*
X20595D02*
D03*
X22563D02*
D03*
X24532D02*
D03*
X26500D02*
D03*
X28468D02*
D03*
X30437D02*
D03*
X32405D02*
D03*
X34374D02*
D03*
X36342D02*
D03*
X38311D02*
D03*
X40279D02*
D03*
X16657Y51274D02*
D03*
X18626D02*
D03*
X20595D02*
D03*
X22563D02*
D03*
X24532D02*
D03*
X26500D02*
D03*
X28468D02*
D03*
X30437D02*
D03*
X32405D02*
D03*
X34374D02*
D03*
X36342D02*
D03*
X38311D02*
D03*
X40279D02*
D03*
X16657Y53242D02*
D03*
X18626D02*
D03*
X20595D02*
D03*
X22563D02*
D03*
X24532D02*
D03*
X26500D02*
D03*
X28468D02*
D03*
X30437D02*
D03*
X32405D02*
D03*
X34374D02*
D03*
X36342D02*
D03*
X38311D02*
D03*
X40279D02*
D03*
X16657Y55211D02*
D03*
X18626D02*
D03*
X20595D02*
D03*
X22563D02*
D03*
X24532D02*
D03*
X26500D02*
D03*
X28468D02*
D03*
X30437D02*
D03*
X32405D02*
D03*
X34374D02*
D03*
X36342D02*
D03*
X38311D02*
D03*
X40279D02*
D03*
X16657Y57179D02*
D03*
X18626D02*
D03*
X20595D02*
D03*
X22563D02*
D03*
X24532D02*
D03*
X26500D02*
D03*
X28468D02*
D03*
X30437D02*
D03*
X32405D02*
D03*
X34374D02*
D03*
X36342D02*
D03*
X38311D02*
D03*
X40279D02*
D03*
X16657Y59148D02*
D03*
X18626D02*
D03*
X20595D02*
D03*
X22563D02*
D03*
X24532D02*
D03*
X26500D02*
D03*
X28468D02*
D03*
X30437D02*
D03*
X32405D02*
D03*
X34374D02*
D03*
X36342D02*
D03*
X38311D02*
D03*
X40279D02*
D03*
M02*
