G04*
G04 #@! TF.GenerationSoftware,Altium Limited,Altium Designer,21.3.2 (30)*
G04*
G04 Layer_Physical_Order=2*
G04 Layer_Color=16776960*
%FSLAX25Y25*%
%MOIN*%
G70*
G04*
G04 #@! TF.SameCoordinates,20047665-8901-4395-8F35-5F40874213DC*
G04*
G04*
G04 #@! TF.FilePolarity,Positive*
G04*
G01*
G75*
%ADD15C,0.00500*%
%ADD58C,0.00400*%
%ADD61C,0.01000*%
%ADD62C,0.01968*%
G36*
X112570Y78436D02*
X114004Y77842D01*
X115294Y76981D01*
X116391Y75884D01*
X117252Y74594D01*
X117845Y73160D01*
X118148Y71639D01*
X118147Y70863D01*
X118147Y40345D01*
X117647Y40246D01*
X117543Y40497D01*
X117097Y40943D01*
X116515Y41184D01*
X115885D01*
X115303Y40943D01*
X114900Y40541D01*
X114597Y40843D01*
X114015Y41084D01*
X113385D01*
X112803Y40843D01*
X112455Y40495D01*
X112443Y40497D01*
X111997Y40943D01*
X111415Y41184D01*
X110785D01*
X110203Y40943D01*
X109800Y40541D01*
X109397Y40943D01*
X108815Y41184D01*
X108185D01*
X107603Y40943D01*
X107157Y40497D01*
X106916Y39915D01*
Y39285D01*
X107157Y38703D01*
X107256Y38604D01*
X107259Y37899D01*
X107257Y37897D01*
X107016Y37315D01*
Y36685D01*
X107257Y36103D01*
X107659Y35700D01*
X107257Y35297D01*
X107016Y34715D01*
Y34085D01*
X107257Y33503D01*
X107703Y33057D01*
X108285Y32816D01*
X108915D01*
X109497Y33057D01*
X109900Y33459D01*
X110303Y33057D01*
X110885Y32816D01*
X111515D01*
X112097Y33057D01*
X112500Y33459D01*
X112903Y33057D01*
X113485Y32816D01*
X114115D01*
X114697Y33057D01*
X115050Y33410D01*
X115403Y33057D01*
X115985Y32816D01*
X116615D01*
X117197Y33057D01*
X117643Y33503D01*
X117647Y33513D01*
X118147Y33413D01*
X118147Y7871D01*
X118147Y7871D01*
X118148Y7096D01*
X117845Y5574D01*
X117252Y4141D01*
X116391Y2851D01*
X115294Y1754D01*
X114004Y892D01*
X112570Y299D01*
X111049Y-3D01*
X110273Y-3D01*
X92545D01*
X92338Y497D01*
X92543Y703D01*
X92784Y1285D01*
Y1915D01*
X92543Y2497D01*
X92097Y2943D01*
X91515Y3184D01*
X90885D01*
X90303Y2943D01*
X89857Y2497D01*
X89616Y1915D01*
Y1285D01*
X89857Y703D01*
X90062Y497D01*
X89855Y-3D01*
X7911D01*
X7136Y-3D01*
X5615Y300D01*
X4182Y894D01*
X2892Y1756D01*
X1796Y2853D01*
X934Y4142D01*
X340Y5575D01*
X37Y7096D01*
X37Y7871D01*
Y70863D01*
X37Y71639D01*
X340Y73160D01*
X934Y74592D01*
X1796Y75882D01*
X2892Y76978D01*
X4182Y77840D01*
X5615Y78434D01*
X7136Y78737D01*
X7911Y78737D01*
X17990D01*
X18197Y78237D01*
X17957Y77997D01*
X17716Y77415D01*
Y76785D01*
X17799Y76583D01*
X17416Y76201D01*
X17215Y76284D01*
X16585D01*
X16003Y76043D01*
X15557Y75597D01*
X15316Y75015D01*
Y74385D01*
X15557Y73803D01*
X16003Y73357D01*
X16084Y73323D01*
Y70800D01*
X16084Y70800D01*
X16146Y70488D01*
X16323Y70223D01*
X18384Y68162D01*
Y65909D01*
X17884Y65631D01*
X17515Y65784D01*
X16885D01*
X16303Y65543D01*
X15900Y65140D01*
X15497Y65543D01*
X14915Y65784D01*
X14285D01*
X13703Y65543D01*
X13257Y65097D01*
X13016Y64515D01*
Y63885D01*
X13257Y63303D01*
X13703Y62857D01*
X14285Y62616D01*
X14915D01*
X15497Y62857D01*
X15900Y63260D01*
X16303Y62857D01*
X16722Y62683D01*
X16900Y62154D01*
X14923Y60177D01*
X14795Y59986D01*
X14662Y59889D01*
X14207Y59762D01*
X14073Y59818D01*
X13735D01*
X13422Y59688D01*
X13183Y59449D01*
X13054Y59137D01*
Y58799D01*
X13183Y58486D01*
X13270Y58400D01*
X13369Y58081D01*
X13268Y57770D01*
X13179Y57682D01*
X13050Y57369D01*
Y57031D01*
X13179Y56718D01*
X13419Y56479D01*
X13731Y56350D01*
X14069D01*
X14381Y56479D01*
X14405Y56503D01*
X14905Y56296D01*
Y55047D01*
X13179Y53321D01*
X13005Y52900D01*
Y39900D01*
X13179Y39479D01*
X13979Y38679D01*
X14400Y38505D01*
X17400D01*
X17821Y38679D01*
X18066Y38924D01*
X18321Y38893D01*
X18760Y38648D01*
Y38309D01*
X18890Y37997D01*
X19129Y37758D01*
X19441Y37629D01*
X19779D01*
X20092Y37758D01*
X20331Y37997D01*
X20339Y38017D01*
X20879Y38019D01*
X21118Y37779D01*
X21431Y37650D01*
X21769D01*
X22082Y37779D01*
X22321Y38019D01*
X22450Y38331D01*
Y38669D01*
X22321Y38982D01*
X22082Y39221D01*
X21769Y39350D01*
X21592D01*
X20816Y40126D01*
X20731Y40527D01*
X20738Y40755D01*
X21560Y41577D01*
X21737D01*
X22049Y41706D01*
X22288Y41945D01*
X22867Y42036D01*
X23005Y41940D01*
Y41001D01*
X22879Y40876D01*
X22750Y40564D01*
Y40225D01*
X22879Y39913D01*
X23119Y39674D01*
X23431Y39544D01*
X23769D01*
X24081Y39674D01*
X24321Y39913D01*
X24450Y40225D01*
Y40564D01*
X24321Y40876D01*
X24195Y41001D01*
Y42022D01*
X24695Y42121D01*
X24779Y41919D01*
X25019Y41679D01*
X25331Y41550D01*
X25669D01*
X25982Y41679D01*
X26221Y41919D01*
X26350Y42231D01*
Y42569D01*
X26221Y42882D01*
X25982Y43121D01*
X25669Y43250D01*
X25331D01*
X25019Y43121D01*
X24779Y42882D01*
X24679Y42639D01*
X24355Y42613D01*
X24179Y42639D01*
X24021Y43021D01*
X23944Y43098D01*
X24019Y43654D01*
X24049Y43699D01*
X24260Y43910D01*
X24390Y44223D01*
Y44561D01*
X24260Y44873D01*
X24021Y45112D01*
X23990Y45313D01*
X23998Y45663D01*
X24183Y45849D01*
X24240Y45987D01*
X24774Y46004D01*
X24829Y45871D01*
X25069Y45632D01*
X25381Y45503D01*
X25719D01*
X26032Y45632D01*
X26271Y45871D01*
X26400Y46184D01*
Y46522D01*
X26271Y46834D01*
X26032Y47073D01*
X25719Y47203D01*
X25381D01*
X25069Y47073D01*
X24829Y46834D01*
X24772Y46696D01*
X24238Y46679D01*
X24183Y46812D01*
X23944Y47051D01*
X23917Y47062D01*
X23938Y47594D01*
X24081Y47653D01*
X24321Y47892D01*
X24450Y48205D01*
Y48543D01*
X24321Y48856D01*
X24081Y49095D01*
X23769Y49224D01*
X23431D01*
X23119Y49095D01*
X23095Y49071D01*
X22595Y49279D01*
Y51349D01*
X23095Y51665D01*
X23131Y51650D01*
X23469D01*
X23781Y51779D01*
X24021Y52018D01*
X24150Y52331D01*
Y52669D01*
X24021Y52982D01*
X23781Y53221D01*
X23469Y53350D01*
X23131D01*
X23095Y53335D01*
X22595Y53651D01*
Y55295D01*
X22792Y55427D01*
X23095Y55548D01*
X23331Y55450D01*
X23669D01*
X23981Y55579D01*
X24221Y55818D01*
X24350Y56131D01*
Y56469D01*
X24221Y56782D01*
X23981Y57021D01*
X23897Y57056D01*
X23881Y57590D01*
X24121Y57829D01*
X24250Y58142D01*
Y58480D01*
X24121Y58793D01*
X23881Y59032D01*
X23569Y59161D01*
X23231D01*
X23095Y59105D01*
X22654Y59332D01*
X22595Y59398D01*
Y60242D01*
X24522Y62169D01*
X24984Y61977D01*
Y60752D01*
X24950Y60669D01*
Y60331D01*
X25079Y60018D01*
X25319Y59779D01*
X25631Y59650D01*
X25969D01*
X26281Y59779D01*
X26355Y59853D01*
X26855Y59646D01*
Y58797D01*
X26703Y58645D01*
X26574Y58333D01*
Y57995D01*
X26703Y57682D01*
X26943Y57443D01*
X27255Y57314D01*
X27593D01*
X27905Y57443D01*
X28105Y57642D01*
X28289Y57622D01*
X28605Y57489D01*
Y50724D01*
X28105Y50625D01*
X28071Y50707D01*
X27832Y50946D01*
X27519Y51075D01*
X27181D01*
X26869Y50946D01*
X26748Y50826D01*
X26355Y50793D01*
X26151Y50857D01*
X25986Y51021D01*
X25674Y51151D01*
X25336D01*
X25023Y51021D01*
X24784Y50782D01*
X24655Y50470D01*
Y50132D01*
X24784Y49819D01*
X25023Y49580D01*
X25336Y49451D01*
X25674D01*
X25986Y49580D01*
X26106Y49700D01*
X26500Y49733D01*
X26704Y49669D01*
X26869Y49505D01*
X27181Y49375D01*
X27519D01*
X27832Y49505D01*
X28071Y49744D01*
X28105Y49826D01*
X28605Y49727D01*
Y41028D01*
X28105Y40928D01*
X28082Y40984D01*
X27842Y41223D01*
X27530Y41353D01*
X27192D01*
X26879Y41223D01*
X26640Y40984D01*
X26511Y40672D01*
Y40334D01*
X26640Y40021D01*
X26879Y39782D01*
X27134Y39677D01*
X27249Y39422D01*
X27316Y39153D01*
X26850Y38686D01*
X26776Y38680D01*
X26289Y38833D01*
X26236Y38960D01*
X25997Y39199D01*
X25685Y39329D01*
X25347D01*
X25034Y39199D01*
X24909Y39074D01*
X24419D01*
X23998Y38900D01*
X23279Y38181D01*
X23105Y37760D01*
Y32719D01*
X22690Y32601D01*
X22605Y32597D01*
X22381Y32821D01*
X22069Y32950D01*
X21731D01*
X21418Y32821D01*
X21179Y32581D01*
X21050Y32269D01*
Y31931D01*
X20906Y31716D01*
X14338D01*
X6750Y39303D01*
X6784Y39385D01*
Y40015D01*
X6543Y40597D01*
X6097Y41043D01*
X5988Y41088D01*
X5891Y41579D01*
X5915Y41603D01*
X6156Y42185D01*
Y42815D01*
X5915Y43397D01*
X5469Y43843D01*
X4887Y44084D01*
X4256D01*
X3674Y43843D01*
X3386Y43555D01*
X3097Y43843D01*
X2515Y44084D01*
X1885D01*
X1303Y43843D01*
X857Y43397D01*
X616Y42815D01*
Y42185D01*
X857Y41603D01*
X1303Y41157D01*
X1885Y40916D01*
X2515D01*
X3097Y41157D01*
X3386Y41445D01*
X3674Y41157D01*
X3783Y41112D01*
X3881Y40621D01*
X3857Y40597D01*
X3616Y40015D01*
Y39385D01*
X3857Y38803D01*
X4303Y38357D01*
X4885Y38116D01*
X5515D01*
X5597Y38150D01*
X13423Y30323D01*
X13688Y30146D01*
X14000Y30084D01*
X14000Y30084D01*
X22900D01*
X22900Y30084D01*
X23212Y30146D01*
X23477Y30323D01*
X24277Y31123D01*
X24454Y31388D01*
X24516Y31700D01*
X24454Y32012D01*
X24295Y32249D01*
Y35966D01*
X24795Y36066D01*
X24806Y36040D01*
X25045Y35801D01*
X25358Y35671D01*
X25696D01*
X26008Y35801D01*
X26188Y35981D01*
X26379Y36033D01*
X26777Y36011D01*
X26914Y35874D01*
Y35347D01*
X26711Y35143D01*
X26675Y35107D01*
X26281Y34921D01*
X25969Y35050D01*
X25631D01*
X25319Y34921D01*
X25079Y34681D01*
X24950Y34369D01*
Y34031D01*
X25079Y33718D01*
X25319Y33479D01*
X25631Y33350D01*
X25732D01*
X26241Y32841D01*
X26700Y32651D01*
X27900D01*
X28359Y32841D01*
X29972Y34454D01*
X30163Y34913D01*
Y35958D01*
X30234Y36029D01*
X30363Y36341D01*
Y36679D01*
X30234Y36992D01*
X29994Y37231D01*
X29682Y37360D01*
X29344D01*
X29032Y37231D01*
X28792Y36992D01*
X28722Y36821D01*
X28594Y36806D01*
X28201Y36871D01*
X28116Y37076D01*
X27877Y37315D01*
X27872Y37317D01*
X27754Y37906D01*
X29621Y39774D01*
X29795Y40194D01*
Y59542D01*
X30208Y59955D01*
X30765Y59918D01*
X31004Y59679D01*
X31316Y59550D01*
X31654D01*
X31967Y59679D01*
X32206Y59918D01*
X32335Y60231D01*
Y60431D01*
X32518Y60690D01*
X32760Y60850D01*
X32969D01*
X33281Y60979D01*
X33521Y61219D01*
X33650Y61531D01*
Y61869D01*
X33521Y62182D01*
X33281Y62421D01*
X33235Y62981D01*
X34738Y64484D01*
X52437D01*
X52551Y64346D01*
X52710Y63984D01*
X52516Y63515D01*
Y62885D01*
X52757Y62303D01*
X53203Y61857D01*
X53785Y61616D01*
X54415D01*
X54997Y61857D01*
X55084Y61944D01*
X55584Y61737D01*
Y57777D01*
X55503Y57743D01*
X55057Y57297D01*
X54816Y56715D01*
Y56085D01*
X55057Y55503D01*
X55130Y55429D01*
X54847Y55005D01*
X54415Y55184D01*
X53785D01*
X53203Y54943D01*
X52757Y54497D01*
X52723Y54416D01*
X49231D01*
X48984Y54785D01*
Y55415D01*
X48743Y55997D01*
X48297Y56443D01*
X47715Y56684D01*
X47085D01*
X46503Y56443D01*
X46057Y55997D01*
X45816Y55415D01*
Y54785D01*
X45850Y54703D01*
X42323Y51177D01*
X42146Y50912D01*
X42084Y50600D01*
X42146Y50288D01*
X42305Y50051D01*
Y42735D01*
X41886Y42367D01*
X41548D01*
X41236Y42238D01*
X40997Y41999D01*
X40867Y41686D01*
Y41348D01*
X40997Y41036D01*
X41236Y40797D01*
X41548Y40667D01*
X41886D01*
X42279Y40322D01*
X41969Y39950D01*
X41631D01*
X41319Y39821D01*
X41079Y39582D01*
X40950Y39269D01*
Y39092D01*
X40579Y38721D01*
X40405Y38300D01*
Y34007D01*
X40279Y33882D01*
X40150Y33569D01*
Y33231D01*
X40279Y32919D01*
X40519Y32679D01*
X40589Y32650D01*
X40734Y32088D01*
X38123Y29477D01*
X37946Y29212D01*
X37884Y28900D01*
X37884Y28900D01*
Y26007D01*
X37384Y25673D01*
X37115Y25784D01*
X36485D01*
X35903Y25543D01*
X35457Y25097D01*
X35284Y24680D01*
X34784Y24780D01*
Y24815D01*
X34543Y25397D01*
X34097Y25843D01*
X33515Y26084D01*
X32885D01*
X32303Y25843D01*
X31857Y25397D01*
X31616Y24815D01*
Y24185D01*
X31857Y23603D01*
X32303Y23157D01*
X32661Y23009D01*
X32884Y22699D01*
X32882Y22417D01*
X32716Y22015D01*
Y21385D01*
X32957Y20803D01*
X33403Y20357D01*
X33985Y20116D01*
X34615D01*
X35197Y20357D01*
X35643Y20803D01*
X35884Y21385D01*
Y22015D01*
X35730Y22387D01*
X36113Y22770D01*
X36485Y22616D01*
X37115D01*
X37384Y22727D01*
X37884Y22393D01*
Y17938D01*
X30855Y10908D01*
X30678Y10644D01*
X30616Y10332D01*
X30616Y10331D01*
Y7977D01*
X30116Y7643D01*
X30015Y7684D01*
X29385D01*
X28803Y7443D01*
X28357Y6997D01*
X28116Y6415D01*
Y5785D01*
X28357Y5203D01*
X28803Y4757D01*
X29385Y4516D01*
X29596D01*
X29930Y4016D01*
X29847Y3815D01*
Y3185D01*
X30088Y2603D01*
X30534Y2157D01*
X31116Y1916D01*
X31747D01*
X32329Y2157D01*
X32455Y2283D01*
X32781Y2596D01*
X33108Y2283D01*
X33234Y2157D01*
X33816Y1916D01*
X34447D01*
X35029Y2157D01*
X35416Y2544D01*
X35803Y2157D01*
X36385Y1916D01*
X37015D01*
X37597Y2157D01*
X38016Y2575D01*
X38434Y2157D01*
X39016Y1916D01*
X39647D01*
X40113Y2109D01*
X40657Y2103D01*
X41103Y1657D01*
X41685Y1416D01*
X42315D01*
X42897Y1657D01*
X43343Y2103D01*
X43584Y2685D01*
Y3315D01*
X43343Y3897D01*
X42897Y4343D01*
X42315Y4584D01*
X41685D01*
X41218Y4391D01*
X40674Y4397D01*
X40229Y4843D01*
X39647Y5084D01*
X39016D01*
X38434Y4843D01*
X38016Y4425D01*
X37597Y4843D01*
X37015Y5084D01*
X36385D01*
X35803Y4843D01*
X35416Y4456D01*
X35029Y4843D01*
X34947Y4877D01*
Y11394D01*
X40177Y16623D01*
X40177Y16623D01*
X40354Y16888D01*
X40416Y17200D01*
X40416Y17200D01*
Y19802D01*
X40831Y20079D01*
X40985Y20016D01*
X41615D01*
X42047Y19705D01*
X42123Y19477D01*
X41946Y19212D01*
X41884Y18900D01*
X41884Y18900D01*
Y15600D01*
X41884Y15600D01*
X41946Y15288D01*
X42123Y15023D01*
X42950Y14197D01*
X42916Y14115D01*
Y13485D01*
X43157Y12903D01*
X43603Y12457D01*
X44185Y12216D01*
X44815D01*
X45397Y12457D01*
X45843Y12903D01*
X46084Y13485D01*
Y14115D01*
X45843Y14697D01*
X45753Y14787D01*
X45582Y15257D01*
X45759Y15435D01*
X46027Y15703D01*
X46268Y16285D01*
Y16915D01*
X46027Y17497D01*
X45582Y17943D01*
X44999Y18184D01*
X44716D01*
Y28862D01*
X45577Y29723D01*
X46001Y29440D01*
X45820Y29004D01*
Y28374D01*
X46061Y27792D01*
X46456Y27397D01*
X46057Y26997D01*
X45816Y26415D01*
Y25785D01*
X46057Y25203D01*
X46425Y24834D01*
X46057Y24466D01*
X45816Y23884D01*
Y23253D01*
X46057Y22671D01*
X46394Y22334D01*
X46057Y21997D01*
X45816Y21415D01*
Y20785D01*
X46057Y20203D01*
X46503Y19757D01*
X47085Y19516D01*
X47715D01*
X48297Y19757D01*
X48743Y20203D01*
X48777Y20284D01*
X50600D01*
X50600Y20284D01*
X50912Y20346D01*
X51177Y20523D01*
X52753Y22100D01*
X53369Y22034D01*
X53382Y22021D01*
X53383Y21823D01*
X52957Y21397D01*
X52716Y20815D01*
Y20185D01*
X52957Y19603D01*
X53038Y19522D01*
X53003Y19343D01*
X52557Y18897D01*
X52316Y18315D01*
Y17685D01*
X52557Y17103D01*
X52905Y16755D01*
X52903Y16743D01*
X52457Y16297D01*
X52216Y15715D01*
Y15085D01*
X52457Y14503D01*
X52843Y14116D01*
X52456Y13729D01*
X52215Y13147D01*
Y12517D01*
X52456Y11934D01*
X52902Y11489D01*
X53484Y11247D01*
X54115D01*
X54697Y11489D01*
X55143Y11934D01*
X55177Y12016D01*
X62432D01*
X62432Y12016D01*
X62744Y12078D01*
X62914Y12192D01*
X63008Y12255D01*
X63610Y12149D01*
X63703Y12057D01*
X64285Y11816D01*
X64915D01*
X65497Y12057D01*
X65943Y12503D01*
X66184Y13085D01*
Y13715D01*
X65943Y14297D01*
X65601Y14639D01*
X65943Y14981D01*
X66184Y15564D01*
Y16101D01*
X66210Y16218D01*
X66573Y16563D01*
X66915D01*
X67497Y16804D01*
X67943Y17250D01*
X68184Y17832D01*
Y18462D01*
X67943Y19045D01*
X67606Y19381D01*
X67943Y19718D01*
X68184Y20301D01*
Y20931D01*
X68127Y21069D01*
X68405Y21484D01*
X69062D01*
X69223Y21323D01*
X69223Y21323D01*
X69488Y21146D01*
X69800Y21084D01*
X69800Y21084D01*
X71423D01*
X71457Y21003D01*
X71903Y20557D01*
X72485Y20316D01*
X73115D01*
X73697Y20557D01*
X74143Y21003D01*
X74384Y21585D01*
Y22215D01*
X74143Y22797D01*
X73697Y23243D01*
X73115Y23484D01*
X72485D01*
X71903Y23243D01*
X71457Y22797D01*
X71423Y22716D01*
X70138D01*
X69977Y22877D01*
X69712Y23054D01*
X69400Y23116D01*
X69400Y23116D01*
X68805D01*
X68527Y23531D01*
X68584Y23669D01*
Y24299D01*
X68466Y24584D01*
X68794Y25084D01*
X71423D01*
X71457Y25003D01*
X71903Y24557D01*
X72485Y24316D01*
X73115D01*
X73697Y24557D01*
X74143Y25003D01*
X74384Y25585D01*
Y26116D01*
X74815D01*
X75316Y26323D01*
X75629Y26197D01*
X75816Y26068D01*
Y25816D01*
X76057Y25234D01*
X76503Y24788D01*
X76508Y24786D01*
Y24245D01*
X76503Y24243D01*
X76057Y23797D01*
X75816Y23215D01*
Y22585D01*
X76057Y22003D01*
X76503Y21557D01*
X77085Y21316D01*
X77715D01*
X78297Y21557D01*
X78743Y22003D01*
X78984Y22585D01*
Y23215D01*
X78743Y23797D01*
X78297Y24243D01*
X78292Y24245D01*
Y24786D01*
X78297Y24788D01*
X78743Y25234D01*
X78984Y25816D01*
Y26447D01*
X78743Y27029D01*
X78406Y27366D01*
X78743Y27703D01*
X78984Y28285D01*
Y28915D01*
X78743Y29497D01*
X78391Y29850D01*
X78743Y30203D01*
X78984Y30785D01*
Y31415D01*
X78927Y31553D01*
X79205Y31969D01*
X81988D01*
X82057Y31803D01*
X82503Y31357D01*
X83085Y31116D01*
X83715D01*
X84297Y31357D01*
X84743Y31803D01*
X84984Y32385D01*
Y33015D01*
X84743Y33597D01*
X84297Y34043D01*
X83715Y34284D01*
X83085D01*
X82503Y34043D01*
X82060Y33600D01*
X79305D01*
X79027Y34016D01*
X79084Y34153D01*
Y34784D01*
X78843Y35366D01*
X78506Y35703D01*
X78843Y36040D01*
X79084Y36622D01*
Y37252D01*
X78843Y37834D01*
X78397Y38280D01*
X77815Y38521D01*
X77680D01*
X77184Y38915D01*
X77156Y38983D01*
Y38983D01*
X77139Y39023D01*
X76943Y39497D01*
X76497Y39943D01*
X75915Y40184D01*
X75285D01*
X74703Y39943D01*
X74257Y39497D01*
X73738Y39551D01*
X73415Y39684D01*
X72785D01*
X72203Y39443D01*
X71757Y38997D01*
X71516Y38415D01*
Y37785D01*
X71627Y37516D01*
X71293Y37016D01*
X68599D01*
X68321Y37431D01*
X68384Y37585D01*
Y38215D01*
X68143Y38797D01*
X67791Y39150D01*
X68143Y39503D01*
X68384Y40085D01*
Y40715D01*
X68143Y41297D01*
X68017Y41423D01*
X67704Y41750D01*
X68017Y42077D01*
X68143Y42203D01*
X68384Y42785D01*
Y43415D01*
X68143Y43997D01*
X67697Y44443D01*
X67695Y44455D01*
X68043Y44803D01*
X68284Y45385D01*
Y45455D01*
X68784Y45662D01*
X72823Y41623D01*
X72823Y41623D01*
X73088Y41446D01*
X73400Y41384D01*
X73400Y41384D01*
X75923D01*
X75957Y41303D01*
X76403Y40857D01*
X76985Y40616D01*
X77615D01*
X78197Y40857D01*
X78643Y41303D01*
X78884Y41885D01*
Y42515D01*
X78643Y43097D01*
X78241Y43500D01*
X78643Y43903D01*
X78884Y44485D01*
Y45115D01*
X78643Y45697D01*
X78367Y45973D01*
X78214Y46191D01*
X78358Y46618D01*
X78543Y46803D01*
X78784Y47385D01*
Y48015D01*
X78543Y48597D01*
X78267Y48873D01*
X78097Y49043D01*
X78258Y49518D01*
X78343Y49603D01*
X78584Y50185D01*
Y50815D01*
X78343Y51397D01*
X77897Y51843D01*
X77315Y52084D01*
X77338Y52574D01*
X77384Y52685D01*
Y53315D01*
X77143Y53897D01*
X76811Y54229D01*
X77094Y54653D01*
X77185Y54616D01*
X77815D01*
X78397Y54857D01*
X78843Y55303D01*
X79084Y55885D01*
Y56515D01*
X78843Y57097D01*
X78454Y57487D01*
X78736Y57769D01*
X78977Y58351D01*
Y58981D01*
X78736Y59564D01*
X78290Y60009D01*
X77708Y60250D01*
X77078D01*
X76495Y60009D01*
X76050Y59564D01*
X75809Y58981D01*
Y58351D01*
X76050Y57769D01*
X76439Y57380D01*
X76157Y57097D01*
X75916Y56515D01*
Y55885D01*
X76157Y55303D01*
X76489Y54971D01*
X76206Y54547D01*
X76115Y54584D01*
X75485D01*
X74903Y54343D01*
X74457Y53897D01*
X74300Y53518D01*
X74128Y53306D01*
X73716Y53260D01*
X73415Y53384D01*
X72785D01*
X72203Y53143D01*
X71757Y52697D01*
X71516Y52115D01*
Y51485D01*
X71757Y50903D01*
X72159Y50500D01*
X71757Y50097D01*
X71642Y49819D01*
X71054Y49700D01*
X69677Y51077D01*
X69412Y51254D01*
X69100Y51316D01*
X69100Y51316D01*
X59477D01*
X59443Y51397D01*
X59091Y51750D01*
X59443Y52103D01*
X59684Y52685D01*
Y53315D01*
X59443Y53897D01*
X58997Y54343D01*
X58415Y54584D01*
X57785D01*
X57203Y54343D01*
X56757Y53897D01*
X56516Y53315D01*
Y52685D01*
X56757Y52103D01*
X57109Y51750D01*
X56757Y51397D01*
X56516Y50815D01*
Y50185D01*
X56757Y49603D01*
X56883Y49477D01*
X57196Y49150D01*
X56883Y48823D01*
X56757Y48697D01*
X56516Y48115D01*
Y47485D01*
X56757Y46903D01*
X57083Y46577D01*
X57187Y46371D01*
X57113Y45953D01*
X56857Y45697D01*
X56616Y45115D01*
Y44485D01*
X56857Y43903D01*
X57160Y43600D01*
X56757Y43197D01*
X56516Y42615D01*
Y41985D01*
X56599Y41784D01*
X56586Y41312D01*
X56347Y41186D01*
X56003Y41043D01*
X55557Y40597D01*
X55316Y40015D01*
Y39385D01*
X55557Y38803D01*
X56003Y38357D01*
X56585Y38116D01*
X57215D01*
X57797Y38357D01*
X58243Y38803D01*
X58484Y39385D01*
Y40015D01*
X58401Y40216D01*
X58414Y40688D01*
X58653Y40814D01*
X58997Y40957D01*
X59443Y41403D01*
X59684Y41985D01*
Y42615D01*
X59650Y42697D01*
X63938Y46984D01*
X65091D01*
X65310Y46484D01*
X65116Y46015D01*
Y45385D01*
X65357Y44803D01*
X65803Y44357D01*
X65805Y44345D01*
X65457Y43997D01*
X65216Y43415D01*
Y42785D01*
X65457Y42203D01*
X65583Y42077D01*
X65896Y41750D01*
X65583Y41423D01*
X65457Y41297D01*
X65216Y40715D01*
Y40085D01*
X65457Y39503D01*
X65810Y39150D01*
X65457Y38797D01*
X65273Y38353D01*
X64715Y38584D01*
X64085D01*
X63503Y38343D01*
X63057Y37897D01*
X62816Y37315D01*
Y36685D01*
X63057Y36103D01*
X63410Y35750D01*
X63057Y35397D01*
X62816Y34815D01*
Y34185D01*
X62879Y34031D01*
X62602Y33616D01*
X59677D01*
X59643Y33697D01*
X59197Y34143D01*
X58615Y34384D01*
X57985D01*
X57403Y34143D01*
X57000Y33740D01*
X56597Y34143D01*
X56015Y34384D01*
X55385D01*
X54803Y34143D01*
X54357Y33697D01*
X54116Y33115D01*
Y32485D01*
X54357Y31903D01*
X54803Y31457D01*
X55385Y31216D01*
X56015D01*
X56597Y31457D01*
X57000Y31859D01*
X57403Y31457D01*
X57682Y31341D01*
Y30800D01*
X57303Y30643D01*
X56857Y30197D01*
X56616Y29615D01*
Y28985D01*
X56686Y28816D01*
X56352Y28316D01*
X49028D01*
X48989Y28374D01*
Y29004D01*
X48748Y29586D01*
X48302Y30032D01*
X47720Y30273D01*
X47089D01*
X46648Y30091D01*
X46409Y30325D01*
X46335Y30502D01*
X46469Y30704D01*
X46531Y31016D01*
X46531Y31016D01*
Y39695D01*
X46947Y39973D01*
X47085Y39916D01*
X47715D01*
X48297Y40157D01*
X48743Y40603D01*
X48984Y41185D01*
Y41815D01*
X48743Y42397D01*
X48297Y42843D01*
X47715Y43084D01*
X47085D01*
X46947Y43027D01*
X46531Y43305D01*
Y44778D01*
X47303Y45550D01*
X47385Y45516D01*
X48015D01*
X48597Y45757D01*
X49043Y46203D01*
X49284Y46785D01*
Y47415D01*
X49043Y47997D01*
X48917Y48123D01*
X48604Y48450D01*
X48917Y48777D01*
X49043Y48903D01*
X49284Y49485D01*
Y50115D01*
X49043Y50697D01*
X48597Y51143D01*
X48015Y51384D01*
X47845D01*
X47638Y51884D01*
X48538Y52784D01*
X52723D01*
X52757Y52703D01*
X53203Y52257D01*
X53785Y52016D01*
X54415D01*
X54997Y52257D01*
X55443Y52703D01*
X55684Y53285D01*
Y53915D01*
X55443Y54497D01*
X55370Y54571D01*
X55653Y54995D01*
X56085Y54816D01*
X56715D01*
X57297Y55057D01*
X57743Y55503D01*
X57984Y56085D01*
Y56354D01*
X57985Y56715D01*
X58446Y56816D01*
X58615D01*
X59197Y57057D01*
X59643Y57503D01*
X59884Y58085D01*
Y58715D01*
X59643Y59297D01*
X59197Y59743D01*
X59116Y59777D01*
Y64800D01*
X59116Y64800D01*
X59054Y65112D01*
X58877Y65377D01*
X58877Y65377D01*
X56769Y67484D01*
X56976Y67984D01*
X81162D01*
X82784Y66362D01*
Y64977D01*
X82703Y64943D01*
X82257Y64497D01*
X82016Y63915D01*
Y63285D01*
X82257Y62703D01*
X82556Y62404D01*
X82857Y61997D01*
X82616Y61415D01*
Y60785D01*
X82857Y60203D01*
X83303Y59757D01*
X83885Y59516D01*
X84515D01*
X85097Y59757D01*
X85543Y60203D01*
X85784Y60785D01*
Y61331D01*
X86077Y61623D01*
X86077Y61623D01*
X86254Y61888D01*
X86316Y62200D01*
Y66400D01*
X86316Y66400D01*
X86254Y66712D01*
X86077Y66977D01*
X86077Y66977D01*
X82677Y70377D01*
X82412Y70554D01*
X82100Y70616D01*
X82100Y70616D01*
X29200D01*
X29200Y70616D01*
X28888Y70554D01*
X28623Y70377D01*
X21516Y63269D01*
X21016Y63476D01*
Y70188D01*
X20954Y70500D01*
X20777Y70764D01*
X20777Y70765D01*
X20116Y71426D01*
Y75723D01*
X20197Y75757D01*
X20643Y76203D01*
X20884Y76785D01*
Y77415D01*
X20643Y77997D01*
X20403Y78237D01*
X20610Y78737D01*
X40289D01*
X40396Y78271D01*
X40397Y78237D01*
X39957Y77797D01*
X39716Y77215D01*
Y76585D01*
X39957Y76003D01*
X40310Y75650D01*
X39957Y75297D01*
X39716Y74715D01*
Y74085D01*
X39957Y73503D01*
X40403Y73057D01*
X40985Y72816D01*
X41615D01*
X42197Y73057D01*
X42550Y73409D01*
X42903Y73057D01*
X43485Y72816D01*
X44115D01*
X44697Y73057D01*
X45000Y73360D01*
X45303Y73057D01*
X45885Y72816D01*
X46515D01*
X47097Y73057D01*
X47543Y73503D01*
X47784Y74085D01*
Y74715D01*
X47543Y75297D01*
X47190Y75650D01*
X47543Y76003D01*
X47784Y76585D01*
Y77215D01*
X47543Y77797D01*
X47103Y78237D01*
X47104Y78271D01*
X47211Y78737D01*
X87790Y78737D01*
X87997Y78237D01*
X87957Y78197D01*
X87716Y77615D01*
Y76985D01*
X87957Y76403D01*
X88403Y75957D01*
X88985Y75716D01*
X89615D01*
X90197Y75957D01*
X90323Y76083D01*
X90650Y76396D01*
X90977Y76083D01*
X91103Y75957D01*
X91685Y75716D01*
X92315D01*
X92897Y75957D01*
X93343Y76403D01*
X93584Y76985D01*
Y77615D01*
X93343Y78197D01*
X93303Y78237D01*
X93510Y78737D01*
X110273D01*
X110273Y78737D01*
X110273Y78737D01*
X111049Y78738D01*
X112570Y78436D01*
D02*
G37*
G36*
X19816Y76256D02*
X19563Y76038D01*
X19535Y76007D01*
X19516Y75980D01*
X19504Y75958D01*
X19500Y75939D01*
X19100D01*
X19096Y75958D01*
X19084Y75980D01*
X19065Y76007D01*
X19038Y76038D01*
X19002Y76073D01*
X18909Y76156D01*
X18710Y76313D01*
X19891D01*
X19816Y76256D01*
D02*
G37*
G36*
X17416Y73856D02*
X17163Y73638D01*
X17135Y73607D01*
X17116Y73580D01*
X17104Y73558D01*
X17100Y73539D01*
X16700D01*
X16696Y73558D01*
X16684Y73580D01*
X16665Y73607D01*
X16637Y73638D01*
X16602Y73673D01*
X16509Y73756D01*
X16309Y73913D01*
X17491D01*
X17416Y73856D01*
D02*
G37*
G36*
X83804Y64742D02*
X83816Y64720D01*
X83835Y64693D01*
X83863Y64662D01*
X83898Y64627D01*
X83991Y64544D01*
X84190Y64387D01*
X83009D01*
X83084Y64444D01*
X83337Y64662D01*
X83365Y64693D01*
X83384Y64720D01*
X83396Y64742D01*
X83400Y64761D01*
X83800D01*
X83804Y64742D01*
D02*
G37*
G36*
X54304Y64342D02*
X54316Y64320D01*
X54335Y64293D01*
X54362Y64262D01*
X54398Y64227D01*
X54491Y64144D01*
X54690Y63987D01*
X53509D01*
X53584Y64044D01*
X53838Y64262D01*
X53865Y64293D01*
X53884Y64320D01*
X53896Y64342D01*
X53900Y64361D01*
X54300D01*
X54304Y64342D01*
D02*
G37*
G36*
X84564Y62020D02*
X84832Y61961D01*
X84879Y61956D01*
X84919Y61955D01*
X84952Y61958D01*
X84976Y61965D01*
X84992Y61975D01*
X85233Y61651D01*
X85224Y61636D01*
X85216Y61613D01*
X85209Y61581D01*
X85202Y61539D01*
X85193Y61428D01*
X85185Y61194D01*
X85184Y61098D01*
X84478Y62044D01*
X84564Y62020D01*
D02*
G37*
G36*
X26001Y61042D02*
X26004Y61025D01*
X26009Y61009D01*
X26016Y60993D01*
X26025Y60977D01*
X26036Y60961D01*
X26049Y60946D01*
X26064Y60930D01*
X26081Y60915D01*
X26100Y60900D01*
X25500D01*
X25519Y60915D01*
X25536Y60930D01*
X25551Y60946D01*
X25564Y60961D01*
X25575Y60977D01*
X25584Y60993D01*
X25591Y61009D01*
X25596Y61025D01*
X25599Y61042D01*
X25600Y61058D01*
X26000D01*
X26001Y61042D01*
D02*
G37*
G36*
X58504Y59542D02*
X58516Y59520D01*
X58535Y59493D01*
X58562Y59462D01*
X58598Y59427D01*
X58691Y59344D01*
X58890Y59187D01*
X57709D01*
X57784Y59244D01*
X58038Y59462D01*
X58065Y59493D01*
X58084Y59520D01*
X58096Y59542D01*
X58100Y59561D01*
X58500D01*
X58504Y59542D01*
D02*
G37*
G36*
X27650Y58710D02*
X27651Y58693D01*
X27654Y58677D01*
X27659Y58660D01*
X27665Y58644D01*
X27674Y58627D01*
X27684Y58611D01*
X27696Y58595D01*
X27711Y58579D01*
X27727Y58563D01*
X27744Y58548D01*
X27145Y58579D01*
X27165Y58593D01*
X27183Y58608D01*
X27199Y58622D01*
X27212Y58637D01*
X27224Y58653D01*
X27233Y58668D01*
X27241Y58684D01*
X27246Y58700D01*
X27249Y58716D01*
X27250Y58732D01*
X27650Y58710D01*
D02*
G37*
G36*
X56604Y57542D02*
X56616Y57520D01*
X56635Y57493D01*
X56662Y57462D01*
X56698Y57427D01*
X56791Y57344D01*
X56990Y57187D01*
X55809D01*
X55884Y57244D01*
X56138Y57462D01*
X56165Y57493D01*
X56184Y57520D01*
X56196Y57542D01*
X56200Y57561D01*
X56600D01*
X56604Y57542D01*
D02*
G37*
G36*
X47261Y54126D02*
X47168Y54138D01*
X46834Y54163D01*
X46793Y54161D01*
X46760Y54156D01*
X46736Y54148D01*
X46721Y54138D01*
X46438Y54421D01*
X46448Y54436D01*
X46456Y54461D01*
X46461Y54493D01*
X46463Y54534D01*
X46463Y54584D01*
X46456Y54709D01*
X46426Y54961D01*
X47261Y54126D01*
D02*
G37*
G36*
X53313Y53009D02*
X53256Y53084D01*
X53038Y53338D01*
X53007Y53365D01*
X52980Y53384D01*
X52958Y53396D01*
X52939Y53400D01*
Y53800D01*
X52958Y53804D01*
X52980Y53816D01*
X53007Y53835D01*
X53038Y53863D01*
X53073Y53898D01*
X53156Y53991D01*
X53313Y54190D01*
Y53009D01*
D02*
G37*
G36*
X18985Y51713D02*
X19118Y51579D01*
X19431Y51450D01*
X19769D01*
X20005Y51548D01*
X20308Y51427D01*
X20505Y51296D01*
Y45100D01*
X20679Y44679D01*
X21581Y43777D01*
X21399Y43277D01*
X21086Y43147D01*
X20847Y42908D01*
X20701Y42900D01*
X20310Y42918D01*
X20108Y43121D01*
X19795Y43250D01*
X19457D01*
X19144Y43121D01*
X18905Y42882D01*
X18895Y42857D01*
X18362Y42837D01*
X18123Y43076D01*
X17811Y43205D01*
X17473D01*
X16995Y43549D01*
Y51113D01*
X17495Y51407D01*
X17567Y51377D01*
X17905D01*
X18218Y51507D01*
X18394Y51683D01*
X18589Y51738D01*
X18985Y51713D01*
D02*
G37*
G36*
X58944Y51016D02*
X59162Y50762D01*
X59193Y50735D01*
X59220Y50716D01*
X59242Y50704D01*
X59261Y50700D01*
Y50300D01*
X59242Y50296D01*
X59220Y50284D01*
X59193Y50265D01*
X59162Y50238D01*
X59127Y50202D01*
X59044Y50109D01*
X58887Y49909D01*
Y51091D01*
X58944Y51016D01*
D02*
G37*
G36*
X76861Y49526D02*
X76768Y49538D01*
X76434Y49563D01*
X76393Y49561D01*
X76360Y49556D01*
X76336Y49548D01*
X76321Y49538D01*
X76038Y49821D01*
X76048Y49836D01*
X76056Y49861D01*
X76061Y49893D01*
X76063Y49934D01*
X76063Y49984D01*
X76056Y50109D01*
X76026Y50361D01*
X76861Y49526D01*
D02*
G37*
G36*
X47561Y48826D02*
X47468Y48838D01*
X47134Y48863D01*
X47093Y48861D01*
X47060Y48856D01*
X47036Y48848D01*
X47021Y48838D01*
X46738Y49121D01*
X46748Y49136D01*
X46756Y49161D01*
X46761Y49193D01*
X46763Y49234D01*
X46763Y49284D01*
X46756Y49409D01*
X46726Y49661D01*
X47561Y48826D01*
D02*
G37*
G36*
X58332Y48762D02*
X58666Y48737D01*
X58707Y48739D01*
X58740Y48744D01*
X58764Y48752D01*
X58779Y48762D01*
X59062Y48479D01*
X59052Y48464D01*
X59044Y48439D01*
X59039Y48407D01*
X59037Y48366D01*
X59037Y48316D01*
X59044Y48191D01*
X59074Y47939D01*
X58239Y48774D01*
X58332Y48762D01*
D02*
G37*
G36*
X77061Y46726D02*
X76968Y46738D01*
X76634Y46763D01*
X76593Y46761D01*
X76560Y46756D01*
X76536Y46748D01*
X76521Y46738D01*
X76238Y47021D01*
X76248Y47036D01*
X76256Y47060D01*
X76261Y47093D01*
X76263Y47134D01*
X76263Y47184D01*
X76256Y47309D01*
X76226Y47561D01*
X77061Y46726D01*
D02*
G37*
G36*
X47561Y46126D02*
X47468Y46138D01*
X47134Y46163D01*
X47093Y46161D01*
X47060Y46156D01*
X47036Y46148D01*
X47021Y46138D01*
X46738Y46421D01*
X46748Y46436D01*
X46756Y46461D01*
X46761Y46493D01*
X46763Y46534D01*
X46763Y46584D01*
X46756Y46709D01*
X46726Y46961D01*
X47561Y46126D01*
D02*
G37*
G36*
X58432Y45762D02*
X58766Y45737D01*
X58807Y45739D01*
X58839Y45744D01*
X58864Y45752D01*
X58879Y45762D01*
X59162Y45479D01*
X59152Y45464D01*
X59144Y45439D01*
X59139Y45407D01*
X59137Y45366D01*
X59137Y45316D01*
X59144Y45191D01*
X59174Y44939D01*
X58339Y45774D01*
X58432Y45762D01*
D02*
G37*
G36*
X23299Y44917D02*
X23313Y44908D01*
X23327Y44899D01*
X23344Y44893D01*
X23361Y44888D01*
X23380Y44885D01*
X23401Y44883D01*
X23422Y44883D01*
X23445Y44884D01*
X23469Y44887D01*
X23045Y44462D01*
X23047Y44487D01*
X23049Y44509D01*
X23048Y44531D01*
X23047Y44551D01*
X23043Y44570D01*
X23038Y44588D01*
X23032Y44604D01*
X23024Y44619D01*
X23015Y44633D01*
X23004Y44645D01*
X23286Y44928D01*
X23299Y44917D01*
D02*
G37*
G36*
X76513Y44209D02*
X76456Y44284D01*
X76238Y44537D01*
X76207Y44565D01*
X76180Y44584D01*
X76158Y44596D01*
X76139Y44600D01*
Y45000D01*
X76158Y45004D01*
X76180Y45016D01*
X76207Y45035D01*
X76238Y45063D01*
X76273Y45098D01*
X76356Y45191D01*
X76513Y45391D01*
Y44209D01*
D02*
G37*
G36*
X58332Y43262D02*
X58666Y43237D01*
X58707Y43239D01*
X58740Y43244D01*
X58764Y43252D01*
X58779Y43262D01*
X59062Y42979D01*
X59052Y42964D01*
X59044Y42939D01*
X59039Y42907D01*
X59037Y42866D01*
X59037Y42816D01*
X59044Y42691D01*
X59074Y42439D01*
X58239Y43274D01*
X58332Y43262D01*
D02*
G37*
G36*
X21497Y41932D02*
X21473Y41934D01*
X21450Y41936D01*
X21429Y41935D01*
X21408Y41934D01*
X21390Y41930D01*
X21372Y41925D01*
X21356Y41919D01*
X21341Y41911D01*
X21327Y41901D01*
X21315Y41890D01*
X21032Y42173D01*
X21043Y42186D01*
X21052Y42200D01*
X21060Y42215D01*
X21067Y42231D01*
X21071Y42248D01*
X21075Y42267D01*
X21077Y42288D01*
X21077Y42309D01*
X21076Y42332D01*
X21073Y42356D01*
X21497Y41932D01*
D02*
G37*
G36*
X76513Y41609D02*
X76456Y41684D01*
X76238Y41938D01*
X76207Y41965D01*
X76180Y41984D01*
X76158Y41996D01*
X76139Y42000D01*
Y42400D01*
X76158Y42404D01*
X76180Y42416D01*
X76207Y42435D01*
X76238Y42463D01*
X76273Y42498D01*
X76356Y42591D01*
X76513Y42791D01*
Y41609D01*
D02*
G37*
G36*
X23801Y40936D02*
X23804Y40920D01*
X23809Y40903D01*
X23816Y40887D01*
X23825Y40872D01*
X23836Y40856D01*
X23849Y40840D01*
X23864Y40825D01*
X23881Y40810D01*
X23900Y40795D01*
X23300D01*
X23319Y40810D01*
X23336Y40825D01*
X23351Y40840D01*
X23364Y40856D01*
X23375Y40872D01*
X23384Y40887D01*
X23391Y40903D01*
X23396Y40920D01*
X23399Y40936D01*
X23400Y40953D01*
X23800D01*
X23801Y40936D01*
D02*
G37*
G36*
X6162Y39468D02*
X6137Y39134D01*
X6139Y39093D01*
X6144Y39061D01*
X6152Y39036D01*
X6162Y39021D01*
X5879Y38738D01*
X5864Y38748D01*
X5839Y38756D01*
X5807Y38761D01*
X5766Y38763D01*
X5716Y38763D01*
X5591Y38756D01*
X5339Y38726D01*
X6174Y39561D01*
X6162Y39468D01*
D02*
G37*
G36*
X41729Y38605D02*
X41705Y38608D01*
X41682Y38609D01*
X41661Y38609D01*
X41641Y38607D01*
X41622Y38604D01*
X41604Y38599D01*
X41588Y38592D01*
X41573Y38584D01*
X41559Y38575D01*
X41547Y38564D01*
X41264Y38847D01*
X41275Y38859D01*
X41284Y38873D01*
X41292Y38888D01*
X41299Y38904D01*
X41304Y38922D01*
X41307Y38941D01*
X41309Y38961D01*
X41309Y38982D01*
X41308Y39005D01*
X41305Y39029D01*
X41729Y38605D01*
D02*
G37*
G36*
X21359Y39025D02*
X21373Y39016D01*
X21388Y39008D01*
X21404Y39001D01*
X21422Y38996D01*
X21441Y38993D01*
X21461Y38991D01*
X21482Y38991D01*
X21505Y38992D01*
X21529Y38995D01*
X21105Y38571D01*
X21108Y38595D01*
X21109Y38618D01*
X21109Y38639D01*
X21107Y38659D01*
X21104Y38678D01*
X21099Y38696D01*
X21092Y38712D01*
X21084Y38727D01*
X21075Y38741D01*
X21064Y38753D01*
X21347Y39036D01*
X21359Y39025D01*
D02*
G37*
G36*
X25116Y38179D02*
X25101Y38198D01*
X25085Y38215D01*
X25070Y38230D01*
X25054Y38243D01*
X25039Y38254D01*
X25023Y38263D01*
X25007Y38270D01*
X24990Y38275D01*
X24974Y38278D01*
X24958Y38279D01*
Y38679D01*
X24974Y38680D01*
X24990Y38683D01*
X25007Y38688D01*
X25023Y38695D01*
X25039Y38704D01*
X25054Y38715D01*
X25070Y38728D01*
X25085Y38743D01*
X25101Y38760D01*
X25116Y38779D01*
Y38179D01*
D02*
G37*
G36*
X26063Y36775D02*
X26052Y36762D01*
X26042Y36748D01*
X26034Y36733D01*
X26028Y36717D01*
X26023Y36699D01*
X26020Y36680D01*
X26018Y36660D01*
X26018Y36639D01*
X26019Y36616D01*
X26022Y36592D01*
X25597Y37016D01*
X25622Y37013D01*
X25644Y37012D01*
X25666Y37012D01*
X25686Y37014D01*
X25705Y37018D01*
X25723Y37023D01*
X25739Y37029D01*
X25754Y37037D01*
X25768Y37046D01*
X25780Y37057D01*
X26063Y36775D01*
D02*
G37*
G36*
X65386Y36919D02*
X65414Y36532D01*
X65422Y36500D01*
X65430Y36476D01*
X65439Y36462D01*
X65202Y36133D01*
X65186Y36144D01*
X65161Y36151D01*
X65129Y36154D01*
X65089Y36152D01*
X65042Y36147D01*
X64987Y36138D01*
X64854Y36107D01*
X64691Y36060D01*
X65384Y37016D01*
X65386Y36919D01*
D02*
G37*
G36*
X77179Y36007D02*
X77095Y36035D01*
X76834Y36103D01*
X76787Y36110D01*
X76748Y36112D01*
X76716Y36110D01*
X76692Y36103D01*
X76675Y36092D01*
X76448Y36430D01*
X76456Y36444D01*
X76465Y36467D01*
X76473Y36499D01*
X76480Y36541D01*
X76494Y36651D01*
X76517Y36984D01*
X77179Y36007D01*
D02*
G37*
G36*
X29803Y36102D02*
X29795Y36093D01*
X29787Y36083D01*
X29781Y36071D01*
X29776Y36058D01*
X29771Y36044D01*
X29768Y36029D01*
X29765Y36013D01*
X29763Y35996D01*
X29763Y35977D01*
X29263D01*
X29263Y35996D01*
X29261Y36013D01*
X29258Y36029D01*
X29255Y36044D01*
X29250Y36058D01*
X29245Y36071D01*
X29239Y36083D01*
X29231Y36093D01*
X29223Y36102D01*
X29213Y36110D01*
X29813D01*
X29803Y36102D01*
D02*
G37*
G36*
X76516Y34489D02*
X76517Y34585D01*
X76501Y34970D01*
X76494Y35002D01*
X76486Y35026D01*
X76477Y35040D01*
X76724Y35359D01*
X76741Y35348D01*
X76765Y35341D01*
X76797Y35338D01*
X76838Y35338D01*
X76886Y35342D01*
X76942Y35350D01*
X77077Y35377D01*
X77244Y35419D01*
X76516Y34489D01*
D02*
G37*
G36*
X64776Y35415D02*
X65042Y35353D01*
X65089Y35348D01*
X65129Y35346D01*
X65161Y35349D01*
X65186Y35356D01*
X65202Y35367D01*
X65439Y35038D01*
X65430Y35024D01*
X65422Y35001D01*
X65414Y34968D01*
X65408Y34927D01*
X65397Y34816D01*
X65386Y34581D01*
X65384Y34484D01*
X64691Y35440D01*
X64776Y35415D01*
D02*
G37*
G36*
X41201Y33942D02*
X41204Y33925D01*
X41209Y33909D01*
X41216Y33893D01*
X41225Y33877D01*
X41236Y33861D01*
X41249Y33846D01*
X41264Y33830D01*
X41281Y33815D01*
X41300Y33800D01*
X40700D01*
X40719Y33815D01*
X40736Y33830D01*
X40751Y33846D01*
X40764Y33861D01*
X40775Y33877D01*
X40784Y33893D01*
X40791Y33909D01*
X40796Y33925D01*
X40799Y33942D01*
X40800Y33958D01*
X41200D01*
X41201Y33942D01*
D02*
G37*
G36*
X26294Y34117D02*
X26294Y34104D01*
X26297Y34092D01*
X26300Y34079D01*
X26305Y34066D01*
X26312Y34053D01*
X26320Y34040D01*
X26330Y34027D01*
X26341Y34013D01*
X26354Y34000D01*
X26000Y33646D01*
X25987Y33659D01*
X25973Y33670D01*
X25960Y33680D01*
X25947Y33688D01*
X25934Y33695D01*
X25921Y33700D01*
X25908Y33703D01*
X25896Y33705D01*
X25883Y33706D01*
X25871Y33705D01*
X26295Y34129D01*
X26294Y34117D01*
D02*
G37*
G36*
X59144Y33316D02*
X59362Y33062D01*
X59393Y33035D01*
X59420Y33016D01*
X59442Y33004D01*
X59461Y33000D01*
Y32600D01*
X59442Y32596D01*
X59420Y32584D01*
X59393Y32565D01*
X59362Y32537D01*
X59327Y32502D01*
X59244Y32409D01*
X59087Y32209D01*
Y33391D01*
X59144Y33316D01*
D02*
G37*
G36*
X82565Y32179D02*
X82516Y32256D01*
X82354Y32483D01*
X82322Y32519D01*
X82292Y32548D01*
X82267Y32568D01*
X82245Y32580D01*
X82226Y32584D01*
X82261Y32984D01*
X82278Y32988D01*
X82301Y32999D01*
X82328Y33018D01*
X82361Y33044D01*
X82442Y33118D01*
X82544Y33222D01*
X82666Y33356D01*
X82565Y32179D01*
D02*
G37*
G36*
X65387Y30696D02*
X65191Y30326D01*
X65174Y30337D01*
X65150Y30343D01*
X65119Y30345D01*
X65081Y30340D01*
X65037Y30331D01*
X64986Y30316D01*
X64863Y30272D01*
X64713Y30207D01*
X65273Y31247D01*
X65387Y30696D01*
D02*
G37*
G36*
X77109Y30160D02*
X77024Y30185D01*
X76758Y30247D01*
X76710Y30253D01*
X76671Y30254D01*
X76639Y30251D01*
X76614Y30244D01*
X76598Y30233D01*
X76361Y30562D01*
X76370Y30576D01*
X76378Y30599D01*
X76386Y30632D01*
X76392Y30673D01*
X76403Y30784D01*
X76414Y31019D01*
X76416Y31115D01*
X77109Y30160D01*
D02*
G37*
G36*
X76416Y28585D02*
X76414Y28681D01*
X76386Y29068D01*
X76378Y29100D01*
X76370Y29124D01*
X76361Y29138D01*
X76598Y29467D01*
X76614Y29456D01*
X76639Y29449D01*
X76671Y29446D01*
X76710Y29447D01*
X76758Y29453D01*
X76813Y29462D01*
X76946Y29493D01*
X77109Y29540D01*
X76416Y28585D01*
D02*
G37*
G36*
X64728Y29391D02*
X64986Y29317D01*
X65032Y29310D01*
X65071Y29307D01*
X65102Y29309D01*
X65127Y29315D01*
X65144Y29327D01*
X65363Y28980D01*
X65354Y28967D01*
X65346Y28944D01*
X65337Y28912D01*
X65329Y28871D01*
X65305Y28690D01*
X65281Y28426D01*
X64646Y29421D01*
X64728Y29391D01*
D02*
G37*
G36*
X48342Y28374D02*
X48296Y28099D01*
X48292Y28051D01*
X48293Y28010D01*
X48296Y27978D01*
X48303Y27954D01*
X48314Y27937D01*
X48005Y27681D01*
X47990Y27690D01*
X47967Y27698D01*
X47934Y27705D01*
X47892Y27709D01*
X47782Y27714D01*
X47637Y27713D01*
X47455Y27706D01*
X48362Y28463D01*
X48342Y28374D01*
D02*
G37*
G36*
X66370Y26715D02*
X66293Y26751D01*
X66102Y26828D01*
X66051Y26843D01*
X66007Y26853D01*
X65970Y26858D01*
X65939Y26857D01*
X65915Y26851D01*
X65898Y26839D01*
X65708Y27215D01*
X65715Y27227D01*
X65724Y27248D01*
X65733Y27279D01*
X65755Y27370D01*
X65830Y27764D01*
X66370Y26715D01*
D02*
G37*
G36*
X48244Y26616D02*
X48462Y26362D01*
X48493Y26335D01*
X48520Y26316D01*
X48542Y26304D01*
X48561Y26300D01*
Y25900D01*
X48542Y25896D01*
X48520Y25884D01*
X48493Y25865D01*
X48462Y25837D01*
X48427Y25802D01*
X48344Y25709D01*
X48187Y25510D01*
Y26691D01*
X48244Y26616D01*
D02*
G37*
G36*
X72013Y25310D02*
X71956Y25384D01*
X71738Y25638D01*
X71707Y25665D01*
X71680Y25684D01*
X71658Y25696D01*
X71639Y25700D01*
Y26100D01*
X71658Y26104D01*
X71680Y26116D01*
X71707Y26135D01*
X71738Y26162D01*
X71773Y26198D01*
X71856Y26291D01*
X72013Y26491D01*
Y25310D01*
D02*
G37*
G36*
X66213Y23394D02*
X66156Y23468D01*
X65938Y23722D01*
X65907Y23749D01*
X65880Y23769D01*
X65858Y23780D01*
X65839Y23784D01*
Y24184D01*
X65858Y24188D01*
X65880Y24200D01*
X65907Y24219D01*
X65938Y24247D01*
X65973Y24282D01*
X66056Y24376D01*
X66213Y24575D01*
Y23394D01*
D02*
G37*
G36*
X48244Y24085D02*
X48462Y23831D01*
X48493Y23804D01*
X48520Y23784D01*
X48542Y23772D01*
X48561Y23768D01*
Y23369D01*
X48542Y23365D01*
X48520Y23353D01*
X48493Y23333D01*
X48462Y23306D01*
X48427Y23271D01*
X48344Y23177D01*
X48187Y22978D01*
Y24159D01*
X48244Y24085D01*
D02*
G37*
G36*
X72013Y21309D02*
X71956Y21384D01*
X71738Y21637D01*
X71707Y21665D01*
X71680Y21684D01*
X71658Y21696D01*
X71639Y21700D01*
Y22100D01*
X71658Y22104D01*
X71680Y22116D01*
X71707Y22135D01*
X71738Y22163D01*
X71773Y22198D01*
X71856Y22291D01*
X72013Y22490D01*
Y21309D01*
D02*
G37*
G36*
X48244Y21616D02*
X48462Y21362D01*
X48493Y21335D01*
X48520Y21316D01*
X48542Y21304D01*
X48561Y21300D01*
Y20900D01*
X48542Y20896D01*
X48520Y20884D01*
X48493Y20865D01*
X48462Y20838D01*
X48427Y20802D01*
X48344Y20709D01*
X48187Y20509D01*
Y21690D01*
X48244Y21616D01*
D02*
G37*
G36*
X65849Y19980D02*
X65787Y20052D01*
X65553Y20297D01*
X65521Y20324D01*
X65493Y20343D01*
X65471Y20354D01*
X65453Y20358D01*
X65429Y20758D01*
X65448Y20762D01*
X65470Y20774D01*
X65496Y20794D01*
X65526Y20822D01*
X65559Y20858D01*
X65636Y20954D01*
X65728Y21083D01*
X65779Y21159D01*
X65849Y19980D01*
D02*
G37*
G36*
X55113Y21064D02*
X55347Y20818D01*
X55379Y20792D01*
X55407Y20773D01*
X55429Y20762D01*
X55447Y20758D01*
X55471Y20358D01*
X55452Y20354D01*
X55430Y20342D01*
X55404Y20322D01*
X55374Y20294D01*
X55341Y20258D01*
X55264Y20161D01*
X55172Y20033D01*
X55121Y19957D01*
X55051Y21136D01*
X55113Y21064D01*
D02*
G37*
G36*
X65813Y17557D02*
X65756Y17631D01*
X65538Y17885D01*
X65507Y17912D01*
X65480Y17932D01*
X65458Y17943D01*
X65439Y17947D01*
Y18347D01*
X65458Y18351D01*
X65480Y18363D01*
X65507Y18382D01*
X65538Y18410D01*
X65573Y18445D01*
X65656Y18539D01*
X65813Y18738D01*
Y17557D01*
D02*
G37*
G36*
X54744Y18516D02*
X54962Y18262D01*
X54993Y18235D01*
X55020Y18216D01*
X55042Y18204D01*
X55061Y18200D01*
Y17800D01*
X55042Y17796D01*
X55020Y17784D01*
X54993Y17765D01*
X54962Y17738D01*
X54927Y17702D01*
X54844Y17609D01*
X54687Y17410D01*
Y18590D01*
X54744Y18516D01*
D02*
G37*
G36*
X44171Y17635D02*
X44194Y17627D01*
X44227Y17619D01*
X44268Y17612D01*
X44379Y17600D01*
X44711Y17584D01*
X43747Y16901D01*
X43774Y16986D01*
X43838Y17251D01*
X43844Y17298D01*
X43845Y17337D01*
X43843Y17369D01*
X43836Y17394D01*
X43825Y17411D01*
X44157Y17644D01*
X44171Y17635D01*
D02*
G37*
G36*
X63852Y15239D02*
X63790Y15311D01*
X63554Y15555D01*
X63522Y15582D01*
X63495Y15601D01*
X63472Y15612D01*
X63455Y15616D01*
X63428Y16016D01*
X63447Y16020D01*
X63470Y16032D01*
X63495Y16052D01*
X63525Y16080D01*
X63558Y16116D01*
X63635Y16213D01*
X63726Y16341D01*
X63776Y16418D01*
X63852Y15239D01*
D02*
G37*
G36*
X43526Y13939D02*
X43538Y14032D01*
X43563Y14366D01*
X43561Y14407D01*
X43556Y14439D01*
X43548Y14464D01*
X43538Y14479D01*
X43821Y14762D01*
X43836Y14752D01*
X43861Y14744D01*
X43893Y14739D01*
X43934Y14737D01*
X43984Y14737D01*
X44109Y14744D01*
X44361Y14774D01*
X43526Y13939D01*
D02*
G37*
G36*
X54762Y15168D02*
X54737Y14834D01*
X54739Y14793D01*
X54744Y14761D01*
X54752Y14736D01*
X54762Y14721D01*
X54479Y14438D01*
X54464Y14448D01*
X54440Y14456D01*
X54407Y14461D01*
X54366Y14463D01*
X54316Y14463D01*
X54191Y14456D01*
X53939Y14426D01*
X54774Y15261D01*
X54762Y15168D01*
D02*
G37*
G36*
X63813Y12810D02*
X63756Y12884D01*
X63538Y13137D01*
X63507Y13165D01*
X63480Y13184D01*
X63458Y13196D01*
X63439Y13200D01*
Y13600D01*
X63458Y13604D01*
X63480Y13616D01*
X63507Y13635D01*
X63538Y13663D01*
X63573Y13698D01*
X63656Y13791D01*
X63813Y13991D01*
Y12810D01*
D02*
G37*
G36*
X54643Y13348D02*
X54862Y13094D01*
X54893Y13067D01*
X54920Y13047D01*
X54942Y13036D01*
X54960Y13032D01*
Y12632D01*
X54942Y12628D01*
X54920Y12616D01*
X54893Y12596D01*
X54862Y12569D01*
X54827Y12534D01*
X54744Y12440D01*
X54587Y12241D01*
Y13422D01*
X54643Y13348D01*
D02*
G37*
G36*
X34335Y4642D02*
X34347Y4620D01*
X34367Y4593D01*
X34394Y4562D01*
X34429Y4527D01*
X34523Y4444D01*
X34722Y4287D01*
X33541D01*
X33615Y4344D01*
X33869Y4562D01*
X33896Y4593D01*
X33916Y4620D01*
X33928Y4642D01*
X33931Y4661D01*
X34332D01*
X34335Y4642D01*
D02*
G37*
G36*
X31635D02*
X31647Y4620D01*
X31667Y4593D01*
X31694Y4562D01*
X31729Y4527D01*
X31823Y4444D01*
X32022Y4287D01*
X30841D01*
X30915Y4344D01*
X31169Y4562D01*
X31196Y4593D01*
X31216Y4620D01*
X31228Y4642D01*
X31231Y4661D01*
X31631D01*
X31635Y4642D01*
D02*
G37*
%LPC*%
G36*
X110702Y75736D02*
X109848D01*
X109797Y75715D01*
X109743Y75726D01*
X108906Y75559D01*
X108860Y75529D01*
X108805D01*
X108017Y75202D01*
X107977Y75163D01*
X107923Y75152D01*
X107214Y74678D01*
X107183Y74632D01*
X107132Y74611D01*
X106528Y74008D01*
X106507Y73956D01*
X106461Y73926D01*
X105987Y73216D01*
X105976Y73162D01*
X105937Y73123D01*
X105611Y72335D01*
Y72279D01*
X105580Y72233D01*
X105414Y71396D01*
X105424Y71342D01*
X105403Y71291D01*
Y70438D01*
X105424Y70386D01*
X105414Y70332D01*
X105580Y69495D01*
X105611Y69449D01*
Y69394D01*
X105937Y68606D01*
X105976Y68567D01*
X105987Y68512D01*
X106461Y67803D01*
X106507Y67772D01*
X106528Y67721D01*
X107132Y67118D01*
X107183Y67096D01*
X107214Y67050D01*
X107923Y66576D01*
X107977Y66566D01*
X108017Y66526D01*
X108805Y66200D01*
X108860D01*
X108906Y66169D01*
X109743Y66003D01*
X109797Y66013D01*
X109848Y65992D01*
X110702D01*
X110753Y66013D01*
X110807Y66003D01*
X111644Y66169D01*
X111690Y66200D01*
X111745D01*
X112533Y66526D01*
X112573Y66566D01*
X112627Y66576D01*
X113336Y67050D01*
X113367Y67097D01*
X113418Y67118D01*
X114022Y67721D01*
X114043Y67772D01*
X114089Y67803D01*
X114563Y68512D01*
X114574Y68567D01*
X114613Y68606D01*
X114939Y69394D01*
Y69449D01*
X114970Y69495D01*
X115137Y70332D01*
X115126Y70386D01*
X115147Y70438D01*
Y71291D01*
X115126Y71342D01*
X115137Y71396D01*
X114970Y72233D01*
X114939Y72279D01*
Y72335D01*
X114613Y73123D01*
X114574Y73162D01*
X114563Y73216D01*
X114089Y73926D01*
X114043Y73956D01*
X114022Y74008D01*
X113418Y74611D01*
X113367Y74632D01*
X113336Y74678D01*
X112627Y75152D01*
X112573Y75163D01*
X112533Y75202D01*
X111745Y75529D01*
X111690D01*
X111644Y75559D01*
X110807Y75726D01*
X110753Y75715D01*
X110702Y75736D01*
D02*
G37*
G36*
X8339D02*
X7486D01*
X7435Y75715D01*
X7381Y75726D01*
X6544Y75559D01*
X6498Y75529D01*
X6442D01*
X5654Y75202D01*
X5615Y75163D01*
X5561Y75152D01*
X4851Y74678D01*
X4821Y74632D01*
X4769Y74611D01*
X4166Y74008D01*
X4145Y73956D01*
X4099Y73926D01*
X3625Y73216D01*
X3614Y73162D01*
X3575Y73123D01*
X3249Y72335D01*
Y72279D01*
X3218Y72233D01*
X3051Y71396D01*
X3062Y71342D01*
X3041Y71291D01*
Y70438D01*
X3062Y70386D01*
X3051Y70332D01*
X3218Y69495D01*
X3249Y69449D01*
Y69394D01*
X3575Y68606D01*
X3614Y68567D01*
X3625Y68512D01*
X4099Y67803D01*
X4145Y67772D01*
X4166Y67721D01*
X4769Y67118D01*
X4821Y67096D01*
X4851Y67050D01*
X5561Y66576D01*
X5615Y66566D01*
X5654Y66526D01*
X6442Y66200D01*
X6498D01*
X6544Y66169D01*
X7381Y66003D01*
X7435Y66013D01*
X7486Y65992D01*
X8339D01*
X8391Y66013D01*
X8445Y66003D01*
X9282Y66169D01*
X9328Y66200D01*
X9383D01*
X10171Y66526D01*
X10210Y66566D01*
X10265Y66576D01*
X10974Y67050D01*
X11005Y67097D01*
X11056Y67118D01*
X11659Y67721D01*
X11681Y67772D01*
X11727Y67803D01*
X12201Y68512D01*
X12212Y68567D01*
X12251Y68606D01*
X12577Y69394D01*
Y69449D01*
X12608Y69495D01*
X12774Y70332D01*
X12764Y70386D01*
X12785Y70438D01*
Y71291D01*
X12764Y71342D01*
X12774Y71396D01*
X12608Y72233D01*
X12577Y72279D01*
Y72335D01*
X12251Y73123D01*
X12212Y73162D01*
X12201Y73216D01*
X11727Y73926D01*
X11681Y73956D01*
X11659Y74008D01*
X11056Y74611D01*
X11005Y74632D01*
X10974Y74678D01*
X10265Y75152D01*
X10210Y75163D01*
X10171Y75202D01*
X9383Y75529D01*
X9328D01*
X9282Y75559D01*
X8445Y75726D01*
X8391Y75715D01*
X8339Y75736D01*
D02*
G37*
G36*
X99415Y67284D02*
X98785D01*
X98203Y67043D01*
X97800Y66641D01*
X97397Y67043D01*
X96815Y67284D01*
X96185D01*
X95603Y67043D01*
X95250Y66690D01*
X94897Y67043D01*
X94315Y67284D01*
X93685D01*
X93103Y67043D01*
X92750Y66690D01*
X92397Y67043D01*
X91815Y67284D01*
X91185D01*
X90603Y67043D01*
X90157Y66597D01*
X89916Y66015D01*
Y65385D01*
X90157Y64803D01*
X90603Y64357D01*
X90856Y64252D01*
X91216Y63815D01*
Y63185D01*
X91457Y62603D01*
X91903Y62157D01*
X92485Y61916D01*
X93115D01*
X93665Y62144D01*
X93707Y62153D01*
X93840Y62090D01*
X93939Y61492D01*
X86823Y54377D01*
X86646Y54112D01*
X86584Y53800D01*
X86584Y53800D01*
Y50577D01*
X86503Y50543D01*
X86057Y50097D01*
X85816Y49515D01*
Y48885D01*
X86057Y48303D01*
X86503Y47857D01*
X87085Y47616D01*
X87715D01*
X88297Y47857D01*
X88743Y48303D01*
X88984Y48885D01*
Y49515D01*
X88743Y50097D01*
X88297Y50543D01*
X88216Y50577D01*
Y53462D01*
X95438Y60684D01*
X101423D01*
X101457Y60603D01*
X101903Y60157D01*
X102485Y59916D01*
X103115D01*
X103697Y60157D01*
X104143Y60603D01*
X104384Y61185D01*
Y61815D01*
X104143Y62397D01*
X103697Y62843D01*
X103115Y63084D01*
X102485D01*
X101903Y62843D01*
X101457Y62397D01*
X101423Y62316D01*
X99509D01*
X99231Y62816D01*
X99384Y63185D01*
Y63815D01*
X99744Y64252D01*
X99997Y64357D01*
X100443Y64803D01*
X100684Y65385D01*
Y66015D01*
X100443Y66597D01*
X99997Y67043D01*
X99415Y67284D01*
D02*
G37*
G36*
X45715Y61584D02*
X45085D01*
X44503Y61343D01*
X44057Y60897D01*
X43816Y60315D01*
Y59685D01*
X44057Y59103D01*
X44503Y58657D01*
X45085Y58416D01*
X45715D01*
X46297Y58657D01*
X46743Y59103D01*
X46984Y59685D01*
Y60315D01*
X46743Y60897D01*
X46297Y61343D01*
X45715Y61584D01*
D02*
G37*
G36*
X31569Y59050D02*
X31231D01*
X30918Y58921D01*
X30679Y58681D01*
X30550Y58369D01*
Y58031D01*
X30679Y57718D01*
X30918Y57479D01*
X31091Y57408D01*
X31141Y56892D01*
X31140Y56888D01*
X31018Y56837D01*
X30779Y56598D01*
X30650Y56286D01*
Y55948D01*
X30779Y55635D01*
X30909Y55506D01*
X30917Y55073D01*
X30867Y54917D01*
X30679Y54729D01*
X30550Y54417D01*
Y54079D01*
X30679Y53767D01*
X30918Y53527D01*
X31231Y53398D01*
X31569D01*
X31881Y53527D01*
X32121Y53767D01*
X32250Y54079D01*
Y54417D01*
X32121Y54729D01*
X31991Y54859D01*
X31983Y55291D01*
X32033Y55447D01*
X32221Y55635D01*
X32350Y55948D01*
Y56286D01*
X32221Y56598D01*
X31982Y56837D01*
X31809Y56908D01*
X31763Y57379D01*
X31861Y57471D01*
X31881Y57479D01*
X32040Y57638D01*
X32126Y57718D01*
X32648Y57684D01*
X32672Y57625D01*
X32911Y57386D01*
X33224Y57257D01*
X33562D01*
X33874Y57386D01*
X34113Y57625D01*
X34243Y57938D01*
Y58276D01*
X34113Y58588D01*
X33874Y58827D01*
X33562Y58957D01*
X33224D01*
X32911Y58827D01*
X32672Y58588D01*
X32145Y58622D01*
X32121Y58681D01*
X31881Y58921D01*
X31569Y59050D01*
D02*
G37*
G36*
X37469Y59040D02*
X37131D01*
X36819Y58911D01*
X36579Y58672D01*
X36450Y58360D01*
Y58183D01*
X34579Y56312D01*
X34405Y55891D01*
Y52843D01*
X34088Y52711D01*
X33905Y52690D01*
X33705Y52889D01*
X33393Y53019D01*
X33055D01*
X32742Y52889D01*
X32503Y52650D01*
X32374Y52338D01*
Y52000D01*
X32503Y51687D01*
X32660Y51531D01*
X32634Y50993D01*
X32319Y50802D01*
X32137Y50836D01*
X31963Y51010D01*
X31651Y51140D01*
X31313D01*
X31000Y51010D01*
X30761Y50771D01*
X30632Y50459D01*
Y50121D01*
X30761Y49808D01*
X31000Y49569D01*
X31313Y49440D01*
X31651D01*
X31963Y49569D01*
X32120Y49726D01*
X32372Y49752D01*
X32708Y49504D01*
X32724Y48974D01*
X32579Y48830D01*
X32450Y48517D01*
Y48179D01*
X32579Y47867D01*
X32818Y47628D01*
X32766Y47108D01*
X30979Y45321D01*
X30805Y44900D01*
Y38500D01*
X30979Y38079D01*
X31405Y37653D01*
Y34800D01*
X31579Y34379D01*
X32650Y33308D01*
Y33131D01*
X32779Y32818D01*
X33018Y32579D01*
X33331Y32450D01*
X33669D01*
X33981Y32579D01*
X34221Y32818D01*
X34350Y33131D01*
Y33469D01*
X34221Y33781D01*
X33981Y34021D01*
X33669Y34150D01*
X33492D01*
X32595Y35047D01*
Y37364D01*
X32621Y37398D01*
X33095Y37657D01*
X33202Y37613D01*
X33540D01*
X33853Y37742D01*
X34031Y37920D01*
X34124Y37958D01*
X34605Y37737D01*
Y34300D01*
X34779Y33879D01*
X35650Y33008D01*
Y32831D01*
X35779Y32519D01*
X36018Y32279D01*
X36331Y32150D01*
X36669D01*
X36981Y32279D01*
X37221Y32519D01*
X37350Y32831D01*
Y33160D01*
X37350Y33169D01*
X37588Y33655D01*
X37664Y33691D01*
X37903Y33790D01*
X38142Y34029D01*
X38272Y34341D01*
Y34679D01*
X38142Y34992D01*
X37903Y35231D01*
X37874Y35243D01*
X37832Y35766D01*
X38071Y36005D01*
X38200Y36318D01*
Y36656D01*
X38071Y36968D01*
X37832Y37207D01*
X37519Y37337D01*
X37181D01*
X36869Y37207D01*
X36630Y36968D01*
X36500Y36656D01*
Y36318D01*
X36630Y36005D01*
X36869Y35766D01*
X36897Y35754D01*
X36940Y35231D01*
X36701Y34992D01*
X36572Y34679D01*
Y34477D01*
X36166Y34246D01*
X35795Y34575D01*
Y38300D01*
X35621Y38721D01*
X35212Y39130D01*
X35422Y39627D01*
X35557D01*
X35869Y39756D01*
X36108Y39995D01*
X36238Y40308D01*
Y40646D01*
X36108Y40958D01*
X35916Y41151D01*
X35871Y41311D01*
X35879Y41735D01*
X36021Y41876D01*
X36150Y42188D01*
Y42527D01*
X36021Y42839D01*
X35781Y43078D01*
X35734Y43098D01*
Y43639D01*
X35831Y43679D01*
X36071Y43918D01*
X36094Y43976D01*
X36636D01*
X36665Y43904D01*
X36905Y43665D01*
X37217Y43535D01*
X37555D01*
X37868Y43665D01*
X38107Y43904D01*
X38236Y44216D01*
Y44554D01*
X38107Y44867D01*
X37868Y45106D01*
X37555Y45235D01*
X37217D01*
X36905Y45106D01*
X36665Y44867D01*
X36642Y44809D01*
X36101D01*
X36071Y44881D01*
X35831Y45121D01*
X35519Y45250D01*
X35181D01*
X34868Y45121D01*
X34662Y44914D01*
X34436Y44890D01*
X34098Y44904D01*
X34056Y44946D01*
X33972Y45570D01*
X36171Y47768D01*
X36345Y48189D01*
Y53299D01*
X36819Y53533D01*
X37131Y53404D01*
X37469D01*
X37782Y53533D01*
X38021Y53772D01*
X38150Y54084D01*
Y54423D01*
X38021Y54735D01*
X37861Y54895D01*
X37827Y55228D01*
X37872Y55478D01*
X38010Y55616D01*
X38258Y55641D01*
X38576Y55622D01*
X38769Y55429D01*
X39081Y55300D01*
X39419D01*
X39731Y55429D01*
X39971Y55668D01*
X40100Y55981D01*
Y56319D01*
X39971Y56631D01*
X39731Y56871D01*
X39419Y57000D01*
X39081D01*
X38769Y56871D01*
X38567Y56669D01*
X38319Y56644D01*
X38001Y56663D01*
X37808Y56856D01*
X37707Y56898D01*
Y57439D01*
X37782Y57470D01*
X38021Y57709D01*
X38150Y58021D01*
Y58360D01*
X38021Y58672D01*
X37782Y58911D01*
X37469Y59040D01*
D02*
G37*
G36*
X64715Y64784D02*
X64085D01*
X63503Y64543D01*
X63057Y64097D01*
X62816Y63515D01*
Y62885D01*
X63057Y62303D01*
X63233Y62127D01*
X63463Y61800D01*
X63233Y61473D01*
X63057Y61297D01*
X62816Y60715D01*
Y60085D01*
X63057Y59503D01*
X63503Y59057D01*
X64085Y58816D01*
X64715D01*
X64925Y58902D01*
X65297Y58516D01*
X65131Y58115D01*
Y57485D01*
X65373Y56903D01*
X65491Y56784D01*
X65803Y56443D01*
X65357Y55997D01*
X65116Y55415D01*
Y54785D01*
X65357Y54203D01*
X65803Y53757D01*
X66385Y53516D01*
X67015D01*
X67597Y53757D01*
X68043Y54203D01*
X68284Y54785D01*
Y55415D01*
X68043Y55997D01*
X67925Y56116D01*
X67613Y56457D01*
X68059Y56903D01*
X68300Y57485D01*
Y58115D01*
X68059Y58697D01*
X67613Y59143D01*
X67031Y59384D01*
X66401D01*
X66191Y59298D01*
X65818Y59684D01*
X65984Y60085D01*
Y60715D01*
X65743Y61297D01*
X65567Y61473D01*
X65338Y61800D01*
X65567Y62127D01*
X65743Y62303D01*
X65984Y62885D01*
Y63515D01*
X65743Y64097D01*
X65297Y64543D01*
X64715Y64784D01*
D02*
G37*
G36*
X25640Y55121D02*
X25302D01*
X24990Y54992D01*
X24751Y54753D01*
X24621Y54440D01*
Y54102D01*
X24751Y53790D01*
X24990Y53551D01*
X25302Y53421D01*
X25640D01*
X25953Y53551D01*
X26192Y53790D01*
X26321Y54102D01*
Y54440D01*
X26192Y54753D01*
X25953Y54992D01*
X25640Y55121D01*
D02*
G37*
G36*
X104415Y49284D02*
X103785D01*
X103203Y49043D01*
X102757Y48597D01*
X102516Y48015D01*
Y47584D01*
X101985D01*
X101403Y47343D01*
X100957Y46897D01*
X100716Y46315D01*
Y45784D01*
X100285D01*
X99703Y45543D01*
X99257Y45097D01*
X99173Y44894D01*
X98615Y44584D01*
X97985D01*
X97403Y44343D01*
X96957Y43897D01*
X96945Y43895D01*
X96597Y44243D01*
X96015Y44484D01*
X95385D01*
X94803Y44243D01*
X94357Y43797D01*
X94116Y43215D01*
Y42585D01*
X94357Y42003D01*
X94803Y41557D01*
X95385Y41316D01*
X96015D01*
X96597Y41557D01*
X97043Y42003D01*
X97055Y42005D01*
X97403Y41657D01*
X97985Y41416D01*
X98615D01*
X99197Y41657D01*
X99643Y42103D01*
X99727Y42306D01*
X100285Y42616D01*
X100915D01*
X101497Y42857D01*
X101943Y43303D01*
X102184Y43885D01*
Y44416D01*
X102615D01*
X103197Y44657D01*
X103643Y45103D01*
X103884Y45685D01*
Y46116D01*
X104415D01*
X104997Y46357D01*
X105443Y46803D01*
X105684Y47385D01*
Y48015D01*
X105443Y48597D01*
X104997Y49043D01*
X104415Y49284D01*
D02*
G37*
G36*
X39469Y43250D02*
X39131D01*
X38818Y43121D01*
X38579Y42882D01*
X38450Y42569D01*
Y42231D01*
X38579Y41919D01*
X38818Y41679D01*
X39131Y41550D01*
X39469D01*
X39781Y41679D01*
X40021Y41919D01*
X40150Y42231D01*
Y42569D01*
X40021Y42882D01*
X39781Y43121D01*
X39469Y43250D01*
D02*
G37*
G36*
X83815Y39884D02*
X83185D01*
X82603Y39643D01*
X82157Y39197D01*
X81916Y38615D01*
Y37985D01*
X82157Y37403D01*
X82603Y36957D01*
X83185Y36716D01*
X83815D01*
X84397Y36957D01*
X84843Y37403D01*
X85084Y37985D01*
Y38615D01*
X84843Y39197D01*
X84397Y39643D01*
X83815Y39884D01*
D02*
G37*
G36*
X21769Y35250D02*
X21431D01*
X21118Y35121D01*
X20879Y34881D01*
X20750Y34569D01*
Y34231D01*
X20879Y33918D01*
X21118Y33679D01*
X21431Y33550D01*
X21769D01*
X22082Y33679D01*
X22321Y33918D01*
X22450Y34231D01*
Y34569D01*
X22321Y34881D01*
X22082Y35121D01*
X21769Y35250D01*
D02*
G37*
G36*
X15269Y35049D02*
X14931D01*
X14618Y34920D01*
X14379Y34681D01*
X14250Y34368D01*
Y34030D01*
X14379Y33718D01*
X14618Y33479D01*
X14931Y33349D01*
X15269D01*
X15582Y33479D01*
X15821Y33718D01*
X15950Y34030D01*
Y34368D01*
X15821Y34681D01*
X15582Y34920D01*
X15269Y35049D01*
D02*
G37*
G36*
X5615Y34984D02*
X4985D01*
X4403Y34743D01*
X3957Y34297D01*
X3716Y33715D01*
Y33085D01*
X3957Y32503D01*
X4313Y32147D01*
X4366Y31850D01*
X4313Y31553D01*
X3957Y31197D01*
X3716Y30615D01*
Y29985D01*
X3957Y29403D01*
X4403Y28957D01*
X4985Y28716D01*
X5615D01*
X6197Y28957D01*
X6643Y29403D01*
X6884Y29985D01*
Y30615D01*
X6643Y31197D01*
X6287Y31553D01*
X6234Y31850D01*
X6287Y32147D01*
X6643Y32503D01*
X6884Y33085D01*
Y33715D01*
X6643Y34297D01*
X6197Y34743D01*
X5615Y34984D01*
D02*
G37*
G36*
X86915Y29684D02*
X86285D01*
X85703Y29443D01*
X85257Y28997D01*
X85016Y28415D01*
Y27785D01*
X85257Y27203D01*
X85433Y27027D01*
X85663Y26700D01*
X85433Y26373D01*
X85257Y26197D01*
X85016Y25615D01*
Y24985D01*
X85257Y24403D01*
X85703Y23957D01*
X86285Y23716D01*
X86915D01*
X87497Y23957D01*
X87943Y24403D01*
X88098Y24776D01*
X88485Y24616D01*
X89115D01*
X89697Y24857D01*
X90143Y25303D01*
X90384Y25885D01*
Y26416D01*
X90815D01*
X91397Y26657D01*
X91843Y27103D01*
X92084Y27685D01*
Y28315D01*
X91843Y28897D01*
X91397Y29343D01*
X90815Y29584D01*
X90185D01*
X89603Y29343D01*
X89157Y28897D01*
X88916Y28315D01*
Y28172D01*
X88838Y28102D01*
X88332Y28134D01*
X88184Y28280D01*
Y28415D01*
X87943Y28997D01*
X87497Y29443D01*
X86915Y29684D01*
D02*
G37*
G36*
X12915Y24684D02*
X12285D01*
X11703Y24443D01*
X11257Y23997D01*
X11050Y23498D01*
X10795Y23354D01*
X10516Y23277D01*
X10015Y23484D01*
X9385D01*
X8803Y23243D01*
X8357Y22797D01*
X8116Y22215D01*
Y21585D01*
X8357Y21003D01*
X8803Y20557D01*
X9385Y20316D01*
X10015D01*
X10516Y20523D01*
X10866Y20382D01*
X11016Y20285D01*
X11257Y19703D01*
X11559Y19400D01*
X11257Y19097D01*
X11016Y18515D01*
Y17885D01*
X11257Y17303D01*
X11703Y16857D01*
X12285Y16616D01*
X12915D01*
X13497Y16857D01*
X13943Y17303D01*
X14184Y17885D01*
Y18515D01*
X13943Y19097D01*
X13641Y19400D01*
X13943Y19703D01*
X14184Y20285D01*
Y20915D01*
X13943Y21497D01*
X13590Y21850D01*
X13943Y22203D01*
X14184Y22785D01*
Y23415D01*
X13943Y23997D01*
X13497Y24443D01*
X12915Y24684D01*
D02*
G37*
G36*
X24415Y21784D02*
X23785D01*
X23203Y21543D01*
X22757Y21097D01*
X22516Y20515D01*
Y20318D01*
X22016Y19984D01*
X22015Y19984D01*
X21385D01*
X20803Y19743D01*
X20408Y19349D01*
X20132Y19626D01*
X19549Y19867D01*
X18919D01*
X18337Y19626D01*
X17891Y19180D01*
X17650Y18598D01*
Y17967D01*
X17891Y17385D01*
X18337Y16939D01*
X18919Y16698D01*
X19549D01*
X20132Y16939D01*
X20526Y17334D01*
X20803Y17057D01*
X21385Y16816D01*
X22015D01*
X22597Y17057D01*
X23043Y17503D01*
X23284Y18085D01*
Y18282D01*
X23784Y18616D01*
X23785Y18616D01*
X24415D01*
X24997Y18857D01*
X25077Y18937D01*
X25667Y18820D01*
X25757Y18603D01*
X26203Y18157D01*
X26785Y17916D01*
X27415D01*
X27997Y18157D01*
X28345Y18505D01*
X28357Y18503D01*
X28803Y18057D01*
X29385Y17816D01*
X30015D01*
X30597Y18057D01*
X31043Y18503D01*
X31284Y19085D01*
Y19715D01*
X31043Y20297D01*
X30597Y20743D01*
X30015Y20984D01*
X29385D01*
X28803Y20743D01*
X28455Y20395D01*
X28443Y20397D01*
X27997Y20843D01*
X27415Y21084D01*
X26785D01*
X26203Y20843D01*
X26123Y20763D01*
X25533Y20880D01*
X25443Y21097D01*
X24997Y21543D01*
X24415Y21784D01*
D02*
G37*
G36*
X110702Y12744D02*
X109849D01*
X109797Y12723D01*
X109743Y12734D01*
X108906Y12567D01*
X108860Y12537D01*
X108805D01*
X108017Y12210D01*
X107977Y12171D01*
X107923Y12160D01*
X107214Y11686D01*
X107183Y11640D01*
X107132Y11619D01*
X106528Y11016D01*
X106507Y10965D01*
X106461Y10934D01*
X105987Y10225D01*
X105976Y10170D01*
X105937Y10131D01*
X105611Y9343D01*
Y9287D01*
X105580Y9241D01*
X105414Y8405D01*
X105424Y8350D01*
X105403Y8299D01*
Y7446D01*
X105424Y7395D01*
X105414Y7340D01*
X105580Y6504D01*
X105611Y6458D01*
Y6402D01*
X105937Y5614D01*
X105976Y5575D01*
X105987Y5520D01*
X106461Y4811D01*
X106507Y4780D01*
X106528Y4729D01*
X107132Y4126D01*
X107183Y4105D01*
X107214Y4059D01*
X107923Y3585D01*
X107977Y3574D01*
X108017Y3535D01*
X108805Y3208D01*
X108860D01*
X108906Y3177D01*
X109743Y3011D01*
X109797Y3022D01*
X109849Y3001D01*
X110702D01*
X110753Y3022D01*
X110807Y3011D01*
X111644Y3177D01*
X111690Y3208D01*
X111745D01*
X112534Y3535D01*
X112573Y3574D01*
X112627Y3585D01*
X113336Y4059D01*
X113367Y4105D01*
X113418Y4126D01*
X114022Y4729D01*
X114043Y4780D01*
X114089Y4811D01*
X114563Y5520D01*
X114574Y5575D01*
X114613Y5614D01*
X114939Y6402D01*
Y6458D01*
X114970Y6504D01*
X115137Y7340D01*
X115126Y7395D01*
X115147Y7446D01*
Y8299D01*
X115126Y8350D01*
X115137Y8405D01*
X114970Y9241D01*
X114939Y9287D01*
Y9343D01*
X114613Y10131D01*
X114574Y10170D01*
X114563Y10225D01*
X114089Y10934D01*
X114043Y10965D01*
X114022Y11016D01*
X113418Y11619D01*
X113367Y11640D01*
X113336Y11686D01*
X112627Y12160D01*
X112573Y12171D01*
X112534Y12210D01*
X111745Y12537D01*
X111690D01*
X111644Y12567D01*
X110807Y12734D01*
X110753Y12723D01*
X110702Y12744D01*
D02*
G37*
G36*
X8339Y12744D02*
X7486D01*
X7435Y12723D01*
X7381Y12734D01*
X6544Y12567D01*
X6498Y12536D01*
X6442D01*
X5654Y12210D01*
X5615Y12171D01*
X5561Y12160D01*
X4851Y11686D01*
X4821Y11640D01*
X4769Y11619D01*
X4166Y11016D01*
X4145Y10964D01*
X4099Y10933D01*
X3625Y10224D01*
X3614Y10170D01*
X3575Y10131D01*
X3249Y9342D01*
Y9287D01*
X3218Y9241D01*
X3051Y8404D01*
X3062Y8350D01*
X3041Y8299D01*
Y7446D01*
X3062Y7394D01*
X3051Y7340D01*
X3218Y6503D01*
X3249Y6457D01*
Y6402D01*
X3575Y5614D01*
X3614Y5574D01*
X3625Y5520D01*
X4099Y4811D01*
X4145Y4780D01*
X4166Y4729D01*
X4769Y4126D01*
X4821Y4104D01*
X4851Y4058D01*
X5561Y3584D01*
X5615Y3573D01*
X5654Y3534D01*
X6442Y3208D01*
X6498D01*
X6544Y3177D01*
X7381Y3011D01*
X7435Y3021D01*
X7486Y3000D01*
X8339D01*
X8391Y3021D01*
X8445Y3011D01*
X9282Y3177D01*
X9328Y3208D01*
X9383D01*
X10171Y3534D01*
X10210Y3573D01*
X10265Y3584D01*
X10974Y4058D01*
X11005Y4104D01*
X11056Y4126D01*
X11659Y4729D01*
X11681Y4780D01*
X11727Y4811D01*
X12201Y5520D01*
X12212Y5574D01*
X12251Y5614D01*
X12577Y6402D01*
Y6457D01*
X12608Y6503D01*
X12774Y7340D01*
X12764Y7394D01*
X12785Y7446D01*
Y8299D01*
X12764Y8350D01*
X12774Y8404D01*
X12608Y9241D01*
X12577Y9287D01*
Y9342D01*
X12251Y10131D01*
X12212Y10170D01*
X12201Y10224D01*
X11727Y10933D01*
X11681Y10964D01*
X11659Y11016D01*
X11056Y11619D01*
X11005Y11640D01*
X10974Y11686D01*
X10265Y12160D01*
X10210Y12171D01*
X10171Y12210D01*
X9383Y12536D01*
X9328D01*
X9282Y12567D01*
X8445Y12734D01*
X8391Y12723D01*
X8339Y12744D01*
D02*
G37*
G36*
X100015Y12984D02*
X99385D01*
X98803Y12743D01*
X98357Y12297D01*
X98116Y11715D01*
Y11085D01*
X98357Y10503D01*
X98803Y10057D01*
X99385Y9816D01*
X100015D01*
X100597Y10057D01*
X101043Y10503D01*
X101284Y11085D01*
Y11715D01*
X101043Y12297D01*
X100597Y12743D01*
X100015Y12984D01*
D02*
G37*
G36*
X79415Y4184D02*
X78785D01*
X78203Y3943D01*
X77918Y3658D01*
X77600Y3551D01*
X77282Y3658D01*
X76997Y3943D01*
X76415Y4184D01*
X75785D01*
X75203Y3943D01*
X74757Y3497D01*
X74516Y2915D01*
Y2285D01*
X74757Y1703D01*
X75203Y1257D01*
X75785Y1016D01*
X76415D01*
X76997Y1257D01*
X77282Y1542D01*
X77600Y1649D01*
X77918Y1542D01*
X78203Y1257D01*
X78785Y1016D01*
X79415D01*
X79997Y1257D01*
X80443Y1703D01*
X80684Y2285D01*
Y2915D01*
X80443Y3497D01*
X79997Y3943D01*
X79415Y4184D01*
D02*
G37*
G36*
X47315Y4884D02*
X46685D01*
X46103Y4643D01*
X45657Y4197D01*
X45416Y3615D01*
Y2985D01*
X45657Y2403D01*
X46103Y1957D01*
X46685Y1716D01*
X47315D01*
X47897Y1957D01*
X48343Y2403D01*
X48584Y2985D01*
Y3615D01*
X48343Y4197D01*
X47897Y4643D01*
X47315Y4884D01*
D02*
G37*
%LPD*%
G36*
X102013Y60909D02*
X101956Y60984D01*
X101738Y61238D01*
X101707Y61265D01*
X101680Y61284D01*
X101658Y61296D01*
X101639Y61300D01*
Y61700D01*
X101658Y61704D01*
X101680Y61716D01*
X101707Y61735D01*
X101738Y61762D01*
X101773Y61798D01*
X101856Y61891D01*
X102013Y62090D01*
Y60909D01*
D02*
G37*
G36*
X87604Y50342D02*
X87616Y50320D01*
X87635Y50293D01*
X87663Y50262D01*
X87698Y50227D01*
X87791Y50144D01*
X87990Y49987D01*
X86809D01*
X86884Y50044D01*
X87138Y50262D01*
X87165Y50293D01*
X87184Y50320D01*
X87196Y50342D01*
X87200Y50361D01*
X87600D01*
X87604Y50342D01*
D02*
G37*
G36*
X37229Y57696D02*
X37205Y57698D01*
X37182Y57700D01*
X37161Y57699D01*
X37141Y57697D01*
X37122Y57694D01*
X37104Y57689D01*
X37088Y57683D01*
X37073Y57675D01*
X37059Y57665D01*
X37047Y57654D01*
X36764Y57937D01*
X36775Y57950D01*
X36784Y57963D01*
X36792Y57978D01*
X36799Y57995D01*
X36804Y58012D01*
X36807Y58031D01*
X36809Y58051D01*
X36809Y58073D01*
X36808Y58096D01*
X36805Y58120D01*
X37229Y57696D01*
D02*
G37*
G36*
X37256Y55640D02*
X37232Y55643D01*
X37209Y55644D01*
X37188Y55644D01*
X37167Y55642D01*
X37148Y55639D01*
X37131Y55634D01*
X37115Y55627D01*
X37100Y55619D01*
X37086Y55610D01*
X37073Y55599D01*
X36791Y55882D01*
X36802Y55894D01*
X36811Y55908D01*
X36819Y55923D01*
X36825Y55939D01*
X36830Y55957D01*
X36834Y55976D01*
X36836Y55996D01*
X36836Y56017D01*
X36835Y56040D01*
X36832Y56064D01*
X37256Y55640D01*
D02*
G37*
G36*
X33259Y33825D02*
X33273Y33816D01*
X33288Y33808D01*
X33304Y33801D01*
X33322Y33796D01*
X33341Y33793D01*
X33361Y33791D01*
X33382Y33791D01*
X33405Y33792D01*
X33429Y33795D01*
X33005Y33371D01*
X33008Y33395D01*
X33009Y33418D01*
X33009Y33439D01*
X33007Y33459D01*
X33004Y33478D01*
X32999Y33496D01*
X32992Y33512D01*
X32984Y33527D01*
X32975Y33541D01*
X32964Y33553D01*
X33247Y33836D01*
X33259Y33825D01*
D02*
G37*
G36*
X36259Y33525D02*
X36273Y33516D01*
X36288Y33508D01*
X36304Y33501D01*
X36322Y33496D01*
X36341Y33493D01*
X36361Y33491D01*
X36382Y33491D01*
X36405Y33492D01*
X36429Y33495D01*
X36005Y33071D01*
X36008Y33095D01*
X36009Y33118D01*
X36009Y33139D01*
X36007Y33159D01*
X36004Y33178D01*
X35999Y33196D01*
X35992Y33212D01*
X35984Y33227D01*
X35975Y33241D01*
X35964Y33253D01*
X36247Y33536D01*
X36259Y33525D01*
D02*
G37*
D15*
X29513Y34913D02*
Y36510D01*
X27900Y33300D02*
X29513Y34913D01*
X26700Y33300D02*
X27900D01*
X25800Y34200D02*
X26700Y33300D01*
D58*
X31400Y38500D02*
X32000Y37900D01*
X31400Y44900D02*
X35000Y48500D01*
X31400Y38500D02*
Y44900D01*
X32300Y41200D02*
X35200Y38300D01*
X32300Y44739D02*
X35750Y48189D01*
X32300Y41200D02*
Y44739D01*
X38700Y28900D02*
X42900Y33100D01*
X38700Y17600D02*
Y28900D01*
X42900Y33100D02*
Y50600D01*
X43800Y49200D02*
X48200Y53600D01*
X39600Y28100D02*
X43800Y32300D01*
Y49200D01*
X42900Y50600D02*
X47400Y55100D01*
X43900Y29200D02*
X45716Y31016D01*
X43900Y17619D02*
Y29200D01*
X45716Y31016D02*
Y45116D01*
X43000Y29800D02*
X44800Y31600D01*
X39600Y17200D02*
Y28100D01*
X44800Y31600D02*
Y46900D01*
X47700Y49800D01*
X43000Y19200D02*
Y29800D01*
X45716Y45116D02*
X47700Y47100D01*
X42700Y15600D02*
X44500Y13800D01*
X42700Y18900D02*
X43000Y19200D01*
X42700Y15600D02*
Y18900D01*
X62432Y12832D02*
X63000Y13400D01*
X53800Y12832D02*
X62432D01*
X13600Y39900D02*
X14400Y39100D01*
X17400D01*
X18100Y39800D01*
X13600Y39900D02*
Y52900D01*
X20300Y39800D02*
X21600Y38500D01*
X18100Y39800D02*
X20300D01*
X54100Y63300D02*
Y64600D01*
X53400Y65300D02*
X54100Y64600D01*
X29200Y60100D02*
X34400Y65300D01*
X53400D01*
X29200Y40194D02*
Y60100D01*
X25527Y36521D02*
X29200Y40194D01*
X64300Y31100D02*
X64700D01*
X64600Y28500D02*
X65500Y29400D01*
X64300Y28500D02*
X64600D01*
X64700Y31100D02*
X65500Y30300D01*
Y29400D02*
X76381D01*
Y30300D02*
X77181Y31100D01*
Y28600D02*
X77400D01*
X76381Y29400D02*
X77181Y28600D01*
Y31100D02*
X77400D01*
X65500Y30300D02*
X76381D01*
X21100Y61700D02*
X29200Y69800D01*
X21100Y45100D02*
X23600Y42600D01*
X21100Y45100D02*
Y61700D01*
X22000Y45932D02*
X23540Y44392D01*
X22000Y60800D02*
X30000Y68800D01*
X22000Y45932D02*
Y60800D01*
X30000Y68800D02*
X81500D01*
X20200Y62900D02*
Y70188D01*
X16400Y41600D02*
Y59100D01*
X20200Y62900D01*
X15500Y59600D02*
X19200Y63300D01*
X15500Y54800D02*
Y59600D01*
X19200Y63300D02*
Y68500D01*
X29200Y69800D02*
X82100D01*
X19300Y71088D02*
Y77100D01*
Y71088D02*
X20200Y70188D01*
X25800Y63100D02*
X30100Y67400D01*
X25800Y60500D02*
Y63100D01*
X30100Y67400D02*
X55700D01*
X27450Y63450D02*
X30500Y66500D01*
X27450Y62600D02*
Y63450D01*
X30500Y66500D02*
X54600D01*
X16900Y70800D02*
Y74700D01*
Y70800D02*
X19200Y68500D01*
X13600Y52900D02*
X15500Y54800D01*
X16400Y41600D02*
X17100Y40900D01*
X20041D01*
X21568Y42427D01*
X24419Y38479D02*
X25516D01*
X23700Y31700D02*
Y37760D01*
X24419Y38479D01*
X22900Y30900D02*
X23700Y31700D01*
X14000Y30900D02*
X22900D01*
X5200Y39700D02*
X14000Y30900D01*
X23600Y40394D02*
Y42600D01*
X52100Y26500D02*
X62327D01*
X51700Y26100D02*
X52100Y26500D01*
X47400Y26100D02*
X51700D01*
X53300Y25600D02*
X61900D01*
X51269Y23569D02*
X53300Y25600D01*
X61527Y24700D02*
X63927Y22300D01*
X54200Y24700D02*
X61527D01*
X50600Y21100D02*
X54200Y24700D01*
X47400Y23569D02*
X51269D01*
X47400Y21100D02*
X50600D01*
X56600Y18000D02*
X56747Y18147D01*
X66600D01*
X48502Y27500D02*
X62600D01*
X63300Y26800D01*
X48452Y27516D02*
X48502Y27500D01*
X47404Y28564D02*
X48452Y27516D01*
X63927Y22300D02*
X69400D01*
X62927Y25900D02*
X72800D01*
X63516Y23984D02*
X67000D01*
X62327Y26500D02*
X62927Y25900D01*
X61900Y25600D02*
X63516Y23984D01*
X47405Y28564D02*
Y28689D01*
X63300Y26800D02*
X65576D01*
X66376Y27600D01*
X31431Y3500D02*
Y10332D01*
X34132Y3500D02*
Y11732D01*
X35200Y34300D02*
X36500Y33000D01*
X87400Y49200D02*
Y53800D01*
X95100Y61500D02*
X102800D01*
X87400Y53800D02*
X95100Y61500D01*
X34132Y11732D02*
X39600Y17200D01*
X31431Y10332D02*
X38700Y17600D01*
X58100Y42300D02*
X63600Y47800D01*
X32000Y34800D02*
Y37900D01*
Y34800D02*
X33500Y33300D01*
X35200Y34300D02*
Y38300D01*
X35750Y48189D02*
Y54558D01*
X35000Y55891D02*
X37300Y58191D01*
X35000Y48500D02*
Y55891D01*
X41000Y38300D02*
X41800Y39100D01*
X41000Y33400D02*
Y38300D01*
X27424Y58164D02*
X27450Y58190D01*
Y62600D01*
X35750Y54558D02*
X37327Y56135D01*
X43900Y17619D02*
X44684Y16834D01*
Y16600D02*
Y16834D01*
X48200Y53600D02*
X54100D01*
X58300Y32800D02*
X65200D01*
X66400Y31600D02*
X67900D01*
X70200Y33900D02*
X75300D01*
X67900Y31600D02*
X70200Y33900D01*
X69800Y21900D02*
X72800D01*
X73400Y42200D02*
X77300D01*
X68300Y48700D02*
X72200Y44800D01*
X77300D01*
X67800Y47800D02*
X73400Y42200D01*
X63600Y47800D02*
X67800D01*
X62100Y48700D02*
X68300D01*
X58200Y44800D02*
X62100Y48700D01*
X75700Y46200D02*
X77200Y47700D01*
X72127Y46200D02*
X75700D01*
X73800Y47300D02*
X77000Y50500D01*
X72300Y47300D02*
X73800D01*
X69100Y50500D02*
X72300Y47300D01*
X68727Y49600D02*
X72127Y46200D01*
X59900Y49600D02*
X68727D01*
X58100Y47800D02*
X59900Y49600D01*
X58100Y50500D02*
X69100D01*
X56400Y56400D02*
Y64700D01*
X54600Y66500D02*
X56400Y64700D01*
X58300Y58400D02*
Y64800D01*
X55700Y67400D02*
X58300Y64800D01*
X82100Y69800D02*
X85500Y66400D01*
X81500Y68800D02*
X83600Y66700D01*
X84400Y61100D02*
X85500Y62200D01*
Y66400D01*
X83600Y63600D02*
Y66700D01*
X84200Y61100D02*
X84400D01*
X66542Y20558D02*
X66600Y20616D01*
X54300Y20500D02*
X54358Y20558D01*
X66542D01*
X53900Y18000D02*
X56600D01*
X63016Y15816D02*
X64537D01*
X64600Y15879D01*
X61400Y14200D02*
X63016Y15816D01*
X55000Y14200D02*
X61400D01*
X63000Y13400D02*
X64600D01*
X53800Y15400D02*
X55000Y14200D01*
X65419Y36200D02*
X76500D01*
X77237Y36937D01*
X64619Y37000D02*
X65419Y36200D01*
X83316Y32784D02*
X83400Y32700D01*
X76716Y32784D02*
X83316D01*
X76700Y32800D02*
X76716Y32784D01*
X76400Y32800D02*
X76700D01*
X75300Y33900D02*
X76400Y32800D01*
X65200D02*
X66400Y31600D01*
X65419Y35300D02*
X76500D01*
X64619Y34500D02*
X65419Y35300D01*
X76500D02*
X77332Y34468D01*
X77500D01*
X77237Y36937D02*
X77500D01*
X69400Y22300D02*
X69800Y21900D01*
X66376Y27600D02*
X66800D01*
X64400Y34500D02*
X64619D01*
X64400Y37000D02*
X64619D01*
D61*
X39300Y42400D02*
D03*
X41400Y46600D02*
D03*
X29700Y31600D02*
D03*
X29513Y36510D02*
D03*
X41717Y41517D02*
D03*
X41800Y43400D02*
D03*
X41700Y51200D02*
D03*
X19600Y36500D02*
D03*
X14800Y40300D02*
D03*
X29500Y33200D02*
D03*
X27395Y34626D02*
D03*
X25471Y54271D02*
D03*
X39250Y56150D02*
D03*
X15200Y52400D02*
D03*
X15172Y42000D02*
D03*
X21600Y38500D02*
D03*
X19610Y38479D02*
D03*
Y44384D02*
D03*
X21568Y42427D02*
D03*
X25505Y50301D02*
D03*
X21568Y36500D02*
D03*
X21600Y34400D02*
D03*
X19339Y32668D02*
D03*
X21900Y32100D02*
D03*
X33224Y52169D02*
D03*
X33371Y38463D02*
D03*
X33360Y50260D02*
D03*
X36500Y33000D02*
D03*
X32800Y61700D02*
D03*
X14800Y43700D02*
D03*
X13900Y57200D02*
D03*
X13904Y58968D02*
D03*
X41700Y52900D02*
D03*
X15100Y34199D02*
D03*
X27400Y56279D02*
D03*
X23600Y40394D02*
D03*
X37386Y44385D02*
D03*
X37374Y46400D02*
D03*
X37300Y50263D02*
D03*
X33393Y58107D02*
D03*
X33400Y42426D02*
D03*
X33423Y44377D02*
D03*
X33300Y48348D02*
D03*
X27395Y36595D02*
D03*
X25800Y60500D02*
D03*
X31485Y60400D02*
D03*
X25516Y38479D02*
D03*
X41000Y33400D02*
D03*
X41800Y39100D02*
D03*
X25800Y34200D02*
D03*
X33285Y56300D02*
D03*
X31500Y56116D02*
D03*
X37300Y54254D02*
D03*
X39300Y50300D02*
D03*
X19528Y50269D02*
D03*
X37327Y40447D02*
D03*
X19626Y42400D02*
D03*
X33300Y36600D02*
D03*
X37350Y36487D02*
D03*
X31400Y54248D02*
D03*
X27424Y58164D02*
D03*
X31400Y58200D02*
D03*
X31482Y50290D02*
D03*
X17715Y54300D02*
D03*
X19634Y54250D02*
D03*
X17700Y56200D02*
D03*
Y58200D02*
D03*
X19610Y56195D02*
D03*
X35388Y40477D02*
D03*
X35350Y44400D02*
D03*
X33500Y33300D02*
D03*
X37327Y56135D02*
D03*
X37300Y58191D02*
D03*
X23500Y56300D02*
D03*
X27350Y50225D02*
D03*
X27361Y40503D02*
D03*
X19600Y58153D02*
D03*
X25527Y36521D02*
D03*
X25550Y46353D02*
D03*
X23600Y48374D02*
D03*
X23540Y44392D02*
D03*
X17642Y42355D02*
D03*
X19600Y52300D02*
D03*
X23300Y52500D02*
D03*
X17736Y52227D02*
D03*
X35300Y42358D02*
D03*
X37422Y34510D02*
D03*
X23400Y58311D02*
D03*
X25500Y42400D02*
D03*
X23462Y46330D02*
D03*
D62*
X73100Y49200D02*
D03*
X47400Y41500D02*
D03*
X66700Y55100D02*
D03*
X53800Y12832D02*
D03*
X54100Y63200D02*
D03*
X109100Y25500D02*
D03*
X64300Y31100D02*
D03*
Y28500D02*
D03*
X77400Y31100D02*
D03*
Y28600D02*
D03*
X74500Y27700D02*
D03*
X89300Y77300D02*
D03*
X46200Y74400D02*
D03*
X104100Y47700D02*
D03*
X41300Y74400D02*
D03*
X46200Y76900D02*
D03*
X43800Y74400D02*
D03*
X101600Y74800D02*
D03*
Y77200D02*
D03*
Y72300D02*
D03*
X92000Y77300D02*
D03*
X47405Y28689D02*
D03*
X47400Y21100D02*
D03*
X64400Y63200D02*
D03*
X55700Y32800D02*
D03*
X55100Y22900D02*
D03*
X53800Y15400D02*
D03*
X64400Y60400D02*
D03*
X53900Y18000D02*
D03*
X57900Y22500D02*
D03*
X58300Y58400D02*
D03*
X47400Y26100D02*
D03*
X58300Y16400D02*
D03*
X58100Y47800D02*
D03*
X58300Y32800D02*
D03*
X58200Y44800D02*
D03*
X56400Y56400D02*
D03*
X64400Y37000D02*
D03*
X58100Y53000D02*
D03*
Y50500D02*
D03*
X58200Y29300D02*
D03*
X56900Y39700D02*
D03*
X47400Y23569D02*
D03*
X64400Y34500D02*
D03*
X58100Y42300D02*
D03*
X54300Y20500D02*
D03*
X47700Y49800D02*
D03*
Y47100D02*
D03*
X47400Y55100D02*
D03*
X54100Y53600D02*
D03*
X36700Y3500D02*
D03*
X34132D02*
D03*
X39331D02*
D03*
X31431D02*
D03*
X28400Y3700D02*
D03*
X42000Y3000D02*
D03*
X116300Y34400D02*
D03*
X111200D02*
D03*
X113800D02*
D03*
X108600D02*
D03*
X111100Y46000D02*
D03*
X108600Y48500D02*
D03*
X113600D02*
D03*
X116200Y43500D02*
D03*
Y46000D02*
D03*
X113600D02*
D03*
Y43500D02*
D03*
X116100Y48500D02*
D03*
X111100D02*
D03*
X108600Y46000D02*
D03*
Y43500D02*
D03*
X111100D02*
D03*
X113700Y39500D02*
D03*
X108600Y37000D02*
D03*
X108500Y39600D02*
D03*
X113800Y37000D02*
D03*
X111200D02*
D03*
X111100Y39600D02*
D03*
X116200D02*
D03*
X116300Y37000D02*
D03*
X83200Y1500D02*
D03*
X85700Y1600D02*
D03*
X88200D02*
D03*
X102400D02*
D03*
X99800D02*
D03*
X97200D02*
D03*
X94600D02*
D03*
X113700Y16000D02*
D03*
X111300Y16600D02*
D03*
X108800Y16500D02*
D03*
X106400Y15700D02*
D03*
X104300Y14300D02*
D03*
X102600Y12400D02*
D03*
X45400Y60000D02*
D03*
X95700Y42900D02*
D03*
X98300Y43000D02*
D03*
X100600Y44200D02*
D03*
X102300Y46000D02*
D03*
X45600Y19100D02*
D03*
X47500Y14900D02*
D03*
Y17400D02*
D03*
X17300Y23500D02*
D03*
X19234Y18283D02*
D03*
X12600Y23100D02*
D03*
X3600Y16800D02*
D03*
X9700Y21900D02*
D03*
X99100Y65700D02*
D03*
X91500D02*
D03*
X94000D02*
D03*
X96500D02*
D03*
X92800Y63500D02*
D03*
X95300D02*
D03*
X115700Y58000D02*
D03*
X113300D02*
D03*
X111000D02*
D03*
X108600D02*
D03*
Y60400D02*
D03*
X111000D02*
D03*
X113300D02*
D03*
X115600D02*
D03*
X104000Y77200D02*
D03*
X17000Y3600D02*
D03*
X18600Y1300D02*
D03*
X16300D02*
D03*
X14000D02*
D03*
X1400Y15600D02*
D03*
Y18000D02*
D03*
Y20300D02*
D03*
X73800Y56300D02*
D03*
X73700Y58700D02*
D03*
X75800Y53000D02*
D03*
X16900Y74700D02*
D03*
X19300Y77100D02*
D03*
X1600Y62000D02*
D03*
X3800Y63100D02*
D03*
X1600Y64300D02*
D03*
X54600Y42100D02*
D03*
Y44600D02*
D03*
Y47100D02*
D03*
Y49600D02*
D03*
X84600Y40800D02*
D03*
Y43200D02*
D03*
Y45700D02*
D03*
Y48100D02*
D03*
Y50600D02*
D03*
X102800Y61500D02*
D03*
X87400Y49200D02*
D03*
X86600Y28100D02*
D03*
Y25300D02*
D03*
X88800Y26200D02*
D03*
X90500Y28000D02*
D03*
X100800Y27200D02*
D03*
X102400Y25300D02*
D03*
X104100Y27200D02*
D03*
X105700Y25300D02*
D03*
X107300Y27100D02*
D03*
X36500Y10600D02*
D03*
X43800Y76900D02*
D03*
X41300D02*
D03*
X99700Y11400D02*
D03*
X91200Y1600D02*
D03*
X73600Y11000D02*
D03*
Y13500D02*
D03*
X79100Y2600D02*
D03*
X76100D02*
D03*
X29700Y6100D02*
D03*
X97800Y63500D02*
D03*
X35400Y29200D02*
D03*
X21700Y18400D02*
D03*
X41300Y21600D02*
D03*
X25400Y27300D02*
D03*
X27100Y19500D02*
D03*
X24100Y20200D02*
D03*
X12600Y18200D02*
D03*
Y20600D02*
D03*
X5300Y30300D02*
D03*
Y33400D02*
D03*
X2200Y42500D02*
D03*
X4572D02*
D03*
X17200Y64200D02*
D03*
X14600D02*
D03*
X5200Y39700D02*
D03*
X29700Y19400D02*
D03*
X34300Y21700D02*
D03*
X36800Y24200D02*
D03*
X47000Y3300D02*
D03*
X33200Y24500D02*
D03*
X41300Y24200D02*
D03*
X44684Y16600D02*
D03*
X44500Y13800D02*
D03*
X66800Y43100D02*
D03*
X66700Y45700D02*
D03*
X75600Y38600D02*
D03*
X73100Y38100D02*
D03*
X72816Y32200D02*
D03*
X67000Y33500D02*
D03*
X72800Y21900D02*
D03*
X83500Y38300D02*
D03*
X77300Y44800D02*
D03*
Y42200D02*
D03*
X73100Y51800D02*
D03*
X77200Y47700D02*
D03*
X77000Y50500D02*
D03*
X66716Y57800D02*
D03*
X83600Y63600D02*
D03*
X77393Y58666D02*
D03*
X77500Y56200D02*
D03*
X84200Y61100D02*
D03*
X66800Y37900D02*
D03*
Y40400D02*
D03*
X77500Y34468D02*
D03*
Y36937D02*
D03*
X77400Y26131D02*
D03*
X83400Y32700D02*
D03*
X77400Y22900D02*
D03*
X64600Y15879D02*
D03*
Y13400D02*
D03*
X67000Y23984D02*
D03*
X66600Y20616D02*
D03*
Y18147D02*
D03*
X72800Y25900D02*
D03*
X66800Y27600D02*
D03*
M02*
