G04*
G04 #@! TF.GenerationSoftware,Altium Limited,Altium Designer,21.3.2 (30)*
G04*
G04 Layer_Physical_Order=5*
G04 Layer_Color=16711833*
%FSLAX25Y25*%
%MOIN*%
G70*
G04*
G04 #@! TF.SameCoordinates,20047665-8901-4395-8F35-5F40874213DC*
G04*
G04*
G04 #@! TF.FilePolarity,Positive*
G04*
G01*
G75*
%ADD58C,0.00400*%
%ADD61C,0.01000*%
%ADD62C,0.01968*%
%ADD63C,0.00800*%
G36*
X112570Y78436D02*
X114004Y77842D01*
X115294Y76981D01*
X116391Y75884D01*
X117252Y74594D01*
X117845Y73160D01*
X118148Y71639D01*
X118147Y70863D01*
X118147Y40345D01*
X117647Y40246D01*
X117543Y40497D01*
X117097Y40943D01*
X116515Y41184D01*
X115885D01*
X115303Y40943D01*
X114900Y40541D01*
X114597Y40843D01*
X114015Y41084D01*
X113385D01*
X112803Y40843D01*
X112455Y40495D01*
X112443Y40497D01*
X111997Y40943D01*
X111415Y41184D01*
X110785D01*
X110203Y40943D01*
X109800Y40541D01*
X109397Y40943D01*
X108815Y41184D01*
X108185D01*
X107603Y40943D01*
X107157Y40497D01*
X106916Y39915D01*
Y39285D01*
X107157Y38703D01*
X107256Y38604D01*
X107259Y37899D01*
X107257Y37897D01*
X107016Y37315D01*
Y36685D01*
X107257Y36103D01*
X107659Y35700D01*
X107257Y35297D01*
X107016Y34715D01*
Y34085D01*
X107257Y33503D01*
X107703Y33057D01*
X108285Y32816D01*
X108915D01*
X109497Y33057D01*
X109900Y33459D01*
X110303Y33057D01*
X110885Y32816D01*
X111515D01*
X112097Y33057D01*
X112500Y33459D01*
X112903Y33057D01*
X113485Y32816D01*
X114115D01*
X114697Y33057D01*
X115050Y33410D01*
X115403Y33057D01*
X115985Y32816D01*
X116615D01*
X117197Y33057D01*
X117643Y33503D01*
X117647Y33513D01*
X118147Y33413D01*
X118147Y7871D01*
X118147Y7871D01*
X118148Y7096D01*
X117845Y5574D01*
X117252Y4141D01*
X116391Y2851D01*
X115294Y1754D01*
X114004Y892D01*
X112570Y299D01*
X111049Y-3D01*
X110273Y-3D01*
X92545D01*
X92338Y497D01*
X92543Y703D01*
X92784Y1285D01*
Y1915D01*
X92543Y2497D01*
X92097Y2943D01*
X91515Y3184D01*
X90885D01*
X90303Y2943D01*
X89857Y2497D01*
X89616Y1915D01*
Y1285D01*
X89857Y703D01*
X90062Y497D01*
X89855Y-3D01*
X7911D01*
X7136Y-3D01*
X5615Y300D01*
X4182Y894D01*
X2892Y1756D01*
X1796Y2853D01*
X934Y4142D01*
X340Y5575D01*
X37Y7096D01*
X37Y7871D01*
Y22191D01*
X361Y22326D01*
X537Y22345D01*
X1507Y21374D01*
X1598Y21283D01*
X1598Y21283D01*
Y21283D01*
X1718Y21234D01*
X1809Y21142D01*
X1929Y21092D01*
X2193Y20830D01*
X2242Y20709D01*
X2334Y20618D01*
X2383Y20498D01*
X2475Y20407D01*
X2475Y20407D01*
X10102Y12780D01*
X9818Y12356D01*
X9383Y12536D01*
X9328D01*
X9282Y12567D01*
X8445Y12734D01*
X8391Y12723D01*
X8339Y12744D01*
X7486D01*
X7435Y12723D01*
X7381Y12734D01*
X6544Y12567D01*
X6498Y12536D01*
X6442D01*
X5654Y12210D01*
X5615Y12171D01*
X5561Y12160D01*
X4851Y11686D01*
X4821Y11640D01*
X4769Y11619D01*
X4166Y11016D01*
X4145Y10964D01*
X4099Y10933D01*
X3625Y10224D01*
X3614Y10170D01*
X3575Y10131D01*
X3249Y9342D01*
Y9287D01*
X3218Y9241D01*
X3051Y8404D01*
X3062Y8350D01*
X3041Y8299D01*
Y7446D01*
X3062Y7394D01*
X3051Y7340D01*
X3218Y6503D01*
X3249Y6457D01*
Y6402D01*
X3575Y5614D01*
X3614Y5574D01*
X3625Y5520D01*
X4099Y4811D01*
X4145Y4780D01*
X4166Y4729D01*
X4769Y4126D01*
X4821Y4104D01*
X4851Y4058D01*
X5561Y3584D01*
X5615Y3573D01*
X5654Y3534D01*
X6442Y3208D01*
X6498D01*
X6544Y3177D01*
X7381Y3011D01*
X7435Y3021D01*
X7486Y3000D01*
X8339D01*
X8391Y3021D01*
X8445Y3011D01*
X9282Y3177D01*
X9328Y3208D01*
X9383D01*
X10171Y3534D01*
X10210Y3573D01*
X10265Y3584D01*
X10974Y4058D01*
X11005Y4104D01*
X11056Y4126D01*
X11659Y4729D01*
X11681Y4780D01*
X11727Y4811D01*
X12201Y5520D01*
X12212Y5574D01*
X12251Y5614D01*
X12577Y6402D01*
Y6457D01*
X12608Y6503D01*
X12774Y7340D01*
X12764Y7394D01*
X12785Y7446D01*
Y8299D01*
X12764Y8350D01*
X12774Y8404D01*
X12608Y9241D01*
X12577Y9287D01*
Y9342D01*
X12397Y9777D01*
X12821Y10061D01*
X17549Y5332D01*
X17669Y5283D01*
X17760Y5191D01*
X17981Y5100D01*
X18110D01*
X18229Y5051D01*
X27300D01*
X27372Y5080D01*
X28479D01*
X28803Y4757D01*
X29385Y4516D01*
X29596D01*
X29930Y4016D01*
X29847Y3815D01*
Y3185D01*
X30088Y2603D01*
X30534Y2157D01*
X31116Y1916D01*
X31747D01*
X32329Y2157D01*
X32455Y2283D01*
X32781Y2596D01*
X33108Y2283D01*
X33234Y2157D01*
X33816Y1916D01*
X34447D01*
X35029Y2157D01*
X35416Y2544D01*
X35803Y2157D01*
X36385Y1916D01*
X37015D01*
X37597Y2157D01*
X38016Y2575D01*
X38434Y2157D01*
X39016Y1916D01*
X39647D01*
X40113Y2109D01*
X40657Y2103D01*
X41103Y1657D01*
X41685Y1416D01*
X42315D01*
X42897Y1657D01*
X43343Y2103D01*
X43584Y2685D01*
Y3315D01*
X43343Y3897D01*
X42897Y4343D01*
X42315Y4584D01*
X41685D01*
X41218Y4391D01*
X40674Y4397D01*
X40229Y4843D01*
X39976Y4948D01*
X39924Y5035D01*
X39873Y5531D01*
X42021Y7679D01*
X42242Y8010D01*
X42320Y8400D01*
Y20379D01*
X42643Y20703D01*
X42884Y21285D01*
Y21915D01*
X42643Y22497D01*
X42241Y22900D01*
X42643Y23303D01*
X42884Y23885D01*
Y24515D01*
X42643Y25097D01*
X42197Y25543D01*
X41615Y25784D01*
X40985D01*
X40403Y25543D01*
X39957Y25097D01*
X39716Y24515D01*
Y23885D01*
X39957Y23303D01*
X40360Y22900D01*
X39957Y22497D01*
X39716Y21915D01*
Y21285D01*
X39957Y20703D01*
X40280Y20379D01*
Y8822D01*
X38578Y7120D01*
X30921D01*
X30597Y7443D01*
X30015Y7684D01*
X29385D01*
X28803Y7443D01*
X28479Y7120D01*
X27299D01*
X26603Y7815D01*
X26603Y7815D01*
X19296Y15122D01*
X19487Y15584D01*
X30500D01*
X30500Y15584D01*
X30812Y15646D01*
X31077Y15823D01*
X32177Y16923D01*
X32177Y16923D01*
X32354Y17188D01*
X32416Y17500D01*
Y20803D01*
X32916Y20902D01*
X32957Y20803D01*
X33403Y20357D01*
X33985Y20116D01*
X34615D01*
X35197Y20357D01*
X35643Y20803D01*
X35884Y21385D01*
Y22015D01*
X35730Y22387D01*
X36113Y22770D01*
X36485Y22616D01*
X37115D01*
X37697Y22857D01*
X38143Y23303D01*
X38384Y23885D01*
Y24515D01*
X38143Y25097D01*
X37697Y25543D01*
X37115Y25784D01*
X36485D01*
X35903Y25543D01*
X35457Y25097D01*
X35284Y24680D01*
X34784Y24780D01*
Y24815D01*
X34543Y25397D01*
X34097Y25843D01*
X33515Y26084D01*
X32885D01*
X32303Y25843D01*
X31857Y25397D01*
X31616Y24815D01*
Y24185D01*
X31650Y24103D01*
X31023Y23477D01*
X30916Y23316D01*
X30416Y23415D01*
Y26762D01*
X32577Y28923D01*
X32577Y28923D01*
X32754Y29188D01*
X32816Y29500D01*
Y31624D01*
X32754Y31936D01*
X32734Y31966D01*
X32952Y32491D01*
X33095Y32548D01*
X33331Y32450D01*
X33669D01*
X33981Y32579D01*
X34221Y32818D01*
X34350Y33131D01*
Y33469D01*
X34221Y33781D01*
X33981Y34021D01*
X33669Y34150D01*
X33331D01*
X33095Y34052D01*
X32792Y34173D01*
X32595Y34304D01*
Y37364D01*
X32621Y37398D01*
X33095Y37657D01*
X33202Y37613D01*
X33540D01*
X33853Y37742D01*
X34092Y37982D01*
X34221Y38294D01*
Y38632D01*
X34092Y38945D01*
X33853Y39184D01*
X33540Y39313D01*
X33202D01*
X33095Y39269D01*
X33005Y39274D01*
X32580Y39449D01*
X32509Y39509D01*
X32421Y39721D01*
X30895Y41247D01*
Y49071D01*
X31313Y49440D01*
X31651D01*
X31963Y49569D01*
X32120Y49726D01*
X32372Y49752D01*
X32708Y49504D01*
X32724Y48974D01*
X32579Y48830D01*
X32450Y48517D01*
Y48179D01*
X32579Y47867D01*
X32818Y47628D01*
X33002Y47551D01*
X33148Y47160D01*
X33156Y46998D01*
X31579Y45421D01*
X31405Y45000D01*
Y43826D01*
X31579Y43405D01*
X32550Y42434D01*
Y42257D01*
X32679Y41945D01*
X32919Y41705D01*
X33231Y41576D01*
X33569D01*
X33882Y41705D01*
X34042Y41866D01*
X34451Y41874D01*
X34618Y41838D01*
X34772Y41683D01*
X34816Y41523D01*
X34809Y41100D01*
X34667Y40958D01*
X34538Y40646D01*
Y40308D01*
X34667Y39995D01*
X34906Y39756D01*
X35219Y39627D01*
X35557D01*
X35869Y39756D01*
X36108Y39995D01*
X36238Y40308D01*
Y40646D01*
X36108Y40958D01*
X35916Y41151D01*
X35871Y41311D01*
X35879Y41735D01*
X36021Y41876D01*
X36150Y42188D01*
Y42527D01*
X36021Y42839D01*
X35781Y43078D01*
X35734Y43098D01*
Y43639D01*
X35831Y43679D01*
X36071Y43918D01*
X36094Y43976D01*
X36636D01*
X36665Y43904D01*
X36905Y43665D01*
X37217Y43535D01*
X37555D01*
X37868Y43665D01*
X38107Y43904D01*
X38236Y44216D01*
Y44554D01*
X38107Y44867D01*
X37868Y45106D01*
X37555Y45235D01*
X37217D01*
X36905Y45106D01*
X36665Y44867D01*
X36642Y44809D01*
X36101D01*
X36071Y44881D01*
X35831Y45121D01*
X35519Y45250D01*
X35181D01*
X34868Y45121D01*
X34662Y44914D01*
X34436Y44890D01*
X34098Y44904D01*
X33904Y45098D01*
X33722Y45173D01*
X33576Y45567D01*
X33569Y45727D01*
X35221Y47379D01*
X35395Y47800D01*
Y56700D01*
X35221Y57121D01*
X34243Y58099D01*
Y58276D01*
X34113Y58588D01*
X33874Y58827D01*
X33562Y58957D01*
X33224D01*
X32911Y58827D01*
X32672Y58588D01*
X32145Y58622D01*
X32121Y58681D01*
X31881Y58921D01*
X31569Y59050D01*
X31231D01*
X30918Y58921D01*
X30679Y58681D01*
X30550Y58369D01*
Y58192D01*
X29657Y57299D01*
X29195Y57490D01*
Y59704D01*
X30173Y60682D01*
X30244Y60665D01*
X30635Y60437D01*
Y60231D01*
X30765Y59918D01*
X31004Y59679D01*
X31316Y59550D01*
X31654D01*
X31967Y59679D01*
X32206Y59918D01*
X32335Y60231D01*
Y60431D01*
X32518Y60690D01*
X32760Y60850D01*
X32969D01*
X33281Y60979D01*
X33521Y61219D01*
X33650Y61531D01*
Y61869D01*
X33521Y62182D01*
X33281Y62421D01*
X32969Y62550D01*
X32748D01*
X32536Y62891D01*
X32503Y63012D01*
X33575Y64084D01*
X52302D01*
X52579Y63669D01*
X52516Y63515D01*
Y62885D01*
X52757Y62303D01*
X53203Y61857D01*
X53785Y61616D01*
X54415D01*
X54997Y61857D01*
X55443Y62303D01*
X55596Y62671D01*
X56146Y62827D01*
X58489Y60484D01*
X58282Y59984D01*
X57985D01*
X57403Y59743D01*
X56957Y59297D01*
X56716Y58715D01*
Y58446D01*
X56715Y58085D01*
X56254Y57984D01*
X56085D01*
X55503Y57743D01*
X55057Y57297D01*
X54816Y56715D01*
Y56085D01*
X55057Y55503D01*
X55130Y55429D01*
X54847Y55005D01*
X54415Y55184D01*
X53785D01*
X53203Y54943D01*
X52757Y54497D01*
X52516Y53915D01*
Y53285D01*
X52757Y52703D01*
X53203Y52257D01*
X53785Y52016D01*
X54415D01*
X54997Y52257D01*
X55443Y52703D01*
X55684Y53285D01*
Y53915D01*
X55443Y54497D01*
X55370Y54571D01*
X55653Y54995D01*
X56085Y54816D01*
X56715D01*
X57297Y55057D01*
X57743Y55503D01*
X57984Y56085D01*
Y56354D01*
X57985Y56715D01*
X58446Y56816D01*
X58615D01*
X59197Y57057D01*
X59643Y57503D01*
X59884Y58085D01*
Y58382D01*
X60384Y58589D01*
X62184Y56789D01*
Y49400D01*
X62184Y49400D01*
X62246Y49088D01*
X62423Y48823D01*
X65150Y46097D01*
X65116Y46015D01*
Y45385D01*
X65357Y44803D01*
X65803Y44357D01*
X65805Y44345D01*
X65457Y43997D01*
X65216Y43415D01*
Y42785D01*
X65457Y42203D01*
X65583Y42077D01*
X65896Y41750D01*
X65583Y41423D01*
X65457Y41297D01*
X65216Y40715D01*
Y40085D01*
X65457Y39503D01*
X65810Y39150D01*
X65457Y38797D01*
X65273Y38353D01*
X64715Y38584D01*
X64085D01*
X63503Y38343D01*
X63057Y37897D01*
X62816Y37315D01*
Y36685D01*
X63057Y36103D01*
X63410Y35750D01*
X63057Y35397D01*
X62816Y34815D01*
Y34185D01*
X63057Y33603D01*
X63503Y33157D01*
X63661Y33091D01*
Y32550D01*
X63403Y32443D01*
X62957Y31997D01*
X62716Y31415D01*
Y30785D01*
X62957Y30203D01*
X63359Y29800D01*
X62957Y29397D01*
X62716Y28815D01*
Y28185D01*
X62957Y27603D01*
X63403Y27157D01*
X63985Y26916D01*
X64615D01*
X65197Y27157D01*
X65275Y27141D01*
X65457Y26703D01*
X65903Y26257D01*
X66471Y26021D01*
X66492Y25968D01*
X66558Y25516D01*
X66103Y25327D01*
X65657Y24882D01*
X65416Y24299D01*
Y23669D01*
X65657Y23087D01*
X66103Y22641D01*
X66073Y22112D01*
X65703Y21959D01*
X65257Y21513D01*
X65016Y20931D01*
Y20301D01*
X65257Y19718D01*
X65594Y19381D01*
X65257Y19045D01*
X65016Y18462D01*
Y17925D01*
X64990Y17808D01*
X64627Y17463D01*
X64285D01*
X63703Y17222D01*
X63516Y17035D01*
X63016Y17242D01*
Y25300D01*
X62954Y25612D01*
X62777Y25877D01*
X62777Y25877D01*
X61177Y27477D01*
X60912Y27654D01*
X60600Y27716D01*
X60600Y27716D01*
X59563D01*
X59356Y28216D01*
X59543Y28403D01*
X59784Y28985D01*
Y29615D01*
X59543Y30197D01*
X59097Y30643D01*
X58818Y30759D01*
Y31300D01*
X59197Y31457D01*
X59643Y31903D01*
X59884Y32485D01*
Y33115D01*
X59643Y33697D01*
X59197Y34143D01*
X58615Y34384D01*
X57985D01*
X57403Y34143D01*
X57000Y33740D01*
X56597Y34143D01*
X56015Y34384D01*
X55385D01*
X55116Y34273D01*
X54616Y34607D01*
Y36262D01*
X56503Y38150D01*
X56585Y38116D01*
X57215D01*
X57797Y38357D01*
X58243Y38803D01*
X58484Y39385D01*
Y40015D01*
X58401Y40216D01*
X58414Y40688D01*
X58653Y40814D01*
X58997Y40957D01*
X59443Y41403D01*
X59684Y41985D01*
Y42615D01*
X59443Y43197D01*
X59140Y43500D01*
X59543Y43903D01*
X59784Y44485D01*
Y45115D01*
X59543Y45697D01*
X59217Y46023D01*
X59113Y46229D01*
X59187Y46647D01*
X59443Y46903D01*
X59684Y47485D01*
Y48115D01*
X59443Y48697D01*
X59317Y48823D01*
X59004Y49150D01*
X59317Y49477D01*
X59443Y49603D01*
X59684Y50185D01*
Y50815D01*
X59443Y51397D01*
X59091Y51750D01*
X59443Y52103D01*
X59684Y52685D01*
Y53315D01*
X59443Y53897D01*
X58997Y54343D01*
X58415Y54584D01*
X57785D01*
X57203Y54343D01*
X56757Y53897D01*
X56516Y53315D01*
Y52685D01*
X56757Y52103D01*
X57109Y51750D01*
X56757Y51397D01*
X56516Y50815D01*
Y50185D01*
X56757Y49603D01*
X56883Y49477D01*
X57196Y49150D01*
X56883Y48823D01*
X56757Y48697D01*
X56516Y48115D01*
Y47485D01*
X56757Y46903D01*
X57083Y46577D01*
X57187Y46371D01*
X57113Y45953D01*
X56857Y45697D01*
X56616Y45115D01*
Y44485D01*
X56857Y43903D01*
X57160Y43600D01*
X56757Y43197D01*
X56516Y42615D01*
Y41985D01*
X56599Y41784D01*
X56586Y41312D01*
X56347Y41186D01*
X56003Y41043D01*
X55557Y40597D01*
X55316Y40015D01*
Y39385D01*
X55350Y39303D01*
X53223Y37177D01*
X53046Y36912D01*
X52984Y36600D01*
X52984Y36600D01*
Y29300D01*
X52984Y29300D01*
X53046Y28988D01*
X53223Y28723D01*
X56523Y25423D01*
X56523Y25423D01*
X56788Y25246D01*
X57100Y25184D01*
X59889D01*
X60448Y24626D01*
Y12636D01*
X60448Y12636D01*
X60510Y12324D01*
X60687Y12060D01*
X64323Y8423D01*
X64323Y8423D01*
X64405Y8368D01*
X66250Y6523D01*
X66250Y6523D01*
X66515Y6346D01*
X66827Y6284D01*
X66827Y6284D01*
X74762D01*
X75284Y5762D01*
Y3977D01*
X75203Y3943D01*
X74757Y3497D01*
X74516Y2915D01*
Y2285D01*
X74757Y1703D01*
X75203Y1257D01*
X75785Y1016D01*
X76415D01*
X76997Y1257D01*
X77282Y1542D01*
X77600Y1649D01*
X77918Y1542D01*
X78203Y1257D01*
X78785Y1016D01*
X79415D01*
X79997Y1257D01*
X80443Y1703D01*
X80684Y2285D01*
Y2915D01*
X80443Y3497D01*
X79997Y3943D01*
X79916Y3977D01*
Y4700D01*
X79854Y5012D01*
X79677Y5277D01*
X79677Y5277D01*
X76377Y8577D01*
X76112Y8754D01*
X75800Y8816D01*
X75800Y8816D01*
X67538D01*
X65000Y11354D01*
X65148Y11912D01*
X65497Y12057D01*
X65943Y12503D01*
X66184Y13085D01*
Y13715D01*
X65943Y14297D01*
X65601Y14639D01*
X65943Y14981D01*
X66184Y15564D01*
Y16101D01*
X66210Y16218D01*
X66573Y16563D01*
X66915D01*
X67497Y16804D01*
X67943Y17250D01*
X68184Y17832D01*
Y18462D01*
X67943Y19045D01*
X67606Y19381D01*
X67943Y19718D01*
X68184Y20301D01*
Y20931D01*
X67943Y21513D01*
X67497Y21959D01*
X67527Y22488D01*
X67897Y22641D01*
X68343Y23087D01*
X68584Y23669D01*
Y24299D01*
X68343Y24882D01*
X67897Y25327D01*
X67329Y25563D01*
X67308Y25616D01*
X67242Y26068D01*
X67697Y26257D01*
X68143Y26703D01*
X68384Y27285D01*
Y27915D01*
X68143Y28497D01*
X67697Y28943D01*
X67115Y29184D01*
X66485D01*
X65903Y28943D01*
X65825Y28958D01*
X65643Y29397D01*
X65241Y29800D01*
X65643Y30203D01*
X65884Y30785D01*
Y31415D01*
X65643Y31997D01*
X65197Y32443D01*
X65039Y32509D01*
Y33050D01*
X65297Y33157D01*
X65743Y33603D01*
X65984Y34185D01*
Y34815D01*
X65743Y35397D01*
X65390Y35750D01*
X65743Y36103D01*
X65927Y36547D01*
X66485Y36316D01*
X67115D01*
X67697Y36557D01*
X68143Y37003D01*
X68384Y37585D01*
Y38215D01*
X68143Y38797D01*
X67791Y39150D01*
X68143Y39503D01*
X68384Y40085D01*
Y40715D01*
X68143Y41297D01*
X68017Y41423D01*
X67704Y41750D01*
X68017Y42077D01*
X68143Y42203D01*
X68384Y42785D01*
Y43415D01*
X68350Y43497D01*
X69177Y44323D01*
X69177Y44323D01*
X69354Y44588D01*
X69416Y44900D01*
Y46600D01*
X69354Y46912D01*
X69177Y47177D01*
X69177Y47177D01*
X64816Y51538D01*
Y54203D01*
X65316Y54302D01*
X65357Y54203D01*
X65803Y53757D01*
X66385Y53516D01*
X67015D01*
X67597Y53757D01*
X68043Y54203D01*
X68284Y54785D01*
Y55415D01*
X68043Y55997D01*
X67925Y56116D01*
X67613Y56457D01*
X68059Y56903D01*
X68300Y57485D01*
Y58115D01*
X68059Y58697D01*
X67613Y59143D01*
X67031Y59384D01*
X66401D01*
X66191Y59298D01*
X65818Y59684D01*
X65984Y60085D01*
Y60715D01*
X65743Y61297D01*
X65567Y61473D01*
X65338Y61800D01*
X65567Y62127D01*
X65743Y62303D01*
X65984Y62885D01*
Y63515D01*
X65743Y64097D01*
X65297Y64543D01*
X64715Y64784D01*
X64085D01*
X63503Y64543D01*
X63057Y64097D01*
X62816Y63515D01*
Y62885D01*
X63057Y62303D01*
X63233Y62127D01*
X63463Y61800D01*
X63233Y61473D01*
X63057Y61297D01*
X62816Y60715D01*
Y60445D01*
X62316Y60238D01*
X55977Y66577D01*
X55712Y66754D01*
X55400Y66816D01*
X55400Y66816D01*
X33065D01*
X33065Y66816D01*
X32752Y66754D01*
X32488Y66577D01*
X32488Y66577D01*
X29088Y63177D01*
X28911Y62912D01*
X28855Y62633D01*
X27103Y60881D01*
X26523Y60981D01*
X26509Y60993D01*
X26281Y61221D01*
X25969Y61350D01*
X25631D01*
X25319Y61221D01*
X25079Y60982D01*
X24950Y60669D01*
Y60331D01*
X25079Y60018D01*
X25319Y59779D01*
X25403Y59293D01*
X25056Y58906D01*
X24007D01*
X23881Y59032D01*
X23569Y59161D01*
X23231D01*
X22919Y59032D01*
X22679Y58793D01*
X22550Y58480D01*
Y58142D01*
X22679Y57829D01*
X22919Y57590D01*
X23003Y57555D01*
X23019Y57021D01*
X22779Y56782D01*
X22650Y56469D01*
Y56131D01*
X22779Y55818D01*
X23019Y55579D01*
X23331Y55450D01*
X23669D01*
X23981Y55579D01*
X24221Y55818D01*
X24350Y56131D01*
Y56469D01*
X24221Y56782D01*
X23981Y57021D01*
X24124Y57503D01*
X24332Y57716D01*
X25376D01*
X25797Y57890D01*
X26074Y58167D01*
X26574Y57995D01*
X26703Y57682D01*
X26943Y57443D01*
X27255Y57314D01*
X27593D01*
X28005Y56943D01*
Y51722D01*
X27358Y51075D01*
X27181D01*
X26869Y50946D01*
X26748Y50826D01*
X26355Y50793D01*
X26151Y50857D01*
X25986Y51021D01*
X25674Y51151D01*
X25336D01*
X25023Y51021D01*
X24784Y50782D01*
X24655Y50470D01*
Y50132D01*
X24784Y49819D01*
X25023Y49580D01*
X25336Y49451D01*
X25674D01*
X25986Y49580D01*
X26106Y49700D01*
X26500Y49733D01*
X26704Y49669D01*
X26869Y49505D01*
X27181Y49375D01*
X27519D01*
X27832Y49505D01*
X28071Y49744D01*
X28200Y50056D01*
Y50065D01*
X28405Y50223D01*
X28905Y49977D01*
Y40500D01*
X29079Y40079D01*
X30349Y38809D01*
Y37583D01*
X30245Y37479D01*
X29849Y37291D01*
X29682Y37360D01*
X29344D01*
X29032Y37231D01*
X28792Y36992D01*
X28722Y36821D01*
X28594Y36806D01*
X28201Y36871D01*
X28116Y37076D01*
X27877Y37315D01*
X27565Y37444D01*
X27226D01*
X26914Y37315D01*
X26734Y37135D01*
X26543Y37083D01*
X26145Y37104D01*
X26008Y37242D01*
X25997Y37758D01*
X26236Y37997D01*
X26366Y38310D01*
Y38648D01*
X26236Y38960D01*
X25997Y39199D01*
X25685Y39329D01*
X25347D01*
X25034Y39199D01*
X24795Y38960D01*
X24666Y38648D01*
Y38310D01*
X24795Y37997D01*
X25034Y37758D01*
X25045Y37242D01*
X24806Y37003D01*
X24677Y36690D01*
Y36352D01*
X24806Y36040D01*
X25045Y35801D01*
X25358Y35671D01*
X25696D01*
X26008Y35801D01*
X26188Y35981D01*
X26379Y36033D01*
X26777Y36011D01*
X26914Y35874D01*
Y35347D01*
X26711Y35143D01*
X26675Y35107D01*
X26281Y34921D01*
X25969Y35050D01*
X25631D01*
X25319Y34921D01*
X25079Y34681D01*
X24950Y34369D01*
Y34031D01*
X25079Y33718D01*
X25319Y33479D01*
X25631Y33350D01*
X25969D01*
X26281Y33479D01*
X26485Y33683D01*
X26521Y33718D01*
X26914Y33905D01*
X27226Y33776D01*
X27565D01*
X27877Y33905D01*
X28116Y34144D01*
X28245Y34457D01*
Y34795D01*
X28116Y35107D01*
X27877Y35347D01*
Y35874D01*
X28116Y36113D01*
X28187Y36284D01*
X28315Y36299D01*
X28707Y36234D01*
X28792Y36029D01*
X29032Y35790D01*
X29344Y35660D01*
X29682D01*
X29849Y35730D01*
X30245Y35541D01*
X30349Y35437D01*
Y32649D01*
X30191Y32412D01*
X30129Y32100D01*
Y31383D01*
X26523Y27777D01*
X26346Y27512D01*
X26284Y27200D01*
X26284Y27200D01*
Y21211D01*
X25995Y20978D01*
X25443Y21097D01*
X24997Y21543D01*
X24415Y21784D01*
X23785D01*
X23203Y21543D01*
X22757Y21097D01*
X22516Y20515D01*
Y20318D01*
X22016Y19984D01*
X22015Y19984D01*
X21385D01*
X20803Y19743D01*
X20408Y19349D01*
X20132Y19626D01*
X19549Y19867D01*
X18919D01*
X18337Y19626D01*
X17891Y19180D01*
X17683Y18677D01*
X17188Y18465D01*
X15616Y20038D01*
Y30262D01*
X16877Y31523D01*
X17054Y31788D01*
X17116Y32100D01*
X17054Y32412D01*
X16895Y32649D01*
Y40767D01*
X17634Y41506D01*
X17811D01*
X18123Y41635D01*
X18362Y41874D01*
X18372Y41899D01*
X18905Y41919D01*
X19144Y41679D01*
X19457Y41550D01*
X19795D01*
X20108Y41679D01*
X20347Y41919D01*
X20493Y41926D01*
X20884Y41909D01*
X21086Y41706D01*
X21399Y41577D01*
X21737D01*
X22049Y41706D01*
X22288Y41945D01*
X22418Y42258D01*
Y42596D01*
X22288Y42908D01*
X22049Y43147D01*
X21737Y43277D01*
X21399D01*
X21086Y43147D01*
X20847Y42908D01*
X20701Y42900D01*
X20310Y42918D01*
X20108Y43121D01*
X19795Y43250D01*
X19457D01*
X19144Y43121D01*
X18905Y42882D01*
X18895Y42857D01*
X18362Y42837D01*
X18123Y43076D01*
X17811Y43205D01*
X17473D01*
X17160Y43076D01*
X16921Y42837D01*
X16792Y42525D01*
Y42453D01*
X16450Y42150D01*
X15972Y42289D01*
X15892Y42481D01*
X15653Y42721D01*
X15341Y42850D01*
X15003D01*
X14690Y42721D01*
X14451Y42481D01*
X14322Y42169D01*
X13849Y42236D01*
Y56350D01*
X14069D01*
X14381Y56479D01*
X14621Y56718D01*
X14750Y57031D01*
Y57369D01*
X14621Y57682D01*
X14534Y57768D01*
X14435Y58087D01*
X14536Y58398D01*
X14625Y58486D01*
X14754Y58799D01*
Y59048D01*
X14827Y59078D01*
X14878Y59130D01*
X14925Y59149D01*
X14925Y59149D01*
X14925Y59149D01*
X14965Y59189D01*
X15037Y59219D01*
X20937Y65119D01*
X26469Y70651D01*
X80931D01*
X88349Y63232D01*
X88469Y63183D01*
X88560Y63091D01*
X88781Y63000D01*
X88910D01*
X89029Y62951D01*
X90631D01*
X91441Y62141D01*
X91441Y62141D01*
X92251Y61331D01*
X92251Y61331D01*
Y58629D01*
X92300Y58510D01*
Y58381D01*
X92391Y58160D01*
X92483Y58069D01*
X92532Y57949D01*
X92541Y57941D01*
X92541Y57941D01*
X92549Y57932D01*
X92669Y57883D01*
X92760Y57791D01*
X92981Y57700D01*
X93110D01*
X93229Y57651D01*
X97971D01*
X98090Y57700D01*
X98219D01*
X98440Y57791D01*
X98531Y57883D01*
X98651Y57932D01*
X98768Y58049D01*
X98817Y58169D01*
X98909Y58260D01*
X99000Y58481D01*
Y58610D01*
X99049Y58729D01*
Y61331D01*
X99904Y62186D01*
X99904Y62186D01*
X100668Y62949D01*
X100717Y63069D01*
X100809Y63160D01*
X100900Y63381D01*
Y63510D01*
X100949Y63629D01*
Y70171D01*
X100900Y70290D01*
Y70419D01*
X100809Y70640D01*
X100717Y70731D01*
X100668Y70851D01*
X100451Y71068D01*
X100331Y71117D01*
X100240Y71209D01*
X100019Y71300D01*
X99890D01*
X99771Y71349D01*
X93369D01*
X93188Y71531D01*
X93188Y71531D01*
X89503Y75216D01*
X89520Y75379D01*
X89682Y75744D01*
X90197Y75957D01*
X90323Y76083D01*
X90650Y76396D01*
X90977Y76083D01*
X91103Y75957D01*
X91685Y75716D01*
X92315D01*
X92897Y75957D01*
X93343Y76403D01*
X93584Y76985D01*
Y77615D01*
X93343Y78197D01*
X93303Y78237D01*
X93510Y78737D01*
X110273D01*
X110273Y78737D01*
X110273Y78737D01*
X111049Y78738D01*
X112570Y78436D01*
D02*
G37*
G36*
X18197Y78237D02*
X17957Y77997D01*
X17716Y77415D01*
Y76785D01*
X17799Y76583D01*
X17416Y76201D01*
X17215Y76284D01*
X16585D01*
X16003Y76043D01*
X15557Y75597D01*
X15316Y75015D01*
Y74385D01*
X15557Y73803D01*
X16003Y73357D01*
X16376Y73202D01*
X16535Y72654D01*
X13007Y69126D01*
X12964Y69152D01*
X12608Y69495D01*
X12774Y70332D01*
X12764Y70386D01*
X12785Y70438D01*
Y71291D01*
X12764Y71342D01*
X12774Y71396D01*
X12608Y72233D01*
X12577Y72279D01*
Y72335D01*
X12251Y73123D01*
X12212Y73162D01*
X12201Y73216D01*
X11727Y73926D01*
X11681Y73956D01*
X11659Y74008D01*
X11056Y74611D01*
X11005Y74632D01*
X10974Y74678D01*
X10265Y75152D01*
X10210Y75163D01*
X10171Y75202D01*
X9383Y75529D01*
X9328D01*
X9282Y75559D01*
X8445Y75726D01*
X8391Y75715D01*
X8339Y75736D01*
X7486D01*
X7435Y75715D01*
X7381Y75726D01*
X6544Y75559D01*
X6498Y75529D01*
X6442D01*
X5654Y75202D01*
X5615Y75163D01*
X5561Y75152D01*
X4851Y74678D01*
X4821Y74632D01*
X4769Y74611D01*
X4166Y74008D01*
X4145Y73956D01*
X4099Y73926D01*
X3625Y73216D01*
X3614Y73162D01*
X3575Y73123D01*
X3249Y72335D01*
Y72279D01*
X3218Y72233D01*
X3051Y71396D01*
X3062Y71342D01*
X3041Y71291D01*
Y70438D01*
X3062Y70386D01*
X3051Y70332D01*
X3218Y69495D01*
X3249Y69449D01*
Y69394D01*
X3575Y68606D01*
X3614Y68567D01*
X3625Y68512D01*
X4099Y67803D01*
X4145Y67772D01*
X4166Y67721D01*
X4769Y67118D01*
X4821Y67096D01*
X4851Y67050D01*
X5561Y66576D01*
X5615Y66566D01*
X5654Y66526D01*
X6442Y66200D01*
X6498D01*
X6544Y66169D01*
X7381Y66003D01*
X7435Y66013D01*
X7486Y65992D01*
X8339D01*
X8391Y66013D01*
X8445Y66003D01*
X9282Y66169D01*
X9625Y65813D01*
X9651Y65770D01*
X537Y56655D01*
X362Y56674D01*
X37Y56809D01*
Y70863D01*
X37Y71639D01*
X340Y73160D01*
X934Y74592D01*
X1796Y75882D01*
X2892Y76978D01*
X4182Y77840D01*
X5615Y78434D01*
X7136Y78737D01*
X7911Y78737D01*
X17990D01*
X18197Y78237D01*
D02*
G37*
G36*
X85100Y78700D02*
X89005Y74795D01*
Y74795D01*
X92728Y71072D01*
X93100Y70700D01*
X99771D01*
X99991Y70609D01*
X100209Y70391D01*
X100300Y70171D01*
Y63629D01*
X100209Y63409D01*
X99445Y62645D01*
X98400Y61600D01*
Y61331D01*
Y58729D01*
X98309Y58509D01*
X98191Y58391D01*
X97971Y58300D01*
X93229D01*
X93009Y58391D01*
X93000Y58400D01*
X92991Y58409D01*
X92900Y58629D01*
Y61331D01*
Y61600D01*
X92710Y61790D01*
X92710Y61790D01*
X91900Y62600D01*
X90900Y63600D01*
X89029D01*
X88809Y63691D01*
X81200Y71300D01*
X26200D01*
X26010Y71110D01*
X26010Y71110D01*
X20478Y65578D01*
X14578Y59678D01*
X14505Y59648D01*
X14466Y59608D01*
X14385Y59688D01*
X14073Y59818D01*
X13735D01*
X13422Y59688D01*
X13183Y59449D01*
X13054Y59137D01*
Y58799D01*
X13183Y58486D01*
X13285Y58385D01*
X13200Y58300D01*
Y57702D01*
X13179Y57682D01*
X13050Y57369D01*
Y57031D01*
X13179Y56718D01*
X13200Y56698D01*
Y56350D01*
Y42236D01*
Y32100D01*
X14000Y31300D01*
Y30679D01*
X13984Y30600D01*
X13984Y30600D01*
Y19700D01*
X13984Y19700D01*
X14000Y19621D01*
Y19500D01*
X14030Y19470D01*
X14046Y19388D01*
X14223Y19123D01*
X17523Y15823D01*
X17788Y15646D01*
X17870Y15630D01*
X26144Y7356D01*
X26840Y6660D01*
D01*
X27300Y6200D01*
Y5700D01*
D01*
X18229D01*
X18009Y5791D01*
X13280Y10520D01*
X2934Y20866D01*
X2934Y20866D01*
X2842Y20958D01*
X2792Y21078D01*
X2792Y21078D01*
X2743Y21197D01*
X2297Y21643D01*
X2178Y21692D01*
X2178Y21692D01*
X2058Y21742D01*
X2058D01*
X1966Y21834D01*
X1966Y21834D01*
X958Y22842D01*
X100Y23700D01*
Y55300D01*
X958Y56158D01*
X958Y56158D01*
X10111Y65311D01*
X23500Y78700D01*
X85100Y78700D01*
D02*
G37*
G36*
X23815Y58592D02*
X23830Y58575D01*
X23846Y58560D01*
X23861Y58547D01*
X23877Y58536D01*
X23893Y58527D01*
X23909Y58520D01*
X23925Y58515D01*
X23942Y58512D01*
X23958Y58511D01*
Y58111D01*
X23942Y58110D01*
X23925Y58107D01*
X23909Y58102D01*
X23893Y58095D01*
X23877Y58086D01*
X23861Y58075D01*
X23846Y58062D01*
X23830Y58047D01*
X23815Y58030D01*
X23800Y58011D01*
Y58611D01*
X23815Y58592D01*
D02*
G37*
G36*
X31329Y57705D02*
X31305Y57708D01*
X31282Y57709D01*
X31261Y57709D01*
X31241Y57707D01*
X31222Y57704D01*
X31204Y57699D01*
X31188Y57692D01*
X31173Y57684D01*
X31159Y57675D01*
X31147Y57664D01*
X30864Y57947D01*
X30875Y57959D01*
X30884Y57973D01*
X30892Y57988D01*
X30899Y58004D01*
X30904Y58022D01*
X30907Y58041D01*
X30909Y58061D01*
X30909Y58082D01*
X30908Y58105D01*
X30905Y58129D01*
X31329Y57705D01*
D02*
G37*
G36*
X33885Y58012D02*
X33884Y57989D01*
X33884Y57968D01*
X33886Y57947D01*
X33889Y57929D01*
X33894Y57911D01*
X33901Y57895D01*
X33909Y57880D01*
X33918Y57866D01*
X33929Y57853D01*
X33646Y57571D01*
X33634Y57582D01*
X33620Y57591D01*
X33605Y57599D01*
X33589Y57605D01*
X33571Y57610D01*
X33552Y57614D01*
X33532Y57616D01*
X33510Y57616D01*
X33488Y57615D01*
X33463Y57612D01*
X33888Y58036D01*
X33885Y58012D01*
D02*
G37*
G36*
X31329Y53753D02*
X31305Y53756D01*
X31282Y53757D01*
X31261Y53757D01*
X31241Y53755D01*
X31222Y53752D01*
X31204Y53747D01*
X31188Y53740D01*
X31173Y53732D01*
X31159Y53723D01*
X31147Y53712D01*
X30864Y53995D01*
X30875Y54007D01*
X30884Y54021D01*
X30892Y54036D01*
X30899Y54052D01*
X30904Y54070D01*
X30907Y54089D01*
X30909Y54109D01*
X30909Y54130D01*
X30908Y54153D01*
X30905Y54177D01*
X31329Y53753D01*
D02*
G37*
G36*
X27886Y50479D02*
X27875Y50466D01*
X27866Y50452D01*
X27858Y50437D01*
X27851Y50421D01*
X27847Y50403D01*
X27843Y50385D01*
X27841Y50364D01*
X27841Y50343D01*
X27842Y50320D01*
X27845Y50296D01*
X27421Y50720D01*
X27445Y50718D01*
X27468Y50716D01*
X27489Y50717D01*
X27509Y50718D01*
X27528Y50722D01*
X27546Y50727D01*
X27562Y50733D01*
X27577Y50741D01*
X27591Y50750D01*
X27603Y50761D01*
X27886Y50479D01*
D02*
G37*
G36*
X65726Y45839D02*
X65738Y45932D01*
X65763Y46266D01*
X65761Y46307D01*
X65756Y46339D01*
X65748Y46364D01*
X65738Y46379D01*
X66021Y46662D01*
X66036Y46652D01*
X66061Y46644D01*
X66093Y46639D01*
X66134Y46637D01*
X66184Y46637D01*
X66309Y46644D01*
X66561Y46674D01*
X65726Y45839D01*
D02*
G37*
G36*
X67032Y44062D02*
X67366Y44037D01*
X67407Y44039D01*
X67440Y44044D01*
X67464Y44052D01*
X67479Y44062D01*
X67762Y43779D01*
X67752Y43764D01*
X67744Y43740D01*
X67739Y43707D01*
X67737Y43666D01*
X67737Y43616D01*
X67744Y43491D01*
X67774Y43239D01*
X66939Y44074D01*
X67032Y44062D01*
D02*
G37*
G36*
X33159Y42951D02*
X33173Y42942D01*
X33188Y42934D01*
X33204Y42927D01*
X33222Y42922D01*
X33241Y42919D01*
X33261Y42917D01*
X33282Y42917D01*
X33305Y42918D01*
X33329Y42921D01*
X32905Y42497D01*
X32908Y42521D01*
X32909Y42544D01*
X32909Y42565D01*
X32907Y42585D01*
X32904Y42604D01*
X32899Y42622D01*
X32892Y42638D01*
X32884Y42653D01*
X32875Y42667D01*
X32864Y42679D01*
X33147Y42962D01*
X33159Y42951D01*
D02*
G37*
G36*
X17571Y41860D02*
X17547Y41863D01*
X17524Y41864D01*
X17503Y41864D01*
X17482Y41862D01*
X17463Y41859D01*
X17446Y41854D01*
X17430Y41848D01*
X17414Y41840D01*
X17401Y41830D01*
X17388Y41819D01*
X17106Y42102D01*
X17117Y42115D01*
X17126Y42128D01*
X17134Y42143D01*
X17140Y42160D01*
X17145Y42177D01*
X17149Y42196D01*
X17151Y42216D01*
X17151Y42238D01*
X17150Y42261D01*
X17147Y42285D01*
X17571Y41860D01*
D02*
G37*
G36*
X56761Y38726D02*
X56668Y38738D01*
X56334Y38763D01*
X56293Y38761D01*
X56261Y38756D01*
X56236Y38748D01*
X56221Y38738D01*
X55938Y39021D01*
X55948Y39036D01*
X55956Y39061D01*
X55961Y39093D01*
X55963Y39134D01*
X55963Y39184D01*
X55956Y39309D01*
X55926Y39561D01*
X56761Y38726D01*
D02*
G37*
G36*
X56216Y31956D02*
X55963Y31738D01*
X55935Y31707D01*
X55916Y31680D01*
X55904Y31658D01*
X55900Y31639D01*
X55500D01*
X55496Y31658D01*
X55484Y31680D01*
X55465Y31707D01*
X55437Y31738D01*
X55402Y31773D01*
X55309Y31856D01*
X55110Y32013D01*
X56291D01*
X56216Y31956D01*
D02*
G37*
G36*
X33061Y23526D02*
X32968Y23538D01*
X32634Y23563D01*
X32593Y23561D01*
X32561Y23556D01*
X32536Y23548D01*
X32521Y23538D01*
X32238Y23821D01*
X32248Y23836D01*
X32256Y23860D01*
X32261Y23893D01*
X32263Y23934D01*
X32263Y23984D01*
X32256Y24109D01*
X32226Y24361D01*
X33061Y23526D01*
D02*
G37*
G36*
X41854Y20784D02*
X41822Y20754D01*
X41793Y20725D01*
X41769Y20695D01*
X41748Y20664D01*
X41730Y20633D01*
X41717Y20601D01*
X41708Y20569D01*
X41702Y20537D01*
X41700Y20504D01*
X40900D01*
X40898Y20537D01*
X40892Y20569D01*
X40883Y20601D01*
X40870Y20633D01*
X40852Y20664D01*
X40831Y20695D01*
X40807Y20725D01*
X40778Y20754D01*
X40746Y20784D01*
X40709Y20813D01*
X41891D01*
X41854Y20784D01*
D02*
G37*
G36*
X27304Y20642D02*
X27316Y20620D01*
X27335Y20593D01*
X27362Y20562D01*
X27398Y20527D01*
X27491Y20444D01*
X27691Y20287D01*
X26509D01*
X26584Y20344D01*
X26838Y20562D01*
X26865Y20593D01*
X26884Y20620D01*
X26896Y20642D01*
X26900Y20661D01*
X27300D01*
X27304Y20642D01*
D02*
G37*
G36*
X29804Y20557D02*
X29816Y20535D01*
X29837Y20509D01*
X29865Y20481D01*
X29902Y20449D01*
X30000Y20376D01*
X30130Y20291D01*
X30207Y20243D01*
X29032Y20123D01*
X29102Y20188D01*
X29367Y20467D01*
X29385Y20495D01*
X29396Y20517D01*
X29400Y20534D01*
X29800Y20576D01*
X29804Y20557D01*
D02*
G37*
G36*
X30516Y6654D02*
X30545Y6622D01*
X30575Y6593D01*
X30605Y6569D01*
X30636Y6548D01*
X30667Y6531D01*
X30699Y6517D01*
X30731Y6508D01*
X30763Y6502D01*
X30796Y6500D01*
Y5700D01*
X30763Y5698D01*
X30731Y5692D01*
X30699Y5683D01*
X30667Y5669D01*
X30636Y5652D01*
X30605Y5631D01*
X30575Y5607D01*
X30545Y5578D01*
X30516Y5546D01*
X30487Y5509D01*
Y6691D01*
X30516Y6654D01*
D02*
G37*
G36*
X28913Y5509D02*
X28884Y5546D01*
X28855Y5578D01*
X28825Y5607D01*
X28795Y5631D01*
X28764Y5652D01*
X28733Y5669D01*
X28701Y5683D01*
X28669Y5692D01*
X28637Y5698D01*
X28604Y5700D01*
Y6500D01*
X28637Y6502D01*
X28669Y6508D01*
X28701Y6517D01*
X28733Y6531D01*
X28764Y6548D01*
X28795Y6569D01*
X28825Y6593D01*
X28855Y6622D01*
X28884Y6654D01*
X28913Y6691D01*
Y5509D01*
D02*
G37*
G36*
X79304Y3742D02*
X79316Y3720D01*
X79335Y3693D01*
X79362Y3662D01*
X79398Y3627D01*
X79491Y3544D01*
X79690Y3387D01*
X78509D01*
X78584Y3444D01*
X78838Y3662D01*
X78865Y3693D01*
X78884Y3720D01*
X78896Y3742D01*
X78900Y3761D01*
X79300D01*
X79304Y3742D01*
D02*
G37*
G36*
X76304D02*
X76316Y3720D01*
X76335Y3693D01*
X76363Y3662D01*
X76398Y3627D01*
X76491Y3544D01*
X76691Y3387D01*
X75510D01*
X75584Y3444D01*
X75837Y3662D01*
X75865Y3693D01*
X75884Y3720D01*
X75896Y3742D01*
X75900Y3761D01*
X76300D01*
X76304Y3742D01*
D02*
G37*
%LPC*%
G36*
X110702Y75736D02*
X109848D01*
X109797Y75715D01*
X109743Y75726D01*
X108906Y75559D01*
X108860Y75529D01*
X108805D01*
X108017Y75202D01*
X107977Y75163D01*
X107923Y75152D01*
X107214Y74678D01*
X107183Y74632D01*
X107132Y74611D01*
X106528Y74008D01*
X106507Y73956D01*
X106461Y73926D01*
X105987Y73216D01*
X105976Y73162D01*
X105937Y73123D01*
X105611Y72335D01*
Y72279D01*
X105580Y72233D01*
X105414Y71396D01*
X105424Y71342D01*
X105403Y71291D01*
Y70438D01*
X105424Y70386D01*
X105414Y70332D01*
X105580Y69495D01*
X105611Y69449D01*
Y69394D01*
X105937Y68606D01*
X105976Y68567D01*
X105987Y68512D01*
X106461Y67803D01*
X106507Y67772D01*
X106528Y67721D01*
X107132Y67118D01*
X107183Y67096D01*
X107214Y67050D01*
X107923Y66576D01*
X107977Y66566D01*
X108017Y66526D01*
X108805Y66200D01*
X108860D01*
X108906Y66169D01*
X109743Y66003D01*
X109797Y66013D01*
X109848Y65992D01*
X110702D01*
X110753Y66013D01*
X110807Y66003D01*
X111644Y66169D01*
X111690Y66200D01*
X111745D01*
X112533Y66526D01*
X112573Y66566D01*
X112627Y66576D01*
X113336Y67050D01*
X113367Y67097D01*
X113418Y67118D01*
X114022Y67721D01*
X114043Y67772D01*
X114089Y67803D01*
X114563Y68512D01*
X114574Y68567D01*
X114613Y68606D01*
X114939Y69394D01*
Y69449D01*
X114970Y69495D01*
X115137Y70332D01*
X115126Y70386D01*
X115147Y70438D01*
Y71291D01*
X115126Y71342D01*
X115137Y71396D01*
X114970Y72233D01*
X114939Y72279D01*
Y72335D01*
X114613Y73123D01*
X114574Y73162D01*
X114563Y73216D01*
X114089Y73926D01*
X114043Y73956D01*
X114022Y74008D01*
X113418Y74611D01*
X113367Y74632D01*
X113336Y74678D01*
X112627Y75152D01*
X112573Y75163D01*
X112533Y75202D01*
X111745Y75529D01*
X111690D01*
X111644Y75559D01*
X110807Y75726D01*
X110753Y75715D01*
X110702Y75736D01*
D02*
G37*
G36*
X103115Y63084D02*
X102485D01*
X101903Y62843D01*
X101457Y62397D01*
X101216Y61815D01*
Y61185D01*
X101457Y60603D01*
X101903Y60157D01*
X102485Y59916D01*
X103115D01*
X103697Y60157D01*
X104143Y60603D01*
X104384Y61185D01*
Y61815D01*
X104143Y62397D01*
X103697Y62843D01*
X103115Y63084D01*
D02*
G37*
G36*
X83915Y65184D02*
X83285D01*
X82703Y64943D01*
X82257Y64497D01*
X82016Y63915D01*
Y63285D01*
X82257Y62703D01*
X82556Y62404D01*
X82857Y61997D01*
X82616Y61415D01*
Y60785D01*
X82857Y60203D01*
X83303Y59757D01*
X83885Y59516D01*
X84515D01*
X85097Y59757D01*
X85543Y60203D01*
X85784Y60785D01*
Y61415D01*
X85543Y61997D01*
X85244Y62296D01*
X84943Y62703D01*
X85184Y63285D01*
Y63915D01*
X84943Y64497D01*
X84497Y64943D01*
X83915Y65184D01*
D02*
G37*
G36*
X45715Y61584D02*
X45085D01*
X44503Y61343D01*
X44057Y60897D01*
X43816Y60315D01*
Y59685D01*
X44057Y59103D01*
X44503Y58657D01*
X45085Y58416D01*
X45715D01*
X46297Y58657D01*
X46743Y59103D01*
X46984Y59685D01*
Y60315D01*
X46743Y60897D01*
X46297Y61343D01*
X45715Y61584D01*
D02*
G37*
G36*
X37469Y59040D02*
X37131D01*
X36819Y58911D01*
X36579Y58672D01*
X36450Y58360D01*
Y58021D01*
X36579Y57709D01*
X36819Y57470D01*
X36920Y57428D01*
Y56887D01*
X36845Y56856D01*
X36606Y56616D01*
X36477Y56304D01*
Y55966D01*
X36606Y55654D01*
X36766Y55494D01*
X36800Y55160D01*
X36755Y54911D01*
X36579Y54735D01*
X36450Y54423D01*
Y54084D01*
X36579Y53772D01*
X36819Y53533D01*
X37131Y53404D01*
X37469D01*
X37782Y53533D01*
X38021Y53772D01*
X38150Y54084D01*
Y54423D01*
X38021Y54735D01*
X37861Y54895D01*
X37827Y55228D01*
X37872Y55478D01*
X38010Y55616D01*
X38258Y55641D01*
X38576Y55622D01*
X38769Y55429D01*
X39081Y55300D01*
X39419D01*
X39731Y55429D01*
X39971Y55668D01*
X40100Y55981D01*
Y56319D01*
X39971Y56631D01*
X39731Y56871D01*
X39419Y57000D01*
X39081D01*
X38769Y56871D01*
X38567Y56669D01*
X38319Y56644D01*
X38001Y56663D01*
X37808Y56856D01*
X37707Y56898D01*
Y57439D01*
X37782Y57470D01*
X38021Y57709D01*
X38150Y58021D01*
Y58360D01*
X38021Y58672D01*
X37782Y58911D01*
X37469Y59040D01*
D02*
G37*
G36*
X77708Y60250D02*
X77078D01*
X76495Y60009D01*
X76050Y59564D01*
X75809Y58981D01*
Y58351D01*
X76050Y57769D01*
X76439Y57380D01*
X76157Y57097D01*
X75916Y56515D01*
Y55885D01*
X76157Y55303D01*
X76489Y54971D01*
X76206Y54547D01*
X76115Y54584D01*
X75485D01*
X74903Y54343D01*
X74457Y53897D01*
X74300Y53518D01*
X74128Y53306D01*
X73716Y53260D01*
X73415Y53384D01*
X72785D01*
X72203Y53143D01*
X71757Y52697D01*
X71516Y52115D01*
Y51485D01*
X71757Y50903D01*
X72159Y50500D01*
X71757Y50097D01*
X71516Y49515D01*
Y48885D01*
X71757Y48303D01*
X72203Y47857D01*
X72785Y47616D01*
X73415D01*
X73997Y47857D01*
X74443Y48303D01*
X74684Y48885D01*
Y49515D01*
X74443Y50097D01*
X74041Y50500D01*
X74443Y50903D01*
X74600Y51282D01*
X74772Y51494D01*
X75024Y51523D01*
X75473Y51172D01*
X75462Y50925D01*
X75416Y50815D01*
Y50185D01*
X75657Y49603D01*
X75933Y49327D01*
X76103Y49157D01*
X75942Y48682D01*
X75857Y48597D01*
X75616Y48015D01*
Y47385D01*
X75857Y46803D01*
X76133Y46527D01*
X76286Y46309D01*
X76142Y45882D01*
X75957Y45697D01*
X75716Y45115D01*
Y44485D01*
X75957Y43903D01*
X76359Y43500D01*
X75957Y43097D01*
X75716Y42515D01*
Y41885D01*
X75957Y41303D01*
X76403Y40857D01*
X76985Y40616D01*
X77615D01*
X78197Y40857D01*
X78643Y41303D01*
X78884Y41885D01*
Y42515D01*
X78643Y43097D01*
X78241Y43500D01*
X78643Y43903D01*
X78884Y44485D01*
Y45115D01*
X78643Y45697D01*
X78367Y45973D01*
X78214Y46191D01*
X78358Y46618D01*
X78543Y46803D01*
X78784Y47385D01*
Y48015D01*
X78543Y48597D01*
X78267Y48873D01*
X78097Y49043D01*
X78258Y49518D01*
X78343Y49603D01*
X78584Y50185D01*
Y50815D01*
X78343Y51397D01*
X77897Y51843D01*
X77315Y52084D01*
X77338Y52574D01*
X77384Y52685D01*
Y53315D01*
X77143Y53897D01*
X76811Y54229D01*
X77094Y54653D01*
X77185Y54616D01*
X77815D01*
X78397Y54857D01*
X78843Y55303D01*
X79084Y55885D01*
Y56515D01*
X78843Y57097D01*
X78454Y57487D01*
X78736Y57769D01*
X78977Y58351D01*
Y58981D01*
X78736Y59564D01*
X78290Y60009D01*
X77708Y60250D01*
D02*
G37*
G36*
X47715Y56684D02*
X47085D01*
X46503Y56443D01*
X46057Y55997D01*
X45816Y55415D01*
Y54785D01*
X46057Y54203D01*
X46503Y53757D01*
X47085Y53516D01*
X47715D01*
X48297Y53757D01*
X48743Y54203D01*
X48984Y54785D01*
Y55415D01*
X48743Y55997D01*
X48297Y56443D01*
X47715Y56684D01*
D02*
G37*
G36*
X25640Y55121D02*
X25302D01*
X24990Y54992D01*
X24751Y54753D01*
X24621Y54440D01*
Y54102D01*
X24751Y53790D01*
X24990Y53551D01*
X25302Y53421D01*
X25640D01*
X25953Y53551D01*
X26192Y53790D01*
X26321Y54102D01*
Y54440D01*
X26192Y54753D01*
X25953Y54992D01*
X25640Y55121D01*
D02*
G37*
G36*
X23469Y53350D02*
X23131D01*
X22818Y53221D01*
X22579Y52982D01*
X22450Y52669D01*
Y52331D01*
X22579Y52018D01*
X22818Y51779D01*
X23131Y51650D01*
X23469D01*
X23781Y51779D01*
X24021Y52018D01*
X24150Y52331D01*
Y52669D01*
X24021Y52982D01*
X23781Y53221D01*
X23469Y53350D01*
D02*
G37*
G36*
X15369Y53250D02*
X15031D01*
X14718Y53121D01*
X14479Y52881D01*
X14350Y52569D01*
Y52231D01*
X14479Y51919D01*
X14718Y51679D01*
X15031Y51550D01*
X15369D01*
X15682Y51679D01*
X15921Y51919D01*
X16050Y52231D01*
Y52569D01*
X15921Y52881D01*
X15682Y53121D01*
X15369Y53250D01*
D02*
G37*
G36*
X17869Y59050D02*
X17531D01*
X17219Y58921D01*
X16979Y58681D01*
X16850Y58369D01*
Y58031D01*
X16979Y57718D01*
X17219Y57479D01*
X17240Y57471D01*
Y56929D01*
X17219Y56921D01*
X16979Y56682D01*
X16850Y56369D01*
Y56031D01*
X16979Y55718D01*
X17165Y55533D01*
X17200Y55273D01*
X17171Y54958D01*
X16994Y54782D01*
X16865Y54469D01*
Y54131D01*
X16994Y53819D01*
X17233Y53579D01*
X17353Y53530D01*
Y52989D01*
X17255Y52948D01*
X17016Y52709D01*
X16886Y52396D01*
Y52058D01*
X17016Y51746D01*
X17255Y51507D01*
X17567Y51377D01*
X17905D01*
X18218Y51507D01*
X18394Y51683D01*
X18589Y51738D01*
X18985Y51713D01*
X19118Y51579D01*
X19431Y51450D01*
X19769D01*
X20082Y51579D01*
X20321Y51819D01*
X20450Y52131D01*
Y52469D01*
X20321Y52781D01*
X20114Y52988D01*
X20099Y53288D01*
X20115Y53530D01*
X20354Y53769D01*
X20483Y54081D01*
Y54419D01*
X20354Y54732D01*
X20115Y54971D01*
X20107Y55146D01*
X20125Y55508D01*
X20331Y55714D01*
X20460Y56026D01*
Y56364D01*
X20331Y56677D01*
X20092Y56916D01*
X20082Y57433D01*
X20321Y57672D01*
X20450Y57985D01*
Y58323D01*
X20321Y58635D01*
X20082Y58874D01*
X19769Y59004D01*
X19431D01*
X19118Y58874D01*
X18951Y58707D01*
X18580Y58689D01*
X18376Y58726D01*
X18181Y58921D01*
X17869Y59050D01*
D02*
G37*
G36*
X87715Y50784D02*
X87085D01*
X86503Y50543D01*
X86057Y50097D01*
X85816Y49515D01*
Y48885D01*
X86057Y48303D01*
X86503Y47857D01*
X87085Y47616D01*
X87715D01*
X88297Y47857D01*
X88743Y48303D01*
X88984Y48885D01*
Y49515D01*
X88743Y50097D01*
X88297Y50543D01*
X87715Y50784D01*
D02*
G37*
G36*
X48015Y51384D02*
X47385D01*
X46803Y51143D01*
X46357Y50697D01*
X46116Y50115D01*
Y49485D01*
X46357Y48903D01*
X46483Y48777D01*
X46796Y48450D01*
X46483Y48123D01*
X46357Y47997D01*
X46116Y47415D01*
Y46785D01*
X46357Y46203D01*
X46803Y45757D01*
X47385Y45516D01*
X48015D01*
X48597Y45757D01*
X49043Y46203D01*
X49284Y46785D01*
Y47415D01*
X49043Y47997D01*
X48917Y48123D01*
X48604Y48450D01*
X48917Y48777D01*
X49043Y48903D01*
X49284Y49485D01*
Y50115D01*
X49043Y50697D01*
X48597Y51143D01*
X48015Y51384D01*
D02*
G37*
G36*
X23769Y49224D02*
X23431D01*
X23119Y49095D01*
X22879Y48856D01*
X22750Y48543D01*
Y48205D01*
X22879Y47892D01*
X23119Y47653D01*
X23146Y47642D01*
X23124Y47110D01*
X22981Y47051D01*
X22742Y46812D01*
X22612Y46499D01*
Y46161D01*
X22742Y45849D01*
X22981Y45610D01*
X23012Y45409D01*
X23005Y45059D01*
X22819Y44873D01*
X22690Y44561D01*
Y44223D01*
X22819Y43910D01*
X23058Y43671D01*
X23371Y43542D01*
X23709D01*
X24021Y43671D01*
X24260Y43910D01*
X24390Y44223D01*
Y44561D01*
X24260Y44873D01*
X24021Y45112D01*
X23990Y45313D01*
X23998Y45663D01*
X24183Y45849D01*
X24240Y45987D01*
X24774Y46004D01*
X24829Y45871D01*
X25069Y45632D01*
X25381Y45503D01*
X25719D01*
X26032Y45632D01*
X26271Y45871D01*
X26400Y46184D01*
Y46522D01*
X26271Y46834D01*
X26032Y47073D01*
X25719Y47203D01*
X25381D01*
X25069Y47073D01*
X24829Y46834D01*
X24772Y46696D01*
X24238Y46679D01*
X24183Y46812D01*
X23944Y47051D01*
X23917Y47062D01*
X23938Y47594D01*
X24081Y47653D01*
X24321Y47892D01*
X24450Y48205D01*
Y48543D01*
X24321Y48856D01*
X24081Y49095D01*
X23769Y49224D01*
D02*
G37*
G36*
X104415Y49284D02*
X103785D01*
X103203Y49043D01*
X102757Y48597D01*
X102516Y48015D01*
Y47584D01*
X101985D01*
X101403Y47343D01*
X100957Y46897D01*
X100716Y46315D01*
Y45784D01*
X100285D01*
X99703Y45543D01*
X99257Y45097D01*
X99173Y44894D01*
X98615Y44584D01*
X97985D01*
X97403Y44343D01*
X96957Y43897D01*
X96945Y43895D01*
X96597Y44243D01*
X96015Y44484D01*
X95385D01*
X94803Y44243D01*
X94357Y43797D01*
X94116Y43215D01*
Y42585D01*
X94357Y42003D01*
X94803Y41557D01*
X95385Y41316D01*
X96015D01*
X96597Y41557D01*
X97043Y42003D01*
X97055Y42005D01*
X97403Y41657D01*
X97985Y41416D01*
X98615D01*
X99197Y41657D01*
X99643Y42103D01*
X99727Y42306D01*
X100285Y42616D01*
X100915D01*
X101497Y42857D01*
X101943Y43303D01*
X102184Y43885D01*
Y44416D01*
X102615D01*
X103197Y44657D01*
X103643Y45103D01*
X103884Y45685D01*
Y46116D01*
X104415D01*
X104997Y46357D01*
X105443Y46803D01*
X105684Y47385D01*
Y48015D01*
X105443Y48597D01*
X104997Y49043D01*
X104415Y49284D01*
D02*
G37*
G36*
X25669Y43250D02*
X25331D01*
X25019Y43121D01*
X24779Y42882D01*
X24650Y42569D01*
Y42231D01*
X24779Y41919D01*
X25019Y41679D01*
X25331Y41550D01*
X25669D01*
X25982Y41679D01*
X26221Y41919D01*
X26350Y42231D01*
Y42569D01*
X26221Y42882D01*
X25982Y43121D01*
X25669Y43250D01*
D02*
G37*
G36*
X39469Y43250D02*
X39131D01*
X38818Y43121D01*
X38579Y42882D01*
X38450Y42569D01*
Y42231D01*
X38579Y41919D01*
X38818Y41679D01*
X39131Y41550D01*
X39469D01*
X39781Y41679D01*
X40021Y41919D01*
X40150Y42231D01*
Y42569D01*
X40021Y42882D01*
X39781Y43121D01*
X39469Y43250D01*
D02*
G37*
G36*
X41886Y42367D02*
X41548D01*
X41236Y42238D01*
X40997Y41999D01*
X40867Y41686D01*
Y41348D01*
X40997Y41036D01*
X41236Y40797D01*
X41548Y40667D01*
X41886D01*
X42199Y40797D01*
X42438Y41036D01*
X42567Y41348D01*
Y41686D01*
X42438Y41999D01*
X42199Y42238D01*
X41886Y42367D01*
D02*
G37*
G36*
X47715Y43084D02*
X47085D01*
X46503Y42843D01*
X46057Y42397D01*
X45816Y41815D01*
Y41185D01*
X46057Y40603D01*
X46503Y40157D01*
X47085Y39916D01*
X47715D01*
X48297Y40157D01*
X48743Y40603D01*
X48984Y41185D01*
Y41815D01*
X48743Y42397D01*
X48297Y42843D01*
X47715Y43084D01*
D02*
G37*
G36*
X27530Y41353D02*
X27192D01*
X26879Y41223D01*
X26640Y40984D01*
X26511Y40672D01*
Y40334D01*
X26640Y40021D01*
X26879Y39782D01*
X27192Y39653D01*
X27530D01*
X27842Y39782D01*
X28082Y40021D01*
X28211Y40334D01*
Y40672D01*
X28082Y40984D01*
X27842Y41223D01*
X27530Y41353D01*
D02*
G37*
G36*
X23769Y41245D02*
X23431D01*
X23119Y41115D01*
X22879Y40876D01*
X22750Y40564D01*
Y40225D01*
X22879Y39913D01*
X23119Y39674D01*
X23431Y39544D01*
X23769D01*
X24081Y39674D01*
X24321Y39913D01*
X24450Y40225D01*
Y40564D01*
X24321Y40876D01*
X24081Y41115D01*
X23769Y41245D01*
D02*
G37*
G36*
X75915Y40184D02*
X75285D01*
X74703Y39943D01*
X74257Y39497D01*
X73738Y39551D01*
X73415Y39684D01*
X72785D01*
X72203Y39443D01*
X71757Y38997D01*
X71516Y38415D01*
Y37785D01*
X71757Y37203D01*
X72203Y36757D01*
X72785Y36516D01*
X73415D01*
X73997Y36757D01*
X74443Y37203D01*
X74444Y37206D01*
X74703Y37257D01*
X75285Y37016D01*
X75420D01*
X75916Y36622D01*
X75944Y36554D01*
X76157Y36040D01*
X76494Y35703D01*
X76157Y35366D01*
X75916Y34784D01*
Y34153D01*
X76157Y33571D01*
X76603Y33125D01*
X76723Y33076D01*
Y32534D01*
X76503Y32443D01*
X76057Y31997D01*
X75816Y31415D01*
Y30785D01*
X76057Y30203D01*
X76410Y29850D01*
X76057Y29497D01*
X75938Y29210D01*
X75401Y29044D01*
X75373Y29053D01*
X74815Y29284D01*
X74185D01*
X73603Y29043D01*
X73157Y28597D01*
X72916Y28015D01*
Y27484D01*
X72485D01*
X71903Y27243D01*
X71457Y26797D01*
X71216Y26215D01*
Y25585D01*
X71457Y25003D01*
X71903Y24557D01*
X72485Y24316D01*
X73115D01*
X73697Y24557D01*
X74143Y25003D01*
X74384Y25585D01*
Y26116D01*
X74815D01*
X75316Y26323D01*
X75629Y26197D01*
X75816Y26068D01*
Y25816D01*
X76057Y25234D01*
X76503Y24788D01*
X76508Y24786D01*
Y24245D01*
X76503Y24243D01*
X76057Y23797D01*
X75816Y23215D01*
Y22585D01*
X76057Y22003D01*
X76503Y21557D01*
X77085Y21316D01*
X77715D01*
X78297Y21557D01*
X78743Y22003D01*
X78984Y22585D01*
Y23215D01*
X78743Y23797D01*
X78297Y24243D01*
X78292Y24245D01*
Y24786D01*
X78297Y24788D01*
X78743Y25234D01*
X78984Y25816D01*
Y26447D01*
X78743Y27029D01*
X78406Y27366D01*
X78743Y27703D01*
X78984Y28285D01*
Y28915D01*
X78743Y29497D01*
X78391Y29850D01*
X78743Y30203D01*
X78984Y30785D01*
Y31415D01*
X78743Y31997D01*
X78297Y32443D01*
X78177Y32493D01*
Y33034D01*
X78397Y33125D01*
X78843Y33571D01*
X79084Y34153D01*
Y34784D01*
X78843Y35366D01*
X78506Y35703D01*
X78843Y36040D01*
X79084Y36622D01*
Y37252D01*
X78843Y37834D01*
X78397Y38280D01*
X77815Y38521D01*
X77680D01*
X77184Y38915D01*
X77156Y38983D01*
Y38983D01*
X77139Y39023D01*
X76943Y39497D01*
X76497Y39943D01*
X75915Y40184D01*
D02*
G37*
G36*
X21769Y39350D02*
X21431D01*
X21118Y39221D01*
X20879Y38982D01*
X20871Y38962D01*
X20331Y38960D01*
X20092Y39199D01*
X19779Y39329D01*
X19441D01*
X19129Y39199D01*
X18890Y38960D01*
X18760Y38648D01*
Y38309D01*
X18890Y37997D01*
X19129Y37758D01*
X19441Y37629D01*
X19779D01*
X20092Y37758D01*
X20331Y37997D01*
X20339Y38017D01*
X20879Y38019D01*
X21118Y37779D01*
X21431Y37650D01*
X21769D01*
X22082Y37779D01*
X22321Y38019D01*
X22450Y38331D01*
Y38669D01*
X22321Y38982D01*
X22082Y39221D01*
X21769Y39350D01*
D02*
G37*
G36*
X41969Y39950D02*
X41631D01*
X41319Y39821D01*
X41079Y39582D01*
X40950Y39269D01*
Y38931D01*
X41079Y38618D01*
X41319Y38379D01*
X41631Y38250D01*
X41969D01*
X42281Y38379D01*
X42521Y38618D01*
X42650Y38931D01*
Y39269D01*
X42521Y39582D01*
X42281Y39821D01*
X41969Y39950D01*
D02*
G37*
G36*
X83815Y39884D02*
X83185D01*
X82603Y39643D01*
X82157Y39197D01*
X81916Y38615D01*
Y37985D01*
X82157Y37403D01*
X82603Y36957D01*
X83185Y36716D01*
X83815D01*
X84397Y36957D01*
X84843Y37403D01*
X85084Y37985D01*
Y38615D01*
X84843Y39197D01*
X84397Y39643D01*
X83815Y39884D01*
D02*
G37*
G36*
X21769Y35250D02*
X21431D01*
X21118Y35121D01*
X20879Y34881D01*
X20750Y34569D01*
Y34231D01*
X20879Y33918D01*
X21118Y33679D01*
X21431Y33550D01*
X21769D01*
X22082Y33679D01*
X22321Y33918D01*
X22450Y34231D01*
Y34569D01*
X22321Y34881D01*
X22082Y35121D01*
X21769Y35250D01*
D02*
G37*
G36*
X41169Y34250D02*
X40831D01*
X40519Y34121D01*
X40279Y33882D01*
X40150Y33569D01*
Y33231D01*
X40279Y32919D01*
X40519Y32679D01*
X40831Y32550D01*
X41169D01*
X41482Y32679D01*
X41721Y32919D01*
X41850Y33231D01*
Y33569D01*
X41721Y33882D01*
X41482Y34121D01*
X41169Y34250D01*
D02*
G37*
G36*
X37519Y37337D02*
X37181D01*
X36869Y37207D01*
X36630Y36968D01*
X36500Y36656D01*
Y36318D01*
X36630Y36005D01*
X36869Y35766D01*
X36897Y35754D01*
X36940Y35231D01*
X36701Y34992D01*
X36572Y34679D01*
Y34350D01*
X36571Y34341D01*
X36334Y33856D01*
X36257Y33819D01*
X36018Y33721D01*
X35779Y33481D01*
X35650Y33169D01*
Y32831D01*
X35779Y32519D01*
X36018Y32279D01*
X36331Y32150D01*
X36669D01*
X36981Y32279D01*
X37221Y32519D01*
X37350Y32831D01*
Y33160D01*
X37350Y33169D01*
X37588Y33655D01*
X37664Y33691D01*
X37903Y33790D01*
X38142Y34029D01*
X38272Y34341D01*
Y34679D01*
X38142Y34992D01*
X37903Y35231D01*
X37874Y35243D01*
X37832Y35766D01*
X38071Y36005D01*
X38200Y36318D01*
Y36656D01*
X38071Y36968D01*
X37832Y37207D01*
X37519Y37337D01*
D02*
G37*
G36*
X22069Y32950D02*
X21731D01*
X21418Y32821D01*
X21179Y32581D01*
X21050Y32269D01*
Y31931D01*
X21179Y31618D01*
X21418Y31379D01*
X21731Y31250D01*
X22069D01*
X22381Y31379D01*
X22621Y31618D01*
X22750Y31931D01*
Y32269D01*
X22621Y32581D01*
X22381Y32821D01*
X22069Y32950D01*
D02*
G37*
G36*
X83715Y34284D02*
X83085D01*
X82503Y34043D01*
X82057Y33597D01*
X81816Y33015D01*
Y32385D01*
X82057Y31803D01*
X82503Y31357D01*
X83085Y31116D01*
X83715D01*
X84297Y31357D01*
X84743Y31803D01*
X84984Y32385D01*
Y33015D01*
X84743Y33597D01*
X84297Y34043D01*
X83715Y34284D01*
D02*
G37*
G36*
X73131Y33784D02*
X72501D01*
X71918Y33543D01*
X71473Y33097D01*
X71232Y32515D01*
Y31885D01*
X71473Y31303D01*
X71918Y30857D01*
X72501Y30616D01*
X73131D01*
X73713Y30857D01*
X74159Y31303D01*
X74400Y31885D01*
Y32515D01*
X74159Y33097D01*
X73713Y33543D01*
X73131Y33784D01*
D02*
G37*
G36*
X86915Y29684D02*
X86285D01*
X85703Y29443D01*
X85257Y28997D01*
X85016Y28415D01*
Y27785D01*
X85257Y27203D01*
X85433Y27027D01*
X85663Y26700D01*
X85433Y26373D01*
X85257Y26197D01*
X85016Y25615D01*
Y24985D01*
X85257Y24403D01*
X85703Y23957D01*
X86285Y23716D01*
X86915D01*
X87497Y23957D01*
X87943Y24403D01*
X88098Y24776D01*
X88485Y24616D01*
X89115D01*
X89697Y24857D01*
X90143Y25303D01*
X90384Y25885D01*
Y26416D01*
X90815D01*
X91397Y26657D01*
X91843Y27103D01*
X92084Y27685D01*
Y28315D01*
X91843Y28897D01*
X91397Y29343D01*
X90815Y29584D01*
X90185D01*
X89603Y29343D01*
X89157Y28897D01*
X88916Y28315D01*
Y28172D01*
X88838Y28102D01*
X88332Y28134D01*
X88184Y28280D01*
Y28415D01*
X87943Y28997D01*
X87497Y29443D01*
X86915Y29684D01*
D02*
G37*
G36*
X55415Y24484D02*
X54785D01*
X54203Y24243D01*
X53757Y23797D01*
X53516Y23215D01*
Y22585D01*
X53570Y22454D01*
X53403Y21843D01*
X52957Y21397D01*
X52716Y20815D01*
Y20185D01*
X52957Y19603D01*
X53038Y19522D01*
X53003Y19343D01*
X52557Y18897D01*
X52316Y18315D01*
Y17685D01*
X52557Y17103D01*
X52905Y16755D01*
X52903Y16743D01*
X52457Y16297D01*
X52216Y15715D01*
Y15085D01*
X52457Y14503D01*
X52843Y14116D01*
X52456Y13729D01*
X52215Y13147D01*
Y12517D01*
X52456Y11934D01*
X52902Y11489D01*
X53484Y11247D01*
X54115D01*
X54697Y11489D01*
X55143Y11934D01*
X55384Y12517D01*
Y13147D01*
X55143Y13729D01*
X54756Y14116D01*
X55143Y14503D01*
X55384Y15085D01*
Y15715D01*
X55143Y16297D01*
X54795Y16645D01*
X54797Y16657D01*
X55243Y17103D01*
X55484Y17685D01*
Y18315D01*
X55243Y18897D01*
X55162Y18979D01*
X55197Y19157D01*
X55643Y19603D01*
X55884Y20185D01*
Y20815D01*
X55830Y20946D01*
X55997Y21557D01*
X56128Y21688D01*
X56557Y21603D01*
X57003Y21157D01*
X57585Y20916D01*
X58215D01*
X58797Y21157D01*
X59243Y21603D01*
X59484Y22185D01*
Y22815D01*
X59243Y23397D01*
X58797Y23843D01*
X58215Y24084D01*
X57585D01*
X57003Y23843D01*
X56872Y23712D01*
X56443Y23797D01*
X55997Y24243D01*
X55415Y24484D01*
D02*
G37*
G36*
X73115Y23484D02*
X72485D01*
X71903Y23243D01*
X71457Y22797D01*
X71216Y22215D01*
Y21585D01*
X71457Y21003D01*
X71903Y20557D01*
X72485Y20316D01*
X73115D01*
X73697Y20557D01*
X74143Y21003D01*
X74384Y21585D01*
Y22215D01*
X74143Y22797D01*
X73697Y23243D01*
X73115Y23484D01*
D02*
G37*
G36*
X47720Y30273D02*
X47089D01*
X46507Y30032D01*
X46061Y29586D01*
X45820Y29004D01*
Y28374D01*
X46061Y27792D01*
X46456Y27397D01*
X46057Y26997D01*
X45816Y26415D01*
Y25785D01*
X46057Y25203D01*
X46425Y24834D01*
X46057Y24466D01*
X45816Y23884D01*
Y23253D01*
X46057Y22671D01*
X46394Y22334D01*
X46057Y21997D01*
X45816Y21415D01*
Y20785D01*
X46057Y20203D01*
X46503Y19757D01*
X47085Y19516D01*
X47715D01*
X48297Y19757D01*
X48743Y20203D01*
X48984Y20785D01*
Y21415D01*
X48743Y21997D01*
X48406Y22334D01*
X48743Y22671D01*
X48984Y23253D01*
Y23884D01*
X48743Y24466D01*
X48375Y24834D01*
X48743Y25203D01*
X48984Y25785D01*
Y26415D01*
X48743Y26997D01*
X48348Y27392D01*
X48748Y27792D01*
X48989Y28374D01*
Y29004D01*
X48748Y29586D01*
X48302Y30032D01*
X47720Y30273D01*
D02*
G37*
G36*
X110702Y12744D02*
X109849D01*
X109797Y12723D01*
X109743Y12734D01*
X108906Y12567D01*
X108860Y12537D01*
X108805D01*
X108017Y12210D01*
X107977Y12171D01*
X107923Y12160D01*
X107214Y11686D01*
X107183Y11640D01*
X107132Y11619D01*
X106528Y11016D01*
X106507Y10965D01*
X106461Y10934D01*
X105987Y10225D01*
X105976Y10170D01*
X105937Y10131D01*
X105611Y9343D01*
Y9287D01*
X105580Y9241D01*
X105414Y8405D01*
X105424Y8350D01*
X105403Y8299D01*
Y7446D01*
X105424Y7395D01*
X105414Y7340D01*
X105580Y6504D01*
X105611Y6458D01*
Y6402D01*
X105937Y5614D01*
X105976Y5575D01*
X105987Y5520D01*
X106461Y4811D01*
X106507Y4780D01*
X106528Y4729D01*
X107132Y4126D01*
X107183Y4105D01*
X107214Y4059D01*
X107923Y3585D01*
X107977Y3574D01*
X108017Y3535D01*
X108805Y3208D01*
X108860D01*
X108906Y3177D01*
X109743Y3011D01*
X109797Y3022D01*
X109849Y3001D01*
X110702D01*
X110753Y3022D01*
X110807Y3011D01*
X111644Y3177D01*
X111690Y3208D01*
X111745D01*
X112534Y3535D01*
X112573Y3574D01*
X112627Y3585D01*
X113336Y4059D01*
X113367Y4105D01*
X113418Y4126D01*
X114022Y4729D01*
X114043Y4780D01*
X114089Y4811D01*
X114563Y5520D01*
X114574Y5575D01*
X114613Y5614D01*
X114939Y6402D01*
Y6458D01*
X114970Y6504D01*
X115137Y7340D01*
X115126Y7395D01*
X115147Y7446D01*
Y8299D01*
X115126Y8350D01*
X115137Y8405D01*
X114970Y9241D01*
X114939Y9287D01*
Y9343D01*
X114613Y10131D01*
X114574Y10170D01*
X114563Y10225D01*
X114089Y10934D01*
X114043Y10965D01*
X114022Y11016D01*
X113418Y11619D01*
X113367Y11640D01*
X113336Y11686D01*
X112627Y12160D01*
X112573Y12171D01*
X112534Y12210D01*
X111745Y12537D01*
X111690D01*
X111644Y12567D01*
X110807Y12734D01*
X110753Y12723D01*
X110702Y12744D01*
D02*
G37*
G36*
X44999Y18184D02*
X44369D01*
X43787Y17943D01*
X43341Y17497D01*
X43100Y16915D01*
Y16285D01*
X43341Y15703D01*
X43431Y15613D01*
X43603Y15143D01*
X43425Y14965D01*
X43157Y14697D01*
X42916Y14115D01*
Y13485D01*
X43157Y12903D01*
X43603Y12457D01*
X44185Y12216D01*
X44815D01*
X45397Y12457D01*
X45843Y12903D01*
X46084Y13485D01*
Y14115D01*
X45843Y14697D01*
X45753Y14787D01*
X45582Y15257D01*
X45759Y15435D01*
X46027Y15703D01*
X46268Y16285D01*
Y16915D01*
X46027Y17497D01*
X45582Y17943D01*
X44999Y18184D01*
D02*
G37*
G36*
X100015Y12984D02*
X99385D01*
X98803Y12743D01*
X98357Y12297D01*
X98116Y11715D01*
Y11085D01*
X98357Y10503D01*
X98803Y10057D01*
X99385Y9816D01*
X100015D01*
X100597Y10057D01*
X101043Y10503D01*
X101284Y11085D01*
Y11715D01*
X101043Y12297D01*
X100597Y12743D01*
X100015Y12984D01*
D02*
G37*
G36*
X47315Y4884D02*
X46685D01*
X46103Y4643D01*
X45657Y4197D01*
X45416Y3615D01*
Y2985D01*
X45657Y2403D01*
X46103Y1957D01*
X46685Y1716D01*
X47315D01*
X47897Y1957D01*
X48343Y2403D01*
X48584Y2985D01*
Y3615D01*
X48343Y4197D01*
X47897Y4643D01*
X47315Y4884D01*
D02*
G37*
G36*
X5515Y41284D02*
X4885D01*
X4303Y41043D01*
X3857Y40597D01*
X3616Y40015D01*
Y39385D01*
X3857Y38803D01*
X4303Y38357D01*
X4885Y38116D01*
X5515D01*
X6097Y38357D01*
X6543Y38803D01*
X6784Y39385D01*
Y40015D01*
X6543Y40597D01*
X6097Y41043D01*
X5515Y41284D01*
D02*
G37*
G36*
X10015Y23484D02*
X9385D01*
X8803Y23243D01*
X8357Y22797D01*
X8116Y22215D01*
Y21585D01*
X8357Y21003D01*
X8803Y20557D01*
X9385Y20316D01*
X10015D01*
X10597Y20557D01*
X11043Y21003D01*
X11284Y21585D01*
Y22215D01*
X11043Y22797D01*
X10597Y23243D01*
X10015Y23484D01*
D02*
G37*
%LPD*%
D58*
X32000Y31624D02*
Y39300D01*
Y29500D02*
Y31624D01*
X30300Y41000D02*
Y53148D01*
Y41000D02*
X32000Y39300D01*
X29600Y27100D02*
X32000Y29500D01*
X29500Y40500D02*
X30945Y39055D01*
Y32100D02*
Y39055D01*
Y31045D02*
Y32100D01*
X27100Y27200D02*
X30945Y31045D01*
X55227Y64900D02*
X63000Y57127D01*
X33237Y64900D02*
X55227D01*
X28600Y60263D02*
X33237Y64900D01*
X55400Y66000D02*
X64000Y57400D01*
X29665Y62600D02*
X33065Y66000D01*
X55400D01*
X14800Y19700D02*
X18100Y16400D01*
X14800Y19700D02*
Y30600D01*
X16300Y32100D01*
Y41014D01*
X17642Y42355D01*
X76100Y2600D02*
Y6100D01*
X66827Y7100D02*
X75100D01*
X76100Y6100D01*
X64900Y9000D02*
X64927D01*
X66827Y7100D01*
X62200Y13000D02*
X67200Y8000D01*
X75800D01*
X79100Y4700D01*
X61264Y12636D02*
X64900Y9000D01*
X61264Y12636D02*
Y24964D01*
X62200Y13000D02*
Y25300D01*
X60227Y26000D02*
X61264Y24964D01*
X57100Y26000D02*
X60227D01*
X60600Y26900D02*
X62200Y25300D01*
X57800Y26900D02*
X60600D01*
X55700Y29000D02*
X57800Y26900D01*
X55700Y29000D02*
Y32800D01*
X53800Y29300D02*
X57100Y26000D01*
X53800Y29300D02*
Y36600D01*
X56900Y39700D01*
X79100Y2600D02*
Y4700D01*
X18100Y16400D02*
X30500D01*
X31600Y17500D02*
Y22900D01*
X33200Y24500D01*
X30500Y16400D02*
X31600Y17500D01*
X27100Y19500D02*
Y27200D01*
X32000Y43826D02*
X33400Y42426D01*
X32000Y43826D02*
Y45000D01*
X34800Y47800D01*
X33393Y58107D02*
X34800Y56700D01*
Y47800D02*
Y56700D01*
X29500Y40500D02*
Y56300D01*
X29600Y19500D02*
Y27100D01*
X29500Y56300D02*
X31400Y58200D01*
X29600Y19500D02*
X29700Y19400D01*
X30300Y53148D02*
X31400Y54248D01*
X28600Y51475D02*
Y60263D01*
X25376Y58311D02*
X29665Y62600D01*
X23400Y58311D02*
X25376D01*
X27350Y50225D02*
X28600Y51475D01*
X66800Y43100D02*
X68600Y44900D01*
X64000Y51200D02*
X68600Y46600D01*
X64000Y51200D02*
Y57400D01*
X68600Y44900D02*
Y46600D01*
X63000Y49400D02*
X66700Y45700D01*
X63000Y49400D02*
Y57127D01*
D61*
X39300Y42400D02*
D03*
X41400Y46600D02*
D03*
X29700Y31600D02*
D03*
X29513Y36510D02*
D03*
X41717Y41517D02*
D03*
X41800Y43400D02*
D03*
X41700Y51200D02*
D03*
X19600Y36500D02*
D03*
X14800Y40300D02*
D03*
X29500Y33200D02*
D03*
X27395Y34626D02*
D03*
X25471Y54271D02*
D03*
X39250Y56150D02*
D03*
X15200Y52400D02*
D03*
X15172Y42000D02*
D03*
X21600Y38500D02*
D03*
X19610Y38479D02*
D03*
Y44384D02*
D03*
X21568Y42427D02*
D03*
X25505Y50301D02*
D03*
X21568Y36500D02*
D03*
X21600Y34400D02*
D03*
X19339Y32668D02*
D03*
X21900Y32100D02*
D03*
X33224Y52169D02*
D03*
X33371Y38463D02*
D03*
X33360Y50260D02*
D03*
X36500Y33000D02*
D03*
X32800Y61700D02*
D03*
X14800Y43700D02*
D03*
X13900Y57200D02*
D03*
X13904Y58968D02*
D03*
X41700Y52900D02*
D03*
X15100Y34199D02*
D03*
X27400Y56279D02*
D03*
X23600Y40394D02*
D03*
X37386Y44385D02*
D03*
X37374Y46400D02*
D03*
X37300Y50263D02*
D03*
X33393Y58107D02*
D03*
X33400Y42426D02*
D03*
X33423Y44377D02*
D03*
X33300Y48348D02*
D03*
X27395Y36595D02*
D03*
X25800Y60500D02*
D03*
X31485Y60400D02*
D03*
X25516Y38479D02*
D03*
X41000Y33400D02*
D03*
X41800Y39100D02*
D03*
X25800Y34200D02*
D03*
X33285Y56300D02*
D03*
X31500Y56116D02*
D03*
X37300Y54254D02*
D03*
X39300Y50300D02*
D03*
X19528Y50269D02*
D03*
X37327Y40447D02*
D03*
X19626Y42400D02*
D03*
X33300Y36600D02*
D03*
X37350Y36487D02*
D03*
X31400Y54248D02*
D03*
X27424Y58164D02*
D03*
X31400Y58200D02*
D03*
X31482Y50290D02*
D03*
X17715Y54300D02*
D03*
X19634Y54250D02*
D03*
X17700Y56200D02*
D03*
Y58200D02*
D03*
X19610Y56195D02*
D03*
X35388Y40477D02*
D03*
X35350Y44400D02*
D03*
X33500Y33300D02*
D03*
X37327Y56135D02*
D03*
X37300Y58191D02*
D03*
X23500Y56300D02*
D03*
X27350Y50225D02*
D03*
X27361Y40503D02*
D03*
X19600Y58153D02*
D03*
X25527Y36521D02*
D03*
X25550Y46353D02*
D03*
X23600Y48374D02*
D03*
X23540Y44392D02*
D03*
X17642Y42355D02*
D03*
X19600Y52300D02*
D03*
X23300Y52500D02*
D03*
X17736Y52227D02*
D03*
X35300Y42358D02*
D03*
X37422Y34510D02*
D03*
X23400Y58311D02*
D03*
X25500Y42400D02*
D03*
X23462Y46330D02*
D03*
D62*
X73100Y49200D02*
D03*
X47400Y41500D02*
D03*
X66700Y55100D02*
D03*
X53800Y12832D02*
D03*
X54100Y63200D02*
D03*
X109100Y25500D02*
D03*
X64300Y31100D02*
D03*
Y28500D02*
D03*
X77400Y31100D02*
D03*
Y28600D02*
D03*
X74500Y27700D02*
D03*
X89300Y77300D02*
D03*
X46200Y74400D02*
D03*
X104100Y47700D02*
D03*
X41300Y74400D02*
D03*
X46200Y76900D02*
D03*
X43800Y74400D02*
D03*
X101600Y74800D02*
D03*
Y77200D02*
D03*
Y72300D02*
D03*
X92000Y77300D02*
D03*
X47405Y28689D02*
D03*
X47400Y21100D02*
D03*
X64400Y63200D02*
D03*
X55700Y32800D02*
D03*
X55100Y22900D02*
D03*
X53800Y15400D02*
D03*
X64400Y60400D02*
D03*
X53900Y18000D02*
D03*
X57900Y22500D02*
D03*
X58300Y58400D02*
D03*
X47400Y26100D02*
D03*
X58300Y16400D02*
D03*
X58100Y47800D02*
D03*
X58300Y32800D02*
D03*
X58200Y44800D02*
D03*
X56400Y56400D02*
D03*
X64400Y37000D02*
D03*
X58100Y53000D02*
D03*
Y50500D02*
D03*
X58200Y29300D02*
D03*
X56900Y39700D02*
D03*
X47400Y23569D02*
D03*
X64400Y34500D02*
D03*
X58100Y42300D02*
D03*
X54300Y20500D02*
D03*
X47700Y49800D02*
D03*
Y47100D02*
D03*
X47400Y55100D02*
D03*
X54100Y53600D02*
D03*
X36700Y3500D02*
D03*
X34132D02*
D03*
X39331D02*
D03*
X31431D02*
D03*
X28400Y3700D02*
D03*
X42000Y3000D02*
D03*
X116300Y34400D02*
D03*
X111200D02*
D03*
X113800D02*
D03*
X108600D02*
D03*
X111100Y46000D02*
D03*
X108600Y48500D02*
D03*
X113600D02*
D03*
X116200Y43500D02*
D03*
Y46000D02*
D03*
X113600D02*
D03*
Y43500D02*
D03*
X116100Y48500D02*
D03*
X111100D02*
D03*
X108600Y46000D02*
D03*
Y43500D02*
D03*
X111100D02*
D03*
X113700Y39500D02*
D03*
X108600Y37000D02*
D03*
X108500Y39600D02*
D03*
X113800Y37000D02*
D03*
X111200D02*
D03*
X111100Y39600D02*
D03*
X116200D02*
D03*
X116300Y37000D02*
D03*
X83200Y1500D02*
D03*
X85700Y1600D02*
D03*
X88200D02*
D03*
X102400D02*
D03*
X99800D02*
D03*
X97200D02*
D03*
X94600D02*
D03*
X113700Y16000D02*
D03*
X111300Y16600D02*
D03*
X108800Y16500D02*
D03*
X106400Y15700D02*
D03*
X104300Y14300D02*
D03*
X102600Y12400D02*
D03*
X45400Y60000D02*
D03*
X95700Y42900D02*
D03*
X98300Y43000D02*
D03*
X100600Y44200D02*
D03*
X102300Y46000D02*
D03*
X45600Y19100D02*
D03*
X47500Y14900D02*
D03*
Y17400D02*
D03*
X17300Y23500D02*
D03*
X19234Y18283D02*
D03*
X12600Y23100D02*
D03*
X3600Y16800D02*
D03*
X9700Y21900D02*
D03*
X99100Y65700D02*
D03*
X91500D02*
D03*
X94000D02*
D03*
X96500D02*
D03*
X92800Y63500D02*
D03*
X95300D02*
D03*
X115700Y58000D02*
D03*
X113300D02*
D03*
X111000D02*
D03*
X108600D02*
D03*
Y60400D02*
D03*
X111000D02*
D03*
X113300D02*
D03*
X115600D02*
D03*
X104000Y77200D02*
D03*
X17000Y3600D02*
D03*
X18600Y1300D02*
D03*
X16300D02*
D03*
X14000D02*
D03*
X1400Y15600D02*
D03*
Y18000D02*
D03*
Y20300D02*
D03*
X73800Y56300D02*
D03*
X73700Y58700D02*
D03*
X75800Y53000D02*
D03*
X16900Y74700D02*
D03*
X19300Y77100D02*
D03*
X1600Y62000D02*
D03*
X3800Y63100D02*
D03*
X1600Y64300D02*
D03*
X54600Y42100D02*
D03*
Y44600D02*
D03*
Y47100D02*
D03*
Y49600D02*
D03*
X84600Y40800D02*
D03*
Y43200D02*
D03*
Y45700D02*
D03*
Y48100D02*
D03*
Y50600D02*
D03*
X102800Y61500D02*
D03*
X87400Y49200D02*
D03*
X86600Y28100D02*
D03*
Y25300D02*
D03*
X88800Y26200D02*
D03*
X90500Y28000D02*
D03*
X100800Y27200D02*
D03*
X102400Y25300D02*
D03*
X104100Y27200D02*
D03*
X105700Y25300D02*
D03*
X107300Y27100D02*
D03*
X36500Y10600D02*
D03*
X43800Y76900D02*
D03*
X41300D02*
D03*
X99700Y11400D02*
D03*
X91200Y1600D02*
D03*
X73600Y11000D02*
D03*
Y13500D02*
D03*
X79100Y2600D02*
D03*
X76100D02*
D03*
X29700Y6100D02*
D03*
X97800Y63500D02*
D03*
X35400Y29200D02*
D03*
X21700Y18400D02*
D03*
X41300Y21600D02*
D03*
X25400Y27300D02*
D03*
X27100Y19500D02*
D03*
X24100Y20200D02*
D03*
X12600Y18200D02*
D03*
Y20600D02*
D03*
X5300Y30300D02*
D03*
Y33400D02*
D03*
X2200Y42500D02*
D03*
X4572D02*
D03*
X17200Y64200D02*
D03*
X14600D02*
D03*
X5200Y39700D02*
D03*
X29700Y19400D02*
D03*
X34300Y21700D02*
D03*
X36800Y24200D02*
D03*
X47000Y3300D02*
D03*
X33200Y24500D02*
D03*
X41300Y24200D02*
D03*
X44684Y16600D02*
D03*
X44500Y13800D02*
D03*
X66800Y43100D02*
D03*
X66700Y45700D02*
D03*
X75600Y38600D02*
D03*
X73100Y38100D02*
D03*
X72816Y32200D02*
D03*
X67000Y33500D02*
D03*
X72800Y21900D02*
D03*
X83500Y38300D02*
D03*
X77300Y44800D02*
D03*
Y42200D02*
D03*
X73100Y51800D02*
D03*
X77200Y47700D02*
D03*
X77000Y50500D02*
D03*
X66716Y57800D02*
D03*
X83600Y63600D02*
D03*
X77393Y58666D02*
D03*
X77500Y56200D02*
D03*
X84200Y61100D02*
D03*
X66800Y37900D02*
D03*
Y40400D02*
D03*
X77500Y34468D02*
D03*
Y36937D02*
D03*
X77400Y26131D02*
D03*
X83400Y32700D02*
D03*
X77400Y22900D02*
D03*
X64600Y15879D02*
D03*
Y13400D02*
D03*
X67000Y23984D02*
D03*
X66600Y20616D02*
D03*
Y18147D02*
D03*
X72800Y25900D02*
D03*
X66800Y27600D02*
D03*
D63*
X29700Y6100D02*
X39000D01*
X26200D02*
X29700D01*
X39000D02*
X41300Y8400D01*
Y21600D01*
M02*
