G04*
G04 #@! TF.GenerationSoftware,Altium Limited,Altium Designer,21.3.2 (30)*
G04*
G04 Layer_Color=32896*
%FSLAX25Y25*%
%MOIN*%
G70*
G04*
G04 #@! TF.SameCoordinates,24C89C37-09E3-4822-9DB9-40424265DB80*
G04*
G04*
G04 #@! TF.FilePolarity,Positive*
G04*
G01*
G75*
G36*
X161575Y53171D02*
X161289D01*
Y53866D01*
X161184Y53791D01*
X161077Y53723D01*
X160972Y53664D01*
X160923Y53637D01*
X160877Y53615D01*
X160833Y53593D01*
X160794Y53574D01*
X160757Y53559D01*
X160728Y53547D01*
X160704Y53537D01*
X160684Y53527D01*
X160674Y53525D01*
X160669Y53522D01*
X160606Y53500D01*
X160543Y53478D01*
X160479Y53461D01*
X160418Y53447D01*
X160362Y53435D01*
X160306Y53422D01*
X160252Y53413D01*
X160203Y53405D01*
X160160Y53400D01*
X160118Y53396D01*
X160084Y53391D01*
X160052Y53388D01*
X160028D01*
X160011Y53386D01*
X160001D01*
X159996D01*
Y53681D01*
X160076Y53684D01*
X160160Y53691D01*
X160240Y53701D01*
X160277Y53708D01*
X160313Y53715D01*
X160347Y53720D01*
X160379Y53727D01*
X160406Y53732D01*
X160430Y53740D01*
X160447Y53742D01*
X160462Y53747D01*
X160472Y53749D01*
X160474D01*
X160574Y53779D01*
X160669Y53810D01*
X160713Y53827D01*
X160755Y53844D01*
X160794Y53862D01*
X160830Y53879D01*
X160865Y53893D01*
X160894Y53908D01*
X160921Y53920D01*
X160943Y53932D01*
X160960Y53942D01*
X160974Y53949D01*
X160982Y53952D01*
X160984Y53954D01*
X161028Y53979D01*
X161070Y54006D01*
X161106Y54030D01*
X161143Y54052D01*
X161174Y54076D01*
X161206Y54098D01*
X161233Y54118D01*
X161258Y54137D01*
X161279Y54154D01*
X161299Y54172D01*
X161316Y54186D01*
X161328Y54198D01*
X161338Y54208D01*
X161348Y54215D01*
X161350Y54218D01*
X161353Y54220D01*
X161575D01*
Y53171D01*
D02*
G37*
G36*
X161604Y52464D02*
X161550Y52442D01*
X161502Y52412D01*
X161458Y52381D01*
X161421Y52349D01*
X161389Y52317D01*
X161367Y52293D01*
X161360Y52285D01*
X161353Y52278D01*
X161350Y52273D01*
X161348Y52271D01*
X161309Y52219D01*
X161279Y52171D01*
X161253Y52127D01*
X161233Y52088D01*
X161216Y52056D01*
X161206Y52032D01*
X161204Y52022D01*
X161201Y52014D01*
X161199Y52012D01*
Y52010D01*
X160921D01*
X160952Y52093D01*
X160989Y52168D01*
X161026Y52234D01*
X161045Y52266D01*
X161065Y52293D01*
X161082Y52320D01*
X161099Y52342D01*
X161114Y52361D01*
X161126Y52378D01*
X161138Y52390D01*
X161145Y52400D01*
X161150Y52405D01*
X161153Y52407D01*
X159996D01*
Y52715D01*
X161604D01*
Y52464D01*
D02*
G37*
G36*
X160308Y51619D02*
X160343Y51597D01*
X160372Y51578D01*
X160401Y51561D01*
X160428Y51541D01*
X160472Y51512D01*
X160508Y51485D01*
X160535Y51463D01*
X160552Y51448D01*
X160564Y51439D01*
X160567Y51436D01*
X160594Y51409D01*
X160618Y51380D01*
X160643Y51351D01*
X160662Y51324D01*
X160679Y51300D01*
X160691Y51280D01*
X160699Y51268D01*
X160701Y51265D01*
Y51263D01*
X160708Y51302D01*
X160716Y51336D01*
X160726Y51370D01*
X160738Y51400D01*
X160750Y51429D01*
X160762Y51456D01*
X160774Y51478D01*
X160787Y51500D01*
X160799Y51517D01*
X160811Y51534D01*
X160823Y51546D01*
X160830Y51558D01*
X160840Y51566D01*
X160845Y51573D01*
X160848Y51578D01*
X160850D01*
X160872Y51597D01*
X160896Y51614D01*
X160945Y51639D01*
X160996Y51658D01*
X161043Y51673D01*
X161084Y51680D01*
X161101Y51683D01*
X161118D01*
X161131Y51685D01*
X161140D01*
X161145D01*
X161148D01*
X161199Y51683D01*
X161248Y51675D01*
X161289Y51663D01*
X161326Y51651D01*
X161357Y51636D01*
X161380Y51627D01*
X161394Y51617D01*
X161399Y51614D01*
X161438Y51585D01*
X161470Y51556D01*
X161497Y51524D01*
X161519Y51495D01*
X161536Y51468D01*
X161548Y51446D01*
X161553Y51431D01*
X161555Y51429D01*
Y51427D01*
X161563Y51405D01*
X161570Y51378D01*
X161580Y51319D01*
X161589Y51258D01*
X161594Y51197D01*
X161597Y51170D01*
Y51119D01*
X161599Y51097D01*
Y50380D01*
X159996D01*
Y50704D01*
X160665D01*
Y50807D01*
X160662Y50841D01*
X160660Y50868D01*
X160655Y50890D01*
X160652Y50907D01*
X160647Y50919D01*
X160645Y50926D01*
Y50929D01*
X160638Y50948D01*
X160628Y50965D01*
X160606Y50997D01*
X160596Y51009D01*
X160587Y51019D01*
X160582Y51024D01*
X160579Y51026D01*
X160569Y51036D01*
X160555Y51046D01*
X160521Y51073D01*
X160484Y51102D01*
X160442Y51129D01*
X160404Y51156D01*
X160389Y51168D01*
X160372Y51178D01*
X160360Y51185D01*
X160350Y51192D01*
X160345Y51195D01*
X160343Y51197D01*
X159996Y51427D01*
Y51814D01*
X160308Y51619D01*
D02*
G37*
G36*
X156889Y53905D02*
X156221D01*
Y53803D01*
X156223Y53769D01*
X156226Y53742D01*
X156230Y53720D01*
X156233Y53703D01*
X156238Y53691D01*
X156240Y53684D01*
Y53681D01*
X156248Y53662D01*
X156257Y53644D01*
X156279Y53613D01*
X156289Y53601D01*
X156299Y53591D01*
X156304Y53586D01*
X156306Y53583D01*
X156316Y53574D01*
X156331Y53564D01*
X156365Y53537D01*
X156401Y53508D01*
X156443Y53481D01*
X156482Y53454D01*
X156497Y53442D01*
X156514Y53432D01*
X156526Y53425D01*
X156535Y53417D01*
X156540Y53415D01*
X156543Y53413D01*
X156889Y53183D01*
Y52795D01*
X156577Y52991D01*
X156543Y53013D01*
X156514Y53032D01*
X156484Y53049D01*
X156457Y53069D01*
X156413Y53098D01*
X156377Y53125D01*
X156350Y53147D01*
X156333Y53161D01*
X156321Y53171D01*
X156318Y53174D01*
X156291Y53200D01*
X156267Y53230D01*
X156243Y53259D01*
X156223Y53286D01*
X156206Y53310D01*
X156194Y53330D01*
X156187Y53342D01*
X156184Y53344D01*
Y53347D01*
X156177Y53308D01*
X156169Y53274D01*
X156160Y53239D01*
X156148Y53210D01*
X156135Y53181D01*
X156123Y53154D01*
X156111Y53132D01*
X156099Y53110D01*
X156087Y53093D01*
X156074Y53076D01*
X156062Y53064D01*
X156055Y53052D01*
X156045Y53044D01*
X156040Y53037D01*
X156038Y53032D01*
X156035D01*
X156013Y53013D01*
X155989Y52995D01*
X155940Y52971D01*
X155889Y52952D01*
X155843Y52937D01*
X155801Y52930D01*
X155784Y52927D01*
X155767D01*
X155755Y52925D01*
X155745D01*
X155740D01*
X155738D01*
X155686Y52927D01*
X155638Y52934D01*
X155596Y52947D01*
X155560Y52959D01*
X155528Y52973D01*
X155506Y52983D01*
X155491Y52993D01*
X155486Y52995D01*
X155447Y53025D01*
X155416Y53054D01*
X155389Y53086D01*
X155367Y53115D01*
X155350Y53142D01*
X155338Y53164D01*
X155333Y53178D01*
X155330Y53181D01*
Y53183D01*
X155323Y53205D01*
X155315Y53232D01*
X155306Y53291D01*
X155296Y53352D01*
X155291Y53413D01*
X155289Y53439D01*
Y53491D01*
X155286Y53513D01*
Y54230D01*
X156889D01*
Y53905D01*
D02*
G37*
G36*
X155933Y52517D02*
X155896Y52442D01*
X155860Y52376D01*
X155840Y52344D01*
X155821Y52317D01*
X155804Y52290D01*
X155787Y52268D01*
X155772Y52249D01*
X155760Y52232D01*
X155747Y52219D01*
X155740Y52210D01*
X155735Y52205D01*
X155733Y52202D01*
X156889D01*
Y51895D01*
X155281D01*
Y52146D01*
X155335Y52168D01*
X155384Y52197D01*
X155428Y52229D01*
X155464Y52261D01*
X155496Y52293D01*
X155518Y52317D01*
X155525Y52324D01*
X155533Y52332D01*
X155535Y52337D01*
X155538Y52339D01*
X155577Y52390D01*
X155606Y52439D01*
X155633Y52483D01*
X155652Y52522D01*
X155669Y52554D01*
X155679Y52578D01*
X155682Y52588D01*
X155684Y52595D01*
X155686Y52598D01*
Y52600D01*
X155965D01*
X155933Y52517D01*
D02*
G37*
G36*
X156192Y51436D02*
X156262Y51431D01*
X156331Y51424D01*
X156392Y51414D01*
X156448Y51402D01*
X156497Y51390D01*
X156543Y51375D01*
X156582Y51361D01*
X156618Y51348D01*
X156648Y51334D01*
X156675Y51322D01*
X156694Y51309D01*
X156711Y51300D01*
X156721Y51292D01*
X156728Y51287D01*
X156731Y51285D01*
X156765Y51256D01*
X156792Y51224D01*
X156819Y51190D01*
X156838Y51156D01*
X156858Y51124D01*
X156872Y51090D01*
X156885Y51058D01*
X156894Y51026D01*
X156904Y50997D01*
X156909Y50970D01*
X156914Y50946D01*
X156916Y50926D01*
Y50909D01*
X156919Y50895D01*
Y50885D01*
X156916Y50843D01*
X156911Y50804D01*
X156904Y50768D01*
X156897Y50734D01*
X156885Y50699D01*
X156872Y50670D01*
X156860Y50641D01*
X156845Y50616D01*
X156831Y50594D01*
X156819Y50573D01*
X156806Y50555D01*
X156794Y50543D01*
X156787Y50531D01*
X156780Y50524D01*
X156775Y50519D01*
X156772Y50516D01*
X156743Y50489D01*
X156711Y50468D01*
X156679Y50448D01*
X156648Y50431D01*
X156614Y50416D01*
X156582Y50407D01*
X156518Y50387D01*
X156489Y50382D01*
X156462Y50377D01*
X156438Y50375D01*
X156418Y50372D01*
X156401Y50370D01*
X156387D01*
X156379D01*
X156377D01*
X156335Y50372D01*
X156294Y50375D01*
X156255Y50382D01*
X156221Y50392D01*
X156187Y50402D01*
X156155Y50414D01*
X156126Y50426D01*
X156101Y50438D01*
X156077Y50453D01*
X156057Y50465D01*
X156040Y50477D01*
X156026Y50487D01*
X156013Y50497D01*
X156006Y50504D01*
X156001Y50507D01*
X155999Y50509D01*
X155972Y50536D01*
X155950Y50563D01*
X155930Y50590D01*
X155913Y50619D01*
X155899Y50646D01*
X155886Y50673D01*
X155869Y50724D01*
X155857Y50768D01*
X155855Y50787D01*
X155852Y50804D01*
X155850Y50817D01*
Y50836D01*
X155852Y50868D01*
X155855Y50897D01*
X155872Y50953D01*
X155894Y51002D01*
X155918Y51043D01*
X155943Y51075D01*
X155965Y51102D01*
X155974Y51109D01*
X155982Y51117D01*
X155984Y51119D01*
X155986Y51121D01*
X155938Y51117D01*
X155891Y51112D01*
X155850Y51107D01*
X155813Y51102D01*
X155779Y51095D01*
X155750Y51087D01*
X155723Y51080D01*
X155701Y51073D01*
X155682Y51068D01*
X155665Y51060D01*
X155652Y51053D01*
X155640Y51048D01*
X155633Y51046D01*
X155628Y51041D01*
X155623Y51038D01*
X155594Y51012D01*
X155572Y50985D01*
X155557Y50956D01*
X155545Y50929D01*
X155540Y50907D01*
X155538Y50890D01*
X155535Y50877D01*
Y50873D01*
X155538Y50846D01*
X155543Y50824D01*
X155550Y50804D01*
X155557Y50787D01*
X155564Y50773D01*
X155572Y50763D01*
X155577Y50758D01*
X155579Y50756D01*
X155596Y50738D01*
X155618Y50726D01*
X155640Y50716D01*
X155662Y50709D01*
X155682Y50704D01*
X155699Y50699D01*
X155708Y50697D01*
X155713D01*
X155682Y50399D01*
X155613Y50416D01*
X155552Y50438D01*
X155501Y50463D01*
X155459Y50489D01*
X155425Y50514D01*
X155403Y50533D01*
X155389Y50548D01*
X155384Y50551D01*
Y50553D01*
X155350Y50599D01*
X155325Y50651D01*
X155306Y50702D01*
X155294Y50748D01*
X155286Y50792D01*
X155284Y50809D01*
Y50824D01*
X155281Y50838D01*
Y50855D01*
X155284Y50902D01*
X155289Y50948D01*
X155298Y50990D01*
X155311Y51031D01*
X155328Y51068D01*
X155342Y51102D01*
X155362Y51134D01*
X155379Y51163D01*
X155396Y51190D01*
X155416Y51212D01*
X155430Y51231D01*
X155445Y51248D01*
X155459Y51261D01*
X155469Y51270D01*
X155474Y51275D01*
X155477Y51278D01*
X155516Y51307D01*
X155560Y51331D01*
X155608Y51353D01*
X155657Y51370D01*
X155711Y51387D01*
X155764Y51400D01*
X155867Y51419D01*
X155918Y51424D01*
X155962Y51429D01*
X156006Y51434D01*
X156040Y51436D01*
X156072Y51439D01*
X156094D01*
X156108D01*
X156111D01*
X156113D01*
X156192Y51436D01*
D02*
G37*
G36*
X151361Y54514D02*
X151427Y54507D01*
X151488Y54497D01*
X151544Y54485D01*
X151597Y54468D01*
X151646Y54451D01*
X151692Y54434D01*
X151732Y54414D01*
X151768Y54395D01*
X151800Y54378D01*
X151827Y54358D01*
X151849Y54344D01*
X151866Y54331D01*
X151878Y54322D01*
X151885Y54314D01*
X151888Y54312D01*
X151927Y54273D01*
X151959Y54231D01*
X151988Y54188D01*
X152012Y54144D01*
X152034Y54100D01*
X152051Y54056D01*
X152066Y54014D01*
X152078Y53973D01*
X152088Y53934D01*
X152093Y53900D01*
X152098Y53868D01*
X152102Y53841D01*
Y53819D01*
X152105Y53802D01*
Y53787D01*
X152102Y53741D01*
X152100Y53695D01*
X152093Y53653D01*
X152085Y53612D01*
X152076Y53575D01*
X152066Y53541D01*
X152054Y53509D01*
X152041Y53480D01*
X152029Y53453D01*
X152017Y53429D01*
X152007Y53409D01*
X151997Y53392D01*
X151990Y53380D01*
X151983Y53370D01*
X151980Y53365D01*
X151978Y53363D01*
X151954Y53331D01*
X151924Y53304D01*
X151863Y53253D01*
X151797Y53211D01*
X151734Y53180D01*
X151705Y53165D01*
X151675Y53153D01*
X151651Y53143D01*
X151629Y53136D01*
X151610Y53129D01*
X151597Y53124D01*
X151588Y53121D01*
X151585D01*
X151488Y53436D01*
X151551Y53453D01*
X151602Y53475D01*
X151649Y53497D01*
X151685Y53519D01*
X151712Y53539D01*
X151734Y53556D01*
X151744Y53565D01*
X151749Y53570D01*
X151776Y53607D01*
X151795Y53643D01*
X151810Y53680D01*
X151819Y53717D01*
X151824Y53746D01*
X151827Y53770D01*
X151829Y53780D01*
Y53792D01*
X151827Y53824D01*
X151824Y53853D01*
X151810Y53909D01*
X151790Y53958D01*
X151766Y54000D01*
X151741Y54031D01*
X151722Y54056D01*
X151707Y54070D01*
X151705Y54073D01*
X151702Y54075D01*
X151675Y54095D01*
X151646Y54109D01*
X151614Y54124D01*
X151580Y54136D01*
X151507Y54156D01*
X151436Y54168D01*
X151402Y54173D01*
X151371Y54178D01*
X151344Y54180D01*
X151317D01*
X151297Y54183D01*
X151280D01*
X151270D01*
X151268D01*
X151217Y54180D01*
X151168Y54178D01*
X151122Y54173D01*
X151083Y54166D01*
X151043Y54158D01*
X151009Y54149D01*
X150980Y54139D01*
X150953Y54127D01*
X150929Y54117D01*
X150909Y54107D01*
X150892Y54097D01*
X150878Y54090D01*
X150868Y54083D01*
X150858Y54078D01*
X150856Y54073D01*
X150853D01*
X150831Y54051D01*
X150809Y54029D01*
X150792Y54005D01*
X150777Y53983D01*
X150756Y53934D01*
X150741Y53887D01*
X150731Y53846D01*
X150729Y53829D01*
X150726Y53814D01*
X150724Y53802D01*
Y53785D01*
X150726Y53739D01*
X150736Y53697D01*
X150746Y53658D01*
X150760Y53626D01*
X150773Y53600D01*
X150785Y53582D01*
X150795Y53570D01*
X150797Y53565D01*
X150826Y53534D01*
X150858Y53509D01*
X150890Y53487D01*
X150921Y53473D01*
X150951Y53460D01*
X150973Y53451D01*
X150987Y53448D01*
X150990Y53446D01*
X150992D01*
X150917Y53126D01*
X150848Y53148D01*
X150790Y53175D01*
X150741Y53204D01*
X150699Y53231D01*
X150665Y53255D01*
X150643Y53275D01*
X150629Y53287D01*
X150624Y53290D01*
Y53292D01*
X150592Y53329D01*
X150565Y53365D01*
X150543Y53404D01*
X150521Y53443D01*
X150504Y53482D01*
X150492Y53524D01*
X150480Y53560D01*
X150470Y53600D01*
X150463Y53634D01*
X150458Y53665D01*
X150453Y53695D01*
X150451Y53719D01*
X150448Y53739D01*
Y53768D01*
X150451Y53829D01*
X150458Y53887D01*
X150468Y53944D01*
X150482Y53995D01*
X150499Y54044D01*
X150519Y54088D01*
X150538Y54129D01*
X150558Y54166D01*
X150580Y54200D01*
X150599Y54229D01*
X150619Y54253D01*
X150636Y54275D01*
X150651Y54290D01*
X150660Y54302D01*
X150668Y54309D01*
X150670Y54312D01*
X150714Y54349D01*
X150760Y54380D01*
X150809Y54407D01*
X150861Y54431D01*
X150912Y54451D01*
X150965Y54466D01*
X151014Y54480D01*
X151066Y54490D01*
X151112Y54500D01*
X151153Y54507D01*
X151192Y54510D01*
X151226Y54514D01*
X151253D01*
X151275Y54517D01*
X151287D01*
X151292D01*
X151361Y54514D01*
D02*
G37*
G36*
X151122Y52745D02*
X151085Y52670D01*
X151048Y52604D01*
X151029Y52572D01*
X151009Y52545D01*
X150992Y52519D01*
X150975Y52497D01*
X150961Y52477D01*
X150948Y52460D01*
X150936Y52448D01*
X150929Y52438D01*
X150924Y52433D01*
X150921Y52431D01*
X152078D01*
Y52123D01*
X150470D01*
Y52375D01*
X150524Y52397D01*
X150573Y52426D01*
X150617Y52458D01*
X150653Y52489D01*
X150685Y52521D01*
X150707Y52545D01*
X150714Y52553D01*
X150721Y52560D01*
X150724Y52565D01*
X150726Y52567D01*
X150765Y52619D01*
X150795Y52667D01*
X150821Y52711D01*
X150841Y52750D01*
X150858Y52782D01*
X150868Y52807D01*
X150870Y52816D01*
X150873Y52824D01*
X150875Y52826D01*
Y52828D01*
X151153D01*
X151122Y52745D01*
D02*
G37*
G36*
X151380Y51665D02*
X151451Y51660D01*
X151519Y51652D01*
X151580Y51643D01*
X151636Y51630D01*
X151685Y51618D01*
X151732Y51604D01*
X151771Y51589D01*
X151807Y51577D01*
X151837Y51562D01*
X151863Y51550D01*
X151883Y51538D01*
X151900Y51528D01*
X151910Y51521D01*
X151917Y51516D01*
X151919Y51513D01*
X151954Y51484D01*
X151980Y51452D01*
X152007Y51418D01*
X152027Y51384D01*
X152046Y51352D01*
X152061Y51318D01*
X152073Y51286D01*
X152083Y51255D01*
X152093Y51225D01*
X152098Y51199D01*
X152102Y51174D01*
X152105Y51155D01*
Y51138D01*
X152107Y51123D01*
Y51113D01*
X152105Y51072D01*
X152100Y51033D01*
X152093Y50996D01*
X152085Y50962D01*
X152073Y50928D01*
X152061Y50898D01*
X152049Y50869D01*
X152034Y50845D01*
X152020Y50823D01*
X152007Y50801D01*
X151995Y50784D01*
X151983Y50771D01*
X151976Y50759D01*
X151968Y50752D01*
X151963Y50747D01*
X151961Y50745D01*
X151932Y50718D01*
X151900Y50696D01*
X151868Y50676D01*
X151837Y50659D01*
X151802Y50645D01*
X151771Y50635D01*
X151707Y50615D01*
X151678Y50611D01*
X151651Y50606D01*
X151627Y50603D01*
X151607Y50601D01*
X151590Y50598D01*
X151575D01*
X151568D01*
X151566D01*
X151524Y50601D01*
X151483Y50603D01*
X151444Y50611D01*
X151409Y50620D01*
X151375Y50630D01*
X151344Y50642D01*
X151314Y50654D01*
X151290Y50667D01*
X151266Y50681D01*
X151246Y50693D01*
X151229Y50706D01*
X151214Y50715D01*
X151202Y50725D01*
X151195Y50732D01*
X151190Y50735D01*
X151188Y50737D01*
X151161Y50764D01*
X151139Y50791D01*
X151119Y50818D01*
X151102Y50847D01*
X151087Y50874D01*
X151075Y50901D01*
X151058Y50952D01*
X151046Y50996D01*
X151043Y51016D01*
X151041Y51033D01*
X151039Y51045D01*
Y51064D01*
X151041Y51096D01*
X151043Y51125D01*
X151061Y51181D01*
X151083Y51230D01*
X151107Y51272D01*
X151131Y51303D01*
X151153Y51330D01*
X151163Y51338D01*
X151170Y51345D01*
X151173Y51347D01*
X151175Y51350D01*
X151127Y51345D01*
X151080Y51340D01*
X151039Y51335D01*
X151002Y51330D01*
X150968Y51323D01*
X150939Y51316D01*
X150912Y51308D01*
X150890Y51301D01*
X150870Y51296D01*
X150853Y51289D01*
X150841Y51281D01*
X150829Y51277D01*
X150821Y51274D01*
X150817Y51269D01*
X150812Y51267D01*
X150782Y51240D01*
X150760Y51213D01*
X150746Y51184D01*
X150734Y51157D01*
X150729Y51135D01*
X150726Y51118D01*
X150724Y51106D01*
Y51101D01*
X150726Y51074D01*
X150731Y51052D01*
X150739Y51033D01*
X150746Y51016D01*
X150753Y51001D01*
X150760Y50991D01*
X150765Y50986D01*
X150768Y50984D01*
X150785Y50967D01*
X150807Y50955D01*
X150829Y50945D01*
X150851Y50937D01*
X150870Y50933D01*
X150887Y50928D01*
X150897Y50925D01*
X150902D01*
X150870Y50628D01*
X150802Y50645D01*
X150741Y50667D01*
X150690Y50691D01*
X150648Y50718D01*
X150614Y50742D01*
X150592Y50762D01*
X150577Y50776D01*
X150573Y50779D01*
Y50781D01*
X150538Y50828D01*
X150514Y50879D01*
X150495Y50930D01*
X150482Y50977D01*
X150475Y51020D01*
X150472Y51038D01*
Y51052D01*
X150470Y51067D01*
Y51084D01*
X150472Y51130D01*
X150477Y51177D01*
X150487Y51218D01*
X150499Y51259D01*
X150516Y51296D01*
X150531Y51330D01*
X150551Y51362D01*
X150568Y51391D01*
X150585Y51418D01*
X150604Y51440D01*
X150619Y51460D01*
X150634Y51477D01*
X150648Y51489D01*
X150658Y51499D01*
X150663Y51503D01*
X150665Y51506D01*
X150704Y51535D01*
X150748Y51560D01*
X150797Y51582D01*
X150846Y51599D01*
X150900Y51616D01*
X150953Y51628D01*
X151056Y51648D01*
X151107Y51652D01*
X151151Y51657D01*
X151195Y51662D01*
X151229Y51665D01*
X151261Y51667D01*
X151283D01*
X151297D01*
X151300D01*
X151302D01*
X151380Y51665D01*
D02*
G37*
G36*
X108106Y96265D02*
X108135Y96216D01*
X108167Y96172D01*
X108198Y96136D01*
X108230Y96104D01*
X108255Y96082D01*
X108262Y96075D01*
X108269Y96067D01*
X108274Y96065D01*
X108276Y96062D01*
X108328Y96023D01*
X108377Y95994D01*
X108421Y95967D01*
X108459Y95948D01*
X108491Y95931D01*
X108516Y95921D01*
X108525Y95919D01*
X108533Y95916D01*
X108535Y95914D01*
X108538D01*
Y95635D01*
X108455Y95667D01*
X108379Y95704D01*
X108313Y95740D01*
X108281Y95760D01*
X108255Y95779D01*
X108228Y95797D01*
X108206Y95814D01*
X108186Y95828D01*
X108169Y95840D01*
X108157Y95853D01*
X108147Y95860D01*
X108142Y95865D01*
X108140Y95867D01*
Y94711D01*
X107833D01*
Y96319D01*
X108084D01*
X108106Y96265D01*
D02*
G37*
G36*
X110168Y95457D02*
Y95408D01*
X110165Y95362D01*
Y95318D01*
X110163Y95279D01*
X110160Y95243D01*
X110158Y95208D01*
X110155Y95179D01*
X110153Y95152D01*
X110151Y95128D01*
X110148Y95108D01*
X110146Y95089D01*
X110143Y95077D01*
X110141Y95065D01*
X110138Y95057D01*
Y95052D01*
Y95050D01*
X110128Y95016D01*
X110114Y94984D01*
X110099Y94952D01*
X110085Y94925D01*
X110070Y94903D01*
X110058Y94886D01*
X110050Y94877D01*
X110048Y94872D01*
X110019Y94842D01*
X109989Y94813D01*
X109958Y94791D01*
X109928Y94769D01*
X109902Y94755D01*
X109880Y94742D01*
X109865Y94735D01*
X109862Y94733D01*
X109860D01*
X109836Y94723D01*
X109811Y94715D01*
X109755Y94703D01*
X109699Y94694D01*
X109643Y94689D01*
X109592Y94684D01*
X109570D01*
X109550Y94681D01*
X109514D01*
X109445Y94684D01*
X109384Y94689D01*
X109333Y94696D01*
X109289Y94706D01*
X109253Y94713D01*
X109238Y94718D01*
X109228Y94720D01*
X109218Y94723D01*
X109211Y94725D01*
X109209Y94728D01*
X109206D01*
X109165Y94747D01*
X109128Y94769D01*
X109096Y94791D01*
X109067Y94813D01*
X109048Y94830D01*
X109030Y94845D01*
X109021Y94857D01*
X109018Y94859D01*
X108994Y94891D01*
X108972Y94925D01*
X108957Y94959D01*
X108943Y94991D01*
X108933Y95021D01*
X108926Y95043D01*
X108921Y95057D01*
Y95060D01*
Y95062D01*
X108916Y95086D01*
X108911Y95113D01*
X108908Y95145D01*
X108906Y95177D01*
X108901Y95243D01*
X108896Y95311D01*
Y95343D01*
Y95372D01*
X108894Y95399D01*
Y95423D01*
Y95443D01*
Y95457D01*
Y95467D01*
Y95469D01*
Y96314D01*
X109218D01*
Y95423D01*
Y95389D01*
Y95357D01*
X109221Y95328D01*
Y95301D01*
X109223Y95252D01*
X109226Y95216D01*
X109228Y95187D01*
X109231Y95167D01*
X109233Y95155D01*
Y95150D01*
X109240Y95121D01*
X109253Y95094D01*
X109267Y95072D01*
X109282Y95052D01*
X109294Y95035D01*
X109306Y95023D01*
X109316Y95016D01*
X109318Y95013D01*
X109348Y94994D01*
X109379Y94981D01*
X109414Y94972D01*
X109445Y94964D01*
X109477Y94959D01*
X109501Y94957D01*
X109523D01*
X109570Y94959D01*
X109614Y94967D01*
X109650Y94977D01*
X109679Y94986D01*
X109704Y94996D01*
X109721Y95006D01*
X109731Y95013D01*
X109736Y95016D01*
X109763Y95040D01*
X109782Y95065D01*
X109799Y95091D01*
X109814Y95118D01*
X109821Y95140D01*
X109828Y95157D01*
X109833Y95169D01*
Y95174D01*
X109836Y95187D01*
Y95204D01*
X109838Y95243D01*
X109841Y95287D01*
Y95330D01*
X109843Y95374D01*
Y95394D01*
Y95408D01*
Y95423D01*
Y95433D01*
Y95440D01*
Y95443D01*
Y96314D01*
X110168D01*
Y95457D01*
D02*
G37*
G36*
X18154Y80065D02*
X18183Y80016D01*
X18215Y79972D01*
X18246Y79936D01*
X18278Y79904D01*
X18302Y79882D01*
X18310Y79875D01*
X18317Y79867D01*
X18322Y79865D01*
X18324Y79862D01*
X18376Y79823D01*
X18424Y79794D01*
X18468Y79767D01*
X18507Y79748D01*
X18539Y79731D01*
X18564Y79721D01*
X18573Y79719D01*
X18581Y79716D01*
X18583Y79714D01*
X18586D01*
Y79435D01*
X18503Y79467D01*
X18427Y79504D01*
X18361Y79540D01*
X18329Y79560D01*
X18302Y79579D01*
X18276Y79597D01*
X18254Y79614D01*
X18234Y79628D01*
X18217Y79640D01*
X18205Y79653D01*
X18195Y79660D01*
X18190Y79665D01*
X18188Y79667D01*
Y78511D01*
X17880D01*
Y80119D01*
X18132D01*
X18154Y80065D01*
D02*
G37*
G36*
X20215Y78511D02*
X19891D01*
Y79179D01*
X19788D01*
X19754Y79177D01*
X19727Y79174D01*
X19705Y79169D01*
X19688Y79167D01*
X19676Y79162D01*
X19669Y79160D01*
X19666D01*
X19647Y79152D01*
X19630Y79143D01*
X19598Y79121D01*
X19586Y79111D01*
X19576Y79101D01*
X19571Y79096D01*
X19569Y79094D01*
X19559Y79084D01*
X19549Y79069D01*
X19522Y79035D01*
X19493Y78999D01*
X19466Y78957D01*
X19440Y78918D01*
X19427Y78904D01*
X19418Y78886D01*
X19410Y78874D01*
X19403Y78865D01*
X19400Y78860D01*
X19398Y78857D01*
X19169Y78511D01*
X18781D01*
X18976Y78823D01*
X18998Y78857D01*
X19017Y78886D01*
X19034Y78916D01*
X19054Y78943D01*
X19083Y78987D01*
X19110Y79023D01*
X19132Y79050D01*
X19147Y79067D01*
X19156Y79079D01*
X19159Y79082D01*
X19186Y79109D01*
X19215Y79133D01*
X19244Y79157D01*
X19271Y79177D01*
X19296Y79194D01*
X19315Y79206D01*
X19327Y79213D01*
X19330Y79216D01*
X19332D01*
X19293Y79223D01*
X19259Y79230D01*
X19225Y79240D01*
X19196Y79252D01*
X19166Y79265D01*
X19139Y79277D01*
X19117Y79289D01*
X19095Y79301D01*
X19078Y79313D01*
X19061Y79326D01*
X19049Y79338D01*
X19037Y79345D01*
X19030Y79355D01*
X19022Y79360D01*
X19017Y79362D01*
Y79365D01*
X18998Y79387D01*
X18981Y79411D01*
X18956Y79460D01*
X18937Y79511D01*
X18922Y79557D01*
X18915Y79599D01*
X18912Y79616D01*
Y79633D01*
X18910Y79645D01*
Y79655D01*
Y79660D01*
Y79662D01*
X18912Y79714D01*
X18920Y79762D01*
X18932Y79804D01*
X18944Y79840D01*
X18959Y79872D01*
X18969Y79894D01*
X18978Y79909D01*
X18981Y79914D01*
X19010Y79953D01*
X19039Y79984D01*
X19071Y80011D01*
X19100Y80033D01*
X19127Y80050D01*
X19149Y80063D01*
X19164Y80067D01*
X19166Y80070D01*
X19169D01*
X19191Y80077D01*
X19217Y80085D01*
X19276Y80094D01*
X19337Y80104D01*
X19398Y80109D01*
X19425Y80111D01*
X19476D01*
X19498Y80114D01*
X20215D01*
Y78511D01*
D02*
G37*
G36*
X16946Y80116D02*
X16987Y80111D01*
X17024Y80104D01*
X17061Y80092D01*
X17092Y80080D01*
X17121Y80067D01*
X17148Y80050D01*
X17173Y80036D01*
X17195Y80021D01*
X17214Y80006D01*
X17231Y79992D01*
X17244Y79979D01*
X17253Y79967D01*
X17263Y79960D01*
X17265Y79955D01*
X17268Y79953D01*
X17295Y79914D01*
X17319Y79867D01*
X17341Y79818D01*
X17358Y79767D01*
X17373Y79714D01*
X17385Y79660D01*
X17404Y79553D01*
X17412Y79501D01*
X17417Y79455D01*
X17419Y79413D01*
X17422Y79374D01*
X17424Y79345D01*
Y79321D01*
Y79306D01*
Y79304D01*
Y79301D01*
X17422Y79218D01*
X17417Y79140D01*
X17412Y79072D01*
X17402Y79006D01*
X17392Y78947D01*
X17380Y78896D01*
X17366Y78850D01*
X17353Y78808D01*
X17341Y78772D01*
X17326Y78740D01*
X17314Y78716D01*
X17304Y78696D01*
X17295Y78679D01*
X17287Y78669D01*
X17285Y78662D01*
X17282Y78659D01*
X17256Y78628D01*
X17224Y78601D01*
X17195Y78576D01*
X17163Y78557D01*
X17131Y78540D01*
X17099Y78525D01*
X17068Y78513D01*
X17039Y78503D01*
X17012Y78496D01*
X16985Y78491D01*
X16963Y78486D01*
X16943Y78484D01*
X16926D01*
X16914Y78481D01*
X16904D01*
X16863Y78484D01*
X16821Y78489D01*
X16785Y78496D01*
X16751Y78508D01*
X16719Y78520D01*
X16687Y78533D01*
X16660Y78547D01*
X16636Y78564D01*
X16614Y78579D01*
X16597Y78594D01*
X16580Y78606D01*
X16568Y78620D01*
X16555Y78630D01*
X16548Y78637D01*
X16546Y78642D01*
X16543Y78645D01*
X16516Y78684D01*
X16492Y78730D01*
X16470Y78779D01*
X16451Y78830D01*
X16436Y78884D01*
X16424Y78938D01*
X16404Y79045D01*
X16397Y79096D01*
X16392Y79145D01*
X16389Y79186D01*
X16387Y79226D01*
X16385Y79255D01*
Y79279D01*
Y79294D01*
Y79296D01*
Y79299D01*
X16387Y79382D01*
X16392Y79457D01*
X16399Y79528D01*
X16409Y79594D01*
X16421Y79653D01*
X16433Y79706D01*
X16448Y79753D01*
X16463Y79796D01*
X16477Y79833D01*
X16492Y79865D01*
X16504Y79892D01*
X16516Y79914D01*
X16526Y79928D01*
X16533Y79940D01*
X16538Y79948D01*
X16541Y79950D01*
X16568Y79979D01*
X16594Y80006D01*
X16624Y80028D01*
X16653Y80048D01*
X16682Y80065D01*
X16714Y80077D01*
X16743Y80089D01*
X16773Y80097D01*
X16799Y80104D01*
X16824Y80109D01*
X16846Y80114D01*
X16865Y80116D01*
X16882Y80119D01*
X16904D01*
X16946Y80116D01*
D02*
G37*
G36*
X19598Y84598D02*
X19274D01*
Y85267D01*
X19171D01*
X19137Y85265D01*
X19110Y85262D01*
X19088Y85257D01*
X19071Y85255D01*
X19059Y85250D01*
X19051Y85247D01*
X19049D01*
X19030Y85240D01*
X19013Y85230D01*
X18981Y85208D01*
X18969Y85199D01*
X18959Y85189D01*
X18954Y85184D01*
X18951Y85182D01*
X18942Y85172D01*
X18932Y85157D01*
X18905Y85123D01*
X18876Y85087D01*
X18849Y85045D01*
X18822Y85006D01*
X18810Y84991D01*
X18800Y84974D01*
X18793Y84962D01*
X18786Y84952D01*
X18783Y84947D01*
X18781Y84945D01*
X18551Y84598D01*
X18163D01*
X18359Y84911D01*
X18381Y84945D01*
X18400Y84974D01*
X18417Y85004D01*
X18437Y85030D01*
X18466Y85074D01*
X18493Y85111D01*
X18515Y85138D01*
X18529Y85155D01*
X18539Y85167D01*
X18542Y85169D01*
X18568Y85196D01*
X18598Y85221D01*
X18627Y85245D01*
X18654Y85265D01*
X18678Y85282D01*
X18698Y85294D01*
X18710Y85301D01*
X18712Y85304D01*
X18715D01*
X18676Y85311D01*
X18642Y85318D01*
X18607Y85328D01*
X18578Y85340D01*
X18549Y85352D01*
X18522Y85365D01*
X18500Y85377D01*
X18478Y85389D01*
X18461Y85401D01*
X18444Y85413D01*
X18432Y85426D01*
X18420Y85433D01*
X18412Y85443D01*
X18405Y85448D01*
X18400Y85450D01*
Y85453D01*
X18381Y85474D01*
X18363Y85499D01*
X18339Y85548D01*
X18319Y85599D01*
X18305Y85645D01*
X18298Y85687D01*
X18295Y85704D01*
Y85721D01*
X18293Y85733D01*
Y85743D01*
Y85748D01*
Y85750D01*
X18295Y85801D01*
X18302Y85850D01*
X18315Y85892D01*
X18327Y85928D01*
X18341Y85960D01*
X18351Y85982D01*
X18361Y85997D01*
X18363Y86001D01*
X18393Y86041D01*
X18422Y86072D01*
X18454Y86099D01*
X18483Y86121D01*
X18510Y86138D01*
X18532Y86150D01*
X18546Y86155D01*
X18549Y86158D01*
X18551D01*
X18573Y86165D01*
X18600Y86172D01*
X18659Y86182D01*
X18720Y86192D01*
X18781Y86197D01*
X18808Y86199D01*
X18859D01*
X18881Y86202D01*
X19598D01*
Y84598D01*
D02*
G37*
G36*
X18051Y85892D02*
X17356D01*
X17431Y85787D01*
X17500Y85679D01*
X17558Y85575D01*
X17585Y85526D01*
X17607Y85479D01*
X17629Y85435D01*
X17649Y85396D01*
X17663Y85360D01*
X17675Y85330D01*
X17685Y85306D01*
X17695Y85286D01*
X17697Y85277D01*
X17700Y85272D01*
X17722Y85208D01*
X17744Y85145D01*
X17761Y85082D01*
X17775Y85021D01*
X17788Y84965D01*
X17800Y84908D01*
X17810Y84855D01*
X17817Y84806D01*
X17822Y84762D01*
X17827Y84720D01*
X17831Y84686D01*
X17834Y84655D01*
Y84630D01*
X17836Y84613D01*
Y84603D01*
Y84598D01*
X17541D01*
X17539Y84679D01*
X17531Y84762D01*
X17522Y84842D01*
X17514Y84879D01*
X17507Y84916D01*
X17502Y84950D01*
X17495Y84982D01*
X17490Y85008D01*
X17483Y85033D01*
X17480Y85050D01*
X17475Y85065D01*
X17473Y85074D01*
Y85077D01*
X17444Y85177D01*
X17412Y85272D01*
X17395Y85316D01*
X17378Y85357D01*
X17361Y85396D01*
X17344Y85433D01*
X17329Y85467D01*
X17314Y85496D01*
X17302Y85523D01*
X17290Y85545D01*
X17280Y85562D01*
X17273Y85577D01*
X17270Y85584D01*
X17268Y85587D01*
X17244Y85631D01*
X17217Y85672D01*
X17192Y85709D01*
X17170Y85745D01*
X17146Y85777D01*
X17124Y85809D01*
X17104Y85835D01*
X17085Y85860D01*
X17068Y85882D01*
X17051Y85901D01*
X17036Y85918D01*
X17024Y85931D01*
X17014Y85940D01*
X17007Y85950D01*
X17004Y85953D01*
X17002Y85955D01*
Y86177D01*
X18051D01*
Y85892D01*
D02*
G37*
G36*
X18222Y92314D02*
X18290Y92301D01*
X18351Y92282D01*
X18378Y92272D01*
X18403Y92263D01*
X18427Y92253D01*
X18446Y92243D01*
X18463Y92233D01*
X18476Y92224D01*
X18488Y92216D01*
X18495Y92211D01*
X18500Y92209D01*
X18503Y92206D01*
X18527Y92184D01*
X18551Y92160D01*
X18571Y92133D01*
X18590Y92104D01*
X18620Y92043D01*
X18642Y91984D01*
X18651Y91955D01*
X18656Y91928D01*
X18664Y91906D01*
X18666Y91884D01*
X18671Y91867D01*
Y91855D01*
X18673Y91845D01*
Y91843D01*
X18368Y91813D01*
X18363Y91860D01*
X18356Y91901D01*
X18344Y91933D01*
X18334Y91960D01*
X18322Y91982D01*
X18315Y91994D01*
X18307Y92004D01*
X18305Y92006D01*
X18281Y92026D01*
X18256Y92040D01*
X18229Y92050D01*
X18205Y92058D01*
X18185Y92062D01*
X18166Y92065D01*
X18151D01*
X18117Y92062D01*
X18085Y92055D01*
X18058Y92048D01*
X18036Y92038D01*
X18019Y92026D01*
X18007Y92019D01*
X18000Y92011D01*
X17997Y92009D01*
X17978Y91987D01*
X17966Y91960D01*
X17956Y91933D01*
X17949Y91909D01*
X17944Y91887D01*
X17941Y91867D01*
Y91855D01*
Y91850D01*
X17944Y91816D01*
X17951Y91782D01*
X17961Y91750D01*
X17973Y91721D01*
X17985Y91696D01*
X17995Y91679D01*
X18002Y91667D01*
X18005Y91662D01*
X18014Y91648D01*
X18029Y91631D01*
X18046Y91614D01*
X18066Y91594D01*
X18107Y91550D01*
X18151Y91506D01*
X18193Y91467D01*
X18212Y91448D01*
X18227Y91433D01*
X18241Y91421D01*
X18251Y91408D01*
X18259Y91404D01*
X18261Y91401D01*
X18307Y91357D01*
X18351Y91316D01*
X18388Y91277D01*
X18424Y91240D01*
X18456Y91206D01*
X18483Y91174D01*
X18510Y91145D01*
X18532Y91118D01*
X18549Y91096D01*
X18566Y91074D01*
X18578Y91057D01*
X18590Y91043D01*
X18598Y91030D01*
X18603Y91023D01*
X18607Y91018D01*
Y91016D01*
X18637Y90962D01*
X18659Y90908D01*
X18678Y90857D01*
X18690Y90808D01*
X18700Y90769D01*
X18703Y90752D01*
X18705Y90737D01*
X18708Y90728D01*
X18710Y90718D01*
Y90713D01*
Y90711D01*
X17634D01*
Y90996D01*
X18246D01*
X18227Y91028D01*
X18205Y91052D01*
X18198Y91065D01*
X18190Y91072D01*
X18185Y91077D01*
X18183Y91079D01*
X18173Y91089D01*
X18163Y91099D01*
X18136Y91126D01*
X18107Y91155D01*
X18076Y91184D01*
X18046Y91213D01*
X18022Y91235D01*
X18014Y91245D01*
X18007Y91252D01*
X18002Y91255D01*
X18000Y91257D01*
X17949Y91304D01*
X17907Y91345D01*
X17871Y91382D01*
X17844Y91411D01*
X17822Y91433D01*
X17807Y91450D01*
X17800Y91460D01*
X17797Y91462D01*
X17768Y91501D01*
X17741Y91538D01*
X17719Y91572D01*
X17702Y91604D01*
X17690Y91628D01*
X17680Y91648D01*
X17675Y91660D01*
X17673Y91665D01*
X17661Y91701D01*
X17651Y91740D01*
X17644Y91774D01*
X17639Y91806D01*
X17636Y91833D01*
X17634Y91855D01*
Y91867D01*
Y91872D01*
X17636Y91906D01*
X17639Y91940D01*
X17656Y92001D01*
X17678Y92055D01*
X17702Y92102D01*
X17727Y92138D01*
X17739Y92155D01*
X17749Y92167D01*
X17758Y92177D01*
X17766Y92184D01*
X17768Y92187D01*
X17771Y92189D01*
X17797Y92211D01*
X17824Y92233D01*
X17856Y92250D01*
X17885Y92265D01*
X17949Y92287D01*
X18007Y92301D01*
X18036Y92309D01*
X18061Y92311D01*
X18085Y92314D01*
X18105Y92316D01*
X18122Y92319D01*
X18183D01*
X18222Y92314D01*
D02*
G37*
G36*
X16980Y92316D02*
X17019Y92311D01*
X17056Y92304D01*
X17090Y92294D01*
X17124Y92285D01*
X17153Y92270D01*
X17183Y92258D01*
X17207Y92243D01*
X17229Y92228D01*
X17248Y92216D01*
X17265Y92202D01*
X17280Y92192D01*
X17292Y92182D01*
X17300Y92175D01*
X17304Y92170D01*
X17307Y92167D01*
X17331Y92138D01*
X17353Y92109D01*
X17373Y92077D01*
X17390Y92043D01*
X17404Y92011D01*
X17417Y91977D01*
X17434Y91916D01*
X17439Y91887D01*
X17444Y91860D01*
X17446Y91835D01*
X17448Y91816D01*
X17451Y91799D01*
Y91784D01*
Y91777D01*
Y91774D01*
X17448Y91731D01*
X17446Y91691D01*
X17429Y91616D01*
X17419Y91582D01*
X17407Y91550D01*
X17395Y91523D01*
X17383Y91496D01*
X17370Y91472D01*
X17358Y91452D01*
X17346Y91435D01*
X17336Y91421D01*
X17326Y91408D01*
X17319Y91401D01*
X17317Y91396D01*
X17314Y91394D01*
X17287Y91369D01*
X17261Y91347D01*
X17234Y91328D01*
X17207Y91311D01*
X17178Y91296D01*
X17151Y91284D01*
X17099Y91267D01*
X17056Y91257D01*
X17039Y91255D01*
X17021Y91252D01*
X17007Y91250D01*
X16990D01*
X16958Y91252D01*
X16926Y91255D01*
X16870Y91272D01*
X16821Y91291D01*
X16780Y91318D01*
X16746Y91343D01*
X16721Y91362D01*
X16712Y91372D01*
X16704Y91379D01*
X16702Y91382D01*
X16699Y91384D01*
X16704Y91335D01*
X16709Y91289D01*
X16714Y91247D01*
X16721Y91211D01*
X16729Y91177D01*
X16736Y91147D01*
X16743Y91123D01*
X16748Y91099D01*
X16756Y91079D01*
X16763Y91062D01*
X16768Y91050D01*
X16775Y91038D01*
X16777Y91030D01*
X16782Y91025D01*
X16785Y91021D01*
X16812Y90991D01*
X16838Y90972D01*
X16865Y90957D01*
X16890Y90945D01*
X16912Y90940D01*
X16929Y90938D01*
X16941Y90935D01*
X16946D01*
X16973Y90938D01*
X16997Y90943D01*
X17017Y90947D01*
X17036Y90957D01*
X17048Y90964D01*
X17061Y90969D01*
X17065Y90974D01*
X17068Y90977D01*
X17082Y90996D01*
X17095Y91016D01*
X17104Y91040D01*
X17112Y91062D01*
X17117Y91082D01*
X17119Y91099D01*
X17121Y91108D01*
Y91113D01*
X17419Y91079D01*
X17404Y91011D01*
X17383Y90950D01*
X17358Y90899D01*
X17334Y90857D01*
X17312Y90823D01*
X17292Y90801D01*
X17278Y90786D01*
X17273Y90784D01*
Y90781D01*
X17226Y90747D01*
X17175Y90723D01*
X17124Y90706D01*
X17075Y90694D01*
X17034Y90686D01*
X17014Y90684D01*
X16999D01*
X16985Y90681D01*
X16968D01*
X16921Y90684D01*
X16875Y90689D01*
X16834Y90698D01*
X16792Y90711D01*
X16756Y90725D01*
X16721Y90742D01*
X16690Y90759D01*
X16660Y90779D01*
X16634Y90796D01*
X16612Y90813D01*
X16592Y90830D01*
X16575Y90845D01*
X16563Y90857D01*
X16553Y90867D01*
X16548Y90872D01*
X16546Y90874D01*
X16516Y90913D01*
X16492Y90957D01*
X16470Y91006D01*
X16451Y91055D01*
X16436Y91108D01*
X16421Y91160D01*
X16402Y91264D01*
X16397Y91313D01*
X16392Y91360D01*
X16387Y91401D01*
X16385Y91438D01*
X16382Y91467D01*
Y91489D01*
Y91504D01*
Y91509D01*
X16385Y91587D01*
X16389Y91660D01*
X16397Y91726D01*
X16407Y91787D01*
X16419Y91843D01*
X16431Y91894D01*
X16446Y91940D01*
X16460Y91979D01*
X16475Y92016D01*
X16489Y92045D01*
X16502Y92072D01*
X16514Y92092D01*
X16524Y92109D01*
X16531Y92119D01*
X16536Y92126D01*
X16538Y92128D01*
X16568Y92163D01*
X16599Y92192D01*
X16634Y92216D01*
X16668Y92238D01*
X16699Y92258D01*
X16734Y92272D01*
X16765Y92285D01*
X16797Y92294D01*
X16826Y92301D01*
X16853Y92309D01*
X16878Y92314D01*
X16897Y92316D01*
X16914Y92319D01*
X16939D01*
X16980Y92316D01*
D02*
G37*
G36*
X20218Y90711D02*
X19893D01*
Y91379D01*
X19791D01*
X19757Y91377D01*
X19730Y91374D01*
X19708Y91369D01*
X19691Y91367D01*
X19679Y91362D01*
X19671Y91360D01*
X19669D01*
X19649Y91352D01*
X19632Y91343D01*
X19601Y91321D01*
X19588Y91311D01*
X19579Y91301D01*
X19574Y91296D01*
X19571Y91294D01*
X19561Y91284D01*
X19552Y91269D01*
X19525Y91235D01*
X19496Y91199D01*
X19469Y91157D01*
X19442Y91118D01*
X19430Y91104D01*
X19420Y91086D01*
X19413Y91074D01*
X19405Y91065D01*
X19403Y91060D01*
X19400Y91057D01*
X19171Y90711D01*
X18783D01*
X18978Y91023D01*
X19000Y91057D01*
X19020Y91086D01*
X19037Y91116D01*
X19056Y91142D01*
X19086Y91186D01*
X19113Y91223D01*
X19135Y91250D01*
X19149Y91267D01*
X19159Y91279D01*
X19161Y91282D01*
X19188Y91308D01*
X19217Y91333D01*
X19247Y91357D01*
X19274Y91377D01*
X19298Y91394D01*
X19318Y91406D01*
X19330Y91413D01*
X19332Y91416D01*
X19335D01*
X19296Y91423D01*
X19261Y91430D01*
X19227Y91440D01*
X19198Y91452D01*
X19169Y91465D01*
X19142Y91477D01*
X19120Y91489D01*
X19098Y91501D01*
X19081Y91513D01*
X19064Y91526D01*
X19051Y91538D01*
X19039Y91545D01*
X19032Y91555D01*
X19025Y91560D01*
X19020Y91562D01*
Y91565D01*
X19000Y91587D01*
X18983Y91611D01*
X18959Y91660D01*
X18939Y91711D01*
X18925Y91757D01*
X18917Y91799D01*
X18915Y91816D01*
Y91833D01*
X18912Y91845D01*
Y91855D01*
Y91860D01*
Y91862D01*
X18915Y91914D01*
X18922Y91962D01*
X18934Y92004D01*
X18947Y92040D01*
X18961Y92072D01*
X18971Y92094D01*
X18981Y92109D01*
X18983Y92114D01*
X19013Y92153D01*
X19042Y92184D01*
X19073Y92211D01*
X19103Y92233D01*
X19130Y92250D01*
X19152Y92263D01*
X19166Y92267D01*
X19169Y92270D01*
X19171D01*
X19193Y92277D01*
X19220Y92285D01*
X19278Y92294D01*
X19339Y92304D01*
X19400Y92309D01*
X19427Y92311D01*
X19478D01*
X19500Y92314D01*
X20218D01*
Y90711D01*
D02*
G37*
G36*
X18234Y98314D02*
X18302Y98302D01*
X18363Y98282D01*
X18390Y98272D01*
X18415Y98263D01*
X18439Y98253D01*
X18459Y98243D01*
X18476Y98233D01*
X18488Y98224D01*
X18500Y98216D01*
X18507Y98211D01*
X18512Y98209D01*
X18515Y98206D01*
X18539Y98184D01*
X18564Y98160D01*
X18583Y98133D01*
X18603Y98104D01*
X18632Y98043D01*
X18654Y97984D01*
X18664Y97955D01*
X18668Y97928D01*
X18676Y97906D01*
X18678Y97884D01*
X18683Y97867D01*
Y97855D01*
X18686Y97845D01*
Y97843D01*
X18381Y97813D01*
X18376Y97860D01*
X18368Y97901D01*
X18356Y97933D01*
X18346Y97960D01*
X18334Y97982D01*
X18327Y97994D01*
X18319Y98004D01*
X18317Y98006D01*
X18293Y98026D01*
X18268Y98040D01*
X18241Y98050D01*
X18217Y98058D01*
X18198Y98062D01*
X18178Y98065D01*
X18163D01*
X18129Y98062D01*
X18098Y98055D01*
X18071Y98048D01*
X18049Y98038D01*
X18032Y98026D01*
X18019Y98018D01*
X18012Y98011D01*
X18010Y98009D01*
X17990Y97987D01*
X17978Y97960D01*
X17968Y97933D01*
X17961Y97909D01*
X17956Y97887D01*
X17954Y97867D01*
Y97855D01*
Y97850D01*
X17956Y97816D01*
X17963Y97782D01*
X17973Y97750D01*
X17985Y97721D01*
X17997Y97696D01*
X18007Y97679D01*
X18014Y97667D01*
X18017Y97662D01*
X18027Y97648D01*
X18041Y97631D01*
X18058Y97614D01*
X18078Y97594D01*
X18119Y97550D01*
X18163Y97506D01*
X18205Y97467D01*
X18224Y97448D01*
X18239Y97433D01*
X18254Y97421D01*
X18263Y97408D01*
X18271Y97404D01*
X18273Y97401D01*
X18319Y97357D01*
X18363Y97316D01*
X18400Y97277D01*
X18437Y97240D01*
X18468Y97206D01*
X18495Y97174D01*
X18522Y97145D01*
X18544Y97118D01*
X18561Y97096D01*
X18578Y97074D01*
X18590Y97057D01*
X18603Y97043D01*
X18610Y97030D01*
X18615Y97023D01*
X18620Y97018D01*
Y97016D01*
X18649Y96962D01*
X18671Y96908D01*
X18690Y96857D01*
X18703Y96808D01*
X18712Y96769D01*
X18715Y96752D01*
X18717Y96737D01*
X18720Y96728D01*
X18722Y96718D01*
Y96713D01*
Y96711D01*
X17646D01*
Y96996D01*
X18259D01*
X18239Y97028D01*
X18217Y97052D01*
X18210Y97065D01*
X18202Y97072D01*
X18198Y97077D01*
X18195Y97079D01*
X18185Y97089D01*
X18176Y97099D01*
X18149Y97126D01*
X18119Y97155D01*
X18088Y97184D01*
X18058Y97213D01*
X18034Y97235D01*
X18027Y97245D01*
X18019Y97252D01*
X18014Y97255D01*
X18012Y97257D01*
X17961Y97304D01*
X17919Y97345D01*
X17883Y97382D01*
X17856Y97411D01*
X17834Y97433D01*
X17819Y97450D01*
X17812Y97460D01*
X17810Y97462D01*
X17780Y97501D01*
X17753Y97538D01*
X17731Y97572D01*
X17714Y97604D01*
X17702Y97628D01*
X17692Y97648D01*
X17688Y97660D01*
X17685Y97665D01*
X17673Y97701D01*
X17663Y97740D01*
X17656Y97774D01*
X17651Y97806D01*
X17649Y97833D01*
X17646Y97855D01*
Y97867D01*
Y97872D01*
X17649Y97906D01*
X17651Y97940D01*
X17668Y98001D01*
X17690Y98055D01*
X17714Y98102D01*
X17739Y98138D01*
X17751Y98155D01*
X17761Y98167D01*
X17771Y98177D01*
X17778Y98184D01*
X17780Y98187D01*
X17783Y98189D01*
X17810Y98211D01*
X17836Y98233D01*
X17868Y98250D01*
X17897Y98265D01*
X17961Y98287D01*
X18019Y98302D01*
X18049Y98309D01*
X18073Y98311D01*
X18098Y98314D01*
X18117Y98316D01*
X18134Y98319D01*
X18195D01*
X18234Y98314D01*
D02*
G37*
G36*
X16902Y98316D02*
X16948Y98311D01*
X16990Y98302D01*
X17031Y98289D01*
X17068Y98272D01*
X17102Y98258D01*
X17134Y98238D01*
X17163Y98221D01*
X17190Y98204D01*
X17212Y98184D01*
X17231Y98170D01*
X17248Y98155D01*
X17261Y98141D01*
X17270Y98131D01*
X17275Y98126D01*
X17278Y98123D01*
X17307Y98084D01*
X17331Y98040D01*
X17353Y97992D01*
X17370Y97943D01*
X17387Y97889D01*
X17400Y97835D01*
X17419Y97733D01*
X17424Y97682D01*
X17429Y97638D01*
X17434Y97594D01*
X17436Y97560D01*
X17439Y97528D01*
Y97506D01*
Y97492D01*
Y97489D01*
Y97487D01*
X17436Y97408D01*
X17431Y97338D01*
X17424Y97269D01*
X17414Y97208D01*
X17402Y97152D01*
X17390Y97104D01*
X17375Y97057D01*
X17361Y97018D01*
X17348Y96982D01*
X17334Y96952D01*
X17322Y96925D01*
X17309Y96906D01*
X17300Y96889D01*
X17292Y96879D01*
X17287Y96872D01*
X17285Y96869D01*
X17256Y96835D01*
X17224Y96808D01*
X17190Y96781D01*
X17156Y96762D01*
X17124Y96742D01*
X17090Y96728D01*
X17058Y96715D01*
X17026Y96706D01*
X16997Y96696D01*
X16970Y96691D01*
X16946Y96686D01*
X16926Y96684D01*
X16909D01*
X16895Y96681D01*
X16885D01*
X16843Y96684D01*
X16804Y96689D01*
X16768Y96696D01*
X16734Y96703D01*
X16699Y96715D01*
X16670Y96728D01*
X16641Y96740D01*
X16616Y96755D01*
X16594Y96769D01*
X16572Y96781D01*
X16555Y96794D01*
X16543Y96806D01*
X16531Y96813D01*
X16524Y96820D01*
X16519Y96825D01*
X16516Y96828D01*
X16489Y96857D01*
X16468Y96889D01*
X16448Y96921D01*
X16431Y96952D01*
X16416Y96986D01*
X16407Y97018D01*
X16387Y97082D01*
X16382Y97111D01*
X16377Y97138D01*
X16375Y97162D01*
X16372Y97182D01*
X16370Y97199D01*
Y97213D01*
Y97221D01*
Y97223D01*
X16372Y97264D01*
X16375Y97306D01*
X16382Y97345D01*
X16392Y97379D01*
X16402Y97413D01*
X16414Y97445D01*
X16426Y97474D01*
X16438Y97499D01*
X16453Y97523D01*
X16465Y97543D01*
X16477Y97560D01*
X16487Y97574D01*
X16497Y97587D01*
X16504Y97594D01*
X16507Y97599D01*
X16509Y97601D01*
X16536Y97628D01*
X16563Y97650D01*
X16590Y97670D01*
X16619Y97687D01*
X16646Y97701D01*
X16672Y97714D01*
X16724Y97731D01*
X16768Y97743D01*
X16787Y97745D01*
X16804Y97748D01*
X16816Y97750D01*
X16836D01*
X16868Y97748D01*
X16897Y97745D01*
X16953Y97728D01*
X17002Y97706D01*
X17043Y97682D01*
X17075Y97657D01*
X17102Y97635D01*
X17109Y97626D01*
X17117Y97618D01*
X17119Y97616D01*
X17121Y97614D01*
X17117Y97662D01*
X17112Y97709D01*
X17107Y97750D01*
X17102Y97787D01*
X17095Y97821D01*
X17087Y97850D01*
X17080Y97877D01*
X17073Y97899D01*
X17068Y97918D01*
X17061Y97935D01*
X17053Y97948D01*
X17048Y97960D01*
X17046Y97967D01*
X17041Y97972D01*
X17039Y97977D01*
X17012Y98006D01*
X16985Y98028D01*
X16956Y98043D01*
X16929Y98055D01*
X16907Y98060D01*
X16890Y98062D01*
X16878Y98065D01*
X16873D01*
X16846Y98062D01*
X16824Y98058D01*
X16804Y98050D01*
X16787Y98043D01*
X16773Y98036D01*
X16763Y98028D01*
X16758Y98023D01*
X16756Y98021D01*
X16738Y98004D01*
X16726Y97982D01*
X16716Y97960D01*
X16709Y97938D01*
X16704Y97918D01*
X16699Y97901D01*
X16697Y97892D01*
Y97887D01*
X16399Y97918D01*
X16416Y97987D01*
X16438Y98048D01*
X16463Y98099D01*
X16489Y98141D01*
X16514Y98175D01*
X16533Y98197D01*
X16548Y98211D01*
X16551Y98216D01*
X16553D01*
X16599Y98250D01*
X16651Y98275D01*
X16702Y98294D01*
X16748Y98306D01*
X16792Y98314D01*
X16809Y98316D01*
X16824D01*
X16838Y98319D01*
X16856D01*
X16902Y98316D01*
D02*
G37*
G36*
X20230Y96711D02*
X19906D01*
Y97379D01*
X19803D01*
X19769Y97377D01*
X19742Y97374D01*
X19720Y97369D01*
X19703Y97367D01*
X19691Y97362D01*
X19683Y97360D01*
X19681D01*
X19661Y97352D01*
X19644Y97343D01*
X19613Y97321D01*
X19601Y97311D01*
X19591Y97301D01*
X19586Y97296D01*
X19583Y97294D01*
X19574Y97284D01*
X19564Y97269D01*
X19537Y97235D01*
X19508Y97199D01*
X19481Y97157D01*
X19454Y97118D01*
X19442Y97104D01*
X19432Y97086D01*
X19425Y97074D01*
X19418Y97065D01*
X19415Y97060D01*
X19413Y97057D01*
X19183Y96711D01*
X18795D01*
X18991Y97023D01*
X19013Y97057D01*
X19032Y97086D01*
X19049Y97116D01*
X19069Y97142D01*
X19098Y97186D01*
X19125Y97223D01*
X19147Y97250D01*
X19161Y97267D01*
X19171Y97279D01*
X19173Y97282D01*
X19200Y97308D01*
X19230Y97333D01*
X19259Y97357D01*
X19286Y97377D01*
X19310Y97394D01*
X19330Y97406D01*
X19342Y97413D01*
X19344Y97416D01*
X19347D01*
X19308Y97423D01*
X19274Y97430D01*
X19239Y97440D01*
X19210Y97452D01*
X19181Y97465D01*
X19154Y97477D01*
X19132Y97489D01*
X19110Y97501D01*
X19093Y97513D01*
X19076Y97526D01*
X19064Y97538D01*
X19051Y97545D01*
X19044Y97555D01*
X19037Y97560D01*
X19032Y97562D01*
Y97565D01*
X19013Y97587D01*
X18995Y97611D01*
X18971Y97660D01*
X18951Y97711D01*
X18937Y97757D01*
X18929Y97799D01*
X18927Y97816D01*
Y97833D01*
X18925Y97845D01*
Y97855D01*
Y97860D01*
Y97862D01*
X18927Y97914D01*
X18934Y97962D01*
X18947Y98004D01*
X18959Y98040D01*
X18973Y98072D01*
X18983Y98094D01*
X18993Y98109D01*
X18995Y98114D01*
X19025Y98153D01*
X19054Y98184D01*
X19086Y98211D01*
X19115Y98233D01*
X19142Y98250D01*
X19164Y98263D01*
X19178Y98267D01*
X19181Y98270D01*
X19183D01*
X19205Y98277D01*
X19232Y98285D01*
X19291Y98294D01*
X19352Y98304D01*
X19413Y98309D01*
X19440Y98311D01*
X19491D01*
X19513Y98314D01*
X20230D01*
Y96711D01*
D02*
G37*
G36*
X160993Y153940D02*
X161069Y153936D01*
X161139Y153928D01*
X161205Y153919D01*
X161264Y153906D01*
X161318Y153894D01*
X161364Y153879D01*
X161408Y153865D01*
X161444Y153850D01*
X161476Y153836D01*
X161503Y153823D01*
X161525Y153811D01*
X161539Y153802D01*
X161552Y153794D01*
X161559Y153789D01*
X161562Y153787D01*
X161591Y153760D01*
X161618Y153733D01*
X161640Y153704D01*
X161659Y153675D01*
X161676Y153645D01*
X161688Y153614D01*
X161701Y153584D01*
X161708Y153555D01*
X161715Y153528D01*
X161720Y153504D01*
X161725Y153482D01*
X161727Y153462D01*
X161730Y153445D01*
Y153423D01*
X161727Y153382D01*
X161723Y153340D01*
X161715Y153304D01*
X161703Y153267D01*
X161691Y153235D01*
X161679Y153206D01*
X161662Y153179D01*
X161647Y153155D01*
X161632Y153133D01*
X161618Y153113D01*
X161603Y153096D01*
X161591Y153084D01*
X161579Y153074D01*
X161571Y153065D01*
X161566Y153062D01*
X161564Y153060D01*
X161525Y153033D01*
X161478Y153008D01*
X161430Y152987D01*
X161379Y152969D01*
X161325Y152955D01*
X161271Y152943D01*
X161164Y152923D01*
X161112Y152916D01*
X161066Y152911D01*
X161025Y152908D01*
X160986Y152906D01*
X160956Y152903D01*
X160932D01*
X160917D01*
X160915D01*
X160913D01*
X160829Y152906D01*
X160751Y152911D01*
X160683Y152916D01*
X160617Y152926D01*
X160559Y152935D01*
X160507Y152947D01*
X160461Y152962D01*
X160420Y152974D01*
X160383Y152987D01*
X160351Y153001D01*
X160327Y153013D01*
X160307Y153023D01*
X160290Y153033D01*
X160281Y153040D01*
X160273Y153043D01*
X160271Y153045D01*
X160239Y153072D01*
X160212Y153104D01*
X160188Y153133D01*
X160168Y153165D01*
X160151Y153196D01*
X160136Y153228D01*
X160124Y153260D01*
X160115Y153289D01*
X160107Y153316D01*
X160102Y153343D01*
X160098Y153365D01*
X160095Y153384D01*
Y153401D01*
X160093Y153413D01*
Y153423D01*
X160095Y153465D01*
X160100Y153506D01*
X160107Y153543D01*
X160119Y153577D01*
X160132Y153609D01*
X160144Y153640D01*
X160159Y153667D01*
X160176Y153692D01*
X160190Y153714D01*
X160205Y153731D01*
X160217Y153748D01*
X160232Y153760D01*
X160241Y153772D01*
X160249Y153779D01*
X160254Y153782D01*
X160256Y153784D01*
X160295Y153811D01*
X160342Y153836D01*
X160390Y153858D01*
X160442Y153877D01*
X160495Y153892D01*
X160549Y153904D01*
X160656Y153923D01*
X160707Y153931D01*
X160756Y153936D01*
X160798Y153938D01*
X160837Y153940D01*
X160866Y153943D01*
X160890D01*
X160905D01*
X160908D01*
X160910D01*
X160993Y153940D01*
D02*
G37*
G36*
X161318Y152694D02*
X161352Y152691D01*
X161413Y152674D01*
X161466Y152652D01*
X161513Y152628D01*
X161549Y152603D01*
X161566Y152591D01*
X161579Y152582D01*
X161588Y152572D01*
X161596Y152564D01*
X161598Y152562D01*
X161600Y152559D01*
X161623Y152533D01*
X161644Y152506D01*
X161662Y152474D01*
X161676Y152445D01*
X161698Y152381D01*
X161713Y152323D01*
X161720Y152294D01*
X161723Y152269D01*
X161725Y152245D01*
X161727Y152225D01*
X161730Y152208D01*
Y152147D01*
X161725Y152108D01*
X161713Y152040D01*
X161693Y151979D01*
X161683Y151952D01*
X161674Y151927D01*
X161664Y151903D01*
X161654Y151884D01*
X161644Y151866D01*
X161635Y151854D01*
X161627Y151842D01*
X161623Y151835D01*
X161620Y151830D01*
X161618Y151828D01*
X161596Y151803D01*
X161571Y151779D01*
X161544Y151759D01*
X161515Y151740D01*
X161454Y151710D01*
X161396Y151688D01*
X161366Y151679D01*
X161339Y151674D01*
X161318Y151666D01*
X161295Y151664D01*
X161278Y151659D01*
X161266D01*
X161257Y151657D01*
X161254D01*
X161225Y151962D01*
X161271Y151967D01*
X161313Y151974D01*
X161344Y151986D01*
X161371Y151996D01*
X161393Y152008D01*
X161405Y152015D01*
X161415Y152023D01*
X161417Y152025D01*
X161437Y152050D01*
X161452Y152074D01*
X161461Y152101D01*
X161469Y152125D01*
X161474Y152145D01*
X161476Y152164D01*
Y152179D01*
X161474Y152213D01*
X161466Y152245D01*
X161459Y152272D01*
X161449Y152294D01*
X161437Y152311D01*
X161430Y152323D01*
X161422Y152330D01*
X161420Y152333D01*
X161398Y152352D01*
X161371Y152364D01*
X161344Y152374D01*
X161320Y152381D01*
X161298Y152386D01*
X161278Y152389D01*
X161266D01*
X161261D01*
X161227Y152386D01*
X161193Y152379D01*
X161161Y152369D01*
X161132Y152357D01*
X161108Y152345D01*
X161091Y152335D01*
X161078Y152328D01*
X161074Y152325D01*
X161059Y152315D01*
X161042Y152301D01*
X161025Y152284D01*
X161005Y152264D01*
X160961Y152223D01*
X160917Y152179D01*
X160878Y152137D01*
X160859Y152118D01*
X160844Y152103D01*
X160832Y152089D01*
X160820Y152079D01*
X160815Y152071D01*
X160812Y152069D01*
X160768Y152023D01*
X160727Y151979D01*
X160688Y151942D01*
X160651Y151906D01*
X160617Y151874D01*
X160585Y151847D01*
X160556Y151820D01*
X160529Y151798D01*
X160507Y151781D01*
X160485Y151764D01*
X160468Y151752D01*
X160454Y151740D01*
X160442Y151732D01*
X160434Y151727D01*
X160429Y151723D01*
X160427D01*
X160373Y151693D01*
X160319Y151671D01*
X160268Y151652D01*
X160220Y151640D01*
X160180Y151630D01*
X160163Y151627D01*
X160149Y151625D01*
X160139Y151622D01*
X160129Y151620D01*
X160124D01*
X160122D01*
Y152696D01*
X160407D01*
Y152084D01*
X160439Y152103D01*
X160464Y152125D01*
X160476Y152132D01*
X160483Y152140D01*
X160488Y152145D01*
X160490Y152147D01*
X160500Y152157D01*
X160510Y152167D01*
X160537Y152193D01*
X160566Y152223D01*
X160595Y152254D01*
X160625Y152284D01*
X160646Y152308D01*
X160656Y152315D01*
X160664Y152323D01*
X160666Y152328D01*
X160669Y152330D01*
X160715Y152381D01*
X160756Y152423D01*
X160793Y152460D01*
X160822Y152486D01*
X160844Y152508D01*
X160861Y152523D01*
X160871Y152530D01*
X160873Y152533D01*
X160913Y152562D01*
X160949Y152589D01*
X160983Y152611D01*
X161015Y152628D01*
X161039Y152640D01*
X161059Y152650D01*
X161071Y152655D01*
X161076Y152657D01*
X161112Y152669D01*
X161152Y152679D01*
X161186Y152686D01*
X161217Y152691D01*
X161244Y152694D01*
X161266Y152696D01*
X161278D01*
X161283D01*
X161318Y152694D01*
D02*
G37*
G36*
X160712Y151135D02*
X160649Y151118D01*
X160598Y151095D01*
X160551Y151074D01*
X160515Y151052D01*
X160488Y151032D01*
X160466Y151015D01*
X160456Y151005D01*
X160451Y151000D01*
X160424Y150964D01*
X160405Y150927D01*
X160390Y150891D01*
X160380Y150854D01*
X160376Y150825D01*
X160373Y150800D01*
X160371Y150791D01*
Y150778D01*
X160373Y150747D01*
X160376Y150717D01*
X160390Y150661D01*
X160410Y150612D01*
X160434Y150571D01*
X160459Y150539D01*
X160478Y150515D01*
X160493Y150500D01*
X160495Y150498D01*
X160498Y150495D01*
X160524Y150476D01*
X160554Y150461D01*
X160585Y150446D01*
X160620Y150434D01*
X160693Y150415D01*
X160764Y150402D01*
X160798Y150398D01*
X160829Y150393D01*
X160856Y150390D01*
X160883D01*
X160903Y150388D01*
X160920D01*
X160930D01*
X160932D01*
X160983Y150390D01*
X161032Y150393D01*
X161078Y150398D01*
X161117Y150405D01*
X161156Y150412D01*
X161191Y150422D01*
X161220Y150432D01*
X161247Y150444D01*
X161271Y150454D01*
X161291Y150463D01*
X161308Y150473D01*
X161322Y150481D01*
X161332Y150488D01*
X161342Y150493D01*
X161344Y150498D01*
X161347D01*
X161369Y150520D01*
X161391Y150542D01*
X161408Y150566D01*
X161422Y150588D01*
X161444Y150637D01*
X161459Y150683D01*
X161469Y150725D01*
X161471Y150742D01*
X161474Y150756D01*
X161476Y150768D01*
Y150786D01*
X161474Y150832D01*
X161464Y150873D01*
X161454Y150912D01*
X161440Y150944D01*
X161427Y150971D01*
X161415Y150988D01*
X161405Y151000D01*
X161403Y151005D01*
X161374Y151037D01*
X161342Y151061D01*
X161310Y151083D01*
X161278Y151098D01*
X161249Y151110D01*
X161227Y151120D01*
X161213Y151122D01*
X161210Y151125D01*
X161208D01*
X161283Y151444D01*
X161352Y151423D01*
X161410Y151396D01*
X161459Y151366D01*
X161501Y151339D01*
X161535Y151315D01*
X161557Y151296D01*
X161571Y151283D01*
X161576Y151281D01*
Y151278D01*
X161608Y151242D01*
X161635Y151205D01*
X161657Y151166D01*
X161679Y151127D01*
X161696Y151088D01*
X161708Y151047D01*
X161720Y151010D01*
X161730Y150971D01*
X161737Y150937D01*
X161742Y150905D01*
X161747Y150876D01*
X161749Y150852D01*
X161752Y150832D01*
Y150803D01*
X161749Y150742D01*
X161742Y150683D01*
X161732Y150627D01*
X161718Y150576D01*
X161701Y150527D01*
X161681Y150483D01*
X161662Y150442D01*
X161642Y150405D01*
X161620Y150371D01*
X161600Y150341D01*
X161581Y150317D01*
X161564Y150295D01*
X161549Y150280D01*
X161539Y150268D01*
X161532Y150261D01*
X161530Y150259D01*
X161486Y150222D01*
X161440Y150190D01*
X161391Y150163D01*
X161339Y150139D01*
X161288Y150119D01*
X161234Y150105D01*
X161186Y150090D01*
X161135Y150081D01*
X161088Y150071D01*
X161047Y150063D01*
X161008Y150061D01*
X160974Y150056D01*
X160947D01*
X160925Y150054D01*
X160913D01*
X160908D01*
X160839Y150056D01*
X160773Y150063D01*
X160712Y150073D01*
X160656Y150085D01*
X160603Y150102D01*
X160554Y150119D01*
X160507Y150137D01*
X160468Y150156D01*
X160432Y150176D01*
X160400Y150193D01*
X160373Y150212D01*
X160351Y150227D01*
X160334Y150239D01*
X160322Y150249D01*
X160315Y150256D01*
X160312Y150259D01*
X160273Y150298D01*
X160241Y150339D01*
X160212Y150383D01*
X160188Y150427D01*
X160166Y150471D01*
X160149Y150515D01*
X160134Y150556D01*
X160122Y150598D01*
X160112Y150637D01*
X160107Y150671D01*
X160102Y150703D01*
X160098Y150730D01*
Y150751D01*
X160095Y150768D01*
Y150783D01*
X160098Y150830D01*
X160100Y150876D01*
X160107Y150917D01*
X160115Y150959D01*
X160124Y150996D01*
X160134Y151030D01*
X160146Y151061D01*
X160159Y151091D01*
X160171Y151118D01*
X160183Y151142D01*
X160193Y151161D01*
X160202Y151179D01*
X160210Y151191D01*
X160217Y151200D01*
X160220Y151205D01*
X160222Y151208D01*
X160246Y151240D01*
X160276Y151266D01*
X160337Y151318D01*
X160403Y151359D01*
X160466Y151391D01*
X160495Y151405D01*
X160524Y151418D01*
X160549Y151427D01*
X160571Y151435D01*
X160590Y151442D01*
X160603Y151447D01*
X160612Y151449D01*
X160615D01*
X160712Y151135D01*
D02*
G37*
G36*
X155498Y153943D02*
X155571Y153938D01*
X155637Y153931D01*
X155698Y153921D01*
X155754Y153909D01*
X155805Y153897D01*
X155852Y153882D01*
X155891Y153867D01*
X155927Y153853D01*
X155957Y153838D01*
X155983Y153826D01*
X156003Y153814D01*
X156020Y153804D01*
X156030Y153797D01*
X156037Y153792D01*
X156040Y153789D01*
X156074Y153760D01*
X156103Y153728D01*
X156127Y153694D01*
X156149Y153660D01*
X156169Y153628D01*
X156184Y153594D01*
X156196Y153562D01*
X156205Y153531D01*
X156213Y153501D01*
X156220Y153474D01*
X156225Y153450D01*
X156227Y153431D01*
X156230Y153413D01*
Y153389D01*
X156227Y153348D01*
X156222Y153309D01*
X156215Y153272D01*
X156205Y153238D01*
X156196Y153204D01*
X156181Y153174D01*
X156169Y153145D01*
X156154Y153121D01*
X156140Y153099D01*
X156127Y153079D01*
X156113Y153062D01*
X156103Y153048D01*
X156093Y153035D01*
X156086Y153028D01*
X156081Y153023D01*
X156079Y153021D01*
X156049Y152996D01*
X156020Y152974D01*
X155988Y152955D01*
X155954Y152938D01*
X155922Y152923D01*
X155888Y152911D01*
X155827Y152894D01*
X155798Y152889D01*
X155771Y152884D01*
X155747Y152882D01*
X155727Y152879D01*
X155710Y152877D01*
X155695D01*
X155688D01*
X155686D01*
X155642Y152879D01*
X155603Y152882D01*
X155527Y152899D01*
X155493Y152908D01*
X155461Y152921D01*
X155434Y152933D01*
X155408Y152945D01*
X155383Y152957D01*
X155364Y152969D01*
X155347Y152982D01*
X155332Y152991D01*
X155320Y153001D01*
X155312Y153008D01*
X155307Y153011D01*
X155305Y153013D01*
X155281Y153040D01*
X155259Y153067D01*
X155239Y153094D01*
X155222Y153121D01*
X155208Y153150D01*
X155195Y153177D01*
X155178Y153228D01*
X155168Y153272D01*
X155166Y153289D01*
X155164Y153306D01*
X155161Y153321D01*
Y153338D01*
X155164Y153370D01*
X155166Y153401D01*
X155183Y153457D01*
X155203Y153506D01*
X155229Y153548D01*
X155254Y153582D01*
X155273Y153606D01*
X155283Y153616D01*
X155290Y153623D01*
X155293Y153626D01*
X155295Y153628D01*
X155246Y153623D01*
X155200Y153619D01*
X155159Y153614D01*
X155122Y153606D01*
X155088Y153599D01*
X155059Y153592D01*
X155034Y153584D01*
X155010Y153579D01*
X154990Y153572D01*
X154973Y153565D01*
X154961Y153560D01*
X154949Y153553D01*
X154941Y153550D01*
X154937Y153545D01*
X154932Y153543D01*
X154903Y153516D01*
X154883Y153489D01*
X154868Y153462D01*
X154856Y153438D01*
X154851Y153416D01*
X154849Y153399D01*
X154846Y153387D01*
Y153382D01*
X154849Y153355D01*
X154854Y153331D01*
X154859Y153311D01*
X154868Y153291D01*
X154876Y153279D01*
X154880Y153267D01*
X154885Y153262D01*
X154888Y153260D01*
X154907Y153245D01*
X154927Y153233D01*
X154951Y153223D01*
X154973Y153216D01*
X154993Y153211D01*
X155010Y153208D01*
X155020Y153206D01*
X155025D01*
X154990Y152908D01*
X154922Y152923D01*
X154861Y152945D01*
X154810Y152969D01*
X154768Y152994D01*
X154734Y153016D01*
X154712Y153035D01*
X154698Y153050D01*
X154695Y153055D01*
X154693D01*
X154658Y153101D01*
X154634Y153152D01*
X154617Y153204D01*
X154605Y153252D01*
X154597Y153294D01*
X154595Y153314D01*
Y153328D01*
X154593Y153343D01*
Y153360D01*
X154595Y153406D01*
X154600Y153453D01*
X154610Y153494D01*
X154622Y153535D01*
X154637Y153572D01*
X154654Y153606D01*
X154671Y153638D01*
X154690Y153667D01*
X154707Y153694D01*
X154724Y153716D01*
X154742Y153736D01*
X154756Y153753D01*
X154768Y153765D01*
X154778Y153775D01*
X154783Y153779D01*
X154785Y153782D01*
X154824Y153811D01*
X154868Y153836D01*
X154917Y153858D01*
X154966Y153877D01*
X155020Y153892D01*
X155071Y153906D01*
X155176Y153926D01*
X155225Y153931D01*
X155271Y153936D01*
X155312Y153940D01*
X155349Y153943D01*
X155378Y153945D01*
X155400D01*
X155415D01*
X155420D01*
X155498Y153943D01*
D02*
G37*
G36*
X156230Y152193D02*
X156176Y152172D01*
X156127Y152142D01*
X156084Y152111D01*
X156047Y152079D01*
X156015Y152047D01*
X155993Y152023D01*
X155986Y152015D01*
X155979Y152008D01*
X155976Y152003D01*
X155974Y152001D01*
X155935Y151950D01*
X155905Y151901D01*
X155878Y151857D01*
X155859Y151818D01*
X155842Y151786D01*
X155832Y151762D01*
X155830Y151752D01*
X155827Y151744D01*
X155825Y151742D01*
Y151740D01*
X155547D01*
X155578Y151823D01*
X155615Y151898D01*
X155652Y151964D01*
X155671Y151996D01*
X155691Y152023D01*
X155708Y152050D01*
X155725Y152071D01*
X155739Y152091D01*
X155752Y152108D01*
X155764Y152120D01*
X155771Y152130D01*
X155776Y152135D01*
X155779Y152137D01*
X154622D01*
Y152445D01*
X156230D01*
Y152193D01*
D02*
G37*
G36*
X155212Y151132D02*
X155149Y151115D01*
X155098Y151093D01*
X155051Y151071D01*
X155015Y151049D01*
X154988Y151030D01*
X154966Y151013D01*
X154956Y151003D01*
X154951Y150998D01*
X154924Y150961D01*
X154905Y150925D01*
X154890Y150888D01*
X154880Y150852D01*
X154876Y150822D01*
X154873Y150798D01*
X154871Y150788D01*
Y150776D01*
X154873Y150744D01*
X154876Y150715D01*
X154890Y150659D01*
X154910Y150610D01*
X154934Y150568D01*
X154959Y150537D01*
X154978Y150512D01*
X154993Y150498D01*
X154995Y150495D01*
X154998Y150493D01*
X155025Y150473D01*
X155054Y150459D01*
X155086Y150444D01*
X155120Y150432D01*
X155193Y150412D01*
X155264Y150400D01*
X155298Y150395D01*
X155330Y150390D01*
X155356Y150388D01*
X155383D01*
X155403Y150385D01*
X155420D01*
X155429D01*
X155432D01*
X155483Y150388D01*
X155532Y150390D01*
X155578Y150395D01*
X155617Y150402D01*
X155657Y150410D01*
X155691Y150420D01*
X155720Y150429D01*
X155747Y150442D01*
X155771Y150451D01*
X155791Y150461D01*
X155808Y150471D01*
X155822Y150478D01*
X155832Y150486D01*
X155842Y150490D01*
X155844Y150495D01*
X155847D01*
X155869Y150517D01*
X155891Y150539D01*
X155908Y150564D01*
X155922Y150585D01*
X155944Y150634D01*
X155959Y150681D01*
X155969Y150722D01*
X155971Y150739D01*
X155974Y150754D01*
X155976Y150766D01*
Y150783D01*
X155974Y150830D01*
X155964Y150871D01*
X155954Y150910D01*
X155939Y150942D01*
X155927Y150969D01*
X155915Y150986D01*
X155905Y150998D01*
X155903Y151003D01*
X155874Y151034D01*
X155842Y151059D01*
X155810Y151081D01*
X155779Y151095D01*
X155749Y151108D01*
X155727Y151118D01*
X155713Y151120D01*
X155710Y151122D01*
X155708D01*
X155783Y151442D01*
X155852Y151420D01*
X155910Y151393D01*
X155959Y151364D01*
X156000Y151337D01*
X156035Y151313D01*
X156057Y151293D01*
X156071Y151281D01*
X156076Y151278D01*
Y151276D01*
X156108Y151240D01*
X156135Y151203D01*
X156157Y151164D01*
X156179Y151125D01*
X156196Y151086D01*
X156208Y151044D01*
X156220Y151008D01*
X156230Y150969D01*
X156237Y150935D01*
X156242Y150903D01*
X156247Y150873D01*
X156249Y150849D01*
X156252Y150830D01*
Y150800D01*
X156249Y150739D01*
X156242Y150681D01*
X156232Y150625D01*
X156218Y150573D01*
X156201Y150524D01*
X156181Y150481D01*
X156161Y150439D01*
X156142Y150402D01*
X156120Y150368D01*
X156100Y150339D01*
X156081Y150315D01*
X156064Y150293D01*
X156049Y150278D01*
X156040Y150266D01*
X156032Y150259D01*
X156030Y150256D01*
X155986Y150220D01*
X155939Y150188D01*
X155891Y150161D01*
X155840Y150137D01*
X155788Y150117D01*
X155735Y150102D01*
X155686Y150088D01*
X155634Y150078D01*
X155588Y150068D01*
X155547Y150061D01*
X155508Y150058D01*
X155473Y150054D01*
X155447D01*
X155425Y150051D01*
X155412D01*
X155408D01*
X155339Y150054D01*
X155273Y150061D01*
X155212Y150071D01*
X155156Y150083D01*
X155103Y150100D01*
X155054Y150117D01*
X155007Y150134D01*
X154968Y150154D01*
X154932Y150173D01*
X154900Y150190D01*
X154873Y150210D01*
X154851Y150224D01*
X154834Y150237D01*
X154822Y150246D01*
X154815Y150254D01*
X154812Y150256D01*
X154773Y150295D01*
X154742Y150337D01*
X154712Y150381D01*
X154688Y150425D01*
X154666Y150468D01*
X154649Y150512D01*
X154634Y150554D01*
X154622Y150595D01*
X154612Y150634D01*
X154607Y150669D01*
X154602Y150700D01*
X154597Y150727D01*
Y150749D01*
X154595Y150766D01*
Y150781D01*
X154597Y150827D01*
X154600Y150873D01*
X154607Y150915D01*
X154615Y150956D01*
X154624Y150993D01*
X154634Y151027D01*
X154646Y151059D01*
X154658Y151088D01*
X154671Y151115D01*
X154683Y151139D01*
X154693Y151159D01*
X154702Y151176D01*
X154710Y151188D01*
X154717Y151198D01*
X154719Y151203D01*
X154722Y151205D01*
X154746Y151237D01*
X154776Y151264D01*
X154837Y151315D01*
X154903Y151357D01*
X154966Y151388D01*
X154995Y151403D01*
X155025Y151415D01*
X155049Y151425D01*
X155071Y151432D01*
X155090Y151439D01*
X155103Y151444D01*
X155112Y151447D01*
X155115D01*
X155212Y151132D01*
D02*
G37*
G36*
X177689Y153852D02*
X177021D01*
Y153749D01*
X177023Y153715D01*
X177026Y153688D01*
X177031Y153666D01*
X177033Y153649D01*
X177038Y153637D01*
X177040Y153630D01*
Y153627D01*
X177048Y153608D01*
X177057Y153591D01*
X177079Y153559D01*
X177089Y153547D01*
X177099Y153537D01*
X177104Y153532D01*
X177106Y153530D01*
X177116Y153520D01*
X177131Y153510D01*
X177165Y153483D01*
X177201Y153454D01*
X177243Y153427D01*
X177282Y153400D01*
X177296Y153388D01*
X177314Y153378D01*
X177326Y153371D01*
X177336Y153364D01*
X177340Y153361D01*
X177343Y153359D01*
X177689Y153129D01*
Y152742D01*
X177377Y152937D01*
X177343Y152959D01*
X177314Y152978D01*
X177284Y152995D01*
X177257Y153015D01*
X177214Y153044D01*
X177177Y153071D01*
X177150Y153093D01*
X177133Y153107D01*
X177121Y153117D01*
X177118Y153120D01*
X177092Y153147D01*
X177067Y153176D01*
X177043Y153205D01*
X177023Y153232D01*
X177006Y153256D01*
X176994Y153276D01*
X176987Y153288D01*
X176984Y153290D01*
Y153293D01*
X176977Y153254D01*
X176970Y153220D01*
X176960Y153185D01*
X176948Y153156D01*
X176935Y153127D01*
X176923Y153100D01*
X176911Y153078D01*
X176899Y153056D01*
X176887Y153039D01*
X176874Y153022D01*
X176862Y153010D01*
X176855Y152998D01*
X176845Y152990D01*
X176840Y152983D01*
X176838Y152978D01*
X176835D01*
X176813Y152959D01*
X176789Y152942D01*
X176740Y152917D01*
X176689Y152898D01*
X176643Y152883D01*
X176601Y152876D01*
X176584Y152873D01*
X176567D01*
X176555Y152871D01*
X176545D01*
X176540D01*
X176538D01*
X176486Y152873D01*
X176438Y152881D01*
X176396Y152893D01*
X176359Y152905D01*
X176328Y152920D01*
X176306Y152929D01*
X176291Y152939D01*
X176286Y152942D01*
X176247Y152971D01*
X176216Y153000D01*
X176189Y153032D01*
X176167Y153061D01*
X176150Y153088D01*
X176137Y153110D01*
X176133Y153124D01*
X176130Y153127D01*
Y153129D01*
X176123Y153151D01*
X176116Y153178D01*
X176106Y153237D01*
X176096Y153298D01*
X176091Y153359D01*
X176089Y153386D01*
Y153437D01*
X176086Y153459D01*
Y154176D01*
X177689D01*
Y153852D01*
D02*
G37*
G36*
X176733Y152463D02*
X176696Y152388D01*
X176660Y152322D01*
X176640Y152290D01*
X176621Y152263D01*
X176603Y152236D01*
X176586Y152214D01*
X176572Y152195D01*
X176560Y152178D01*
X176547Y152166D01*
X176540Y152156D01*
X176535Y152151D01*
X176533Y152148D01*
X177689D01*
Y151841D01*
X176081D01*
Y152092D01*
X176135Y152114D01*
X176184Y152144D01*
X176228Y152175D01*
X176264Y152207D01*
X176296Y152239D01*
X176318Y152263D01*
X176325Y152270D01*
X176333Y152278D01*
X176335Y152283D01*
X176338Y152285D01*
X176377Y152336D01*
X176406Y152385D01*
X176433Y152429D01*
X176452Y152468D01*
X176469Y152500D01*
X176479Y152524D01*
X176481Y152534D01*
X176484Y152541D01*
X176486Y152544D01*
Y152546D01*
X176765D01*
X176733Y152463D01*
D02*
G37*
G36*
X177277Y151387D02*
X177316Y151382D01*
X177355Y151375D01*
X177392Y151363D01*
X177423Y151351D01*
X177455Y151336D01*
X177482Y151319D01*
X177506Y151304D01*
X177528Y151287D01*
X177548Y151273D01*
X177565Y151258D01*
X177579Y151246D01*
X177589Y151233D01*
X177597Y151226D01*
X177602Y151221D01*
X177604Y151219D01*
X177623Y151192D01*
X177640Y151163D01*
X177670Y151102D01*
X177689Y151041D01*
X177704Y150982D01*
X177709Y150958D01*
X177711Y150933D01*
X177716Y150911D01*
Y150892D01*
X177719Y150877D01*
Y150855D01*
X177716Y150811D01*
X177714Y150772D01*
X177706Y150733D01*
X177697Y150697D01*
X177687Y150665D01*
X177675Y150633D01*
X177663Y150604D01*
X177650Y150580D01*
X177638Y150558D01*
X177626Y150536D01*
X177614Y150519D01*
X177604Y150506D01*
X177594Y150494D01*
X177587Y150487D01*
X177584Y150482D01*
X177582Y150480D01*
X177555Y150455D01*
X177526Y150431D01*
X177497Y150414D01*
X177467Y150397D01*
X177436Y150382D01*
X177406Y150370D01*
X177350Y150353D01*
X177323Y150348D01*
X177299Y150343D01*
X177277Y150340D01*
X177257Y150338D01*
X177243Y150336D01*
X177231D01*
X177223D01*
X177221D01*
X177172Y150338D01*
X177126Y150345D01*
X177084Y150358D01*
X177050Y150370D01*
X177021Y150384D01*
X176999Y150394D01*
X176987Y150404D01*
X176982Y150406D01*
X176945Y150436D01*
X176913Y150467D01*
X176887Y150502D01*
X176865Y150533D01*
X176848Y150563D01*
X176835Y150587D01*
X176830Y150597D01*
X176828Y150604D01*
X176826Y150606D01*
Y150609D01*
X176806Y150572D01*
X176786Y150538D01*
X176765Y150511D01*
X176743Y150487D01*
X176723Y150470D01*
X176708Y150455D01*
X176699Y150448D01*
X176694Y150445D01*
X176660Y150426D01*
X176626Y150411D01*
X176594Y150401D01*
X176562Y150394D01*
X176535Y150389D01*
X176516Y150387D01*
X176501D01*
X176496D01*
X176462Y150389D01*
X176430Y150392D01*
X176374Y150406D01*
X176323Y150426D01*
X176279Y150450D01*
X176245Y150475D01*
X176220Y150494D01*
X176211Y150502D01*
X176203Y150509D01*
X176201Y150511D01*
X176198Y150514D01*
X176179Y150538D01*
X176159Y150565D01*
X176130Y150624D01*
X176111Y150682D01*
X176096Y150738D01*
X176091Y150765D01*
X176086Y150789D01*
X176084Y150811D01*
Y150831D01*
X176081Y150846D01*
Y150867D01*
X176084Y150909D01*
X176086Y150951D01*
X176091Y150987D01*
X176098Y151021D01*
X176108Y151053D01*
X176118Y151082D01*
X176128Y151109D01*
X176140Y151134D01*
X176150Y151153D01*
X176162Y151172D01*
X176172Y151187D01*
X176179Y151202D01*
X176189Y151212D01*
X176194Y151219D01*
X176196Y151221D01*
X176198Y151224D01*
X176220Y151246D01*
X176245Y151265D01*
X176269Y151282D01*
X176294Y151295D01*
X176345Y151319D01*
X176391Y151334D01*
X176433Y151341D01*
X176450Y151343D01*
X176467Y151346D01*
X176479Y151348D01*
X176489D01*
X176494D01*
X176496D01*
X176535Y151346D01*
X176569Y151341D01*
X176603Y151331D01*
X176633Y151321D01*
X176655Y151312D01*
X176674Y151302D01*
X176684Y151297D01*
X176689Y151295D01*
X176721Y151273D01*
X176748Y151246D01*
X176772Y151216D01*
X176789Y151190D01*
X176806Y151163D01*
X176816Y151143D01*
X176823Y151129D01*
X176826Y151126D01*
Y151124D01*
X176850Y151172D01*
X176877Y151214D01*
X176904Y151248D01*
X176930Y151277D01*
X176955Y151299D01*
X176977Y151314D01*
X176989Y151324D01*
X176991Y151326D01*
X176994D01*
X177035Y151348D01*
X177077Y151363D01*
X177118Y151375D01*
X177155Y151382D01*
X177187Y151387D01*
X177211Y151390D01*
X177221D01*
X177228D01*
X177231D01*
X177233D01*
X177277Y151387D01*
D02*
G37*
G36*
X169484Y151317D02*
X169550Y151309D01*
X169611Y151300D01*
X169667Y151287D01*
X169721Y151270D01*
X169770Y151253D01*
X169816Y151236D01*
X169855Y151216D01*
X169892Y151197D01*
X169923Y151180D01*
X169950Y151160D01*
X169972Y151146D01*
X169989Y151134D01*
X170001Y151124D01*
X170009Y151117D01*
X170011Y151114D01*
X170050Y151075D01*
X170082Y151033D01*
X170111Y150990D01*
X170136Y150946D01*
X170158Y150902D01*
X170175Y150858D01*
X170189Y150816D01*
X170202Y150775D01*
X170211Y150736D01*
X170216Y150702D01*
X170221Y150670D01*
X170226Y150643D01*
Y150621D01*
X170228Y150604D01*
Y150590D01*
X170226Y150543D01*
X170223Y150497D01*
X170216Y150455D01*
X170209Y150414D01*
X170199Y150377D01*
X170189Y150343D01*
X170177Y150311D01*
X170165Y150282D01*
X170153Y150255D01*
X170141Y150231D01*
X170131Y150211D01*
X170121Y150194D01*
X170114Y150182D01*
X170106Y150172D01*
X170104Y150167D01*
X170101Y150165D01*
X170077Y150133D01*
X170048Y150106D01*
X169987Y150055D01*
X169921Y150014D01*
X169858Y149982D01*
X169828Y149967D01*
X169799Y149955D01*
X169774Y149945D01*
X169753Y149938D01*
X169733Y149931D01*
X169721Y149926D01*
X169711Y149923D01*
X169709D01*
X169611Y150238D01*
X169675Y150255D01*
X169726Y150277D01*
X169772Y150299D01*
X169809Y150321D01*
X169835Y150341D01*
X169858Y150358D01*
X169867Y150367D01*
X169872Y150372D01*
X169899Y150409D01*
X169919Y150445D01*
X169933Y150482D01*
X169943Y150519D01*
X169948Y150548D01*
X169950Y150572D01*
X169953Y150582D01*
Y150594D01*
X169950Y150626D01*
X169948Y150655D01*
X169933Y150712D01*
X169914Y150760D01*
X169889Y150802D01*
X169865Y150833D01*
X169845Y150858D01*
X169831Y150873D01*
X169828Y150875D01*
X169826Y150877D01*
X169799Y150897D01*
X169770Y150911D01*
X169738Y150926D01*
X169704Y150938D01*
X169631Y150958D01*
X169560Y150970D01*
X169526Y150975D01*
X169494Y150980D01*
X169467Y150982D01*
X169440D01*
X169421Y150985D01*
X169404D01*
X169394D01*
X169392D01*
X169340Y150982D01*
X169291Y150980D01*
X169245Y150975D01*
X169206Y150968D01*
X169167Y150960D01*
X169133Y150951D01*
X169104Y150941D01*
X169077Y150929D01*
X169052Y150919D01*
X169033Y150909D01*
X169016Y150899D01*
X169001Y150892D01*
X168991Y150885D01*
X168982Y150880D01*
X168979Y150875D01*
X168977D01*
X168955Y150853D01*
X168933Y150831D01*
X168916Y150807D01*
X168901Y150785D01*
X168879Y150736D01*
X168864Y150689D01*
X168855Y150648D01*
X168852Y150631D01*
X168850Y150616D01*
X168847Y150604D01*
Y150587D01*
X168850Y150541D01*
X168860Y150499D01*
X168869Y150460D01*
X168884Y150428D01*
X168896Y150402D01*
X168908Y150384D01*
X168918Y150372D01*
X168921Y150367D01*
X168950Y150336D01*
X168982Y150311D01*
X169013Y150289D01*
X169045Y150275D01*
X169074Y150262D01*
X169096Y150253D01*
X169111Y150250D01*
X169113Y150248D01*
X169116D01*
X169040Y149928D01*
X168972Y149950D01*
X168913Y149977D01*
X168864Y150006D01*
X168823Y150033D01*
X168789Y150057D01*
X168767Y150077D01*
X168752Y150089D01*
X168747Y150092D01*
Y150094D01*
X168716Y150131D01*
X168689Y150167D01*
X168667Y150206D01*
X168645Y150245D01*
X168628Y150285D01*
X168615Y150326D01*
X168603Y150363D01*
X168594Y150402D01*
X168586Y150436D01*
X168581Y150468D01*
X168577Y150497D01*
X168574Y150521D01*
X168572Y150541D01*
Y150570D01*
X168574Y150631D01*
X168581Y150689D01*
X168591Y150746D01*
X168606Y150797D01*
X168623Y150846D01*
X168642Y150890D01*
X168662Y150931D01*
X168681Y150968D01*
X168703Y151002D01*
X168723Y151031D01*
X168742Y151056D01*
X168760Y151077D01*
X168774Y151092D01*
X168784Y151104D01*
X168791Y151112D01*
X168794Y151114D01*
X168838Y151151D01*
X168884Y151182D01*
X168933Y151209D01*
X168984Y151234D01*
X169035Y151253D01*
X169089Y151268D01*
X169138Y151282D01*
X169189Y151292D01*
X169235Y151302D01*
X169277Y151309D01*
X169316Y151312D01*
X169350Y151317D01*
X169377D01*
X169399Y151319D01*
X169411D01*
X169416D01*
X169484Y151317D01*
D02*
G37*
G36*
X170202Y148677D02*
X169916D01*
Y149289D01*
X169884Y149269D01*
X169860Y149248D01*
X169848Y149240D01*
X169840Y149233D01*
X169835Y149228D01*
X169833Y149225D01*
X169823Y149216D01*
X169814Y149206D01*
X169787Y149179D01*
X169757Y149150D01*
X169728Y149118D01*
X169699Y149089D01*
X169677Y149065D01*
X169667Y149057D01*
X169660Y149050D01*
X169657Y149045D01*
X169655Y149042D01*
X169609Y148991D01*
X169567Y148950D01*
X169530Y148913D01*
X169501Y148886D01*
X169479Y148864D01*
X169462Y148850D01*
X169453Y148842D01*
X169450Y148840D01*
X169411Y148811D01*
X169374Y148784D01*
X169340Y148762D01*
X169308Y148745D01*
X169284Y148733D01*
X169265Y148723D01*
X169252Y148718D01*
X169247Y148715D01*
X169211Y148703D01*
X169172Y148694D01*
X169138Y148686D01*
X169106Y148681D01*
X169079Y148679D01*
X169057Y148677D01*
X169045D01*
X169040D01*
X169006Y148679D01*
X168972Y148681D01*
X168911Y148698D01*
X168857Y148720D01*
X168811Y148745D01*
X168774Y148769D01*
X168757Y148781D01*
X168745Y148791D01*
X168735Y148801D01*
X168728Y148808D01*
X168725Y148811D01*
X168723Y148813D01*
X168701Y148840D01*
X168679Y148867D01*
X168662Y148898D01*
X168647Y148928D01*
X168625Y148991D01*
X168611Y149050D01*
X168603Y149079D01*
X168601Y149103D01*
X168598Y149128D01*
X168596Y149147D01*
X168594Y149164D01*
Y149225D01*
X168598Y149265D01*
X168611Y149333D01*
X168630Y149394D01*
X168640Y149421D01*
X168650Y149445D01*
X168659Y149469D01*
X168669Y149489D01*
X168679Y149506D01*
X168689Y149518D01*
X168696Y149530D01*
X168701Y149538D01*
X168703Y149543D01*
X168706Y149545D01*
X168728Y149569D01*
X168752Y149594D01*
X168779Y149613D01*
X168808Y149633D01*
X168869Y149662D01*
X168928Y149684D01*
X168957Y149694D01*
X168984Y149699D01*
X169006Y149706D01*
X169028Y149709D01*
X169045Y149714D01*
X169057D01*
X169067Y149716D01*
X169069D01*
X169099Y149411D01*
X169052Y149406D01*
X169011Y149399D01*
X168979Y149387D01*
X168952Y149377D01*
X168930Y149365D01*
X168918Y149357D01*
X168908Y149350D01*
X168906Y149347D01*
X168886Y149323D01*
X168872Y149299D01*
X168862Y149272D01*
X168855Y149248D01*
X168850Y149228D01*
X168847Y149208D01*
Y149194D01*
X168850Y149160D01*
X168857Y149128D01*
X168864Y149101D01*
X168874Y149079D01*
X168886Y149062D01*
X168894Y149050D01*
X168901Y149042D01*
X168904Y149040D01*
X168925Y149021D01*
X168952Y149008D01*
X168979Y148999D01*
X169003Y148991D01*
X169026Y148986D01*
X169045Y148984D01*
X169057D01*
X169062D01*
X169096Y148986D01*
X169130Y148994D01*
X169162Y149004D01*
X169191Y149016D01*
X169216Y149028D01*
X169233Y149038D01*
X169245Y149045D01*
X169250Y149047D01*
X169265Y149057D01*
X169282Y149072D01*
X169299Y149089D01*
X169318Y149108D01*
X169362Y149150D01*
X169406Y149194D01*
X169445Y149235D01*
X169465Y149255D01*
X169479Y149269D01*
X169492Y149284D01*
X169504Y149294D01*
X169509Y149301D01*
X169511Y149304D01*
X169555Y149350D01*
X169596Y149394D01*
X169635Y149431D01*
X169672Y149467D01*
X169706Y149499D01*
X169738Y149526D01*
X169767Y149553D01*
X169794Y149574D01*
X169816Y149592D01*
X169838Y149609D01*
X169855Y149621D01*
X169870Y149633D01*
X169882Y149640D01*
X169889Y149645D01*
X169894Y149650D01*
X169896D01*
X169950Y149679D01*
X170004Y149701D01*
X170055Y149721D01*
X170104Y149733D01*
X170143Y149743D01*
X170160Y149745D01*
X170175Y149748D01*
X170185Y149750D01*
X170194Y149752D01*
X170199D01*
X170202D01*
Y148677D01*
D02*
G37*
G36*
X169245Y148303D02*
X169209Y148228D01*
X169172Y148162D01*
X169152Y148130D01*
X169133Y148103D01*
X169116Y148076D01*
X169099Y148054D01*
X169084Y148035D01*
X169072Y148018D01*
X169060Y148005D01*
X169052Y147996D01*
X169047Y147991D01*
X169045Y147988D01*
X170202D01*
Y147681D01*
X168594D01*
Y147932D01*
X168647Y147954D01*
X168696Y147984D01*
X168740Y148015D01*
X168777Y148047D01*
X168808Y148079D01*
X168830Y148103D01*
X168838Y148110D01*
X168845Y148118D01*
X168847Y148123D01*
X168850Y148125D01*
X168889Y148176D01*
X168918Y148225D01*
X168945Y148269D01*
X168965Y148308D01*
X168982Y148340D01*
X168991Y148364D01*
X168994Y148374D01*
X168996Y148381D01*
X168999Y148384D01*
Y148386D01*
X169277D01*
X169245Y148303D01*
D02*
G37*
G36*
X108948Y109492D02*
X108926Y109458D01*
X108906Y109428D01*
X108889Y109399D01*
X108870Y109372D01*
X108840Y109328D01*
X108813Y109292D01*
X108791Y109265D01*
X108777Y109248D01*
X108767Y109236D01*
X108765Y109233D01*
X108738Y109206D01*
X108708Y109182D01*
X108679Y109157D01*
X108652Y109138D01*
X108628Y109121D01*
X108608Y109109D01*
X108596Y109101D01*
X108594Y109099D01*
X108591D01*
X108630Y109091D01*
X108665Y109084D01*
X108699Y109074D01*
X108728Y109062D01*
X108757Y109050D01*
X108784Y109038D01*
X108806Y109026D01*
X108828Y109013D01*
X108845Y109001D01*
X108862Y108989D01*
X108874Y108977D01*
X108887Y108969D01*
X108894Y108960D01*
X108901Y108955D01*
X108906Y108952D01*
Y108950D01*
X108926Y108928D01*
X108943Y108904D01*
X108967Y108855D01*
X108987Y108804D01*
X109001Y108757D01*
X109009Y108716D01*
X109011Y108699D01*
Y108682D01*
X109013Y108669D01*
Y108660D01*
Y108655D01*
Y108652D01*
X109011Y108601D01*
X109004Y108552D01*
X108992Y108511D01*
X108979Y108474D01*
X108965Y108442D01*
X108955Y108421D01*
X108945Y108406D01*
X108943Y108401D01*
X108913Y108362D01*
X108884Y108330D01*
X108852Y108303D01*
X108823Y108281D01*
X108796Y108264D01*
X108774Y108252D01*
X108760Y108247D01*
X108757Y108245D01*
X108755D01*
X108733Y108238D01*
X108706Y108230D01*
X108647Y108220D01*
X108586Y108211D01*
X108525Y108206D01*
X108499Y108203D01*
X108447D01*
X108425Y108201D01*
X107708D01*
Y109804D01*
X108033D01*
Y109135D01*
X108135D01*
X108169Y109138D01*
X108196Y109140D01*
X108218Y109145D01*
X108235Y109148D01*
X108247Y109152D01*
X108255Y109155D01*
X108257D01*
X108276Y109162D01*
X108294Y109172D01*
X108325Y109194D01*
X108337Y109204D01*
X108347Y109213D01*
X108352Y109218D01*
X108355Y109221D01*
X108364Y109231D01*
X108374Y109245D01*
X108401Y109279D01*
X108430Y109316D01*
X108457Y109358D01*
X108484Y109397D01*
X108496Y109411D01*
X108506Y109428D01*
X108513Y109440D01*
X108520Y109450D01*
X108523Y109455D01*
X108525Y109458D01*
X108755Y109804D01*
X109143D01*
X108948Y109492D01*
D02*
G37*
G36*
X110292Y109519D02*
X109679D01*
X109699Y109487D01*
X109721Y109462D01*
X109728Y109450D01*
X109736Y109443D01*
X109740Y109438D01*
X109743Y109435D01*
X109753Y109426D01*
X109763Y109416D01*
X109789Y109389D01*
X109819Y109360D01*
X109850Y109331D01*
X109880Y109301D01*
X109904Y109279D01*
X109911Y109270D01*
X109919Y109262D01*
X109924Y109260D01*
X109926Y109257D01*
X109977Y109211D01*
X110019Y109170D01*
X110055Y109133D01*
X110082Y109104D01*
X110104Y109082D01*
X110119Y109065D01*
X110126Y109055D01*
X110128Y109053D01*
X110158Y109013D01*
X110185Y108977D01*
X110207Y108943D01*
X110224Y108911D01*
X110236Y108887D01*
X110246Y108867D01*
X110250Y108855D01*
X110253Y108850D01*
X110265Y108813D01*
X110275Y108774D01*
X110282Y108740D01*
X110287Y108708D01*
X110290Y108682D01*
X110292Y108660D01*
Y108647D01*
Y108642D01*
X110290Y108608D01*
X110287Y108574D01*
X110270Y108513D01*
X110248Y108459D01*
X110224Y108413D01*
X110199Y108377D01*
X110187Y108360D01*
X110177Y108347D01*
X110168Y108337D01*
X110160Y108330D01*
X110158Y108328D01*
X110155Y108325D01*
X110128Y108303D01*
X110102Y108281D01*
X110070Y108264D01*
X110041Y108250D01*
X109977Y108228D01*
X109919Y108213D01*
X109889Y108206D01*
X109865Y108203D01*
X109841Y108201D01*
X109821Y108198D01*
X109804Y108196D01*
X109743D01*
X109704Y108201D01*
X109636Y108213D01*
X109575Y108233D01*
X109548Y108242D01*
X109523Y108252D01*
X109499Y108262D01*
X109479Y108272D01*
X109462Y108281D01*
X109450Y108291D01*
X109438Y108299D01*
X109431Y108303D01*
X109426Y108306D01*
X109423Y108308D01*
X109399Y108330D01*
X109374Y108355D01*
X109355Y108381D01*
X109335Y108411D01*
X109306Y108472D01*
X109284Y108530D01*
X109274Y108560D01*
X109270Y108586D01*
X109262Y108608D01*
X109260Y108630D01*
X109255Y108647D01*
Y108660D01*
X109253Y108669D01*
Y108672D01*
X109557Y108701D01*
X109562Y108655D01*
X109570Y108613D01*
X109582Y108581D01*
X109592Y108555D01*
X109604Y108533D01*
X109611Y108520D01*
X109618Y108511D01*
X109621Y108508D01*
X109645Y108489D01*
X109670Y108474D01*
X109697Y108464D01*
X109721Y108457D01*
X109740Y108452D01*
X109760Y108450D01*
X109775D01*
X109809Y108452D01*
X109841Y108459D01*
X109867Y108467D01*
X109889Y108477D01*
X109906Y108489D01*
X109919Y108496D01*
X109926Y108503D01*
X109928Y108506D01*
X109948Y108528D01*
X109960Y108555D01*
X109970Y108581D01*
X109977Y108606D01*
X109982Y108628D01*
X109985Y108647D01*
Y108660D01*
Y108665D01*
X109982Y108699D01*
X109975Y108733D01*
X109965Y108765D01*
X109953Y108794D01*
X109941Y108818D01*
X109931Y108835D01*
X109924Y108847D01*
X109921Y108852D01*
X109911Y108867D01*
X109897Y108884D01*
X109880Y108901D01*
X109860Y108921D01*
X109819Y108965D01*
X109775Y109009D01*
X109733Y109048D01*
X109714Y109067D01*
X109699Y109082D01*
X109684Y109094D01*
X109675Y109106D01*
X109667Y109111D01*
X109665Y109114D01*
X109618Y109157D01*
X109575Y109199D01*
X109538Y109238D01*
X109501Y109274D01*
X109470Y109309D01*
X109443Y109340D01*
X109416Y109370D01*
X109394Y109397D01*
X109377Y109418D01*
X109360Y109440D01*
X109348Y109458D01*
X109335Y109472D01*
X109328Y109484D01*
X109323Y109492D01*
X109318Y109496D01*
Y109499D01*
X109289Y109553D01*
X109267Y109606D01*
X109248Y109658D01*
X109236Y109706D01*
X109226Y109745D01*
X109223Y109763D01*
X109221Y109777D01*
X109218Y109787D01*
X109216Y109797D01*
Y109801D01*
Y109804D01*
X110292D01*
Y109519D01*
D02*
G37*
G36*
X109572Y82492D02*
X109550Y82458D01*
X109530Y82428D01*
X109513Y82399D01*
X109494Y82372D01*
X109465Y82328D01*
X109438Y82292D01*
X109416Y82265D01*
X109401Y82248D01*
X109391Y82235D01*
X109389Y82233D01*
X109362Y82206D01*
X109333Y82182D01*
X109304Y82157D01*
X109277Y82138D01*
X109252Y82121D01*
X109233Y82109D01*
X109221Y82101D01*
X109218Y82099D01*
X109216D01*
X109255Y82091D01*
X109289Y82084D01*
X109323Y82074D01*
X109352Y82062D01*
X109382Y82050D01*
X109408Y82038D01*
X109431Y82026D01*
X109452Y82013D01*
X109469Y82001D01*
X109487Y81989D01*
X109499Y81977D01*
X109511Y81969D01*
X109518Y81960D01*
X109526Y81955D01*
X109530Y81952D01*
Y81950D01*
X109550Y81928D01*
X109567Y81904D01*
X109591Y81855D01*
X109611Y81804D01*
X109626Y81757D01*
X109633Y81716D01*
X109635Y81699D01*
Y81682D01*
X109638Y81669D01*
Y81660D01*
Y81655D01*
Y81652D01*
X109635Y81601D01*
X109628Y81552D01*
X109616Y81511D01*
X109604Y81474D01*
X109589Y81442D01*
X109579Y81420D01*
X109570Y81406D01*
X109567Y81401D01*
X109538Y81362D01*
X109509Y81330D01*
X109477Y81303D01*
X109448Y81281D01*
X109421Y81264D01*
X109399Y81252D01*
X109384Y81247D01*
X109382Y81245D01*
X109379D01*
X109357Y81238D01*
X109330Y81230D01*
X109272Y81220D01*
X109211Y81211D01*
X109150Y81206D01*
X109123Y81203D01*
X109072D01*
X109050Y81201D01*
X108333D01*
Y82804D01*
X108657D01*
Y82135D01*
X108759D01*
X108794Y82138D01*
X108820Y82140D01*
X108842Y82145D01*
X108860Y82148D01*
X108872Y82152D01*
X108879Y82155D01*
X108881D01*
X108901Y82162D01*
X108918Y82172D01*
X108950Y82194D01*
X108962Y82204D01*
X108972Y82213D01*
X108977Y82218D01*
X108979Y82221D01*
X108989Y82231D01*
X108999Y82245D01*
X109025Y82279D01*
X109055Y82316D01*
X109081Y82358D01*
X109108Y82397D01*
X109121Y82411D01*
X109130Y82428D01*
X109138Y82440D01*
X109145Y82450D01*
X109147Y82455D01*
X109150Y82458D01*
X109379Y82804D01*
X109767D01*
X109572Y82492D01*
D02*
G37*
G36*
X110668Y81196D02*
X110416D01*
X110394Y81250D01*
X110365Y81299D01*
X110333Y81342D01*
X110301Y81379D01*
X110270Y81411D01*
X110245Y81433D01*
X110238Y81440D01*
X110231Y81447D01*
X110226Y81450D01*
X110223Y81452D01*
X110172Y81491D01*
X110123Y81520D01*
X110080Y81547D01*
X110040Y81567D01*
X110009Y81584D01*
X109984Y81594D01*
X109975Y81596D01*
X109967Y81599D01*
X109965Y81601D01*
X109962D01*
Y81879D01*
X110045Y81848D01*
X110121Y81811D01*
X110187Y81774D01*
X110219Y81755D01*
X110245Y81735D01*
X110272Y81718D01*
X110294Y81701D01*
X110314Y81687D01*
X110331Y81674D01*
X110343Y81662D01*
X110353Y81655D01*
X110358Y81650D01*
X110360Y81647D01*
Y82804D01*
X110668D01*
Y81196D01*
D02*
G37*
G36*
X131623Y95496D02*
X131298D01*
Y96165D01*
X131195D01*
X131161Y96162D01*
X131134Y96160D01*
X131113Y96155D01*
X131095Y96152D01*
X131083Y96148D01*
X131076Y96145D01*
X131073D01*
X131054Y96138D01*
X131037Y96128D01*
X131005Y96106D01*
X130993Y96096D01*
X130983Y96087D01*
X130978Y96082D01*
X130976Y96079D01*
X130966Y96069D01*
X130956Y96055D01*
X130930Y96021D01*
X130900Y95984D01*
X130873Y95942D01*
X130847Y95903D01*
X130834Y95889D01*
X130825Y95872D01*
X130817Y95860D01*
X130810Y95850D01*
X130807Y95845D01*
X130805Y95842D01*
X130576Y95496D01*
X130188D01*
X130383Y95808D01*
X130405Y95842D01*
X130424Y95872D01*
X130441Y95901D01*
X130461Y95928D01*
X130490Y95972D01*
X130517Y96008D01*
X130539Y96035D01*
X130554Y96052D01*
X130563Y96065D01*
X130566Y96067D01*
X130593Y96094D01*
X130622Y96118D01*
X130651Y96143D01*
X130678Y96162D01*
X130703Y96179D01*
X130722Y96191D01*
X130734Y96199D01*
X130737Y96201D01*
X130739D01*
X130700Y96209D01*
X130666Y96216D01*
X130632Y96226D01*
X130603Y96238D01*
X130573Y96250D01*
X130546Y96262D01*
X130525Y96274D01*
X130502Y96287D01*
X130485Y96299D01*
X130468Y96311D01*
X130456Y96323D01*
X130444Y96330D01*
X130437Y96340D01*
X130429Y96345D01*
X130424Y96348D01*
Y96350D01*
X130405Y96372D01*
X130388Y96396D01*
X130363Y96445D01*
X130344Y96496D01*
X130329Y96543D01*
X130322Y96584D01*
X130319Y96601D01*
Y96618D01*
X130317Y96631D01*
Y96640D01*
Y96645D01*
Y96648D01*
X130319Y96699D01*
X130327Y96748D01*
X130339Y96789D01*
X130351Y96826D01*
X130366Y96858D01*
X130376Y96880D01*
X130385Y96894D01*
X130388Y96899D01*
X130417Y96938D01*
X130446Y96970D01*
X130478Y96997D01*
X130507Y97019D01*
X130534Y97036D01*
X130556Y97048D01*
X130571Y97053D01*
X130573Y97055D01*
X130576D01*
X130598Y97062D01*
X130624Y97070D01*
X130683Y97080D01*
X130744Y97089D01*
X130805Y97094D01*
X130832Y97097D01*
X130883D01*
X130905Y97099D01*
X131623D01*
Y95496D01*
D02*
G37*
G36*
X130129Y96084D02*
Y95818D01*
X129473D01*
Y95496D01*
X129175D01*
Y95818D01*
X128978D01*
Y96087D01*
X129175D01*
Y97104D01*
X129434D01*
X130129Y96084D01*
D02*
G37*
G36*
X129597Y92116D02*
X129644Y92111D01*
X129683Y92102D01*
X129719Y92094D01*
X129749Y92084D01*
X129771Y92075D01*
X129785Y92070D01*
X129788Y92067D01*
X129790D01*
X129827Y92048D01*
X129861Y92026D01*
X129888Y92004D01*
X129912Y91982D01*
X129932Y91960D01*
X129944Y91945D01*
X129954Y91936D01*
X129956Y91931D01*
X129975Y91897D01*
X129995Y91857D01*
X130010Y91818D01*
X130022Y91782D01*
X130032Y91748D01*
X130039Y91721D01*
X130041Y91711D01*
Y91704D01*
X130044Y91699D01*
Y91697D01*
X129761Y91650D01*
X129756Y91687D01*
X129746Y91719D01*
X129736Y91745D01*
X129724Y91770D01*
X129712Y91787D01*
X129705Y91799D01*
X129697Y91806D01*
X129695Y91809D01*
X129673Y91828D01*
X129648Y91840D01*
X129627Y91850D01*
X129605Y91857D01*
X129585Y91862D01*
X129570Y91865D01*
X129558D01*
X129529Y91862D01*
X129502Y91857D01*
X129480Y91850D01*
X129461Y91840D01*
X129446Y91831D01*
X129436Y91823D01*
X129429Y91818D01*
X129427Y91816D01*
X129409Y91796D01*
X129397Y91775D01*
X129390Y91753D01*
X129383Y91733D01*
X129380Y91716D01*
X129378Y91701D01*
Y91689D01*
Y91687D01*
X129380Y91653D01*
X129387Y91623D01*
X129400Y91597D01*
X129412Y91575D01*
X129424Y91557D01*
X129436Y91543D01*
X129444Y91536D01*
X129446Y91533D01*
X129473Y91516D01*
X129505Y91501D01*
X129536Y91492D01*
X129566Y91487D01*
X129592Y91484D01*
X129617Y91482D01*
X129636D01*
X129671Y91233D01*
X129641Y91240D01*
X129614Y91247D01*
X129590Y91252D01*
X129570Y91255D01*
X129553Y91257D01*
X129531D01*
X129500Y91255D01*
X129470Y91247D01*
X129444Y91235D01*
X129422Y91223D01*
X129402Y91211D01*
X129390Y91199D01*
X129380Y91191D01*
X129378Y91189D01*
X129356Y91162D01*
X129341Y91130D01*
X129329Y91101D01*
X129322Y91072D01*
X129317Y91045D01*
X129314Y91023D01*
Y91008D01*
Y91006D01*
Y91004D01*
X129317Y90960D01*
X129324Y90921D01*
X129336Y90886D01*
X129346Y90857D01*
X129358Y90835D01*
X129370Y90820D01*
X129378Y90808D01*
X129380Y90806D01*
X129407Y90781D01*
X129434Y90764D01*
X129461Y90752D01*
X129485Y90745D01*
X129507Y90740D01*
X129524Y90735D01*
X129541D01*
X129573Y90738D01*
X129602Y90745D01*
X129627Y90755D01*
X129648Y90764D01*
X129668Y90774D01*
X129680Y90784D01*
X129690Y90791D01*
X129692Y90794D01*
X129714Y90818D01*
X129732Y90847D01*
X129744Y90877D01*
X129753Y90904D01*
X129761Y90930D01*
X129766Y90950D01*
X129768Y90965D01*
Y90967D01*
Y90969D01*
X130066Y90933D01*
X130061Y90896D01*
X130054Y90860D01*
X130032Y90796D01*
X130005Y90740D01*
X129975Y90694D01*
X129961Y90674D01*
X129949Y90657D01*
X129936Y90640D01*
X129924Y90628D01*
X129914Y90618D01*
X129907Y90611D01*
X129905Y90608D01*
X129902Y90606D01*
X129875Y90584D01*
X129846Y90564D01*
X129814Y90547D01*
X129785Y90535D01*
X129724Y90511D01*
X129666Y90496D01*
X129641Y90491D01*
X129617Y90489D01*
X129595Y90486D01*
X129575Y90484D01*
X129561Y90481D01*
X129539D01*
X129497Y90484D01*
X129456Y90489D01*
X129419Y90496D01*
X129383Y90506D01*
X129348Y90516D01*
X129317Y90528D01*
X129287Y90542D01*
X129261Y90557D01*
X129236Y90569D01*
X129217Y90584D01*
X129197Y90596D01*
X129183Y90608D01*
X129170Y90616D01*
X129163Y90623D01*
X129158Y90628D01*
X129156Y90630D01*
X129129Y90659D01*
X129104Y90689D01*
X129082Y90718D01*
X129065Y90750D01*
X129051Y90779D01*
X129039Y90808D01*
X129019Y90864D01*
X129012Y90891D01*
X129007Y90916D01*
X129004Y90935D01*
X129002Y90955D01*
X128999Y90969D01*
Y90979D01*
Y90987D01*
Y90989D01*
X129002Y91043D01*
X129012Y91089D01*
X129026Y91133D01*
X129041Y91170D01*
X129056Y91199D01*
X129070Y91221D01*
X129080Y91233D01*
X129082Y91238D01*
X129117Y91272D01*
X129151Y91301D01*
X129187Y91326D01*
X129224Y91343D01*
X129253Y91355D01*
X129280Y91365D01*
X129290Y91367D01*
X129295D01*
X129300Y91369D01*
X129302D01*
X129261Y91394D01*
X129226Y91421D01*
X129195Y91448D01*
X129168Y91477D01*
X129146Y91504D01*
X129126Y91533D01*
X129112Y91560D01*
X129100Y91587D01*
X129090Y91611D01*
X129082Y91633D01*
X129078Y91653D01*
X129073Y91672D01*
Y91687D01*
X129070Y91697D01*
Y91704D01*
Y91706D01*
Y91733D01*
X129075Y91760D01*
X129087Y91811D01*
X129107Y91855D01*
X129126Y91894D01*
X129148Y91928D01*
X129168Y91953D01*
X129175Y91960D01*
X129180Y91967D01*
X129183Y91970D01*
X129185Y91972D01*
X129212Y91999D01*
X129239Y92021D01*
X129270Y92040D01*
X129300Y92058D01*
X129329Y92072D01*
X129361Y92082D01*
X129417Y92102D01*
X129444Y92106D01*
X129470Y92111D01*
X129492Y92114D01*
X129512Y92116D01*
X129526Y92119D01*
X129549D01*
X129597Y92116D01*
D02*
G37*
G36*
X131600Y90511D02*
X131276D01*
Y91179D01*
X131174D01*
X131139Y91177D01*
X131113Y91174D01*
X131091Y91170D01*
X131073Y91167D01*
X131061Y91162D01*
X131054Y91160D01*
X131052D01*
X131032Y91152D01*
X131015Y91143D01*
X130983Y91121D01*
X130971Y91111D01*
X130961Y91101D01*
X130956Y91096D01*
X130954Y91094D01*
X130944Y91084D01*
X130934Y91069D01*
X130908Y91035D01*
X130878Y90999D01*
X130851Y90957D01*
X130825Y90918D01*
X130812Y90904D01*
X130803Y90886D01*
X130795Y90874D01*
X130788Y90864D01*
X130786Y90860D01*
X130783Y90857D01*
X130554Y90511D01*
X130166D01*
X130361Y90823D01*
X130383Y90857D01*
X130403Y90886D01*
X130420Y90916D01*
X130439Y90943D01*
X130468Y90987D01*
X130495Y91023D01*
X130517Y91050D01*
X130532Y91067D01*
X130542Y91079D01*
X130544Y91082D01*
X130571Y91109D01*
X130600Y91133D01*
X130629Y91157D01*
X130656Y91177D01*
X130681Y91194D01*
X130700Y91206D01*
X130712Y91213D01*
X130715Y91216D01*
X130717D01*
X130678Y91223D01*
X130644Y91230D01*
X130610Y91240D01*
X130581Y91252D01*
X130551Y91265D01*
X130525Y91277D01*
X130502Y91289D01*
X130481Y91301D01*
X130464Y91313D01*
X130446Y91326D01*
X130434Y91338D01*
X130422Y91345D01*
X130415Y91355D01*
X130407Y91360D01*
X130403Y91362D01*
Y91365D01*
X130383Y91387D01*
X130366Y91411D01*
X130341Y91460D01*
X130322Y91511D01*
X130307Y91557D01*
X130300Y91599D01*
X130298Y91616D01*
Y91633D01*
X130295Y91645D01*
Y91655D01*
Y91660D01*
Y91662D01*
X130298Y91714D01*
X130305Y91762D01*
X130317Y91804D01*
X130329Y91840D01*
X130344Y91872D01*
X130354Y91894D01*
X130363Y91909D01*
X130366Y91914D01*
X130395Y91953D01*
X130424Y91984D01*
X130456Y92011D01*
X130485Y92033D01*
X130512Y92050D01*
X130534Y92062D01*
X130549Y92067D01*
X130551Y92070D01*
X130554D01*
X130576Y92077D01*
X130603Y92084D01*
X130661Y92094D01*
X130722Y92104D01*
X130783Y92109D01*
X130810Y92111D01*
X130861D01*
X130883Y92114D01*
X131600D01*
Y90511D01*
D02*
G37*
%LPC*%
G36*
X161143Y51351D02*
X161131D01*
X161128D01*
X161101Y51348D01*
X161079Y51346D01*
X161057Y51341D01*
X161040Y51334D01*
X161026Y51326D01*
X161016Y51322D01*
X161009Y51319D01*
X161006Y51317D01*
X160989Y51305D01*
X160977Y51290D01*
X160955Y51261D01*
X160950Y51246D01*
X160945Y51236D01*
X160940Y51229D01*
Y51226D01*
X160938Y51214D01*
X160933Y51197D01*
X160931Y51180D01*
X160928Y51158D01*
X160926Y51112D01*
X160923Y51063D01*
X160921Y51017D01*
Y50704D01*
X161328D01*
Y51073D01*
X161326Y51095D01*
Y51143D01*
X161323Y51165D01*
Y51178D01*
X161321Y51185D01*
Y51187D01*
X161314Y51214D01*
X161306Y51239D01*
X161296Y51258D01*
X161284Y51275D01*
X161275Y51290D01*
X161265Y51300D01*
X161260Y51305D01*
X161258Y51307D01*
X161238Y51322D01*
X161216Y51331D01*
X161194Y51341D01*
X161174Y51346D01*
X161157Y51348D01*
X161143Y51351D01*
D02*
G37*
G36*
X155965Y53905D02*
X155557D01*
Y53537D01*
X155560Y53515D01*
Y53466D01*
X155562Y53444D01*
Y53432D01*
X155564Y53425D01*
Y53422D01*
X155572Y53396D01*
X155579Y53371D01*
X155589Y53352D01*
X155601Y53335D01*
X155611Y53320D01*
X155621Y53310D01*
X155625Y53305D01*
X155628Y53303D01*
X155647Y53288D01*
X155669Y53278D01*
X155691Y53269D01*
X155711Y53264D01*
X155728Y53261D01*
X155743Y53259D01*
X155755D01*
X155757D01*
X155784Y53261D01*
X155806Y53264D01*
X155828Y53269D01*
X155845Y53276D01*
X155860Y53283D01*
X155869Y53288D01*
X155877Y53291D01*
X155879Y53293D01*
X155896Y53305D01*
X155909Y53320D01*
X155930Y53349D01*
X155935Y53364D01*
X155940Y53374D01*
X155945Y53381D01*
Y53383D01*
X155947Y53396D01*
X155952Y53413D01*
X155955Y53430D01*
X155957Y53452D01*
X155960Y53498D01*
X155962Y53547D01*
X155965Y53593D01*
Y53905D01*
D02*
G37*
G36*
X156377Y51095D02*
X156367D01*
X156360D01*
X156355D01*
X156352D01*
X156304Y51092D01*
X156262Y51085D01*
X156228Y51075D01*
X156199Y51063D01*
X156177Y51053D01*
X156160Y51043D01*
X156150Y51036D01*
X156148Y51034D01*
X156123Y51009D01*
X156106Y50985D01*
X156094Y50960D01*
X156087Y50936D01*
X156079Y50916D01*
X156077Y50899D01*
Y50885D01*
X156079Y50853D01*
X156089Y50824D01*
X156099Y50797D01*
X156113Y50775D01*
X156126Y50758D01*
X156138Y50743D01*
X156148Y50736D01*
X156150Y50734D01*
X156182Y50712D01*
X156216Y50697D01*
X156255Y50685D01*
X156291Y50677D01*
X156326Y50673D01*
X156352Y50670D01*
X156365D01*
X156372D01*
X156377D01*
X156379D01*
X156433Y50673D01*
X156479Y50680D01*
X156516Y50690D01*
X156548Y50699D01*
X156570Y50709D01*
X156587Y50719D01*
X156597Y50726D01*
X156599Y50729D01*
X156621Y50751D01*
X156638Y50775D01*
X156648Y50797D01*
X156658Y50821D01*
X156662Y50841D01*
X156665Y50855D01*
Y50870D01*
X156662Y50902D01*
X156653Y50931D01*
X156641Y50958D01*
X156623Y50980D01*
X156609Y50999D01*
X156597Y51014D01*
X156587Y51024D01*
X156584Y51026D01*
X156550Y51048D01*
X156514Y51065D01*
X156474Y51078D01*
X156438Y51085D01*
X156404Y51090D01*
X156377Y51095D01*
D02*
G37*
G36*
X151566Y51323D02*
X151556D01*
X151549D01*
X151544D01*
X151541D01*
X151493Y51320D01*
X151451Y51313D01*
X151417Y51303D01*
X151388Y51291D01*
X151366Y51281D01*
X151348Y51272D01*
X151339Y51264D01*
X151336Y51262D01*
X151312Y51238D01*
X151295Y51213D01*
X151283Y51189D01*
X151275Y51164D01*
X151268Y51145D01*
X151266Y51128D01*
Y51113D01*
X151268Y51081D01*
X151278Y51052D01*
X151287Y51025D01*
X151302Y51003D01*
X151314Y50986D01*
X151327Y50972D01*
X151336Y50964D01*
X151339Y50962D01*
X151371Y50940D01*
X151405Y50925D01*
X151444Y50913D01*
X151480Y50906D01*
X151514Y50901D01*
X151541Y50898D01*
X151553D01*
X151561D01*
X151566D01*
X151568D01*
X151622Y50901D01*
X151668Y50908D01*
X151705Y50918D01*
X151736Y50928D01*
X151758Y50937D01*
X151776Y50947D01*
X151785Y50955D01*
X151788Y50957D01*
X151810Y50979D01*
X151827Y51003D01*
X151837Y51025D01*
X151846Y51050D01*
X151851Y51069D01*
X151854Y51084D01*
Y51099D01*
X151851Y51130D01*
X151841Y51160D01*
X151829Y51186D01*
X151812Y51208D01*
X151797Y51228D01*
X151785Y51242D01*
X151776Y51252D01*
X151773Y51255D01*
X151739Y51277D01*
X151702Y51294D01*
X151663Y51306D01*
X151627Y51313D01*
X151593Y51318D01*
X151566Y51323D01*
D02*
G37*
G36*
X19891Y79843D02*
X19522D01*
X19500Y79840D01*
X19452D01*
X19430Y79838D01*
X19418D01*
X19410Y79836D01*
X19408D01*
X19381Y79828D01*
X19356Y79821D01*
X19337Y79811D01*
X19320Y79799D01*
X19305Y79789D01*
X19296Y79779D01*
X19291Y79775D01*
X19288Y79772D01*
X19274Y79753D01*
X19264Y79731D01*
X19254Y79709D01*
X19249Y79689D01*
X19247Y79672D01*
X19244Y79658D01*
Y79645D01*
Y79643D01*
X19247Y79616D01*
X19249Y79594D01*
X19254Y79572D01*
X19261Y79555D01*
X19269Y79540D01*
X19274Y79531D01*
X19276Y79523D01*
X19278Y79521D01*
X19291Y79504D01*
X19305Y79492D01*
X19335Y79470D01*
X19349Y79465D01*
X19359Y79460D01*
X19366Y79455D01*
X19369D01*
X19381Y79453D01*
X19398Y79448D01*
X19415Y79445D01*
X19437Y79443D01*
X19483Y79440D01*
X19532Y79438D01*
X19579Y79435D01*
X19891D01*
Y79843D01*
D02*
G37*
G36*
X16914Y79865D02*
X16904D01*
X16885Y79862D01*
X16868Y79860D01*
X16851Y79853D01*
X16836Y79848D01*
X16826Y79840D01*
X16816Y79833D01*
X16812Y79831D01*
X16809Y79828D01*
X16794Y79811D01*
X16780Y79792D01*
X16758Y79743D01*
X16748Y79721D01*
X16743Y79704D01*
X16738Y79692D01*
Y79689D01*
Y79687D01*
X16734Y79665D01*
X16729Y79640D01*
X16724Y79611D01*
X16721Y79582D01*
X16716Y79518D01*
X16712Y79453D01*
Y79423D01*
Y79394D01*
X16709Y79367D01*
Y79345D01*
Y79326D01*
Y79311D01*
Y79301D01*
Y79299D01*
Y79247D01*
X16712Y79201D01*
Y79157D01*
X16714Y79116D01*
X16716Y79079D01*
X16719Y79048D01*
X16721Y79018D01*
X16724Y78991D01*
X16729Y78969D01*
X16731Y78950D01*
X16734Y78933D01*
X16736Y78921D01*
X16738Y78908D01*
Y78901D01*
X16741Y78899D01*
Y78896D01*
X16751Y78865D01*
X16763Y78838D01*
X16773Y78816D01*
X16785Y78799D01*
X16794Y78786D01*
X16802Y78777D01*
X16807Y78772D01*
X16809Y78769D01*
X16826Y78757D01*
X16841Y78750D01*
X16873Y78740D01*
X16885Y78738D01*
X16895Y78735D01*
X16904D01*
X16924Y78738D01*
X16943Y78740D01*
X16960Y78745D01*
X16975Y78752D01*
X16987Y78759D01*
X16997Y78764D01*
X17002Y78767D01*
X17004Y78769D01*
X17019Y78786D01*
X17034Y78806D01*
X17043Y78828D01*
X17053Y78852D01*
X17063Y78874D01*
X17068Y78891D01*
X17070Y78904D01*
X17073Y78908D01*
X17078Y78930D01*
X17082Y78957D01*
X17085Y78984D01*
X17087Y79016D01*
X17092Y79079D01*
X17097Y79145D01*
Y79174D01*
Y79204D01*
X17099Y79230D01*
Y79252D01*
Y79272D01*
Y79287D01*
Y79296D01*
Y79299D01*
Y79350D01*
X17097Y79396D01*
Y79440D01*
X17095Y79482D01*
X17092Y79518D01*
X17090Y79550D01*
X17087Y79579D01*
X17085Y79606D01*
X17082Y79628D01*
X17080Y79648D01*
X17078Y79665D01*
X17075Y79679D01*
X17073Y79689D01*
X17070Y79697D01*
Y79699D01*
Y79701D01*
X17061Y79733D01*
X17051Y79760D01*
X17039Y79782D01*
X17029Y79799D01*
X17019Y79811D01*
X17012Y79821D01*
X17007Y79826D01*
X17004Y79828D01*
X16987Y79840D01*
X16970Y79850D01*
X16953Y79855D01*
X16939Y79860D01*
X16924Y79862D01*
X16914Y79865D01*
D02*
G37*
G36*
X19274Y85931D02*
X18905D01*
X18883Y85928D01*
X18834D01*
X18812Y85926D01*
X18800D01*
X18793Y85923D01*
X18790D01*
X18764Y85916D01*
X18739Y85909D01*
X18720Y85899D01*
X18703Y85887D01*
X18688Y85877D01*
X18678Y85867D01*
X18673Y85862D01*
X18671Y85860D01*
X18656Y85840D01*
X18646Y85818D01*
X18637Y85796D01*
X18632Y85777D01*
X18629Y85760D01*
X18627Y85745D01*
Y85733D01*
Y85731D01*
X18629Y85704D01*
X18632Y85682D01*
X18637Y85660D01*
X18644Y85643D01*
X18651Y85628D01*
X18656Y85618D01*
X18659Y85611D01*
X18661Y85609D01*
X18673Y85592D01*
X18688Y85579D01*
X18717Y85557D01*
X18732Y85553D01*
X18742Y85548D01*
X18749Y85543D01*
X18751D01*
X18764Y85540D01*
X18781Y85535D01*
X18798Y85533D01*
X18820Y85531D01*
X18866Y85528D01*
X18915Y85526D01*
X18961Y85523D01*
X19274D01*
Y85931D01*
D02*
G37*
G36*
X16968Y92065D02*
X16953D01*
X16921Y92062D01*
X16890Y92053D01*
X16863Y92038D01*
X16841Y92023D01*
X16821Y92009D01*
X16807Y91994D01*
X16797Y91984D01*
X16794Y91982D01*
X16773Y91948D01*
X16756Y91911D01*
X16743Y91872D01*
X16734Y91835D01*
X16729Y91801D01*
X16726Y91774D01*
Y91765D01*
Y91757D01*
Y91752D01*
Y91750D01*
X16729Y91701D01*
X16736Y91660D01*
X16746Y91626D01*
X16756Y91596D01*
X16768Y91572D01*
X16777Y91555D01*
X16785Y91545D01*
X16787Y91543D01*
X16812Y91521D01*
X16836Y91504D01*
X16860Y91492D01*
X16885Y91484D01*
X16904Y91479D01*
X16921Y91474D01*
X16936D01*
X16970Y91477D01*
X16999Y91487D01*
X17026Y91496D01*
X17048Y91511D01*
X17065Y91523D01*
X17078Y91535D01*
X17087Y91543D01*
X17090Y91545D01*
X17109Y91577D01*
X17124Y91611D01*
X17134Y91650D01*
X17141Y91687D01*
X17146Y91721D01*
X17148Y91750D01*
Y91760D01*
Y91767D01*
Y91772D01*
Y91774D01*
X17146Y91828D01*
X17141Y91874D01*
X17131Y91914D01*
X17121Y91943D01*
X17112Y91967D01*
X17102Y91984D01*
X17097Y91994D01*
X17095Y91997D01*
X17073Y92019D01*
X17048Y92036D01*
X17026Y92048D01*
X17002Y92058D01*
X16982Y92062D01*
X16968Y92065D01*
D02*
G37*
G36*
X19893Y92043D02*
X19525D01*
X19503Y92040D01*
X19454D01*
X19432Y92038D01*
X19420D01*
X19413Y92036D01*
X19410D01*
X19383Y92028D01*
X19359Y92021D01*
X19339Y92011D01*
X19322Y91999D01*
X19308Y91989D01*
X19298Y91979D01*
X19293Y91975D01*
X19291Y91972D01*
X19276Y91953D01*
X19266Y91931D01*
X19256Y91909D01*
X19252Y91889D01*
X19249Y91872D01*
X19247Y91857D01*
Y91845D01*
Y91843D01*
X19249Y91816D01*
X19252Y91794D01*
X19256Y91772D01*
X19264Y91755D01*
X19271Y91740D01*
X19276Y91731D01*
X19278Y91723D01*
X19281Y91721D01*
X19293Y91704D01*
X19308Y91691D01*
X19337Y91670D01*
X19352Y91665D01*
X19361Y91660D01*
X19369Y91655D01*
X19371D01*
X19383Y91653D01*
X19400Y91648D01*
X19418Y91645D01*
X19440Y91643D01*
X19486Y91640D01*
X19535Y91638D01*
X19581Y91635D01*
X19893D01*
Y92043D01*
D02*
G37*
G36*
X16899Y97523D02*
X16885D01*
X16853Y97521D01*
X16824Y97511D01*
X16797Y97501D01*
X16775Y97487D01*
X16758Y97474D01*
X16743Y97462D01*
X16736Y97452D01*
X16734Y97450D01*
X16712Y97418D01*
X16697Y97384D01*
X16685Y97345D01*
X16677Y97308D01*
X16672Y97274D01*
X16670Y97247D01*
Y97235D01*
Y97228D01*
Y97223D01*
Y97221D01*
X16672Y97167D01*
X16680Y97121D01*
X16690Y97084D01*
X16699Y97052D01*
X16709Y97030D01*
X16719Y97013D01*
X16726Y97004D01*
X16729Y97001D01*
X16751Y96979D01*
X16775Y96962D01*
X16797Y96952D01*
X16821Y96943D01*
X16841Y96938D01*
X16856Y96935D01*
X16870D01*
X16902Y96938D01*
X16931Y96947D01*
X16958Y96960D01*
X16980Y96977D01*
X16999Y96991D01*
X17014Y97004D01*
X17024Y97013D01*
X17026Y97016D01*
X17048Y97050D01*
X17065Y97086D01*
X17078Y97126D01*
X17085Y97162D01*
X17090Y97196D01*
X17095Y97223D01*
Y97233D01*
Y97240D01*
Y97245D01*
Y97247D01*
X17092Y97296D01*
X17085Y97338D01*
X17075Y97372D01*
X17063Y97401D01*
X17053Y97423D01*
X17043Y97440D01*
X17036Y97450D01*
X17034Y97452D01*
X17009Y97477D01*
X16985Y97494D01*
X16960Y97506D01*
X16936Y97513D01*
X16917Y97521D01*
X16899Y97523D01*
D02*
G37*
G36*
X19906Y98043D02*
X19537D01*
X19515Y98040D01*
X19466D01*
X19444Y98038D01*
X19432D01*
X19425Y98036D01*
X19422D01*
X19396Y98028D01*
X19371Y98021D01*
X19352Y98011D01*
X19335Y97999D01*
X19320Y97989D01*
X19310Y97979D01*
X19305Y97975D01*
X19303Y97972D01*
X19288Y97953D01*
X19278Y97931D01*
X19269Y97909D01*
X19264Y97889D01*
X19261Y97872D01*
X19259Y97857D01*
Y97845D01*
Y97843D01*
X19261Y97816D01*
X19264Y97794D01*
X19269Y97772D01*
X19276Y97755D01*
X19283Y97740D01*
X19288Y97731D01*
X19291Y97723D01*
X19293Y97721D01*
X19305Y97704D01*
X19320Y97692D01*
X19349Y97670D01*
X19364Y97665D01*
X19374Y97660D01*
X19381Y97655D01*
X19383D01*
X19396Y97653D01*
X19413Y97648D01*
X19430Y97645D01*
X19452Y97643D01*
X19498Y97640D01*
X19547Y97638D01*
X19593Y97635D01*
X19906D01*
Y98043D01*
D02*
G37*
G36*
X160978Y153619D02*
X160956D01*
X160937D01*
X160922D01*
X160913D01*
X160910D01*
X160859D01*
X160812Y153616D01*
X160768D01*
X160727Y153614D01*
X160690Y153611D01*
X160659Y153609D01*
X160629Y153606D01*
X160603Y153604D01*
X160581Y153599D01*
X160561Y153596D01*
X160544Y153594D01*
X160532Y153592D01*
X160520Y153589D01*
X160512D01*
X160510Y153587D01*
X160507D01*
X160476Y153577D01*
X160449Y153565D01*
X160427Y153555D01*
X160410Y153543D01*
X160398Y153533D01*
X160388Y153526D01*
X160383Y153521D01*
X160380Y153518D01*
X160368Y153501D01*
X160361Y153487D01*
X160351Y153455D01*
X160349Y153443D01*
X160346Y153433D01*
Y153423D01*
X160349Y153404D01*
X160351Y153384D01*
X160356Y153367D01*
X160363Y153352D01*
X160371Y153340D01*
X160376Y153331D01*
X160378Y153326D01*
X160380Y153323D01*
X160398Y153309D01*
X160417Y153294D01*
X160439Y153284D01*
X160464Y153274D01*
X160485Y153265D01*
X160503Y153260D01*
X160515Y153257D01*
X160520Y153255D01*
X160542Y153250D01*
X160568Y153245D01*
X160595Y153243D01*
X160627Y153240D01*
X160690Y153235D01*
X160756Y153231D01*
X160786D01*
X160815D01*
X160842Y153228D01*
X160864D01*
X160883D01*
X160898D01*
X160908D01*
X160910D01*
X160961D01*
X161008Y153231D01*
X161051D01*
X161093Y153233D01*
X161130Y153235D01*
X161161Y153238D01*
X161191Y153240D01*
X161217Y153243D01*
X161239Y153245D01*
X161259Y153248D01*
X161276Y153250D01*
X161291Y153252D01*
X161300Y153255D01*
X161308Y153257D01*
X161310D01*
X161313D01*
X161344Y153267D01*
X161371Y153277D01*
X161393Y153289D01*
X161410Y153299D01*
X161422Y153309D01*
X161432Y153316D01*
X161437Y153321D01*
X161440Y153323D01*
X161452Y153340D01*
X161461Y153357D01*
X161466Y153375D01*
X161471Y153389D01*
X161474Y153404D01*
X161476Y153413D01*
Y153423D01*
X161474Y153443D01*
X161471Y153460D01*
X161464Y153477D01*
X161459Y153492D01*
X161452Y153501D01*
X161444Y153511D01*
X161442Y153516D01*
X161440Y153518D01*
X161422Y153533D01*
X161403Y153548D01*
X161354Y153570D01*
X161332Y153579D01*
X161315Y153584D01*
X161303Y153589D01*
X161300D01*
X161298D01*
X161276Y153594D01*
X161252Y153599D01*
X161222Y153604D01*
X161193Y153606D01*
X161130Y153611D01*
X161064Y153616D01*
X161035D01*
X161005D01*
X160978Y153619D01*
D02*
G37*
G36*
X155686Y153601D02*
X155676D01*
X155669D01*
X155664D01*
X155661D01*
X155613Y153599D01*
X155571Y153592D01*
X155537Y153582D01*
X155508Y153572D01*
X155483Y153560D01*
X155466Y153550D01*
X155456Y153543D01*
X155454Y153540D01*
X155432Y153516D01*
X155415Y153492D01*
X155403Y153467D01*
X155395Y153443D01*
X155391Y153423D01*
X155386Y153406D01*
Y153392D01*
X155388Y153357D01*
X155398Y153328D01*
X155408Y153301D01*
X155422Y153279D01*
X155434Y153262D01*
X155447Y153250D01*
X155454Y153240D01*
X155456Y153238D01*
X155488Y153218D01*
X155522Y153204D01*
X155561Y153194D01*
X155598Y153187D01*
X155632Y153182D01*
X155661Y153179D01*
X155671D01*
X155678D01*
X155683D01*
X155686D01*
X155739Y153182D01*
X155786Y153187D01*
X155825Y153196D01*
X155854Y153206D01*
X155878Y153216D01*
X155896Y153226D01*
X155905Y153231D01*
X155908Y153233D01*
X155930Y153255D01*
X155947Y153279D01*
X155959Y153301D01*
X155969Y153326D01*
X155974Y153345D01*
X155976Y153360D01*
Y153375D01*
X155974Y153406D01*
X155964Y153438D01*
X155949Y153465D01*
X155935Y153487D01*
X155920Y153506D01*
X155905Y153521D01*
X155896Y153531D01*
X155893Y153533D01*
X155859Y153555D01*
X155822Y153572D01*
X155783Y153584D01*
X155747Y153594D01*
X155713Y153599D01*
X155686Y153601D01*
D02*
G37*
G36*
X176765Y153852D02*
X176357D01*
Y153483D01*
X176359Y153461D01*
Y153412D01*
X176362Y153391D01*
Y153378D01*
X176364Y153371D01*
Y153368D01*
X176372Y153342D01*
X176379Y153317D01*
X176389Y153298D01*
X176401Y153281D01*
X176411Y153266D01*
X176420Y153256D01*
X176425Y153251D01*
X176428Y153249D01*
X176447Y153234D01*
X176469Y153225D01*
X176491Y153215D01*
X176511Y153210D01*
X176528Y153208D01*
X176542Y153205D01*
X176555D01*
X176557D01*
X176584Y153208D01*
X176606Y153210D01*
X176628Y153215D01*
X176645Y153222D01*
X176660Y153229D01*
X176669Y153234D01*
X176677Y153237D01*
X176679Y153239D01*
X176696Y153251D01*
X176708Y153266D01*
X176730Y153295D01*
X176735Y153310D01*
X176740Y153320D01*
X176745Y153327D01*
Y153330D01*
X176748Y153342D01*
X176752Y153359D01*
X176755Y153376D01*
X176757Y153398D01*
X176760Y153444D01*
X176762Y153493D01*
X176765Y153539D01*
Y153852D01*
D02*
G37*
G36*
X176533Y151058D02*
X176523D01*
X176518D01*
X176486Y151055D01*
X176460Y151050D01*
X176435Y151041D01*
X176416Y151031D01*
X176401Y151024D01*
X176389Y151014D01*
X176382Y151009D01*
X176379Y151007D01*
X176362Y150985D01*
X176347Y150963D01*
X176338Y150938D01*
X176333Y150916D01*
X176328Y150897D01*
X176325Y150880D01*
Y150865D01*
X176328Y150836D01*
X176333Y150806D01*
X176342Y150785D01*
X176352Y150765D01*
X176362Y150748D01*
X176372Y150738D01*
X176377Y150731D01*
X176379Y150728D01*
X176399Y150711D01*
X176423Y150697D01*
X176445Y150687D01*
X176467Y150682D01*
X176486Y150677D01*
X176501Y150675D01*
X176511D01*
X176516D01*
X176547Y150677D01*
X176577Y150682D01*
X176601Y150692D01*
X176623Y150702D01*
X176638Y150711D01*
X176650Y150721D01*
X176657Y150726D01*
X176660Y150728D01*
X176677Y150750D01*
X176689Y150772D01*
X176699Y150797D01*
X176704Y150819D01*
X176708Y150838D01*
X176711Y150853D01*
Y150867D01*
X176708Y150899D01*
X176704Y150926D01*
X176694Y150951D01*
X176684Y150970D01*
X176677Y150985D01*
X176667Y150997D01*
X176662Y151004D01*
X176660Y151007D01*
X176638Y151024D01*
X176616Y151036D01*
X176591Y151046D01*
X176569Y151050D01*
X176550Y151055D01*
X176533Y151058D01*
D02*
G37*
G36*
X177226Y151087D02*
X177209D01*
X177206D01*
X177204D01*
X177170Y151085D01*
X177138Y151080D01*
X177109Y151070D01*
X177084Y151060D01*
X177062Y151050D01*
X177048Y151041D01*
X177035Y151036D01*
X177033Y151033D01*
X177006Y151009D01*
X176987Y150982D01*
X176974Y150955D01*
X176965Y150928D01*
X176960Y150904D01*
X176955Y150885D01*
Y150865D01*
X176957Y150831D01*
X176965Y150799D01*
X176977Y150772D01*
X176989Y150748D01*
X177004Y150728D01*
X177013Y150716D01*
X177023Y150707D01*
X177026Y150704D01*
X177052Y150682D01*
X177082Y150665D01*
X177113Y150655D01*
X177140Y150645D01*
X177167Y150641D01*
X177187Y150638D01*
X177201D01*
X177204D01*
X177206D01*
X177253Y150641D01*
X177292Y150648D01*
X177326Y150658D01*
X177353Y150670D01*
X177375Y150682D01*
X177392Y150692D01*
X177401Y150699D01*
X177404Y150702D01*
X177426Y150726D01*
X177443Y150753D01*
X177455Y150780D01*
X177462Y150804D01*
X177467Y150826D01*
X177472Y150843D01*
Y150860D01*
X177470Y150894D01*
X177460Y150926D01*
X177450Y150955D01*
X177436Y150977D01*
X177423Y150997D01*
X177411Y151012D01*
X177404Y151021D01*
X177401Y151024D01*
X177372Y151046D01*
X177340Y151060D01*
X177309Y151073D01*
X177277Y151080D01*
X177248Y151085D01*
X177226Y151087D01*
D02*
G37*
G36*
X108345Y108879D02*
X108033D01*
Y108472D01*
X108401D01*
X108423Y108474D01*
X108472D01*
X108494Y108477D01*
X108506D01*
X108513Y108479D01*
X108516D01*
X108543Y108486D01*
X108567Y108494D01*
X108586Y108503D01*
X108604Y108516D01*
X108618Y108525D01*
X108628Y108535D01*
X108633Y108540D01*
X108635Y108543D01*
X108650Y108562D01*
X108660Y108584D01*
X108669Y108606D01*
X108674Y108625D01*
X108677Y108642D01*
X108679Y108657D01*
Y108669D01*
Y108672D01*
X108677Y108699D01*
X108674Y108721D01*
X108669Y108743D01*
X108662Y108760D01*
X108655Y108774D01*
X108650Y108784D01*
X108647Y108791D01*
X108645Y108794D01*
X108633Y108811D01*
X108618Y108823D01*
X108589Y108845D01*
X108574Y108850D01*
X108564Y108855D01*
X108557Y108860D01*
X108555D01*
X108543Y108862D01*
X108525Y108867D01*
X108508Y108870D01*
X108486Y108872D01*
X108440Y108874D01*
X108391Y108877D01*
X108345Y108879D01*
D02*
G37*
G36*
X108969Y81879D02*
X108657D01*
Y81472D01*
X109025D01*
X109047Y81474D01*
X109096D01*
X109118Y81477D01*
X109130D01*
X109138Y81479D01*
X109140D01*
X109167Y81486D01*
X109191Y81494D01*
X109211Y81503D01*
X109228Y81516D01*
X109243Y81525D01*
X109252Y81535D01*
X109257Y81540D01*
X109260Y81542D01*
X109274Y81562D01*
X109284Y81584D01*
X109294Y81606D01*
X109299Y81625D01*
X109301Y81643D01*
X109304Y81657D01*
Y81669D01*
Y81672D01*
X109301Y81699D01*
X109299Y81721D01*
X109294Y81743D01*
X109286Y81760D01*
X109279Y81774D01*
X109274Y81784D01*
X109272Y81791D01*
X109269Y81794D01*
X109257Y81811D01*
X109243Y81823D01*
X109213Y81845D01*
X109199Y81850D01*
X109189Y81855D01*
X109182Y81860D01*
X109179D01*
X109167Y81862D01*
X109150Y81867D01*
X109133Y81870D01*
X109111Y81872D01*
X109064Y81874D01*
X109016Y81877D01*
X108969Y81879D01*
D02*
G37*
G36*
X131298Y96828D02*
X130930D01*
X130908Y96826D01*
X130859D01*
X130837Y96823D01*
X130825D01*
X130817Y96821D01*
X130815D01*
X130788Y96814D01*
X130764Y96806D01*
X130744Y96797D01*
X130727Y96784D01*
X130712Y96775D01*
X130703Y96765D01*
X130698Y96760D01*
X130695Y96758D01*
X130681Y96738D01*
X130671Y96716D01*
X130661Y96694D01*
X130656Y96675D01*
X130654Y96658D01*
X130651Y96643D01*
Y96631D01*
Y96628D01*
X130654Y96601D01*
X130656Y96579D01*
X130661Y96557D01*
X130668Y96540D01*
X130676Y96526D01*
X130681Y96516D01*
X130683Y96509D01*
X130685Y96506D01*
X130698Y96489D01*
X130712Y96477D01*
X130742Y96455D01*
X130756Y96450D01*
X130766Y96445D01*
X130773Y96440D01*
X130776D01*
X130788Y96438D01*
X130805Y96433D01*
X130822Y96430D01*
X130844Y96428D01*
X130891Y96426D01*
X130939Y96423D01*
X130986Y96421D01*
X131298D01*
Y96828D01*
D02*
G37*
G36*
X129473Y96636D02*
Y96087D01*
X129844D01*
X129473Y96636D01*
D02*
G37*
G36*
X131276Y91843D02*
X130908D01*
X130886Y91840D01*
X130837D01*
X130815Y91838D01*
X130803D01*
X130795Y91836D01*
X130793D01*
X130766Y91828D01*
X130742Y91821D01*
X130722Y91811D01*
X130705Y91799D01*
X130690Y91789D01*
X130681Y91780D01*
X130676Y91775D01*
X130673Y91772D01*
X130659Y91753D01*
X130649Y91731D01*
X130639Y91709D01*
X130634Y91689D01*
X130632Y91672D01*
X130629Y91658D01*
Y91645D01*
Y91643D01*
X130632Y91616D01*
X130634Y91594D01*
X130639Y91572D01*
X130647Y91555D01*
X130654Y91540D01*
X130659Y91531D01*
X130661Y91523D01*
X130664Y91521D01*
X130676Y91504D01*
X130690Y91492D01*
X130720Y91470D01*
X130734Y91465D01*
X130744Y91460D01*
X130751Y91455D01*
X130754D01*
X130766Y91452D01*
X130783Y91448D01*
X130800Y91445D01*
X130822Y91443D01*
X130868Y91440D01*
X130917Y91438D01*
X130964Y91435D01*
X131276D01*
Y91843D01*
D02*
G37*
%LPD*%
M02*
