G04*
G04 #@! TF.GenerationSoftware,Altium Limited,Altium Designer,21.3.2 (30)*
G04*
G04 Layer_Color=8388736*
%FSLAX25Y25*%
%MOIN*%
G70*
G04*
G04 #@! TF.SameCoordinates,24C89C37-09E3-4822-9DB9-40424265DB80*
G04*
G04*
G04 #@! TF.FilePolarity,Negative*
G04*
G01*
G75*
G04:AMPARAMS|DCode=45|XSize=27.56mil|YSize=27.56mil|CornerRadius=7.87mil|HoleSize=0mil|Usage=FLASHONLY|Rotation=180.000|XOffset=0mil|YOffset=0mil|HoleType=Round|Shape=RoundedRectangle|*
%AMROUNDEDRECTD45*
21,1,0.02756,0.01181,0,0,180.0*
21,1,0.01181,0.02756,0,0,180.0*
1,1,0.01575,-0.00591,0.00591*
1,1,0.01575,0.00591,0.00591*
1,1,0.01575,0.00591,-0.00591*
1,1,0.01575,-0.00591,-0.00591*
%
%ADD45ROUNDEDRECTD45*%
%ADD46R,0.12217X0.12217*%
G04:AMPARAMS|DCode=47|XSize=27.56mil|YSize=27.56mil|CornerRadius=7.87mil|HoleSize=0mil|Usage=FLASHONLY|Rotation=270.000|XOffset=0mil|YOffset=0mil|HoleType=Round|Shape=RoundedRectangle|*
%AMROUNDEDRECTD47*
21,1,0.02756,0.01181,0,0,270.0*
21,1,0.01181,0.02756,0,0,270.0*
1,1,0.01575,-0.00591,-0.00591*
1,1,0.01575,-0.00591,0.00591*
1,1,0.01575,0.00591,0.00591*
1,1,0.01575,0.00591,-0.00591*
%
%ADD47ROUNDEDRECTD47*%
G04:AMPARAMS|DCode=48|XSize=39.37mil|YSize=43.31mil|CornerRadius=10.83mil|HoleSize=0mil|Usage=FLASHONLY|Rotation=270.000|XOffset=0mil|YOffset=0mil|HoleType=Round|Shape=RoundedRectangle|*
%AMROUNDEDRECTD48*
21,1,0.03937,0.02165,0,0,270.0*
21,1,0.01772,0.04331,0,0,270.0*
1,1,0.02165,-0.01083,-0.00886*
1,1,0.02165,-0.01083,0.00886*
1,1,0.02165,0.01083,0.00886*
1,1,0.02165,0.01083,-0.00886*
%
%ADD48ROUNDEDRECTD48*%
G04:AMPARAMS|DCode=49|XSize=19.81mil|YSize=41.86mil|CornerRadius=0mil|HoleSize=0mil|Usage=FLASHONLY|Rotation=160.000|XOffset=0mil|YOffset=0mil|HoleType=Round|Shape=Rectangle|*
%AMROTATEDRECTD49*
4,1,4,0.01647,0.01628,0.00215,-0.02306,-0.01647,-0.01628,-0.00215,0.02306,0.01647,0.01628,0.0*
%
%ADD49ROTATEDRECTD49*%

G04:AMPARAMS|DCode=50|XSize=35.56mil|YSize=33.98mil|CornerRadius=0mil|HoleSize=0mil|Usage=FLASHONLY|Rotation=160.000|XOffset=0mil|YOffset=0mil|HoleType=Round|Shape=Rectangle|*
%AMROTATEDRECTD50*
4,1,4,0.02252,0.00989,0.01090,-0.02205,-0.02252,-0.00989,-0.01090,0.02205,0.02252,0.00989,0.0*
%
%ADD50ROTATEDRECTD50*%

%ADD51R,0.03398X0.03556*%
%ADD52R,0.04186X0.01981*%
%ADD53R,0.04147X0.03162*%
%ADD54R,0.04147X0.03556*%
G04:AMPARAMS|DCode=55|XSize=39.37mil|YSize=43.31mil|CornerRadius=10.83mil|HoleSize=0mil|Usage=FLASHONLY|Rotation=0.000|XOffset=0mil|YOffset=0mil|HoleType=Round|Shape=RoundedRectangle|*
%AMROUNDEDRECTD55*
21,1,0.03937,0.02165,0,0,0.0*
21,1,0.01772,0.04331,0,0,0.0*
1,1,0.02165,0.00886,-0.01083*
1,1,0.02165,-0.00886,-0.01083*
1,1,0.02165,-0.00886,0.01083*
1,1,0.02165,0.00886,0.01083*
%
%ADD55ROUNDEDRECTD55*%
%ADD56P,0.16782X4X190.0*%
%ADD57P,0.16782X4X210.0*%
G04:AMPARAMS|DCode=58|XSize=36.22mil|YSize=35.43mil|CornerRadius=9.84mil|HoleSize=0mil|Usage=FLASHONLY|Rotation=180.000|XOffset=0mil|YOffset=0mil|HoleType=Round|Shape=RoundedRectangle|*
%AMROUNDEDRECTD58*
21,1,0.03622,0.01575,0,0,180.0*
21,1,0.01654,0.03543,0,0,180.0*
1,1,0.01968,-0.00827,0.00787*
1,1,0.01968,0.00827,0.00787*
1,1,0.01968,0.00827,-0.00787*
1,1,0.01968,-0.00827,-0.00787*
%
%ADD58ROUNDEDRECTD58*%
G04:AMPARAMS|DCode=59|XSize=23.62mil|YSize=27.56mil|CornerRadius=6.89mil|HoleSize=0mil|Usage=FLASHONLY|Rotation=90.000|XOffset=0mil|YOffset=0mil|HoleType=Round|Shape=RoundedRectangle|*
%AMROUNDEDRECTD59*
21,1,0.02362,0.01378,0,0,90.0*
21,1,0.00984,0.02756,0,0,90.0*
1,1,0.01378,0.00689,0.00492*
1,1,0.01378,0.00689,-0.00492*
1,1,0.01378,-0.00689,-0.00492*
1,1,0.01378,-0.00689,0.00492*
%
%ADD59ROUNDEDRECTD59*%
%ADD60R,0.03937X0.06693*%
%ADD61R,0.03307X0.01654*%
%ADD62R,0.12690X0.06115*%
G04:AMPARAMS|DCode=63|XSize=35.56mil|YSize=33.98mil|CornerRadius=0mil|HoleSize=0mil|Usage=FLASHONLY|Rotation=20.000|XOffset=0mil|YOffset=0mil|HoleType=Round|Shape=Rectangle|*
%AMROTATEDRECTD63*
4,1,4,-0.01090,-0.02205,-0.02252,0.00989,0.01090,0.02205,0.02252,-0.00989,-0.01090,-0.02205,0.0*
%
%ADD63ROTATEDRECTD63*%

G04:AMPARAMS|DCode=64|XSize=19.81mil|YSize=41.86mil|CornerRadius=0mil|HoleSize=0mil|Usage=FLASHONLY|Rotation=20.000|XOffset=0mil|YOffset=0mil|HoleType=Round|Shape=Rectangle|*
%AMROTATEDRECTD64*
4,1,4,-0.00215,-0.02306,-0.01647,0.01628,0.00215,0.02306,0.01647,-0.01628,-0.00215,-0.02306,0.0*
%
%ADD64ROTATEDRECTD64*%

G04:AMPARAMS|DCode=65|XSize=29.53mil|YSize=39.37mil|CornerRadius=8.37mil|HoleSize=0mil|Usage=FLASHONLY|Rotation=0.000|XOffset=0mil|YOffset=0mil|HoleType=Round|Shape=RoundedRectangle|*
%AMROUNDEDRECTD65*
21,1,0.02953,0.02264,0,0,0.0*
21,1,0.01280,0.03937,0,0,0.0*
1,1,0.01673,0.00640,-0.01132*
1,1,0.01673,-0.00640,-0.01132*
1,1,0.01673,-0.00640,0.01132*
1,1,0.01673,0.00640,0.01132*
%
%ADD65ROUNDEDRECTD65*%
G04:AMPARAMS|DCode=66|XSize=47.24mil|YSize=62.99mil|CornerRadius=12.8mil|HoleSize=0mil|Usage=FLASHONLY|Rotation=270.000|XOffset=0mil|YOffset=0mil|HoleType=Round|Shape=RoundedRectangle|*
%AMROUNDEDRECTD66*
21,1,0.04724,0.03740,0,0,270.0*
21,1,0.02165,0.06299,0,0,270.0*
1,1,0.02559,-0.01870,-0.01083*
1,1,0.02559,-0.01870,0.01083*
1,1,0.02559,0.01870,0.01083*
1,1,0.02559,0.01870,-0.01083*
%
%ADD66ROUNDEDRECTD66*%
G04:AMPARAMS|DCode=67|XSize=47.24mil|YSize=62.99mil|CornerRadius=12.8mil|HoleSize=0mil|Usage=FLASHONLY|Rotation=180.000|XOffset=0mil|YOffset=0mil|HoleType=Round|Shape=RoundedRectangle|*
%AMROUNDEDRECTD67*
21,1,0.04724,0.03740,0,0,180.0*
21,1,0.02165,0.06299,0,0,180.0*
1,1,0.02559,-0.01083,0.01870*
1,1,0.02559,0.01083,0.01870*
1,1,0.02559,0.01083,-0.01870*
1,1,0.02559,-0.01083,-0.01870*
%
%ADD67ROUNDEDRECTD67*%
G04:AMPARAMS|DCode=68|XSize=29.53mil|YSize=39.37mil|CornerRadius=8.37mil|HoleSize=0mil|Usage=FLASHONLY|Rotation=90.000|XOffset=0mil|YOffset=0mil|HoleType=Round|Shape=RoundedRectangle|*
%AMROUNDEDRECTD68*
21,1,0.02953,0.02264,0,0,90.0*
21,1,0.01280,0.03937,0,0,90.0*
1,1,0.01673,0.01132,0.00640*
1,1,0.01673,0.01132,-0.00640*
1,1,0.01673,-0.01132,-0.00640*
1,1,0.01673,-0.01132,0.00640*
%
%ADD68ROUNDEDRECTD68*%
G04:AMPARAMS|DCode=69|XSize=26.38mil|YSize=16.93mil|CornerRadius=5.02mil|HoleSize=0mil|Usage=FLASHONLY|Rotation=0.000|XOffset=0mil|YOffset=0mil|HoleType=Round|Shape=RoundedRectangle|*
%AMROUNDEDRECTD69*
21,1,0.02638,0.00689,0,0,0.0*
21,1,0.01634,0.01693,0,0,0.0*
1,1,0.01004,0.00817,-0.00345*
1,1,0.01004,-0.00817,-0.00345*
1,1,0.01004,-0.00817,0.00345*
1,1,0.01004,0.00817,0.00345*
%
%ADD69ROUNDEDRECTD69*%
G04:AMPARAMS|DCode=70|XSize=26.38mil|YSize=16.93mil|CornerRadius=5.02mil|HoleSize=0mil|Usage=FLASHONLY|Rotation=270.000|XOffset=0mil|YOffset=0mil|HoleType=Round|Shape=RoundedRectangle|*
%AMROUNDEDRECTD70*
21,1,0.02638,0.00689,0,0,270.0*
21,1,0.01634,0.01693,0,0,270.0*
1,1,0.01004,-0.00345,-0.00817*
1,1,0.01004,-0.00345,0.00817*
1,1,0.01004,0.00345,0.00817*
1,1,0.01004,0.00345,-0.00817*
%
%ADD70ROUNDEDRECTD70*%
G04:AMPARAMS|DCode=71|XSize=141.79mil|YSize=55.18mil|CornerRadius=14.8mil|HoleSize=0mil|Usage=FLASHONLY|Rotation=90.000|XOffset=0mil|YOffset=0mil|HoleType=Round|Shape=RoundedRectangle|*
%AMROUNDEDRECTD71*
21,1,0.14179,0.02559,0,0,90.0*
21,1,0.11221,0.05518,0,0,90.0*
1,1,0.02959,0.01280,0.05610*
1,1,0.02959,0.01280,-0.05610*
1,1,0.02959,-0.01280,-0.05610*
1,1,0.02959,-0.01280,0.05610*
%
%ADD71ROUNDEDRECTD71*%
G04:AMPARAMS|DCode=72|XSize=65.09mil|YSize=31.23mil|CornerRadius=6.9mil|HoleSize=0mil|Usage=FLASHONLY|Rotation=180.000|XOffset=0mil|YOffset=0mil|HoleType=Round|Shape=RoundedRectangle|*
%AMROUNDEDRECTD72*
21,1,0.06509,0.01742,0,0,180.0*
21,1,0.05128,0.03123,0,0,180.0*
1,1,0.01381,-0.02564,0.00871*
1,1,0.01381,0.02564,0.00871*
1,1,0.01381,0.02564,-0.00871*
1,1,0.01381,-0.02564,-0.00871*
%
%ADD72ROUNDEDRECTD72*%
G04:AMPARAMS|DCode=73|XSize=23.62mil|YSize=27.56mil|CornerRadius=6.89mil|HoleSize=0mil|Usage=FLASHONLY|Rotation=180.000|XOffset=0mil|YOffset=0mil|HoleType=Round|Shape=RoundedRectangle|*
%AMROUNDEDRECTD73*
21,1,0.02362,0.01378,0,0,180.0*
21,1,0.00984,0.02756,0,0,180.0*
1,1,0.01378,-0.00492,0.00689*
1,1,0.01378,0.00492,0.00689*
1,1,0.01378,0.00492,-0.00689*
1,1,0.01378,-0.00492,-0.00689*
%
%ADD73ROUNDEDRECTD73*%
G36*
X111413Y99957D02*
X111441Y99953D01*
X111465Y99949D01*
X111488Y99945D01*
X111516Y99937D01*
X111539Y99929D01*
X111563Y99917D01*
X111587Y99906D01*
X111606Y99894D01*
X111630Y99882D01*
X111650Y99866D01*
X111673Y99850D01*
X111693Y99835D01*
X111709Y99815D01*
X111728Y99799D01*
X111744Y99779D01*
X111760Y99756D01*
X111776Y99736D01*
X111787Y99717D01*
X111799Y99693D01*
X111811Y99669D01*
X111823Y99646D01*
X111831Y99622D01*
X111839Y99594D01*
X111843Y99571D01*
X111846Y99547D01*
X111850Y99520D01*
X111854Y99496D01*
Y99468D01*
Y97736D01*
Y97709D01*
X111850Y97685D01*
X111846Y97658D01*
X111843Y97634D01*
X111839Y97610D01*
X111831Y97583D01*
X111823Y97559D01*
X111811Y97535D01*
X111799Y97512D01*
X111787Y97488D01*
X111776Y97469D01*
X111760Y97449D01*
X111744Y97425D01*
X111728Y97405D01*
X111709Y97390D01*
X111693Y97370D01*
X111673Y97354D01*
X111650Y97339D01*
X111630Y97323D01*
X111606Y97311D01*
X111587Y97299D01*
X111563Y97287D01*
X111539Y97276D01*
X111516Y97268D01*
X111488Y97260D01*
X111465Y97256D01*
X111441Y97252D01*
X111413Y97248D01*
X111390Y97244D01*
X110547D01*
X110524Y97248D01*
X110496Y97252D01*
X110472Y97256D01*
X110449Y97260D01*
X110421Y97268D01*
X110398Y97276D01*
X110374Y97287D01*
X110350Y97299D01*
X110327Y97311D01*
X110307Y97323D01*
X110287Y97339D01*
X110264Y97354D01*
X110244Y97370D01*
X110228Y97390D01*
X110209Y97405D01*
X110193Y97425D01*
X110177Y97449D01*
X110161Y97469D01*
X110150Y97488D01*
X110138Y97512D01*
X110126Y97535D01*
X110114Y97559D01*
X110106Y97583D01*
X110098Y97610D01*
X110094Y97634D01*
X110091Y97658D01*
X110087Y97685D01*
X110083Y97709D01*
Y97736D01*
Y99468D01*
Y99496D01*
X110087Y99520D01*
X110091Y99547D01*
X110094Y99571D01*
X110098Y99594D01*
X110106Y99622D01*
X110114Y99646D01*
X110126Y99669D01*
X110138Y99693D01*
X110150Y99717D01*
X110161Y99736D01*
X110177Y99756D01*
X110193Y99779D01*
X110209Y99799D01*
X110228Y99815D01*
X110244Y99835D01*
X110264Y99850D01*
X110287Y99866D01*
X110307Y99882D01*
X110331Y99894D01*
X110350Y99906D01*
X110374Y99917D01*
X110398Y99929D01*
X110421Y99937D01*
X110449Y99945D01*
X110472Y99949D01*
X110496Y99953D01*
X110524Y99957D01*
X110547Y99961D01*
X111390D01*
X111413Y99957D01*
D02*
G37*
G36*
X109445D02*
X109472Y99953D01*
X109496Y99949D01*
X109520Y99945D01*
X109547Y99937D01*
X109571Y99929D01*
X109595Y99917D01*
X109618Y99906D01*
X109642Y99894D01*
X109661Y99882D01*
X109681Y99866D01*
X109705Y99850D01*
X109724Y99835D01*
X109740Y99815D01*
X109760Y99799D01*
X109776Y99779D01*
X109791Y99756D01*
X109807Y99736D01*
X109819Y99717D01*
X109831Y99693D01*
X109843Y99669D01*
X109854Y99646D01*
X109862Y99622D01*
X109870Y99594D01*
X109874Y99571D01*
X109878Y99547D01*
X109882Y99520D01*
X109886Y99496D01*
Y99468D01*
Y97736D01*
Y97709D01*
X109882Y97685D01*
X109878Y97658D01*
X109874Y97634D01*
X109870Y97610D01*
X109862Y97583D01*
X109854Y97559D01*
X109843Y97535D01*
X109831Y97512D01*
X109819Y97488D01*
X109807Y97469D01*
X109791Y97449D01*
X109776Y97425D01*
X109760Y97405D01*
X109740Y97390D01*
X109724Y97370D01*
X109705Y97354D01*
X109681Y97339D01*
X109661Y97323D01*
X109642Y97311D01*
X109618Y97299D01*
X109595Y97287D01*
X109571Y97276D01*
X109547Y97268D01*
X109520Y97260D01*
X109496Y97256D01*
X109472Y97252D01*
X109445Y97248D01*
X109421Y97244D01*
X108579D01*
X108555Y97248D01*
X108528Y97252D01*
X108504Y97256D01*
X108480Y97260D01*
X108453Y97268D01*
X108429Y97276D01*
X108405Y97287D01*
X108382Y97299D01*
X108358Y97311D01*
X108339Y97323D01*
X108319Y97339D01*
X108295Y97354D01*
X108276Y97370D01*
X108260Y97390D01*
X108240Y97405D01*
X108224Y97425D01*
X108209Y97449D01*
X108193Y97469D01*
X108181Y97488D01*
X108169Y97512D01*
X108158Y97535D01*
X108146Y97559D01*
X108138Y97583D01*
X108130Y97610D01*
X108126Y97634D01*
X108122Y97658D01*
X108118Y97685D01*
X108114Y97709D01*
Y97736D01*
Y99468D01*
Y99496D01*
X108118Y99520D01*
X108122Y99547D01*
X108126Y99571D01*
X108130Y99594D01*
X108138Y99622D01*
X108146Y99646D01*
X108158Y99669D01*
X108169Y99693D01*
X108181Y99717D01*
X108193Y99736D01*
X108209Y99756D01*
X108224Y99779D01*
X108240Y99799D01*
X108260Y99815D01*
X108276Y99835D01*
X108295Y99850D01*
X108319Y99866D01*
X108339Y99882D01*
X108362Y99894D01*
X108382Y99906D01*
X108405Y99917D01*
X108429Y99929D01*
X108453Y99937D01*
X108480Y99945D01*
X108504Y99949D01*
X108528Y99953D01*
X108555Y99957D01*
X108579Y99961D01*
X109421D01*
X109445Y99957D01*
D02*
G37*
G36*
X107476D02*
X107504Y99953D01*
X107528Y99949D01*
X107551Y99945D01*
X107579Y99937D01*
X107602Y99929D01*
X107626Y99917D01*
X107650Y99906D01*
X107669Y99894D01*
X107693Y99882D01*
X107713Y99866D01*
X107736Y99850D01*
X107756Y99835D01*
X107772Y99815D01*
X107791Y99799D01*
X107807Y99779D01*
X107823Y99756D01*
X107839Y99736D01*
X107850Y99717D01*
X107862Y99693D01*
X107874Y99669D01*
X107886Y99646D01*
X107894Y99622D01*
X107902Y99594D01*
X107905Y99571D01*
X107909Y99547D01*
X107913Y99520D01*
X107917Y99496D01*
Y99468D01*
Y97736D01*
Y97709D01*
X107913Y97685D01*
X107909Y97658D01*
X107905Y97634D01*
X107902Y97610D01*
X107894Y97583D01*
X107886Y97559D01*
X107874Y97535D01*
X107862Y97512D01*
X107850Y97488D01*
X107839Y97469D01*
X107823Y97449D01*
X107807Y97425D01*
X107791Y97405D01*
X107772Y97390D01*
X107756Y97370D01*
X107736Y97354D01*
X107713Y97339D01*
X107693Y97323D01*
X107669Y97311D01*
X107650Y97299D01*
X107626Y97287D01*
X107602Y97276D01*
X107579Y97268D01*
X107551Y97260D01*
X107528Y97256D01*
X107504Y97252D01*
X107476Y97248D01*
X107453Y97244D01*
X106610D01*
X106587Y97248D01*
X106559Y97252D01*
X106535Y97256D01*
X106512Y97260D01*
X106484Y97268D01*
X106461Y97276D01*
X106437Y97287D01*
X106413Y97299D01*
X106390Y97311D01*
X106370Y97323D01*
X106350Y97339D01*
X106327Y97354D01*
X106307Y97370D01*
X106291Y97390D01*
X106272Y97405D01*
X106256Y97425D01*
X106240Y97449D01*
X106224Y97469D01*
X106213Y97488D01*
X106201Y97512D01*
X106189Y97535D01*
X106177Y97559D01*
X106169Y97583D01*
X106161Y97610D01*
X106158Y97634D01*
X106154Y97658D01*
X106150Y97685D01*
X106146Y97709D01*
Y97736D01*
Y99468D01*
Y99496D01*
X106150Y99520D01*
X106154Y99547D01*
X106158Y99571D01*
X106161Y99594D01*
X106169Y99622D01*
X106177Y99646D01*
X106189Y99669D01*
X106201Y99693D01*
X106213Y99717D01*
X106224Y99736D01*
X106240Y99756D01*
X106256Y99779D01*
X106272Y99799D01*
X106291Y99815D01*
X106307Y99835D01*
X106327Y99850D01*
X106350Y99866D01*
X106370Y99882D01*
X106394Y99894D01*
X106413Y99906D01*
X106437Y99917D01*
X106461Y99929D01*
X106484Y99937D01*
X106512Y99945D01*
X106535Y99949D01*
X106559Y99953D01*
X106587Y99957D01*
X106610Y99961D01*
X107453D01*
X107476Y99957D01*
D02*
G37*
G36*
X114504Y98835D02*
X114532Y98831D01*
X114555Y98827D01*
X114579Y98823D01*
X114606Y98815D01*
X114630Y98807D01*
X114654Y98795D01*
X114677Y98783D01*
X114701Y98772D01*
X114720Y98760D01*
X114740Y98744D01*
X114764Y98728D01*
X114784Y98713D01*
X114799Y98693D01*
X114819Y98677D01*
X114835Y98658D01*
X114850Y98634D01*
X114866Y98614D01*
X114878Y98590D01*
X114890Y98571D01*
X114902Y98547D01*
X114913Y98524D01*
X114921Y98500D01*
X114929Y98472D01*
X114933Y98449D01*
X114937Y98425D01*
X114941Y98398D01*
X114945Y98374D01*
Y98347D01*
Y97559D01*
Y97531D01*
X114941Y97508D01*
X114937Y97480D01*
X114933Y97457D01*
X114929Y97433D01*
X114921Y97405D01*
X114913Y97382D01*
X114902Y97358D01*
X114890Y97335D01*
X114878Y97315D01*
X114866Y97291D01*
X114850Y97272D01*
X114835Y97248D01*
X114819Y97228D01*
X114799Y97213D01*
X114784Y97193D01*
X114764Y97177D01*
X114740Y97161D01*
X114720Y97146D01*
X114701Y97134D01*
X114677Y97122D01*
X114654Y97110D01*
X114630Y97098D01*
X114606Y97091D01*
X114579Y97083D01*
X114555Y97079D01*
X114532Y97075D01*
X114504Y97071D01*
X114480Y97067D01*
X112693D01*
X112669Y97071D01*
X112642Y97075D01*
X112618Y97079D01*
X112594Y97083D01*
X112567Y97091D01*
X112543Y97098D01*
X112520Y97110D01*
X112496Y97122D01*
X112472Y97134D01*
X112453Y97146D01*
X112433Y97161D01*
X112409Y97177D01*
X112390Y97193D01*
X112374Y97213D01*
X112354Y97228D01*
X112339Y97248D01*
X112323Y97272D01*
X112307Y97291D01*
X112295Y97315D01*
X112284Y97335D01*
X112272Y97358D01*
X112260Y97382D01*
X112252Y97405D01*
X112244Y97433D01*
X112240Y97457D01*
X112236Y97480D01*
X112232Y97508D01*
X112228Y97531D01*
Y97559D01*
Y98347D01*
Y98374D01*
X112232Y98398D01*
X112236Y98425D01*
X112240Y98449D01*
X112244Y98472D01*
X112252Y98500D01*
X112260Y98524D01*
X112272Y98547D01*
X112284Y98571D01*
X112295Y98590D01*
X112307Y98614D01*
X112323Y98634D01*
X112339Y98658D01*
X112354Y98677D01*
X112374Y98693D01*
X112390Y98713D01*
X112409Y98728D01*
X112433Y98744D01*
X112453Y98760D01*
X112472Y98772D01*
X112496Y98783D01*
X112520Y98795D01*
X112543Y98807D01*
X112567Y98815D01*
X112594Y98823D01*
X112618Y98827D01*
X112642Y98831D01*
X112669Y98835D01*
X112693Y98839D01*
X114480D01*
X114504Y98835D01*
D02*
G37*
G36*
X105331D02*
X105358Y98831D01*
X105382Y98827D01*
X105405Y98823D01*
X105433Y98815D01*
X105457Y98807D01*
X105480Y98795D01*
X105504Y98783D01*
X105528Y98772D01*
X105547Y98760D01*
X105567Y98744D01*
X105591Y98728D01*
X105610Y98713D01*
X105626Y98693D01*
X105646Y98677D01*
X105661Y98658D01*
X105677Y98634D01*
X105693Y98614D01*
X105705Y98590D01*
X105717Y98571D01*
X105728Y98547D01*
X105740Y98524D01*
X105748Y98500D01*
X105756Y98472D01*
X105760Y98449D01*
X105764Y98425D01*
X105768Y98398D01*
X105772Y98374D01*
Y98347D01*
Y97559D01*
Y97531D01*
X105768Y97508D01*
X105764Y97480D01*
X105760Y97457D01*
X105756Y97433D01*
X105748Y97405D01*
X105740Y97382D01*
X105728Y97358D01*
X105717Y97335D01*
X105705Y97315D01*
X105693Y97291D01*
X105677Y97272D01*
X105661Y97248D01*
X105646Y97228D01*
X105626Y97213D01*
X105610Y97193D01*
X105591Y97177D01*
X105567Y97161D01*
X105547Y97146D01*
X105528Y97134D01*
X105504Y97122D01*
X105480Y97110D01*
X105457Y97098D01*
X105433Y97091D01*
X105405Y97083D01*
X105382Y97079D01*
X105358Y97075D01*
X105331Y97071D01*
X105307Y97067D01*
X103520D01*
X103496Y97071D01*
X103469Y97075D01*
X103445Y97079D01*
X103421Y97083D01*
X103394Y97091D01*
X103370Y97098D01*
X103347Y97110D01*
X103323Y97122D01*
X103299Y97134D01*
X103279Y97146D01*
X103260Y97161D01*
X103236Y97177D01*
X103217Y97193D01*
X103201Y97213D01*
X103181Y97228D01*
X103165Y97248D01*
X103150Y97272D01*
X103134Y97291D01*
X103122Y97315D01*
X103110Y97335D01*
X103098Y97358D01*
X103087Y97382D01*
X103079Y97405D01*
X103071Y97433D01*
X103067Y97457D01*
X103063Y97480D01*
X103059Y97508D01*
X103055Y97531D01*
Y97559D01*
Y98347D01*
Y98374D01*
X103059Y98398D01*
X103063Y98425D01*
X103067Y98449D01*
X103071Y98472D01*
X103079Y98500D01*
X103087Y98524D01*
X103098Y98547D01*
X103110Y98571D01*
X103122Y98590D01*
X103134Y98614D01*
X103150Y98634D01*
X103165Y98658D01*
X103181Y98677D01*
X103201Y98693D01*
X103217Y98713D01*
X103236Y98728D01*
X103260Y98744D01*
X103279Y98760D01*
X103299Y98772D01*
X103323Y98783D01*
X103347Y98795D01*
X103370Y98807D01*
X103394Y98815D01*
X103421Y98823D01*
X103445Y98827D01*
X103469Y98831D01*
X103496Y98835D01*
X103520Y98839D01*
X105307D01*
X105331Y98835D01*
D02*
G37*
G36*
X114504Y96866D02*
X114532Y96862D01*
X114555Y96858D01*
X114579Y96854D01*
X114606Y96846D01*
X114630Y96839D01*
X114654Y96827D01*
X114677Y96815D01*
X114701Y96803D01*
X114720Y96791D01*
X114740Y96776D01*
X114764Y96760D01*
X114784Y96744D01*
X114799Y96724D01*
X114819Y96709D01*
X114835Y96689D01*
X114850Y96665D01*
X114866Y96646D01*
X114878Y96622D01*
X114890Y96602D01*
X114902Y96579D01*
X114913Y96555D01*
X114921Y96531D01*
X114929Y96504D01*
X114933Y96480D01*
X114937Y96457D01*
X114941Y96429D01*
X114945Y96406D01*
Y96378D01*
Y95591D01*
Y95563D01*
X114941Y95539D01*
X114937Y95512D01*
X114933Y95488D01*
X114929Y95465D01*
X114921Y95437D01*
X114913Y95413D01*
X114902Y95390D01*
X114890Y95366D01*
X114878Y95346D01*
X114866Y95323D01*
X114850Y95303D01*
X114835Y95280D01*
X114819Y95260D01*
X114799Y95244D01*
X114784Y95224D01*
X114764Y95209D01*
X114740Y95193D01*
X114720Y95177D01*
X114701Y95165D01*
X114677Y95153D01*
X114654Y95142D01*
X114630Y95130D01*
X114606Y95122D01*
X114579Y95114D01*
X114555Y95110D01*
X114532Y95106D01*
X114504Y95102D01*
X114480Y95098D01*
X112693D01*
X112669Y95102D01*
X112642Y95106D01*
X112618Y95110D01*
X112594Y95114D01*
X112567Y95122D01*
X112543Y95130D01*
X112520Y95142D01*
X112496Y95153D01*
X112472Y95165D01*
X112453Y95177D01*
X112433Y95193D01*
X112409Y95209D01*
X112390Y95224D01*
X112374Y95244D01*
X112354Y95260D01*
X112339Y95280D01*
X112323Y95303D01*
X112307Y95323D01*
X112295Y95346D01*
X112284Y95366D01*
X112272Y95390D01*
X112260Y95413D01*
X112252Y95437D01*
X112244Y95465D01*
X112240Y95488D01*
X112236Y95512D01*
X112232Y95539D01*
X112228Y95563D01*
Y95591D01*
Y96378D01*
Y96406D01*
X112232Y96429D01*
X112236Y96457D01*
X112240Y96480D01*
X112244Y96504D01*
X112252Y96531D01*
X112260Y96555D01*
X112272Y96579D01*
X112284Y96602D01*
X112295Y96622D01*
X112307Y96646D01*
X112323Y96665D01*
X112339Y96689D01*
X112354Y96709D01*
X112374Y96724D01*
X112390Y96744D01*
X112409Y96760D01*
X112433Y96776D01*
X112453Y96791D01*
X112472Y96803D01*
X112496Y96815D01*
X112520Y96827D01*
X112543Y96839D01*
X112567Y96846D01*
X112594Y96854D01*
X112618Y96858D01*
X112642Y96862D01*
X112669Y96866D01*
X112693Y96870D01*
X114480D01*
X114504Y96866D01*
D02*
G37*
G36*
X105331D02*
X105358Y96862D01*
X105382Y96858D01*
X105405Y96854D01*
X105433Y96846D01*
X105457Y96839D01*
X105480Y96827D01*
X105504Y96815D01*
X105528Y96803D01*
X105547Y96791D01*
X105567Y96776D01*
X105591Y96760D01*
X105610Y96744D01*
X105626Y96724D01*
X105646Y96709D01*
X105661Y96689D01*
X105677Y96665D01*
X105693Y96646D01*
X105705Y96622D01*
X105717Y96602D01*
X105728Y96579D01*
X105740Y96555D01*
X105748Y96531D01*
X105756Y96504D01*
X105760Y96480D01*
X105764Y96457D01*
X105768Y96429D01*
X105772Y96406D01*
Y96378D01*
Y95591D01*
Y95563D01*
X105768Y95539D01*
X105764Y95512D01*
X105760Y95488D01*
X105756Y95465D01*
X105748Y95437D01*
X105740Y95413D01*
X105728Y95390D01*
X105717Y95366D01*
X105705Y95346D01*
X105693Y95323D01*
X105677Y95303D01*
X105661Y95280D01*
X105646Y95260D01*
X105626Y95244D01*
X105610Y95224D01*
X105591Y95209D01*
X105567Y95193D01*
X105547Y95177D01*
X105528Y95165D01*
X105504Y95153D01*
X105480Y95142D01*
X105457Y95130D01*
X105433Y95122D01*
X105405Y95114D01*
X105382Y95110D01*
X105358Y95106D01*
X105331Y95102D01*
X105307Y95098D01*
X103520D01*
X103496Y95102D01*
X103469Y95106D01*
X103445Y95110D01*
X103421Y95114D01*
X103394Y95122D01*
X103370Y95130D01*
X103347Y95142D01*
X103323Y95153D01*
X103299Y95165D01*
X103279Y95177D01*
X103260Y95193D01*
X103236Y95209D01*
X103217Y95224D01*
X103201Y95244D01*
X103181Y95260D01*
X103165Y95280D01*
X103150Y95303D01*
X103134Y95323D01*
X103122Y95346D01*
X103110Y95366D01*
X103098Y95390D01*
X103087Y95413D01*
X103079Y95437D01*
X103071Y95465D01*
X103067Y95488D01*
X103063Y95512D01*
X103059Y95539D01*
X103055Y95563D01*
Y95591D01*
Y96378D01*
Y96406D01*
X103059Y96429D01*
X103063Y96457D01*
X103067Y96480D01*
X103071Y96504D01*
X103079Y96531D01*
X103087Y96555D01*
X103098Y96579D01*
X103110Y96602D01*
X103122Y96622D01*
X103134Y96646D01*
X103150Y96665D01*
X103165Y96689D01*
X103181Y96709D01*
X103201Y96724D01*
X103217Y96744D01*
X103236Y96760D01*
X103260Y96776D01*
X103279Y96791D01*
X103299Y96803D01*
X103323Y96815D01*
X103347Y96827D01*
X103370Y96839D01*
X103394Y96846D01*
X103421Y96854D01*
X103445Y96858D01*
X103469Y96862D01*
X103496Y96866D01*
X103520Y96870D01*
X105307D01*
X105331Y96866D01*
D02*
G37*
G36*
X114504Y94898D02*
X114532Y94894D01*
X114555Y94890D01*
X114579Y94886D01*
X114606Y94878D01*
X114630Y94870D01*
X114654Y94858D01*
X114677Y94846D01*
X114701Y94835D01*
X114720Y94823D01*
X114740Y94807D01*
X114764Y94791D01*
X114784Y94776D01*
X114799Y94756D01*
X114819Y94740D01*
X114835Y94721D01*
X114850Y94697D01*
X114866Y94677D01*
X114878Y94653D01*
X114890Y94634D01*
X114902Y94610D01*
X114913Y94587D01*
X114921Y94563D01*
X114929Y94535D01*
X114933Y94512D01*
X114937Y94488D01*
X114941Y94461D01*
X114945Y94437D01*
Y94410D01*
Y93622D01*
Y93594D01*
X114941Y93571D01*
X114937Y93543D01*
X114933Y93520D01*
X114929Y93496D01*
X114921Y93468D01*
X114913Y93445D01*
X114902Y93421D01*
X114890Y93398D01*
X114878Y93378D01*
X114866Y93354D01*
X114850Y93335D01*
X114835Y93311D01*
X114819Y93291D01*
X114799Y93276D01*
X114784Y93256D01*
X114764Y93240D01*
X114740Y93224D01*
X114720Y93209D01*
X114701Y93197D01*
X114677Y93185D01*
X114654Y93173D01*
X114630Y93161D01*
X114606Y93154D01*
X114579Y93146D01*
X114555Y93142D01*
X114532Y93138D01*
X114504Y93134D01*
X114480Y93130D01*
X112693D01*
X112669Y93134D01*
X112642Y93138D01*
X112618Y93142D01*
X112594Y93146D01*
X112567Y93154D01*
X112543Y93161D01*
X112520Y93173D01*
X112496Y93185D01*
X112472Y93197D01*
X112453Y93209D01*
X112433Y93224D01*
X112409Y93240D01*
X112390Y93256D01*
X112374Y93276D01*
X112354Y93291D01*
X112339Y93311D01*
X112323Y93335D01*
X112307Y93354D01*
X112295Y93378D01*
X112284Y93398D01*
X112272Y93421D01*
X112260Y93445D01*
X112252Y93468D01*
X112244Y93496D01*
X112240Y93520D01*
X112236Y93543D01*
X112232Y93571D01*
X112228Y93594D01*
Y93622D01*
Y94410D01*
Y94437D01*
X112232Y94461D01*
X112236Y94488D01*
X112240Y94512D01*
X112244Y94535D01*
X112252Y94563D01*
X112260Y94587D01*
X112272Y94610D01*
X112284Y94634D01*
X112295Y94653D01*
X112307Y94677D01*
X112323Y94697D01*
X112339Y94721D01*
X112354Y94740D01*
X112374Y94756D01*
X112390Y94776D01*
X112409Y94791D01*
X112433Y94807D01*
X112453Y94823D01*
X112472Y94835D01*
X112496Y94846D01*
X112520Y94858D01*
X112543Y94870D01*
X112567Y94878D01*
X112594Y94886D01*
X112618Y94890D01*
X112642Y94894D01*
X112669Y94898D01*
X112693Y94902D01*
X114480D01*
X114504Y94898D01*
D02*
G37*
G36*
X105331D02*
X105358Y94894D01*
X105382Y94890D01*
X105405Y94886D01*
X105433Y94878D01*
X105457Y94870D01*
X105480Y94858D01*
X105504Y94846D01*
X105528Y94835D01*
X105547Y94823D01*
X105567Y94807D01*
X105591Y94791D01*
X105610Y94776D01*
X105626Y94756D01*
X105646Y94740D01*
X105661Y94721D01*
X105677Y94697D01*
X105693Y94677D01*
X105705Y94653D01*
X105717Y94634D01*
X105728Y94610D01*
X105740Y94587D01*
X105748Y94563D01*
X105756Y94535D01*
X105760Y94512D01*
X105764Y94488D01*
X105768Y94461D01*
X105772Y94437D01*
Y94410D01*
Y93622D01*
Y93594D01*
X105768Y93571D01*
X105764Y93543D01*
X105760Y93520D01*
X105756Y93496D01*
X105748Y93468D01*
X105740Y93445D01*
X105728Y93421D01*
X105717Y93398D01*
X105705Y93378D01*
X105693Y93354D01*
X105677Y93335D01*
X105661Y93311D01*
X105646Y93291D01*
X105626Y93276D01*
X105610Y93256D01*
X105591Y93240D01*
X105567Y93224D01*
X105547Y93209D01*
X105528Y93197D01*
X105504Y93185D01*
X105480Y93173D01*
X105457Y93161D01*
X105433Y93154D01*
X105405Y93146D01*
X105382Y93142D01*
X105358Y93138D01*
X105331Y93134D01*
X105307Y93130D01*
X103520D01*
X103496Y93134D01*
X103469Y93138D01*
X103445Y93142D01*
X103421Y93146D01*
X103394Y93154D01*
X103370Y93161D01*
X103347Y93173D01*
X103323Y93185D01*
X103299Y93197D01*
X103279Y93209D01*
X103260Y93224D01*
X103236Y93240D01*
X103217Y93256D01*
X103201Y93276D01*
X103181Y93291D01*
X103165Y93311D01*
X103150Y93335D01*
X103134Y93354D01*
X103122Y93378D01*
X103110Y93398D01*
X103098Y93421D01*
X103087Y93445D01*
X103079Y93468D01*
X103071Y93496D01*
X103067Y93520D01*
X103063Y93543D01*
X103059Y93571D01*
X103055Y93594D01*
Y93622D01*
Y94410D01*
Y94437D01*
X103059Y94461D01*
X103063Y94488D01*
X103067Y94512D01*
X103071Y94535D01*
X103079Y94563D01*
X103087Y94587D01*
X103098Y94610D01*
X103110Y94634D01*
X103122Y94653D01*
X103134Y94677D01*
X103150Y94697D01*
X103165Y94721D01*
X103181Y94740D01*
X103201Y94756D01*
X103217Y94776D01*
X103236Y94791D01*
X103260Y94807D01*
X103279Y94823D01*
X103299Y94835D01*
X103323Y94846D01*
X103347Y94858D01*
X103370Y94870D01*
X103394Y94878D01*
X103421Y94886D01*
X103445Y94890D01*
X103469Y94894D01*
X103496Y94898D01*
X103520Y94902D01*
X105307D01*
X105331Y94898D01*
D02*
G37*
G36*
X114504Y92929D02*
X114532Y92925D01*
X114555Y92921D01*
X114579Y92917D01*
X114606Y92909D01*
X114630Y92902D01*
X114654Y92890D01*
X114677Y92878D01*
X114701Y92866D01*
X114720Y92854D01*
X114740Y92839D01*
X114764Y92823D01*
X114784Y92807D01*
X114799Y92787D01*
X114819Y92772D01*
X114835Y92752D01*
X114850Y92728D01*
X114866Y92709D01*
X114878Y92685D01*
X114890Y92665D01*
X114902Y92642D01*
X114913Y92618D01*
X114921Y92594D01*
X114929Y92567D01*
X114933Y92543D01*
X114937Y92520D01*
X114941Y92492D01*
X114945Y92469D01*
Y92441D01*
Y91654D01*
Y91626D01*
X114941Y91602D01*
X114937Y91575D01*
X114933Y91551D01*
X114929Y91528D01*
X114921Y91500D01*
X114913Y91476D01*
X114902Y91453D01*
X114890Y91429D01*
X114878Y91409D01*
X114866Y91386D01*
X114850Y91366D01*
X114835Y91343D01*
X114819Y91323D01*
X114799Y91307D01*
X114784Y91287D01*
X114764Y91272D01*
X114740Y91256D01*
X114720Y91240D01*
X114701Y91228D01*
X114677Y91216D01*
X114654Y91205D01*
X114630Y91193D01*
X114606Y91185D01*
X114579Y91177D01*
X114555Y91173D01*
X114532Y91169D01*
X114504Y91165D01*
X114480Y91161D01*
X112693D01*
X112669Y91165D01*
X112642Y91169D01*
X112618Y91173D01*
X112594Y91177D01*
X112567Y91185D01*
X112543Y91193D01*
X112520Y91205D01*
X112496Y91216D01*
X112472Y91228D01*
X112453Y91240D01*
X112433Y91256D01*
X112409Y91272D01*
X112390Y91287D01*
X112374Y91307D01*
X112354Y91323D01*
X112339Y91343D01*
X112323Y91366D01*
X112307Y91386D01*
X112295Y91409D01*
X112284Y91429D01*
X112272Y91453D01*
X112260Y91476D01*
X112252Y91500D01*
X112244Y91528D01*
X112240Y91551D01*
X112236Y91575D01*
X112232Y91602D01*
X112228Y91626D01*
Y91654D01*
Y92441D01*
Y92469D01*
X112232Y92492D01*
X112236Y92520D01*
X112240Y92543D01*
X112244Y92567D01*
X112252Y92594D01*
X112260Y92618D01*
X112272Y92642D01*
X112284Y92665D01*
X112295Y92685D01*
X112307Y92709D01*
X112323Y92728D01*
X112339Y92752D01*
X112354Y92772D01*
X112374Y92787D01*
X112390Y92807D01*
X112409Y92823D01*
X112433Y92839D01*
X112453Y92854D01*
X112472Y92866D01*
X112496Y92878D01*
X112520Y92890D01*
X112543Y92902D01*
X112567Y92909D01*
X112594Y92917D01*
X112618Y92921D01*
X112642Y92925D01*
X112669Y92929D01*
X112693Y92933D01*
X114480D01*
X114504Y92929D01*
D02*
G37*
G36*
X105331D02*
X105358Y92925D01*
X105382Y92921D01*
X105405Y92917D01*
X105433Y92909D01*
X105457Y92902D01*
X105480Y92890D01*
X105504Y92878D01*
X105528Y92866D01*
X105547Y92854D01*
X105567Y92839D01*
X105591Y92823D01*
X105610Y92807D01*
X105626Y92787D01*
X105646Y92772D01*
X105661Y92752D01*
X105677Y92728D01*
X105693Y92709D01*
X105705Y92685D01*
X105717Y92665D01*
X105728Y92642D01*
X105740Y92618D01*
X105748Y92594D01*
X105756Y92567D01*
X105760Y92543D01*
X105764Y92520D01*
X105768Y92492D01*
X105772Y92469D01*
Y92441D01*
Y91654D01*
Y91626D01*
X105768Y91602D01*
X105764Y91575D01*
X105760Y91551D01*
X105756Y91528D01*
X105748Y91500D01*
X105740Y91476D01*
X105728Y91453D01*
X105717Y91429D01*
X105705Y91409D01*
X105693Y91386D01*
X105677Y91366D01*
X105661Y91343D01*
X105646Y91323D01*
X105626Y91307D01*
X105610Y91287D01*
X105591Y91272D01*
X105567Y91256D01*
X105547Y91240D01*
X105528Y91228D01*
X105504Y91216D01*
X105480Y91205D01*
X105457Y91193D01*
X105433Y91185D01*
X105405Y91177D01*
X105382Y91173D01*
X105358Y91169D01*
X105331Y91165D01*
X105307Y91161D01*
X103520D01*
X103496Y91165D01*
X103469Y91169D01*
X103445Y91173D01*
X103421Y91177D01*
X103394Y91185D01*
X103370Y91193D01*
X103347Y91205D01*
X103323Y91216D01*
X103299Y91228D01*
X103279Y91240D01*
X103260Y91256D01*
X103236Y91272D01*
X103217Y91287D01*
X103201Y91307D01*
X103181Y91323D01*
X103165Y91343D01*
X103150Y91366D01*
X103134Y91386D01*
X103122Y91409D01*
X103110Y91429D01*
X103098Y91453D01*
X103087Y91476D01*
X103079Y91500D01*
X103071Y91528D01*
X103067Y91551D01*
X103063Y91575D01*
X103059Y91602D01*
X103055Y91626D01*
Y91654D01*
Y92441D01*
Y92469D01*
X103059Y92492D01*
X103063Y92520D01*
X103067Y92543D01*
X103071Y92567D01*
X103079Y92594D01*
X103087Y92618D01*
X103098Y92642D01*
X103110Y92665D01*
X103122Y92685D01*
X103134Y92709D01*
X103150Y92728D01*
X103165Y92752D01*
X103181Y92772D01*
X103201Y92787D01*
X103217Y92807D01*
X103236Y92823D01*
X103260Y92839D01*
X103279Y92854D01*
X103299Y92866D01*
X103323Y92878D01*
X103347Y92890D01*
X103370Y92902D01*
X103394Y92909D01*
X103421Y92917D01*
X103445Y92921D01*
X103469Y92925D01*
X103496Y92929D01*
X103520Y92933D01*
X105307D01*
X105331Y92929D01*
D02*
G37*
G36*
X111413Y92752D02*
X111441Y92748D01*
X111465Y92744D01*
X111488Y92740D01*
X111516Y92732D01*
X111539Y92724D01*
X111563Y92713D01*
X111587Y92701D01*
X111606Y92689D01*
X111630Y92677D01*
X111650Y92661D01*
X111673Y92646D01*
X111693Y92630D01*
X111709Y92610D01*
X111728Y92594D01*
X111744Y92575D01*
X111760Y92551D01*
X111776Y92532D01*
X111787Y92512D01*
X111799Y92488D01*
X111811Y92465D01*
X111823Y92441D01*
X111831Y92417D01*
X111839Y92390D01*
X111843Y92366D01*
X111846Y92343D01*
X111850Y92315D01*
X111854Y92291D01*
Y92264D01*
Y90531D01*
Y90504D01*
X111850Y90480D01*
X111846Y90453D01*
X111843Y90429D01*
X111839Y90405D01*
X111831Y90378D01*
X111823Y90354D01*
X111811Y90331D01*
X111799Y90307D01*
X111787Y90284D01*
X111776Y90264D01*
X111760Y90244D01*
X111744Y90220D01*
X111728Y90201D01*
X111709Y90185D01*
X111693Y90165D01*
X111673Y90150D01*
X111650Y90134D01*
X111630Y90118D01*
X111606Y90106D01*
X111587Y90095D01*
X111563Y90083D01*
X111539Y90071D01*
X111516Y90063D01*
X111488Y90055D01*
X111465Y90051D01*
X111441Y90047D01*
X111413Y90043D01*
X111390Y90039D01*
X110547D01*
X110524Y90043D01*
X110496Y90047D01*
X110472Y90051D01*
X110449Y90055D01*
X110421Y90063D01*
X110398Y90071D01*
X110374Y90083D01*
X110350Y90095D01*
X110327Y90106D01*
X110307Y90118D01*
X110287Y90134D01*
X110264Y90150D01*
X110244Y90165D01*
X110228Y90185D01*
X110209Y90201D01*
X110193Y90220D01*
X110177Y90244D01*
X110161Y90264D01*
X110150Y90284D01*
X110138Y90307D01*
X110126Y90331D01*
X110114Y90354D01*
X110106Y90378D01*
X110098Y90405D01*
X110094Y90429D01*
X110091Y90453D01*
X110087Y90480D01*
X110083Y90504D01*
Y90531D01*
Y92264D01*
Y92291D01*
X110087Y92315D01*
X110091Y92343D01*
X110094Y92366D01*
X110098Y92390D01*
X110106Y92417D01*
X110114Y92441D01*
X110126Y92465D01*
X110138Y92488D01*
X110150Y92512D01*
X110161Y92532D01*
X110177Y92551D01*
X110193Y92575D01*
X110209Y92594D01*
X110228Y92610D01*
X110244Y92630D01*
X110264Y92646D01*
X110287Y92661D01*
X110307Y92677D01*
X110331Y92689D01*
X110350Y92701D01*
X110374Y92713D01*
X110398Y92724D01*
X110421Y92732D01*
X110449Y92740D01*
X110472Y92744D01*
X110496Y92748D01*
X110524Y92752D01*
X110547Y92756D01*
X111390D01*
X111413Y92752D01*
D02*
G37*
G36*
X109445D02*
X109472Y92748D01*
X109496Y92744D01*
X109520Y92740D01*
X109547Y92732D01*
X109571Y92724D01*
X109595Y92713D01*
X109618Y92701D01*
X109642Y92689D01*
X109661Y92677D01*
X109681Y92661D01*
X109705Y92646D01*
X109724Y92630D01*
X109740Y92610D01*
X109760Y92594D01*
X109776Y92575D01*
X109791Y92551D01*
X109807Y92532D01*
X109819Y92512D01*
X109831Y92488D01*
X109843Y92465D01*
X109854Y92441D01*
X109862Y92417D01*
X109870Y92390D01*
X109874Y92366D01*
X109878Y92343D01*
X109882Y92315D01*
X109886Y92291D01*
Y92264D01*
Y90531D01*
Y90504D01*
X109882Y90480D01*
X109878Y90453D01*
X109874Y90429D01*
X109870Y90405D01*
X109862Y90378D01*
X109854Y90354D01*
X109843Y90331D01*
X109831Y90307D01*
X109819Y90284D01*
X109807Y90264D01*
X109791Y90244D01*
X109776Y90220D01*
X109760Y90201D01*
X109740Y90185D01*
X109724Y90165D01*
X109705Y90150D01*
X109681Y90134D01*
X109661Y90118D01*
X109642Y90106D01*
X109618Y90095D01*
X109595Y90083D01*
X109571Y90071D01*
X109547Y90063D01*
X109520Y90055D01*
X109496Y90051D01*
X109472Y90047D01*
X109445Y90043D01*
X109421Y90039D01*
X108579D01*
X108555Y90043D01*
X108528Y90047D01*
X108504Y90051D01*
X108480Y90055D01*
X108453Y90063D01*
X108429Y90071D01*
X108405Y90083D01*
X108382Y90095D01*
X108358Y90106D01*
X108339Y90118D01*
X108319Y90134D01*
X108295Y90150D01*
X108276Y90165D01*
X108260Y90185D01*
X108240Y90201D01*
X108224Y90220D01*
X108209Y90244D01*
X108193Y90264D01*
X108181Y90284D01*
X108169Y90307D01*
X108158Y90331D01*
X108146Y90354D01*
X108138Y90378D01*
X108130Y90405D01*
X108126Y90429D01*
X108122Y90453D01*
X108118Y90480D01*
X108114Y90504D01*
Y90531D01*
Y92264D01*
Y92291D01*
X108118Y92315D01*
X108122Y92343D01*
X108126Y92366D01*
X108130Y92390D01*
X108138Y92417D01*
X108146Y92441D01*
X108158Y92465D01*
X108169Y92488D01*
X108181Y92512D01*
X108193Y92532D01*
X108209Y92551D01*
X108224Y92575D01*
X108240Y92594D01*
X108260Y92610D01*
X108276Y92630D01*
X108295Y92646D01*
X108319Y92661D01*
X108339Y92677D01*
X108362Y92689D01*
X108382Y92701D01*
X108405Y92713D01*
X108429Y92724D01*
X108453Y92732D01*
X108480Y92740D01*
X108504Y92744D01*
X108528Y92748D01*
X108555Y92752D01*
X108579Y92756D01*
X109421D01*
X109445Y92752D01*
D02*
G37*
G36*
X107476D02*
X107504Y92748D01*
X107528Y92744D01*
X107551Y92740D01*
X107579Y92732D01*
X107602Y92724D01*
X107626Y92713D01*
X107650Y92701D01*
X107669Y92689D01*
X107693Y92677D01*
X107713Y92661D01*
X107736Y92646D01*
X107756Y92630D01*
X107772Y92610D01*
X107791Y92594D01*
X107807Y92575D01*
X107823Y92551D01*
X107839Y92532D01*
X107850Y92512D01*
X107862Y92488D01*
X107874Y92465D01*
X107886Y92441D01*
X107894Y92417D01*
X107902Y92390D01*
X107905Y92366D01*
X107909Y92343D01*
X107913Y92315D01*
X107917Y92291D01*
Y92264D01*
Y90531D01*
Y90504D01*
X107913Y90480D01*
X107909Y90453D01*
X107905Y90429D01*
X107902Y90405D01*
X107894Y90378D01*
X107886Y90354D01*
X107874Y90331D01*
X107862Y90307D01*
X107850Y90284D01*
X107839Y90264D01*
X107823Y90244D01*
X107807Y90220D01*
X107791Y90201D01*
X107772Y90185D01*
X107756Y90165D01*
X107736Y90150D01*
X107713Y90134D01*
X107693Y90118D01*
X107669Y90106D01*
X107650Y90095D01*
X107626Y90083D01*
X107602Y90071D01*
X107579Y90063D01*
X107551Y90055D01*
X107528Y90051D01*
X107504Y90047D01*
X107476Y90043D01*
X107453Y90039D01*
X106610D01*
X106587Y90043D01*
X106559Y90047D01*
X106535Y90051D01*
X106512Y90055D01*
X106484Y90063D01*
X106461Y90071D01*
X106437Y90083D01*
X106413Y90095D01*
X106390Y90106D01*
X106370Y90118D01*
X106350Y90134D01*
X106327Y90150D01*
X106307Y90165D01*
X106291Y90185D01*
X106272Y90201D01*
X106256Y90220D01*
X106240Y90244D01*
X106224Y90264D01*
X106213Y90284D01*
X106201Y90307D01*
X106189Y90331D01*
X106177Y90354D01*
X106169Y90378D01*
X106161Y90405D01*
X106158Y90429D01*
X106154Y90453D01*
X106150Y90480D01*
X106146Y90504D01*
Y90531D01*
Y92264D01*
Y92291D01*
X106150Y92315D01*
X106154Y92343D01*
X106158Y92366D01*
X106161Y92390D01*
X106169Y92417D01*
X106177Y92441D01*
X106189Y92465D01*
X106201Y92488D01*
X106213Y92512D01*
X106224Y92532D01*
X106240Y92551D01*
X106256Y92575D01*
X106272Y92594D01*
X106291Y92610D01*
X106307Y92630D01*
X106327Y92646D01*
X106350Y92661D01*
X106370Y92677D01*
X106394Y92689D01*
X106413Y92701D01*
X106437Y92713D01*
X106461Y92724D01*
X106484Y92732D01*
X106512Y92740D01*
X106535Y92744D01*
X106559Y92748D01*
X106587Y92752D01*
X106610Y92756D01*
X107453D01*
X107476Y92752D01*
D02*
G37*
D45*
X142772Y26500D02*
D03*
X139228D02*
D03*
D46*
X10600Y110800D02*
D03*
Y127400D02*
D03*
D47*
X12500Y93872D02*
D03*
Y90328D02*
D03*
X160700Y157199D02*
D03*
Y160742D02*
D03*
X171500Y50728D02*
D03*
Y54272D02*
D03*
X147000Y50728D02*
D03*
Y54272D02*
D03*
D48*
X98200Y103550D02*
D03*
Y97250D02*
D03*
X177400Y54150D02*
D03*
Y47850D02*
D03*
X174500Y69350D02*
D03*
Y75650D02*
D03*
X138000Y53650D02*
D03*
Y47350D02*
D03*
D49*
X97948Y28287D02*
D03*
X96099Y28960D02*
D03*
X94249Y29634D02*
D03*
X92399Y30307D02*
D03*
X90549Y30980D02*
D03*
X88699Y31653D02*
D03*
X86850Y32327D02*
D03*
X85000Y33000D02*
D03*
X83150Y33673D02*
D03*
X81300Y34347D02*
D03*
X79451Y35020D02*
D03*
X77601Y35693D02*
D03*
X75751Y36366D02*
D03*
X73901Y37040D02*
D03*
X72051Y37713D02*
D03*
X76598Y47328D02*
D03*
X78448Y46655D02*
D03*
X80298Y45982D02*
D03*
X82148Y45308D02*
D03*
X85847Y43962D02*
D03*
X87697Y43288D02*
D03*
X89547Y42615D02*
D03*
X91397Y41942D02*
D03*
X93246Y41269D02*
D03*
X102495Y37902D02*
D03*
X100646Y38576D02*
D03*
X98796Y39249D02*
D03*
X96946Y39922D02*
D03*
X95096Y40595D02*
D03*
X83997Y44635D02*
D03*
D50*
X101788Y26464D02*
D03*
X105751Y37153D02*
D03*
X72616Y49203D02*
D03*
X68720Y38500D02*
D03*
D51*
X47709Y67221D02*
D03*
X59100Y124066D02*
D03*
X47700Y124133D02*
D03*
X59100Y67221D02*
D03*
D52*
X58700Y70619D02*
D03*
Y72588D02*
D03*
Y74556D02*
D03*
Y76525D02*
D03*
Y78493D02*
D03*
Y80462D02*
D03*
Y119833D02*
D03*
Y117865D02*
D03*
Y115896D02*
D03*
Y113928D02*
D03*
Y111959D02*
D03*
Y109991D02*
D03*
Y108022D02*
D03*
Y106054D02*
D03*
Y104085D02*
D03*
Y102117D02*
D03*
Y100148D02*
D03*
Y98180D02*
D03*
Y96211D02*
D03*
Y94243D02*
D03*
Y92274D02*
D03*
Y90306D02*
D03*
Y88337D02*
D03*
Y86369D02*
D03*
Y84400D02*
D03*
Y82432D02*
D03*
X48109Y83416D02*
D03*
Y91290D02*
D03*
Y93259D02*
D03*
Y95227D02*
D03*
Y97196D02*
D03*
Y99164D02*
D03*
Y103101D02*
D03*
Y105070D02*
D03*
Y107038D02*
D03*
Y109007D02*
D03*
Y110975D02*
D03*
Y89322D02*
D03*
Y120818D02*
D03*
Y85385D02*
D03*
Y87353D02*
D03*
Y118849D02*
D03*
Y116881D02*
D03*
Y114912D02*
D03*
Y112944D02*
D03*
Y101133D02*
D03*
Y81446D02*
D03*
Y79477D02*
D03*
Y77509D02*
D03*
Y75540D02*
D03*
Y73572D02*
D03*
Y71603D02*
D03*
D53*
X171062Y100176D02*
D03*
X171062Y95452D02*
D03*
X171062Y90728D02*
D03*
D54*
X156200Y86200D02*
D03*
X156200Y104704D02*
D03*
D55*
X112250Y83700D02*
D03*
X105950D02*
D03*
X186150Y141000D02*
D03*
X179850D02*
D03*
Y121000D02*
D03*
X186150D02*
D03*
X179850Y127500D02*
D03*
X186150D02*
D03*
X179850Y134000D02*
D03*
X186150D02*
D03*
X191850Y115300D02*
D03*
X185550D02*
D03*
X185750Y108900D02*
D03*
X192050D02*
D03*
D56*
X140400Y139300D02*
D03*
D57*
X123800Y147000D02*
D03*
D58*
X165700Y154051D02*
D03*
Y160349D02*
D03*
D59*
X171200Y160939D02*
D03*
Y157002D02*
D03*
X163500Y54469D02*
D03*
Y50532D02*
D03*
X130000Y50468D02*
D03*
Y46532D02*
D03*
D60*
X166100Y144700D02*
D03*
D61*
X170017Y147259D02*
D03*
Y144700D02*
D03*
Y142141D02*
D03*
X162183D02*
D03*
Y144700D02*
D03*
Y147259D02*
D03*
D62*
X160408Y132855D02*
D03*
X160408Y121910D02*
D03*
D63*
X103137Y163052D02*
D03*
X107033Y152348D02*
D03*
X73904Y140280D02*
D03*
X70069Y151016D02*
D03*
D64*
X95378Y148532D02*
D03*
X84279Y144492D02*
D03*
X82430Y143819D02*
D03*
X80580Y143146D02*
D03*
X78730Y142472D02*
D03*
X76880Y141799D02*
D03*
X86129Y145166D02*
D03*
X87979Y145839D02*
D03*
X89829Y146512D02*
D03*
X91679Y147185D02*
D03*
X93528Y147859D02*
D03*
X97228Y149205D02*
D03*
X99078Y149878D02*
D03*
X100927Y150552D02*
D03*
X102777Y151225D02*
D03*
X100080Y161513D02*
D03*
X98230Y160840D02*
D03*
X96380Y160167D02*
D03*
X94530Y159494D02*
D03*
X92681Y158820D02*
D03*
X90831Y158147D02*
D03*
X88981Y157474D02*
D03*
X87131Y156800D02*
D03*
X85282Y156127D02*
D03*
X83432Y155454D02*
D03*
X81582Y154781D02*
D03*
X79732Y154107D02*
D03*
X77882Y153434D02*
D03*
X76033Y152761D02*
D03*
X74183Y152088D02*
D03*
D65*
X33154Y84700D02*
D03*
X27446D02*
D03*
X33154Y76600D02*
D03*
X27446D02*
D03*
X33154Y104400D02*
D03*
X27446D02*
D03*
X33154Y112500D02*
D03*
X27446D02*
D03*
X33154Y90600D02*
D03*
X27446D02*
D03*
Y98900D02*
D03*
X33154D02*
D03*
Y62800D02*
D03*
X27446D02*
D03*
X33154Y70700D02*
D03*
X27446D02*
D03*
D66*
X18600Y96243D02*
D03*
Y89157D02*
D03*
D67*
X33343Y55900D02*
D03*
X26257D02*
D03*
D68*
X112000Y109854D02*
D03*
Y104146D02*
D03*
X106500Y104146D02*
D03*
Y109854D02*
D03*
X120500Y98646D02*
D03*
Y104354D02*
D03*
X99500Y87346D02*
D03*
Y93054D02*
D03*
X165000Y75354D02*
D03*
Y69646D02*
D03*
X156000D02*
D03*
Y75354D02*
D03*
D69*
X104413Y92047D02*
D03*
Y94016D02*
D03*
Y95984D02*
D03*
Y97953D02*
D03*
X113587D02*
D03*
Y95984D02*
D03*
Y94016D02*
D03*
Y92047D02*
D03*
D70*
X107032Y98602D02*
D03*
X109000D02*
D03*
X110968D02*
D03*
Y91398D02*
D03*
X109000D02*
D03*
X107032D02*
D03*
D71*
X162831Y37000D02*
D03*
X154169Y37000D02*
D03*
D72*
X141047Y33260D02*
D03*
Y37000D02*
D03*
Y40740D02*
D03*
X131953D02*
D03*
Y37000D02*
D03*
Y33260D02*
D03*
D73*
X129532Y26500D02*
D03*
X133468D02*
D03*
M02*
