G04*
G04 #@! TF.GenerationSoftware,Altium Limited,Altium Designer,21.3.2 (30)*
G04*
G04 Layer_Color=32768*
%FSLAX25Y25*%
%MOIN*%
G70*
G04*
G04 #@! TF.SameCoordinates,24C89C37-09E3-4822-9DB9-40424265DB80*
G04*
G04*
G04 #@! TF.FilePolarity,Positive*
G04*
G01*
G75*
%ADD86C,0.00197*%
%ADD87C,0.00100*%
%ADD88C,0.00394*%
%ADD95C,0.00200*%
D86*
X43005Y59907D02*
Y73293D01*
X27848Y59907D02*
Y73293D01*
X43005D01*
X27848Y59907D02*
X43005D01*
X42979Y87807D02*
Y101193D01*
X27821Y87807D02*
Y101193D01*
X42979D01*
X27821Y87807D02*
X42979D01*
X43005Y101807D02*
Y115193D01*
X27848Y101807D02*
Y115193D01*
X43005D01*
X27848Y101807D02*
X43005D01*
X172458Y139779D02*
Y149621D01*
X159742Y139779D02*
Y149621D01*
Y139779D02*
X172458D01*
X159742Y149621D02*
X172458D01*
X27821Y74007D02*
X42979D01*
X27821Y87393D02*
X42979D01*
X27821Y74007D02*
Y87393D01*
X42979Y74007D02*
Y87393D01*
X102110Y89095D02*
X115890D01*
Y100906D01*
X102110D02*
X115890D01*
X102110Y89095D02*
Y100906D01*
X140634Y42886D02*
X144886D01*
X140634D02*
Y43693D01*
X132366D02*
X140634D01*
X132366Y42886D02*
Y43693D01*
X128114Y42886D02*
X132366D01*
X128114Y31114D02*
Y42886D01*
Y31114D02*
X132366D01*
Y30307D02*
Y31114D01*
Y30307D02*
X140634D01*
Y31114D01*
X144886D01*
Y42886D01*
X162646Y114579D02*
X193354Y114579D01*
X162646Y74421D02*
X162646Y114579D01*
X162646Y74421D02*
X193354Y74421D01*
X193354Y114579D01*
D87*
X144543Y24728D02*
Y28272D01*
X137457Y24728D02*
Y28272D01*
Y24728D02*
X144543D01*
X137457Y28272D02*
X144543D01*
X10728Y95643D02*
X14272D01*
X10728Y88557D02*
X14272D01*
Y95643D01*
X10728Y88557D02*
Y95643D01*
X95591Y105962D02*
X100759D01*
X95591Y94888D02*
X100759D01*
Y105962D01*
X95591Y94888D02*
Y105962D01*
X103538Y81091D02*
X114612D01*
X103538Y86259D02*
X114612D01*
Y81091D02*
Y86259D01*
X103538Y81091D02*
Y86259D01*
X159028Y48757D02*
X162572D01*
X159028Y55843D02*
X162572D01*
Y48757D02*
Y55843D01*
X159028Y48757D02*
Y55843D01*
X154328Y55843D02*
X157872D01*
X154328Y48757D02*
X157872D01*
X154328D02*
Y55843D01*
X157872Y48757D02*
Y55843D01*
X149028D02*
X152572D01*
X149028Y48757D02*
X152572D01*
X149028Y55843D02*
X149028Y48757D01*
X152572D02*
Y55843D01*
X123764Y84673D02*
Y106327D01*
X94236Y84673D02*
X123764D01*
X94236D02*
Y106327D01*
X123764D01*
X23024Y76938D02*
Y81662D01*
X13576Y76938D02*
Y81662D01*
X23024D01*
X13576Y76938D02*
X23024D01*
Y83038D02*
Y87762D01*
X13576Y83038D02*
Y87762D01*
X23024D01*
X13576Y83038D02*
X23024D01*
Y89138D02*
Y93862D01*
X13576Y89138D02*
Y93862D01*
X23024D01*
X13576Y89138D02*
X23024D01*
Y95138D02*
Y99862D01*
X13576Y95138D02*
Y99862D01*
X23024D01*
X13576Y95138D02*
X23024D01*
X159628Y148713D02*
Y155799D01*
X163172Y148713D02*
Y155799D01*
X159628D02*
X163172D01*
X159628Y148713D02*
X163172D01*
X154128D02*
Y155799D01*
X157672Y148713D02*
Y155799D01*
X154128D02*
X157672D01*
X154128Y148713D02*
X157672D01*
X158928Y155428D02*
Y162514D01*
X162472Y155428D02*
Y162514D01*
X158928Y155428D02*
X162472D01*
X158928Y162514D02*
X162472D01*
X178672Y148713D02*
Y155799D01*
X175128Y148713D02*
Y155799D01*
Y148713D02*
X178672D01*
X175128Y155799D02*
X178672D01*
X167865Y151885D02*
Y162515D01*
X163535Y151885D02*
Y162515D01*
X167865D01*
X163535Y151885D02*
X167865D01*
X172972Y155428D02*
Y162514D01*
X169428Y155428D02*
Y162514D01*
X172972D01*
X169428Y155428D02*
X172972D01*
X177438Y138391D02*
X188512D01*
X177438Y143559D02*
X188512D01*
Y138391D02*
Y143559D01*
X177438Y138391D02*
Y143559D01*
X25576Y82338D02*
X35024D01*
X25576Y87062D02*
X35024D01*
Y82338D02*
Y87062D01*
X25576Y82338D02*
Y87062D01*
Y74238D02*
X35024D01*
X25576Y78962D02*
X35024D01*
Y74238D02*
Y78962D01*
X25576Y74238D02*
Y78962D01*
Y102038D02*
X35024D01*
X25576Y106762D02*
X35024D01*
Y102038D02*
Y106762D01*
X25576Y102038D02*
Y106762D01*
Y110138D02*
X35024D01*
X25576Y114862D02*
X35024D01*
Y110138D02*
Y114862D01*
X25576Y110138D02*
Y114862D01*
Y88238D02*
X35024D01*
X25576Y92962D02*
X35024D01*
Y88238D02*
Y92962D01*
X25576Y88238D02*
Y92962D01*
X25576Y101262D02*
X35024D01*
X25576Y96538D02*
X35024D01*
X25576D02*
Y101262D01*
X35024Y96538D02*
Y101262D01*
X25576Y60438D02*
X35024D01*
X25576Y65162D02*
X35024D01*
Y60438D02*
Y65162D01*
X25576Y60438D02*
Y65162D01*
Y68338D02*
X35024D01*
X25576Y73062D02*
X35024D01*
Y68338D02*
Y73062D01*
X25576Y68338D02*
Y73062D01*
X114362Y102276D02*
Y111724D01*
X109638Y102276D02*
Y111724D01*
X114362D01*
X109638Y102276D02*
X114362D01*
X104138D02*
Y111724D01*
X108862Y102276D02*
Y111724D01*
X104138Y102276D02*
X108862D01*
X104138Y111724D02*
X108862D01*
X118138Y96776D02*
Y106224D01*
X122862Y96776D02*
Y106224D01*
X118138Y96776D02*
X122862D01*
X118138Y106224D02*
X122862D01*
X97138Y85476D02*
Y94924D01*
X101862Y85476D02*
Y94924D01*
X97138Y85476D02*
X101862D01*
X97138Y94924D02*
X101862D01*
X180009Y45438D02*
Y56512D01*
X174841Y45438D02*
Y56512D01*
X180009D01*
X174841Y45438D02*
X180009D01*
X104276Y111362D02*
X113724D01*
X104276Y106638D02*
X113724D01*
Y111362D01*
X104276Y106638D02*
Y111362D01*
X104776Y84362D02*
X114224D01*
X104776Y79638D02*
X114224D01*
Y84362D01*
X104776Y79638D02*
Y84362D01*
X125576Y93938D02*
X135024D01*
X125576Y98662D02*
X135024D01*
X125576Y93938D02*
Y98662D01*
X135024Y93938D02*
Y98662D01*
X125576Y88938D02*
X135024D01*
X125576Y93662D02*
X135024D01*
X125576Y88938D02*
Y93662D01*
X135024Y88938D02*
Y93662D01*
X177438Y118391D02*
Y123559D01*
X188512Y118391D02*
Y123559D01*
X177438D02*
X188512D01*
X177438Y118391D02*
X188512D01*
X177438Y124891D02*
Y130059D01*
X188512Y124891D02*
Y130059D01*
X177438D02*
X188512D01*
X177438Y124891D02*
X188512D01*
X177438Y131391D02*
Y136559D01*
X188512Y131391D02*
Y136559D01*
X177438D02*
X188512D01*
X177438Y131391D02*
X188512D01*
X194262Y112741D02*
Y117909D01*
X183188Y112741D02*
Y117909D01*
Y112741D02*
X194262D01*
X183188Y117909D02*
X194262D01*
X171941Y66938D02*
X177109D01*
X171941Y78012D02*
X177109D01*
X171941Y66938D02*
Y78012D01*
X177109Y66938D02*
Y78012D01*
X162638Y77224D02*
X167362D01*
X162638Y67776D02*
X167362D01*
Y77224D01*
X162638Y67776D02*
Y77224D01*
X183338Y106291D02*
Y111459D01*
X194412Y106291D02*
Y111459D01*
X183338D02*
X194412D01*
X183338Y106291D02*
X194412D01*
X153638Y67776D02*
Y77224D01*
X158362Y67776D02*
Y77224D01*
X153638Y67776D02*
X158362D01*
X153638Y77224D02*
X158362D01*
X169728Y48957D02*
Y56043D01*
X173272Y48957D02*
Y56043D01*
X169728Y48957D02*
X173272D01*
X169728Y56043D02*
X173272D01*
X165272Y48957D02*
Y56043D01*
X161728Y48957D02*
Y56043D01*
X165272D01*
X161728Y48957D02*
X165272D01*
X140609Y44938D02*
Y56012D01*
X135441Y44938D02*
Y56012D01*
X140609D01*
X135441Y44938D02*
X140609D01*
X145228Y48957D02*
Y56043D01*
X148772Y48957D02*
Y56043D01*
X145228Y48957D02*
X148772D01*
X145228Y56043D02*
X148772D01*
X131772Y44957D02*
Y52043D01*
X128228Y44957D02*
Y52043D01*
X131772D01*
X128228Y44957D02*
X131772D01*
X127957Y28272D02*
X135043D01*
X127957Y24728D02*
X135043D01*
X127957D02*
Y28272D01*
X135043Y24728D02*
Y28272D01*
D88*
X152594Y31095D02*
Y42906D01*
X164406D01*
Y31095D02*
Y42906D01*
X152594Y31095D02*
X164406D01*
D95*
X172747Y143398D02*
Y155602D01*
X166053Y143398D02*
Y155602D01*
Y143398D02*
X172747D01*
X166053Y155602D02*
X172747D01*
X15254Y86598D02*
Y98802D01*
X21947Y86598D02*
Y98802D01*
X15254Y86598D02*
X21947D01*
X15254Y98802D02*
X21947D01*
X23698Y59246D02*
X35902D01*
X23698Y52553D02*
X35902D01*
X23698D02*
Y59246D01*
X35902Y52553D02*
Y59246D01*
X150626Y29126D02*
X166374D01*
X150626Y44874D02*
X166374D01*
Y29126D02*
Y44874D01*
X150626Y29126D02*
Y44874D01*
M02*
