G04*
G04 #@! TF.GenerationSoftware,Altium Limited,Altium Designer,21.3.2 (30)*
G04*
G04 Layer_Color=32768*
%FSLAX25Y25*%
%MOIN*%
G70*
G04*
G04 #@! TF.SameCoordinates,24C89C37-09E3-4822-9DB9-40424265DB80*
G04*
G04*
G04 #@! TF.FilePolarity,Positive*
G04*
G01*
G75*
%ADD10C,0.00500*%
%ADD12C,0.00787*%
%ADD86C,0.00197*%
%ADD87C,0.00100*%
%ADD88C,0.00394*%
%ADD89R,0.01181X0.01968*%
%ADD90R,0.01968X0.01181*%
%ADD91R,0.03150X0.01575*%
%ADD92R,0.01575X0.03150*%
%ADD93R,0.04961X0.01575*%
%ADD94R,0.01575X0.04961*%
G36*
X33450Y110728D02*
X32269D01*
Y114272D01*
X33450D01*
Y110728D01*
D02*
G37*
G36*
X28332D02*
X27150D01*
Y114272D01*
X28332D01*
Y110728D01*
D02*
G37*
G36*
X33450Y102628D02*
X32269D01*
Y106172D01*
X33450D01*
Y102628D01*
D02*
G37*
G36*
X28332D02*
X27150D01*
Y106172D01*
X28332D01*
Y102628D01*
D02*
G37*
G36*
X33450Y97128D02*
X32269D01*
Y100672D01*
X33450D01*
Y97128D01*
D02*
G37*
G36*
X28332D02*
X27150D01*
Y100672D01*
X28332D01*
Y97128D01*
D02*
G37*
G36*
X101272Y92168D02*
X97728D01*
Y93350D01*
X101272D01*
Y92168D01*
D02*
G37*
G36*
X33450Y88828D02*
X32269D01*
Y92372D01*
X33450D01*
Y88828D01*
D02*
G37*
G36*
X28332D02*
X27150D01*
Y92372D01*
X28332D01*
Y88828D01*
D02*
G37*
G36*
X101272Y87050D02*
X97728D01*
Y88231D01*
X101272D01*
Y87050D01*
D02*
G37*
G36*
X33450Y82928D02*
X32269D01*
Y86472D01*
X33450D01*
Y82928D01*
D02*
G37*
G36*
X28332D02*
X27150D01*
Y86472D01*
X28332D01*
Y82928D01*
D02*
G37*
G36*
X33450Y74828D02*
X32269D01*
Y78372D01*
X33450D01*
Y74828D01*
D02*
G37*
G36*
X28332D02*
X27150D01*
Y78372D01*
X28332D01*
Y74828D01*
D02*
G37*
G36*
X33450Y68928D02*
X32269D01*
Y72472D01*
X33450D01*
Y68928D01*
D02*
G37*
G36*
X28332D02*
X27150D01*
Y72472D01*
X28332D01*
Y68928D01*
D02*
G37*
G36*
X33450Y61028D02*
X32269D01*
Y64572D01*
X33450D01*
Y61028D01*
D02*
G37*
G36*
X28332D02*
X27150D01*
Y64572D01*
X28332D01*
Y61028D01*
D02*
G37*
G36*
X172167Y160933D02*
X172178Y160922D01*
X172184Y160908D01*
Y160900D01*
Y160191D01*
X172184Y160184D01*
X172178Y160169D01*
X172167Y160158D01*
X172153Y160152D01*
X170247D01*
X170233Y160158D01*
X170222Y160169D01*
X170216Y160184D01*
Y160191D01*
Y160900D01*
Y160908D01*
X170222Y160922D01*
X170233Y160933D01*
X170247Y160939D01*
X172153D01*
X172167Y160933D01*
D02*
G37*
G36*
Y157784D02*
X172178Y157773D01*
X172184Y157758D01*
Y157750D01*
Y157042D01*
Y157034D01*
X172178Y157019D01*
X172167Y157008D01*
X172153Y157002D01*
X170247D01*
X170233Y157008D01*
X170222Y157019D01*
X170216Y157034D01*
Y157042D01*
Y157750D01*
Y157758D01*
X170222Y157773D01*
X170233Y157784D01*
X170247Y157790D01*
X172153D01*
X172167Y157784D01*
D02*
G37*
G36*
X113772Y108968D02*
X110228D01*
Y110150D01*
X113772D01*
Y108968D01*
D02*
G37*
G36*
X108272Y108968D02*
X104728D01*
Y110150D01*
X108272D01*
Y108968D01*
D02*
G37*
G36*
X113772Y103850D02*
X110228D01*
Y105032D01*
X113772D01*
Y103850D01*
D02*
G37*
G36*
X108272Y103850D02*
X104728D01*
Y105032D01*
X108272D01*
Y103850D01*
D02*
G37*
G36*
X122272Y103469D02*
X118728D01*
Y104650D01*
X122272D01*
Y103469D01*
D02*
G37*
G36*
Y98350D02*
X118728D01*
Y99532D01*
X122272D01*
Y98350D01*
D02*
G37*
G36*
X166772Y74468D02*
X163228D01*
Y75650D01*
X166772D01*
Y74468D01*
D02*
G37*
G36*
X157772D02*
X154228D01*
Y75650D01*
X157772D01*
Y74468D01*
D02*
G37*
G36*
X166772Y69350D02*
X163228D01*
Y70531D01*
X166772D01*
Y69350D01*
D02*
G37*
G36*
X157772D02*
X154228D01*
Y70531D01*
X157772D01*
Y69350D01*
D02*
G37*
G36*
X164467Y54462D02*
X164478Y54451D01*
X164484Y54437D01*
Y54429D01*
Y53720D01*
X164484Y53713D01*
X164478Y53698D01*
X164467Y53687D01*
X164453Y53681D01*
X162547D01*
X162533Y53687D01*
X162522Y53698D01*
X162516Y53713D01*
Y53720D01*
Y54429D01*
Y54437D01*
X162522Y54451D01*
X162533Y54462D01*
X162547Y54469D01*
X164453D01*
X164467Y54462D01*
D02*
G37*
G36*
Y51313D02*
X164478Y51302D01*
X164484Y51287D01*
Y51279D01*
Y50571D01*
Y50563D01*
X164478Y50549D01*
X164467Y50538D01*
X164453Y50532D01*
X162547D01*
X162533Y50538D01*
X162522Y50549D01*
X162516Y50563D01*
Y50571D01*
Y51279D01*
Y51287D01*
X162522Y51302D01*
X162533Y51313D01*
X162547Y51319D01*
X164453D01*
X164467Y51313D01*
D02*
G37*
G36*
X130967Y50463D02*
X130978Y50451D01*
X130984Y50437D01*
Y50429D01*
Y49720D01*
X130984Y49713D01*
X130978Y49698D01*
X130967Y49687D01*
X130953Y49681D01*
X129047D01*
X129033Y49687D01*
X129022Y49698D01*
X129016Y49713D01*
Y49720D01*
Y50429D01*
Y50437D01*
X129022Y50451D01*
X129033Y50463D01*
X129047Y50468D01*
X130953D01*
X130967Y50463D01*
D02*
G37*
G36*
Y47313D02*
X130978Y47302D01*
X130984Y47287D01*
Y47280D01*
Y46571D01*
Y46563D01*
X130978Y46549D01*
X130967Y46538D01*
X130953Y46532D01*
X129047D01*
X129033Y46538D01*
X129022Y46549D01*
X129016Y46563D01*
Y46571D01*
Y47280D01*
Y47287D01*
X129022Y47302D01*
X129033Y47313D01*
X129047Y47319D01*
X130953D01*
X130967Y47313D01*
D02*
G37*
G36*
X133451Y27478D02*
X133463Y27467D01*
X133468Y27453D01*
Y27445D01*
Y25555D01*
Y25547D01*
X133463Y25533D01*
X133451Y25522D01*
X133437Y25516D01*
X132713D01*
X132698Y25522D01*
X132687Y25533D01*
X132681Y25547D01*
Y25555D01*
Y27445D01*
Y27453D01*
X132687Y27467D01*
X132698Y27478D01*
X132713Y27484D01*
X133437D01*
X133451Y27478D01*
D02*
G37*
G36*
X130302D02*
X130313Y27467D01*
X130319Y27453D01*
Y27445D01*
Y25555D01*
Y25547D01*
X130313Y25533D01*
X130302Y25522D01*
X130287Y25516D01*
X129563D01*
X129549Y25522D01*
X129537Y25533D01*
X129532Y25547D01*
Y25555D01*
Y27445D01*
Y27453D01*
X129537Y27467D01*
X129549Y27478D01*
X129563Y27484D01*
X130280D01*
X130287Y27484D01*
X130302Y27478D01*
D02*
G37*
D10*
X96625Y103550D02*
X99775D01*
X96625Y97250D02*
X99775D01*
Y103550D01*
X96625Y97250D02*
Y103550D01*
X105950Y82125D02*
X112250D01*
X105950Y85275D02*
X112250D01*
Y82125D02*
Y85275D01*
X105950Y82125D02*
Y85275D01*
X179850Y139425D02*
X186150D01*
X179850Y142575D02*
X186150D01*
Y139425D02*
Y142575D01*
X179850Y139425D02*
Y142575D01*
X16139Y88763D02*
Y96637D01*
X21061Y88763D02*
Y96637D01*
X16139Y88763D02*
X21061D01*
X16139Y96637D02*
X21061D01*
X25863Y58361D02*
X33737D01*
X25863Y53439D02*
X33737D01*
X25863D02*
Y58361D01*
X33737Y53439D02*
Y58361D01*
X178975Y47850D02*
Y54150D01*
X175825Y47850D02*
Y54150D01*
X178975D01*
X175825Y47850D02*
X178975D01*
X103094Y90079D02*
X114906D01*
X103094D02*
Y99921D01*
X114906D01*
Y90079D02*
Y99921D01*
X179850Y119425D02*
Y122575D01*
X186150Y119425D02*
Y122575D01*
X179850D02*
X186150D01*
X179850Y119425D02*
X186150D01*
X179850Y125925D02*
Y129075D01*
X186150Y125925D02*
Y129075D01*
X179850D02*
X186150D01*
X179850Y125925D02*
X186150D01*
X179850Y132425D02*
Y135575D01*
X186150Y132425D02*
Y135575D01*
X179850D02*
X186150D01*
X179850Y132425D02*
X186150D01*
X191850Y113725D02*
Y116875D01*
X185550Y113725D02*
Y116875D01*
Y113725D02*
X191850D01*
X185550Y116875D02*
X191850D01*
X172925Y69350D02*
X176075D01*
X172925Y75650D02*
X176075D01*
X172925Y69350D02*
Y75650D01*
X176075Y69350D02*
Y75650D01*
X185750Y107325D02*
Y110475D01*
X192050Y107325D02*
Y110475D01*
X185750D02*
X192050D01*
X185750Y107325D02*
X192050D01*
X139575Y47350D02*
Y53650D01*
X136425Y47350D02*
Y53650D01*
X139575D01*
X136425Y47350D02*
X139575D01*
D12*
X104832Y98554D02*
G03*
X104832Y98554I-394J0D01*
G01*
D86*
X172145Y157002D02*
G03*
X172184Y157042I0J39D01*
G01*
X170215D02*
G03*
X170255Y157002I39J0D01*
G01*
X172184Y157750D02*
G03*
X172145Y157790I-39J0D01*
G01*
X170255D02*
G03*
X170215Y157750I0J-39D01*
G01*
X172145Y160152D02*
G03*
X172184Y160191I0J39D01*
G01*
X170215D02*
G03*
X170255Y160152I39J0D01*
G01*
X172184Y160900D02*
G03*
X172145Y160939I-39J0D01*
G01*
X170255D02*
G03*
X170215Y160900I0J-39D01*
G01*
X164445Y50532D02*
G03*
X164484Y50571I0J39D01*
G01*
X162515D02*
G03*
X162555Y50532I39J0D01*
G01*
X164484Y51279D02*
G03*
X164445Y51319I-39J0D01*
G01*
X162555D02*
G03*
X162515Y51279I0J-39D01*
G01*
X164445Y53681D02*
G03*
X164484Y53720I0J39D01*
G01*
X162515D02*
G03*
X162555Y53681I39J0D01*
G01*
X164484Y54429D02*
G03*
X164445Y54469I-39J0D01*
G01*
X162555D02*
G03*
X162515Y54429I0J-39D01*
G01*
X130945Y46532D02*
G03*
X130984Y46571I0J39D01*
G01*
X129015D02*
G03*
X129055Y46532I39J0D01*
G01*
X130984Y47280D02*
G03*
X130945Y47319I-39J0D01*
G01*
X129055D02*
G03*
X129015Y47280I0J-39D01*
G01*
X130945Y49681D02*
G03*
X130984Y49720I0J39D01*
G01*
X129015D02*
G03*
X129055Y49681I39J0D01*
G01*
X130984Y50429D02*
G03*
X130945Y50468I-39J0D01*
G01*
X129055D02*
G03*
X129015Y50429I0J-39D01*
G01*
X133468Y27444D02*
G03*
X133429Y27484I-39J0D01*
G01*
Y25515D02*
G03*
X133468Y25555I0J39D01*
G01*
X132720Y27484D02*
G03*
X132681Y27444I0J-39D01*
G01*
Y25555D02*
G03*
X132720Y25515I39J0D01*
G01*
X130319Y27444D02*
G03*
X130280Y27484I-39J0D01*
G01*
Y25515D02*
G03*
X130319Y25555I0J39D01*
G01*
X129571Y27484D02*
G03*
X129532Y27444I0J-39D01*
G01*
Y25555D02*
G03*
X129571Y25515I39J0D01*
G01*
X170255Y157002D02*
X172145D01*
X172184Y157042D02*
Y157554D01*
X170215Y157042D02*
Y157554D01*
X172184D02*
Y157750D01*
X170215Y157554D02*
Y157750D01*
X170255Y157790D02*
X172145D01*
Y160152D01*
X170255Y157790D02*
Y160152D01*
X172145D01*
X172184Y160191D02*
Y160388D01*
X170215Y160191D02*
Y160388D01*
X172184D02*
Y160900D01*
X170215Y160388D02*
Y160900D01*
X170255Y160939D02*
X172145D01*
X162555Y50532D02*
X164445D01*
X164484Y50571D02*
Y51083D01*
X162515Y50571D02*
Y51083D01*
X164484D02*
Y51279D01*
X162515Y51083D02*
Y51279D01*
X162555Y51319D02*
X164445D01*
Y53681D01*
X162555Y51319D02*
Y53681D01*
X164445D01*
X164484Y53720D02*
Y53917D01*
X162515Y53720D02*
Y53917D01*
X164484D02*
Y54429D01*
X162515Y53917D02*
Y54429D01*
X162555Y54469D02*
X164445D01*
X129055Y46532D02*
X130945D01*
X130984Y46571D02*
Y47083D01*
X129015Y46571D02*
Y47083D01*
X130984D02*
Y47280D01*
X129015Y47083D02*
Y47280D01*
X129055Y47319D02*
X130945D01*
Y49681D01*
X129055Y47319D02*
Y49681D01*
X130945D01*
X130984Y49720D02*
Y49917D01*
X129015Y49720D02*
Y49917D01*
X130984D02*
Y50429D01*
X129015Y49917D02*
Y50429D01*
X129055Y50468D02*
X130945D01*
X133468Y25555D02*
Y27444D01*
X132917Y27484D02*
X133429D01*
X132917Y25515D02*
X133429D01*
X132720Y27484D02*
X132917D01*
X132720Y25515D02*
X132917D01*
X132681Y25555D02*
Y27444D01*
X130319D02*
X132681D01*
X130319Y25555D02*
X132681D01*
X130319D02*
Y27444D01*
X130083Y27484D02*
X130280D01*
X130083Y25515D02*
X130280D01*
X129571Y27484D02*
X130083D01*
X129571Y25515D02*
X130083D01*
X129532Y25555D02*
Y27444D01*
D87*
X142968Y25516D02*
Y27484D01*
X139032Y25516D02*
Y27484D01*
Y25516D02*
X142968D01*
X139032Y27484D02*
X142968D01*
X11516Y94068D02*
X13484D01*
X11516Y90131D02*
X13484D01*
Y94068D01*
X11516Y90131D02*
Y94068D01*
X159716Y157002D02*
Y160939D01*
X161684Y157002D02*
Y160939D01*
X159716Y157002D02*
X161684D01*
X159716Y160939D02*
X161684D01*
X170516Y50532D02*
Y54469D01*
X172484Y50532D02*
Y54469D01*
X170516Y50532D02*
X172484D01*
X170516Y54469D02*
X172484D01*
X146016Y50532D02*
Y54469D01*
X147984Y50532D02*
Y54469D01*
X146016Y50532D02*
X147984D01*
X146016Y54469D02*
X147984D01*
D88*
X33450Y82928D02*
Y86472D01*
X32426Y82928D02*
X33450D01*
X32426Y86472D02*
X33450D01*
X32347Y82928D02*
X32426D01*
X32269D02*
X32347D01*
X32269Y86472D02*
X32347D01*
X32269Y82928D02*
Y86472D01*
X32347D02*
X32426D01*
X28332Y82928D02*
X32269D01*
X28332Y86472D02*
X32269D01*
X28332Y82928D02*
Y86472D01*
X28253D02*
X28332D01*
X28253Y82928D02*
X28332D01*
X28174Y86472D02*
X28253D01*
X28174Y82928D02*
X28253D01*
X27150Y86472D02*
X28174D01*
X27150Y82928D02*
X28174D01*
X27150D02*
Y86472D01*
X33450Y74828D02*
Y78372D01*
X32426Y74828D02*
X33450D01*
X32426Y78372D02*
X33450D01*
X32347Y74828D02*
X32426D01*
X32269D02*
X32347D01*
X32269Y78372D02*
X32347D01*
X32269Y74828D02*
Y78372D01*
X32347D02*
X32426D01*
X28332Y74828D02*
X32269D01*
X28332Y78372D02*
X32269D01*
X28332Y74828D02*
Y78372D01*
X28253D02*
X28332D01*
X28253Y74828D02*
X28332D01*
X28174Y78372D02*
X28253D01*
X28174Y74828D02*
X28253D01*
X27150Y78372D02*
X28174D01*
X27150Y74828D02*
X28174D01*
X27150D02*
Y78372D01*
X33450Y102628D02*
Y106172D01*
X32426Y102628D02*
X33450D01*
X32426Y106172D02*
X33450D01*
X32347Y102628D02*
X32426D01*
X32269D02*
X32347D01*
X32269Y106172D02*
X32347D01*
X32269Y102628D02*
Y106172D01*
X32347D02*
X32426D01*
X28332Y102628D02*
X32269D01*
X28332Y106172D02*
X32269D01*
X28332Y102628D02*
Y106172D01*
X28253D02*
X28332D01*
X28253Y102628D02*
X28332D01*
X28174Y106172D02*
X28253D01*
X28174Y102628D02*
X28253D01*
X27150Y106172D02*
X28174D01*
X27150Y102628D02*
X28174D01*
X27150D02*
Y106172D01*
X33450Y110728D02*
Y114272D01*
X32426Y110728D02*
X33450D01*
X32426Y114272D02*
X33450D01*
X32347Y110728D02*
X32426D01*
X32269D02*
X32347D01*
X32269Y114272D02*
X32347D01*
X32269Y110728D02*
Y114272D01*
X32347D02*
X32426D01*
X28332Y110728D02*
X32269D01*
X28332Y114272D02*
X32269D01*
X28332Y110728D02*
Y114272D01*
X28253D02*
X28332D01*
X28253Y110728D02*
X28332D01*
X28174Y114272D02*
X28253D01*
X28174Y110728D02*
X28253D01*
X27150Y114272D02*
X28174D01*
X27150Y110728D02*
X28174D01*
X27150D02*
Y114272D01*
X33450Y88828D02*
Y92372D01*
X32426Y88828D02*
X33450D01*
X32426Y92372D02*
X33450D01*
X32347Y88828D02*
X32426D01*
X32269D02*
X32347D01*
X32269Y92372D02*
X32347D01*
X32269Y88828D02*
Y92372D01*
X32347D02*
X32426D01*
X28332Y88828D02*
X32269D01*
X28332Y92372D02*
X32269D01*
X28332Y88828D02*
Y92372D01*
X28253D02*
X28332D01*
X28253Y88828D02*
X28332D01*
X28174Y92372D02*
X28253D01*
X28174Y88828D02*
X28253D01*
X27150Y92372D02*
X28174D01*
X27150Y88828D02*
X28174D01*
X27150D02*
Y92372D01*
X27150Y97128D02*
Y100672D01*
X28174D01*
X27150Y97128D02*
X28174D01*
Y100672D02*
X28253D01*
X28332D01*
X28253Y97128D02*
X28332D01*
Y100672D01*
X28174Y97128D02*
X28253D01*
X28332Y100672D02*
X32269D01*
X28332Y97128D02*
X32269D01*
Y100672D01*
Y97128D02*
X32347D01*
X32269Y100672D02*
X32347D01*
Y97128D02*
X32426D01*
X32347Y100672D02*
X32426D01*
Y97128D02*
X33450D01*
X32426Y100672D02*
X33450D01*
Y97128D02*
Y100672D01*
X33450Y61028D02*
Y64572D01*
X32426Y61028D02*
X33450D01*
X32426Y64572D02*
X33450D01*
X32347Y61028D02*
X32426D01*
X32269D02*
X32347D01*
X32269Y64572D02*
X32347D01*
X32269Y61028D02*
Y64572D01*
X32347D02*
X32426D01*
X28332Y61028D02*
X32269D01*
X28332Y64572D02*
X32269D01*
X28332Y61028D02*
Y64572D01*
X28253D02*
X28332D01*
X28253Y61028D02*
X28332D01*
X28174Y64572D02*
X28253D01*
X28174Y61028D02*
X28253D01*
X27150Y64572D02*
X28174D01*
X27150Y61028D02*
X28174D01*
X27150D02*
Y64572D01*
X33450Y68928D02*
Y72472D01*
X32426Y68928D02*
X33450D01*
X32426Y72472D02*
X33450D01*
X32347Y68928D02*
X32426D01*
X32269D02*
X32347D01*
X32269Y72472D02*
X32347D01*
X32269Y68928D02*
Y72472D01*
X32347D02*
X32426D01*
X28332Y68928D02*
X32269D01*
X28332Y72472D02*
X32269D01*
X28332Y68928D02*
Y72472D01*
X28253D02*
X28332D01*
X28253Y68928D02*
X28332D01*
X28174Y72472D02*
X28253D01*
X28174Y68928D02*
X28253D01*
X27150Y72472D02*
X28174D01*
X27150Y68928D02*
X28174D01*
X27150D02*
Y72472D01*
X110228Y110150D02*
X113772D01*
Y109126D02*
Y110150D01*
X110228Y109126D02*
Y110150D01*
X113772Y109047D02*
Y109126D01*
Y108968D02*
Y109047D01*
X110228Y108968D02*
Y109047D01*
Y108968D02*
X113772D01*
X110228Y109047D02*
Y109126D01*
X113772Y105032D02*
Y108968D01*
X110228Y105032D02*
Y108968D01*
Y105032D02*
X113772D01*
X110228Y104953D02*
Y105032D01*
X113772Y104953D02*
Y105032D01*
X110228Y104874D02*
Y104953D01*
X113772Y104874D02*
Y104953D01*
X110228Y103850D02*
Y104874D01*
X113772Y103850D02*
Y104874D01*
X110228Y103850D02*
X113772D01*
X104728Y103850D02*
X108272D01*
X104728D02*
Y104874D01*
X108272Y103850D02*
Y104874D01*
X104728D02*
Y104953D01*
Y105032D01*
X108272Y104953D02*
Y105032D01*
X104728D02*
X108272D01*
Y104874D02*
Y104953D01*
X104728Y105032D02*
Y108968D01*
X108272Y105032D02*
Y108968D01*
X104728D02*
X108272D01*
Y109047D01*
X104728Y108968D02*
Y109047D01*
X108272D02*
Y109126D01*
X104728Y109047D02*
Y109126D01*
X108272D02*
Y110150D01*
X104728Y109126D02*
Y110150D01*
X108272D01*
X118728Y98350D02*
X122272D01*
X118728D02*
Y99374D01*
X122272Y98350D02*
Y99374D01*
X118728D02*
Y99453D01*
Y99532D01*
X122272Y99453D02*
Y99532D01*
X118728D02*
X122272D01*
Y99374D02*
Y99453D01*
X118728Y99532D02*
Y103469D01*
X122272Y99532D02*
Y103469D01*
X118728D02*
X122272D01*
Y103547D01*
X118728Y103469D02*
Y103547D01*
X122272D02*
Y103626D01*
X118728Y103547D02*
Y103626D01*
X122272D02*
Y104650D01*
X118728Y103626D02*
Y104650D01*
X122272D01*
X97728Y87050D02*
X101272D01*
X97728D02*
Y88074D01*
X101272Y87050D02*
Y88074D01*
X97728D02*
Y88153D01*
Y88231D01*
X101272Y88153D02*
Y88231D01*
X97728D02*
X101272D01*
Y88074D02*
Y88153D01*
X97728Y88231D02*
Y92168D01*
X101272Y88231D02*
Y92168D01*
X97728D02*
X101272D01*
Y92247D01*
X97728Y92168D02*
Y92247D01*
X101272D02*
Y92326D01*
X97728Y92247D02*
Y92326D01*
X101272D02*
Y93350D01*
X97728Y92326D02*
Y93350D01*
X101272D01*
X163228Y75650D02*
X166772D01*
X163228Y74626D02*
Y75650D01*
X166772Y74626D02*
Y75650D01*
X163228Y74547D02*
Y74626D01*
X166772Y74547D02*
Y74626D01*
X163228Y74468D02*
Y74547D01*
X166772Y74468D02*
Y74547D01*
X163228Y74468D02*
X166772D01*
Y70531D02*
Y74468D01*
X163228Y70531D02*
Y74468D01*
X166772Y70374D02*
Y70453D01*
X163228Y70531D02*
X166772D01*
Y70453D02*
Y70531D01*
X163228Y70453D02*
Y70531D01*
Y70374D02*
Y70453D01*
X166772Y69350D02*
Y70374D01*
X163228Y69350D02*
Y70374D01*
Y69350D02*
X166772D01*
X154228D02*
X157772D01*
X154228D02*
Y70374D01*
X157772Y69350D02*
Y70374D01*
X154228D02*
Y70453D01*
Y70531D01*
X157772Y70453D02*
Y70531D01*
X154228D02*
X157772D01*
Y70374D02*
Y70453D01*
X154228Y70531D02*
Y74468D01*
X157772Y70531D02*
Y74468D01*
X154228D02*
X157772D01*
Y74547D01*
X154228Y74468D02*
Y74547D01*
X157772D02*
Y74626D01*
X154228Y74547D02*
Y74626D01*
X157772D02*
Y75650D01*
X154228Y74626D02*
Y75650D01*
X157772D01*
D89*
X142422Y26501D02*
D03*
X139581Y26484D02*
D03*
D90*
X12499Y93522D02*
D03*
X12516Y90680D02*
D03*
X160716Y157551D02*
D03*
X160699Y160393D02*
D03*
X171516Y51080D02*
D03*
X171499Y53922D02*
D03*
X147016Y51080D02*
D03*
X146999Y53922D02*
D03*
D91*
X98200Y98038D02*
D03*
X98200Y102762D02*
D03*
X177400Y48638D02*
D03*
Y53362D02*
D03*
X174500Y74862D02*
D03*
X174500Y70138D02*
D03*
X138000Y48138D02*
D03*
X138000Y52862D02*
D03*
D92*
X106738Y83700D02*
D03*
X111462D02*
D03*
X180638Y141000D02*
D03*
X185362Y141000D02*
D03*
X185362Y121000D02*
D03*
X180638D02*
D03*
X185362Y127500D02*
D03*
X180638D02*
D03*
X185362Y134000D02*
D03*
X180638D02*
D03*
X186338Y115300D02*
D03*
X191062D02*
D03*
X191262Y108900D02*
D03*
X186538D02*
D03*
D93*
X18580Y95850D02*
D03*
Y89550D02*
D03*
D94*
X32950Y55920D02*
D03*
X26650D02*
D03*
M02*
