G04*
G04 #@! TF.GenerationSoftware,Altium Limited,Altium Designer,21.3.2 (30)*
G04*
G04 Layer_Physical_Order=1*
G04 Layer_Color=2368735*
%FSLAX25Y25*%
%MOIN*%
G70*
G04*
G04 #@! TF.SameCoordinates,24C89C37-09E3-4822-9DB9-40424265DB80*
G04*
G04*
G04 #@! TF.FilePolarity,Positive*
G04*
G01*
G75*
%ADD14C,0.01000*%
%ADD16C,0.00600*%
G04:AMPARAMS|DCode=17|XSize=23.62mil|YSize=23.62mil|CornerRadius=5.91mil|HoleSize=0mil|Usage=FLASHONLY|Rotation=180.000|XOffset=0mil|YOffset=0mil|HoleType=Round|Shape=RoundedRectangle|*
%AMROUNDEDRECTD17*
21,1,0.02362,0.01181,0,0,180.0*
21,1,0.01181,0.02362,0,0,180.0*
1,1,0.01181,-0.00591,0.00591*
1,1,0.01181,0.00591,0.00591*
1,1,0.01181,0.00591,-0.00591*
1,1,0.01181,-0.00591,-0.00591*
%
%ADD17ROUNDEDRECTD17*%
%ADD18R,0.11417X0.11417*%
G04:AMPARAMS|DCode=19|XSize=23.62mil|YSize=23.62mil|CornerRadius=5.91mil|HoleSize=0mil|Usage=FLASHONLY|Rotation=270.000|XOffset=0mil|YOffset=0mil|HoleType=Round|Shape=RoundedRectangle|*
%AMROUNDEDRECTD19*
21,1,0.02362,0.01181,0,0,270.0*
21,1,0.01181,0.02362,0,0,270.0*
1,1,0.01181,-0.00591,-0.00591*
1,1,0.01181,-0.00591,0.00591*
1,1,0.01181,0.00591,0.00591*
1,1,0.01181,0.00591,-0.00591*
%
%ADD19ROUNDEDRECTD19*%
G04:AMPARAMS|DCode=20|XSize=35.43mil|YSize=39.37mil|CornerRadius=8.86mil|HoleSize=0mil|Usage=FLASHONLY|Rotation=270.000|XOffset=0mil|YOffset=0mil|HoleType=Round|Shape=RoundedRectangle|*
%AMROUNDEDRECTD20*
21,1,0.03543,0.02165,0,0,270.0*
21,1,0.01772,0.03937,0,0,270.0*
1,1,0.01772,-0.01083,-0.00886*
1,1,0.01772,-0.01083,0.00886*
1,1,0.01772,0.01083,0.00886*
1,1,0.01772,0.01083,-0.00886*
%
%ADD20ROUNDEDRECTD20*%
G04:AMPARAMS|DCode=21|XSize=11.81mil|YSize=33.86mil|CornerRadius=0mil|HoleSize=0mil|Usage=FLASHONLY|Rotation=160.000|XOffset=0mil|YOffset=0mil|HoleType=Round|Shape=Rectangle|*
%AMROTATEDRECTD21*
4,1,4,0.01134,0.01389,-0.00024,-0.01793,-0.01134,-0.01389,0.00024,0.01793,0.01134,0.01389,0.0*
%
%ADD21ROTATEDRECTD21*%

G04:AMPARAMS|DCode=22|XSize=27.56mil|YSize=25.98mil|CornerRadius=0mil|HoleSize=0mil|Usage=FLASHONLY|Rotation=160.000|XOffset=0mil|YOffset=0mil|HoleType=Round|Shape=Rectangle|*
%AMROTATEDRECTD22*
4,1,4,0.01739,0.00750,0.00851,-0.01692,-0.01739,-0.00750,-0.00851,0.01692,0.01739,0.00750,0.0*
%
%ADD22ROTATEDRECTD22*%

%ADD23R,0.02598X0.02756*%
%ADD24R,0.03386X0.01181*%
%ADD25R,0.03347X0.02362*%
%ADD26R,0.03347X0.02756*%
G04:AMPARAMS|DCode=27|XSize=35.43mil|YSize=39.37mil|CornerRadius=8.86mil|HoleSize=0mil|Usage=FLASHONLY|Rotation=0.000|XOffset=0mil|YOffset=0mil|HoleType=Round|Shape=RoundedRectangle|*
%AMROUNDEDRECTD27*
21,1,0.03543,0.02165,0,0,0.0*
21,1,0.01772,0.03937,0,0,0.0*
1,1,0.01772,0.00886,-0.01083*
1,1,0.01772,-0.00886,-0.01083*
1,1,0.01772,-0.00886,0.01083*
1,1,0.01772,0.00886,0.01083*
%
%ADD27ROUNDEDRECTD27*%
%ADD28P,0.16225X4X190.0*%
%ADD29P,0.16225X4X210.0*%
G04:AMPARAMS|DCode=30|XSize=32.28mil|YSize=31.5mil|CornerRadius=7.87mil|HoleSize=0mil|Usage=FLASHONLY|Rotation=180.000|XOffset=0mil|YOffset=0mil|HoleType=Round|Shape=RoundedRectangle|*
%AMROUNDEDRECTD30*
21,1,0.03228,0.01575,0,0,180.0*
21,1,0.01654,0.03150,0,0,180.0*
1,1,0.01575,-0.00827,0.00787*
1,1,0.01575,0.00827,0.00787*
1,1,0.01575,0.00827,-0.00787*
1,1,0.01575,-0.00827,-0.00787*
%
%ADD30ROUNDEDRECTD30*%
G04:AMPARAMS|DCode=31|XSize=19.68mil|YSize=23.62mil|CornerRadius=4.92mil|HoleSize=0mil|Usage=FLASHONLY|Rotation=90.000|XOffset=0mil|YOffset=0mil|HoleType=Round|Shape=RoundedRectangle|*
%AMROUNDEDRECTD31*
21,1,0.01968,0.01378,0,0,90.0*
21,1,0.00984,0.02362,0,0,90.0*
1,1,0.00984,0.00689,0.00492*
1,1,0.00984,0.00689,-0.00492*
1,1,0.00984,-0.00689,-0.00492*
1,1,0.00984,-0.00689,0.00492*
%
%ADD31ROUNDEDRECTD31*%
%ADD32R,0.02913X0.01260*%
%ADD33R,0.11890X0.05315*%
G04:AMPARAMS|DCode=34|XSize=27.56mil|YSize=25.98mil|CornerRadius=0mil|HoleSize=0mil|Usage=FLASHONLY|Rotation=20.000|XOffset=0mil|YOffset=0mil|HoleType=Round|Shape=Rectangle|*
%AMROTATEDRECTD34*
4,1,4,-0.00851,-0.01692,-0.01739,0.00750,0.00851,0.01692,0.01739,-0.00750,-0.00851,-0.01692,0.0*
%
%ADD34ROTATEDRECTD34*%

G04:AMPARAMS|DCode=35|XSize=11.81mil|YSize=33.86mil|CornerRadius=0mil|HoleSize=0mil|Usage=FLASHONLY|Rotation=20.000|XOffset=0mil|YOffset=0mil|HoleType=Round|Shape=Rectangle|*
%AMROTATEDRECTD35*
4,1,4,0.00024,-0.01793,-0.01134,0.01389,-0.00024,0.01793,0.01134,-0.01389,0.00024,-0.01793,0.0*
%
%ADD35ROTATEDRECTD35*%

G04:AMPARAMS|DCode=36|XSize=25.59mil|YSize=35.43mil|CornerRadius=6.4mil|HoleSize=0mil|Usage=FLASHONLY|Rotation=0.000|XOffset=0mil|YOffset=0mil|HoleType=Round|Shape=RoundedRectangle|*
%AMROUNDEDRECTD36*
21,1,0.02559,0.02264,0,0,0.0*
21,1,0.01280,0.03543,0,0,0.0*
1,1,0.01280,0.00640,-0.01132*
1,1,0.01280,-0.00640,-0.01132*
1,1,0.01280,-0.00640,0.01132*
1,1,0.01280,0.00640,0.01132*
%
%ADD36ROUNDEDRECTD36*%
G04:AMPARAMS|DCode=37|XSize=43.31mil|YSize=59.06mil|CornerRadius=10.83mil|HoleSize=0mil|Usage=FLASHONLY|Rotation=270.000|XOffset=0mil|YOffset=0mil|HoleType=Round|Shape=RoundedRectangle|*
%AMROUNDEDRECTD37*
21,1,0.04331,0.03740,0,0,270.0*
21,1,0.02165,0.05906,0,0,270.0*
1,1,0.02165,-0.01870,-0.01083*
1,1,0.02165,-0.01870,0.01083*
1,1,0.02165,0.01870,0.01083*
1,1,0.02165,0.01870,-0.01083*
%
%ADD37ROUNDEDRECTD37*%
G04:AMPARAMS|DCode=38|XSize=43.31mil|YSize=59.06mil|CornerRadius=10.83mil|HoleSize=0mil|Usage=FLASHONLY|Rotation=180.000|XOffset=0mil|YOffset=0mil|HoleType=Round|Shape=RoundedRectangle|*
%AMROUNDEDRECTD38*
21,1,0.04331,0.03740,0,0,180.0*
21,1,0.02165,0.05906,0,0,180.0*
1,1,0.02165,-0.01083,0.01870*
1,1,0.02165,0.01083,0.01870*
1,1,0.02165,0.01083,-0.01870*
1,1,0.02165,-0.01083,-0.01870*
%
%ADD38ROUNDEDRECTD38*%
G04:AMPARAMS|DCode=39|XSize=25.59mil|YSize=35.43mil|CornerRadius=6.4mil|HoleSize=0mil|Usage=FLASHONLY|Rotation=90.000|XOffset=0mil|YOffset=0mil|HoleType=Round|Shape=RoundedRectangle|*
%AMROUNDEDRECTD39*
21,1,0.02559,0.02264,0,0,90.0*
21,1,0.01280,0.03543,0,0,90.0*
1,1,0.01280,0.01132,0.00640*
1,1,0.01280,0.01132,-0.00640*
1,1,0.01280,-0.01132,-0.00640*
1,1,0.01280,-0.01132,0.00640*
%
%ADD39ROUNDEDRECTD39*%
G04:AMPARAMS|DCode=40|XSize=23.23mil|YSize=13.78mil|CornerRadius=3.45mil|HoleSize=0mil|Usage=FLASHONLY|Rotation=0.000|XOffset=0mil|YOffset=0mil|HoleType=Round|Shape=RoundedRectangle|*
%AMROUNDEDRECTD40*
21,1,0.02323,0.00689,0,0,0.0*
21,1,0.01634,0.01378,0,0,0.0*
1,1,0.00689,0.00817,-0.00345*
1,1,0.00689,-0.00817,-0.00345*
1,1,0.00689,-0.00817,0.00345*
1,1,0.00689,0.00817,0.00345*
%
%ADD40ROUNDEDRECTD40*%
G04:AMPARAMS|DCode=41|XSize=23.23mil|YSize=13.78mil|CornerRadius=3.45mil|HoleSize=0mil|Usage=FLASHONLY|Rotation=270.000|XOffset=0mil|YOffset=0mil|HoleType=Round|Shape=RoundedRectangle|*
%AMROUNDEDRECTD41*
21,1,0.02323,0.00689,0,0,270.0*
21,1,0.01634,0.01378,0,0,270.0*
1,1,0.00689,-0.00345,-0.00817*
1,1,0.00689,-0.00345,0.00817*
1,1,0.00689,0.00345,0.00817*
1,1,0.00689,0.00345,-0.00817*
%
%ADD41ROUNDEDRECTD41*%
G04:AMPARAMS|DCode=42|XSize=137.8mil|YSize=51.18mil|CornerRadius=12.8mil|HoleSize=0mil|Usage=FLASHONLY|Rotation=90.000|XOffset=0mil|YOffset=0mil|HoleType=Round|Shape=RoundedRectangle|*
%AMROUNDEDRECTD42*
21,1,0.13780,0.02559,0,0,90.0*
21,1,0.11221,0.05118,0,0,90.0*
1,1,0.02559,0.01280,0.05610*
1,1,0.02559,0.01280,-0.05610*
1,1,0.02559,-0.01280,-0.05610*
1,1,0.02559,-0.01280,0.05610*
%
%ADD42ROUNDEDRECTD42*%
G04:AMPARAMS|DCode=43|XSize=57.09mil|YSize=23.23mil|CornerRadius=2.9mil|HoleSize=0mil|Usage=FLASHONLY|Rotation=180.000|XOffset=0mil|YOffset=0mil|HoleType=Round|Shape=RoundedRectangle|*
%AMROUNDEDRECTD43*
21,1,0.05709,0.01742,0,0,180.0*
21,1,0.05128,0.02323,0,0,180.0*
1,1,0.00581,-0.02564,0.00871*
1,1,0.00581,0.02564,0.00871*
1,1,0.00581,0.02564,-0.00871*
1,1,0.00581,-0.02564,-0.00871*
%
%ADD43ROUNDEDRECTD43*%
G04:AMPARAMS|DCode=44|XSize=19.68mil|YSize=23.62mil|CornerRadius=4.92mil|HoleSize=0mil|Usage=FLASHONLY|Rotation=180.000|XOffset=0mil|YOffset=0mil|HoleType=Round|Shape=RoundedRectangle|*
%AMROUNDEDRECTD44*
21,1,0.01968,0.01378,0,0,180.0*
21,1,0.00984,0.02362,0,0,180.0*
1,1,0.00984,-0.00492,0.00689*
1,1,0.00984,0.00492,0.00689*
1,1,0.00984,0.00492,-0.00689*
1,1,0.00984,-0.00492,-0.00689*
%
%ADD44ROUNDEDRECTD44*%
%ADD74C,0.00400*%
%ADD75R,0.03543X0.06299*%
%ADD76C,0.00800*%
%ADD77C,0.01200*%
%ADD78C,0.01968*%
G36*
X172371Y161282D02*
X172383Y161248D01*
X172404Y161218D01*
X172432Y161192D01*
X172469Y161170D01*
X172515Y161152D01*
X172568Y161138D01*
X172630Y161128D01*
X172700Y161122D01*
X172778Y161120D01*
Y160720D01*
X172700Y160718D01*
X172630Y160712D01*
X172568Y160702D01*
X172515Y160688D01*
X172469Y160670D01*
X172432Y160648D01*
X172404Y160622D01*
X172383Y160592D01*
X172371Y160558D01*
X172366Y160520D01*
Y161320D01*
X172371Y161282D01*
D02*
G37*
G36*
X173684Y160225D02*
X173593Y160319D01*
X173290Y160596D01*
X173228Y160641D01*
X173172Y160675D01*
X173122Y160700D01*
X173077Y160715D01*
X173039Y160720D01*
X173047Y161120D01*
X173084Y161125D01*
X173128Y161139D01*
X173179Y161163D01*
X173235Y161197D01*
X173299Y161240D01*
X173444Y161356D01*
X173616Y161511D01*
X173711Y161603D01*
X173684Y160225D01*
D02*
G37*
G36*
X173114Y157986D02*
X173114Y157986D01*
X179710Y151390D01*
X181909Y149191D01*
X182000Y148971D01*
Y136719D01*
X182000Y136719D01*
X181986Y136697D01*
X181984Y136683D01*
X181984Y136683D01*
X181976Y136639D01*
X181836Y136511D01*
X181422Y136412D01*
X181316Y136482D01*
X180736Y136598D01*
X178965D01*
X178385Y136482D01*
X177893Y136154D01*
X177565Y135662D01*
X177450Y135083D01*
Y132917D01*
X177565Y132338D01*
X177893Y131846D01*
X178351Y131541D01*
X178216Y131215D01*
Y130585D01*
X178268Y130460D01*
X178385Y129982D01*
X177893Y129654D01*
X177565Y129162D01*
X177450Y128583D01*
Y126417D01*
X177565Y125838D01*
X177893Y125346D01*
X178351Y125041D01*
X178216Y124715D01*
Y124085D01*
X178268Y123960D01*
X178385Y123482D01*
X177893Y123154D01*
X177565Y122662D01*
X177450Y122083D01*
Y120133D01*
X175735Y118418D01*
X175470Y118021D01*
X175376Y117553D01*
Y117217D01*
X175257Y117097D01*
X175016Y116515D01*
Y115885D01*
X175257Y115303D01*
X175376Y115183D01*
Y113400D01*
X175470Y112932D01*
X175735Y112535D01*
X180235Y108035D01*
X180632Y107770D01*
X181100Y107676D01*
X182000D01*
Y105949D01*
X175471D01*
X175360Y105903D01*
X175239Y105907D01*
X169189Y103593D01*
X169183Y103587D01*
X169071Y103545D01*
X168984Y103462D01*
X168974Y103458D01*
X168968Y103453D01*
X168966Y103448D01*
X168844Y103397D01*
X168798Y103286D01*
X168710Y103203D01*
X168707Y103071D01*
X168703Y103068D01*
X168700Y103060D01*
Y103050D01*
X168654Y102938D01*
Y102819D01*
X168651Y102811D01*
Y99010D01*
X168683Y98931D01*
X168672Y98847D01*
X168789Y98395D01*
X168789D01*
X168776Y97901D01*
X168774Y97893D01*
X168730Y97849D01*
X168700Y97776D01*
Y97694D01*
X168681Y97647D01*
Y97600D01*
X168651Y97528D01*
Y93148D01*
X168706Y93015D01*
X168697Y92971D01*
X168784Y92533D01*
X168781Y92469D01*
X168754Y92248D01*
X168700Y92119D01*
X168700Y91990D01*
X168651Y91871D01*
Y88452D01*
X168651Y88452D01*
Y88323D01*
X168700Y88204D01*
X168700Y88074D01*
X168791Y87983D01*
X168841Y87864D01*
X168960Y87814D01*
X169052Y87723D01*
X169171Y87674D01*
X169171D01*
X169171Y87673D01*
X172103Y86461D01*
X175154Y85200D01*
X175283Y85200D01*
X175402Y85151D01*
X182000D01*
Y68458D01*
X182000Y68458D01*
Y68329D01*
X181909Y68109D01*
X181817Y68017D01*
X181817Y68017D01*
X175949Y62149D01*
X175949Y62149D01*
X172970Y59170D01*
X169800Y56000D01*
Y55345D01*
X169788Y55327D01*
X169696Y54862D01*
Y53681D01*
X169788Y53217D01*
X169800Y53199D01*
Y52700D01*
X171800Y50700D01*
X178500D01*
X179700Y49500D01*
Y46100D01*
X178500Y44900D01*
X167200D01*
X165600Y43300D01*
Y30576D01*
X165509Y30355D01*
X165245Y30091D01*
X165024Y30000D01*
X160458D01*
X160458Y30000D01*
X160200Y30446D01*
Y43000D01*
X156967Y46233D01*
X156967Y46233D01*
X153385Y49815D01*
X152283Y50917D01*
X152283Y50917D01*
X152191Y51009D01*
X152100Y51229D01*
Y69650D01*
Y85900D01*
X146400Y91600D01*
Y95600D01*
X153456Y102656D01*
X153927Y102726D01*
Y102726D01*
X158473D01*
Y106682D01*
X158300D01*
X158283Y106723D01*
X158262Y106731D01*
X158237Y106764D01*
X158152Y106980D01*
X158139Y107339D01*
X159672Y108872D01*
X159672Y108872D01*
X159672Y108872D01*
X159672Y108872D01*
X161509Y110709D01*
X161729Y110800D01*
X167300D01*
X167490Y110990D01*
X167490Y110990D01*
X169910Y113410D01*
X169910Y113410D01*
X169910Y113410D01*
X170100Y113600D01*
Y133600D01*
X175900Y139400D01*
Y144300D01*
X174000Y146200D01*
X168500D01*
X168472Y146228D01*
Y148450D01*
X167750D01*
X167400Y148800D01*
Y152179D01*
X167527Y152263D01*
X167834Y152723D01*
X167941Y153264D01*
Y154839D01*
X167834Y155380D01*
X167527Y155839D01*
X167068Y156146D01*
X166527Y156253D01*
X164873D01*
X164332Y156146D01*
X163873Y155839D01*
X163713Y155600D01*
X159918D01*
X159449Y156069D01*
Y158300D01*
X159748Y158489D01*
X159750Y158489D01*
X159757Y158494D01*
X159757Y158494D01*
X159792Y158503D01*
X159818Y158521D01*
X159818D01*
X159890Y158573D01*
X159890Y158573D01*
X159930D01*
X159996Y158600D01*
X163758D01*
X163758Y158600D01*
X163770Y158592D01*
X163770D01*
X163770Y158592D01*
X163836Y158579D01*
X163836Y158579D01*
X163883Y158532D01*
X163930Y158512D01*
X163946D01*
X163946Y158512D01*
X164332Y158255D01*
X164873Y158147D01*
X166527D01*
X167068Y158255D01*
X167390Y158470D01*
X167402Y158474D01*
X167424Y158492D01*
X167454Y158512D01*
X167454Y158512D01*
X167454Y158512D01*
X167470D01*
X167517Y158532D01*
X167564Y158579D01*
X167564Y158579D01*
X167629Y158591D01*
X167629Y158592D01*
X167630Y158592D01*
X167642Y158600D01*
X167642Y158600D01*
X172500D01*
X173114Y157986D01*
D02*
G37*
G36*
X113541Y158362D02*
Y140014D01*
X112813Y139329D01*
X109906Y139504D01*
X109886Y139497D01*
X109867Y139504D01*
X105915Y139384D01*
X105896Y139375D01*
X105876Y139381D01*
X101952Y138903D01*
X101933Y138893D01*
X101913Y138897D01*
X98048Y138066D01*
X98031Y138054D01*
X98010Y138056D01*
X94236Y136879D01*
X94220Y136865D01*
X94199D01*
X90547Y135352D01*
X90532Y135337D01*
X90511Y135335D01*
X87011Y133497D01*
X86997Y133481D01*
X86977Y133477D01*
X83657Y131330D01*
X83645Y131313D01*
X83625Y131307D01*
X80514Y128869D01*
X80503Y128850D01*
X80484Y128843D01*
X77605Y126133D01*
X77597Y126114D01*
X77578Y126105D01*
X74957Y123145D01*
X74950Y123126D01*
X74932Y123115D01*
X72589Y119930D01*
X72584Y119910D01*
X72567Y119898D01*
X70522Y116514D01*
X70519Y116494D01*
X70504Y116480D01*
X68773Y112925D01*
X68772Y112905D01*
X68757Y112889D01*
X67356Y109193D01*
X67356Y109172D01*
X67343Y109156D01*
X66281Y105347D01*
X66284Y105327D01*
X66273Y105309D01*
X65560Y101420D01*
X65564Y101400D01*
X65554Y101382D01*
X65389Y99564D01*
X64416Y99500D01*
X64416Y99500D01*
X64354Y99812D01*
X64177Y100077D01*
X64177Y100077D01*
X61570Y102684D01*
X61305Y102861D01*
X60993Y102923D01*
X60993Y102923D01*
Y103307D01*
X56916D01*
Y104863D01*
X60496D01*
X60603Y104757D01*
X61185Y104516D01*
X61815D01*
X62397Y104757D01*
X62843Y105203D01*
X63084Y105785D01*
Y106415D01*
X63200Y106588D01*
X63445D01*
X64027Y106829D01*
X64473Y107274D01*
X64714Y107857D01*
Y108487D01*
X64473Y109069D01*
X64027Y109515D01*
X63990Y109530D01*
Y110612D01*
X64097Y110657D01*
X64543Y111103D01*
X64784Y111685D01*
Y112315D01*
X64543Y112897D01*
X64097Y113343D01*
X63839Y113450D01*
X63780Y114508D01*
X63897Y114557D01*
X64343Y115003D01*
X64584Y115585D01*
Y116215D01*
X64343Y116797D01*
X63897Y117243D01*
X63739Y117309D01*
Y118391D01*
X63897Y118457D01*
X64343Y118903D01*
X64584Y119485D01*
Y120115D01*
X64343Y120697D01*
X63897Y121143D01*
X63315Y121384D01*
X62685D01*
X62103Y121143D01*
X61990Y121031D01*
X60993Y121024D01*
Y121024D01*
X56916D01*
Y124964D01*
X57987Y126035D01*
X73945D01*
X73945Y126035D01*
X74257Y126097D01*
X74522Y126274D01*
X90782Y142535D01*
X90782Y142535D01*
X90959Y142799D01*
X91021Y143112D01*
Y143757D01*
X91344Y144623D01*
X92644Y145097D01*
X92864Y145177D01*
X93542Y145315D01*
X94036Y145032D01*
X94194Y144780D01*
X94368Y144332D01*
X94379Y144247D01*
X94367Y144196D01*
X94327Y144047D01*
X93983Y143322D01*
X93847Y143244D01*
X93603Y143143D01*
X93157Y142697D01*
X92916Y142115D01*
Y141485D01*
X93157Y140903D01*
X93603Y140457D01*
X94185Y140216D01*
X94815D01*
X95397Y140457D01*
X95843Y140903D01*
X95962Y141191D01*
X95980Y141202D01*
X96883Y141421D01*
X97052Y141407D01*
X97203Y141257D01*
X97785Y141016D01*
X98415D01*
X98997Y141257D01*
X99443Y141703D01*
X99445Y141707D01*
X100602Y141957D01*
X100608Y141955D01*
X101185Y141716D01*
X101815Y141716D01*
X102397Y141957D01*
X102843Y142403D01*
X103084Y142985D01*
Y143615D01*
X102843Y144197D01*
X102397Y144643D01*
X101818Y144883D01*
X101815Y144884D01*
X101067Y145425D01*
X100984Y145808D01*
Y146115D01*
X100743Y146697D01*
X100365Y147075D01*
X100525Y147631D01*
X100713Y148034D01*
X102830Y148804D01*
X103699Y149120D01*
X104680Y149478D01*
X103436Y152896D01*
X103112Y153787D01*
X102731Y154600D01*
X102698Y154672D01*
X102253Y155118D01*
X101670Y155359D01*
X101040D01*
X100458Y155118D01*
X99865Y154769D01*
X99297Y155143D01*
X98715Y155384D01*
X98085D01*
X97503Y155143D01*
X97057Y154697D01*
X96816Y154115D01*
Y153485D01*
X97057Y152903D01*
X97254Y152705D01*
X97148Y151748D01*
X97066Y151586D01*
X95325Y150953D01*
Y150952D01*
X93475Y150279D01*
X94890Y146391D01*
X94289Y145461D01*
X93807Y145437D01*
X93424Y145871D01*
X93245Y146362D01*
X92013Y149747D01*
Y149747D01*
X92013Y149747D01*
X92061Y149972D01*
X92084Y150085D01*
X92084Y150715D01*
X91843Y151297D01*
X91397Y151743D01*
X90815Y151984D01*
X90481D01*
X90315Y152916D01*
X90897Y153157D01*
X91343Y153603D01*
X91584Y154185D01*
Y154815D01*
X91548Y154904D01*
X91937Y156110D01*
X92734Y156400D01*
Y156400D01*
X94196Y156932D01*
Y156932D01*
X96046Y157605D01*
Y157605D01*
X98283Y158419D01*
X98283Y158419D01*
X100133Y159093D01*
Y159093D01*
X101983Y159766D01*
X100647Y163437D01*
X101128Y164664D01*
X104522Y165852D01*
X113541Y158362D01*
D02*
G37*
G36*
X90048Y156067D02*
X90006Y156033D01*
X89974Y155989D01*
X89951Y155936D01*
X89937Y155873D01*
X89933Y155801D01*
X89937Y155730D01*
X89948Y155717D01*
X89992Y155670D01*
X90045Y155622D01*
X90105Y155575D01*
X90175Y155527D01*
X90338Y155432D01*
X90431Y155385D01*
X89124Y154949D01*
X89170Y155043D01*
X89244Y155217D01*
X89271Y155297D01*
X89291Y155371D01*
X89305Y155440D01*
X89312Y155505D01*
X89312Y155522D01*
X89285Y155566D01*
X89242Y155620D01*
X89198Y155662D01*
X89153Y155690D01*
X89108Y155705D01*
X89060Y155708D01*
X89012Y155696D01*
X90100Y156092D01*
X90048Y156067D01*
D02*
G37*
G36*
X88105Y154272D02*
X88416Y154185D01*
X88657Y153603D01*
X89103Y153157D01*
X89685Y152916D01*
X90020D01*
X90185Y151984D01*
X89603Y151743D01*
X89157Y151297D01*
X88916Y150715D01*
Y150085D01*
X89060Y149736D01*
X88876Y148908D01*
X88703Y148542D01*
X87926Y148259D01*
X87057Y147943D01*
X86076Y147586D01*
X85207Y147270D01*
X84226Y146913D01*
X83357Y146597D01*
X82376Y146240D01*
X81507Y145923D01*
X80527Y145566D01*
X82095Y141257D01*
X81762Y140347D01*
X81104Y139689D01*
X80113Y140113D01*
X80123Y140539D01*
X80633Y140725D01*
X79065Y145034D01*
X76827Y144220D01*
X75958Y143904D01*
X74977Y143547D01*
X76546Y139237D01*
Y139237D01*
X76546D01*
X76044Y138398D01*
X70662Y133016D01*
X55969D01*
X55969Y133016D01*
X55656Y132954D01*
X55392Y132777D01*
X55392Y132777D01*
X50623Y128008D01*
X50446Y127743D01*
X50384Y127431D01*
X50384Y127431D01*
Y122008D01*
X45816D01*
Y121049D01*
X41502D01*
X41190Y120987D01*
X40925Y120810D01*
X40925Y120810D01*
X34702Y114587D01*
X34670Y114538D01*
X34278Y114800D01*
X33794Y114896D01*
X32515D01*
X32031Y114800D01*
X31621Y114526D01*
X31347Y114116D01*
X31251Y113632D01*
Y111368D01*
X31347Y110884D01*
X31621Y110474D01*
X31931Y110267D01*
Y106633D01*
X31621Y106426D01*
X31347Y106016D01*
X31251Y105532D01*
Y103268D01*
X31347Y102784D01*
X31621Y102374D01*
X31931Y102167D01*
Y101133D01*
X31621Y100926D01*
X31347Y100516D01*
X31251Y100032D01*
Y97768D01*
X31319Y97423D01*
X31178Y97053D01*
X30803Y96539D01*
X29797D01*
X29422Y97053D01*
X29281Y97423D01*
X29349Y97768D01*
Y100032D01*
X29253Y100516D01*
X28979Y100926D01*
X28706Y101108D01*
X28631Y101650D01*
X28706Y102192D01*
X28979Y102374D01*
X29253Y102784D01*
X29349Y103268D01*
Y105532D01*
X29253Y106016D01*
X28979Y106426D01*
X28569Y106700D01*
X28085Y106796D01*
X26806D01*
X26322Y106700D01*
X25912Y106426D01*
X25638Y106016D01*
X25464Y105923D01*
X25315Y105984D01*
X24685D01*
X24103Y105743D01*
X23657Y105297D01*
X23416Y104715D01*
Y104085D01*
X23657Y103503D01*
X24103Y103057D01*
X24685Y102816D01*
X25315D01*
X25464Y102877D01*
X25638Y102784D01*
X25912Y102374D01*
X26185Y102192D01*
X26260Y101650D01*
X26185Y101108D01*
X25912Y100926D01*
X25638Y100516D01*
X25508Y100446D01*
X25415Y100484D01*
X24785D01*
X24203Y100243D01*
X23907Y99948D01*
X23186Y99971D01*
X22795Y100089D01*
X21649Y103312D01*
Y106100D01*
X21459Y106559D01*
X21000Y106749D01*
X17200D01*
X16741Y106559D01*
X16551Y106100D01*
Y103332D01*
X14602Y98754D01*
X14601Y98622D01*
X14551Y98500D01*
Y94200D01*
X14741Y93741D01*
X15241Y93241D01*
X15700Y93051D01*
X21300D01*
X21759Y93241D01*
X23444Y94926D01*
X24035Y94335D01*
X24432Y94070D01*
X24900Y93976D01*
X26610D01*
X26708Y92976D01*
X26322Y92900D01*
X25912Y92626D01*
X25638Y92216D01*
X25420Y92099D01*
X25215Y92184D01*
X24585D01*
X24003Y91943D01*
X23557Y91497D01*
X23316Y90915D01*
Y90285D01*
X23557Y89703D01*
X24003Y89257D01*
X24585Y89016D01*
X25215D01*
X25420Y89101D01*
X25638Y88984D01*
X25912Y88574D01*
X26322Y88300D01*
X26806Y88204D01*
X28085D01*
X28569Y88300D01*
X28979Y88574D01*
X29253Y88984D01*
X29349Y89468D01*
Y91732D01*
X29253Y92216D01*
X28979Y92626D01*
X28569Y92900D01*
X28183Y92976D01*
X28282Y93976D01*
X31931D01*
Y92833D01*
X31621Y92626D01*
X31347Y92216D01*
X31251Y91732D01*
Y89468D01*
X31347Y88984D01*
X31621Y88574D01*
X32031Y88300D01*
X32515Y88204D01*
X32899D01*
X33219Y87650D01*
X32899Y87096D01*
X32515D01*
X32031Y87000D01*
X31621Y86726D01*
X31347Y86316D01*
X31251Y85832D01*
Y83568D01*
X30804Y82817D01*
X30489Y82662D01*
X30203Y82543D01*
X30097Y82590D01*
X29253Y83084D01*
X29349Y83568D01*
Y85832D01*
X29253Y86316D01*
X28979Y86726D01*
X28569Y87000D01*
X28085Y87096D01*
X26806D01*
X26322Y87000D01*
X25912Y86726D01*
X25638Y86316D01*
X25542Y85832D01*
Y83568D01*
X25638Y83084D01*
X25912Y82674D01*
X26322Y82400D01*
X26630Y81954D01*
X26692Y81642D01*
X26869Y81378D01*
X27623Y80623D01*
X27623Y80623D01*
X27888Y80446D01*
X28200Y80384D01*
X28200Y80384D01*
X29723D01*
X29757Y80303D01*
X30203Y79857D01*
X30785Y79616D01*
X31302D01*
X31346Y79559D01*
X31621Y78626D01*
X31347Y78216D01*
X31251Y77732D01*
Y76598D01*
X30427Y75952D01*
X29516Y76149D01*
X29349Y76608D01*
Y77732D01*
X29253Y78216D01*
X28979Y78626D01*
X28569Y78900D01*
X28085Y78996D01*
X26806D01*
X26322Y78900D01*
X25912Y78626D01*
X25638Y78216D01*
X25542Y77732D01*
Y75468D01*
X25638Y74984D01*
X25912Y74574D01*
X26322Y74300D01*
X26806Y74204D01*
X27371D01*
X27412Y74096D01*
X26829Y73135D01*
X26723Y73080D01*
X26322Y73000D01*
X25996Y72782D01*
X25837Y72735D01*
X24821Y72859D01*
X23621Y74321D01*
X22159Y75521D01*
X20492Y76412D01*
X18682Y76961D01*
X16800Y77147D01*
X14918Y76961D01*
X13108Y76412D01*
X11441Y75521D01*
X9979Y74321D01*
X8779Y72859D01*
X7888Y71192D01*
X7339Y69382D01*
X7153Y67500D01*
X7339Y65618D01*
X7888Y63809D01*
X8779Y62141D01*
X9979Y60679D01*
X11441Y59479D01*
X13108Y58588D01*
X14918Y58039D01*
X16800Y57854D01*
X18682Y58039D01*
X20492Y58588D01*
X22159Y59479D01*
X23621Y60679D01*
X24542Y61801D01*
X25079Y61730D01*
X25578Y61487D01*
X25638Y61184D01*
X25912Y60774D01*
X26322Y60500D01*
X26686Y60428D01*
X26823Y60223D01*
X27223Y59823D01*
X27223Y59823D01*
X27488Y59646D01*
X27800Y59584D01*
X27800Y59584D01*
X29023D01*
X29057Y59503D01*
X29503Y59057D01*
X29832Y58921D01*
X30113Y58756D01*
X30554Y57816D01*
X30545Y57770D01*
Y54030D01*
X30676Y53373D01*
X31047Y52817D01*
X31604Y52445D01*
X32261Y52314D01*
X34426D01*
X35083Y52445D01*
X35494Y52720D01*
X67807Y20407D01*
X67807Y20407D01*
X68171Y20164D01*
X68600Y20078D01*
X68600Y20078D01*
X118500D01*
X118500Y20078D01*
X118929Y20164D01*
X119293Y20407D01*
X123693Y24807D01*
X123936Y25171D01*
X124022Y25600D01*
X124022Y25600D01*
Y47135D01*
X129065Y52178D01*
X132100D01*
X132100Y52178D01*
X132529Y52264D01*
X132893Y52507D01*
X150527Y70141D01*
X151451Y69758D01*
Y51229D01*
X151500Y51110D01*
Y50981D01*
X151591Y50760D01*
X151683Y50669D01*
X151732Y50549D01*
X151823Y50458D01*
X151823Y50458D01*
X152926Y49355D01*
X152926Y49355D01*
X156508Y45773D01*
X156508Y45773D01*
X156490Y45693D01*
X156018Y44849D01*
X152000D01*
X151812Y44772D01*
X151615Y44723D01*
X145542Y40248D01*
X144649Y40699D01*
Y45031D01*
X148659Y49041D01*
X148849Y49500D01*
Y51900D01*
X148659Y52359D01*
X148200Y52549D01*
X140700D01*
X140241Y52359D01*
X137731Y49849D01*
X134400D01*
X133941Y49659D01*
X133751Y49200D01*
Y45461D01*
X132855Y44952D01*
X132073Y45319D01*
X131791Y45984D01*
X131802Y46039D01*
Y47024D01*
X131718Y47450D01*
X131476Y47811D01*
X131115Y48052D01*
X130689Y48137D01*
X129311D01*
X128885Y48052D01*
X128524Y47811D01*
X128350Y47551D01*
X127431D01*
X127041Y47473D01*
X126710Y47253D01*
X125779Y46321D01*
X125558Y45990D01*
X125480Y45600D01*
Y38500D01*
X125558Y38110D01*
X125779Y37779D01*
X126558Y37000D01*
X125779Y36221D01*
X125558Y35890D01*
X125480Y35500D01*
Y28000D01*
X125558Y27610D01*
X125779Y27279D01*
X127279Y25779D01*
X127610Y25558D01*
X127991Y25482D01*
X128011Y25385D01*
X128252Y25024D01*
X128613Y24782D01*
X129039Y24698D01*
X129092D01*
X130016Y24415D01*
Y23785D01*
X130257Y23203D01*
X130703Y22757D01*
X130987Y22639D01*
X131238Y21762D01*
X131225Y21541D01*
X131079Y21421D01*
X129879Y19959D01*
X128988Y18292D01*
X128439Y16482D01*
X128253Y14600D01*
X128439Y12718D01*
X128988Y10909D01*
X129879Y9241D01*
X131079Y7779D01*
X132541Y6579D01*
X134209Y5688D01*
X135719Y5229D01*
X135707Y4188D01*
X131978Y3148D01*
X126365Y1943D01*
X122778Y1398D01*
X121790Y1259D01*
X120836Y1165D01*
X119427Y1304D01*
X118072Y1715D01*
X116823Y2383D01*
X115728Y3281D01*
X115352Y3739D01*
X114760Y4505D01*
X114694Y4613D01*
X113878Y5608D01*
X112883Y6424D01*
X111748Y7031D01*
X110516Y7405D01*
X109236Y7531D01*
X107955Y7405D01*
X106723Y7031D01*
X105588Y6424D01*
X104594Y5608D01*
X103777Y4613D01*
X103711Y4505D01*
X103119Y3740D01*
X102745Y3284D01*
X101649Y2385D01*
X100398Y1716D01*
X99041Y1304D01*
X97630Y1166D01*
X96677Y1259D01*
X95689Y1398D01*
X92110Y1942D01*
X86497Y3148D01*
X80966Y4689D01*
X75538Y6562D01*
X70234Y8759D01*
X65072Y11273D01*
X60071Y14093D01*
X55250Y17210D01*
X50625Y20613D01*
X46215Y24289D01*
X42034Y28224D01*
X38099Y32405D01*
X34423Y36815D01*
X31020Y41440D01*
X27903Y46261D01*
X26639Y48502D01*
X26639Y48503D01*
X26311Y49018D01*
X26098Y49278D01*
X26097Y49278D01*
X26066Y49317D01*
X25247Y50314D01*
X23951Y51378D01*
X22472Y52169D01*
X20867Y52655D01*
X19207Y52819D01*
X19206Y52791D01*
X9022D01*
X5677Y52794D01*
X4715Y52803D01*
D01*
X3770Y52936D01*
X2944Y53278D01*
X2209Y53842D01*
X1645Y54577D01*
X1302Y55405D01*
X1170Y56351D01*
D01*
X1163Y57313D01*
X1187Y117427D01*
X1541Y118351D01*
X32700D01*
X33159Y118541D01*
X67520Y152901D01*
X71373Y154250D01*
X72280Y153835D01*
X72386Y153545D01*
X73656Y150054D01*
X73516Y149715D01*
Y149085D01*
X73757Y148503D01*
X74203Y148057D01*
X74785Y147816D01*
X75415D01*
X76081Y147881D01*
X76357Y147303D01*
X76803Y146857D01*
X77385Y146616D01*
X78015D01*
X78597Y146857D01*
X79043Y147303D01*
X79284Y147885D01*
Y148154D01*
X80284Y148475D01*
X80503Y148257D01*
X81085Y148016D01*
X81715D01*
X82297Y148257D01*
X82743Y148703D01*
X82984Y149285D01*
Y149915D01*
X82743Y150497D01*
X82297Y150943D01*
X82030Y152075D01*
X82314Y152607D01*
X83485Y153033D01*
X84947Y153565D01*
X84947Y153565D01*
X84947Y153565D01*
X87185Y154380D01*
X88105Y154272D01*
D02*
G37*
G36*
X102257Y153361D02*
X102211Y153180D01*
X102197Y153098D01*
X102189Y153022D01*
X102188Y152963D01*
X102199Y152953D01*
X102257Y152917D01*
X102315Y152892D01*
X102372Y152881D01*
X102430Y152882D01*
X102487Y152895D01*
X102210Y152799D01*
X102216Y152777D01*
X102238Y152730D01*
X101702Y152459D01*
X101674Y152501D01*
X101638Y152542D01*
X101595Y152582D01*
X101543Y152621D01*
X101482Y152659D01*
X101414Y152696D01*
X101338Y152733D01*
X101161Y152802D01*
X101060Y152836D01*
X101732Y153178D01*
X101906Y153327D01*
X101934Y153280D01*
X102288Y153461D01*
X102257Y153361D01*
D02*
G37*
G36*
X99382Y153664D02*
X99391Y153476D01*
X99401Y153394D01*
X99415Y153318D01*
X99432Y153250D01*
X99454Y153189D01*
X99480Y153136D01*
X99509Y153089D01*
X99543Y153051D01*
X99108Y152636D01*
X99070Y152669D01*
X99024Y152699D01*
X98971Y152725D01*
X98910Y152748D01*
X98842Y152768D01*
X98766Y152784D01*
X98683Y152797D01*
X98494Y152813D01*
X98388Y152816D01*
X99384Y153768D01*
X99382Y153664D01*
D02*
G37*
G36*
X78956Y152030D02*
X78920Y151997D01*
X78893Y151956D01*
X78875Y151905D01*
X78868Y151856D01*
X78908Y151823D01*
X78970Y151778D01*
X79041Y151733D01*
X79207Y151643D01*
X79302Y151598D01*
X78939Y151464D01*
X78961Y151399D01*
X78397Y151194D01*
X78373Y151254D01*
X78010Y151120D01*
X78053Y151216D01*
X78121Y151392D01*
X78145Y151472D01*
X78163Y151547D01*
X78170Y151593D01*
X78123Y151631D01*
X78073Y151657D01*
X78021Y151670D01*
X77968Y151670D01*
X77914Y151657D01*
X78176Y151752D01*
X78170Y151795D01*
X78156Y151844D01*
X78719Y152052D01*
X78740Y152006D01*
X78765Y151967D01*
X79001Y152052D01*
X78956Y152030D01*
D02*
G37*
G36*
X100093Y152504D02*
X100176Y152434D01*
X100256Y152375D01*
X100333Y152326D01*
X100409Y152289D01*
X100481Y152262D01*
X100552Y152246D01*
X100619Y152241D01*
X100685Y152246D01*
X100748Y152262D01*
X99809Y151933D01*
X99805Y151938D01*
X99603Y152142D01*
X99386Y152358D01*
X100008Y152585D01*
X100093Y152504D01*
D02*
G37*
G36*
X80801Y152701D02*
X80761Y152667D01*
X80730Y152624D01*
X80710Y152572D01*
X80699Y152511D01*
X80698Y152440D01*
X80706Y152360D01*
X80724Y152271D01*
X80752Y152173D01*
X80790Y152065D01*
X80226Y151860D01*
X80183Y151965D01*
X80139Y152058D01*
X80095Y152138D01*
X80050Y152204D01*
X80004Y152258D01*
X79957Y152298D01*
X79910Y152326D01*
X79862Y152340D01*
X79813Y152342D01*
X79764Y152330D01*
X80851Y152726D01*
X80801Y152701D01*
D02*
G37*
G36*
X166350Y152485D02*
X166274Y152478D01*
X166206Y152455D01*
X166146Y152415D01*
X166094Y152358D01*
X166050Y152285D01*
X166014Y152196D01*
X165986Y152090D01*
X165966Y151968D01*
X165954Y151829D01*
X165950Y151673D01*
X165150D01*
X165146Y151831D01*
X165134Y151972D01*
X165114Y152097D01*
X165086Y152206D01*
X165051Y152297D01*
X165007Y152373D01*
X164955Y152432D01*
X164895Y152474D01*
X164828Y152500D01*
X164752Y152509D01*
X166350Y152485D01*
D02*
G37*
G36*
X77094Y151340D02*
X77052Y151306D01*
X77020Y151264D01*
X76998Y151212D01*
X76986Y151152D01*
X76983Y151082D01*
X76991Y151003D01*
X77008Y150915D01*
X77035Y150818D01*
X77072Y150712D01*
X76508Y150507D01*
X76465Y150612D01*
X76379Y150785D01*
X76335Y150852D01*
X76291Y150907D01*
X76246Y150948D01*
X76201Y150976D01*
X76156Y150991D01*
X76110Y150994D01*
X76064Y150984D01*
X77146Y151365D01*
X77094Y151340D01*
D02*
G37*
G36*
X165950Y150710D02*
X165952Y150649D01*
X165960Y150588D01*
X165971Y150527D01*
X165988Y150466D01*
X166009Y150404D01*
X166036Y150342D01*
X166067Y150279D01*
X166102Y150216D01*
X166143Y150153D01*
X166188Y150090D01*
X164826Y150300D01*
X164888Y150347D01*
X164943Y150396D01*
X164991Y150446D01*
X165033Y150499D01*
X165069Y150552D01*
X165098Y150608D01*
X165121Y150665D01*
X165137Y150724D01*
X165147Y150784D01*
X165150Y150846D01*
X165950Y150710D01*
D02*
G37*
G36*
X81232Y150905D02*
X81262Y150859D01*
X81300Y150814D01*
X81346Y150768D01*
X81400Y150723D01*
X81463Y150678D01*
X81534Y150634D01*
X81700Y150545D01*
X81796Y150501D01*
X80507Y150014D01*
X80550Y150110D01*
X80616Y150287D01*
X80640Y150367D01*
X80657Y150442D01*
X80668Y150512D01*
X80673Y150577D01*
X80671Y150636D01*
X80663Y150690D01*
X80649Y150739D01*
X81210Y150951D01*
X81232Y150905D01*
D02*
G37*
G36*
X74983Y150711D02*
X75011Y150664D01*
X75048Y150617D01*
X75057Y150607D01*
X75302Y150693D01*
X75250Y150669D01*
X75207Y150635D01*
X75174Y150592D01*
X75150Y150540D01*
X75146Y150521D01*
X75205Y150475D01*
X75275Y150427D01*
X75437Y150332D01*
X75531Y150285D01*
X75167Y150163D01*
X75173Y150140D01*
X75205Y150033D01*
X74641Y149827D01*
X74603Y149935D01*
X74587Y149970D01*
X74224Y149849D01*
X74270Y149943D01*
X74344Y150117D01*
X74371Y150197D01*
X74391Y150271D01*
X74392Y150277D01*
X74352Y150303D01*
X74307Y150319D01*
X74261Y150321D01*
X74214Y150310D01*
X74409Y150379D01*
X74412Y150405D01*
X74413Y150464D01*
X74407Y150519D01*
X74395Y150568D01*
X74964Y150758D01*
X74983Y150711D01*
D02*
G37*
G36*
X77532Y149505D02*
X77562Y149459D01*
X77600Y149414D01*
X77646Y149368D01*
X77700Y149323D01*
X77763Y149278D01*
X77834Y149234D01*
X78000Y149145D01*
X78096Y149101D01*
X76807Y148614D01*
X76850Y148710D01*
X76916Y148887D01*
X76940Y148967D01*
X76957Y149042D01*
X76968Y149112D01*
X76973Y149177D01*
X76971Y149236D01*
X76963Y149290D01*
X76949Y149339D01*
X77510Y149551D01*
X77532Y149505D01*
D02*
G37*
G36*
X91349Y149888D02*
X91282Y149711D01*
X91258Y149631D01*
X91241Y149556D01*
X91230Y149486D01*
X91225Y149421D01*
X91226Y149362D01*
X91234Y149309D01*
X91269Y149234D01*
X91313Y149154D01*
X91359Y149088D01*
X91405Y149034D01*
X91451Y148994D01*
X91499Y148966D01*
X91548Y148952D01*
X91597Y148951D01*
X91647Y148963D01*
X90560Y148567D01*
X90609Y148591D01*
X90649Y148625D01*
X90679Y148668D01*
X90699Y148720D01*
X90710Y148781D01*
X90711Y148852D01*
X90703Y148932D01*
X90684Y149021D01*
X90663Y149098D01*
X90635Y149140D01*
X90597Y149186D01*
X90551Y149232D01*
X90497Y149277D01*
X90434Y149322D01*
X90364Y149367D01*
X90197Y149456D01*
X90102Y149500D01*
X91392Y149984D01*
X91349Y149888D01*
D02*
G37*
G36*
X98231Y151670D02*
X98286Y151623D01*
X98340Y151583D01*
X98392Y151550D01*
X98442Y151525D01*
X98491Y151506D01*
X98537Y151495D01*
X98563Y151493D01*
X98664Y151646D01*
X99202Y151669D01*
X99283Y151588D01*
X100425Y148452D01*
X99821Y147545D01*
X99112Y147529D01*
X99101Y147540D01*
X97981Y150616D01*
X98542Y151462D01*
X97959Y151260D01*
X97972Y151269D01*
X97978Y151282D01*
X97976Y151301D01*
X97967Y151325D01*
X97951Y151353D01*
X97927Y151387D01*
X97896Y151426D01*
X97812Y151519D01*
X97759Y151573D01*
X98174Y151724D01*
X98231Y151670D01*
D02*
G37*
G36*
X98219Y147786D02*
X98192Y147764D01*
X98175Y147738D01*
X98167Y147707D01*
X98170Y147672D01*
X98183Y147633D01*
X98206Y147590D01*
X98239Y147542D01*
X98283Y147490D01*
X98336Y147434D01*
X97922Y147283D01*
X97864Y147338D01*
X97808Y147385D01*
X97754Y147425D01*
X97702Y147458D01*
X97652Y147484D01*
X97603Y147502D01*
X97557Y147513D01*
X97512Y147516D01*
X97469Y147513D01*
X97427Y147502D01*
X98257Y147803D01*
X98219Y147786D01*
D02*
G37*
G36*
X96359Y147109D02*
X96325Y147084D01*
X96296Y147053D01*
X96271Y147015D01*
X96249Y146970D01*
X96231Y146918D01*
X96218Y146859D01*
X96208Y146794D01*
X96202Y146721D01*
X96200Y146642D01*
X95800Y146497D01*
X95798Y146574D01*
X95792Y146642D01*
X95782Y146701D01*
X95767Y146749D01*
X95749Y146788D01*
X95727Y146817D01*
X95700Y146836D01*
X95669Y146845D01*
X95635Y146845D01*
X95596Y146835D01*
X96396Y147126D01*
X96359Y147109D01*
D02*
G37*
G36*
X98795Y146981D02*
X98832Y146962D01*
X98882Y146941D01*
X98944Y146920D01*
X99109Y146873D01*
X99594Y146765D01*
X98439Y146013D01*
X98463Y146131D01*
X98503Y146431D01*
X98505Y146512D01*
X98501Y146583D01*
X98491Y146646D01*
X98475Y146699D01*
X98454Y146742D01*
X98428Y146777D01*
X98772Y146998D01*
X98795Y146981D01*
D02*
G37*
G36*
X96205Y145919D02*
X96220Y145875D01*
X96244Y145825D01*
X96278Y145769D01*
X96322Y145706D01*
X96440Y145563D01*
X96596Y145396D01*
X96689Y145303D01*
X95311D01*
X95404Y145396D01*
X95678Y145706D01*
X95722Y145769D01*
X95756Y145825D01*
X95780Y145875D01*
X95795Y145919D01*
X95800Y145957D01*
X96200D01*
X96205Y145919D01*
D02*
G37*
G36*
X90564Y144999D02*
X90531Y144974D01*
X90502Y144942D01*
X90476Y144904D01*
X90455Y144859D01*
X90437Y144807D01*
X90423Y144749D01*
X90414Y144684D01*
X90408Y144612D01*
X90406Y144533D01*
X90006Y144388D01*
X90004Y144463D01*
X89993Y144587D01*
X89982Y144635D01*
X89969Y144674D01*
X89953Y144705D01*
X89934Y144726D01*
X89912Y144738D01*
X89888Y144741D01*
X89860Y144735D01*
X90602Y145017D01*
X90564Y144999D01*
D02*
G37*
G36*
X88659Y144305D02*
X88625Y144280D01*
X88596Y144249D01*
X88570Y144210D01*
X88549Y144165D01*
X88531Y144114D01*
X88518Y144055D01*
X88508Y143990D01*
X88502Y143918D01*
X88500Y143840D01*
X88100Y143694D01*
X88099Y143770D01*
X88086Y143945D01*
X88077Y143986D01*
X88068Y144018D01*
X88056Y144042D01*
X88042Y144057D01*
X88027Y144064D01*
X88010Y144061D01*
X88696Y144324D01*
X88659Y144305D01*
D02*
G37*
G36*
X86859Y143650D02*
X86825Y143625D01*
X86796Y143594D01*
X86770Y143555D01*
X86749Y143510D01*
X86731Y143458D01*
X86718Y143400D01*
X86708Y143335D01*
X86702Y143263D01*
X86700Y143184D01*
X86300Y143039D01*
X86299Y143114D01*
X86287Y143238D01*
X86278Y143287D01*
X86265Y143326D01*
X86250Y143357D01*
X86232Y143378D01*
X86211Y143390D01*
X86187Y143394D01*
X86160Y143388D01*
X86896Y143669D01*
X86859Y143650D01*
D02*
G37*
G36*
X84804Y142882D02*
X84765Y142908D01*
X84731Y142918D01*
X84700Y142912D01*
X84674Y142890D01*
X84651Y142852D01*
X84633Y142798D01*
X84618Y142727D01*
X84608Y142641D01*
X84602Y142539D01*
X84600Y142420D01*
X84200Y142619D01*
X84198Y142766D01*
X84166Y143139D01*
X84147Y143239D01*
X84124Y143328D01*
X84096Y143405D01*
X84065Y143470D01*
X84029Y143523D01*
X83989Y143564D01*
X84804Y142882D01*
D02*
G37*
G36*
X83528Y142426D02*
X83515Y142410D01*
X83511Y142389D01*
X83515Y142363D01*
X83526Y142333D01*
X83547Y142298D01*
X83575Y142258D01*
X83611Y142213D01*
X83708Y142110D01*
X83293Y141959D01*
X83239Y142010D01*
X83185Y142055D01*
X83133Y142092D01*
X83083Y142123D01*
X83034Y142146D01*
X82986Y142162D01*
X82939Y142171D01*
X82894Y142173D01*
X82850Y142167D01*
X82807Y142155D01*
X83548Y142437D01*
X83528Y142426D01*
D02*
G37*
G36*
X170379Y141519D02*
X170345Y141507D01*
X170315Y141487D01*
X170289Y141459D01*
X170267Y141423D01*
X170249Y141379D01*
X170235Y141327D01*
X170225Y141267D01*
X170219Y141199D01*
X170217Y141123D01*
X169897D01*
X170101Y140918D01*
X170078Y140888D01*
X170057Y140846D01*
X170039Y140794D01*
X170023Y140730D01*
X170010Y140654D01*
X169992Y140470D01*
X169984Y140241D01*
X169984Y140110D01*
X169010Y141084D01*
X169141Y141084D01*
X169554Y141110D01*
X169630Y141123D01*
X169694Y141139D01*
X169746Y141157D01*
X169788Y141178D01*
X169815Y141199D01*
Y141199D01*
X169809Y141267D01*
X169799Y141327D01*
X169785Y141379D01*
X169767Y141423D01*
X169745Y141459D01*
X169719Y141487D01*
X169689Y141507D01*
X169655Y141519D01*
X169617Y141523D01*
X170417D01*
X170379Y141519D01*
D02*
G37*
G36*
X79233Y140879D02*
X79196Y140907D01*
X79162Y140917D01*
X79133Y140910D01*
X79107Y140887D01*
X79086Y140847D01*
X79068Y140790D01*
X79054Y140717D01*
X79045Y140626D01*
X79039Y140519D01*
X79037Y140395D01*
X78637Y140637D01*
X78635Y140787D01*
X78607Y141165D01*
X78590Y141266D01*
X78569Y141356D01*
X78544Y141433D01*
X78516Y141497D01*
X78484Y141550D01*
X78448Y141590D01*
X79233Y140879D01*
D02*
G37*
G36*
X77920Y140372D02*
X77894Y140352D01*
X77877Y140327D01*
X77870Y140298D01*
X77872Y140266D01*
X77884Y140229D01*
X77906Y140188D01*
X77937Y140143D01*
X77977Y140095D01*
X78027Y140042D01*
X77612Y139891D01*
X77558Y139942D01*
X77505Y139986D01*
X77454Y140024D01*
X77403Y140054D01*
X77354Y140077D01*
X77306Y140093D01*
X77259Y140102D01*
X77214Y140104D01*
X77169Y140099D01*
X77126Y140087D01*
X77956Y140389D01*
X77920Y140372D01*
D02*
G37*
G36*
X175250Y144031D02*
Y139669D01*
X170873Y135292D01*
X169911Y135743D01*
X169759Y136109D01*
X169300Y136299D01*
X153749D01*
Y141231D01*
X155869Y143351D01*
X163700D01*
X163728Y143332D01*
Y140950D01*
X167058D01*
X167416Y140415D01*
Y139785D01*
X167657Y139203D01*
X168103Y138757D01*
X168685Y138516D01*
X169315D01*
X169897Y138757D01*
X170343Y139203D01*
X170584Y139785D01*
Y140415D01*
X171443Y140911D01*
X172074D01*
Y143371D01*
X168472D01*
Y145532D01*
X168500Y145551D01*
X173731D01*
X175250Y144031D01*
D02*
G37*
G36*
X99082Y189550D02*
X100438Y189139D01*
X101687Y188471D01*
X102783Y187572D01*
X103439Y186773D01*
X103731Y186383D01*
X103779Y186298D01*
X104026Y185997D01*
X104595Y185304D01*
X105589Y184488D01*
X106723Y183882D01*
X107954Y183509D01*
X109234Y183383D01*
X110513Y183509D01*
X111744Y183882D01*
X112878Y184488D01*
X113872Y185304D01*
X114440Y185996D01*
X114688Y186298D01*
X114735Y186383D01*
X115029Y186772D01*
X115683Y187569D01*
X116779Y188469D01*
X118030Y189137D01*
X119388Y189549D01*
X120800Y189688D01*
X121748Y189595D01*
X121748Y189595D01*
Y189595D01*
X121762Y189606D01*
X126365Y188905D01*
X131978Y187700D01*
X137080Y186278D01*
X137036Y185771D01*
X135918Y185661D01*
X134108Y185112D01*
X132441Y184221D01*
X130979Y183021D01*
X129779Y181559D01*
X128888Y179892D01*
X128339Y178082D01*
X128154Y176200D01*
X128339Y174318D01*
X128888Y172509D01*
X129779Y170841D01*
X130979Y169379D01*
X132441Y168179D01*
X134108Y167288D01*
X135918Y166739D01*
X137800Y166553D01*
X139682Y166739D01*
X141491Y167288D01*
X143159Y168179D01*
X144621Y169379D01*
X145821Y170841D01*
X146712Y172509D01*
X147261Y174318D01*
X147447Y176200D01*
X147261Y178082D01*
X146712Y179892D01*
X145821Y181559D01*
X144621Y183021D01*
X144545Y183084D01*
X144802Y183513D01*
X148238Y182089D01*
X151630Y180438D01*
X151785Y179962D01*
X128143Y135210D01*
X125489Y136403D01*
X125469Y136404D01*
X125453Y136417D01*
X121715Y137706D01*
X121694Y137704D01*
X121677Y137717D01*
X117839Y138661D01*
X117818Y138658D01*
X117800Y138669D01*
X114190Y139217D01*
Y158667D01*
X104654Y166587D01*
X67165Y153465D01*
X32700Y119000D01*
X1541D01*
X1188Y119354D01*
X1194Y134567D01*
X1201Y134567D01*
X1201Y134570D01*
X1322Y135489D01*
X1677Y136345D01*
X2241Y137080D01*
X2976Y137644D01*
X3832Y137998D01*
X4750Y138119D01*
X4756Y138118D01*
X4756Y138126D01*
X4757Y138127D01*
X19233Y138115D01*
X19233Y138087D01*
Y138086D01*
X19237Y138086D01*
X19719Y138133D01*
X19725Y138134D01*
X19727Y138134D01*
X20903Y138250D01*
X22505Y138736D01*
X23981Y139525D01*
X25275Y140587D01*
X26337Y141881D01*
X26604Y142381D01*
X26666Y142399D01*
X26666D01*
X27898Y144583D01*
X31016Y149405D01*
X34419Y154030D01*
X38095Y158441D01*
X42031Y162622D01*
X46212Y166558D01*
X50623Y170234D01*
X55247Y173637D01*
X60069Y176754D01*
X65071Y179575D01*
X70233Y182089D01*
X75538Y184286D01*
X80966Y186159D01*
X86497Y187701D01*
X92111Y188906D01*
X96224Y189532D01*
X96720Y189595D01*
X97672Y189689D01*
X99082Y189550D01*
D02*
G37*
G36*
X179398Y132101D02*
X181048D01*
X180935Y132088D01*
X180833Y132050D01*
X180743Y131986D01*
X180666Y131897D01*
X180600Y131782D01*
X180546Y131642D01*
X180504Y131476D01*
X180474Y131285D01*
X180456Y131069D01*
X180450Y130826D01*
X179943D01*
X180093Y130674D01*
X180450D01*
X180456Y130431D01*
X180468Y130290D01*
X180524Y130233D01*
X180510Y130214D01*
X180498Y130189D01*
X180487Y130158D01*
X180484Y130150D01*
X180504Y130024D01*
X180546Y129858D01*
X180600Y129718D01*
X180666Y129603D01*
X180743Y129514D01*
X180833Y129450D01*
X180935Y129412D01*
X181048Y129399D01*
X178653D01*
X178766Y129412D01*
X178868Y129450D01*
X178957Y129514D01*
X179035Y129603D01*
X179101Y129718D01*
X179155Y129858D01*
X179197Y130024D01*
X179204Y130071D01*
X179200Y130082D01*
X179185Y130115D01*
X179167Y130142D01*
X179148Y130163D01*
X179229Y130245D01*
X179244Y130431D01*
X179250Y130674D01*
X179649D01*
X179798Y130826D01*
X179250D01*
X179244Y131069D01*
X179227Y131285D01*
X179197Y131476D01*
X179159Y131626D01*
X179148Y131637D01*
X179154Y131644D01*
X179101Y131782D01*
X179035Y131897D01*
X178957Y131986D01*
X178868Y132050D01*
X178766Y132088D01*
X178653Y132101D01*
X179250D01*
X179250Y132110D01*
X179398Y132101D01*
D02*
G37*
G36*
X169300Y127050D02*
X169200Y127150D01*
X153600D01*
Y135650D01*
X169300D01*
Y127050D01*
D02*
G37*
G36*
X179398Y125601D02*
X181048D01*
X180935Y125588D01*
X180833Y125550D01*
X180743Y125486D01*
X180666Y125397D01*
X180600Y125282D01*
X180546Y125142D01*
X180504Y124976D01*
X180474Y124785D01*
X180456Y124568D01*
X180450Y124326D01*
X179943D01*
X180093Y124174D01*
X180450D01*
X180456Y123932D01*
X180468Y123790D01*
X180524Y123733D01*
X180510Y123714D01*
X180498Y123689D01*
X180487Y123658D01*
X180484Y123650D01*
X180504Y123524D01*
X180546Y123358D01*
X180600Y123218D01*
X180666Y123103D01*
X180743Y123014D01*
X180833Y122950D01*
X180935Y122912D01*
X181048Y122899D01*
X178653D01*
X178766Y122912D01*
X178868Y122950D01*
X178957Y123014D01*
X179035Y123103D01*
X179101Y123218D01*
X179155Y123358D01*
X179197Y123524D01*
X179204Y123571D01*
X179200Y123582D01*
X179185Y123615D01*
X179167Y123642D01*
X179148Y123663D01*
X179229Y123746D01*
X179244Y123932D01*
X179250Y124174D01*
X179649D01*
X179798Y124326D01*
X179250D01*
X179244Y124568D01*
X179227Y124785D01*
X179197Y124976D01*
X179159Y125126D01*
X179148Y125137D01*
X179154Y125144D01*
X179101Y125282D01*
X179035Y125397D01*
X178957Y125486D01*
X178868Y125550D01*
X178766Y125588D01*
X178653Y125601D01*
X179250D01*
X179250Y125610D01*
X179398Y125601D01*
D02*
G37*
G36*
X60373Y120179D02*
X60385Y120145D01*
X60406Y120115D01*
X60435Y120089D01*
X60472Y120067D01*
X60517Y120049D01*
X60571Y120035D01*
X60633Y120025D01*
X60703Y120019D01*
X60781Y120017D01*
Y119617D01*
X60703Y119615D01*
X60633Y119609D01*
X60571Y119599D01*
X60517Y119585D01*
X60472Y119567D01*
X60435Y119545D01*
X60406Y119519D01*
X60385Y119489D01*
X60373Y119455D01*
X60369Y119417D01*
Y120217D01*
X60373Y120179D01*
D02*
G37*
G36*
X62286Y119123D02*
X62195Y119217D01*
X61890Y119493D01*
X61828Y119538D01*
X61772Y119572D01*
X61722Y119597D01*
X61678Y119612D01*
X61639Y119617D01*
X61646Y120017D01*
X61684Y120021D01*
X61728Y120036D01*
X61778Y120060D01*
X61835Y120094D01*
X61898Y120138D01*
X62043Y120254D01*
X62214Y120409D01*
X62309Y120501D01*
X62286Y119123D01*
D02*
G37*
G36*
X179771Y119038D02*
X179678Y119105D01*
X179569Y119138D01*
X179443Y119137D01*
X179299Y119103D01*
X179139Y119034D01*
X178962Y118932D01*
X178767Y118796D01*
X178555Y118626D01*
X178081Y118185D01*
X177232Y119033D01*
X177470Y119279D01*
X177843Y119720D01*
X177979Y119914D01*
X178081Y120092D01*
X178150Y120252D01*
X178184Y120396D01*
X178185Y120522D01*
X178152Y120631D01*
X178086Y120723D01*
X179771Y119038D01*
D02*
G37*
G36*
X60809Y117199D02*
X60714Y117290D01*
X60398Y117561D01*
X60393Y117565D01*
X60385Y117554D01*
X60373Y117520D01*
X60369Y117482D01*
Y117581D01*
X60335Y117605D01*
X60278Y117639D01*
X60228Y117663D01*
X60184Y117678D01*
X60146Y117682D01*
X60139Y118082D01*
X60178Y118087D01*
X60222Y118102D01*
X60272Y118127D01*
X60328Y118161D01*
X60369Y118191D01*
Y118282D01*
X60373Y118244D01*
X60385Y118210D01*
X60389Y118205D01*
X60390Y118206D01*
X60457Y118260D01*
X60610Y118398D01*
X60785Y118576D01*
X60809Y117199D01*
D02*
G37*
G36*
X177200Y117299D02*
X177216Y117031D01*
X177222Y116999D01*
X177229Y116973D01*
X177236Y116955D01*
X177245Y116944D01*
X176600Y116244D01*
X175955Y116944D01*
X175964Y116955D01*
X175971Y116973D01*
X175978Y116999D01*
X175984Y117031D01*
X175989Y117071D01*
X175996Y117171D01*
X176000Y117374D01*
X177200D01*
X177200Y117299D01*
D02*
G37*
G36*
X60373Y116260D02*
X60385Y116226D01*
X60406Y116196D01*
X60435Y116170D01*
X60472Y116148D01*
X60517Y116130D01*
X60571Y116116D01*
X60633Y116106D01*
X60703Y116100D01*
X60781Y116098D01*
Y115698D01*
X60703Y115696D01*
X60633Y115690D01*
X60571Y115680D01*
X60517Y115666D01*
X60472Y115648D01*
X60435Y115626D01*
X60406Y115600D01*
X60385Y115570D01*
X60373Y115536D01*
X60369Y115498D01*
Y116298D01*
X60373Y116260D01*
D02*
G37*
G36*
X182686Y116440D02*
X182694Y116388D01*
X182706Y116336D01*
X182723Y116284D01*
X182745Y116232D01*
X182773Y116181D01*
X182805Y116130D01*
X182842Y116079D01*
X182885Y116029D01*
X182932Y115979D01*
X182228Y115269D01*
X182177Y115317D01*
X182127Y115359D01*
X182076Y115396D01*
X182025Y115429D01*
X181974Y115456D01*
X181922Y115478D01*
X181870Y115495D01*
X181818Y115507D01*
X181766Y115514D01*
X181713Y115516D01*
X182684Y116493D01*
X182686Y116440D01*
D02*
G37*
G36*
X62298Y115210D02*
X62205Y115303D01*
X61894Y115576D01*
X61832Y115620D01*
X61775Y115654D01*
X61725Y115679D01*
X61681Y115693D01*
X61643Y115698D01*
X61642Y116098D01*
X61680Y116103D01*
X61725Y116118D01*
X61775Y116142D01*
X61831Y116176D01*
X61893Y116220D01*
X62036Y116338D01*
X62203Y116495D01*
X62296Y116588D01*
X62298Y115210D01*
D02*
G37*
G36*
X45816Y117658D02*
X50384D01*
Y116103D01*
X45816D01*
Y115144D01*
X40111D01*
X39697Y116144D01*
X42171Y118618D01*
X45816D01*
Y117658D01*
D02*
G37*
G36*
X177289Y115497D02*
X177272Y115477D01*
X177257Y115450D01*
X177244Y115418D01*
X177232Y115380D01*
X177222Y115336D01*
X177214Y115286D01*
X177201Y115100D01*
X177200Y115026D01*
X176000D01*
X175996Y115168D01*
X175986Y115286D01*
X175978Y115336D01*
X175968Y115380D01*
X175956Y115418D01*
X175943Y115450D01*
X175928Y115477D01*
X175911Y115497D01*
X176600Y116244D01*
X177289Y115497D01*
D02*
G37*
G36*
X193624Y116105D02*
X193655Y116020D01*
X193705Y115945D01*
X193776Y115880D01*
X193867Y115825D01*
X193978Y115780D01*
X194110Y115745D01*
X194262Y115720D01*
X194434Y115705D01*
X194534Y115702D01*
X194593Y115708D01*
X194655Y115717D01*
X194714Y115730D01*
X194770Y115747D01*
X194822Y115768D01*
X194871Y115793D01*
X194916Y115821D01*
X194958Y115853D01*
X194997Y115889D01*
Y114511D01*
X194958Y114547D01*
X194916Y114579D01*
X194871Y114607D01*
X194822Y114632D01*
X194770Y114653D01*
X194714Y114670D01*
X194655Y114683D01*
X194593Y114692D01*
X194533Y114698D01*
X194434Y114695D01*
X194261Y114680D01*
X194109Y114655D01*
X193977Y114620D01*
X193865Y114576D01*
X193774Y114521D01*
X193703Y114456D01*
X193652Y114382D01*
X193622Y114297D01*
X193611Y114202D01*
X193614Y116200D01*
X193624Y116105D01*
D02*
G37*
G36*
X183786Y114430D02*
X183777Y114501D01*
X183750Y114564D01*
X183706Y114619D01*
X183645Y114667D01*
X183565Y114708D01*
X183468Y114741D01*
X183354Y114767D01*
X183221Y114785D01*
X183072Y114796D01*
X182904Y114800D01*
Y115800D01*
X183072Y115804D01*
X183354Y115833D01*
X183468Y115859D01*
X183565Y115892D01*
X183645Y115933D01*
X183706Y115981D01*
X183750Y116036D01*
X183777Y116099D01*
X183786Y116170D01*
Y114430D01*
D02*
G37*
G36*
X60787Y113221D02*
X60696Y113315D01*
X60391Y113591D01*
X60389Y113592D01*
X60385Y113586D01*
X60373Y113552D01*
X60369Y113514D01*
Y113606D01*
X60329Y113635D01*
X60273Y113670D01*
X60223Y113694D01*
X60178Y113709D01*
X60140Y113714D01*
X60146Y114114D01*
X60183Y114119D01*
X60227Y114133D01*
X60277Y114158D01*
X60334Y114191D01*
X60369Y114216D01*
Y114314D01*
X60373Y114276D01*
X60385Y114242D01*
X60392Y114232D01*
X60397Y114235D01*
X60542Y114351D01*
X60712Y114507D01*
X60807Y114599D01*
X60787Y113221D01*
D02*
G37*
G36*
X152961Y179624D02*
X153362Y179595D01*
X153400Y179576D01*
X158400Y176756D01*
X163221Y173639D01*
X167845Y170236D01*
X172255Y166561D01*
X176435Y162626D01*
X180370Y158446D01*
X184046Y154036D01*
X187448Y149412D01*
X190565Y144591D01*
X193385Y139591D01*
X195898Y134429D01*
X198095Y129125D01*
X199968Y123698D01*
X201510Y118168D01*
X202715Y112555D01*
X203111Y109950D01*
X202372Y109220D01*
X202215Y109195D01*
X202127Y109274D01*
X202084Y109342D01*
Y109815D01*
X201843Y110397D01*
X201397Y110843D01*
X200815Y111084D01*
X200539D01*
X200082Y112042D01*
X200243Y112203D01*
X200484Y112785D01*
Y113415D01*
X200243Y113997D01*
X199797Y114443D01*
X199215Y114684D01*
X198585D01*
X198208Y114528D01*
X197853Y114665D01*
X197615Y114818D01*
X197284Y115139D01*
Y115515D01*
X197043Y116097D01*
X196597Y116543D01*
X196015Y116784D01*
X195385D01*
X195205Y116710D01*
X194313Y116920D01*
X194004Y117159D01*
X193807Y117454D01*
X193315Y117782D01*
X192735Y117898D01*
X190964D01*
X190384Y117782D01*
X189893Y117454D01*
X189564Y116962D01*
X189449Y116383D01*
Y114217D01*
X189564Y113638D01*
X189893Y113146D01*
X190384Y112818D01*
X190964Y112702D01*
X192725D01*
X192754Y112661D01*
X193013Y112062D01*
X192503Y111498D01*
X191164D01*
X190584Y111382D01*
X190093Y111054D01*
X189764Y110562D01*
X189649Y109983D01*
Y107817D01*
X189764Y107238D01*
X189957Y106949D01*
X189714Y106226D01*
X189514Y105949D01*
X188286D01*
X188086Y106226D01*
X187843Y106949D01*
X188036Y107238D01*
X188151Y107817D01*
Y109983D01*
X188036Y110562D01*
X187707Y111054D01*
X187216Y111382D01*
X186636Y111498D01*
X184865D01*
X184285Y111382D01*
X183793Y111054D01*
X183465Y110562D01*
X183378Y110124D01*
X181607D01*
X177823Y113907D01*
Y115183D01*
X177943Y115303D01*
X178184Y115885D01*
Y116515D01*
X177943Y117097D01*
X177909Y117131D01*
X179024Y118246D01*
X179770Y118157D01*
X179872Y118025D01*
X180285Y117225D01*
X180116Y116815D01*
Y116185D01*
X180357Y115603D01*
X180803Y115157D01*
X181385Y114916D01*
X181702D01*
X182111Y114507D01*
X182475Y114264D01*
X182904Y114178D01*
X183265Y113638D01*
X183593Y113146D01*
X184085Y112818D01*
X184665Y112702D01*
X186436D01*
X187016Y112818D01*
X187507Y113146D01*
X187836Y113638D01*
X187951Y114217D01*
Y116383D01*
X187836Y116962D01*
X187507Y117454D01*
X187016Y117782D01*
X186436Y117898D01*
X184665D01*
X184085Y117782D01*
X183992Y117720D01*
X183409Y117522D01*
X182629Y117811D01*
X182597Y117843D01*
X182294Y117969D01*
X182137Y118252D01*
X181981Y118785D01*
X181967Y119084D01*
X182136Y119338D01*
X182251Y119917D01*
Y122083D01*
X182136Y122662D01*
X181807Y123154D01*
X181316Y123482D01*
X181214Y123673D01*
X181384Y124085D01*
Y124715D01*
X181284Y124958D01*
X181316Y125018D01*
X181807Y125346D01*
X182136Y125838D01*
X182251Y126417D01*
Y128583D01*
X182136Y129162D01*
X181807Y129654D01*
X181316Y129982D01*
X181214Y130173D01*
X181384Y130585D01*
Y131215D01*
X181284Y131458D01*
X181316Y131518D01*
X181807Y131846D01*
X182136Y132338D01*
X182251Y132917D01*
Y135083D01*
X182136Y135662D01*
X182273Y136031D01*
X182414Y136159D01*
X182482Y136306D01*
X182541Y136349D01*
X182541Y136349D01*
X182542Y136362D01*
X182548Y136371D01*
X182561Y136440D01*
X182616Y136528D01*
X182623Y136571D01*
X182623Y136571D01*
X182626Y136585D01*
X182622Y136603D01*
X182625Y136609D01*
X182625Y136609D01*
X182645Y136647D01*
X182645Y136647D01*
X182635Y136684D01*
X182649Y136719D01*
Y148971D01*
X182600Y149090D01*
Y149219D01*
X182509Y149440D01*
X182417Y149531D01*
X182368Y149651D01*
X180169Y151849D01*
X173573Y158445D01*
X173573Y158445D01*
X174031Y159224D01*
X174117Y159316D01*
X174715D01*
X175297Y159557D01*
X175743Y160003D01*
X175984Y160585D01*
Y161215D01*
X175743Y161797D01*
X175297Y162243D01*
X174715Y162484D01*
X174085D01*
X173503Y162243D01*
X172676Y162219D01*
X172315Y162460D01*
X171889Y162545D01*
X170511D01*
X170085Y162460D01*
X169724Y162219D01*
X169482Y161858D01*
X169397Y161432D01*
Y160447D01*
X169437Y160249D01*
X169035Y159519D01*
X168795Y159249D01*
X167642D01*
X167578Y159223D01*
X167575Y159223D01*
X167564Y159228D01*
X167560Y159226D01*
X167510Y159236D01*
X167509Y159236D01*
X167497Y159228D01*
X167438Y159216D01*
X167343Y159152D01*
X167327Y159149D01*
X167326Y159149D01*
X167326Y159149D01*
X167326Y159149D01*
X167281Y159140D01*
X167273Y159134D01*
X167209Y159122D01*
X167209Y159122D01*
X167180Y159079D01*
X167164Y159066D01*
X167093Y159052D01*
X167063Y159032D01*
X167051Y159014D01*
X167030Y159010D01*
X166815Y158866D01*
X166463Y158796D01*
X164937D01*
X164585Y158866D01*
X164307Y159052D01*
X164227Y159068D01*
X164189Y159124D01*
X164188Y159124D01*
X164126Y159136D01*
X164119Y159140D01*
X164074Y159149D01*
X164074Y159149D01*
X164074Y159149D01*
X164074Y159149D01*
X164057Y159152D01*
X163962Y159216D01*
X163902Y159228D01*
X163891Y159236D01*
X163890Y159236D01*
X163840Y159226D01*
X163836Y159228D01*
X163824Y159223D01*
X163822Y159223D01*
X163758Y159249D01*
X159996D01*
X159930Y159222D01*
X159890D01*
X159836Y159200D01*
X159786D01*
X159748Y159207D01*
X159748Y159206D01*
X159726Y159191D01*
X159682Y159173D01*
X159644Y159135D01*
X159608Y159126D01*
X159601Y159121D01*
X159601Y159121D01*
X159599Y159121D01*
X159599Y159121D01*
X159511Y159100D01*
X159448Y159055D01*
X159423Y159051D01*
X159423Y159051D01*
X159415Y159040D01*
X159401Y159038D01*
X159102Y158849D01*
X159089Y158830D01*
X158800Y158949D01*
X146500D01*
X146041Y158759D01*
X145851Y158300D01*
Y151500D01*
X146041Y151041D01*
X146500Y150851D01*
X152283Y150850D01*
X153151Y149983D01*
X153150Y148869D01*
X148841Y144559D01*
X148651Y144100D01*
Y132969D01*
X141640Y125959D01*
X140711Y126231D01*
X138961Y127979D01*
X138942Y127987D01*
X138932Y128006D01*
X135894Y130535D01*
X135874Y130541D01*
X135863Y130559D01*
X132608Y132803D01*
X132588Y132807D01*
X132575Y132824D01*
X129130Y134764D01*
X129158Y135740D01*
X152360Y179659D01*
X152961Y179624D01*
D02*
G37*
G36*
X198197Y112411D02*
X198104Y112504D01*
X197794Y112778D01*
X197731Y112822D01*
X197675Y112856D01*
X197625Y112880D01*
X197581Y112895D01*
X197543Y112900D01*
Y113300D01*
X197581Y113305D01*
X197625Y113320D01*
X197675Y113344D01*
X197731Y113378D01*
X197794Y113422D01*
X197937Y113540D01*
X198104Y113696D01*
X198197Y113789D01*
Y112411D01*
D02*
G37*
G36*
X60373Y112342D02*
X60385Y112308D01*
X60406Y112278D01*
X60435Y112252D01*
X60472Y112230D01*
X60517Y112212D01*
X60571Y112198D01*
X60633Y112188D01*
X60703Y112182D01*
X60781Y112180D01*
Y111780D01*
X60703Y111778D01*
X60633Y111772D01*
X60571Y111762D01*
X60517Y111748D01*
X60472Y111730D01*
X60435Y111708D01*
X60406Y111682D01*
X60385Y111652D01*
X60373Y111618D01*
X60369Y111580D01*
Y112380D01*
X60373Y112342D01*
D02*
G37*
G36*
X62511Y111297D02*
X62416Y111388D01*
X62099Y111659D01*
X62035Y111702D01*
X61979Y111736D01*
X61928Y111760D01*
X61884Y111775D01*
X61847Y111780D01*
X61839Y112180D01*
X61877Y112185D01*
X61922Y112199D01*
X61972Y112224D01*
X62028Y112259D01*
X62089Y112303D01*
X62157Y112358D01*
X62308Y112496D01*
X62483Y112674D01*
X62511Y111297D01*
D02*
G37*
G36*
X193962Y110726D02*
X193899Y110661D01*
X193802Y110541D01*
X193767Y110488D01*
X193743Y110439D01*
X193727Y110393D01*
X193721Y110352D01*
X193725Y110314D01*
X193738Y110281D01*
X193761Y110252D01*
X193204Y110808D01*
X193234Y110785D01*
X193267Y110772D01*
X193305Y110769D01*
X193346Y110774D01*
X193391Y110790D01*
X193441Y110815D01*
X193494Y110849D01*
X193552Y110893D01*
X193613Y110946D01*
X193679Y111009D01*
X193962Y110726D01*
D02*
G37*
G36*
X46428Y110588D02*
X46424Y110626D01*
X46413Y110660D01*
X46393Y110689D01*
X46365Y110715D01*
X46328Y110738D01*
X46284Y110756D01*
X46233Y110769D01*
X46172Y110780D01*
X46104Y110785D01*
X46029Y110787D01*
Y111188D01*
X46104Y111189D01*
X46172Y111196D01*
X46233Y111205D01*
X46284Y111220D01*
X46328Y111238D01*
X46365Y111259D01*
X46393Y111285D01*
X46413Y111316D01*
X46424Y111349D01*
X46428Y111388D01*
Y110588D01*
D02*
G37*
G36*
X60800Y109308D02*
X60707Y109400D01*
X60395Y109674D01*
X60391Y109676D01*
X60385Y109667D01*
X60373Y109633D01*
X60369Y109595D01*
Y109692D01*
X60332Y109717D01*
X60276Y109751D01*
X60226Y109776D01*
X60181Y109791D01*
X60144Y109795D01*
X60142Y110195D01*
X60180Y110200D01*
X60224Y110215D01*
X60274Y110240D01*
X60331Y110274D01*
X60369Y110301D01*
Y110395D01*
X60373Y110357D01*
X60385Y110323D01*
X60390Y110316D01*
X60393Y110318D01*
X60535Y110436D01*
X60702Y110592D01*
X60794Y110686D01*
X60800Y109308D01*
D02*
G37*
G36*
X43603Y111586D02*
X43909Y111311D01*
X43971Y111266D01*
X44027Y111232D01*
X44077Y111207D01*
X44121Y111193D01*
X44160Y111188D01*
X44155Y110787D01*
X44117Y110783D01*
X44073Y110768D01*
X44023Y110744D01*
X43966Y110710D01*
X43903Y110666D01*
X43758Y110550D01*
X43589Y110394D01*
X43494Y110302D01*
X43512Y111680D01*
X43603Y111586D01*
D02*
G37*
G36*
X34153Y110842D02*
X34069Y110755D01*
X33996Y110652D01*
X33932Y110536D01*
X33877Y110404D01*
X33833Y110258D01*
X33799Y110098D01*
X33774Y109922D01*
X33759Y109732D01*
X33754Y109528D01*
X32554D01*
X32549Y109732D01*
X32535Y109922D01*
X32510Y110098D01*
X32476Y110258D01*
X32431Y110404D01*
X32377Y110536D01*
X32313Y110652D01*
X32239Y110755D01*
X32155Y110842D01*
X32062Y110916D01*
X34247D01*
X34153Y110842D01*
D02*
G37*
G36*
X45894Y109599D02*
X46205Y109325D01*
X46268Y109281D01*
X46320Y109250D01*
X46328Y109253D01*
X46365Y109275D01*
X46393Y109301D01*
X46413Y109331D01*
X46424Y109365D01*
X46428Y109403D01*
Y109207D01*
X46457Y109203D01*
X46458Y108803D01*
X46428Y108800D01*
Y108603D01*
X46424Y108641D01*
X46413Y108675D01*
X46393Y108705D01*
X46365Y108731D01*
X46328Y108753D01*
X46321Y108756D01*
X46269Y108725D01*
X46207Y108681D01*
X46064Y108563D01*
X45898Y108406D01*
X45805Y108313D01*
X45801Y109691D01*
X45894Y109599D01*
D02*
G37*
G36*
X184009Y107702D02*
X183996Y107816D01*
X183959Y107917D01*
X183898Y108007D01*
X183811Y108085D01*
X183700Y108151D01*
X183564Y108204D01*
X183404Y108246D01*
X183218Y108276D01*
X183008Y108294D01*
X182774Y108300D01*
Y109500D01*
X183008Y109506D01*
X183218Y109524D01*
X183404Y109554D01*
X183564Y109596D01*
X183700Y109649D01*
X183811Y109715D01*
X183898Y109793D01*
X183959Y109882D01*
X183996Y109984D01*
X184009Y110098D01*
Y107702D01*
D02*
G37*
G36*
X60373Y108459D02*
X60385Y108425D01*
X60406Y108395D01*
X60435Y108369D01*
X60472Y108347D01*
X60517Y108329D01*
X60571Y108315D01*
X60633Y108305D01*
X60703Y108299D01*
X60781Y108297D01*
Y107897D01*
X60703Y107895D01*
X60633Y107889D01*
X60571Y107879D01*
X60517Y107865D01*
X60472Y107847D01*
X60435Y107825D01*
X60406Y107799D01*
X60385Y107769D01*
X60373Y107735D01*
X60369Y107697D01*
Y108497D01*
X60373Y108459D01*
D02*
G37*
G36*
X62481Y107431D02*
X62379Y107520D01*
X61977Y107823D01*
X61920Y107855D01*
X61869Y107878D01*
X61826Y107892D01*
X61791Y107897D01*
X61760Y108297D01*
X61800Y108302D01*
X61845Y108317D01*
X61895Y108343D01*
X61949Y108378D01*
X62008Y108424D01*
X62072Y108480D01*
X62215Y108622D01*
X62376Y108805D01*
X62481Y107431D01*
D02*
G37*
G36*
X100906Y108598D02*
X101035Y108286D01*
Y107914D01*
X100892Y107571D01*
X100629Y107308D01*
X100286Y107165D01*
X99914D01*
X99571Y107308D01*
X99392Y107486D01*
X99377Y108542D01*
X99969Y108974D01*
X100906Y108598D01*
D02*
G37*
G36*
X46428Y106619D02*
X46424Y106657D01*
X46413Y106691D01*
X46393Y106721D01*
X46365Y106747D01*
X46328Y106769D01*
X46284Y106787D01*
X46233Y106801D01*
X46172Y106811D01*
X46104Y106817D01*
X46029Y106819D01*
Y107219D01*
X46104Y107221D01*
X46172Y107227D01*
X46233Y107237D01*
X46284Y107251D01*
X46328Y107269D01*
X46365Y107291D01*
X46393Y107317D01*
X46413Y107347D01*
X46424Y107381D01*
X46428Y107419D01*
Y106619D01*
D02*
G37*
G36*
X60813Y105395D02*
X60718Y105486D01*
X60399Y105756D01*
X60393Y105761D01*
X60385Y105749D01*
X60373Y105715D01*
X60369Y105677D01*
Y105777D01*
X60336Y105800D01*
X60279Y105833D01*
X60229Y105858D01*
X60185Y105872D01*
X60148Y105877D01*
X60138Y106277D01*
X60177Y106282D01*
X60221Y106297D01*
X60272Y106322D01*
X60327Y106356D01*
X60369Y106386D01*
Y106477D01*
X60373Y106439D01*
X60385Y106405D01*
X60388Y106401D01*
X60389Y106401D01*
X60456Y106455D01*
X60607Y106594D01*
X60781Y106772D01*
X60813Y105395D01*
D02*
G37*
G36*
X43885Y107611D02*
X44202Y107340D01*
X44265Y107296D01*
X44322Y107263D01*
X44372Y107238D01*
X44416Y107224D01*
X44453Y107219D01*
X44461Y106819D01*
X44423Y106814D01*
X44378Y106799D01*
X44328Y106774D01*
X44272Y106740D01*
X44210Y106695D01*
X44143Y106641D01*
X43991Y106503D01*
X43816Y106325D01*
X43789Y107702D01*
X43885Y107611D01*
D02*
G37*
G36*
X33759Y107168D02*
X33774Y106978D01*
X33799Y106802D01*
X33833Y106642D01*
X33877Y106496D01*
X33932Y106364D01*
X33996Y106247D01*
X34069Y106145D01*
X34153Y106058D01*
X34247Y105984D01*
X32062D01*
X32155Y106058D01*
X32239Y106145D01*
X32313Y106247D01*
X32377Y106364D01*
X32431Y106496D01*
X32476Y106642D01*
X32510Y106802D01*
X32535Y106978D01*
X32549Y107168D01*
X32554Y107372D01*
X33754D01*
X33759Y107168D01*
D02*
G37*
G36*
X45816Y103879D02*
Y99942D01*
Y96005D01*
Y92068D01*
Y88131D01*
X49805D01*
X50016Y87815D01*
Y87185D01*
X49186Y86575D01*
X45816D01*
Y84194D01*
Y80255D01*
X50402D01*
Y82600D01*
X51616D01*
X51616Y82600D01*
X51684Y82614D01*
X52434Y82196D01*
X52684Y81965D01*
Y57669D01*
X52684Y57669D01*
X52746Y57357D01*
X52923Y57092D01*
X66475Y43540D01*
X66093Y42616D01*
X63738D01*
X38516Y67838D01*
Y73927D01*
X39516Y74331D01*
X40851Y72995D01*
X41116Y72818D01*
X41428Y72756D01*
X41428Y72756D01*
X41623D01*
X42316Y71815D01*
Y71185D01*
X42557Y70603D01*
X43003Y70157D01*
X43585Y69916D01*
X44215D01*
X44797Y70157D01*
X44886Y70245D01*
X45817Y70413D01*
Y70413D01*
X50402D01*
Y74350D01*
Y78699D01*
X45816D01*
Y78325D01*
X44760D01*
X42659Y80426D01*
X42606Y103674D01*
X42581Y103796D01*
X42567Y103920D01*
X42550Y103951D01*
X42543Y103986D01*
X42474Y104089D01*
X42413Y104199D01*
X42037Y104643D01*
X42644Y105474D01*
X42785Y105416D01*
X43415D01*
X43997Y105657D01*
X44443Y106103D01*
X44485Y106203D01*
X45816D01*
Y103879D01*
D02*
G37*
G36*
X40802Y105672D02*
X40918Y105039D01*
X40934Y105001D01*
X40950Y104976D01*
X40701Y104651D01*
X40669Y104681D01*
X40627Y104705D01*
X40575Y104725D01*
X40514Y104739D01*
X40443Y104749D01*
X40362Y104754D01*
X40271Y104754D01*
X40061Y104740D01*
X39941Y104725D01*
X40784Y105814D01*
X40802Y105672D01*
D02*
G37*
G36*
X25796Y104996D02*
X26106Y104722D01*
X26141Y104698D01*
X26141Y104698D01*
X26161Y104728D01*
X26174Y104762D01*
X26178Y104800D01*
Y104673D01*
X26225Y104644D01*
X26275Y104620D01*
X26319Y104605D01*
X26357Y104600D01*
Y104200D01*
X26319Y104195D01*
X26275Y104180D01*
X26225Y104156D01*
X26178Y104127D01*
Y104000D01*
X26174Y104038D01*
X26161Y104072D01*
X26141Y104102D01*
X26141Y104102D01*
X26106Y104078D01*
X25963Y103960D01*
X25796Y103804D01*
X25703Y103711D01*
Y105089D01*
X25796Y104996D01*
D02*
G37*
G36*
X169451Y125663D02*
Y113869D01*
X169450Y113869D01*
X167031Y111450D01*
X167031Y111449D01*
X161729D01*
X161610Y111400D01*
X161481D01*
X161260Y111309D01*
X161169Y111217D01*
X161049Y111168D01*
X159213Y109331D01*
X159213Y109331D01*
X157680Y107798D01*
X157675Y107787D01*
X157664Y107782D01*
X157581Y107559D01*
X157490Y107339D01*
X157494Y107328D01*
X157490Y107317D01*
X157503Y106957D01*
X157550Y106854D01*
X157548Y106740D01*
X157633Y106525D01*
X157662Y106495D01*
Y106483D01*
X157692Y106453D01*
X157700Y106433D01*
X157705Y106428D01*
X157721Y106370D01*
X157746Y106337D01*
X157808Y106301D01*
X157824Y106263D01*
Y103375D01*
X154673D01*
X153907Y103479D01*
X153756Y104267D01*
X153749Y104341D01*
Y126501D01*
X168534D01*
X169451Y125663D01*
D02*
G37*
G36*
X111032Y102878D02*
X110994Y102892D01*
X110953Y102896D01*
X110907Y102892D01*
X110859Y102878D01*
X110806Y102855D01*
X110749Y102823D01*
X110689Y102782D01*
X110625Y102731D01*
X110582Y102693D01*
X110578Y102688D01*
X110557Y102646D01*
X110539Y102594D01*
X110523Y102530D01*
X110510Y102454D01*
X110492Y102270D01*
X110484Y102041D01*
X110484Y101910D01*
X109510Y102884D01*
X109641Y102884D01*
X110054Y102910D01*
X110130Y102923D01*
X110194Y102939D01*
X110247Y102957D01*
X110261Y102964D01*
X110284Y102992D01*
X110318Y103046D01*
X110342Y103094D01*
X110354Y103138D01*
X110356Y103175D01*
X110346Y103208D01*
X110326Y103235D01*
X110294Y103256D01*
X111032Y102878D01*
D02*
G37*
G36*
X106862Y102874D02*
X106828Y102861D01*
X106798Y102841D01*
X106772Y102812D01*
X106750Y102775D01*
X106732Y102729D01*
X106719Y102678D01*
X106720Y102675D01*
X106744Y102625D01*
X106778Y102569D01*
X106822Y102506D01*
X106940Y102363D01*
X107096Y102196D01*
X107189Y102103D01*
X105811D01*
X105904Y102196D01*
X106178Y102506D01*
X106222Y102569D01*
X106256Y102625D01*
X106280Y102675D01*
X106281Y102678D01*
X106268Y102729D01*
X106250Y102775D01*
X106228Y102812D01*
X106202Y102841D01*
X106172Y102861D01*
X106138Y102874D01*
X106100Y102878D01*
X106900D01*
X106862Y102874D01*
D02*
G37*
G36*
X60373Y102469D02*
X60385Y102435D01*
X60406Y102405D01*
X60435Y102379D01*
X60472Y102357D01*
X60517Y102339D01*
X60571Y102325D01*
X60633Y102315D01*
X60703Y102309D01*
X60781Y102307D01*
Y101907D01*
X60703Y101905D01*
X60633Y101899D01*
X60571Y101889D01*
X60517Y101875D01*
X60472Y101857D01*
X60435Y101835D01*
X60406Y101809D01*
X60385Y101779D01*
X60373Y101745D01*
X60369Y101707D01*
Y102507D01*
X60373Y102469D01*
D02*
G37*
G36*
X158800Y155800D02*
X158990Y155610D01*
X158990Y155610D01*
X159459Y155141D01*
X163700Y150900D01*
Y144000D01*
X155600D01*
X153100Y141500D01*
Y136011D01*
X152951Y135650D01*
Y127150D01*
X153100Y126789D01*
Y103500D01*
X145500Y95900D01*
X117200D01*
X116800Y95500D01*
X116200Y95500D01*
X115800Y95900D01*
X115366D01*
Y96329D01*
X115293Y96697D01*
X115112Y96969D01*
X115293Y97240D01*
X115366Y97608D01*
Y98297D01*
X115293Y98666D01*
X115085Y98978D01*
X114772Y99187D01*
X114403Y99260D01*
X112770D01*
X112318Y99406D01*
X112235Y99625D01*
X112203Y99788D01*
X112058Y100004D01*
X112738Y100684D01*
X114962D01*
X117578Y98069D01*
X117578Y98069D01*
X117842Y97892D01*
X118138Y97833D01*
X118200Y97522D01*
X118474Y97112D01*
X118884Y96838D01*
X119368Y96742D01*
X121632D01*
X122116Y96838D01*
X122526Y97112D01*
X122800Y97522D01*
X122896Y98006D01*
Y99285D01*
X122800Y99769D01*
X122526Y100179D01*
X122116Y100453D01*
X121632Y100549D01*
X119368D01*
X118884Y100453D01*
X118474Y100179D01*
X117833Y100120D01*
X115877Y102077D01*
X115612Y102254D01*
X115300Y102316D01*
X115300Y102316D01*
X114414D01*
X114162Y102816D01*
X114300Y103022D01*
X114396Y103506D01*
Y104785D01*
X114300Y105269D01*
X114026Y105679D01*
X113616Y105953D01*
X113132Y106050D01*
X110868D01*
X110384Y105953D01*
X109974Y105679D01*
X109700Y105269D01*
X109604Y104785D01*
Y103885D01*
X109531Y103818D01*
X109085Y103839D01*
X108896Y104021D01*
Y104785D01*
X108800Y105269D01*
X108526Y105679D01*
X108116Y105953D01*
X107632Y106050D01*
X105368D01*
X104884Y105953D01*
X104474Y105679D01*
X104200Y105269D01*
X104104Y104785D01*
Y103506D01*
X104200Y103022D01*
X104474Y102612D01*
X104884Y102338D01*
X105047Y102033D01*
X104916Y101715D01*
Y101085D01*
X105157Y100503D01*
X105603Y100057D01*
X105732Y100003D01*
X105797Y99788D01*
X105765Y99625D01*
X105682Y99406D01*
X105230Y99260D01*
X103596D01*
X103228Y99187D01*
X103159Y99141D01*
X97200Y105100D01*
Y107371D01*
X97445Y107645D01*
X98016Y108120D01*
X98516Y107886D01*
Y107785D01*
X98757Y107203D01*
X99203Y106757D01*
X99785Y106516D01*
X100415D01*
X100997Y106757D01*
X101443Y107203D01*
X101684Y107785D01*
Y108415D01*
X101443Y108997D01*
X100997Y109443D01*
X100794Y109527D01*
X100750Y110087D01*
X101462Y110522D01*
X103742Y111492D01*
X106138Y112120D01*
X108600Y112393D01*
X111076Y112305D01*
X113512Y111857D01*
X115858Y111060D01*
X118062Y109930D01*
X120079Y108492D01*
X121864Y106775D01*
X123386Y104810D01*
X124034Y103753D01*
X124306Y103268D01*
X124352Y103232D01*
X124374Y103177D01*
X125166Y102371D01*
X125220Y102348D01*
X125256Y102301D01*
X126231Y101731D01*
X126289Y101723D01*
X126336Y101687D01*
X127426Y101392D01*
X127485Y101400D01*
X127540Y101377D01*
X128104Y101378D01*
X141537D01*
X141537Y101378D01*
X141537Y101378D01*
X142218Y101378D01*
X142253Y101393D01*
X142289Y101384D01*
X143632Y101610D01*
X143664Y101630D01*
X143702Y101628D01*
X144989Y102072D01*
X145017Y102097D01*
X145055Y102101D01*
X146250Y102752D01*
X146274Y102782D01*
X146311Y102792D01*
X147382Y103632D01*
X147401Y103665D01*
X147435Y103681D01*
X148353Y104687D01*
X148366Y104722D01*
X148397Y104744D01*
X149136Y105887D01*
X149142Y105925D01*
X149170Y105951D01*
X149709Y107201D01*
X149710Y107239D01*
X149732Y107269D01*
X150057Y108591D01*
X150052Y108629D01*
X150069Y108662D01*
X150171Y110020D01*
X150159Y110056D01*
X150170Y110092D01*
X150047Y111448D01*
X150029Y111482D01*
X150034Y111519D01*
X149688Y112836D01*
X149665Y112866D01*
X149664Y112904D01*
X149384Y113524D01*
X149384Y113524D01*
Y113524D01*
X148572Y115326D01*
X148557Y115341D01*
X148554Y115361D01*
X146610Y118804D01*
X146593Y118817D01*
X146589Y118837D01*
X144341Y122089D01*
X144324Y122101D01*
X144317Y122121D01*
X141785Y125156D01*
X142100Y125500D01*
X149300Y132700D01*
Y144100D01*
X153800Y148600D01*
X153800Y150800D01*
X153100Y151500D01*
X146500Y151500D01*
Y158300D01*
X158800D01*
Y155800D01*
D02*
G37*
G36*
X50287Y101469D02*
X50390Y101466D01*
Y100866D01*
X50308Y100864D01*
X50321Y100487D01*
X50243Y100559D01*
X50096Y100681D01*
X50028Y100730D01*
X49962Y100771D01*
X49930Y100789D01*
X49878Y100758D01*
X49835Y100719D01*
X49804Y100674D01*
X49785Y100623D01*
X49778Y100566D01*
X49781Y100852D01*
X49731Y100863D01*
X49680Y100866D01*
X49659Y101466D01*
X49710Y101470D01*
X49764Y101482D01*
X49788Y101491D01*
X49790Y101711D01*
X49796Y101665D01*
X49814Y101623D01*
X49844Y101586D01*
X49886Y101554D01*
X49904Y101546D01*
X49938Y101566D01*
X50001Y101610D01*
X50065Y101661D01*
X50133Y101721D01*
X50274Y101865D01*
X50287Y101469D01*
D02*
G37*
G36*
X109736Y100945D02*
X109634Y100917D01*
X109463Y100855D01*
X109393Y100821D01*
X109334Y100784D01*
X109286Y100746D01*
X109248Y100705D01*
X109221Y100662D01*
X109205Y100616D01*
X109200Y100569D01*
X108800Y100814D01*
X108798Y100813D01*
X108790Y100830D01*
X108778Y100865D01*
X108553Y101631D01*
X109736Y100945D01*
D02*
G37*
G36*
X34153Y102742D02*
X34069Y102655D01*
X33996Y102552D01*
X33932Y102436D01*
X33877Y102304D01*
X33833Y102158D01*
X33799Y101997D01*
X33774Y101822D01*
X33761Y101650D01*
X33774Y101478D01*
X33799Y101303D01*
X33833Y101142D01*
X33877Y100996D01*
X33932Y100864D01*
X33996Y100748D01*
X34069Y100645D01*
X34153Y100558D01*
X34247Y100485D01*
X32062D01*
X32155Y100558D01*
X32239Y100645D01*
X32313Y100748D01*
X32377Y100864D01*
X32431Y100996D01*
X32476Y101142D01*
X32510Y101303D01*
X32535Y101478D01*
X32548Y101650D01*
X32535Y101822D01*
X32510Y101997D01*
X32476Y102158D01*
X32431Y102304D01*
X32377Y102436D01*
X32313Y102552D01*
X32239Y102655D01*
X32155Y102742D01*
X32062Y102815D01*
X34247D01*
X34153Y102742D01*
D02*
G37*
G36*
X107246Y100754D02*
X107224Y100717D01*
X107207Y100682D01*
X107195Y100648D01*
X107189Y100615D01*
X107189Y100584D01*
X107194Y100555D01*
X107204Y100527D01*
X107220Y100501D01*
X107241Y100476D01*
X106959Y100193D01*
X106914Y100234D01*
X106870Y100272D01*
X106824Y100305D01*
X106778Y100333D01*
X106730Y100358D01*
X106682Y100378D01*
X106634Y100394D01*
X106584Y100406D01*
X106534Y100413D01*
X106483Y100416D01*
X107274Y100793D01*
X107246Y100754D01*
D02*
G37*
G36*
X109202Y100078D02*
X109208Y100006D01*
X109218Y99943D01*
X109232Y99888D01*
X109249Y99841D01*
X109271Y99803D01*
X109297Y99774D01*
X109327Y99752D01*
X109360Y99740D01*
X109398Y99735D01*
X108602D01*
X108640Y99740D01*
X108674Y99752D01*
X108703Y99774D01*
X108729Y99803D01*
X108751Y99841D01*
X108768Y99888D01*
X108782Y99943D01*
X108792Y100006D01*
X108798Y100078D01*
X108800Y100158D01*
X109200D01*
X109202Y100078D01*
D02*
G37*
G36*
X107302Y100076D02*
X107308Y100003D01*
X107318Y99938D01*
X107332Y99882D01*
X107349Y99834D01*
X107371Y99795D01*
X107397Y99764D01*
X107427Y99741D01*
X107460Y99727D01*
X107498Y99722D01*
X106700Y99746D01*
X106738Y99749D01*
X106772Y99761D01*
X106802Y99781D01*
X106828Y99809D01*
X106850Y99846D01*
X106868Y99892D01*
X106882Y99946D01*
X106892Y100008D01*
X106898Y100079D01*
X106900Y100158D01*
X107300D01*
X107302Y100076D01*
D02*
G37*
G36*
X111302Y100071D02*
X111317Y99923D01*
X111331Y99862D01*
X111348Y99810D01*
X111370Y99767D01*
X111395Y99733D01*
X111424Y99708D01*
X111457Y99692D01*
X111493Y99684D01*
X110700Y99746D01*
X110738Y99748D01*
X110772Y99758D01*
X110802Y99777D01*
X110828Y99805D01*
X110850Y99841D01*
X110868Y99887D01*
X110882Y99942D01*
X110892Y100005D01*
X110898Y100077D01*
X110900Y100158D01*
X111300D01*
X111302Y100071D01*
D02*
G37*
G36*
X203874Y103626D02*
X204000Y102240D01*
Y99500D01*
X203400Y98900D01*
X169329D01*
X169300Y99010D01*
Y102811D01*
X169303Y102819D01*
Y102938D01*
X169414Y102981D01*
X169421Y102987D01*
X175471Y105300D01*
X202200D01*
X203874Y103626D01*
D02*
G37*
G36*
X25896Y99496D02*
X26171Y99254D01*
X26174Y99262D01*
X26178Y99300D01*
Y99247D01*
X26206Y99222D01*
X26269Y99178D01*
X26325Y99144D01*
X26375Y99120D01*
X26419Y99105D01*
X26457Y99100D01*
Y98700D01*
X26419Y98695D01*
X26375Y98680D01*
X26325Y98656D01*
X26269Y98622D01*
X26206Y98578D01*
X26178Y98554D01*
Y98500D01*
X26174Y98538D01*
X26170Y98548D01*
X26063Y98460D01*
X25896Y98304D01*
X25803Y98211D01*
Y98699D01*
X25766Y98700D01*
Y99100D01*
X25803Y99101D01*
Y99589D01*
X25896Y99496D01*
D02*
G37*
G36*
X118740Y98246D02*
X118736Y98284D01*
X118724Y98318D01*
X118703Y98348D01*
X118674Y98374D01*
X118637Y98396D01*
X118592Y98414D01*
X118538Y98428D01*
X118476Y98438D01*
X118406Y98444D01*
X118328Y98446D01*
Y98846D01*
X118406Y98848D01*
X118476Y98854D01*
X118538Y98864D01*
X118592Y98878D01*
X118637Y98896D01*
X118674Y98918D01*
X118703Y98944D01*
X118724Y98974D01*
X118736Y99008D01*
X118740Y99046D01*
Y98246D01*
D02*
G37*
G36*
X60373Y98558D02*
X60385Y98525D01*
X60405Y98495D01*
X60434Y98470D01*
X60471Y98449D01*
X60515Y98431D01*
X60568Y98418D01*
X60629Y98408D01*
X60698Y98402D01*
X60776Y98400D01*
Y98000D01*
X60698Y97998D01*
X60629Y97992D01*
X60568Y97983D01*
X60515Y97969D01*
X60471Y97951D01*
X60434Y97930D01*
X60405Y97905D01*
X60385Y97875D01*
X60373Y97842D01*
X60369Y97805D01*
Y98595D01*
X60373Y98558D01*
D02*
G37*
G36*
X103280Y97555D02*
X103276Y97593D01*
X103263Y97626D01*
X103242Y97656D01*
X103213Y97682D01*
X103175Y97703D01*
X103128Y97721D01*
X103073Y97735D01*
X103010Y97745D01*
X102938Y97751D01*
X102857Y97753D01*
Y98153D01*
X102938Y98155D01*
X103010Y98161D01*
X103073Y98171D01*
X103128Y98184D01*
X103175Y98202D01*
X103213Y98224D01*
X103242Y98250D01*
X103263Y98279D01*
X103276Y98313D01*
X103280Y98350D01*
Y97555D01*
D02*
G37*
G36*
X114519Y98575D02*
X114616Y98510D01*
X114681Y98412D01*
X114717Y98233D01*
Y97672D01*
X114681Y97493D01*
X114572Y97329D01*
X114547Y97203D01*
X114475Y97095D01*
X114500Y96969D01*
X114475Y96842D01*
X114547Y96734D01*
X114572Y96608D01*
X114681Y96444D01*
X114717Y96265D01*
Y95900D01*
X114907Y95441D01*
X115366Y95251D01*
X115480D01*
Y94011D01*
X115277Y93801D01*
X114480Y93339D01*
X114403Y93355D01*
X112770D01*
X112401Y93281D01*
X112089Y93073D01*
X111880Y92760D01*
X111807Y92392D01*
Y91703D01*
X111880Y91334D01*
X111957Y91220D01*
X111723Y90511D01*
X111514Y90220D01*
X108635D01*
X108339Y90581D01*
Y92215D01*
X108266Y92583D01*
X108057Y92896D01*
X107745Y93104D01*
X107376Y93177D01*
X106687D01*
X106318Y93104D01*
X106022Y92906D01*
X105911Y93073D01*
X105599Y93281D01*
X105230Y93355D01*
X103596D01*
X103228Y93281D01*
X102522Y94012D01*
X102471Y94217D01*
X102477Y94223D01*
X102477Y94223D01*
X102654Y94488D01*
X102716Y94800D01*
Y95878D01*
X102799Y96016D01*
X103596Y96645D01*
X105230D01*
X105599Y96719D01*
X105911Y96927D01*
X106022Y97094D01*
X106318Y96896D01*
X106687Y96823D01*
X107376D01*
X107745Y96896D01*
X108016Y97077D01*
X108287Y96896D01*
X108656Y96823D01*
X109344D01*
X109713Y96896D01*
X109984Y97077D01*
X110256Y96896D01*
X110624Y96823D01*
X111313D01*
X111681Y96896D01*
X111994Y97105D01*
X112203Y97417D01*
X112257Y97692D01*
X112303Y97831D01*
X112770Y98611D01*
X114340D01*
X114519Y98575D01*
D02*
G37*
G36*
X60993Y95515D02*
X60901Y95608D01*
X60593Y95883D01*
X60530Y95927D01*
X60479Y95959D01*
X60472Y95956D01*
X60435Y95934D01*
X60406Y95908D01*
X60385Y95878D01*
X60373Y95844D01*
X60369Y95806D01*
Y96002D01*
X60341Y96006D01*
X60344Y96406D01*
X60369Y96409D01*
Y96606D01*
X60373Y96568D01*
X60385Y96534D01*
X60406Y96504D01*
X60435Y96478D01*
X60472Y96456D01*
X60480Y96452D01*
X60532Y96484D01*
X60595Y96527D01*
X60739Y96645D01*
X60908Y96800D01*
X61001Y96893D01*
X60993Y95515D01*
D02*
G37*
G36*
X49782Y95602D02*
X49795Y95568D01*
X49815Y95538D01*
X49844Y95512D01*
X49881Y95490D01*
X49927Y95472D01*
X49980Y95458D01*
X50042Y95448D01*
X50112Y95442D01*
X50190Y95440D01*
Y95040D01*
X50112Y95038D01*
X50042Y95032D01*
X49980Y95022D01*
X49927Y95008D01*
X49881Y94990D01*
X49844Y94968D01*
X49815Y94942D01*
X49795Y94912D01*
X49782Y94878D01*
X49778Y94840D01*
Y95640D01*
X49782Y95602D01*
D02*
G37*
G36*
X101522Y94140D02*
X101453Y94068D01*
X101344Y93937D01*
X101304Y93878D01*
X101273Y93822D01*
X101251Y93771D01*
X101239Y93724D01*
X101237Y93680D01*
X101244Y93641D01*
X101260Y93606D01*
X100827Y94283D01*
X100851Y94255D01*
X100880Y94238D01*
X100914Y94231D01*
X100953Y94234D01*
X100997Y94248D01*
X101047Y94273D01*
X101101Y94309D01*
X101161Y94354D01*
X101225Y94411D01*
X101295Y94478D01*
X101522Y94140D01*
D02*
G37*
G36*
X60372Y94596D02*
X60382Y94576D01*
X60399Y94558D01*
X60422Y94543D01*
X60452Y94530D01*
X60488Y94519D01*
X60531Y94511D01*
X60581Y94505D01*
X60637Y94501D01*
X60700Y94500D01*
Y94300D01*
X60841Y94441D01*
X60861Y94423D01*
X60881Y94409D01*
X60901Y94398D01*
X60921Y94392D01*
X60941Y94389D01*
X60961Y94389D01*
X60981Y94394D01*
X61001Y94402D01*
X61020Y94414D01*
X61040Y94430D01*
X60727Y93849D01*
X60729Y93874D01*
X60726Y93901D01*
X60720Y93928D01*
X60709Y93957D01*
X60694Y93988D01*
X60675Y94019D01*
X60652Y94052D01*
X60625Y94086D01*
X60615Y94097D01*
X60531Y94089D01*
X60488Y94081D01*
X60452Y94070D01*
X60422Y94057D01*
X60399Y94042D01*
X60382Y94024D01*
X60372Y94003D01*
X60369Y93981D01*
Y94619D01*
X60372Y94596D01*
D02*
G37*
G36*
X21000Y103200D02*
X23300Y96732D01*
Y95700D01*
X21300Y93700D01*
X15700D01*
X15200Y94200D01*
Y98500D01*
X17200Y103200D01*
Y106100D01*
X21000D01*
Y103200D01*
D02*
G37*
G36*
X49782Y93612D02*
X49794Y93582D01*
X49813Y93555D01*
X49841Y93532D01*
X49876Y93512D01*
X49919Y93497D01*
X49969Y93484D01*
X50028Y93475D01*
X50094Y93470D01*
X50168Y93468D01*
Y93068D01*
X50094Y93066D01*
X50028Y93061D01*
X49969Y93052D01*
X49919Y93040D01*
X49876Y93024D01*
X49841Y93004D01*
X49813Y92981D01*
X49794Y92954D01*
X49782Y92924D01*
X49778Y92890D01*
Y93646D01*
X49782Y93612D01*
D02*
G37*
G36*
X204206Y97594D02*
X204271Y95424D01*
X204204Y93204D01*
X203500Y92500D01*
X173335D01*
Y92509D01*
X172748D01*
X171956Y92641D01*
D01*
X169338Y93077D01*
X169334Y93097D01*
X169300Y93148D01*
Y97528D01*
X169330Y97600D01*
Y97647D01*
X169342Y97663D01*
X173257Y98200D01*
X203600Y98200D01*
X204206Y97594D01*
D02*
G37*
G36*
X34153Y97242D02*
X34069Y97155D01*
X33996Y97053D01*
X33932Y96936D01*
X33877Y96804D01*
X33833Y96658D01*
X33799Y96497D01*
X33774Y96322D01*
X33759Y96132D01*
X33754Y95928D01*
X33269D01*
X33754Y95200D01*
X32669Y93572D01*
X33754D01*
X33759Y93368D01*
X33774Y93178D01*
X33799Y93002D01*
X33833Y92842D01*
X33877Y92696D01*
X33932Y92564D01*
X33996Y92448D01*
X34069Y92345D01*
X34153Y92258D01*
X34247Y92185D01*
X32062D01*
X32155Y92258D01*
X32239Y92345D01*
X32313Y92448D01*
X32377Y92564D01*
X32431Y92696D01*
X32476Y92842D01*
X32510Y93002D01*
X32535Y93178D01*
X32549Y93368D01*
X32552Y93454D01*
X32542Y93628D01*
X32506Y93832D01*
X32446Y94012D01*
X32362Y94168D01*
X32254Y94300D01*
X32122Y94408D01*
X31966Y94492D01*
X31786Y94552D01*
X31582Y94588D01*
X31354Y94600D01*
Y95800D01*
X31582Y95812D01*
X31786Y95848D01*
X31966Y95908D01*
X32122Y95992D01*
X32254Y96100D01*
X32362Y96232D01*
X32446Y96388D01*
X32499Y96547D01*
X32476Y96658D01*
X32431Y96804D01*
X32377Y96936D01*
X32313Y97053D01*
X32239Y97155D01*
X32155Y97242D01*
X32062Y97316D01*
X34247D01*
X34153Y97242D01*
D02*
G37*
G36*
X62784Y91352D02*
Y82565D01*
X62215Y82184D01*
X61585D01*
X61003Y81943D01*
X60712Y81652D01*
X56407D01*
Y79271D01*
Y75334D01*
X60993D01*
Y75779D01*
X61585Y76616D01*
X62215D01*
X62784Y76235D01*
Y73383D01*
X62070Y72984D01*
X61830Y72946D01*
X61753Y73000D01*
X61589Y73164D01*
X61325Y73341D01*
X61253Y73355D01*
X61006Y73531D01*
X60993Y73778D01*
X56407D01*
Y71621D01*
X56216Y71551D01*
X55216Y72253D01*
Y82427D01*
X55580Y82791D01*
X56407Y83210D01*
X60993D01*
Y87147D01*
Y91060D01*
X60925Y90968D01*
X60905Y91106D01*
X60787Y91674D01*
X60767Y91725D01*
X60747Y91764D01*
X60727Y91790D01*
X60968Y92115D01*
X61001Y92089D01*
X61045Y92068D01*
X61098Y92051D01*
X61161Y92040D01*
X61234Y92033D01*
X61317Y92032D01*
X61410Y92035D01*
X61626Y92055D01*
X61671Y92062D01*
X61736Y92116D01*
X62015D01*
X62784Y91352D01*
D02*
G37*
G36*
X114613Y92656D02*
X114697Y92612D01*
X114785Y92573D01*
X114878Y92540D01*
X114976Y92512D01*
X115078Y92488D01*
X115184Y92470D01*
X115411Y92450D01*
X115532Y92447D01*
Y91647D01*
X115411Y91645D01*
X115184Y91624D01*
X115078Y91606D01*
X114976Y91583D01*
X114878Y91554D01*
X114785Y91521D01*
X114697Y91482D01*
X114613Y91439D01*
X114533Y91390D01*
Y92705D01*
X114613Y92656D01*
D02*
G37*
G36*
X40491Y91592D02*
X40398Y91500D01*
X40123Y91192D01*
X40079Y91130D01*
X40044Y91074D01*
X40020Y91024D01*
X40005Y90979D01*
X40000Y90941D01*
X39600Y90944D01*
X39595Y90982D01*
X39581Y91026D01*
X39556Y91076D01*
X39522Y91133D01*
X39478Y91195D01*
X39361Y91339D01*
X39206Y91508D01*
X39113Y91602D01*
X40491Y91592D01*
D02*
G37*
G36*
X49782Y91652D02*
X49795Y91618D01*
X49815Y91588D01*
X49844Y91562D01*
X49881Y91540D01*
X49927Y91522D01*
X49980Y91508D01*
X50042Y91498D01*
X50112Y91492D01*
X50190Y91490D01*
Y91090D01*
X50112Y91088D01*
X50042Y91082D01*
X49980Y91072D01*
X49927Y91058D01*
X49881Y91040D01*
X49844Y91018D01*
X49815Y90992D01*
X49795Y90962D01*
X49782Y90928D01*
X49778Y90890D01*
Y91690D01*
X49782Y91652D01*
D02*
G37*
G36*
X131242Y91953D02*
X131284Y91921D01*
X131329Y91893D01*
X131378Y91868D01*
X131430Y91847D01*
X131486Y91830D01*
X131545Y91817D01*
X131607Y91808D01*
X131673Y91802D01*
X131741Y91800D01*
Y90800D01*
X131673Y90798D01*
X131607Y90792D01*
X131545Y90783D01*
X131486Y90770D01*
X131430Y90753D01*
X131378Y90732D01*
X131329Y90707D01*
X131284Y90679D01*
X131242Y90647D01*
X131203Y90611D01*
Y91989D01*
X131242Y91953D01*
D02*
G37*
G36*
X129797Y90611D02*
X129758Y90647D01*
X129716Y90679D01*
X129671Y90707D01*
X129622Y90732D01*
X129570Y90753D01*
X129514Y90770D01*
X129455Y90783D01*
X129393Y90792D01*
X129327Y90798D01*
X129259Y90800D01*
Y91800D01*
X129327Y91802D01*
X129393Y91808D01*
X129455Y91817D01*
X129514Y91830D01*
X129570Y91847D01*
X129622Y91868D01*
X129671Y91893D01*
X129716Y91921D01*
X129758Y91953D01*
X129797Y91989D01*
Y90611D01*
D02*
G37*
G36*
X114324Y91368D02*
X114256Y91343D01*
X114196Y91303D01*
X114144Y91246D01*
X114100Y91173D01*
X114064Y91083D01*
X114036Y90978D01*
X114016Y90856D01*
X114004Y90718D01*
X114000Y90564D01*
X113200D01*
X113196Y90718D01*
X113184Y90856D01*
X113164Y90978D01*
X113136Y91083D01*
X113100Y91173D01*
X113056Y91246D01*
X113004Y91303D01*
X112944Y91343D01*
X112876Y91368D01*
X112800Y91376D01*
X114400D01*
X114324Y91368D01*
D02*
G37*
G36*
X25696Y91196D02*
X26006Y90922D01*
X26069Y90878D01*
X26095Y90862D01*
X26112Y90872D01*
X26141Y90898D01*
X26161Y90928D01*
X26174Y90962D01*
X26178Y91000D01*
Y90819D01*
X26219Y90805D01*
X26257Y90800D01*
Y90400D01*
X26219Y90395D01*
X26178Y90381D01*
Y90200D01*
X26174Y90238D01*
X26161Y90272D01*
X26141Y90302D01*
X26112Y90328D01*
X26095Y90338D01*
X26069Y90322D01*
X26006Y90278D01*
X25863Y90160D01*
X25696Y90004D01*
X25603Y89911D01*
Y91289D01*
X25696Y91196D01*
D02*
G37*
G36*
X52690Y89616D02*
X52559Y89616D01*
X52146Y89590D01*
X52070Y89577D01*
X52006Y89561D01*
X51954Y89543D01*
X51912Y89522D01*
X51882Y89499D01*
X51599Y89782D01*
X51622Y89812D01*
X51643Y89854D01*
X51661Y89906D01*
X51677Y89970D01*
X51690Y90046D01*
X51708Y90230D01*
X51716Y90459D01*
X51716Y90590D01*
X52690Y89616D01*
D02*
G37*
G36*
X49782Y89684D02*
X49795Y89649D01*
X49815Y89619D01*
X49844Y89593D01*
X49881Y89571D01*
X49927Y89553D01*
X49980Y89539D01*
X50042Y89530D01*
X50112Y89524D01*
X50190Y89521D01*
Y89122D01*
X50112Y89119D01*
X50042Y89113D01*
X49980Y89104D01*
X49927Y89090D01*
X49881Y89072D01*
X49844Y89050D01*
X49815Y89024D01*
X49795Y88994D01*
X49782Y88959D01*
X49778Y88921D01*
Y89722D01*
X49782Y89684D01*
D02*
G37*
G36*
X56407Y94339D02*
Y93052D01*
X59923D01*
X60371Y92491D01*
X59963Y91496D01*
X56407D01*
Y87138D01*
X55418Y86752D01*
X55034Y86907D01*
X54797Y87143D01*
X54215Y87384D01*
X53585D01*
X53083Y88126D01*
X53050Y88550D01*
X53527Y89228D01*
X53597Y89257D01*
X54043Y89703D01*
X54284Y90285D01*
Y90915D01*
X54043Y91497D01*
X53597Y91943D01*
X53655Y93002D01*
X55407Y94753D01*
X56407Y94339D01*
D02*
G37*
G36*
X52234Y86747D02*
X51479Y86096D01*
X51084Y86266D01*
X51116Y86306D01*
X51137Y86348D01*
X51148Y86392D01*
X51148Y86440D01*
X51137Y86490D01*
X51116Y86544D01*
X51084Y86600D01*
X51041Y86659D01*
X50987Y86721D01*
X50922Y86786D01*
X52234Y86747D01*
D02*
G37*
G36*
X172693Y91859D02*
X172748Y91872D01*
X172800Y91851D01*
X203149D01*
X203900Y91100D01*
Y87508D01*
X203899Y87499D01*
X202205Y85805D01*
X202015Y85884D01*
X201385D01*
X201182Y85800D01*
X175402D01*
X172351Y87062D01*
X169419Y88274D01*
X169419Y88274D01*
X169300Y88323D01*
Y88452D01*
X169300Y88452D01*
Y91871D01*
X169353Y92000D01*
X171850D01*
X172693Y91859D01*
D02*
G37*
G36*
X57019Y85790D02*
X57015Y85788D01*
X57003Y85786D01*
X56983Y85784D01*
X56875Y85780D01*
X56619Y85778D01*
Y86178D01*
X56695Y86180D01*
X56763Y86186D01*
X56823Y86196D01*
X56875Y86210D01*
X56919Y86228D01*
X56955Y86250D01*
X56983Y86276D01*
X57003Y86306D01*
X57015Y86340D01*
X57019Y86378D01*
Y85790D01*
D02*
G37*
G36*
X109908Y87101D02*
X109861Y87051D01*
X109819Y87001D01*
X109783Y86949D01*
X109752Y86898D01*
X109727Y86846D01*
X109707Y86794D01*
X109692Y86741D01*
X109683Y86688D01*
X109679Y86634D01*
X109681Y86580D01*
X108630Y86570D01*
X108619Y85519D01*
X108565Y85521D01*
X108512Y85517D01*
X108459Y85508D01*
X108406Y85493D01*
X108354Y85473D01*
X108302Y85448D01*
X108250Y85417D01*
X108200Y85381D01*
X108196Y85378D01*
X107915Y85046D01*
X107805Y84886D01*
X107721Y84740D01*
X107665Y84608D01*
X107637Y84489D01*
X107635Y84383D01*
X107662Y84291D01*
X107715Y84213D01*
X106359Y85662D01*
X106434Y85604D01*
X106522Y85574D01*
X106624Y85572D01*
X106741Y85598D01*
X106871Y85652D01*
X107016Y85734D01*
X107175Y85844D01*
X107348Y85983D01*
X107554Y86174D01*
X107580Y86209D01*
X107614Y86259D01*
X107643Y86309D01*
X107668Y86360D01*
X107687Y86410D01*
X107702Y86460D01*
X107712Y86511D01*
X107718Y86561D01*
X108630Y86570D01*
X108639Y87482D01*
X108689Y87488D01*
X108740Y87498D01*
X108790Y87513D01*
X108840Y87533D01*
X108891Y87557D01*
X108941Y87586D01*
X108991Y87620D01*
X109041Y87658D01*
X109092Y87701D01*
X109142Y87749D01*
X109908Y87101D01*
D02*
G37*
G36*
X49782Y85747D02*
X49795Y85712D01*
X49815Y85682D01*
X49844Y85656D01*
X49881Y85634D01*
X49927Y85616D01*
X49980Y85602D01*
X50042Y85593D01*
X50112Y85587D01*
X50190Y85584D01*
Y85185D01*
X50112Y85182D01*
X50042Y85176D01*
X49980Y85167D01*
X49927Y85153D01*
X49881Y85135D01*
X49844Y85113D01*
X49815Y85087D01*
X49795Y85057D01*
X49782Y85022D01*
X49778Y84984D01*
Y85785D01*
X49782Y85747D01*
D02*
G37*
G36*
X53961Y84818D02*
X53826Y84808D01*
X53329Y84740D01*
X53265Y84723D01*
X53213Y84703D01*
X53172Y84683D01*
X53144Y84661D01*
X52840Y84923D01*
X52865Y84955D01*
X52886Y84998D01*
X52903Y85051D01*
X52917Y85115D01*
X52927Y85189D01*
X52933Y85274D01*
X52933Y85475D01*
X52919Y85720D01*
X53961Y84818D01*
D02*
G37*
G36*
X57019Y84000D02*
X57015Y84038D01*
X57003Y84072D01*
X56983Y84102D01*
X56955Y84128D01*
X56919Y84150D01*
X56875Y84168D01*
X56823Y84182D01*
X56763Y84192D01*
X56695Y84198D01*
X56619Y84200D01*
Y84600D01*
X56695Y84602D01*
X56763Y84608D01*
X56823Y84618D01*
X56875Y84632D01*
X56919Y84650D01*
X56955Y84672D01*
X56983Y84698D01*
X57003Y84728D01*
X57015Y84762D01*
X57019Y84800D01*
Y84000D01*
D02*
G37*
G36*
X103686Y84837D02*
X103693Y84785D01*
X103705Y84733D01*
X103723Y84681D01*
X103745Y84629D01*
X103772Y84578D01*
X103804Y84527D01*
X103842Y84476D01*
X103884Y84426D01*
X103931Y84376D01*
X103224Y83669D01*
X103174Y83716D01*
X103124Y83758D01*
X103073Y83796D01*
X103022Y83828D01*
X102971Y83855D01*
X102919Y83877D01*
X102867Y83895D01*
X102815Y83907D01*
X102763Y83914D01*
X102710Y83916D01*
X103684Y84890D01*
X103686Y84837D01*
D02*
G37*
G36*
X49782Y83778D02*
X49795Y83744D01*
X49815Y83714D01*
X49844Y83688D01*
X49881Y83666D01*
X49927Y83648D01*
X49980Y83634D01*
X50042Y83624D01*
X50112Y83618D01*
X50190Y83616D01*
Y83216D01*
X50112Y83214D01*
X50042Y83208D01*
X49980Y83198D01*
X49927Y83184D01*
X49881Y83166D01*
X49844Y83144D01*
X49815Y83118D01*
X49795Y83088D01*
X49782Y83054D01*
X49778Y83016D01*
Y83816D01*
X49782Y83778D01*
D02*
G37*
G36*
X27808Y82936D02*
X27774Y82924D01*
X27744Y82903D01*
X27718Y82874D01*
X27696Y82837D01*
X27678Y82792D01*
X27664Y82738D01*
X27654Y82676D01*
X27648Y82606D01*
X27646Y82528D01*
X27246D01*
X27244Y82606D01*
X27238Y82676D01*
X27228Y82738D01*
X27214Y82792D01*
X27196Y82837D01*
X27174Y82874D01*
X27148Y82903D01*
X27118Y82924D01*
X27084Y82936D01*
X27046Y82940D01*
X27846D01*
X27808Y82936D01*
D02*
G37*
G36*
X34093Y83027D02*
X34000Y83020D01*
X33916Y82989D01*
X33842Y82936D01*
X33778Y82860D01*
X33723Y82762D01*
X33679Y82640D01*
X33644Y82496D01*
X33620Y82330D01*
X33605Y82140D01*
X33600Y81928D01*
X32600D01*
X32595Y82148D01*
X32580Y82344D01*
X32556Y82518D01*
X32521Y82670D01*
X32477Y82798D01*
X32422Y82904D01*
X32358Y82987D01*
X32284Y83047D01*
X32200Y83085D01*
X32107Y83100D01*
X34093Y83027D01*
D02*
G37*
G36*
X61247Y79863D02*
X61145Y79952D01*
X60746Y80256D01*
X60689Y80289D01*
X60638Y80312D01*
X60615Y80320D01*
X60571Y80313D01*
X60517Y80299D01*
X60472Y80281D01*
X60435Y80259D01*
X60406Y80233D01*
X60385Y80203D01*
X60373Y80169D01*
X60369Y80131D01*
Y80931D01*
X60373Y80893D01*
X60385Y80859D01*
X60406Y80829D01*
X60435Y80803D01*
X60472Y80781D01*
X60517Y80763D01*
X60571Y80749D01*
X60597Y80745D01*
X60616Y80751D01*
X60666Y80777D01*
X60720Y80812D01*
X60780Y80858D01*
X60844Y80913D01*
X60988Y81055D01*
X61150Y81238D01*
X61247Y79863D01*
D02*
G37*
G36*
X30397Y80511D02*
X30304Y80604D01*
X29994Y80878D01*
X29931Y80922D01*
X29875Y80956D01*
X29825Y80980D01*
X29781Y80995D01*
X29743Y81000D01*
Y81400D01*
X29781Y81405D01*
X29825Y81420D01*
X29875Y81444D01*
X29931Y81478D01*
X29994Y81522D01*
X30137Y81640D01*
X30304Y81796D01*
X30397Y81889D01*
Y80511D01*
D02*
G37*
G36*
X61102Y77623D02*
X61028Y77723D01*
X60828Y77958D01*
X60769Y78016D01*
X60712Y78063D01*
X60660Y78100D01*
X60611Y78126D01*
X60592Y78132D01*
X60571Y78129D01*
X60517Y78115D01*
X60472Y78097D01*
X60435Y78075D01*
X60406Y78049D01*
X60385Y78019D01*
X60373Y77985D01*
X60369Y77947D01*
Y78747D01*
X60373Y78709D01*
X60385Y78675D01*
X60406Y78645D01*
X60435Y78619D01*
X60472Y78597D01*
X60517Y78579D01*
X60571Y78565D01*
X60630Y78555D01*
X60659Y78564D01*
X60709Y78586D01*
X60768Y78617D01*
X60912Y78705D01*
X61092Y78828D01*
X61308Y78986D01*
X61102Y77623D01*
D02*
G37*
G36*
X95602Y103699D02*
Y102664D01*
X95718Y102084D01*
X96046Y101593D01*
X96538Y101264D01*
X97117Y101149D01*
X99283D01*
X99862Y101264D01*
X100015Y101366D01*
X101817Y99564D01*
X101873Y99401D01*
X101874Y99395D01*
X101707Y98260D01*
X101323Y97877D01*
X101146Y97612D01*
X101084Y97300D01*
X101084Y97300D01*
Y95874D01*
X100632Y94958D01*
X98368D01*
X97884Y94862D01*
X97474Y94588D01*
X97200Y94178D01*
X97104Y93694D01*
Y92414D01*
X97200Y91931D01*
X97474Y91521D01*
X97884Y91247D01*
X98368Y91150D01*
X100632D01*
X101116Y91247D01*
X101526Y91521D01*
X101639Y91690D01*
X102093Y91696D01*
X102665Y91545D01*
X102707Y91334D01*
X102916Y91022D01*
X103228Y90813D01*
X103596Y90740D01*
X105230D01*
X105670Y90598D01*
X105797Y90212D01*
X106006Y89900D01*
X106012Y89896D01*
Y89868D01*
X106089Y89478D01*
X106310Y89148D01*
X106979Y88479D01*
X107006Y88461D01*
X107298Y87576D01*
X107292Y87242D01*
X107116Y86815D01*
Y86602D01*
X106811Y86298D01*
X105065D01*
X104485Y86182D01*
X103993Y85854D01*
X103987Y85853D01*
X103597Y86243D01*
X103015Y86484D01*
X102385D01*
X101803Y86243D01*
X101357Y85797D01*
X101116Y85215D01*
Y84585D01*
X101357Y84003D01*
X101803Y83557D01*
X102385Y83316D01*
X102698D01*
X103007Y83007D01*
X103007Y83007D01*
X103371Y82764D01*
X103550Y82728D01*
Y82617D01*
X103665Y82038D01*
X103993Y81546D01*
X104485Y81218D01*
X105065Y81102D01*
X106836D01*
X107416Y81218D01*
X107907Y81546D01*
X108236Y82038D01*
X108351Y82617D01*
Y84665D01*
X108602Y84916D01*
X109015D01*
X109597Y85157D01*
X110043Y85603D01*
X110284Y86185D01*
Y86598D01*
X110365Y86678D01*
X120400D01*
X120400Y86678D01*
X120829Y86764D01*
X121193Y87007D01*
X124365Y90178D01*
X126300D01*
X126433Y89178D01*
X126331Y89151D01*
X126284Y89115D01*
X126226Y89107D01*
X125252Y88538D01*
X125217Y88491D01*
X125162Y88468D01*
X124371Y87665D01*
X124349Y87610D01*
X124303Y87574D01*
X124030Y87090D01*
X123382Y86033D01*
X121859Y84069D01*
X120072Y82353D01*
X118055Y80915D01*
X115850Y79786D01*
X113504Y78990D01*
X111068Y78544D01*
X108592Y78457D01*
X106130Y78731D01*
X103734Y79360D01*
X101455Y80331D01*
X99342Y81624D01*
X97439Y83210D01*
X95788Y85056D01*
X94422Y87123D01*
X93372Y89367D01*
X93044Y90457D01*
X93230Y90752D01*
X93831Y91316D01*
X94215D01*
X94797Y91557D01*
X95243Y92003D01*
X95484Y92585D01*
Y93215D01*
X95243Y93797D01*
Y94703D01*
X95361Y94986D01*
X95484Y95285D01*
Y95915D01*
X95243Y96497D01*
X94797Y96943D01*
X94215Y97184D01*
X93585D01*
X93374Y97097D01*
X92479Y97681D01*
X92454Y97716D01*
X92661Y99118D01*
X93375Y101490D01*
X94426Y103733D01*
X94602Y104000D01*
X95602Y103699D01*
D02*
G37*
G36*
X33605Y79160D02*
X33620Y78970D01*
X33644Y78804D01*
X33679Y78660D01*
X33723Y78538D01*
X33778Y78440D01*
X33842Y78364D01*
X33916Y78311D01*
X34000Y78280D01*
X34093Y78272D01*
X32107Y78200D01*
X32200Y78215D01*
X32284Y78253D01*
X32358Y78313D01*
X32422Y78396D01*
X32477Y78502D01*
X32521Y78631D01*
X32556Y78782D01*
X32580Y78956D01*
X32595Y79153D01*
X32600Y79372D01*
X33600D01*
X33605Y79160D01*
D02*
G37*
G36*
X46428Y77109D02*
X46424Y77147D01*
X46413Y77181D01*
X46393Y77211D01*
X46365Y77237D01*
X46328Y77259D01*
X46284Y77277D01*
X46233Y77291D01*
X46172Y77301D01*
X46104Y77307D01*
X46029Y77309D01*
Y77709D01*
X46104Y77711D01*
X46172Y77717D01*
X46233Y77727D01*
X46284Y77741D01*
X46328Y77759D01*
X46365Y77781D01*
X46393Y77807D01*
X46413Y77837D01*
X46424Y77871D01*
X46428Y77909D01*
Y77109D01*
D02*
G37*
G36*
X40403Y77204D02*
X40129Y76894D01*
X40085Y76831D01*
X40051Y76775D01*
X40027Y76725D01*
X40012Y76681D01*
X40007Y76643D01*
X39607D01*
X39602Y76681D01*
X39587Y76725D01*
X39563Y76775D01*
X39529Y76831D01*
X39485Y76894D01*
X39367Y77037D01*
X39211Y77204D01*
X39118Y77297D01*
X40496D01*
X40403Y77204D01*
D02*
G37*
G36*
X46428Y75140D02*
X46424Y75178D01*
X46413Y75212D01*
X46393Y75242D01*
X46365Y75268D01*
X46328Y75290D01*
X46284Y75308D01*
X46233Y75322D01*
X46172Y75332D01*
X46104Y75338D01*
X46029Y75340D01*
Y75740D01*
X46104Y75742D01*
X46172Y75748D01*
X46233Y75758D01*
X46284Y75772D01*
X46328Y75790D01*
X46365Y75812D01*
X46393Y75838D01*
X46413Y75868D01*
X46424Y75902D01*
X46428Y75940D01*
Y75140D01*
D02*
G37*
G36*
X28700Y75594D02*
X28695Y75553D01*
X28700Y75507D01*
X28713Y75459D01*
X28736Y75406D01*
X28768Y75349D01*
X28810Y75289D01*
X28860Y75225D01*
X28920Y75157D01*
X28989Y75086D01*
X28794Y74715D01*
X28724Y74782D01*
X28600Y74884D01*
X28546Y74918D01*
X28497Y74942D01*
X28454Y74954D01*
X28416Y74956D01*
X28384Y74946D01*
X28357Y74926D01*
X28335Y74894D01*
X28714Y75632D01*
X28700Y75594D01*
D02*
G37*
G36*
X29047Y75035D02*
X29091Y75014D01*
X29144Y74998D01*
X29206Y74989D01*
X29277Y74986D01*
X29358Y74989D01*
X29448Y74997D01*
X29655Y75032D01*
X29772Y75058D01*
X29038Y73892D01*
X29007Y74033D01*
X28832Y74654D01*
X28813Y74690D01*
X28796Y74713D01*
X29013Y75061D01*
X29047Y75035D01*
D02*
G37*
G36*
X34093Y74928D02*
X34000Y74920D01*
X33916Y74889D01*
X33842Y74836D01*
X33778Y74760D01*
X33723Y74662D01*
X33679Y74540D01*
X33644Y74396D01*
X33620Y74230D01*
X33605Y74040D01*
X33600Y73828D01*
X32600D01*
X32595Y74047D01*
X32580Y74244D01*
X32556Y74418D01*
X32521Y74569D01*
X32477Y74698D01*
X32422Y74804D01*
X32358Y74887D01*
X32284Y74947D01*
X32200Y74985D01*
X32107Y75000D01*
X34093Y74928D01*
D02*
G37*
G36*
X46428Y73172D02*
X46424Y73210D01*
X46413Y73244D01*
X46393Y73274D01*
X46365Y73300D01*
X46328Y73322D01*
X46284Y73340D01*
X46233Y73354D01*
X46172Y73364D01*
X46104Y73370D01*
X46029Y73372D01*
Y73772D01*
X46104Y73774D01*
X46172Y73780D01*
X46233Y73790D01*
X46284Y73804D01*
X46328Y73822D01*
X46365Y73844D01*
X46393Y73870D01*
X46413Y73900D01*
X46424Y73934D01*
X46428Y73972D01*
Y73172D01*
D02*
G37*
G36*
X33605Y73260D02*
X33620Y73070D01*
X33644Y72904D01*
X33679Y72760D01*
X33723Y72638D01*
X33778Y72540D01*
X33842Y72464D01*
X33916Y72411D01*
X34000Y72380D01*
X34093Y72373D01*
X32107Y72300D01*
X32200Y72315D01*
X32284Y72353D01*
X32358Y72413D01*
X32422Y72496D01*
X32477Y72602D01*
X32521Y72730D01*
X32556Y72882D01*
X32580Y73056D01*
X32595Y73252D01*
X32600Y73472D01*
X33600D01*
X33605Y73260D01*
D02*
G37*
G36*
X60373Y72950D02*
X60385Y72916D01*
X60406Y72886D01*
X60435Y72860D01*
X60472Y72838D01*
X60517Y72820D01*
X60571Y72806D01*
X60633Y72796D01*
X60703Y72790D01*
X60781Y72788D01*
Y72388D01*
X60703Y72386D01*
X60633Y72380D01*
X60571Y72370D01*
X60517Y72356D01*
X60472Y72338D01*
X60435Y72316D01*
X60406Y72290D01*
X60385Y72260D01*
X60373Y72226D01*
X60369Y72188D01*
Y72988D01*
X60373Y72950D01*
D02*
G37*
G36*
X46428Y71152D02*
X46424Y71190D01*
X46413Y71224D01*
X46393Y71254D01*
X46365Y71280D01*
X46328Y71302D01*
X46284Y71320D01*
X46233Y71334D01*
X46172Y71344D01*
X46104Y71350D01*
X46029Y71352D01*
Y71752D01*
X46104Y71754D01*
X46172Y71760D01*
X46233Y71770D01*
X46284Y71784D01*
X46328Y71802D01*
X46365Y71824D01*
X46393Y71850D01*
X46413Y71880D01*
X46424Y71914D01*
X46428Y71952D01*
Y71152D01*
D02*
G37*
G36*
X44665Y72135D02*
X44993Y71870D01*
X45058Y71827D01*
X45115Y71794D01*
X45166Y71771D01*
X45209Y71756D01*
X45245Y71752D01*
X45267Y71352D01*
X45227Y71347D01*
X45182Y71332D01*
X45132Y71307D01*
X45077Y71271D01*
X45017Y71226D01*
X44952Y71171D01*
X44805Y71030D01*
X44638Y70849D01*
X44566Y72225D01*
X44665Y72135D01*
D02*
G37*
G36*
X28718Y71062D02*
X28730Y71028D01*
X28751Y70998D01*
X28779Y70972D01*
X28817Y70950D01*
X28862Y70932D01*
X28915Y70918D01*
X28977Y70908D01*
X29047Y70902D01*
X29125Y70900D01*
Y70500D01*
X29047Y70498D01*
X28977Y70492D01*
X28915Y70482D01*
X28862Y70468D01*
X28817Y70450D01*
X28779Y70428D01*
X28751Y70402D01*
X28730Y70372D01*
X28718Y70338D01*
X28714Y70300D01*
Y71100D01*
X28718Y71062D01*
D02*
G37*
G36*
X57606Y70053D02*
X57575Y70073D01*
X57539Y70082D01*
X57496Y70081D01*
X57448Y70068D01*
X57394Y70044D01*
X57335Y70009D01*
X57270Y69963D01*
X57226Y69928D01*
X57214Y69902D01*
X57197Y69849D01*
X57183Y69785D01*
X57173Y69711D01*
X57167Y69626D01*
X57167Y69425D01*
X57181Y69181D01*
X56139Y70082D01*
X56274Y70092D01*
X56771Y70160D01*
X56835Y70177D01*
X56887Y70196D01*
X56905Y70206D01*
X56946Y70253D01*
X56993Y70319D01*
X57028Y70378D01*
X57051Y70432D01*
X57064Y70479D01*
X57064Y70521D01*
X57054Y70556D01*
X57031Y70585D01*
X57606Y70053D01*
D02*
G37*
G36*
X30401Y68118D02*
X30378Y68088D01*
X30357Y68046D01*
X30339Y67994D01*
X30323Y67930D01*
X30310Y67854D01*
X30292Y67670D01*
X30284Y67441D01*
X30284Y67310D01*
X29310Y68284D01*
X29441Y68284D01*
X29854Y68310D01*
X29930Y68323D01*
X29994Y68339D01*
X30046Y68357D01*
X30088Y68378D01*
X30118Y68401D01*
X30401Y68118D01*
D02*
G37*
G36*
X34093Y69028D02*
X34000Y69020D01*
X33916Y68989D01*
X33842Y68936D01*
X33778Y68860D01*
X33723Y68762D01*
X33679Y68640D01*
X33644Y68496D01*
X33620Y68330D01*
X33605Y68140D01*
X33600Y67928D01*
X32600D01*
X32595Y68147D01*
X32580Y68344D01*
X32556Y68518D01*
X32521Y68669D01*
X32477Y68798D01*
X32422Y68904D01*
X32358Y68987D01*
X32284Y69047D01*
X32200Y69085D01*
X32107Y69100D01*
X34093Y69028D01*
D02*
G37*
G36*
X33605Y65360D02*
X33620Y65170D01*
X33644Y65004D01*
X33679Y64860D01*
X33723Y64738D01*
X33778Y64640D01*
X33842Y64564D01*
X33916Y64511D01*
X34000Y64480D01*
X34093Y64473D01*
X32107Y64400D01*
X32200Y64415D01*
X32284Y64453D01*
X32358Y64513D01*
X32422Y64596D01*
X32477Y64702D01*
X32521Y64830D01*
X32556Y64982D01*
X32580Y65156D01*
X32595Y65352D01*
X32600Y65572D01*
X33600D01*
X33605Y65360D01*
D02*
G37*
G36*
X62905Y63619D02*
X62920Y63575D01*
X62944Y63525D01*
X62978Y63469D01*
X63022Y63406D01*
X63140Y63263D01*
X63296Y63096D01*
X63389Y63003D01*
X62011D01*
X62104Y63096D01*
X62378Y63406D01*
X62422Y63469D01*
X62456Y63525D01*
X62480Y63575D01*
X62495Y63619D01*
X62500Y63657D01*
X62900D01*
X62905Y63619D01*
D02*
G37*
G36*
X27623Y61038D02*
X27618Y61030D01*
X27614Y61018D01*
X27610Y61002D01*
X27607Y60980D01*
X27602Y60922D01*
X27600Y60800D01*
X27200D01*
X27200Y60846D01*
X27190Y61002D01*
X27186Y61018D01*
X27182Y61030D01*
X27177Y61038D01*
X27172Y61040D01*
X27628D01*
X27623Y61038D01*
D02*
G37*
G36*
X87337Y48209D02*
X87457Y46997D01*
X87216Y46415D01*
Y45785D01*
X87281Y45627D01*
X85794Y41541D01*
X85794D01*
X85189Y40902D01*
X85084Y40835D01*
X84313Y40738D01*
X83695Y41594D01*
X84095Y42160D01*
X84332Y42073D01*
X85900Y46382D01*
X83663Y47197D01*
X83663Y47197D01*
X81813Y47870D01*
X80620Y44593D01*
X79877Y44548D01*
X79258Y45398D01*
X80351Y48402D01*
X80351D01*
X80843Y49003D01*
X81084Y49585D01*
Y50215D01*
X80843Y50797D01*
X80397Y51243D01*
X79815Y51484D01*
X79185Y51485D01*
X79084Y52115D01*
X78843Y52697D01*
X78397Y53143D01*
X77815Y53384D01*
X77185D01*
X76603Y53143D01*
X76157Y52697D01*
X75916Y52115D01*
Y51485D01*
X76157Y50903D01*
X76246Y50814D01*
X76264Y49890D01*
X76264Y49890D01*
X74695Y45581D01*
X75424Y45316D01*
X75247Y44316D01*
X69138D01*
X55216Y58238D01*
Y66711D01*
X55885Y67516D01*
X56515D01*
X57097Y67757D01*
X57543Y68203D01*
X57784Y68785D01*
Y69415D01*
X57793Y69429D01*
X60993D01*
Y69429D01*
X61884Y69166D01*
Y63677D01*
X61803Y63643D01*
X61357Y63197D01*
X61116Y62615D01*
Y61985D01*
X61357Y61403D01*
X61803Y60957D01*
X62385Y60716D01*
X63015D01*
X63597Y60957D01*
X64043Y61403D01*
X64284Y61985D01*
Y62615D01*
X64043Y63197D01*
X63597Y63643D01*
X63516Y63677D01*
Y70617D01*
X64230Y71016D01*
X64489Y71057D01*
X87337Y48209D01*
D02*
G37*
G36*
X34093Y61128D02*
X34000Y61120D01*
X33916Y61089D01*
X33842Y61036D01*
X33778Y60960D01*
X33723Y60862D01*
X33679Y60740D01*
X33644Y60596D01*
X33620Y60430D01*
X33605Y60240D01*
X33600Y60028D01*
X32600D01*
X32595Y60247D01*
X32580Y60444D01*
X32556Y60618D01*
X32521Y60769D01*
X32477Y60898D01*
X32422Y61004D01*
X32358Y61087D01*
X32284Y61147D01*
X32200Y61185D01*
X32107Y61200D01*
X34093Y61128D01*
D02*
G37*
G36*
X29697Y59711D02*
X29604Y59804D01*
X29294Y60078D01*
X29231Y60122D01*
X29175Y60156D01*
X29125Y60180D01*
X29081Y60195D01*
X29043Y60200D01*
Y60600D01*
X29081Y60605D01*
X29125Y60620D01*
X29175Y60644D01*
X29231Y60678D01*
X29294Y60722D01*
X29437Y60840D01*
X29604Y60996D01*
X29697Y61089D01*
Y59711D01*
D02*
G37*
G36*
X33605Y59657D02*
X33620Y59484D01*
X33645Y59332D01*
X33680Y59200D01*
X33725Y59088D01*
X33780Y58997D01*
X33845Y58927D01*
X33920Y58877D01*
X34005Y58847D01*
X34100Y58838D01*
X32102Y58817D01*
X32196Y58828D01*
X32281Y58860D01*
X32356Y58912D01*
X32421Y58985D01*
X32475Y59078D01*
X32520Y59191D01*
X32555Y59325D01*
X32580Y59480D01*
X32595Y59655D01*
X32600Y59850D01*
X33600D01*
X33605Y59657D01*
D02*
G37*
G36*
X65553Y89475D02*
X65563Y89457D01*
X65558Y89437D01*
X66271Y85548D01*
X66282Y85530D01*
X66279Y85509D01*
X67340Y81701D01*
X67353Y81685D01*
X67352Y81664D01*
X68754Y77967D01*
X68768Y77952D01*
X68769Y77931D01*
X70499Y74376D01*
X70515Y74362D01*
X70518Y74341D01*
X72562Y70958D01*
X72579Y70945D01*
X72584Y70925D01*
X74926Y67740D01*
X74944Y67729D01*
X74951Y67709D01*
X77571Y64749D01*
X77590Y64740D01*
X77599Y64721D01*
X80476Y62011D01*
X80496Y62003D01*
X80506Y61985D01*
X83618Y59546D01*
X83637Y59540D01*
X83649Y59523D01*
X86969Y57375D01*
X86989Y57371D01*
X87002Y57355D01*
X90502Y55517D01*
X90523Y55515D01*
X90538Y55500D01*
X94190Y53986D01*
X94210Y53985D01*
X94226Y53972D01*
X98000Y52794D01*
X98021Y52796D01*
X98038Y52784D01*
X101903Y51952D01*
X101924Y51956D01*
X101942Y51946D01*
X105866Y51468D01*
X105886Y51473D01*
X105905Y51464D01*
X109857Y51343D01*
X109877Y51350D01*
X109896Y51344D01*
X113843Y51580D01*
X113862Y51589D01*
X113882Y51584D01*
X117791Y52177D01*
X117808Y52188D01*
X117829Y52184D01*
X121668Y53128D01*
X121685Y53140D01*
X121706Y53139D01*
X125444Y54426D01*
X125460Y54440D01*
X125480Y54441D01*
X129087Y56061D01*
X129101Y56076D01*
X129122Y56079D01*
X132566Y58018D01*
X132579Y58035D01*
X132600Y58039D01*
X135855Y60283D01*
X135866Y60300D01*
X135886Y60307D01*
X137197Y61397D01*
X137872Y60658D01*
X131635Y54422D01*
X128600D01*
X128600Y54422D01*
X128171Y54336D01*
X127807Y54093D01*
X127807Y54093D01*
X122107Y48393D01*
X121864Y48029D01*
X121778Y47600D01*
X121778Y47600D01*
Y26065D01*
X118035Y22321D01*
X105113D01*
X104730Y23245D01*
X106577Y25092D01*
X106577Y25092D01*
X106754Y25357D01*
X106816Y25669D01*
X106816Y25669D01*
Y29809D01*
X106754Y30121D01*
X106577Y30386D01*
X106577Y30386D01*
X102558Y34404D01*
X102830Y35341D01*
X102830Y35341D01*
X104398Y39650D01*
X100311Y41137D01*
X98743Y36828D01*
X99884Y36413D01*
Y33977D01*
X99884Y33977D01*
X99911Y33843D01*
X99346Y32985D01*
X98470Y32917D01*
X98153Y33274D01*
X98143Y33297D01*
X97697Y33743D01*
X97115Y33984D01*
X96514Y34527D01*
Y35157D01*
X96273Y35740D01*
X96041Y35971D01*
X96128Y37061D01*
X96787Y37540D01*
X97281Y37360D01*
X98849Y41670D01*
X96999Y42343D01*
Y42343D01*
X94762Y43157D01*
X93300Y43689D01*
X92431Y44006D01*
X91450Y44363D01*
X90834Y44587D01*
X90384Y45785D01*
Y46415D01*
X90765Y46984D01*
X110123D01*
X110157Y46903D01*
X110603Y46457D01*
X111185Y46216D01*
X111815D01*
X112397Y46457D01*
X112843Y46903D01*
X113084Y47485D01*
Y48115D01*
X112843Y48697D01*
X112397Y49143D01*
X111815Y49384D01*
X111185D01*
X110603Y49143D01*
X110157Y48697D01*
X110123Y48616D01*
X89238D01*
X64416Y73438D01*
Y90946D01*
X65416Y90991D01*
X65553Y89475D01*
D02*
G37*
G36*
X35486Y55585D02*
X35495Y55457D01*
X35522Y55326D01*
X35567Y55190D01*
X35630Y55051D01*
X35711Y54907D01*
X35810Y54760D01*
X35926Y54609D01*
X36061Y54453D01*
X36213Y54294D01*
X36139Y52954D01*
X35966Y53120D01*
X35668Y53362D01*
X35544Y53436D01*
X35436Y53481D01*
X35344Y53495D01*
X35269Y53478D01*
X35211Y53431D01*
X35168Y53354D01*
X35143Y53245D01*
X35494Y55708D01*
X35486Y55585D01*
D02*
G37*
G36*
X77974Y50937D02*
X77916Y50903D01*
X77864Y50868D01*
X77819Y50831D01*
X77779Y50792D01*
X77746Y50752D01*
X77718Y50711D01*
X77697Y50668D01*
X77682Y50623D01*
X77673Y50578D01*
X77670Y50530D01*
X77270D01*
X77267Y50580D01*
X77258Y50628D01*
X77243Y50675D01*
X77222Y50721D01*
X77196Y50765D01*
X77163Y50808D01*
X77125Y50850D01*
X77080Y50891D01*
X77030Y50930D01*
X76974Y50968D01*
X77974Y50937D01*
D02*
G37*
G36*
X77410Y49245D02*
X77393Y49169D01*
X77381Y49099D01*
X77375Y49035D01*
X77375Y48978D01*
X77381Y48928D01*
X77392Y48885D01*
X77409Y48848D01*
X77433Y48818D01*
X77461Y48794D01*
X77496Y48777D01*
X76741Y49052D01*
X76778Y49043D01*
X76813Y49043D01*
X76847Y49053D01*
X76878Y49072D01*
X76909Y49100D01*
X76937Y49138D01*
X76963Y49185D01*
X76988Y49242D01*
X77011Y49307D01*
X77032Y49382D01*
X77410Y49245D01*
D02*
G37*
G36*
X79956Y49027D02*
X79840Y48966D01*
X79488Y48748D01*
X79427Y48701D01*
X79378Y48657D01*
X79340Y48616D01*
X79313Y48578D01*
X79299Y48545D01*
X79281Y48482D01*
X79267Y48413D01*
X79258Y48351D01*
X79256Y48294D01*
X79260Y48245D01*
X79269Y48202D01*
X79285Y48166D01*
X79308Y48136D01*
X79336Y48112D01*
X79370Y48095D01*
X78618Y48369D01*
X78655Y48360D01*
X78690Y48360D01*
X78724Y48370D01*
X78758Y48388D01*
X78789Y48416D01*
X78819Y48453D01*
X78848Y48500D01*
X78875Y48556D01*
X78901Y48621D01*
X78916Y48665D01*
X78921Y48697D01*
X78920Y48743D01*
X78911Y48798D01*
X78895Y48862D01*
X78871Y48935D01*
X78800Y49106D01*
X78699Y49311D01*
X78637Y49427D01*
X79956Y49027D01*
D02*
G37*
G36*
X110797Y47111D02*
X110704Y47204D01*
X110394Y47478D01*
X110331Y47522D01*
X110275Y47556D01*
X110225Y47580D01*
X110181Y47595D01*
X110143Y47600D01*
Y48000D01*
X110181Y48005D01*
X110225Y48020D01*
X110275Y48044D01*
X110331Y48078D01*
X110394Y48122D01*
X110537Y48240D01*
X110704Y48396D01*
X110797Y48489D01*
Y47111D01*
D02*
G37*
G36*
X128949Y45738D02*
X128940Y45813D01*
X128912Y45880D01*
X128866Y45939D01*
X128801Y45990D01*
X128717Y46033D01*
X128615Y46069D01*
X128495Y46096D01*
X128356Y46116D01*
X128198Y46128D01*
X128022Y46132D01*
Y46931D01*
X128198Y46935D01*
X128356Y46947D01*
X128495Y46967D01*
X128615Y46994D01*
X128717Y47030D01*
X128801Y47073D01*
X128866Y47124D01*
X128912Y47183D01*
X128940Y47250D01*
X128949Y47325D01*
Y45738D01*
D02*
G37*
G36*
X89184Y45194D02*
X89064Y45141D01*
X88696Y44953D01*
X88632Y44911D01*
X88585Y44875D01*
X88585Y44870D01*
X88593Y44830D01*
X88608Y44796D01*
X88629Y44767D01*
X88656Y44745D01*
X88691Y44728D01*
X88507Y44795D01*
X88490Y44763D01*
X88117Y44910D01*
X88124Y44935D01*
X87939Y45002D01*
X87976Y44993D01*
X88012Y44992D01*
X88047Y45000D01*
X88082Y45016D01*
X88115Y45041D01*
X88125Y45051D01*
X88114Y45114D01*
X88096Y45188D01*
X88039Y45364D01*
X87954Y45577D01*
X87902Y45698D01*
X89184Y45194D01*
D02*
G37*
G36*
X81725Y43686D02*
X81683Y43697D01*
X81639Y43700D01*
X81594Y43696D01*
X81547Y43685D01*
X81498Y43667D01*
X81448Y43642D01*
X81396Y43609D01*
X81343Y43569D01*
X81287Y43522D01*
X81230Y43468D01*
X80838Y43641D01*
X80865Y43669D01*
X80913Y43725D01*
X80935Y43753D01*
X80973Y43810D01*
X80989Y43839D01*
X81018Y43897D01*
X81029Y43927D01*
X81725Y43686D01*
D02*
G37*
G36*
X83588Y43008D02*
X83546Y43019D01*
X83503Y43022D01*
X83458Y43018D01*
X83411Y43007D01*
X83362Y42989D01*
X83312Y42963D01*
X83260Y42931D01*
X83206Y42891D01*
X83151Y42844D01*
X83094Y42789D01*
X82679Y42940D01*
X82705Y42968D01*
X82754Y43025D01*
X82776Y43055D01*
X82816Y43118D01*
X82834Y43150D01*
X82865Y43218D01*
X82879Y43253D01*
X83588Y43008D01*
D02*
G37*
G36*
X132534Y42640D02*
X132485Y42583D01*
X132442Y42525D01*
X132404Y42467D01*
X132372Y42408D01*
X132346Y42349D01*
X132332Y42306D01*
X132336Y42281D01*
X132364Y42175D01*
X132400Y42086D01*
X132444Y42013D01*
X132496Y41956D01*
X132556Y41916D01*
X132624Y41891D01*
X132700Y41883D01*
X131100D01*
X131176Y41891D01*
X131244Y41916D01*
X131304Y41956D01*
X131356Y42013D01*
X131400Y42086D01*
X131436Y42175D01*
X131464Y42281D01*
X131468Y42306D01*
X131454Y42349D01*
X131428Y42408D01*
X131396Y42467D01*
X131358Y42525D01*
X131315Y42583D01*
X131266Y42640D01*
X131211Y42697D01*
X132589D01*
X132534Y42640D01*
D02*
G37*
G36*
X89291Y40932D02*
X89250Y40944D01*
X89206Y40947D01*
X89161Y40944D01*
X89115Y40933D01*
X89066Y40914D01*
X89016Y40889D01*
X88964Y40856D01*
X88910Y40816D01*
X88854Y40769D01*
X88797Y40714D01*
X88382Y40865D01*
X88435Y40921D01*
X88478Y40973D01*
X88512Y41021D01*
X88535Y41064D01*
X88548Y41103D01*
X88551Y41138D01*
X88544Y41168D01*
X88526Y41195D01*
X88499Y41217D01*
X88461Y41234D01*
X89291Y40932D01*
D02*
G37*
G36*
X91019Y40304D02*
X90977Y40314D01*
X90934Y40317D01*
X90888Y40314D01*
X90841Y40303D01*
X90793Y40284D01*
X90743Y40259D01*
X90691Y40226D01*
X90637Y40186D01*
X90582Y40139D01*
X90525Y40085D01*
X90110Y40236D01*
X90126Y40253D01*
X90142Y40274D01*
X90158Y40298D01*
X90175Y40326D01*
X90208Y40391D01*
X90243Y40469D01*
X90278Y40560D01*
X91019Y40304D01*
D02*
G37*
G36*
X93047Y39565D02*
X93006Y39576D01*
X92963Y39580D01*
X92918Y39576D01*
X92871Y39566D01*
X92822Y39547D01*
X92772Y39522D01*
X92720Y39489D01*
X92666Y39449D01*
X92610Y39401D01*
X92553Y39347D01*
X92138Y39498D01*
X92191Y39554D01*
X92235Y39606D01*
X92268Y39654D01*
X92291Y39697D01*
X92304Y39736D01*
X92307Y39771D01*
X92300Y39801D01*
X92282Y39828D01*
X92255Y39849D01*
X92218Y39867D01*
X93047Y39565D01*
D02*
G37*
G36*
X148200Y49500D02*
X144000Y45300D01*
Y39500D01*
X138100D01*
X134400Y43200D01*
Y49200D01*
X138000D01*
X140700Y51900D01*
X148200D01*
Y49500D01*
D02*
G37*
G36*
X87398Y40287D02*
X87422Y40248D01*
X87448Y40213D01*
X87476Y40183D01*
X87507Y40158D01*
X87541Y40137D01*
X87577Y40121D01*
X87616Y40109D01*
X87656Y40102D01*
X87700Y40100D01*
Y39700D01*
X87653Y39698D01*
X87608Y39691D01*
X87566Y39680D01*
X87527Y39664D01*
X87489Y39644D01*
X87455Y39620D01*
X87422Y39591D01*
X87392Y39558D01*
X87365Y39520D01*
X87340Y39478D01*
X87377Y40331D01*
X87398Y40287D01*
D02*
G37*
G36*
X95065Y38818D02*
X95072Y38813D01*
X95078Y38802D01*
X95083Y38785D01*
X95087Y38763D01*
X95091Y38736D01*
X95097Y38664D01*
X95100Y38514D01*
X94700Y38551D01*
X94698Y38629D01*
X94684Y38765D01*
X94672Y38823D01*
X94656Y38874D01*
X94637Y38918D01*
X94615Y38956D01*
X94589Y38986D01*
X94559Y39010D01*
X94526Y39027D01*
X95065Y38818D01*
D02*
G37*
G36*
X95829Y38549D02*
X95827Y38541D01*
X96425Y38336D01*
X96384Y38346D01*
X96340Y38349D01*
X96295Y38346D01*
X96248Y38334D01*
X96199Y38316D01*
X96149Y38291D01*
X96097Y38258D01*
X96043Y38218D01*
X95988Y38171D01*
X95931Y38117D01*
X95567Y38318D01*
X95620Y38371D01*
X95824Y38551D01*
X95829Y38549D01*
D02*
G37*
G36*
X92026Y38820D02*
X91998Y38785D01*
X91978Y38741D01*
X91963Y38688D01*
X91955Y38627D01*
X91954Y38557D01*
X91959Y38478D01*
X91971Y38391D01*
X91989Y38295D01*
X92045Y38076D01*
X90843Y38750D01*
X90986Y38789D01*
X91641Y39006D01*
X91662Y39021D01*
X92026Y38820D01*
D02*
G37*
G36*
X89284Y38844D02*
X89260Y38813D01*
X89239Y38771D01*
X89221Y38718D01*
X89206Y38654D01*
X89195Y38579D01*
X89186Y38493D01*
X89179Y38289D01*
X89183Y38040D01*
X88179Y38984D01*
X88312Y38988D01*
X88729Y39025D01*
X88805Y39039D01*
X88869Y39056D01*
X88921Y39075D01*
X88962Y39095D01*
X88992Y39118D01*
X89284Y38844D01*
D02*
G37*
G36*
X102250Y36216D02*
X102210Y36226D01*
X102168Y36230D01*
X102124Y36226D01*
X102079Y36214D01*
X102031Y36196D01*
X101981Y36170D01*
X101930Y36137D01*
X101876Y36097D01*
X101821Y36049D01*
X101763Y35994D01*
X101420Y36217D01*
X101460Y36259D01*
X101491Y36299D01*
X101514Y36336D01*
X101529Y36370D01*
X101534Y36401D01*
X101532Y36429D01*
X101521Y36454D01*
X101501Y36476D01*
X101473Y36496D01*
X101436Y36512D01*
X102250Y36216D01*
D02*
G37*
G36*
X127716Y37858D02*
X127836Y37762D01*
X127961Y37677D01*
X128090Y37604D01*
X128224Y37541D01*
X128363Y37490D01*
X128507Y37451D01*
X128647Y37424D01*
X128719Y37436D01*
X128825Y37464D01*
X128914Y37500D01*
X128987Y37544D01*
X129044Y37596D01*
X129085Y37656D01*
X129109Y37724D01*
X129117Y37800D01*
Y36200D01*
X129109Y36276D01*
X129085Y36344D01*
X129044Y36404D01*
X128987Y36456D01*
X128914Y36500D01*
X128825Y36536D01*
X128719Y36564D01*
X128647Y36576D01*
X128507Y36549D01*
X128363Y36509D01*
X128224Y36459D01*
X128090Y36396D01*
X127961Y36323D01*
X127836Y36238D01*
X127716Y36142D01*
X127600Y36034D01*
X126869Y36434D01*
X126971Y36547D01*
X127050Y36661D01*
X127106Y36774D01*
X127140Y36887D01*
X127152Y37000D01*
X127140Y37113D01*
X127106Y37226D01*
X127050Y37339D01*
X126971Y37453D01*
X126869Y37566D01*
X127600Y37966D01*
X127716Y37858D01*
D02*
G37*
G36*
X84123Y35746D02*
X84088Y35636D01*
X84063Y35535D01*
X84047Y35443D01*
X84041Y35361D01*
X84044Y35288D01*
X84055Y35236D01*
X84326Y35142D01*
X84231Y35095D01*
X84191Y35072D01*
X84205Y35065D01*
X84189Y35071D01*
X84067Y35002D01*
X83998Y34955D01*
X83936Y34909D01*
X83883Y34862D01*
X83838Y34816D01*
X83801Y34769D01*
X83773Y34722D01*
X83753Y34676D01*
X83186Y34872D01*
X83199Y34921D01*
X83205Y34976D01*
X83205Y35035D01*
X83198Y35099D01*
X83186Y35169D01*
X83166Y35244D01*
X83140Y35323D01*
X83069Y35498D01*
X83024Y35593D01*
X83319Y35491D01*
X83329Y35499D01*
X83367Y35543D01*
X83405Y35599D01*
X83443Y35668D01*
X83482Y35750D01*
X83560Y35951D01*
X84123Y35746D01*
D02*
G37*
G36*
X95542Y34072D02*
X95440Y33989D01*
X95135Y33709D01*
X95085Y33651D01*
X95045Y33599D01*
X95016Y33551D01*
X94997Y33509D01*
X94988Y33471D01*
X94590Y33513D01*
X94589Y33551D01*
X94579Y33597D01*
X94560Y33649D01*
X94532Y33709D01*
X94494Y33776D01*
X94393Y33930D01*
X94254Y34113D01*
X94172Y34215D01*
X95542Y34072D01*
D02*
G37*
G36*
X93593Y32350D02*
X93496Y32270D01*
X93264Y32057D01*
X93207Y31995D01*
X93161Y31937D01*
X93144Y31912D01*
X93152Y31896D01*
X93179Y31859D01*
X93209Y31829D01*
X93244Y31805D01*
X93283Y31787D01*
X93108Y31850D01*
X93099Y31834D01*
X93084Y31789D01*
X93079Y31748D01*
X92679Y31791D01*
X92674Y31825D01*
X92660Y31867D01*
X92638Y31918D01*
X92606Y31976D01*
X92565Y32042D01*
X92559Y32050D01*
X92483Y32078D01*
X92520Y32068D01*
X92547Y32068D01*
X92455Y32199D01*
X92223Y32494D01*
X93593Y32350D01*
D02*
G37*
G36*
X94931Y31574D02*
X94933Y31500D01*
X94940Y31432D01*
X94950Y31370D01*
X94964Y31314D01*
X94982Y31265D01*
X95005Y31222D01*
X95031Y31185D01*
X95062Y31155D01*
X95097Y31130D01*
X95135Y31113D01*
X94335Y31404D01*
X94373Y31394D01*
X94406Y31394D01*
X94435Y31402D01*
X94461Y31420D01*
X94482Y31447D01*
X94500Y31483D01*
X94514Y31528D01*
X94524Y31583D01*
X94529Y31647D01*
X94531Y31720D01*
X94931Y31574D01*
D02*
G37*
G36*
X132677Y32109D02*
X132609Y32085D01*
X132549Y32044D01*
X132497Y31987D01*
X132453Y31914D01*
X132417Y31825D01*
X132389Y31719D01*
X132369Y31597D01*
X132357Y31459D01*
X132353Y31305D01*
X131553D01*
X131549Y31459D01*
X131537Y31597D01*
X131517Y31719D01*
X131489Y31825D01*
X131453Y31914D01*
X131409Y31987D01*
X131357Y32044D01*
X131297Y32085D01*
X131229Y32109D01*
X131153Y32117D01*
X132753D01*
X132677Y32109D01*
D02*
G37*
G36*
X97364Y31593D02*
X97264Y31521D01*
X97027Y31326D01*
X96969Y31267D01*
X96922Y31212D01*
X96885Y31159D01*
X96859Y31111D01*
X96843Y31065D01*
X96838Y31023D01*
X96438Y31091D01*
X96434Y31123D01*
X96421Y31163D01*
X96399Y31213D01*
X96369Y31273D01*
X96282Y31418D01*
X96087Y31706D01*
X96005Y31820D01*
X97364Y31593D01*
D02*
G37*
G36*
X96838Y30880D02*
X96840Y30806D01*
X96846Y30738D01*
X96856Y30676D01*
X96870Y30620D01*
X96889Y30571D01*
X96911Y30528D01*
X96938Y30491D01*
X96969Y30461D01*
X97003Y30437D01*
X97042Y30419D01*
X96242Y30710D01*
X96279Y30700D01*
X96312Y30700D01*
X96342Y30708D01*
X96367Y30726D01*
X96389Y30753D01*
X96407Y30789D01*
X96420Y30835D01*
X96430Y30889D01*
X96436Y30953D01*
X96438Y31026D01*
X96838Y30880D01*
D02*
G37*
G36*
X99868Y30230D02*
X99728Y30205D01*
X99159Y30070D01*
X99108Y30050D01*
X99071Y30031D01*
X99053Y30017D01*
X99033Y29996D01*
X98993Y29947D01*
X98962Y29903D01*
X98940Y29862D01*
X98928Y29825D01*
X98926Y29793D01*
X98933Y29764D01*
X98950Y29739D01*
X98976Y29719D01*
X99011Y29702D01*
X98182Y30004D01*
X98225Y29992D01*
X98269Y29987D01*
X98315Y29989D01*
X98362Y29998D01*
X98410Y30014D01*
X98459Y30037D01*
X98510Y30067D01*
X98561Y30104D01*
X98614Y30149D01*
X98668Y30200D01*
X98889Y30119D01*
X98710Y30242D01*
X98736Y30275D01*
X98757Y30319D01*
X98773Y30372D01*
X98783Y30435D01*
X98788Y30507D01*
X98788Y30589D01*
X98783Y30680D01*
X98755Y30892D01*
X98734Y31013D01*
X99868Y30230D01*
D02*
G37*
G36*
X157300Y43200D02*
Y30700D01*
X156400Y29800D01*
X151600D01*
X144400Y35300D01*
X137700D01*
Y36583D01*
X137692Y36584D01*
X137554Y36596D01*
X137399Y36600D01*
Y37400D01*
X137554Y37404D01*
X137692Y37416D01*
X137700Y37417D01*
Y38600D01*
X144400D01*
X152000Y44200D01*
X156300D01*
X157300Y43200D01*
D02*
G37*
G36*
X193816Y84415D02*
Y83785D01*
X194057Y83203D01*
X194503Y82757D01*
X195085Y82516D01*
X195548D01*
X195616Y82415D01*
Y81785D01*
X195857Y81203D01*
X196303Y80757D01*
X196885Y80516D01*
X197515D01*
X198097Y80757D01*
X198910Y80895D01*
X199253Y80606D01*
X199403Y80457D01*
X199985Y80216D01*
X200615D01*
X201197Y80457D01*
X201643Y80903D01*
X201884Y81485D01*
Y82055D01*
X201994Y82161D01*
X202312Y82296D01*
X203217Y81592D01*
X202715Y78293D01*
X201510Y72680D01*
X199968Y67150D01*
X198095Y61724D01*
X195898Y56420D01*
X193385Y51258D01*
X190565Y46258D01*
X187448Y41437D01*
X184046Y36813D01*
X180370Y32403D01*
X176435Y28223D01*
X172255Y24288D01*
X167845Y20612D01*
X163221Y17210D01*
X158400Y14093D01*
X153400Y11273D01*
X148238Y8760D01*
X146089Y7869D01*
X145475Y8697D01*
X145921Y9241D01*
X146812Y10909D01*
X147361Y12718D01*
X147547Y14600D01*
X147361Y16482D01*
X146812Y18292D01*
X145921Y19959D01*
X144721Y21421D01*
X143259Y22621D01*
X141592Y23512D01*
X141262Y23612D01*
X140904Y24558D01*
X141717Y24788D01*
X142181Y24696D01*
X143362D01*
X143827Y24788D01*
X144220Y25051D01*
X144484Y25445D01*
X144576Y25909D01*
Y27090D01*
X144484Y27555D01*
X144220Y27949D01*
X144020Y28083D01*
Y28300D01*
X143942Y28690D01*
X143721Y29021D01*
X142721Y30021D01*
X142390Y30242D01*
X142000Y30320D01*
X139822D01*
X137320Y32822D01*
Y34396D01*
X137700Y34651D01*
X144180D01*
X151206Y29284D01*
X151407Y29230D01*
X151600Y29151D01*
X156400D01*
X156859Y29341D01*
X157759Y30241D01*
X157949Y30700D01*
Y42918D01*
X158793Y43390D01*
X158873Y43408D01*
X159551Y42731D01*
Y30446D01*
X159616Y30290D01*
X159638Y30121D01*
X159896Y29675D01*
X159966Y29622D01*
X159999Y29541D01*
X160156Y29476D01*
X160291Y29373D01*
X160378Y29384D01*
X160458Y29351D01*
X165024D01*
X165144Y29400D01*
X165273D01*
X165493Y29491D01*
X165585Y29583D01*
X165704Y29632D01*
X165968Y29896D01*
X166017Y30015D01*
X166109Y30107D01*
X166200Y30327D01*
Y30456D01*
X166249Y30576D01*
Y43031D01*
X167469Y44251D01*
X178500D01*
X178959Y44441D01*
X180159Y45641D01*
X180349Y46100D01*
Y49500D01*
X180159Y49959D01*
X178959Y51159D01*
X178500Y51349D01*
X173298D01*
X173212Y51783D01*
X172949Y52177D01*
X172555Y52440D01*
X172091Y52533D01*
X171022D01*
X170422Y53331D01*
X170425Y53343D01*
X170345Y53745D01*
Y54798D01*
X170425Y55200D01*
X170413Y55258D01*
X170449Y55345D01*
Y55731D01*
X173429Y58711D01*
X176409Y61690D01*
X176409Y61690D01*
X182276Y67558D01*
X182276Y67558D01*
X182368Y67649D01*
X182417Y67769D01*
X182509Y67860D01*
X182600Y68081D01*
Y68210D01*
X182649Y68329D01*
Y68458D01*
X182649Y68458D01*
Y85151D01*
X193038D01*
X193816Y84415D01*
D02*
G37*
G36*
X143402Y28174D02*
X143420Y27962D01*
X143435Y27875D01*
X143455Y27802D01*
X143479Y27742D01*
X143507Y27696D01*
X143540Y27662D01*
X143578Y27642D01*
X143619Y27635D01*
X142381Y27647D01*
X142422Y27653D01*
X142460Y27673D01*
X142493Y27705D01*
X142521Y27751D01*
X142545Y27809D01*
X142565Y27881D01*
X142580Y27966D01*
X142591Y28064D01*
X142600Y28300D01*
X143400D01*
X143402Y28174D01*
D02*
G37*
G36*
X138062Y26050D02*
X138057Y26060D01*
X138043Y26068D01*
X138020Y26076D01*
X137988Y26082D01*
X137946Y26087D01*
X137836Y26096D01*
X137600Y26100D01*
Y26900D01*
X137688Y26901D01*
X137988Y26918D01*
X138020Y26924D01*
X138043Y26932D01*
X138057Y26940D01*
X138062Y26950D01*
Y26050D01*
D02*
G37*
G36*
X128562Y25950D02*
X128556Y25979D01*
X128539Y26004D01*
X128511Y26027D01*
X128472Y26046D01*
X128421Y26063D01*
X128360Y26076D01*
X128287Y26087D01*
X128202Y26094D01*
X128000Y26100D01*
Y26900D01*
X128107Y26902D01*
X128287Y26913D01*
X128360Y26924D01*
X128421Y26937D01*
X128472Y26954D01*
X128511Y26973D01*
X128539Y26996D01*
X128556Y27021D01*
X128562Y27050D01*
Y25950D01*
D02*
G37*
G36*
X134041Y25354D02*
X133991Y25334D01*
X133946Y25302D01*
X133907Y25257D01*
X133874Y25199D01*
X133848Y25129D01*
X133827Y25046D01*
X133812Y24951D01*
X133803Y24842D01*
X133800Y24722D01*
X133200D01*
X133197Y24841D01*
X133188Y24948D01*
X133173Y25043D01*
X133152Y25124D01*
X133126Y25193D01*
X133093Y25250D01*
X133054Y25293D01*
X133010Y25324D01*
X132959Y25343D01*
X132902Y25348D01*
X134098Y25361D01*
X134041Y25354D01*
D02*
G37*
G36*
X71386Y39365D02*
X70148Y35965D01*
X71998Y35292D01*
X71998Y35292D01*
X74236Y34478D01*
X74236Y34478D01*
X74236Y34478D01*
X75698Y33946D01*
X77548Y33272D01*
X77548Y33272D01*
X79397Y32599D01*
X80266Y32283D01*
X81247Y31926D01*
X83097Y31253D01*
X83097Y31253D01*
X85334Y30438D01*
X85334Y30438D01*
X86796Y29906D01*
X86796Y29906D01*
X88646Y29233D01*
X89515Y28916D01*
X90496Y28559D01*
X91365Y28243D01*
X92346Y27886D01*
X94196Y27213D01*
X94195Y27213D01*
X96433Y26399D01*
X96433Y26399D01*
X98283Y25725D01*
X99699Y29616D01*
X100015D01*
X100597Y29857D01*
X101043Y30303D01*
X101284Y30885D01*
X102284Y31240D01*
X104384Y29140D01*
Y26338D01*
X102462Y24416D01*
X79638D01*
X64793Y39260D01*
X65176Y40184D01*
X70812D01*
X71386Y39365D01*
D02*
G37*
G36*
X132378Y24715D02*
X132520Y24591D01*
X132586Y24540D01*
X132651Y24497D01*
X132712Y24462D01*
X132771Y24435D01*
X132827Y24416D01*
X132880Y24404D01*
X132931Y24400D01*
Y23800D01*
X132880Y23796D01*
X132827Y23784D01*
X132771Y23765D01*
X132712Y23738D01*
X132651Y23703D01*
X132586Y23660D01*
X132520Y23609D01*
X132378Y23485D01*
X132303Y23411D01*
Y24789D01*
X132378Y24715D01*
D02*
G37*
%LPC*%
G36*
X162315Y107584D02*
X161685D01*
X161103Y107343D01*
X160657Y106897D01*
X160416Y106315D01*
Y105685D01*
X160657Y105103D01*
X161103Y104657D01*
X161685Y104416D01*
X162315D01*
X162897Y104657D01*
X163343Y105103D01*
X163584Y105685D01*
Y106315D01*
X163343Y106897D01*
X162897Y107343D01*
X162315Y107584D01*
D02*
G37*
G36*
Y102484D02*
X161685D01*
X161103Y102243D01*
X160657Y101797D01*
X160416Y101215D01*
Y100585D01*
X160657Y100003D01*
X161103Y99557D01*
X161685Y99316D01*
X162315D01*
X162897Y99557D01*
X163343Y100003D01*
X163584Y100585D01*
Y101215D01*
X163343Y101797D01*
X162897Y102243D01*
X162315Y102484D01*
D02*
G37*
G36*
Y97284D02*
X161685D01*
X161103Y97043D01*
X160657Y96597D01*
X160416Y96015D01*
Y95385D01*
X160657Y94803D01*
X161103Y94357D01*
X161685Y94116D01*
X162315D01*
X162897Y94357D01*
X163343Y94803D01*
X163584Y95385D01*
Y96015D01*
X163343Y96597D01*
X162897Y97043D01*
X162315Y97284D01*
D02*
G37*
G36*
X157300Y93049D02*
X155200D01*
X154741Y92859D01*
X154649Y92768D01*
X154649Y92768D01*
X153941Y92059D01*
X153751Y91600D01*
Y88178D01*
Y84700D01*
X153838Y84489D01*
X153838Y84489D01*
X153927Y84222D01*
X153986D01*
X154155Y84152D01*
X154400Y84051D01*
X158100D01*
X158559Y84241D01*
X158749Y84700D01*
Y91600D01*
X158700Y91719D01*
Y91719D01*
X158559Y92059D01*
X157759Y92859D01*
X157419Y93000D01*
X157300Y93049D01*
D02*
G37*
G36*
X162415Y87084D02*
X161785D01*
X161203Y86843D01*
X160757Y86397D01*
X160516Y85815D01*
Y85185D01*
X160757Y84603D01*
X161203Y84157D01*
X161785Y83916D01*
X162098D01*
X163878Y82135D01*
Y77258D01*
X163868D01*
X163384Y77162D01*
X162974Y76888D01*
X162700Y76478D01*
X162604Y75994D01*
Y74714D01*
X162700Y74231D01*
X162974Y73821D01*
X163384Y73547D01*
X163868Y73450D01*
X166132D01*
X166616Y73547D01*
X167026Y73821D01*
X167300Y74231D01*
X167396Y74714D01*
Y75994D01*
X167300Y76478D01*
X167026Y76888D01*
X166616Y77162D01*
X166132Y77258D01*
X166122D01*
Y82600D01*
X166122Y82600D01*
X166036Y83029D01*
X165793Y83393D01*
X163684Y85502D01*
Y85815D01*
X163443Y86397D01*
X162997Y86843D01*
X162415Y87084D01*
D02*
G37*
G36*
X156315Y81284D02*
X155685D01*
X155103Y81043D01*
X154657Y80597D01*
X154416Y80015D01*
Y79385D01*
X154657Y78803D01*
X154878Y78581D01*
Y77258D01*
X154868D01*
X154384Y77162D01*
X153974Y76888D01*
X153700Y76478D01*
X153604Y75994D01*
Y74714D01*
X153700Y74231D01*
X153974Y73821D01*
X154384Y73547D01*
X154868Y73450D01*
X157132D01*
X157616Y73547D01*
X158026Y73821D01*
X158300Y74231D01*
X158396Y74714D01*
Y75994D01*
X158300Y76478D01*
X158026Y76888D01*
X157616Y77162D01*
X157132Y77258D01*
X157122D01*
Y78581D01*
X157343Y78803D01*
X157584Y79385D01*
Y80015D01*
X157343Y80597D01*
X156897Y81043D01*
X156315Y81284D01*
D02*
G37*
G36*
X174815Y80684D02*
X174185D01*
X173603Y80443D01*
X173157Y79997D01*
X172965Y79535D01*
Y79535D01*
X172916Y79415D01*
Y78785D01*
X172965Y78666D01*
Y78666D01*
X172991Y78604D01*
Y78497D01*
X172996Y78484D01*
X172996Y78484D01*
X172991Y78471D01*
X172995Y78364D01*
X172956Y78256D01*
X172956Y78256D01*
X172902Y78110D01*
Y78110D01*
X172902Y78110D01*
X172886Y78068D01*
X172856Y78035D01*
X172827Y77956D01*
X172762Y77904D01*
X172747Y77874D01*
X172346Y77607D01*
X172274Y77499D01*
X172274Y77499D01*
X172018Y77115D01*
X171902Y76535D01*
Y74764D01*
X172018Y74184D01*
X172346Y73693D01*
X172838Y73364D01*
X173417Y73249D01*
X175583D01*
X176162Y73364D01*
X176654Y73693D01*
X176982Y74184D01*
X177098Y74764D01*
Y76535D01*
X176982Y77115D01*
X176910Y77223D01*
Y77223D01*
X176726Y77499D01*
X176726Y77499D01*
X176654Y77607D01*
X176547Y77678D01*
X176547Y77679D01*
X176253Y77874D01*
X176237Y77904D01*
X176172Y77956D01*
X176144Y78035D01*
X176114Y78068D01*
Y78068D01*
X176048Y78245D01*
X176049Y78247D01*
X176038Y78273D01*
X176005Y78364D01*
X176009Y78471D01*
X176004Y78484D01*
Y78484D01*
X176010Y78497D01*
Y78605D01*
X176084Y78785D01*
Y79415D01*
X175843Y79997D01*
X175397Y80443D01*
X174815Y80684D01*
D02*
G37*
G36*
X175583Y71751D02*
X173417D01*
X172838Y71636D01*
X172346Y71307D01*
X172018Y70816D01*
X171939Y70422D01*
X171365D01*
X171347Y70439D01*
X170984Y70682D01*
X170554Y70767D01*
X170554Y70767D01*
X169973D01*
X169797Y70943D01*
X169215Y71184D01*
X168585D01*
X168003Y70943D01*
X167827Y70767D01*
X167300D01*
X167300Y70769D01*
X167026Y71179D01*
X166616Y71453D01*
X166132Y71549D01*
X163868D01*
X163384Y71453D01*
X162974Y71179D01*
X162818Y70945D01*
X162797Y70943D01*
X162215Y71184D01*
X161585D01*
X161003Y70943D01*
X160854Y70794D01*
X160146D01*
X159897Y71043D01*
X159315Y71284D01*
X158685D01*
X158114Y71048D01*
X158026Y71179D01*
X157616Y71453D01*
X157132Y71549D01*
X154868D01*
X154384Y71453D01*
X153974Y71179D01*
X153700Y70769D01*
X153604Y70285D01*
Y69006D01*
X153700Y68522D01*
X153974Y68112D01*
X154384Y67838D01*
X154868Y67742D01*
X157132D01*
X157616Y67838D01*
X158026Y68112D01*
X158170Y68329D01*
X158685Y68116D01*
X159315D01*
X159897Y68357D01*
X160092Y68551D01*
X160708D01*
X161003Y68257D01*
X161585Y68016D01*
X162215D01*
X162797Y68257D01*
X162883Y68248D01*
X162974Y68112D01*
X163384Y67838D01*
X163868Y67742D01*
X166132D01*
X166616Y67838D01*
X167026Y68112D01*
X167261Y68463D01*
X167675Y68489D01*
X167780Y68480D01*
X168003Y68257D01*
X168585Y68016D01*
X169215D01*
X169797Y68257D01*
X170107Y68507D01*
X170471Y68264D01*
X170900Y68178D01*
X170900Y68178D01*
X171959D01*
X172018Y67885D01*
X172346Y67393D01*
X172838Y67065D01*
X173417Y66950D01*
X175583D01*
X176162Y67065D01*
X176654Y67393D01*
X176982Y67885D01*
X177098Y68465D01*
Y70236D01*
X176982Y70816D01*
X176654Y71307D01*
X176162Y71636D01*
X175583Y71751D01*
D02*
G37*
G36*
X164189Y56074D02*
X162811D01*
X162385Y55989D01*
X162024Y55748D01*
X161782Y55387D01*
X161697Y54961D01*
Y53976D01*
X161782Y53550D01*
X162024Y53189D01*
X162385Y52948D01*
X162811Y52863D01*
X164189D01*
X164615Y52948D01*
X164976Y53189D01*
X165033Y53273D01*
X165553Y53306D01*
X165903Y52957D01*
X166485Y52716D01*
X167115D01*
X167697Y52957D01*
X168143Y53403D01*
X168384Y53985D01*
Y54615D01*
X168143Y55197D01*
X167697Y55643D01*
X167115Y55884D01*
X166485D01*
X165903Y55643D01*
X165675Y55415D01*
X165180Y55444D01*
X164976Y55748D01*
X164615Y55989D01*
X164189Y56074D01*
D02*
G37*
%LPD*%
G36*
X158100Y91600D02*
Y84700D01*
X154400D01*
Y84829D01*
Y88178D01*
Y91471D01*
Y91600D01*
X154491Y91691D01*
X155109Y92309D01*
D01*
X155200Y92400D01*
X157300D01*
X158100Y91600D01*
D02*
G37*
G36*
X163086Y85437D02*
X163093Y85385D01*
X163105Y85333D01*
X163122Y85281D01*
X163145Y85229D01*
X163172Y85178D01*
X163204Y85127D01*
X163242Y85076D01*
X163284Y85026D01*
X163331Y84976D01*
X162624Y84269D01*
X162574Y84316D01*
X162524Y84358D01*
X162473Y84396D01*
X162422Y84428D01*
X162371Y84455D01*
X162319Y84478D01*
X162267Y84495D01*
X162215Y84507D01*
X162163Y84514D01*
X162110Y84516D01*
X163084Y85490D01*
X163086Y85437D01*
D02*
G37*
G36*
X165505Y77442D02*
X165520Y77270D01*
X165545Y77118D01*
X165580Y76986D01*
X165625Y76875D01*
X165680Y76784D01*
X165745Y76713D01*
X165820Y76663D01*
X165905Y76632D01*
X166000Y76622D01*
X164000D01*
X164095Y76632D01*
X164180Y76663D01*
X164255Y76713D01*
X164320Y76784D01*
X164375Y76875D01*
X164420Y76986D01*
X164455Y77118D01*
X164480Y77270D01*
X164495Y77442D01*
X164500Y77634D01*
X165500D01*
X165505Y77442D01*
D02*
G37*
G36*
X156653Y78958D02*
X156621Y78916D01*
X156593Y78871D01*
X156568Y78822D01*
X156547Y78770D01*
X156530Y78714D01*
X156517Y78655D01*
X156508Y78593D01*
X156502Y78527D01*
X156500Y78458D01*
X155500D01*
X155498Y78527D01*
X155492Y78593D01*
X155483Y78655D01*
X155470Y78714D01*
X155453Y78770D01*
X155432Y78822D01*
X155407Y78871D01*
X155379Y78916D01*
X155347Y78958D01*
X155311Y78997D01*
X156689D01*
X156653Y78958D01*
D02*
G37*
G36*
X156505Y77442D02*
X156520Y77270D01*
X156545Y77118D01*
X156580Y76986D01*
X156625Y76875D01*
X156680Y76784D01*
X156745Y76713D01*
X156820Y76663D01*
X156905Y76632D01*
X157000Y76622D01*
X155000D01*
X155095Y76632D01*
X155180Y76663D01*
X155255Y76713D01*
X155320Y76784D01*
X155375Y76875D01*
X155420Y76986D01*
X155455Y77118D01*
X155480Y77270D01*
X155495Y77442D01*
X155500Y77634D01*
X156500D01*
X156505Y77442D01*
D02*
G37*
G36*
X175030Y79892D02*
X175293Y79629D01*
X175435Y79286D01*
Y78914D01*
X175409Y78853D01*
Y78746D01*
X175404Y78733D01*
Y78711D01*
X175360Y78605D01*
Y78497D01*
X175355Y78484D01*
Y78484D01*
X175359Y78474D01*
X175356Y78390D01*
X175396Y78282D01*
X175395Y78260D01*
X175399Y78247D01*
X175399Y78247D01*
X175395Y78140D01*
X175429Y78049D01*
X175438Y78039D01*
Y78024D01*
X175439Y78023D01*
X175439Y78021D01*
X175504Y77843D01*
X175534Y77811D01*
Y77811D01*
X175563Y77732D01*
X175621Y77670D01*
X175636Y77627D01*
X175666Y77595D01*
X175666Y77595D01*
Y77595D01*
X175682Y77565D01*
X175717Y77537D01*
X175763Y77453D01*
X175828Y77400D01*
X175854Y77392D01*
X175893Y77334D01*
X176186Y77139D01*
X176371Y76862D01*
X176448Y76472D01*
Y74828D01*
X176371Y74437D01*
X176186Y74161D01*
X175909Y73976D01*
X175519Y73898D01*
X173481D01*
X173091Y73976D01*
X172814Y74161D01*
X172629Y74437D01*
X172552Y74828D01*
Y76472D01*
X172629Y76862D01*
X172814Y77138D01*
X173107Y77334D01*
X173146Y77392D01*
X173172Y77400D01*
X173237Y77453D01*
X173283Y77537D01*
X173318Y77565D01*
X173334Y77595D01*
X173334Y77595D01*
X173334Y77595D01*
X173334Y77595D01*
X173364Y77627D01*
X173379Y77670D01*
X173437Y77732D01*
X173466Y77811D01*
X173496Y77843D01*
X173511Y77886D01*
Y77886D01*
X173512Y77886D01*
X173565Y78031D01*
X173565Y78032D01*
X173605Y78140D01*
X173600Y78247D01*
X173605Y78260D01*
X173604Y78280D01*
X173605Y78280D01*
X173605Y78280D01*
X173605Y78280D01*
X173604Y78280D01*
X173604Y78282D01*
X173644Y78390D01*
X173640Y78497D01*
Y78500D01*
X173642Y78507D01*
X173645Y78513D01*
X173644Y78513D01*
X173645Y78513D01*
X173640Y78523D01*
Y78604D01*
X173615Y78666D01*
Y78666D01*
X173596Y78711D01*
Y78733D01*
X173591Y78746D01*
Y78853D01*
X173565Y78914D01*
Y79286D01*
X173707Y79629D01*
X173970Y79892D01*
X174314Y80035D01*
X174686D01*
X175030Y79892D01*
D02*
G37*
G36*
X163346Y68679D02*
X163336Y68773D01*
X163304Y68857D01*
X163249Y68931D01*
X163171Y68995D01*
X163071Y69050D01*
X162948Y69094D01*
X162859Y69115D01*
X162821Y69098D01*
X162773Y69071D01*
X162729Y69040D01*
X162689Y69004D01*
X162652Y68965D01*
X162445Y69168D01*
X162442Y69168D01*
X162228Y69173D01*
Y69380D01*
X161900Y69702D01*
X162228Y70024D01*
Y70173D01*
X162384Y70176D01*
X162550Y70339D01*
X162590Y70307D01*
X162632Y70279D01*
X162678Y70254D01*
X162728Y70233D01*
X162780Y70214D01*
X162785Y70213D01*
X162813Y70217D01*
X162962Y70252D01*
X163089Y70296D01*
X163193Y70350D01*
X163274Y70415D01*
X163333Y70489D01*
X163369Y70572D01*
X163382Y70666D01*
X163346Y68679D01*
D02*
G37*
G36*
X159760Y70332D02*
X159801Y70299D01*
X159846Y70269D01*
X159895Y70244D01*
X159947Y70222D01*
X160002Y70204D01*
X160061Y70191D01*
X160123Y70181D01*
X160188Y70175D01*
X160257Y70173D01*
X160225Y69173D01*
X160156Y69171D01*
X160090Y69166D01*
X160028Y69156D01*
X159968Y69144D01*
X159913Y69128D01*
X159860Y69108D01*
X159811Y69084D01*
X159765Y69057D01*
X159723Y69026D01*
X159684Y68992D01*
X159722Y70369D01*
X159760Y70332D01*
D02*
G37*
G36*
X157631Y70572D02*
X157667Y70489D01*
X157726Y70415D01*
X157807Y70350D01*
X157911Y70296D01*
X158038Y70252D01*
X158094Y70239D01*
X158105Y70244D01*
X158154Y70269D01*
X158199Y70299D01*
X158240Y70332D01*
X158278Y70369D01*
X158283Y70204D01*
X158359Y70193D01*
X158554Y70178D01*
X158772Y70173D01*
Y69173D01*
X158558Y69168D01*
X158367Y69153D01*
X158312Y69145D01*
X158316Y68992D01*
X158277Y69026D01*
X158235Y69057D01*
X158189Y69084D01*
X158140Y69108D01*
X158129Y69112D01*
X158052Y69094D01*
X157929Y69050D01*
X157829Y68995D01*
X157751Y68931D01*
X157696Y68857D01*
X157664Y68773D01*
X157654Y68679D01*
X157618Y70666D01*
X157631Y70572D01*
D02*
G37*
G36*
X161900Y69702D02*
X161148Y68965D01*
X161111Y69004D01*
X161071Y69040D01*
X161027Y69071D01*
X160979Y69098D01*
X160928Y69121D01*
X160873Y69140D01*
X160815Y69154D01*
X160754Y69165D01*
X160688Y69171D01*
X160620Y69173D01*
X160706Y70173D01*
X160775Y70174D01*
X160841Y70179D01*
X160904Y70188D01*
X160963Y70199D01*
X161020Y70214D01*
X161072Y70233D01*
X161122Y70254D01*
X161168Y70279D01*
X161211Y70307D01*
X161250Y70339D01*
X161900Y69702D01*
D02*
G37*
G36*
X169609Y70288D02*
X169652Y70258D01*
X169698Y70231D01*
X169747Y70209D01*
X169800Y70189D01*
X169856Y70174D01*
X169915Y70161D01*
X169978Y70153D01*
X170044Y70147D01*
X170113Y70146D01*
X170167Y69146D01*
X170098Y69144D01*
X170033Y69138D01*
X169971Y69128D01*
X169912Y69113D01*
X169857Y69095D01*
X169806Y69073D01*
X169757Y69047D01*
X169713Y69017D01*
X169672Y68983D01*
X169634Y68944D01*
X169570Y70321D01*
X169609Y70288D01*
D02*
G37*
G36*
X166648Y70545D02*
X166682Y70461D01*
X166738Y70387D01*
X166818Y70323D01*
X166920Y70269D01*
X167045Y70225D01*
X167193Y70190D01*
X167363Y70165D01*
X167556Y70151D01*
X167727Y70147D01*
X167756Y70147D01*
X167822Y70153D01*
X167885Y70161D01*
X167944Y70174D01*
X168000Y70189D01*
X168052Y70209D01*
X168102Y70231D01*
X168148Y70258D01*
X168191Y70288D01*
X168230Y70321D01*
X168166Y68944D01*
X168128Y68983D01*
X168087Y69017D01*
X168043Y69047D01*
X167994Y69073D01*
X167943Y69095D01*
X167888Y69113D01*
X167829Y69128D01*
X167767Y69138D01*
X167702Y69144D01*
X167694Y69144D01*
X167556Y69141D01*
X167363Y69126D01*
X167193Y69101D01*
X167045Y69067D01*
X166920Y69022D01*
X166818Y68968D01*
X166738Y68904D01*
X166682Y68830D01*
X166648Y68746D01*
X166636Y68652D01*
Y70639D01*
X166648Y70545D01*
D02*
G37*
G36*
X172571Y68302D02*
X172559Y68397D01*
X172528Y68481D01*
X172475Y68556D01*
X172401Y68621D01*
X172307Y68676D01*
X172193Y68720D01*
X172057Y68755D01*
X171901Y68780D01*
X171724Y68795D01*
X171526Y68800D01*
Y69800D01*
X171722Y69805D01*
X171897Y69820D01*
X172051Y69845D01*
X172184Y69880D01*
X172297Y69924D01*
X172389Y69979D01*
X172461Y70044D01*
X172511Y70118D01*
X172541Y70203D01*
X172551Y70298D01*
X172571Y68302D01*
D02*
G37*
G36*
X164612Y55103D02*
X164636Y55036D01*
X164678Y54977D01*
X164738Y54926D01*
X164816Y54883D01*
X164912Y54847D01*
X165026Y54820D01*
X165159Y54800D01*
X165310Y54788D01*
X165479Y54784D01*
Y54031D01*
X165549Y54784D01*
X165610Y54787D01*
X165671Y54795D01*
X165732Y54808D01*
X165793Y54826D01*
X165854Y54850D01*
X165915Y54879D01*
X165975Y54913D01*
X166037Y54952D01*
X166098Y54997D01*
X166159Y55047D01*
X166041Y53674D01*
X165989Y53733D01*
X165936Y53786D01*
X165882Y53832D01*
X165827Y53873D01*
X165771Y53907D01*
X165714Y53935D01*
X165656Y53956D01*
X165596Y53972D01*
X165536Y53981D01*
X165476Y53984D01*
X165342Y53981D01*
X165215Y53970D01*
X165097Y53952D01*
X164988Y53928D01*
X164889Y53896D01*
X164800Y53857D01*
X164719Y53811D01*
X164649Y53758D01*
X164587Y53698D01*
X164535Y53630D01*
X164607Y55178D01*
X164612Y55103D01*
D02*
G37*
%LPC*%
G36*
X28085Y114896D02*
X26806D01*
X26322Y114800D01*
X25912Y114526D01*
X25638Y114116D01*
X25542Y113632D01*
Y113316D01*
X23800D01*
X23800Y113316D01*
X23488Y113254D01*
X23223Y113077D01*
X23223Y113077D01*
X22723Y112577D01*
X22546Y112312D01*
X22484Y112000D01*
X22484Y112000D01*
Y111877D01*
X22403Y111843D01*
X21957Y111397D01*
X21716Y110815D01*
Y110185D01*
X21957Y109603D01*
X22403Y109157D01*
X22985Y108916D01*
X23615D01*
X24197Y109157D01*
X24643Y109603D01*
X24884Y110185D01*
Y110213D01*
X25884Y110516D01*
X25912Y110474D01*
X26322Y110200D01*
X26806Y110104D01*
X28085D01*
X28569Y110200D01*
X28979Y110474D01*
X29253Y110884D01*
X29349Y111368D01*
Y113632D01*
X29253Y114116D01*
X28979Y114526D01*
X28569Y114800D01*
X28085Y114896D01*
D02*
G37*
G36*
X13091Y92133D02*
X11909D01*
X11445Y92040D01*
X11051Y91777D01*
X10788Y91383D01*
X10696Y90919D01*
Y89738D01*
X10788Y89273D01*
X11051Y88880D01*
X11445Y88616D01*
X11480Y88609D01*
Y85300D01*
X11558Y84910D01*
X11779Y84579D01*
X14016Y82342D01*
Y81985D01*
X14257Y81403D01*
X14703Y80957D01*
X15285Y80716D01*
X15915D01*
X16497Y80957D01*
X16821Y81280D01*
X17079D01*
X17403Y80957D01*
X17985Y80716D01*
X18615D01*
X19197Y80957D01*
X19643Y81403D01*
X19884Y81985D01*
Y82615D01*
X19643Y83197D01*
X19197Y83643D01*
X18615Y83884D01*
X17985D01*
X17403Y83643D01*
X17079Y83320D01*
X16821D01*
X16497Y83643D01*
X15915Y83884D01*
X15358D01*
X13520Y85722D01*
Y88609D01*
X13555Y88616D01*
X13949Y88880D01*
X14212Y89273D01*
X14304Y89738D01*
Y90919D01*
X14212Y91383D01*
X13949Y91777D01*
X13555Y92040D01*
X13091Y92133D01*
D02*
G37*
%LPD*%
G36*
X26178Y112100D02*
X26174Y112138D01*
X26161Y112172D01*
X26141Y112202D01*
X26112Y112228D01*
X26075Y112250D01*
X26030Y112268D01*
X25976Y112282D01*
X25914Y112292D01*
X25844Y112298D01*
X25766Y112300D01*
Y112700D01*
X25844Y112702D01*
X25914Y112708D01*
X25976Y112718D01*
X26030Y112732D01*
X26075Y112750D01*
X26112Y112772D01*
X26141Y112798D01*
X26161Y112828D01*
X26174Y112862D01*
X26178Y112900D01*
Y112100D01*
D02*
G37*
G36*
X23505Y111819D02*
X23520Y111775D01*
X23544Y111725D01*
X23578Y111669D01*
X23622Y111606D01*
X23740Y111463D01*
X23896Y111296D01*
X23989Y111203D01*
X22611D01*
X22704Y111296D01*
X22978Y111606D01*
X23022Y111669D01*
X23056Y111725D01*
X23080Y111775D01*
X23095Y111819D01*
X23100Y111857D01*
X23500D01*
X23505Y111819D01*
D02*
G37*
G36*
X13222Y89193D02*
X13155Y89167D01*
X13095Y89125D01*
X13043Y89065D01*
X12999Y88988D01*
X12964Y88894D01*
X12936Y88783D01*
X12916Y88655D01*
X12904Y88510D01*
X12900Y88348D01*
X12100D01*
X12096Y88510D01*
X12084Y88655D01*
X12064Y88783D01*
X12036Y88894D01*
X12001Y88988D01*
X11957Y89065D01*
X11905Y89125D01*
X11846Y89167D01*
X11778Y89193D01*
X11702Y89201D01*
X13298D01*
X13222Y89193D01*
D02*
G37*
G36*
X14944Y83426D02*
X14994Y83390D01*
X15046Y83358D01*
X15103Y83332D01*
X15163Y83311D01*
X15227Y83295D01*
X15295Y83284D01*
X15366Y83278D01*
X15441Y83277D01*
X15519Y83281D01*
X14618Y82239D01*
X14611Y82318D01*
X14600Y82393D01*
X14586Y82464D01*
X14567Y82531D01*
X14545Y82595D01*
X14519Y82655D01*
X14490Y82711D01*
X14456Y82763D01*
X14419Y82812D01*
X14378Y82857D01*
X14899Y83467D01*
X14944Y83426D01*
D02*
G37*
G36*
X17597Y81611D02*
X17540Y81666D01*
X17483Y81715D01*
X17425Y81758D01*
X17367Y81796D01*
X17308Y81828D01*
X17249Y81854D01*
X17189Y81874D01*
X17129Y81888D01*
X17068Y81897D01*
X17007Y81900D01*
Y82700D01*
X17068Y82703D01*
X17129Y82712D01*
X17189Y82726D01*
X17249Y82746D01*
X17308Y82772D01*
X17367Y82804D01*
X17425Y82842D01*
X17483Y82885D01*
X17540Y82934D01*
X17597Y82989D01*
Y81611D01*
D02*
G37*
G36*
X16360Y82934D02*
X16417Y82885D01*
X16475Y82842D01*
X16533Y82804D01*
X16592Y82772D01*
X16651Y82746D01*
X16711Y82726D01*
X16771Y82712D01*
X16832Y82703D01*
X16893Y82700D01*
Y81900D01*
X16832Y81897D01*
X16771Y81888D01*
X16711Y81874D01*
X16651Y81854D01*
X16592Y81828D01*
X16533Y81796D01*
X16475Y81758D01*
X16417Y81715D01*
X16360Y81666D01*
X16303Y81611D01*
Y82989D01*
X16360Y82934D01*
D02*
G37*
D14*
X25300Y67500D02*
G03*
X25300Y67500I-8500J0D01*
G01*
X146300Y176200D02*
G03*
X146300Y176200I-8500J0D01*
G01*
X146400Y14600D02*
G03*
X146400Y14600I-8500J0D01*
G01*
X156000Y75354D02*
Y79700D01*
X122900Y25600D02*
Y47600D01*
X128600Y53300D01*
X132100D01*
X174500Y75800D02*
Y79100D01*
X150900Y72100D02*
Y85500D01*
X132100Y53300D02*
X150900Y72100D01*
X123900Y91300D02*
X130500D01*
X145100D02*
X150900Y85500D01*
X130500Y91300D02*
X145100D01*
X33100Y62800D02*
Y70700D01*
Y56700D02*
Y62800D01*
Y70700D02*
Y76600D01*
Y84800D01*
X118500Y21200D02*
X122900Y25600D01*
X68600Y21200D02*
X118500D01*
X33100Y56700D02*
X68600Y21200D01*
X120400Y87800D02*
X123900Y91300D01*
X109900Y87800D02*
X120400D01*
X105900Y83800D02*
X109900Y87800D01*
X103800Y83800D02*
X105900D01*
X102700Y84900D02*
X103800Y83800D01*
X165000Y75354D02*
Y82600D01*
Y75300D02*
Y75354D01*
X162100Y85500D02*
X165000Y82600D01*
X159000Y69700D02*
X159027Y69673D01*
X164973D01*
X165000Y69646D01*
X158973Y69673D02*
X159000Y69700D01*
X156027Y69673D02*
X158973D01*
X165000Y69646D02*
X168900D01*
X156000D02*
X156027Y69673D01*
X168900Y69646D02*
X170554D01*
X170900Y69300D02*
X174500D01*
X170554Y69646D02*
X170900Y69300D01*
X191950Y115200D02*
X195700D01*
X182904Y115300D02*
X185550D01*
X181704Y116500D02*
X182904Y115300D01*
X181700Y116500D02*
X181704D01*
D16*
X133500Y24500D02*
Y26500D01*
X98400Y153769D02*
X100927Y151242D01*
X98400Y153769D02*
Y153800D01*
X100927Y150552D02*
Y151242D01*
X133100Y24100D02*
X133500Y24500D01*
X131600Y24100D02*
X133100D01*
X90500Y150400D02*
X91700Y147200D01*
X83124Y33777D02*
X83905Y36032D01*
X83100Y33700D02*
X83124Y33777D01*
X48109Y101133D02*
X48143Y101166D01*
X50966D01*
X51000Y101200D01*
X101300Y153800D02*
X102800Y151100D01*
X89000Y157500D02*
X90000Y154500D01*
X79700Y154100D02*
X79702Y154096D01*
X81400Y149600D01*
X74200Y152100D02*
X74202Y152094D01*
X75100Y149400D01*
X77900Y153400D02*
X78900Y150700D01*
X76000Y152700D02*
X77700Y148200D01*
D17*
X142772Y26500D02*
D03*
X139228D02*
D03*
D18*
X10600Y110800D02*
D03*
Y127400D02*
D03*
D19*
X12500Y93872D02*
D03*
Y90328D02*
D03*
X160700Y157199D02*
D03*
Y160742D02*
D03*
X171500Y50728D02*
D03*
Y54272D02*
D03*
X147000Y50728D02*
D03*
Y54272D02*
D03*
D20*
X98200Y103550D02*
D03*
Y97250D02*
D03*
X177400Y54150D02*
D03*
Y47850D02*
D03*
X174500Y69350D02*
D03*
Y75650D02*
D03*
X138000Y53650D02*
D03*
Y47350D02*
D03*
D21*
X97948Y28287D02*
D03*
X96099Y28960D02*
D03*
X94249Y29634D02*
D03*
X92399Y30307D02*
D03*
X90549Y30980D02*
D03*
X88699Y31653D02*
D03*
X86850Y32327D02*
D03*
X85000Y33000D02*
D03*
X83150Y33673D02*
D03*
X81300Y34347D02*
D03*
X79451Y35020D02*
D03*
X77601Y35693D02*
D03*
X75751Y36366D02*
D03*
X73901Y37040D02*
D03*
X72051Y37713D02*
D03*
X76598Y47328D02*
D03*
X78448Y46655D02*
D03*
X80298Y45982D02*
D03*
X82148Y45308D02*
D03*
X85847Y43962D02*
D03*
X87697Y43288D02*
D03*
X89547Y42615D02*
D03*
X91397Y41942D02*
D03*
X93246Y41269D02*
D03*
X102495Y37902D02*
D03*
X100646Y38576D02*
D03*
X98796Y39249D02*
D03*
X96946Y39922D02*
D03*
X95096Y40595D02*
D03*
X83997Y44635D02*
D03*
D22*
X101788Y26464D02*
D03*
X105751Y37153D02*
D03*
X72616Y49203D02*
D03*
X68720Y38500D02*
D03*
D23*
X47709Y67221D02*
D03*
X59100Y124066D02*
D03*
X47700Y124133D02*
D03*
X59100Y67221D02*
D03*
D24*
X58700Y70619D02*
D03*
Y72588D02*
D03*
Y74556D02*
D03*
Y76525D02*
D03*
Y78493D02*
D03*
Y80462D02*
D03*
Y119833D02*
D03*
Y117865D02*
D03*
Y115896D02*
D03*
Y113928D02*
D03*
Y111959D02*
D03*
Y109991D02*
D03*
Y108022D02*
D03*
Y106054D02*
D03*
Y104085D02*
D03*
Y102117D02*
D03*
Y100148D02*
D03*
Y98180D02*
D03*
Y96211D02*
D03*
Y94243D02*
D03*
Y92274D02*
D03*
Y90306D02*
D03*
Y88337D02*
D03*
Y86369D02*
D03*
Y84400D02*
D03*
Y82432D02*
D03*
X48109Y83416D02*
D03*
Y91290D02*
D03*
Y93259D02*
D03*
Y95227D02*
D03*
Y97196D02*
D03*
Y99164D02*
D03*
Y103101D02*
D03*
Y105070D02*
D03*
Y107038D02*
D03*
Y109007D02*
D03*
Y110975D02*
D03*
Y89322D02*
D03*
Y120818D02*
D03*
Y85385D02*
D03*
Y87353D02*
D03*
Y118849D02*
D03*
Y116881D02*
D03*
Y114912D02*
D03*
Y112944D02*
D03*
Y101133D02*
D03*
Y81446D02*
D03*
Y79477D02*
D03*
Y77509D02*
D03*
Y75540D02*
D03*
Y73572D02*
D03*
Y71603D02*
D03*
D25*
X171062Y100176D02*
D03*
X171062Y95452D02*
D03*
X171062Y90728D02*
D03*
D26*
X156200Y86200D02*
D03*
X156200Y104704D02*
D03*
D27*
X112250Y83700D02*
D03*
X105950D02*
D03*
X186150Y141000D02*
D03*
X179850D02*
D03*
Y121000D02*
D03*
X186150D02*
D03*
X179850Y127500D02*
D03*
X186150D02*
D03*
X179850Y134000D02*
D03*
X186150D02*
D03*
X191850Y115300D02*
D03*
X185550D02*
D03*
X185750Y108900D02*
D03*
X192050D02*
D03*
D28*
X140400Y139300D02*
D03*
D29*
X123800Y147000D02*
D03*
D30*
X165700Y154051D02*
D03*
Y160349D02*
D03*
D31*
X171200Y160939D02*
D03*
Y157002D02*
D03*
X163500Y54469D02*
D03*
Y50532D02*
D03*
X130000Y50468D02*
D03*
Y46532D02*
D03*
D32*
X170017Y147259D02*
D03*
Y144700D02*
D03*
Y142141D02*
D03*
X162183D02*
D03*
Y144700D02*
D03*
Y147259D02*
D03*
D33*
X160408Y132855D02*
D03*
X160408Y121910D02*
D03*
D34*
X103137Y163052D02*
D03*
X107033Y152348D02*
D03*
X73904Y140280D02*
D03*
X70069Y151016D02*
D03*
D35*
X95378Y148532D02*
D03*
X84279Y144492D02*
D03*
X82430Y143819D02*
D03*
X80580Y143146D02*
D03*
X78730Y142472D02*
D03*
X76880Y141799D02*
D03*
X86129Y145166D02*
D03*
X87979Y145839D02*
D03*
X89829Y146512D02*
D03*
X91679Y147185D02*
D03*
X93528Y147859D02*
D03*
X97228Y149205D02*
D03*
X99078Y149878D02*
D03*
X100927Y150552D02*
D03*
X102777Y151225D02*
D03*
X100080Y161513D02*
D03*
X98230Y160840D02*
D03*
X96380Y160167D02*
D03*
X94530Y159494D02*
D03*
X92681Y158820D02*
D03*
X90831Y158147D02*
D03*
X88981Y157474D02*
D03*
X87131Y156800D02*
D03*
X85282Y156127D02*
D03*
X83432Y155454D02*
D03*
X81582Y154781D02*
D03*
X79732Y154107D02*
D03*
X77882Y153434D02*
D03*
X76033Y152761D02*
D03*
X74183Y152088D02*
D03*
D36*
X33154Y84700D02*
D03*
X27446D02*
D03*
X33154Y76600D02*
D03*
X27446D02*
D03*
X33154Y104400D02*
D03*
X27446D02*
D03*
X33154Y112500D02*
D03*
X27446D02*
D03*
X33154Y90600D02*
D03*
X27446D02*
D03*
Y98900D02*
D03*
X33154D02*
D03*
Y62800D02*
D03*
X27446D02*
D03*
X33154Y70700D02*
D03*
X27446D02*
D03*
D37*
X18600Y96243D02*
D03*
Y89157D02*
D03*
D38*
X33343Y55900D02*
D03*
X26257D02*
D03*
D39*
X112000Y109854D02*
D03*
Y104146D02*
D03*
X106500Y104146D02*
D03*
Y109854D02*
D03*
X120500Y98646D02*
D03*
Y104354D02*
D03*
X99500Y87346D02*
D03*
Y93054D02*
D03*
X165000Y75354D02*
D03*
Y69646D02*
D03*
X156000D02*
D03*
Y75354D02*
D03*
D40*
X104413Y92047D02*
D03*
Y94016D02*
D03*
Y95984D02*
D03*
Y97953D02*
D03*
X113587D02*
D03*
Y95984D02*
D03*
Y94016D02*
D03*
Y92047D02*
D03*
D41*
X107032Y98602D02*
D03*
X109000D02*
D03*
X110968D02*
D03*
Y91398D02*
D03*
X109000D02*
D03*
X107032D02*
D03*
D42*
X162831Y37000D02*
D03*
X154169Y37000D02*
D03*
D43*
X141047Y33260D02*
D03*
Y37000D02*
D03*
Y40740D02*
D03*
X131953D02*
D03*
Y37000D02*
D03*
Y33260D02*
D03*
D44*
X129532Y26500D02*
D03*
X133468D02*
D03*
D74*
X77499Y51798D02*
G03*
X77500Y51800I-939J344D01*
G01*
X78837Y138906D02*
Y142366D01*
X76880Y140906D02*
Y141799D01*
X71331Y131400D02*
X78837Y138906D01*
X78037Y139237D02*
Y139749D01*
X71000Y132200D02*
X78037Y139237D01*
X56300Y131400D02*
X71331D01*
X76880Y140906D02*
X78037Y139749D01*
X52000Y104952D02*
Y127100D01*
X50734Y103685D02*
X52000Y104952D01*
X49796Y103685D02*
X50734D01*
X48109Y103101D02*
X49212D01*
X51200Y105283D02*
Y127431D01*
X49796Y104485D02*
X50402D01*
X51200Y105283D01*
X49212Y103101D02*
X49796Y103685D01*
X49212Y105070D02*
X49796Y104485D01*
X48109Y105070D02*
X49212D01*
X52000Y127100D02*
X56300Y131400D01*
X51200Y127431D02*
X55969Y132200D01*
X71000D01*
X78730Y142472D02*
X78837Y142366D01*
X56473Y130200D02*
X72769D01*
X73268Y130699D01*
X73431Y128600D02*
X86500Y141669D01*
X56804Y129400D02*
X73100D01*
X88300Y142337D02*
Y145500D01*
X84400Y140700D02*
Y144075D01*
X73100Y129400D02*
X84400Y140700D01*
X86500Y141669D02*
Y144800D01*
X73268Y130699D02*
X76480Y133912D01*
X73763Y127800D02*
X88300Y142337D01*
X73945Y126851D02*
X90206Y143112D01*
X76480Y133912D02*
X83600Y141031D01*
Y141935D01*
X57135Y128600D02*
X73431D01*
X57467Y127800D02*
X73763D01*
X90206Y143112D02*
Y146094D01*
X57649Y126851D02*
X73945D01*
X50790Y91290D02*
X56100Y96600D01*
Y125302D01*
X54500Y99337D02*
Y125964D01*
X52900Y100000D02*
Y126627D01*
X55300Y98400D02*
Y125633D01*
X56100Y125302D02*
X57649Y126851D01*
X51811Y97780D02*
X53700Y99669D01*
Y126296D01*
X54500Y125964D02*
X57135Y128600D01*
X51480Y98580D02*
X52900Y100000D01*
X55300Y125633D02*
X57467Y127800D01*
X52900Y126627D02*
X56473Y130200D01*
X50168Y93268D02*
X55300Y98400D01*
X53700Y126296D02*
X56804Y129400D01*
X50402Y95240D02*
X54500Y99337D01*
X57578Y70600D02*
X58700D01*
X57207Y70229D02*
X57578Y70600D01*
X56200Y69100D02*
Y69200D01*
X57207Y70207D02*
Y70229D01*
X56200Y69200D02*
X57207Y70207D01*
X62700Y62300D02*
Y70900D01*
X61012Y72588D02*
X62700Y70900D01*
X58700Y72588D02*
X61012D01*
X54400Y57900D02*
Y82765D01*
Y57900D02*
X68800Y43500D01*
X54400Y82765D02*
X56036Y84400D01*
X53500Y57669D02*
Y82996D01*
X56482Y85978D01*
X53500Y57669D02*
X68569Y42600D01*
X93600Y154100D02*
X95500Y152200D01*
X97415D02*
X99078Y150537D01*
Y149878D02*
Y150537D01*
X95500Y152200D02*
X97415D01*
X78500Y46600D02*
X79500Y49900D01*
X61800Y91000D02*
X61900D01*
X60500Y92300D02*
X61800Y91000D01*
X58700Y92274D02*
X58726Y92300D01*
X60500D01*
X99400Y93100D02*
X100200D01*
X101900Y94800D01*
Y97300D01*
X102553Y97953D01*
X104413D01*
X63600Y73100D02*
X88900Y47800D01*
X111500D01*
X63600Y73100D02*
Y99500D01*
X58700Y102117D02*
X58710Y102107D01*
X60993D01*
X63600Y99500D01*
X58847Y78347D02*
X61753D01*
X58700Y78493D02*
X58847Y78347D01*
X61753D02*
X61900Y78200D01*
X61931Y80531D02*
X62000Y80600D01*
X58769Y80531D02*
X61931D01*
X58700Y80462D02*
X58769Y80531D01*
X58775Y108097D02*
X63055D01*
X63180Y111980D02*
X63200Y112000D01*
X63055Y108097D02*
X63130Y108172D01*
X58720Y111980D02*
X63180D01*
X62998Y115898D02*
X63000Y115900D01*
X58717Y119817D02*
X62983D01*
X58702Y115898D02*
X62998D01*
X62983Y119817D02*
X63000Y119800D01*
X58700Y108022D02*
X58775Y108097D01*
X60700Y94300D02*
X61300Y93700D01*
X61600D01*
X58700Y94243D02*
X58757Y94300D01*
X60700D01*
X61276Y98700D02*
X61700D01*
X60776Y98200D02*
X61276Y98700D01*
X58720Y98200D02*
X60776D01*
X58700Y98180D02*
X58720Y98200D01*
X61694Y96206D02*
X61700Y96200D01*
X58706Y96206D02*
X61694D01*
X58700Y96211D02*
X58706Y96206D01*
X169000Y140100D02*
X170017Y141117D01*
Y142141D01*
X174500Y75800D02*
X174600Y75700D01*
X118154Y98646D02*
X120500D01*
X115300Y101500D02*
X118154Y98646D01*
X112400Y101500D02*
X115300D01*
X96000Y144600D02*
Y147910D01*
X97228Y148259D02*
X99400Y146087D01*
Y145800D02*
Y146087D01*
X97228Y148259D02*
Y149205D01*
X95378Y148532D02*
X96000Y147910D01*
X27400Y62754D02*
X27446Y62800D01*
X27400Y60800D02*
Y62754D01*
Y60800D02*
X27800Y60400D01*
X30400D01*
X29691Y74100D02*
X30000D01*
X27446Y76346D02*
X29691Y74100D01*
X192100Y108900D02*
Y109147D01*
X196053Y113100D01*
X198900D01*
X63400Y41800D02*
X81731D01*
X37700Y67500D02*
Y111900D01*
X36900Y67169D02*
Y112231D01*
Y67169D02*
X63069Y41000D01*
X37700Y67500D02*
X63400Y41800D01*
X63069Y41000D02*
X81400D01*
X79300Y23600D02*
X102800D01*
X46434Y55334D02*
X46434D01*
X47000Y55900D02*
X79300Y23600D01*
X46434Y55334D02*
X78969Y22800D01*
X103131D01*
X36079Y66821D02*
Y113679D01*
X35279Y66489D02*
Y114011D01*
X45634Y56134D02*
X46434Y55334D01*
X47000Y55900D02*
Y55900D01*
X45634Y56134D02*
Y56134D01*
X35279Y66489D02*
X45634Y56134D01*
X36079Y66821D02*
X47000Y55900D01*
X41961Y79970D02*
X44422Y77509D01*
X40077Y105677D02*
X40192Y105562D01*
X41844Y80087D02*
X41961Y79970D01*
X39807Y105700D02*
X39931Y105690D01*
X41790Y103672D02*
X41844Y80087D01*
X39931Y105690D02*
X40077Y105677D01*
X40192Y105562D02*
X41790Y103672D01*
X27446Y76346D02*
Y76600D01*
X27400Y70700D02*
X27446D01*
X29300Y67300D02*
X30600Y68600D01*
Y70100D01*
X27446Y70700D02*
X30000D01*
X30600Y70100D01*
X28200Y81200D02*
X31100D01*
X39807Y75193D02*
Y78000D01*
Y75193D02*
X41428Y73572D01*
X48109D01*
X27446Y81954D02*
X28200Y81200D01*
X27446Y81954D02*
Y84700D01*
X24900Y90600D02*
X27446D01*
X27400Y98900D02*
X27500Y99000D01*
X25100Y98900D02*
X27400D01*
X25000Y104400D02*
X27400D01*
X171220Y160920D02*
X174480D01*
X171200Y160939D02*
X171220Y160920D01*
X174480D02*
X174500Y160900D01*
X27446Y112500D02*
X27500D01*
X23300Y112000D02*
X23800Y112500D01*
X27446D01*
X23300Y110500D02*
Y112000D01*
X109000Y101400D02*
X111700Y104100D01*
X109000Y98602D02*
Y101400D01*
X111700Y104100D02*
X112000D01*
X107100Y98600D02*
Y100334D01*
X106500Y100934D02*
Y101400D01*
Y100934D02*
X107100Y100334D01*
X106500Y101400D02*
Y104146D01*
X111100Y98700D02*
Y100200D01*
X111000Y98600D02*
X111100Y98700D01*
Y100200D02*
X112400Y101500D01*
X39800Y92293D02*
X39807Y92300D01*
X39800Y81000D02*
Y92293D01*
Y81000D02*
X45260Y75540D01*
X89600Y41800D02*
Y42600D01*
X86473Y39943D02*
X86516Y39900D01*
X87700D02*
X89600Y41800D01*
X86516Y39900D02*
X87700D01*
X81400Y41000D02*
X87600Y34800D01*
X81731Y41800D02*
X87931Y35600D01*
X92000D01*
X87600Y34800D02*
X92331D01*
X88200Y38043D02*
X91397Y41240D01*
X88200Y38000D02*
Y38043D01*
X91397Y41240D02*
Y41942D01*
X93200Y40277D02*
Y41200D01*
X91100Y37800D02*
Y38177D01*
X93200Y40277D01*
X92331Y34800D02*
X96946Y39415D01*
X92000Y35600D02*
X94900Y38500D01*
X43100Y107000D02*
X43119Y107019D01*
X48090D02*
X48109Y107038D01*
X43119Y107019D02*
X48090D01*
X45103Y109003D02*
X48106D01*
X45100Y109000D02*
X45103Y109003D01*
X48106D02*
X48109Y109007D01*
X42812Y110987D02*
X48097D01*
X48109Y110975D01*
X42800Y111000D02*
X42812Y110987D01*
X100539Y36983D02*
X100700Y36821D01*
Y33977D02*
Y36821D01*
X101500Y34309D02*
Y36014D01*
X101561Y36075D01*
X102496Y37009D02*
Y37902D01*
X101561Y36075D02*
Y36075D01*
X100700Y33977D02*
X105200Y29478D01*
X105200D01*
X101561Y36075D02*
X102496Y37009D01*
X101500Y34309D02*
X106000Y29809D01*
X100539Y38469D02*
X100646Y38576D01*
X100539Y36983D02*
Y38469D01*
X35279Y114011D02*
X41502Y120233D01*
X46423D01*
X36079Y113679D02*
X41833Y119433D01*
X46423D01*
X68800Y43500D02*
X80980D01*
X68569Y42600D02*
X82622D01*
X96946Y39415D02*
Y39922D01*
X94900Y40399D02*
X95096Y40595D01*
X94900Y38500D02*
Y40399D01*
X45260Y75540D02*
X48109D01*
X36900Y112231D02*
X38996Y114328D01*
X37700Y111900D02*
X39328Y113528D01*
X38996Y114328D02*
X46423D01*
X39328Y113528D02*
X46423D01*
Y114328D02*
X47007Y114912D01*
X48109D01*
X46423Y113528D02*
X47007Y112944D01*
X48109D01*
X48058Y71552D02*
X48109Y71603D01*
X43952Y71552D02*
X48058D01*
X43900Y71500D02*
X43952Y71552D01*
X94731Y30031D02*
Y32942D01*
X94930Y34842D01*
X80980Y43500D02*
X82200Y44720D01*
Y45300D01*
X82622Y42600D02*
X84000Y43979D01*
X98000Y28400D02*
Y29249D01*
X99700Y30949D01*
Y31200D01*
X96100Y28900D02*
X96638Y29438D01*
Y32238D02*
X96800Y32400D01*
X96638Y29438D02*
Y32238D01*
X94300Y29600D02*
X94731Y30031D01*
X92300Y30300D02*
X92879Y30879D01*
Y33018D01*
X92981Y33121D01*
X46423Y120233D02*
X47007Y120818D01*
X46423Y119433D02*
X47007Y118849D01*
Y120818D02*
X48109D01*
X47007Y118849D02*
X48109D01*
X102800Y23600D02*
X105200Y26000D01*
X103131Y22800D02*
X106000Y25669D01*
Y29809D01*
X105200Y26000D02*
Y29478D01*
X44422Y77509D02*
X48109D01*
X58705Y109995D02*
X61495D01*
X58700Y109991D02*
X58705Y109995D01*
X61495D02*
X61500Y110000D01*
X58714Y113914D02*
X61586D01*
X58723Y106077D02*
X61477D01*
X58700Y106054D02*
X58723Y106077D01*
X61477D02*
X61500Y106100D01*
X58700Y111959D02*
X58720Y111980D01*
X87700Y43300D02*
X88800Y46100D01*
X77470Y51717D02*
X77499Y51798D01*
X77470Y50530D02*
Y51717D01*
Y50530D02*
X77474Y50529D01*
X77002Y48451D02*
X77474Y50308D01*
Y50529D01*
X51700Y86600D02*
Y87500D01*
X51421Y89322D02*
X52700Y90600D01*
X48109Y91290D02*
X50790D01*
X51616Y83416D02*
X53900Y85700D01*
X76599Y47328D02*
X77002Y48451D01*
X58310Y85978D02*
X58700Y86369D01*
X56482Y85978D02*
X58310D01*
X58700Y117865D02*
X58718Y117882D01*
X61586Y113914D02*
X61600Y113900D01*
X61482Y117882D02*
X61500Y117900D01*
X58700Y113928D02*
X58714Y113914D01*
X58718Y117882D02*
X61482D01*
X58700Y119833D02*
X58717Y119817D01*
X58700Y115896D02*
X58702Y115898D01*
X56036Y84400D02*
X58700D01*
X84000Y43979D02*
Y44700D01*
X48109Y83416D02*
X51616D01*
X50485Y85385D02*
X51700Y86600D01*
X48109Y85385D02*
X50485D01*
X48109Y89322D02*
X51421D01*
X48119Y93268D02*
X50168D01*
X48109Y93259D02*
X48119Y93268D01*
X89800Y146500D02*
X90206Y146094D01*
X49796Y98580D02*
X51480D01*
X49796Y97780D02*
X51811D01*
X88000Y145800D02*
X88300Y145500D01*
X86100Y145200D02*
X86500Y144800D01*
X48122Y95240D02*
X50402D01*
X48109Y95227D02*
X48122Y95240D01*
X82430Y143105D02*
Y143819D01*
Y143105D02*
X83600Y141935D01*
X48109Y99164D02*
X49212D01*
X49796Y98580D01*
X84400Y144075D02*
X84548Y144223D01*
X84279Y144492D02*
X84548Y144223D01*
X49212Y97196D02*
X49796Y97780D01*
X48109Y97196D02*
X49212D01*
X163500Y54469D02*
X163584Y54384D01*
X166716D02*
X166800Y54300D01*
X191850Y115300D02*
X191950Y115200D01*
D75*
X166100Y144700D02*
D03*
D76*
X116500Y92900D02*
Y96100D01*
X115647Y92047D02*
X116500Y92900D01*
X113587Y92047D02*
X115647D01*
X112700Y89200D02*
X113600Y90100D01*
Y92000D01*
X107700Y89200D02*
X112700D01*
X107032Y89868D02*
X107700Y89200D01*
X107032Y89868D02*
Y91398D01*
X15500Y82300D02*
X18300D01*
X12500Y85300D02*
X15500Y82300D01*
X12500Y85300D02*
Y90328D01*
X131900Y40800D02*
Y43400D01*
X165550Y149650D02*
Y153901D01*
X165400Y149500D02*
X165550Y149650D01*
Y153901D02*
X165700Y154051D01*
X126500Y35500D02*
X128000Y37000D01*
X126500Y38500D02*
X128000Y37000D01*
X126500Y38500D02*
Y45600D01*
X128000Y37000D02*
X131953D01*
X126500Y45600D02*
X127431Y46532D01*
X130000D01*
X126500Y28000D02*
Y35500D01*
Y28000D02*
X128000Y26500D01*
X129532D01*
X163584Y54384D02*
X166716D01*
X137600Y26500D02*
X139032D01*
X134500Y29600D02*
X137600Y26500D01*
X133200Y29600D02*
X134500D01*
X131953Y30847D02*
X133200Y29600D01*
X131953Y30847D02*
Y33260D01*
X143000Y26400D02*
Y28300D01*
X142000Y29300D02*
X143000Y28300D01*
X139400Y29300D02*
X142000D01*
X136300Y32400D02*
Y36100D01*
Y32400D02*
X139400Y29300D01*
X136300Y36100D02*
X137200Y37000D01*
X141047D01*
D77*
X168200Y134300D02*
X168350Y134150D01*
X179700D02*
X179850Y134000D01*
X179900Y120853D02*
Y121100D01*
X179850Y127500D02*
Y133950D01*
Y121000D02*
Y127500D01*
X176600Y117553D02*
X179900Y120853D01*
X176600Y113400D02*
Y117553D01*
X181100Y108900D02*
X185750D01*
X176600Y113400D02*
X181100Y108900D01*
X23857Y96243D02*
X24900Y95200D01*
X33154D02*
Y98900D01*
Y90654D02*
Y95200D01*
X24900D02*
X33154D01*
X18600Y96243D02*
X23857D01*
X18500Y96400D02*
X18600Y96300D01*
X33154Y104400D02*
Y112500D01*
Y98900D02*
Y104400D01*
D78*
X149300Y17000D02*
D03*
X152000D02*
D03*
X154800D02*
D03*
X157400D02*
D03*
X149300Y19800D02*
D03*
X152000D02*
D03*
X154800D02*
D03*
X157400D02*
D03*
X149300Y22600D02*
D03*
X152000D02*
D03*
X154800D02*
D03*
X157400D02*
D03*
X62700Y62300D02*
D03*
X51500Y72300D02*
D03*
X56200Y69100D02*
D03*
X93600Y154000D02*
D03*
X110500Y95600D02*
D03*
X108500Y94000D02*
D03*
X106800Y95700D02*
D03*
X79500Y49900D02*
D03*
X83200Y48900D02*
D03*
X102200Y29800D02*
D03*
X66200Y39200D02*
D03*
X156600Y91100D02*
D03*
X137500Y43600D02*
D03*
X118700Y41300D02*
D03*
X116200D02*
D03*
X113700D02*
D03*
X111100D02*
D03*
X108700D02*
D03*
X118600Y43800D02*
D03*
X116100D02*
D03*
X113600D02*
D03*
X111100D02*
D03*
X108600D02*
D03*
X111500Y47800D02*
D03*
X156000Y79700D02*
D03*
X142500Y55000D02*
D03*
X61900Y103600D02*
D03*
Y91100D02*
D03*
Y88500D02*
D03*
Y78200D02*
D03*
Y80600D02*
D03*
X63130Y108172D02*
D03*
X63200Y112000D02*
D03*
X63000Y115900D02*
D03*
Y119800D02*
D03*
X61700Y93700D02*
D03*
Y98700D02*
D03*
Y96200D02*
D03*
X144400Y57100D02*
D03*
X146400Y59000D02*
D03*
X148400Y61000D02*
D03*
X166800Y54300D02*
D03*
X166000Y47800D02*
D03*
X163200D02*
D03*
X160500D02*
D03*
X157900D02*
D03*
X144000Y48100D02*
D03*
X142100Y46300D02*
D03*
X140200Y44400D02*
D03*
X131900Y43400D02*
D03*
X131600Y24100D02*
D03*
X102600Y16800D02*
D03*
X80400Y16700D02*
D03*
X93800Y16800D02*
D03*
X91200D02*
D03*
X88400D02*
D03*
X85700D02*
D03*
X83100D02*
D03*
X93800Y14000D02*
D03*
X91200D02*
D03*
X88400D02*
D03*
X85700D02*
D03*
X83100D02*
D03*
X80500D02*
D03*
X93800Y11200D02*
D03*
X91200D02*
D03*
X88400D02*
D03*
X85700D02*
D03*
X83100D02*
D03*
X80500D02*
D03*
X116100Y16800D02*
D03*
X113500D02*
D03*
X110700D02*
D03*
X108000D02*
D03*
X105400D02*
D03*
X116100Y14000D02*
D03*
X113500D02*
D03*
X110700D02*
D03*
X108000D02*
D03*
X105400D02*
D03*
X102800D02*
D03*
X116100Y11200D02*
D03*
X113500D02*
D03*
X110700D02*
D03*
X108000D02*
D03*
X105400D02*
D03*
X102800D02*
D03*
X169000Y140100D02*
D03*
X174500Y79100D02*
D03*
X96000Y144600D02*
D03*
X99400Y145800D02*
D03*
X15600Y82300D02*
D03*
X18300D02*
D03*
X30400Y60400D02*
D03*
X147900Y92500D02*
D03*
X194700Y122100D02*
D03*
Y125000D02*
D03*
Y127900D02*
D03*
X194600Y130700D02*
D03*
X191900Y122100D02*
D03*
Y125000D02*
D03*
Y127900D02*
D03*
Y130800D02*
D03*
Y133700D02*
D03*
X176600Y116200D02*
D03*
X179800Y124400D02*
D03*
Y130900D02*
D03*
X162700Y125000D02*
D03*
X168100Y116700D02*
D03*
X154900Y128800D02*
D03*
X160000Y125000D02*
D03*
X160100Y131600D02*
D03*
X165600Y134300D02*
D03*
Y128800D02*
D03*
X168200Y134300D02*
D03*
X162800Y128800D02*
D03*
Y131600D02*
D03*
X154800Y119500D02*
D03*
X162700D02*
D03*
Y116700D02*
D03*
X165500Y113900D02*
D03*
X157400Y119500D02*
D03*
X165500Y125000D02*
D03*
X160000Y122300D02*
D03*
X154800Y125000D02*
D03*
X157400Y113900D02*
D03*
Y125000D02*
D03*
X168100Y119500D02*
D03*
X160100Y128800D02*
D03*
X157500Y131600D02*
D03*
X165600D02*
D03*
X154900Y134300D02*
D03*
X154800Y116700D02*
D03*
X154900Y131600D02*
D03*
X162800Y134300D02*
D03*
X157400Y122300D02*
D03*
X168100D02*
D03*
X160000Y116700D02*
D03*
X168200Y128800D02*
D03*
X162700Y113900D02*
D03*
X160100Y134300D02*
D03*
X162700Y122300D02*
D03*
X154800Y113900D02*
D03*
X168200Y131600D02*
D03*
X154800Y122300D02*
D03*
X168100Y125000D02*
D03*
X160000Y119500D02*
D03*
X157400Y116700D02*
D03*
X165500Y122300D02*
D03*
X160000Y113900D02*
D03*
X165500Y116700D02*
D03*
X168100Y113900D02*
D03*
X157500Y134300D02*
D03*
X165500Y119500D02*
D03*
X157500Y128800D02*
D03*
X146200Y139400D02*
D03*
X143400D02*
D03*
X135500D02*
D03*
X140700D02*
D03*
X138100D02*
D03*
X139300Y142100D02*
D03*
X144800D02*
D03*
X136700D02*
D03*
X134100D02*
D03*
X142000D02*
D03*
X146200Y145000D02*
D03*
X138100D02*
D03*
X135500D02*
D03*
X140700D02*
D03*
X143400D02*
D03*
X130500Y91300D02*
D03*
X108700Y86500D02*
D03*
X30000Y74100D02*
D03*
X94100Y99700D02*
D03*
X100100Y108100D02*
D03*
X137000Y147700D02*
D03*
X139600D02*
D03*
X142200D02*
D03*
X144900D02*
D03*
X147700D02*
D03*
X140600Y153400D02*
D03*
X144100Y150500D02*
D03*
X141400D02*
D03*
X138800D02*
D03*
X51500Y78200D02*
D03*
Y75300D02*
D03*
X50100Y64200D02*
D03*
X4300Y91900D02*
D03*
X9500Y103000D02*
D03*
X4300Y94700D02*
D03*
X9500D02*
D03*
X4300Y97500D02*
D03*
Y103000D02*
D03*
X6900Y97500D02*
D03*
X9500D02*
D03*
X6900Y103000D02*
D03*
Y100300D02*
D03*
X9500Y91900D02*
D03*
Y100300D02*
D03*
X6900Y91900D02*
D03*
X4300Y100300D02*
D03*
X6900Y94700D02*
D03*
X7000Y89200D02*
D03*
X4200D02*
D03*
Y78100D02*
D03*
X9600Y86500D02*
D03*
X7000Y80900D02*
D03*
X9600Y89200D02*
D03*
Y83700D02*
D03*
X4200D02*
D03*
X7000D02*
D03*
X4200Y86500D02*
D03*
X9600Y80900D02*
D03*
X7000Y78100D02*
D03*
X4200Y80900D02*
D03*
X7000Y86500D02*
D03*
X9600Y78100D02*
D03*
X181000Y60500D02*
D03*
X183600D02*
D03*
X186200D02*
D03*
X188900D02*
D03*
X191700D02*
D03*
X194300D02*
D03*
X181000Y63300D02*
D03*
X183600D02*
D03*
X186200D02*
D03*
X188900D02*
D03*
X191700D02*
D03*
X194300D02*
D03*
X183600Y66100D02*
D03*
X186200D02*
D03*
X188900D02*
D03*
X191700D02*
D03*
X194300D02*
D03*
X183600Y68900D02*
D03*
X186200D02*
D03*
X188900D02*
D03*
X191700D02*
D03*
X194300D02*
D03*
Y71600D02*
D03*
X191700D02*
D03*
X188900D02*
D03*
X186200D02*
D03*
X183600D02*
D03*
X112800Y173200D02*
D03*
X115400D02*
D03*
X118000D02*
D03*
X120700D02*
D03*
X123500D02*
D03*
X126100D02*
D03*
X73000Y52900D02*
D03*
X70600Y55300D02*
D03*
X68400Y57600D02*
D03*
X65900Y59800D02*
D03*
X44200Y95500D02*
D03*
Y92100D02*
D03*
Y88600D02*
D03*
X29300Y67300D02*
D03*
X45200Y116900D02*
D03*
X42400D02*
D03*
X159700Y139400D02*
D03*
X157000Y139500D02*
D03*
X165300Y139400D02*
D03*
X159700Y142200D02*
D03*
X157000D02*
D03*
X162200Y139400D02*
D03*
X112800Y167500D02*
D03*
X115400D02*
D03*
X118000D02*
D03*
X120700D02*
D03*
X123500D02*
D03*
X126100D02*
D03*
X112800Y170300D02*
D03*
X115400D02*
D03*
X118000D02*
D03*
X120700D02*
D03*
X123500D02*
D03*
X126100D02*
D03*
X112800Y175900D02*
D03*
X115400D02*
D03*
X118000D02*
D03*
X120700D02*
D03*
X123500D02*
D03*
X126100D02*
D03*
X112800Y178700D02*
D03*
X115400D02*
D03*
X118000D02*
D03*
X120700D02*
D03*
X123500D02*
D03*
X126100D02*
D03*
Y181400D02*
D03*
X123500D02*
D03*
X120700D02*
D03*
X118000D02*
D03*
X115400D02*
D03*
X112800D02*
D03*
X200300Y81800D02*
D03*
X201700Y84300D02*
D03*
X199000Y107000D02*
D03*
X198000Y109500D02*
D03*
X165400Y149500D02*
D03*
X93900Y95600D02*
D03*
X31100Y81200D02*
D03*
X151600Y88600D02*
D03*
X149800Y90500D02*
D03*
X105200Y87700D02*
D03*
X102700Y84900D02*
D03*
X24900Y90600D02*
D03*
X25000Y104400D02*
D03*
X18500Y102300D02*
D03*
X147900Y156800D02*
D03*
X152300D02*
D03*
X155900Y156700D02*
D03*
X18500Y99700D02*
D03*
Y104900D02*
D03*
X90500Y150400D02*
D03*
X98000Y84700D02*
D03*
X100300Y83000D02*
D03*
X115700Y82300D02*
D03*
X121000Y85100D02*
D03*
X118300Y85000D02*
D03*
X115600D02*
D03*
X174400Y160900D02*
D03*
X152300Y153500D02*
D03*
X158500Y153700D02*
D03*
X93900Y92900D02*
D03*
X101500Y143300D02*
D03*
X94500Y141800D02*
D03*
X98100Y142600D02*
D03*
X162000Y100900D02*
D03*
X25100Y98900D02*
D03*
X109500Y101900D02*
D03*
X106500Y101400D02*
D03*
X23300Y110500D02*
D03*
X39807Y92300D02*
D03*
X86473Y39943D02*
D03*
X88200Y38000D02*
D03*
X91100Y37800D02*
D03*
X83905Y36032D02*
D03*
X42800Y111000D02*
D03*
X45100Y109000D02*
D03*
X43100Y107000D02*
D03*
X43900Y71500D02*
D03*
X94930Y34842D02*
D03*
X39807Y78000D02*
D03*
Y105700D02*
D03*
X99700Y31200D02*
D03*
X96800Y32400D02*
D03*
X92981Y33121D02*
D03*
X61500Y110000D02*
D03*
Y106100D02*
D03*
X88800Y46100D02*
D03*
X101355Y153775D02*
D03*
X77500Y51800D02*
D03*
X52700Y90600D02*
D03*
X53900Y85800D02*
D03*
X51000Y101200D02*
D03*
X61500Y113900D02*
D03*
Y117900D02*
D03*
X75100Y149400D02*
D03*
X77700Y148200D02*
D03*
X81400Y149600D02*
D03*
X78900Y150700D02*
D03*
X98400Y153800D02*
D03*
X90000Y154500D02*
D03*
X51600Y87500D02*
D03*
X162000Y106000D02*
D03*
Y95700D02*
D03*
X162100Y85500D02*
D03*
X161900Y69600D02*
D03*
X159000Y69700D02*
D03*
X168900Y69600D02*
D03*
X197200Y82100D02*
D03*
X198900Y84200D02*
D03*
X195400Y84100D02*
D03*
X200500Y109500D02*
D03*
X201500Y107000D02*
D03*
X196400D02*
D03*
X198900Y113100D02*
D03*
X181700Y116500D02*
D03*
X195700Y115200D02*
D03*
X200600Y102400D02*
D03*
X197000Y102500D02*
D03*
X200700Y95600D02*
D03*
X197000Y95700D02*
D03*
X200600Y87900D02*
D03*
X196900D02*
D03*
X202400Y90000D02*
D03*
X202600Y93800D02*
D03*
X195300Y100400D02*
D03*
X194400Y93900D02*
D03*
X198800Y90000D02*
D03*
X195100D02*
D03*
X198800Y93800D02*
D03*
X202400Y100400D02*
D03*
X198700D02*
D03*
M02*
