G04*
G04 #@! TF.GenerationSoftware,Altium Limited,Altium Designer,21.3.2 (30)*
G04*
G04 Layer_Physical_Order=3*
G04 Layer_Color=763147*
%FSLAX25Y25*%
%MOIN*%
G70*
G04*
G04 #@! TF.SameCoordinates,24C89C37-09E3-4822-9DB9-40424265DB80*
G04*
G04*
G04 #@! TF.FilePolarity,Positive*
G04*
G01*
G75*
%ADD74C,0.00400*%
%ADD78C,0.01968*%
%ADD79C,0.01500*%
G36*
X121748Y189595D02*
X121748Y189595D01*
Y189595D01*
X121762Y189606D01*
X126365Y188905D01*
X131978Y187700D01*
X137508Y186159D01*
X142935Y184286D01*
X148238Y182089D01*
X153400Y179576D01*
X158400Y176756D01*
X163221Y173639D01*
X167845Y170236D01*
X172255Y166561D01*
X176435Y162626D01*
X180370Y158446D01*
X184046Y154036D01*
X187448Y149412D01*
X190565Y144591D01*
X193385Y139591D01*
X195898Y134429D01*
X198095Y129125D01*
X199968Y123698D01*
X201510Y118168D01*
X202715Y112555D01*
X203578Y106880D01*
X204049Y101698D01*
X203568Y101473D01*
X203297Y101743D01*
X202715Y101984D01*
X202252D01*
X202184Y102085D01*
Y102715D01*
X201943Y103297D01*
X201497Y103743D01*
X200915Y103984D01*
X200285D01*
X199703Y103743D01*
X199257Y103297D01*
X199071Y102848D01*
X198833Y102832D01*
X198554Y102889D01*
X198343Y103397D01*
X197897Y103843D01*
X197315Y104084D01*
X196685D01*
X196103Y103843D01*
X195657Y103397D01*
X195416Y102815D01*
Y102185D01*
X195282Y101984D01*
X194985D01*
X194403Y101743D01*
X193957Y101297D01*
X193716Y100715D01*
Y100085D01*
X193957Y99503D01*
X194403Y99057D01*
X194985Y98816D01*
X195615D01*
X196197Y99057D01*
X196643Y99503D01*
X196729Y99711D01*
X197271D01*
X197357Y99503D01*
X197803Y99057D01*
X198385Y98816D01*
X199015D01*
X199597Y99057D01*
X200043Y99503D01*
X200284Y100085D01*
Y100107D01*
X200784Y100345D01*
X200816Y100319D01*
Y100085D01*
X201057Y99503D01*
X201503Y99057D01*
X202085Y98816D01*
X202715D01*
X203297Y99057D01*
X203651Y99410D01*
X204077Y99308D01*
X204155Y99262D01*
X204271Y95424D01*
X204261Y95086D01*
X203755Y94886D01*
X203497Y95143D01*
X202915Y95384D01*
X202285D01*
X202284Y95385D01*
Y95915D01*
X202043Y96497D01*
X201597Y96943D01*
X201015Y97184D01*
X200385D01*
X199803Y96943D01*
X199357Y96497D01*
X199116Y95915D01*
Y95385D01*
X199115Y95384D01*
X198585D01*
X198584Y95385D01*
Y96015D01*
X198343Y96597D01*
X197897Y97043D01*
X197315Y97284D01*
X196685D01*
X196103Y97043D01*
X195657Y96597D01*
X195416Y96015D01*
Y95735D01*
X194916Y95401D01*
X194715Y95484D01*
X194085D01*
X193503Y95243D01*
X193057Y94797D01*
X192816Y94215D01*
Y93585D01*
X193057Y93003D01*
X193503Y92557D01*
X194085Y92316D01*
X194715D01*
X195297Y92557D01*
X195743Y93003D01*
X195984Y93585D01*
Y93865D01*
X196484Y94199D01*
X196685Y94116D01*
X197215D01*
X197216Y94115D01*
Y93485D01*
X197457Y92903D01*
X197903Y92457D01*
X198485Y92216D01*
X199115D01*
X199697Y92457D01*
X200143Y92903D01*
X200384Y93485D01*
Y94015D01*
X200385Y94016D01*
X201015D01*
X201016Y94015D01*
Y93485D01*
X201257Y92903D01*
X201703Y92457D01*
X202285Y92216D01*
X202915D01*
X203497Y92457D01*
X203687Y92647D01*
X204181Y92433D01*
X204142Y91151D01*
X204115Y91134D01*
X203638Y91003D01*
X203297Y91343D01*
X202715Y91584D01*
X202085D01*
X201503Y91343D01*
X201057Y90897D01*
X200850Y90398D01*
X200798Y90389D01*
X200402D01*
X200350Y90398D01*
X200143Y90897D01*
X199697Y91343D01*
X199115Y91584D01*
X198485D01*
X197903Y91343D01*
X197457Y90897D01*
X197216Y90315D01*
Y90244D01*
X196716Y89977D01*
X196684Y89998D01*
Y90315D01*
X196443Y90897D01*
X195997Y91343D01*
X195415Y91584D01*
X194785D01*
X194203Y91343D01*
X193757Y90897D01*
X193516Y90315D01*
Y89685D01*
X193757Y89103D01*
X194203Y88657D01*
X194785Y88416D01*
X195182D01*
X195316Y88215D01*
Y87585D01*
X195557Y87003D01*
X196003Y86557D01*
X196585Y86316D01*
X197215D01*
X197797Y86557D01*
X198243Y87003D01*
X198484Y87585D01*
Y87656D01*
X198984Y87923D01*
X199016Y87902D01*
Y87585D01*
X199257Y87003D01*
X199703Y86557D01*
X200285Y86316D01*
X200915D01*
X201497Y86557D01*
X201943Y87003D01*
X202184Y87585D01*
Y88215D01*
X202318Y88416D01*
X202715D01*
X203297Y88657D01*
X203523Y88882D01*
X204004Y88657D01*
X203578Y83969D01*
X202715Y78293D01*
X201510Y72680D01*
X199968Y67150D01*
X198095Y61724D01*
X195898Y56420D01*
X193385Y51258D01*
X190565Y46258D01*
X187448Y41437D01*
X184046Y36813D01*
X180370Y32403D01*
X176435Y28223D01*
X174606Y26500D01*
X136800D01*
X136610Y26310D01*
X136610Y26310D01*
X134605Y24305D01*
X132691Y22391D01*
X132471Y22300D01*
X130458D01*
X130458Y22300D01*
X130329D01*
X130109Y22391D01*
X128691Y23809D01*
X128600Y24029D01*
Y37042D01*
X128600Y37042D01*
Y37171D01*
X128691Y37391D01*
X128783Y37483D01*
X128783Y37483D01*
X131733Y40433D01*
X131733Y40433D01*
X131733Y40433D01*
X134867Y43567D01*
X134867Y43567D01*
X140817Y49517D01*
X146767Y55467D01*
X146767Y55467D01*
X158667Y67367D01*
X158667Y67367D01*
X158667Y67367D01*
X159487Y68187D01*
X159897Y68357D01*
X160082Y68542D01*
X160509Y68686D01*
X160727Y68533D01*
X161003Y68257D01*
X161585Y68016D01*
X162215D01*
X162797Y68257D01*
X163243Y68703D01*
X163484Y69285D01*
Y69915D01*
X163243Y70497D01*
X162797Y70943D01*
X162215Y71184D01*
X161585D01*
X161500Y71149D01*
X161000Y71483D01*
Y83618D01*
X161000Y83618D01*
X161006Y83627D01*
X161017Y83680D01*
X161057Y83716D01*
X161232Y84087D01*
X161287Y84122D01*
X161785Y83916D01*
X162415D01*
X162997Y84157D01*
X163443Y84603D01*
X163684Y85185D01*
Y85815D01*
X163443Y86397D01*
X162997Y86843D01*
X162415Y87084D01*
X161785D01*
X161588Y87003D01*
X161584Y87003D01*
X161069Y87256D01*
X161020Y87305D01*
X161006Y87372D01*
X161000Y87381D01*
X161000Y87382D01*
Y93858D01*
X161348Y94164D01*
X161370Y94173D01*
X161405Y94180D01*
X161500Y94192D01*
X161685Y94116D01*
X162315D01*
X162897Y94357D01*
X163343Y94803D01*
X163584Y95385D01*
Y96015D01*
X163343Y96597D01*
X162897Y97043D01*
X162315Y97284D01*
X161685D01*
X161103Y97043D01*
X160657Y96597D01*
X160416Y96015D01*
Y95827D01*
X160402Y95804D01*
X160051Y95500D01*
X160034Y95489D01*
X159929Y95489D01*
X159891Y95509D01*
X154930Y100470D01*
X154930Y100470D01*
X149945Y105455D01*
X149254Y106146D01*
X149709Y107201D01*
X149710Y107239D01*
X149732Y107269D01*
X150057Y108591D01*
X150052Y108629D01*
X150069Y108662D01*
X150171Y110020D01*
X150159Y110056D01*
X150170Y110092D01*
X150047Y111448D01*
X150029Y111482D01*
X150034Y111519D01*
X149688Y112836D01*
X149665Y112866D01*
X149664Y112904D01*
X149384Y113524D01*
X149384Y113524D01*
Y113524D01*
X148572Y115326D01*
X148557Y115341D01*
X148554Y115361D01*
X146610Y118804D01*
X146593Y118817D01*
X146589Y118837D01*
X144341Y122089D01*
X144324Y122101D01*
X144317Y122121D01*
X141785Y125156D01*
X141766Y125166D01*
X141758Y125185D01*
X138961Y127979D01*
X138942Y127987D01*
X138932Y128006D01*
X135894Y130535D01*
X135874Y130541D01*
X135863Y130559D01*
X132608Y132803D01*
X132588Y132807D01*
X132575Y132824D01*
X129130Y134764D01*
X129110Y134767D01*
X129095Y134782D01*
X125489Y136403D01*
X125469Y136404D01*
X125453Y136417D01*
X121715Y137706D01*
X121694Y137704D01*
X121677Y137717D01*
X117839Y138661D01*
X117818Y138658D01*
X117800Y138669D01*
X113891Y139262D01*
X113871Y139257D01*
X113852Y139266D01*
X109906Y139504D01*
X109886Y139497D01*
X109867Y139504D01*
X109059Y139480D01*
X108700Y139828D01*
Y183063D01*
X109071Y183399D01*
X109234Y183383D01*
X110513Y183509D01*
X111744Y183882D01*
X112878Y184488D01*
X113872Y185304D01*
X114440Y185996D01*
X114688Y186298D01*
X114735Y186383D01*
X115029Y186772D01*
X115683Y187569D01*
X116779Y188469D01*
X118030Y189137D01*
X119388Y189549D01*
X120800Y189688D01*
X121748Y189595D01*
D02*
G37*
G36*
X98653Y145159D02*
X98568Y145256D01*
X98345Y145483D01*
X98280Y145539D01*
X98221Y145585D01*
X98166Y145620D01*
X98116Y145645D01*
X98071Y145661D01*
X98031Y145666D01*
X98059Y146066D01*
X98094Y146070D01*
X98137Y146084D01*
X98188Y146108D01*
X98246Y146141D01*
X98311Y146183D01*
X98462Y146295D01*
X98643Y146445D01*
X98745Y146534D01*
X98653Y145159D01*
D02*
G37*
G36*
X95297Y143911D02*
X95204Y144004D01*
X94894Y144278D01*
X94831Y144322D01*
X94775Y144356D01*
X94725Y144380D01*
X94681Y144395D01*
X94643Y144400D01*
Y144800D01*
X94681Y144805D01*
X94725Y144820D01*
X94775Y144844D01*
X94831Y144878D01*
X94894Y144922D01*
X95037Y145040D01*
X95204Y145196D01*
X95297Y145289D01*
Y143911D01*
D02*
G37*
G36*
X99082Y189550D02*
X100438Y189139D01*
X101687Y188471D01*
X102783Y187572D01*
X103134Y187144D01*
X103731Y186383D01*
X103779Y186298D01*
X104595Y185304D01*
X105589Y184488D01*
X106723Y183882D01*
X107242Y183725D01*
X107243Y183724D01*
X107797Y183293D01*
X108051Y183063D01*
Y139828D01*
X107485Y139573D01*
X107133Y139421D01*
X105915Y139384D01*
X105896Y139375D01*
X105876Y139381D01*
X101952Y138903D01*
X101933Y138893D01*
X101913Y138897D01*
X98048Y138066D01*
X98031Y138054D01*
X98010Y138056D01*
X94236Y136879D01*
X94220Y136865D01*
X94199D01*
X90547Y135352D01*
X90532Y135337D01*
X90511Y135335D01*
X87011Y133497D01*
X86997Y133481D01*
X86977Y133477D01*
X83657Y131330D01*
X83645Y131313D01*
X83625Y131307D01*
X80514Y128869D01*
X80503Y128850D01*
X80484Y128843D01*
X77605Y126133D01*
X77597Y126114D01*
X77578Y126105D01*
X74957Y123145D01*
X74950Y123126D01*
X74932Y123115D01*
X72589Y119930D01*
X72584Y119910D01*
X72567Y119898D01*
X70522Y116514D01*
X70519Y116494D01*
X70504Y116480D01*
X68773Y112925D01*
X68772Y112905D01*
X68757Y112889D01*
X67516Y109615D01*
X66516Y109799D01*
Y114600D01*
X66516Y114600D01*
X66454Y114912D01*
X66277Y115177D01*
X66277Y115177D01*
X64977Y116477D01*
X64712Y116654D01*
X64400Y116716D01*
X64360Y116756D01*
X64343Y116797D01*
X63897Y117243D01*
X63866Y117256D01*
X63739Y117385D01*
Y118391D01*
X63897Y118457D01*
X64343Y118903D01*
X64584Y119485D01*
Y120115D01*
X64343Y120697D01*
X63897Y121143D01*
X63315Y121384D01*
X63252D01*
X62838Y122384D01*
X84238Y143784D01*
X92830D01*
X93244Y142784D01*
X93157Y142697D01*
X92916Y142115D01*
Y141485D01*
X93157Y140903D01*
X93603Y140457D01*
X94185Y140216D01*
X94815D01*
X95397Y140457D01*
X95843Y140903D01*
X95962Y141191D01*
X95980Y141202D01*
X96883Y141421D01*
X97052Y141407D01*
X97203Y141257D01*
X97785Y141016D01*
X98415D01*
X98997Y141257D01*
X99443Y141703D01*
X99445Y141707D01*
X100602Y141957D01*
X100608Y141955D01*
X101185Y141716D01*
X101815Y141716D01*
X102397Y141957D01*
X102843Y142403D01*
X103084Y142985D01*
Y143615D01*
X102843Y144197D01*
X102397Y144643D01*
X101818Y144883D01*
X101815Y144884D01*
X101067Y145425D01*
X100984Y145808D01*
Y146115D01*
X100743Y146697D01*
X100297Y147143D01*
X99715Y147384D01*
X99085D01*
X98503Y147143D01*
X98336Y146977D01*
X97977D01*
X97712Y147154D01*
X97400Y147216D01*
X97400Y147216D01*
X84500D01*
X84188Y147154D01*
X83923Y146977D01*
X83923Y146977D01*
X57823Y120877D01*
X57646Y120612D01*
X57584Y120300D01*
X57584Y120300D01*
Y81860D01*
X57584Y81859D01*
X57646Y81547D01*
X57823Y81283D01*
X60396Y78710D01*
X60316Y78515D01*
Y77885D01*
X60557Y77303D01*
X61003Y76857D01*
X61585Y76616D01*
X62215D01*
X62784Y76235D01*
Y73769D01*
X62784Y73769D01*
X62846Y73457D01*
X63023Y73192D01*
X87752Y48463D01*
X87786Y48236D01*
X87630Y47171D01*
X87457Y46997D01*
X87216Y46415D01*
Y45785D01*
X87457Y45203D01*
X87903Y44757D01*
X88485Y44516D01*
X89115D01*
X89697Y44757D01*
X90143Y45203D01*
X91163Y45052D01*
X92184Y44031D01*
Y40148D01*
X91415Y39384D01*
X90785D01*
X90203Y39143D01*
X89550Y38900D01*
X89097Y39343D01*
X88515Y39584D01*
X88086D01*
X88057Y39628D01*
Y40258D01*
X87816Y40841D01*
X87370Y41286D01*
X86788Y41528D01*
X86158D01*
X85575Y41286D01*
X85130Y40841D01*
X84888Y40258D01*
Y39628D01*
X85130Y39046D01*
X85575Y38600D01*
X86158Y38359D01*
X86586D01*
X86616Y38315D01*
Y37685D01*
X86857Y37103D01*
X87303Y36657D01*
X87885Y36416D01*
X88515D01*
X89097Y36657D01*
X89750Y36900D01*
X90203Y36457D01*
X90785Y36216D01*
X91415D01*
X92184Y35452D01*
Y34506D01*
X92084Y34464D01*
X91638Y34018D01*
X91397Y33436D01*
Y32806D01*
X91638Y32223D01*
X92084Y31778D01*
X92666Y31537D01*
X93296D01*
X93879Y31778D01*
X94216Y32115D01*
X94720Y32100D01*
X95283Y31924D01*
X95457Y31503D01*
X95903Y31057D01*
X96485Y30816D01*
X97115D01*
X97140Y30826D01*
X97864Y30870D01*
X98347Y30326D01*
X98357Y30303D01*
X98803Y29857D01*
X99385Y29616D01*
X100015D01*
X100597Y29857D01*
X101043Y30303D01*
X101284Y30885D01*
Y31515D01*
X101043Y32097D01*
X100597Y32543D01*
X100015Y32784D01*
X99385D01*
X99360Y32774D01*
X98636Y32730D01*
X98153Y33274D01*
X98143Y33297D01*
X97697Y33743D01*
X97115Y33984D01*
X96514Y34527D01*
Y35157D01*
X96273Y35740D01*
X95827Y36185D01*
X95652Y36258D01*
Y43663D01*
X95652Y43663D01*
X95590Y43975D01*
X95414Y44240D01*
X95413Y44240D01*
X65316Y74338D01*
Y85032D01*
X65367Y85059D01*
X66548Y84544D01*
X67340Y81701D01*
X67353Y81685D01*
X67352Y81664D01*
X68754Y77967D01*
X68768Y77952D01*
X68769Y77931D01*
X70499Y74376D01*
X70515Y74362D01*
X70518Y74341D01*
X72562Y70958D01*
X72579Y70945D01*
X72584Y70925D01*
X74926Y67740D01*
X74944Y67729D01*
X74951Y67709D01*
X77571Y64749D01*
X77590Y64740D01*
X77599Y64721D01*
X80476Y62011D01*
X80496Y62003D01*
X80506Y61985D01*
X83618Y59546D01*
X83637Y59540D01*
X83649Y59523D01*
X86969Y57375D01*
X86989Y57371D01*
X87002Y57355D01*
X90502Y55517D01*
X90523Y55515D01*
X90538Y55500D01*
X94190Y53986D01*
X94210Y53985D01*
X94226Y53972D01*
X98000Y52794D01*
X98021Y52796D01*
X98038Y52784D01*
X101903Y51952D01*
X101924Y51956D01*
X101942Y51946D01*
X105866Y51468D01*
X105886Y51473D01*
X105905Y51464D01*
X109857Y51343D01*
X109877Y51350D01*
X109896Y51344D01*
X113843Y51580D01*
X113862Y51589D01*
X113882Y51584D01*
X117791Y52177D01*
X117808Y52188D01*
X117829Y52184D01*
X121668Y53128D01*
X121685Y53140D01*
X121706Y53139D01*
X125444Y54426D01*
X125460Y54440D01*
X125480Y54441D01*
X129087Y56061D01*
X129101Y56076D01*
X129122Y56079D01*
X132566Y58018D01*
X132579Y58035D01*
X132600Y58039D01*
X135855Y60283D01*
X135866Y60300D01*
X135886Y60307D01*
X138925Y62835D01*
X138935Y62854D01*
X138954Y62862D01*
X141752Y65655D01*
X141760Y65674D01*
X141778Y65684D01*
X144312Y68719D01*
X144318Y68739D01*
X144335Y68750D01*
X146584Y72002D01*
X146588Y72022D01*
X146605Y72035D01*
X148550Y75477D01*
X148552Y75498D01*
X148567Y75512D01*
X149380Y77314D01*
Y77314D01*
X149380Y77314D01*
X149660Y77935D01*
X149661Y77973D01*
X149684Y78003D01*
X150030Y79320D01*
X150025Y79357D01*
X150043Y79391D01*
X150166Y80747D01*
X150155Y80783D01*
X150167Y80818D01*
X150065Y82176D01*
X150048Y82210D01*
X150054Y82247D01*
X149728Y83570D01*
X149706Y83600D01*
X149705Y83638D01*
X149166Y84888D01*
X149138Y84914D01*
X149132Y84951D01*
X148393Y86095D01*
X148362Y86116D01*
X148349Y86152D01*
X147431Y87158D01*
X147397Y87174D01*
X147378Y87207D01*
X146307Y88047D01*
X146270Y88057D01*
X146247Y88086D01*
X145051Y88737D01*
X145013Y88741D01*
X144985Y88766D01*
X143698Y89211D01*
X143660Y89209D01*
X143628Y89229D01*
X142285Y89454D01*
X142249Y89446D01*
X142214Y89460D01*
X141533Y89461D01*
X141533Y89461D01*
X141533Y89461D01*
X132315Y89461D01*
X131843Y90403D01*
X132084Y90985D01*
Y91615D01*
X131843Y92197D01*
X131397Y92643D01*
X130815Y92884D01*
X130185D01*
X129603Y92643D01*
X129157Y92197D01*
X128916Y91615D01*
Y90985D01*
X129157Y90403D01*
X128685Y89461D01*
X128096D01*
X128096Y89460D01*
X128096Y89461D01*
X127532Y89460D01*
X127478Y89438D01*
X127419Y89445D01*
X126331Y89151D01*
X126284Y89115D01*
X126226Y89107D01*
X125252Y88538D01*
X125217Y88491D01*
X125162Y88468D01*
X124371Y87665D01*
X124349Y87610D01*
X124303Y87574D01*
X124030Y87090D01*
X123382Y86033D01*
X121859Y84069D01*
X120072Y82353D01*
X118055Y80915D01*
X115850Y79786D01*
X113504Y78990D01*
X111068Y78544D01*
X108592Y78457D01*
X106130Y78731D01*
X103734Y79360D01*
X101455Y80331D01*
X99342Y81624D01*
X97439Y83210D01*
X95788Y85056D01*
X94422Y87123D01*
X93372Y89367D01*
X93044Y90457D01*
X93230Y90752D01*
X93831Y91316D01*
X94215D01*
X94797Y91557D01*
X95243Y92003D01*
X95484Y92585D01*
Y93215D01*
X95276Y93717D01*
Y94783D01*
X95451Y95204D01*
X97770Y97524D01*
X140930D01*
X145051Y93403D01*
Y92300D01*
X145241Y91841D01*
X150341Y86741D01*
X150800Y86551D01*
X152100D01*
X152559Y86741D01*
X153559Y87741D01*
X153749Y88200D01*
Y89500D01*
X153559Y89959D01*
X148359Y95159D01*
X147900Y95349D01*
X146997D01*
X142473Y99873D01*
X142027Y100172D01*
X141500Y100276D01*
X111531D01*
X111319Y100501D01*
X110957Y101277D01*
X111084Y101585D01*
Y102215D01*
X110843Y102797D01*
X110397Y103243D01*
X109815Y103484D01*
X109185D01*
X108603Y103243D01*
X108157Y102797D01*
X107397Y102743D01*
X107173Y102836D01*
X106815Y102984D01*
X106185D01*
X105603Y102743D01*
X105157Y102297D01*
X104916Y101715D01*
Y101085D01*
X104168Y100276D01*
X97200D01*
X96673Y100172D01*
X96227Y99873D01*
X96227Y99873D01*
X93504Y97151D01*
X93374Y97097D01*
X92479Y97681D01*
X92454Y97716D01*
X92661Y99118D01*
X93375Y101490D01*
X94426Y103733D01*
X95792Y105799D01*
X97445Y107645D01*
X99348Y109230D01*
X101462Y110522D01*
X103742Y111492D01*
X106138Y112120D01*
X108600Y112393D01*
X111076Y112305D01*
X113512Y111857D01*
X115858Y111060D01*
X118062Y109930D01*
X120079Y108492D01*
X121864Y106775D01*
X123386Y104810D01*
X124034Y103753D01*
X124306Y103268D01*
X124352Y103232D01*
X124374Y103177D01*
X125166Y102371D01*
X125220Y102348D01*
X125256Y102301D01*
X126231Y101731D01*
X126289Y101723D01*
X126336Y101687D01*
X127426Y101392D01*
X127485Y101400D01*
X127540Y101377D01*
X128104Y101378D01*
X141537D01*
X141537Y101378D01*
X141537Y101378D01*
X142218Y101378D01*
X142253Y101393D01*
X142289Y101384D01*
X143632Y101610D01*
X143664Y101630D01*
X143702Y101628D01*
X144989Y102072D01*
X145017Y102097D01*
X145055Y102101D01*
X146250Y102752D01*
X146274Y102782D01*
X146311Y102792D01*
X147382Y103632D01*
X147401Y103665D01*
X147435Y103681D01*
X148353Y104687D01*
X148366Y104722D01*
X148397Y104744D01*
X148491Y104890D01*
X148694Y104912D01*
X149646Y104835D01*
X154471Y100011D01*
X154471Y100010D01*
X159432Y95050D01*
X159468Y95035D01*
X159470Y95029D01*
X159470Y95029D01*
X159529Y95005D01*
X159585Y94936D01*
X159585D01*
X159623Y94916D01*
X159782Y94900D01*
X159796Y94894D01*
X159814Y94881D01*
X160067Y94574D01*
X160158Y94422D01*
X160223Y94303D01*
X160360Y93915D01*
X160352Y93900D01*
X160359Y93879D01*
X160351Y93858D01*
Y87382D01*
X160377Y87319D01*
X160371Y87305D01*
X160371Y87304D01*
X160374Y87296D01*
X160365Y87246D01*
X160365Y87245D01*
X160371Y87236D01*
X160385Y87172D01*
X160451Y87075D01*
X160455Y87053D01*
X160455Y87045D01*
X160458Y87042D01*
X160463Y87016D01*
X160469Y87007D01*
X160644Y86636D01*
X160516Y85815D01*
Y85185D01*
X160757Y84603D01*
X160469Y83993D01*
X160463Y83984D01*
X160448Y83910D01*
X160381Y83813D01*
X160370Y83760D01*
X160370Y83760D01*
X160364Y83751D01*
X160364Y83751D01*
X160371Y83716D01*
X160368Y83711D01*
X160375Y83691D01*
X160377Y83683D01*
X160351Y83618D01*
Y71896D01*
X159500Y71258D01*
X159427Y71238D01*
X159315Y71284D01*
X158685D01*
X158103Y71043D01*
X157657Y70597D01*
X157416Y70015D01*
Y69385D01*
X157657Y68803D01*
X158103Y68357D01*
X157787Y67405D01*
X146308Y55927D01*
X146308Y55927D01*
X140358Y49977D01*
X140358Y49977D01*
X134408Y44027D01*
X134408Y44027D01*
X133249Y44282D01*
X133243Y44297D01*
X132797Y44743D01*
X132215Y44984D01*
X131585D01*
X131003Y44743D01*
X130557Y44297D01*
X130316Y43715D01*
Y43085D01*
X130557Y42503D01*
X131003Y42057D01*
X131018Y42051D01*
X131273Y40892D01*
X128323Y37942D01*
X128232Y37851D01*
X128183Y37731D01*
X128091Y37640D01*
X128000Y37419D01*
Y37290D01*
X127951Y37171D01*
Y37042D01*
X127951Y37042D01*
Y24029D01*
X128000Y23910D01*
Y23781D01*
X128091Y23560D01*
X128183Y23469D01*
X128232Y23349D01*
X129649Y21932D01*
X129769Y21883D01*
X129860Y21791D01*
X130081Y21700D01*
X130210D01*
X130329Y21651D01*
X130458D01*
X130458Y21651D01*
X132471D01*
X132590Y21700D01*
X132719D01*
X132940Y21791D01*
X133031Y21883D01*
X133151Y21932D01*
X135064Y23846D01*
X135064Y23846D01*
X137069Y25850D01*
X137069Y25851D01*
X172559D01*
X172928Y24921D01*
X172255Y24288D01*
X167845Y20612D01*
X163221Y17210D01*
X158400Y14093D01*
X153400Y11273D01*
X148238Y8760D01*
X142935Y6563D01*
X137508Y4690D01*
X131978Y3148D01*
X126365Y1943D01*
X122778Y1398D01*
X121790Y1259D01*
X120836Y1165D01*
X119427Y1304D01*
X118072Y1715D01*
X116823Y2383D01*
X115728Y3281D01*
X115352Y3739D01*
X114760Y4505D01*
X114694Y4613D01*
X113878Y5608D01*
X112883Y6424D01*
X111748Y7031D01*
X110516Y7405D01*
X109236Y7531D01*
X107955Y7405D01*
X106723Y7031D01*
X105588Y6424D01*
X104594Y5608D01*
X103777Y4613D01*
X103711Y4505D01*
X103119Y3740D01*
X102745Y3284D01*
X101649Y2385D01*
X100398Y1716D01*
X99041Y1304D01*
X97630Y1166D01*
X96677Y1259D01*
X95689Y1398D01*
X92110Y1942D01*
X86497Y3148D01*
X80966Y4689D01*
X75538Y6562D01*
X70234Y8759D01*
X65072Y11273D01*
X60071Y14093D01*
X55250Y17210D01*
X50625Y20613D01*
X46215Y24289D01*
X42034Y28224D01*
X38099Y32405D01*
X34423Y36815D01*
X31020Y41440D01*
X27903Y46261D01*
X26639Y48502D01*
X26639Y48503D01*
X26311Y49018D01*
X26098Y49278D01*
X26097Y49278D01*
X26066Y49317D01*
X25247Y50314D01*
X23951Y51378D01*
X22472Y52169D01*
X20867Y52655D01*
X19207Y52819D01*
X19206Y52791D01*
X9022D01*
X5677Y52794D01*
X4715Y52803D01*
D01*
X3770Y52936D01*
X2944Y53278D01*
X2209Y53842D01*
X1645Y54577D01*
X1302Y55405D01*
X1170Y56351D01*
D01*
X1163Y57313D01*
X1194Y134567D01*
X1201Y134567D01*
X1201Y134570D01*
X1322Y135489D01*
X1677Y136345D01*
X2241Y137080D01*
X2976Y137644D01*
X3832Y137998D01*
X4750Y138119D01*
X4756Y138118D01*
X4756Y138126D01*
X4757Y138127D01*
X19233Y138115D01*
X19233Y138087D01*
Y138086D01*
X19237Y138086D01*
X20903Y138250D01*
X22505Y138736D01*
X23981Y139525D01*
X25275Y140587D01*
X26092Y141583D01*
X26112Y141607D01*
X26112Y141607D01*
X26337Y141881D01*
X26666Y142399D01*
X26666Y142399D01*
X27898Y144583D01*
X31016Y149405D01*
X34419Y154030D01*
X38095Y158441D01*
X42031Y162622D01*
X46212Y166558D01*
X50623Y170234D01*
X55247Y173637D01*
X60069Y176754D01*
X65071Y179575D01*
X70233Y182089D01*
X75538Y184286D01*
X80966Y186159D01*
X86497Y187701D01*
X92111Y188906D01*
X95732Y189457D01*
X96720Y189595D01*
X97672Y189689D01*
X99082Y189550D01*
D02*
G37*
G36*
X63796Y116496D02*
X64106Y116222D01*
X64169Y116178D01*
X64225Y116144D01*
X64275Y116120D01*
X64319Y116105D01*
X64357Y116100D01*
Y115700D01*
X64319Y115695D01*
X64275Y115680D01*
X64225Y115656D01*
X64169Y115622D01*
X64106Y115578D01*
X63963Y115460D01*
X63796Y115304D01*
X63703Y115211D01*
Y116589D01*
X63796Y116496D01*
D02*
G37*
G36*
X62296Y114496D02*
X62606Y114222D01*
X62669Y114178D01*
X62725Y114144D01*
X62775Y114120D01*
X62819Y114105D01*
X62857Y114100D01*
Y113700D01*
X62819Y113695D01*
X62775Y113680D01*
X62725Y113656D01*
X62669Y113622D01*
X62606Y113578D01*
X62463Y113460D01*
X62296Y113304D01*
X62203Y113211D01*
Y114589D01*
X62296Y114496D01*
D02*
G37*
G36*
X153100Y89500D02*
Y88200D01*
X152100Y87200D01*
X150800D01*
X145700Y92300D01*
Y94100D01*
X146300Y94700D01*
X147900D01*
X153100Y89500D01*
D02*
G37*
G36*
X61385Y92116D02*
X62015D01*
X62784Y91352D01*
Y82565D01*
X62215Y82184D01*
X61585D01*
X61503Y82150D01*
X60016Y83638D01*
Y91730D01*
X60310Y91964D01*
X61016Y92269D01*
X61385Y92116D01*
D02*
G37*
G36*
X61112Y81678D02*
X61154Y81657D01*
X61206Y81639D01*
X61270Y81623D01*
X61346Y81610D01*
X61530Y81592D01*
X61759Y81584D01*
X61890Y81584D01*
X60916Y80610D01*
X60916Y80741D01*
X60890Y81154D01*
X60877Y81230D01*
X60861Y81294D01*
X60843Y81346D01*
X60822Y81388D01*
X60799Y81418D01*
X61082Y81701D01*
X61112Y81678D01*
D02*
G37*
G36*
X61210Y79339D02*
X61250Y79318D01*
X61301Y79299D01*
X61365Y79280D01*
X61529Y79244D01*
X61742Y79210D01*
X62003Y79179D01*
X60923Y78323D01*
X60938Y78447D01*
X60953Y78760D01*
X60950Y78844D01*
X60942Y78918D01*
X60930Y78981D01*
X60913Y79034D01*
X60892Y79077D01*
X60867Y79110D01*
X61183Y79360D01*
X61210Y79339D01*
D02*
G37*
G36*
X95042Y36174D02*
X95057Y36129D01*
X95083Y36079D01*
X95119Y36025D01*
X95165Y35967D01*
X95221Y35904D01*
X95365Y35764D01*
X95549Y35607D01*
X94177Y35477D01*
X94265Y35582D01*
X94563Y35990D01*
X94595Y36048D01*
X94618Y36098D01*
X94632Y36141D01*
X94637Y36176D01*
X95037Y36214D01*
X95042Y36174D01*
D02*
G37*
G36*
X93200Y34474D02*
X93205Y34437D01*
X93219Y34393D01*
X93243Y34343D01*
X93277Y34286D01*
X93321Y34223D01*
X93437Y34077D01*
X93592Y33906D01*
X93683Y33810D01*
X92306Y33837D01*
X92400Y33927D01*
X92676Y34231D01*
X92721Y34293D01*
X92756Y34349D01*
X92780Y34399D01*
X92795Y34443D01*
X92800Y34482D01*
X93200Y34474D01*
D02*
G37*
%LPC*%
G36*
X138259Y180897D02*
X137406D01*
X137365Y180880D01*
X137322Y180888D01*
X136485Y180722D01*
X136448Y180697D01*
X136404D01*
X135616Y180371D01*
X135584Y180340D01*
X135541Y180331D01*
X134832Y179857D01*
X134807Y179820D01*
X134766Y179803D01*
X134163Y179200D01*
X134146Y179159D01*
X134109Y179134D01*
X133635Y178425D01*
X133626Y178382D01*
X133595Y178350D01*
X133268Y177562D01*
Y177518D01*
X133244Y177481D01*
X133077Y176644D01*
X133086Y176601D01*
X133069Y176560D01*
Y175707D01*
X133086Y175666D01*
X133077Y175622D01*
X133244Y174785D01*
X133268Y174749D01*
Y174704D01*
X133595Y173916D01*
X133626Y173885D01*
X133635Y173841D01*
X134109Y173132D01*
X134146Y173107D01*
X134163Y173066D01*
X134766Y172463D01*
X134807Y172446D01*
X134832Y172409D01*
X135541Y171935D01*
X135584Y171927D01*
X135616Y171895D01*
X136404Y171569D01*
X136448D01*
X136485Y171544D01*
X137322Y171378D01*
X137365Y171386D01*
X137406Y171369D01*
X138259D01*
X138300Y171386D01*
X138344Y171378D01*
X139180Y171544D01*
X139217Y171569D01*
X139262D01*
X140050Y171895D01*
X140081Y171927D01*
X140125Y171935D01*
X140834Y172409D01*
X140858Y172446D01*
X140900Y172463D01*
X141503Y173066D01*
X141520Y173107D01*
X141557Y173132D01*
X142031Y173841D01*
X142039Y173885D01*
X142070Y173916D01*
X142397Y174704D01*
Y174749D01*
X142422Y174785D01*
X142588Y175622D01*
X142579Y175666D01*
X142596Y175707D01*
Y176560D01*
X142579Y176601D01*
X142588Y176644D01*
X142422Y177481D01*
X142397Y177518D01*
Y177562D01*
X142070Y178350D01*
X142039Y178382D01*
X142031Y178425D01*
X141557Y179134D01*
X141520Y179159D01*
X141503Y179200D01*
X140900Y179803D01*
X140858Y179820D01*
X140834Y179857D01*
X140125Y180331D01*
X140081Y180340D01*
X140050Y180371D01*
X139262Y180697D01*
X139217D01*
X139180Y180722D01*
X138344Y180888D01*
X138300Y180880D01*
X138259Y180897D01*
D02*
G37*
G36*
X174715Y162484D02*
X174085D01*
X173503Y162243D01*
X173057Y161797D01*
X172816Y161215D01*
Y160585D01*
X173057Y160003D01*
X173503Y159557D01*
X174085Y159316D01*
X174715D01*
X175297Y159557D01*
X175743Y160003D01*
X175984Y160585D01*
Y161215D01*
X175743Y161797D01*
X175297Y162243D01*
X174715Y162484D01*
D02*
G37*
G36*
X148215Y158384D02*
X147585D01*
X147003Y158143D01*
X146557Y157697D01*
X146316Y157115D01*
Y156485D01*
X146557Y155903D01*
X147003Y155457D01*
X147585Y155216D01*
X148215D01*
X148797Y155457D01*
X149243Y155903D01*
X149484Y156485D01*
Y157115D01*
X149243Y157697D01*
X148797Y158143D01*
X148215Y158384D01*
D02*
G37*
G36*
X152615D02*
X151985D01*
X151403Y158143D01*
X150957Y157697D01*
X150716Y157115D01*
Y156485D01*
X150957Y155903D01*
X151403Y155457D01*
X151490Y155421D01*
Y154879D01*
X151403Y154843D01*
X150957Y154397D01*
X150716Y153815D01*
Y153185D01*
X150957Y152603D01*
X151403Y152157D01*
X151985Y151916D01*
X152615D01*
X153197Y152157D01*
X153643Y152603D01*
X153884Y153185D01*
Y153815D01*
X153643Y154397D01*
X153197Y154843D01*
X153110Y154879D01*
Y155421D01*
X153197Y155457D01*
X153643Y155903D01*
X153829Y156352D01*
X154067Y156368D01*
X154346Y156311D01*
X154557Y155803D01*
X155003Y155357D01*
X155585Y155116D01*
X156215D01*
X156797Y155357D01*
X157243Y155803D01*
X157484Y156385D01*
Y157015D01*
X157243Y157597D01*
X156797Y158043D01*
X156215Y158284D01*
X155585D01*
X155003Y158043D01*
X154557Y157597D01*
X154371Y157148D01*
X154133Y157132D01*
X153854Y157189D01*
X153643Y157697D01*
X153197Y158143D01*
X152615Y158384D01*
D02*
G37*
G36*
X158815Y155284D02*
X158185D01*
X157603Y155043D01*
X157157Y154597D01*
X156916Y154015D01*
Y153385D01*
X157157Y152803D01*
X157603Y152357D01*
X158185Y152116D01*
X158815D01*
X159397Y152357D01*
X159843Y152803D01*
X160084Y153385D01*
Y154015D01*
X159843Y154597D01*
X159397Y155043D01*
X158815Y155284D01*
D02*
G37*
G36*
X165715Y151084D02*
X165085D01*
X164503Y150843D01*
X164057Y150397D01*
X163816Y149815D01*
Y149185D01*
X164057Y148603D01*
X164503Y148157D01*
X165085Y147916D01*
X165715D01*
X166297Y148157D01*
X166743Y148603D01*
X166984Y149185D01*
Y149815D01*
X166743Y150397D01*
X166297Y150843D01*
X165715Y151084D01*
D02*
G37*
G36*
X160015Y143784D02*
X159114D01*
X158995Y143735D01*
X158865D01*
X158534Y143598D01*
X158526Y143589D01*
X158523Y143588D01*
X158510Y143587D01*
X158432Y143551D01*
X158432Y143551D01*
X158432Y143551D01*
X158076Y143522D01*
X157897Y143543D01*
X157315Y143784D01*
X156414D01*
X156295Y143735D01*
X156166Y143735D01*
X155834Y143598D01*
X155824Y143588D01*
X155810Y143587D01*
X155665Y143520D01*
X155586Y143517D01*
X155545Y143497D01*
X155500Y143507D01*
X155422Y143493D01*
X155197Y143543D01*
X154735Y143735D01*
X154605D01*
X154486Y143784D01*
X153845D01*
X153842Y143783D01*
X153839Y143784D01*
X153613Y143688D01*
X153386Y143594D01*
X153385Y143591D01*
X153382Y143590D01*
X152646Y142841D01*
X152639Y142825D01*
X152625Y142818D01*
X152547Y142597D01*
X152460Y142380D01*
X152466Y142365D01*
X152461Y142349D01*
X152503Y141589D01*
X152574Y141443D01*
X152601Y141282D01*
X152601Y141282D01*
X152658Y141241D01*
X152683Y141177D01*
X152907Y140943D01*
X152907Y140943D01*
X152895Y140917D01*
X152894Y140864D01*
X152899Y140850D01*
X152894Y140836D01*
X152895Y140783D01*
X152907Y140757D01*
Y140757D01*
X152683Y140523D01*
X152682Y140522D01*
X152682Y140522D01*
X152592Y140291D01*
X152503Y140060D01*
X152503Y140059D01*
X152503Y140058D01*
X152525Y139132D01*
X152585Y138998D01*
X152596Y138852D01*
X152727Y138597D01*
X152832Y138507D01*
X152899Y138385D01*
X153308Y138058D01*
X153515Y137998D01*
X153714Y137916D01*
X154486D01*
X154605Y137965D01*
X154735D01*
X155078Y138108D01*
X155097Y138127D01*
X155249Y138180D01*
X155485Y138225D01*
X155731Y138195D01*
X155731Y138195D01*
X155731Y138195D01*
X155781Y138145D01*
X155788Y138142D01*
X155788D01*
X155822Y138108D01*
X155934Y138061D01*
X155935Y138061D01*
X156166Y137965D01*
X156295D01*
X156414Y137916D01*
X156543D01*
X156543Y137916D01*
X157315D01*
X157758Y138099D01*
X157945Y138156D01*
X158311Y138148D01*
X158431Y138099D01*
X158522Y138007D01*
X158865Y137865D01*
X158995D01*
X159114Y137816D01*
X159243D01*
X159243Y137816D01*
X160015D01*
X160597Y138057D01*
X160689Y138148D01*
X161250Y138110D01*
X161303Y138057D01*
X161885Y137816D01*
X162515D01*
X163097Y138057D01*
X163453Y138413D01*
X163750Y138466D01*
X164047Y138413D01*
X164403Y138057D01*
X164985Y137816D01*
X165615D01*
X166197Y138057D01*
X166643Y138503D01*
X166884Y139085D01*
Y139715D01*
X166643Y140297D01*
X166197Y140743D01*
X165615Y140984D01*
X164985D01*
X164403Y140743D01*
X164047Y140387D01*
X163750Y140334D01*
X163453Y140387D01*
X163097Y140743D01*
X162515Y140984D01*
X161885D01*
X161446Y140803D01*
X161132Y140988D01*
X161043Y141303D01*
X161284Y141885D01*
Y142515D01*
X161043Y143097D01*
X160952Y143189D01*
X160952Y143189D01*
X160597Y143543D01*
X160134Y143735D01*
X160134D01*
X160015Y143784D01*
D02*
G37*
G36*
X169315Y141684D02*
X168685D01*
X168103Y141443D01*
X167657Y140997D01*
X167416Y140415D01*
Y139785D01*
X167657Y139203D01*
X168103Y138757D01*
X168685Y138516D01*
X169315D01*
X169897Y138757D01*
X170343Y139203D01*
X170584Y139785D01*
Y140415D01*
X170343Y140997D01*
X169897Y141443D01*
X169315Y141684D01*
D02*
G37*
G36*
X140915Y154984D02*
X140285D01*
X139703Y154743D01*
X139257Y154297D01*
X139016Y153715D01*
Y153085D01*
X139189Y152666D01*
Y152585D01*
X139061Y152292D01*
Y152292D01*
X139061Y152292D01*
X138952Y152169D01*
X138874Y152137D01*
X138860Y152122D01*
X138839Y152121D01*
X138764Y152084D01*
X138485D01*
X137903Y151843D01*
X137811Y151752D01*
X137811Y151752D01*
X137457Y151397D01*
X137408Y151278D01*
X137408Y151278D01*
X137216Y150815D01*
Y150185D01*
X137358Y149841D01*
X137352Y149799D01*
X137361Y149767D01*
X137326Y149684D01*
X137121Y149420D01*
X137107Y149412D01*
X137030Y149314D01*
X136960Y149284D01*
X136685D01*
X136103Y149043D01*
X135657Y148597D01*
X135416Y148015D01*
Y147385D01*
X135505Y147169D01*
X135501Y147144D01*
X135513Y147087D01*
Y147087D01*
X135513Y147087D01*
X135491Y147032D01*
Y147007D01*
X135268Y146657D01*
X135268Y146657D01*
X135265Y146655D01*
X135265Y146655D01*
X135264Y146655D01*
X135212Y146603D01*
X135212Y146603D01*
X135140Y146587D01*
X135113Y146568D01*
X135058Y146556D01*
X135035Y146539D01*
X135020Y146516D01*
X134603Y146343D01*
X134511Y146252D01*
X134511Y146252D01*
X134157Y145897D01*
X134107Y145778D01*
X134107Y145778D01*
X133916Y145315D01*
Y144685D01*
X134074Y144304D01*
X133948Y143856D01*
X133917Y143833D01*
X133894Y143793D01*
X133707Y143652D01*
X133203Y143443D01*
X133111Y143352D01*
X133111Y143352D01*
X132757Y142997D01*
X132708Y142878D01*
X132708Y142878D01*
X132678Y142807D01*
Y142807D01*
X132516Y142415D01*
Y141785D01*
X132757Y141203D01*
X133203Y140757D01*
X133690Y140555D01*
X133711Y140528D01*
X133749Y140506D01*
X133766Y140465D01*
X133791Y140455D01*
X133804Y140430D01*
X133847Y140393D01*
Y140393D01*
X133991Y140113D01*
X133991Y140112D01*
Y140040D01*
X133991Y140040D01*
Y140040D01*
X134001Y140014D01*
X134001Y140014D01*
X133993Y139988D01*
X133993Y139988D01*
X133999Y139915D01*
X133999Y139915D01*
X133916Y139715D01*
Y139085D01*
X134157Y138503D01*
X134603Y138057D01*
X134722Y138007D01*
X134722Y138007D01*
X135185Y137816D01*
X135815D01*
X136397Y138057D01*
X136397Y138057D01*
X136398D01*
X136618Y138148D01*
X136978Y138148D01*
X137001Y138139D01*
X137105D01*
X137137Y138122D01*
X137203Y138057D01*
X137785Y137816D01*
X138415D01*
X138997Y138057D01*
X138997Y138057D01*
X138997D01*
X139218Y138148D01*
X139578Y138148D01*
X139601Y138139D01*
X139705D01*
X139737Y138122D01*
X139803Y138057D01*
X140385Y137816D01*
X141015D01*
X141597Y138057D01*
X141723Y138183D01*
X141724Y138183D01*
X141957Y138407D01*
X141957Y138407D01*
X141983Y138395D01*
X142036Y138394D01*
X142050Y138399D01*
X142064Y138394D01*
X142117Y138395D01*
X142143Y138407D01*
X142143D01*
X142376Y138183D01*
X142503Y138057D01*
X143085Y137816D01*
X143715D01*
X144297Y138057D01*
X144473Y138233D01*
X144473Y138233D01*
X144581Y138309D01*
X144637Y138315D01*
X144670Y138333D01*
X144708Y138326D01*
X144763Y138339D01*
X145003Y138269D01*
X145029Y138248D01*
X145120Y138221D01*
X145187Y138154D01*
X145218Y138142D01*
X145303Y138057D01*
X145885Y137816D01*
X146515D01*
X147097Y138057D01*
X147543Y138503D01*
X147592Y138622D01*
X147592Y138622D01*
X147622Y138693D01*
Y138693D01*
X147784Y139085D01*
Y139715D01*
X147543Y140297D01*
X147097Y140743D01*
X146610Y140945D01*
X146589Y140972D01*
X146551Y140994D01*
X146534Y141035D01*
X146509Y141045D01*
X146496Y141070D01*
X146453Y141106D01*
X146307Y141512D01*
X146301Y141585D01*
X146301Y141585D01*
X146384Y141785D01*
Y142415D01*
X146268Y142695D01*
X146274Y142711D01*
X146274Y142712D01*
X146226Y142807D01*
Y142913D01*
X146225Y142916D01*
X146226Y142920D01*
X146225Y143036D01*
X146255Y143109D01*
X146287Y143142D01*
X146317Y143218D01*
X146383Y143267D01*
X146406Y143307D01*
X146593Y143448D01*
X147097Y143657D01*
X147543Y144103D01*
X147784Y144685D01*
Y145315D01*
X147695Y145531D01*
X147699Y145556D01*
X147687Y145613D01*
Y145613D01*
X147687Y145613D01*
X147709Y145668D01*
Y145693D01*
X147932Y146043D01*
X147932Y146043D01*
X147935Y146045D01*
X147935Y146045D01*
X147936Y146045D01*
X147988Y146097D01*
X147988Y146097D01*
X148060Y146113D01*
X148087Y146132D01*
X148142Y146144D01*
X148165Y146161D01*
X148180Y146184D01*
X148597Y146357D01*
X148689Y146448D01*
X148689Y146448D01*
X149043Y146803D01*
X149284Y147385D01*
Y148015D01*
X149043Y148597D01*
X148597Y149043D01*
X148478Y149092D01*
X148478Y149092D01*
X148015Y149284D01*
X147385D01*
X146803Y149043D01*
X146627Y148867D01*
X146420Y148722D01*
X146420Y148722D01*
X146405Y148712D01*
X146391Y148708D01*
X146303Y148647D01*
X146300Y148646D01*
X146297Y148647D01*
X146209Y148708D01*
X146194Y148712D01*
X146180Y148722D01*
X146180Y148722D01*
X145974Y148867D01*
X145974Y148867D01*
X145797Y149043D01*
X145771Y149054D01*
X145685Y149139D01*
X145684Y149140D01*
X145684Y149141D01*
X145601Y149223D01*
X145492Y149484D01*
Y149601D01*
X145492Y149602D01*
X145492Y149603D01*
X145492Y149721D01*
X145684Y150185D01*
Y150815D01*
X145443Y151397D01*
X144997Y151843D01*
X144878Y151892D01*
X144878Y151892D01*
X144415Y152084D01*
X143785D01*
X143203Y151843D01*
X143077Y151717D01*
X143077Y151717D01*
X142843Y151494D01*
X142843Y151493D01*
X142817Y151505D01*
X142764Y151506D01*
X142750Y151501D01*
X142736Y151506D01*
X142683Y151505D01*
X142423Y151717D01*
X142389Y151751D01*
X142297Y151843D01*
X142168Y151897D01*
X142148Y151924D01*
X142103Y151952D01*
X142103Y151952D01*
X142082Y152001D01*
X142082Y152001D01*
X142082Y152001D01*
X142058Y152025D01*
X141973Y152377D01*
X141985Y152449D01*
X141985Y152449D01*
Y152449D01*
X141972Y152500D01*
Y152500D01*
X141992Y152550D01*
Y152622D01*
X142184Y153085D01*
Y153715D01*
X141943Y154297D01*
X141497Y154743D01*
X140915Y154984D01*
D02*
G37*
G36*
X168415Y126584D02*
X167785D01*
X167203Y126343D01*
X167203Y126343D01*
X167202D01*
X166982Y126252D01*
X166622Y126252D01*
X166599Y126261D01*
X166495D01*
X166463Y126278D01*
X166397Y126343D01*
X165815Y126584D01*
X165185D01*
X164603Y126343D01*
X164427Y126167D01*
X164427Y126167D01*
X164319Y126092D01*
X164263Y126085D01*
X164230Y126067D01*
X164192Y126074D01*
X164137Y126061D01*
X163897Y126131D01*
X163871Y126152D01*
X163780Y126179D01*
X163713Y126246D01*
X163682Y126259D01*
X163597Y126343D01*
X163478Y126392D01*
X163478Y126392D01*
X163015Y126584D01*
X162385D01*
X161803Y126343D01*
X161677Y126217D01*
X161677Y126217D01*
X161443Y125994D01*
X161443Y125993D01*
X161417Y126005D01*
X161364Y126006D01*
X161350Y126001D01*
X161336Y126006D01*
X161283Y126005D01*
X161257Y125994D01*
X161257D01*
X161024Y126217D01*
X160897Y126343D01*
X160315Y126584D01*
X159685D01*
X159103Y126343D01*
X159103Y126343D01*
X159102D01*
X158882Y126252D01*
X158522Y126252D01*
X158499Y126261D01*
X158395D01*
X158362Y126278D01*
X158297Y126343D01*
X157715Y126584D01*
X157085D01*
X156503Y126343D01*
X156503Y126343D01*
X156502D01*
X156282Y126252D01*
X155922Y126252D01*
X155899Y126261D01*
X155795D01*
X155763Y126278D01*
X155697Y126343D01*
X155673Y126353D01*
X155673Y126353D01*
X155507Y126422D01*
X155507D01*
X155115Y126584D01*
X154485D01*
X153903Y126343D01*
X153457Y125897D01*
X153408Y125778D01*
X153408Y125778D01*
X153216Y125315D01*
Y124685D01*
X153457Y124103D01*
X153583Y123977D01*
X153583Y123977D01*
X153806Y123743D01*
X153807Y123743D01*
X153795Y123717D01*
X153794Y123664D01*
X153799Y123650D01*
X153794Y123636D01*
X153795Y123583D01*
X153806Y123557D01*
Y123557D01*
X153583Y123324D01*
X153457Y123197D01*
X153216Y122615D01*
Y121985D01*
X153457Y121403D01*
X153633Y121227D01*
X153633Y121227D01*
X153709Y121119D01*
X153715Y121063D01*
X153733Y121030D01*
X153726Y120992D01*
X153739Y120937D01*
X153669Y120697D01*
X153648Y120671D01*
X153621Y120580D01*
X153554Y120513D01*
X153542Y120482D01*
X153457Y120397D01*
X153408Y120278D01*
X153408Y120278D01*
X153216Y119815D01*
Y119185D01*
X153457Y118603D01*
X153633Y118427D01*
X153633Y118427D01*
X153709Y118319D01*
X153715Y118263D01*
X153733Y118230D01*
X153726Y118192D01*
X153739Y118137D01*
X153669Y117897D01*
X153648Y117871D01*
X153621Y117780D01*
X153554Y117713D01*
X153542Y117682D01*
X153457Y117597D01*
X153408Y117478D01*
X153408Y117478D01*
X153216Y117015D01*
Y116385D01*
X153457Y115803D01*
X153633Y115627D01*
X153633Y115627D01*
X153709Y115519D01*
X153715Y115463D01*
X153733Y115430D01*
X153726Y115392D01*
X153739Y115337D01*
X153669Y115097D01*
X153648Y115071D01*
X153621Y114980D01*
X153554Y114913D01*
X153542Y114882D01*
X153457Y114797D01*
X153216Y114215D01*
Y113585D01*
X153457Y113003D01*
X153903Y112557D01*
X154022Y112507D01*
X154022Y112507D01*
X154485Y112316D01*
X155115D01*
X155697Y112557D01*
X155697Y112557D01*
X155698D01*
X155918Y112648D01*
X156278Y112648D01*
X156301Y112639D01*
X156405D01*
X156438Y112622D01*
X156503Y112557D01*
X157085Y112316D01*
X157715D01*
X158297Y112557D01*
X158297Y112557D01*
X158298D01*
X158518Y112648D01*
X158878Y112648D01*
X158901Y112639D01*
X159005D01*
X159037Y112622D01*
X159103Y112557D01*
X159685Y112316D01*
X160315D01*
X160897Y112557D01*
X161023Y112683D01*
X161023Y112683D01*
X161257Y112907D01*
X161257Y112907D01*
X161283Y112895D01*
X161336Y112894D01*
X161350Y112899D01*
X161364Y112894D01*
X161417Y112895D01*
X161443Y112907D01*
X161443D01*
X161676Y112683D01*
X161803Y112557D01*
X162385Y112316D01*
X163015D01*
X163597Y112557D01*
X163773Y112733D01*
X163773Y112733D01*
X163881Y112809D01*
X163937Y112815D01*
X163970Y112833D01*
X164008Y112826D01*
X164063Y112839D01*
X164303Y112769D01*
X164329Y112748D01*
X164420Y112721D01*
X164487Y112654D01*
X164518Y112642D01*
X164603Y112557D01*
X164722Y112507D01*
X164722Y112507D01*
X165185Y112316D01*
X165815D01*
X166397Y112557D01*
X166397Y112557D01*
X166398D01*
X166618Y112648D01*
X166978Y112648D01*
X167001Y112639D01*
X167105D01*
X167138Y112622D01*
X167203Y112557D01*
X167227Y112547D01*
X167227Y112547D01*
X167393Y112478D01*
X167393D01*
X167785Y112316D01*
X168415D01*
X168997Y112557D01*
X169443Y113003D01*
X169492Y113122D01*
X169492Y113122D01*
X169684Y113585D01*
Y114215D01*
X169443Y114797D01*
X169267Y114973D01*
X169267Y114973D01*
X169192Y115081D01*
X169185Y115137D01*
X169167Y115170D01*
X169174Y115208D01*
X169161Y115263D01*
X169231Y115503D01*
X169252Y115529D01*
X169279Y115620D01*
X169346Y115687D01*
X169359Y115718D01*
X169443Y115803D01*
X169492Y115922D01*
X169492Y115922D01*
X169684Y116385D01*
Y117015D01*
X169443Y117597D01*
X169267Y117773D01*
X169267Y117773D01*
X169192Y117881D01*
X169185Y117937D01*
X169167Y117970D01*
X169174Y118008D01*
X169161Y118063D01*
X169231Y118303D01*
X169252Y118329D01*
X169279Y118420D01*
X169346Y118487D01*
X169359Y118518D01*
X169443Y118603D01*
X169492Y118722D01*
X169492Y118722D01*
X169684Y119185D01*
Y119815D01*
X169443Y120397D01*
X169267Y120573D01*
X169267Y120573D01*
X169192Y120681D01*
X169185Y120737D01*
X169167Y120770D01*
X169174Y120808D01*
X169161Y120863D01*
X169231Y121103D01*
X169252Y121129D01*
X169279Y121220D01*
X169346Y121287D01*
X169359Y121318D01*
X169443Y121403D01*
X169492Y121522D01*
X169492Y121522D01*
X169684Y121985D01*
Y122615D01*
X169443Y123197D01*
X169317Y123323D01*
X169317Y123324D01*
X169094Y123557D01*
X169093Y123557D01*
X169105Y123583D01*
X169106Y123636D01*
X169101Y123650D01*
X169106Y123664D01*
X169105Y123717D01*
X169094Y123743D01*
Y123743D01*
X169317Y123976D01*
X169443Y124103D01*
X169684Y124685D01*
Y125315D01*
X169443Y125897D01*
X168997Y126343D01*
X168878Y126392D01*
X168878Y126392D01*
X168535Y126535D01*
X168415Y126584D01*
D02*
G37*
G36*
X192215Y135284D02*
X191585D01*
X191003Y135043D01*
X190557Y134597D01*
X190316Y134015D01*
Y133385D01*
X190557Y132803D01*
X190928Y132431D01*
X190876Y132354D01*
X190833Y132150D01*
X190841Y132106D01*
X190821Y132065D01*
X190814Y131986D01*
X190783Y131923D01*
X190783Y131923D01*
X190648Y131789D01*
X190557Y131697D01*
X190316Y131115D01*
Y130485D01*
X190557Y129903D01*
X190783Y129677D01*
Y129677D01*
X190821Y129601D01*
X190828Y129514D01*
X190845Y129481D01*
X190837Y129444D01*
X190853Y129359D01*
X190809Y129150D01*
X190777Y129103D01*
X190763Y129034D01*
X190713Y128985D01*
X190691Y128932D01*
X190648Y128889D01*
X190648Y128889D01*
X190557Y128797D01*
X190316Y128215D01*
Y127585D01*
X190557Y127003D01*
X190783Y126777D01*
Y126777D01*
X190821Y126700D01*
X190828Y126614D01*
X190845Y126581D01*
X190837Y126544D01*
X190853Y126459D01*
X190809Y126250D01*
X190777Y126203D01*
X190763Y126134D01*
X190713Y126085D01*
X190691Y126032D01*
X190648Y125989D01*
X190648Y125989D01*
X190557Y125897D01*
X190316Y125315D01*
Y124685D01*
X190557Y124103D01*
X190783Y123877D01*
Y123877D01*
X190821Y123801D01*
X190828Y123714D01*
X190845Y123681D01*
X190837Y123644D01*
X190853Y123559D01*
X190809Y123350D01*
X190777Y123303D01*
X190763Y123234D01*
X190713Y123185D01*
X190691Y123132D01*
X190648Y123089D01*
X190648Y123089D01*
X190557Y122997D01*
X190316Y122415D01*
Y121785D01*
X190557Y121203D01*
X191003Y120757D01*
X191122Y120707D01*
X191122Y120707D01*
X191585Y120516D01*
X192215D01*
X192797Y120757D01*
X192973Y120933D01*
X192973Y120933D01*
X193081Y121009D01*
X193137Y121015D01*
X193170Y121033D01*
X193208Y121026D01*
X193263Y121039D01*
X193503Y120969D01*
X193529Y120948D01*
X193620Y120921D01*
X193687Y120854D01*
X193718Y120842D01*
X193803Y120757D01*
X194385Y120516D01*
X195015D01*
X195597Y120757D01*
X196043Y121203D01*
X196092Y121322D01*
X196092Y121322D01*
X196284Y121785D01*
Y122415D01*
X196043Y122997D01*
X195817Y123223D01*
Y123223D01*
X195779Y123300D01*
X195772Y123386D01*
X195755Y123419D01*
X195763Y123456D01*
X195747Y123541D01*
X195791Y123750D01*
X195823Y123797D01*
X195837Y123866D01*
X195887Y123915D01*
X195908Y123968D01*
X195952Y124011D01*
X195952Y124011D01*
X196043Y124103D01*
X196284Y124685D01*
Y125315D01*
X196043Y125897D01*
X195817Y126123D01*
Y126123D01*
X195779Y126199D01*
X195772Y126286D01*
X195755Y126319D01*
X195763Y126356D01*
X195747Y126441D01*
X195791Y126650D01*
X195823Y126697D01*
X195837Y126766D01*
X195887Y126815D01*
X195908Y126868D01*
X195952Y126911D01*
X195952Y126911D01*
X196043Y127003D01*
X196284Y127585D01*
Y128215D01*
X196043Y128797D01*
X195817Y129024D01*
X195817Y129024D01*
X195690Y129156D01*
X195786Y129616D01*
X195817Y129677D01*
X195943Y129803D01*
X196184Y130385D01*
Y131015D01*
X195943Y131597D01*
X195497Y132043D01*
X195378Y132092D01*
X195378Y132092D01*
X194915Y132284D01*
X194285D01*
X193713Y132048D01*
X193244Y132238D01*
X193128Y132687D01*
X193243Y132803D01*
X193484Y133385D01*
Y134015D01*
X193243Y134597D01*
X192797Y135043D01*
X192215Y135284D01*
D02*
G37*
G36*
X182015Y118084D02*
X181385D01*
X180803Y117843D01*
X180357Y117397D01*
X180116Y116815D01*
Y116185D01*
X180357Y115603D01*
X180803Y115157D01*
X181385Y114916D01*
X182015D01*
X182597Y115157D01*
X183043Y115603D01*
X183284Y116185D01*
Y116815D01*
X183043Y117397D01*
X182597Y117843D01*
X182015Y118084D01*
D02*
G37*
G36*
X196015Y116784D02*
X195385D01*
X194803Y116543D01*
X194357Y116097D01*
X194116Y115515D01*
Y114885D01*
X194357Y114303D01*
X194803Y113857D01*
X195385Y113616D01*
X196015D01*
X196597Y113857D01*
X197043Y114303D01*
X197284Y114885D01*
Y115515D01*
X197043Y116097D01*
X196597Y116543D01*
X196015Y116784D01*
D02*
G37*
G36*
X199215Y114684D02*
X198585D01*
X198003Y114443D01*
X197557Y113997D01*
X197316Y113415D01*
Y112785D01*
X197557Y112203D01*
X198003Y111757D01*
X198585Y111516D01*
X199215D01*
X199797Y111757D01*
X200243Y112203D01*
X200484Y112785D01*
Y113415D01*
X200243Y113997D01*
X199797Y114443D01*
X199215Y114684D01*
D02*
G37*
G36*
X162315Y107584D02*
X161685D01*
X161103Y107343D01*
X160657Y106897D01*
X160416Y106315D01*
Y105685D01*
X160657Y105103D01*
X161103Y104657D01*
X161685Y104416D01*
X162315D01*
X162897Y104657D01*
X163343Y105103D01*
X163584Y105685D01*
Y106315D01*
X163343Y106897D01*
X162897Y107343D01*
X162315Y107584D01*
D02*
G37*
G36*
Y102484D02*
X161685D01*
X161103Y102243D01*
X160657Y101797D01*
X160416Y101215D01*
Y100585D01*
X160657Y100003D01*
X161103Y99557D01*
X161685Y99316D01*
X162315D01*
X162897Y99557D01*
X163343Y100003D01*
X163584Y100585D01*
Y101215D01*
X163343Y101797D01*
X162897Y102243D01*
X162315Y102484D01*
D02*
G37*
G36*
X174815Y80684D02*
X174185D01*
X173603Y80443D01*
X173157Y79997D01*
X172916Y79415D01*
Y78785D01*
X173157Y78203D01*
X173603Y77757D01*
X174185Y77516D01*
X174815D01*
X175397Y77757D01*
X175843Y78203D01*
X176084Y78785D01*
Y79415D01*
X175843Y79997D01*
X175397Y80443D01*
X174815Y80684D01*
D02*
G37*
G36*
X194615Y73184D02*
X193985D01*
X193403Y72943D01*
X193403Y72943D01*
X193403D01*
X193182Y72852D01*
X192822Y72852D01*
X192799Y72861D01*
X192695D01*
X192663Y72878D01*
X192597Y72943D01*
X192015Y73184D01*
X191385D01*
X190803Y72943D01*
X190627Y72767D01*
X190627Y72767D01*
X190519Y72692D01*
X190463Y72685D01*
X190430Y72667D01*
X190392Y72674D01*
X190337Y72661D01*
X190097Y72731D01*
X190071Y72752D01*
X189980Y72779D01*
X189913Y72846D01*
X189882Y72859D01*
X189797Y72943D01*
X189678Y72992D01*
X189678Y72992D01*
X189215Y73184D01*
X188585D01*
X188003Y72943D01*
X187877Y72817D01*
X187876Y72817D01*
X187643Y72593D01*
X187643Y72593D01*
X187617Y72605D01*
X187564Y72606D01*
X187550Y72601D01*
X187536Y72606D01*
X187483Y72605D01*
X187457Y72593D01*
X187457D01*
X187224Y72817D01*
X187097Y72943D01*
X186515Y73184D01*
X185885D01*
X185303Y72943D01*
X185303Y72943D01*
X185302D01*
X185082Y72852D01*
X184722Y72852D01*
X184699Y72861D01*
X184595D01*
X184563Y72878D01*
X184497Y72943D01*
X184473Y72953D01*
X184473Y72953D01*
X184307Y73022D01*
X184307D01*
X183915Y73184D01*
X183285D01*
X182703Y72943D01*
X182257Y72497D01*
X182208Y72378D01*
X182208Y72378D01*
X182016Y71915D01*
Y71285D01*
X182257Y70703D01*
X182383Y70577D01*
X182383Y70577D01*
X182606Y70343D01*
X182607Y70343D01*
X182595Y70317D01*
X182594Y70264D01*
X182599Y70250D01*
X182594Y70236D01*
X182595Y70183D01*
X182606Y70157D01*
Y70157D01*
X182383Y69924D01*
X182257Y69797D01*
X182016Y69215D01*
Y68585D01*
X182257Y68003D01*
X182433Y67827D01*
X182433Y67827D01*
X182509Y67719D01*
X182515Y67663D01*
X182533Y67630D01*
X182526Y67592D01*
X182539Y67537D01*
X182469Y67297D01*
X182448Y67271D01*
X182421Y67180D01*
X182354Y67113D01*
X182342Y67082D01*
X182257Y66997D01*
X182208Y66878D01*
X182208Y66878D01*
X182016Y66415D01*
Y65785D01*
X182208Y65322D01*
Y65224D01*
X182217Y65201D01*
X182209Y65178D01*
X182216Y65080D01*
X182215Y65076D01*
X182140Y64990D01*
X182138Y64984D01*
X182132Y64981D01*
X182059Y64893D01*
X181815Y64766D01*
X181748D01*
X181719Y64754D01*
X181690Y64763D01*
X181622Y64757D01*
X181315Y64884D01*
X180685D01*
X180103Y64643D01*
X179657Y64197D01*
X179607Y64078D01*
X179607Y64078D01*
X179416Y63615D01*
Y62985D01*
X179657Y62403D01*
X179833Y62227D01*
X179833Y62227D01*
X179909Y62119D01*
X179915Y62063D01*
X179933Y62030D01*
X179926Y61992D01*
X179939Y61937D01*
X179869Y61697D01*
X179848Y61671D01*
X179821Y61580D01*
X179754Y61513D01*
X179742Y61482D01*
X179657Y61397D01*
X179416Y60815D01*
Y60185D01*
X179657Y59603D01*
X180103Y59157D01*
X180222Y59108D01*
X180222Y59108D01*
X180685Y58916D01*
X181315D01*
X181897Y59157D01*
X181897Y59157D01*
X181904D01*
X182114Y59244D01*
X182486D01*
X182696Y59157D01*
X182703D01*
X182703Y59157D01*
X183166Y58965D01*
X183166D01*
X183285Y58916D01*
X183915D01*
X184497Y59157D01*
X184497Y59157D01*
X184504D01*
X184713Y59244D01*
X185087D01*
X185296Y59157D01*
X185303D01*
X185303Y59157D01*
X185766Y58965D01*
X185766D01*
X185885Y58916D01*
X186515D01*
X187097Y59157D01*
X187223Y59283D01*
X187223Y59283D01*
X187457Y59507D01*
X187457Y59507D01*
X187483Y59495D01*
X187536Y59494D01*
X187550Y59499D01*
X187564Y59494D01*
X187617Y59495D01*
X187643Y59507D01*
X187643Y59507D01*
X187877Y59283D01*
X188003Y59157D01*
X188585Y58916D01*
X189215D01*
X189797Y59157D01*
X189973Y59333D01*
X189973Y59333D01*
X190081Y59408D01*
X190137Y59415D01*
X190170Y59433D01*
X190208Y59426D01*
X190263Y59439D01*
X190503Y59369D01*
X190529Y59348D01*
X190620Y59321D01*
X190687Y59254D01*
X190718Y59241D01*
X190803Y59157D01*
X190922Y59108D01*
X190922Y59108D01*
X191385Y58916D01*
X192015D01*
X192597Y59157D01*
X192684Y59244D01*
X192712Y59258D01*
X192714Y59259D01*
X193286Y59259D01*
X193316Y59244D01*
X193403Y59157D01*
X193985Y58916D01*
X194615D01*
X195197Y59157D01*
X195643Y59603D01*
X195693Y59722D01*
X195693Y59722D01*
X195884Y60185D01*
Y60815D01*
X195643Y61397D01*
X195467Y61573D01*
X195467Y61573D01*
X195391Y61681D01*
X195385Y61737D01*
X195367Y61770D01*
X195374Y61808D01*
X195361Y61863D01*
X195431Y62103D01*
X195452Y62129D01*
X195479Y62220D01*
X195546Y62287D01*
X195559Y62318D01*
X195643Y62403D01*
X195693Y62522D01*
X195693Y62522D01*
X195884Y62985D01*
Y63615D01*
X195643Y64197D01*
X195467Y64373D01*
X195467Y64373D01*
X195391Y64481D01*
X195385Y64537D01*
X195367Y64570D01*
X195374Y64608D01*
X195361Y64663D01*
X195431Y64903D01*
X195452Y64929D01*
X195479Y65020D01*
X195546Y65087D01*
X195559Y65118D01*
X195643Y65203D01*
X195693Y65322D01*
X195693Y65322D01*
X195884Y65785D01*
Y66415D01*
X195643Y66997D01*
X195467Y67173D01*
X195467Y67173D01*
X195391Y67281D01*
X195385Y67337D01*
X195367Y67370D01*
X195374Y67408D01*
X195361Y67463D01*
X195431Y67703D01*
X195452Y67729D01*
X195479Y67820D01*
X195546Y67887D01*
X195559Y67918D01*
X195643Y68003D01*
X195693Y68122D01*
X195693Y68122D01*
X195884Y68585D01*
Y69215D01*
X195643Y69797D01*
X195517Y69923D01*
X195517Y69924D01*
X195293Y70157D01*
X195293Y70157D01*
X195305Y70183D01*
X195306Y70236D01*
X195301Y70250D01*
X195306Y70264D01*
X195305Y70317D01*
X195293Y70343D01*
Y70343D01*
X195517Y70576D01*
X195643Y70703D01*
X195884Y71285D01*
Y71915D01*
X195643Y72497D01*
X195197Y72943D01*
X195078Y72992D01*
X195078Y72992D01*
X194735Y73135D01*
X194615Y73184D01*
D02*
G37*
G36*
X169215Y71184D02*
X168585D01*
X168003Y70943D01*
X167557Y70497D01*
X167316Y69915D01*
Y69285D01*
X167557Y68703D01*
X168003Y68257D01*
X168585Y68016D01*
X169215D01*
X169797Y68257D01*
X170243Y68703D01*
X170484Y69285D01*
Y69915D01*
X170243Y70497D01*
X169797Y70943D01*
X169215Y71184D01*
D02*
G37*
G36*
X167115Y55884D02*
X166485D01*
X165903Y55643D01*
X165457Y55197D01*
X165216Y54615D01*
Y53985D01*
X165457Y53403D01*
X165903Y52957D01*
X166485Y52716D01*
X167115D01*
X167697Y52957D01*
X168143Y53403D01*
X168384Y53985D01*
Y54615D01*
X168143Y55197D01*
X167697Y55643D01*
X167115Y55884D01*
D02*
G37*
G36*
X166315Y49384D02*
X165685D01*
X165103Y49143D01*
X164927Y48967D01*
X164600Y48737D01*
X164273Y48967D01*
X164097Y49143D01*
X163515Y49384D01*
X162885D01*
X162303Y49143D01*
X162177Y49017D01*
X161850Y48704D01*
X161523Y49017D01*
X161397Y49143D01*
X160815Y49384D01*
X160185D01*
X159603Y49143D01*
X159200Y48741D01*
X158797Y49143D01*
X158215Y49384D01*
X157585D01*
X157003Y49143D01*
X156557Y48697D01*
X156316Y48115D01*
Y47485D01*
X156557Y46903D01*
X157003Y46457D01*
X157585Y46216D01*
X158215D01*
X158797Y46457D01*
X159200Y46859D01*
X159603Y46457D01*
X160185Y46216D01*
X160815D01*
X161397Y46457D01*
X161523Y46583D01*
X161850Y46896D01*
X162177Y46583D01*
X162303Y46457D01*
X162885Y46216D01*
X163515D01*
X164097Y46457D01*
X164273Y46633D01*
X164600Y46863D01*
X164927Y46633D01*
X165103Y46457D01*
X165685Y46216D01*
X166315D01*
X166897Y46457D01*
X167343Y46903D01*
X167584Y47485D01*
Y48115D01*
X167343Y48697D01*
X166897Y49143D01*
X166315Y49384D01*
D02*
G37*
%LPD*%
G36*
X160230Y142992D02*
X160493Y142730D01*
X160522Y141742D01*
X160443Y141551D01*
Y141338D01*
X160418Y141127D01*
X160506Y140812D01*
X160656Y140622D01*
X160801Y140429D01*
X160801Y140429D01*
X161116Y140243D01*
X161163Y140236D01*
X161198Y140202D01*
X161404D01*
X161608Y140174D01*
X161608Y140174D01*
X161646Y140202D01*
X161695D01*
X162014Y140335D01*
X162386D01*
X162730Y140192D01*
X162994Y139928D01*
X163091Y139400D01*
X162994Y138872D01*
X162730Y138608D01*
X162386Y138465D01*
X162014D01*
X161551Y138657D01*
X161497D01*
X161294Y138758D01*
X160733Y138796D01*
X160711Y138789D01*
X160689Y138798D01*
X160478Y138710D01*
X160262Y138638D01*
X160251Y138617D01*
X159886Y138465D01*
X159243D01*
X159243Y138465D01*
X159114D01*
X158771Y138608D01*
X158679Y138699D01*
X158560Y138748D01*
X158437Y138748D01*
X158325Y138798D01*
X157958Y138805D01*
X157860Y138767D01*
X157756Y138777D01*
X157569Y138721D01*
X157543Y138699D01*
X157509D01*
X157186Y138565D01*
X156543D01*
X156543Y138565D01*
X156414D01*
X156183Y138661D01*
X156183D01*
X156183Y138661D01*
X156183Y138661D01*
X156176Y138664D01*
X156086Y138701D01*
X156021Y138776D01*
X156021Y138776D01*
X155908Y138784D01*
X155808Y138840D01*
X155562Y138870D01*
X155464Y138842D01*
X155365Y138863D01*
X155129Y138819D01*
X155085Y138790D01*
X155032Y138793D01*
X154881Y138739D01*
X154846Y138707D01*
X154830D01*
X154486Y138565D01*
X153843D01*
X153764Y138598D01*
X153726D01*
X153696Y138622D01*
X153613Y138646D01*
X153406Y138812D01*
X153401Y138820D01*
X153308Y138895D01*
X153253Y139001D01*
X153246Y139007D01*
X153233Y139033D01*
X153232Y139050D01*
X153181Y139149D01*
X153178Y139261D01*
X153171Y139277D01*
X153155Y139946D01*
X153197Y140055D01*
X153197Y140056D01*
X153198Y140057D01*
X153241Y140167D01*
X153375Y140307D01*
X153422Y140428D01*
X153512Y140521D01*
X153509Y140644D01*
X153556Y140757D01*
Y140757D01*
X153553Y140764D01*
X153556Y140770D01*
X153544Y140797D01*
X153543Y140850D01*
X153544Y140903D01*
X153556Y140929D01*
X153515Y141035D01*
X153523Y141149D01*
X153523Y141149D01*
X153511Y141162D01*
X153512Y141179D01*
X153422Y141272D01*
X153375Y141393D01*
X153196Y141580D01*
X153165Y141630D01*
X153159Y141725D01*
X153145Y141755D01*
X153115Y142270D01*
X153149Y142354D01*
X153149Y142370D01*
X153160Y142383D01*
X153190Y142468D01*
X153756Y143045D01*
X153861Y143088D01*
X153864Y143090D01*
X153867Y143090D01*
X153972Y143135D01*
X154357D01*
X154357Y143135D01*
X154486D01*
X154949Y142943D01*
X155008D01*
X155057Y142909D01*
X155282Y142859D01*
X155360Y142873D01*
X155360Y142873D01*
X155405Y142863D01*
X155454Y142872D01*
X155535Y142854D01*
X155613Y142868D01*
X155613Y142868D01*
X155692Y142871D01*
X155768Y142906D01*
X155818Y142908D01*
X155859Y142927D01*
X155859Y142927D01*
X155938Y142931D01*
X156083Y142998D01*
X156414Y143135D01*
X157186D01*
X157649Y142943D01*
X157741D01*
X157822Y142898D01*
X158001Y142877D01*
X158065Y142895D01*
X158128Y142875D01*
X158485Y142904D01*
X158557Y142941D01*
X158638Y142935D01*
X158667Y142960D01*
X158705Y142962D01*
X158782Y142997D01*
X158795Y142998D01*
X158798Y142999D01*
X158804Y143007D01*
X159114Y143135D01*
X159886D01*
X160230Y142992D01*
D02*
G37*
G36*
X141130Y154192D02*
X141393Y153929D01*
X141535Y153586D01*
Y153214D01*
X141393Y152871D01*
Y152798D01*
X141372Y152749D01*
Y152692D01*
X141343Y152622D01*
Y152550D01*
X141323Y152500D01*
Y152500D01*
X141332Y152478D01*
X141332Y152478D01*
X141338Y152454D01*
X141335Y152449D01*
Y152449D01*
X141344Y152427D01*
X141350Y152404D01*
X141341Y152348D01*
X141353Y152296D01*
X141342Y152225D01*
X141427Y151873D01*
X141473Y151810D01*
X141471Y151799D01*
X141472Y151799D01*
X141480Y151788D01*
X141479Y151760D01*
X141479Y151760D01*
X141479Y151760D01*
X141480Y151759D01*
X141482Y151757D01*
X141482Y151752D01*
X141482Y151752D01*
X141503Y151703D01*
X141549Y151657D01*
X141562Y151592D01*
X141562Y151592D01*
X141598Y151567D01*
X141599Y151566D01*
X141623Y151542D01*
X141623Y151542D01*
X141623Y151542D01*
X141623Y151542D01*
X141643Y151514D01*
X141708Y151475D01*
X141764Y151398D01*
X141809Y151370D01*
X141809Y151370D01*
X141841Y151365D01*
X141853Y151352D01*
X141854Y151352D01*
X141864Y151352D01*
X141920Y151297D01*
X141929Y151293D01*
X141930Y151292D01*
X141930Y151292D01*
X141930Y151292D01*
X141964Y151258D01*
X141997Y151244D01*
X142013Y151214D01*
X142273Y151002D01*
X142447Y150950D01*
X142489Y150906D01*
X142495Y150906D01*
X142501Y150901D01*
X142514Y150896D01*
X142591Y150897D01*
X142697Y150856D01*
X142750Y150857D01*
X142803Y150856D01*
X142803Y150856D01*
X142830Y150844D01*
X142935Y150885D01*
X143049Y150877D01*
X143049Y150877D01*
X143062Y150889D01*
X143076Y150888D01*
X143079Y150888D01*
X143172Y150978D01*
X143292Y151024D01*
X143293Y151024D01*
X143526Y151248D01*
X143529Y151255D01*
X143536Y151258D01*
X143570Y151293D01*
X143914Y151435D01*
X144286D01*
X144630Y151293D01*
X144893Y151030D01*
X145035Y150686D01*
Y150314D01*
X144892Y149970D01*
Y149850D01*
X144892Y149850D01*
Y149839D01*
X144843Y149720D01*
X144843Y149601D01*
Y149484D01*
X144892Y149366D01*
Y149354D01*
X144892Y149353D01*
Y149353D01*
X144893Y149352D01*
Y149352D01*
X144893Y149352D01*
X144893Y149234D01*
X145002Y148973D01*
X145002Y148973D01*
X145086Y148890D01*
X145086Y148888D01*
X145086Y148888D01*
X145095Y148879D01*
X145143Y148763D01*
X145226Y148680D01*
X145226Y148680D01*
X145226Y148680D01*
X145311Y148595D01*
X145338Y148584D01*
X145514Y148408D01*
X145569Y148385D01*
X145600Y148336D01*
X145806Y148191D01*
X145807Y148191D01*
X145821Y148180D01*
X145835Y148177D01*
X145835Y148177D01*
X145835Y148177D01*
X145923Y148115D01*
X145923Y148115D01*
X146035Y148090D01*
X146053Y148078D01*
X146053Y148078D01*
X146067Y148075D01*
X146076Y148076D01*
X146185Y148007D01*
X146185Y148007D01*
X146188Y148006D01*
X146191Y148007D01*
X146192Y148007D01*
X146192Y148007D01*
X146300Y148031D01*
X146366Y148017D01*
X146411Y148006D01*
X146414Y148007D01*
X146414Y148007D01*
X146524Y148076D01*
X146533Y148075D01*
X146547Y148078D01*
X146547Y148078D01*
X146563Y148089D01*
X146563Y148089D01*
X146564Y148089D01*
X146564Y148089D01*
X146564Y148089D01*
X146567Y148091D01*
X146677Y148115D01*
X146677Y148115D01*
X146765Y148177D01*
X146765Y148177D01*
X146765Y148177D01*
X146779Y148180D01*
X146793Y148191D01*
X146794Y148191D01*
X147000Y148336D01*
X147000Y148336D01*
X147032Y148385D01*
X147086Y148408D01*
X147170Y148493D01*
X147514Y148635D01*
X147886D01*
X148230Y148493D01*
X148493Y148230D01*
X148635Y147886D01*
Y147514D01*
X148493Y147170D01*
X148230Y146907D01*
X148230Y146907D01*
X147932Y146784D01*
X147888Y146740D01*
X147848Y146731D01*
X147800Y146697D01*
X147741Y146698D01*
X147741Y146697D01*
X147689Y146646D01*
X147688Y146645D01*
X147688D01*
X147687Y146645D01*
X147687Y146644D01*
X147686D01*
X147683Y146643D01*
X147644Y146604D01*
X147616Y146592D01*
X147572Y146583D01*
X147572Y146583D01*
X147563Y146570D01*
X147529Y146556D01*
X147477Y146504D01*
X147476Y146504D01*
X147476Y146504D01*
X147457Y146457D01*
X147441Y146446D01*
X147438Y146430D01*
X147384Y146392D01*
X147161Y146042D01*
X147148Y145969D01*
X147139Y145962D01*
X147139Y145961D01*
X147135Y145943D01*
X147109Y145917D01*
X147087Y145862D01*
X147087Y145758D01*
X147060Y145693D01*
Y145668D01*
X147037Y145613D01*
Y145613D01*
X147065Y145545D01*
X147053Y145473D01*
X147065Y145415D01*
X147065Y145415D01*
X147087Y145385D01*
Y145365D01*
X147087Y145365D01*
X146942Y144420D01*
X146730Y144208D01*
X146345Y144048D01*
X146284Y143988D01*
X146202Y143966D01*
X146015Y143825D01*
X146014Y143825D01*
X145991Y143786D01*
X145926Y143736D01*
X145926Y143736D01*
X145884Y143664D01*
X145846Y143636D01*
X145846Y143636D01*
X145823Y143596D01*
X145823D01*
X145823Y143596D01*
X145791Y143564D01*
X145773Y143520D01*
X145715Y143460D01*
X145684Y143384D01*
Y143384D01*
X145652Y143351D01*
X145623Y143278D01*
X145624Y143162D01*
X145624Y143161D01*
X145622Y143158D01*
X145622Y143145D01*
X145606Y143103D01*
X145605Y143102D01*
X145605Y143102D01*
X145576Y143029D01*
X145577Y142913D01*
Y142807D01*
X145577Y142807D01*
X145625Y142692D01*
X145625Y142669D01*
X145626Y142665D01*
X145626Y142665D01*
X145626Y142664D01*
X145626Y142663D01*
X145637Y142642D01*
X145646Y142515D01*
X145668Y142471D01*
Y142446D01*
X145735Y142286D01*
Y141914D01*
X145701Y141833D01*
Y141794D01*
X145677Y141763D01*
X145677Y141763D01*
X145690Y141646D01*
X145654Y141533D01*
X145660Y141460D01*
X145700Y141381D01*
X145696Y141293D01*
X145841Y140887D01*
X145908Y140813D01*
X145908Y140797D01*
X145916Y140788D01*
X145918Y140774D01*
X145930Y140750D01*
X145985Y140703D01*
X146031Y140612D01*
X146075Y140575D01*
X146096Y140548D01*
X146170Y140506D01*
X146228Y140431D01*
X146266Y140409D01*
X146291Y140406D01*
X146300Y140396D01*
X146302Y140394D01*
X146312Y140394D01*
X146361Y140345D01*
X146730Y140192D01*
X146993Y139929D01*
X147135Y139586D01*
Y139214D01*
X147022Y138942D01*
Y138942D01*
X147022Y138942D01*
X146993Y138871D01*
X146730Y138608D01*
X146386Y138465D01*
X146014D01*
X145639Y138620D01*
X145579Y138681D01*
X145491Y138717D01*
X145466Y138742D01*
X145435Y138754D01*
X145435Y138754D01*
X145435Y138754D01*
X145409Y138776D01*
X145376Y138785D01*
X145301Y138845D01*
X145211Y138871D01*
X145184Y138893D01*
X145184D01*
X144945Y138962D01*
X144857Y138953D01*
X144852Y138957D01*
X144851Y138956D01*
X144837Y138955D01*
X144820Y138966D01*
X144819Y138966D01*
X144782Y138973D01*
X144711Y138957D01*
X144621Y138972D01*
X144566Y138960D01*
X144566Y138960D01*
X144566Y138960D01*
X144566Y138960D01*
X144510Y138954D01*
X144510Y138954D01*
X144430Y138910D01*
X144358Y138902D01*
X144325Y138884D01*
X144324Y138884D01*
X144311Y138867D01*
X144298Y138865D01*
X144297Y138864D01*
X144294Y138859D01*
X144207Y138840D01*
X144100Y138764D01*
X144100Y138764D01*
X144069Y138715D01*
X144014Y138692D01*
X143930Y138608D01*
X143586Y138465D01*
X143214D01*
X142870Y138608D01*
X142836Y138642D01*
X142829Y138645D01*
X142826Y138652D01*
X142826Y138652D01*
X142593Y138875D01*
X142472Y138922D01*
X142379Y139012D01*
X142256Y139009D01*
X142143Y139056D01*
X142143D01*
X142136Y139053D01*
X142130Y139056D01*
X142130Y139056D01*
X142103Y139044D01*
X142050Y139043D01*
X141997Y139044D01*
X141997Y139044D01*
X141971Y139056D01*
X141865Y139015D01*
X141751Y139023D01*
X141751Y139023D01*
X141738Y139011D01*
X141721Y139012D01*
X141628Y138922D01*
X141507Y138875D01*
X141274Y138652D01*
X141271Y138645D01*
X141264Y138642D01*
X141229Y138608D01*
X140886Y138465D01*
X140514D01*
X140080Y138645D01*
X140033Y138700D01*
X140000Y138717D01*
X139860Y138728D01*
X139849Y138739D01*
X139826Y138748D01*
X139801D01*
X139705Y138788D01*
X139601D01*
X139578Y138798D01*
X139218Y138798D01*
X139099Y138748D01*
X138969D01*
X138749Y138657D01*
X138749D01*
X138286Y138465D01*
X137914D01*
X137480Y138645D01*
X137433Y138700D01*
X137400Y138717D01*
X137260Y138728D01*
X137249Y138739D01*
X137226Y138748D01*
X137201D01*
X137105Y138788D01*
X137001D01*
X136978Y138798D01*
X136618Y138798D01*
X136499Y138748D01*
X136369D01*
X136149Y138657D01*
X136149D01*
X135686Y138465D01*
X135314D01*
X134970Y138608D01*
X134707Y138871D01*
X134565Y139214D01*
Y139586D01*
X134599Y139667D01*
Y139699D01*
X134619Y139724D01*
X134619Y139724D01*
X134613Y139794D01*
X134619Y139814D01*
X134619Y139816D01*
X134619Y139817D01*
X134619Y139817D01*
X134618Y139827D01*
X134615Y139870D01*
X134646Y139967D01*
X134641Y140030D01*
X134650Y140055D01*
X134650Y140055D01*
X134640Y140074D01*
Y140112D01*
X134601Y140207D01*
X134601Y140263D01*
X134591Y140288D01*
X134589Y140290D01*
X134588Y140368D01*
X134588Y140368D01*
X134571Y140385D01*
X134569Y140408D01*
X134426Y140689D01*
X134382Y140726D01*
X134370Y140750D01*
X134338Y140778D01*
X134307Y140853D01*
X134281Y140863D01*
X134269Y140888D01*
X134225Y140925D01*
Y140925D01*
X134204Y140952D01*
X134130Y140994D01*
X134072Y141069D01*
X134034Y141091D01*
X134009Y141094D01*
X133998Y141106D01*
X133988D01*
X133939Y141155D01*
X133571Y141307D01*
X133308Y141570D01*
X133165Y141914D01*
Y142286D01*
X133278Y142558D01*
Y142558D01*
X133278Y142558D01*
X133308Y142630D01*
X133570Y142893D01*
X133571Y142893D01*
X133955Y143052D01*
X134016Y143112D01*
X134098Y143134D01*
X134285Y143275D01*
X134309Y143315D01*
X134339Y143337D01*
X134381Y143409D01*
X134454Y143464D01*
X134477Y143504D01*
X134486Y143570D01*
X134573Y143680D01*
X134699Y144128D01*
X134674Y144339D01*
Y144552D01*
X134565Y144814D01*
Y145186D01*
X134707Y145529D01*
X134970Y145792D01*
X134970Y145792D01*
X135268Y145916D01*
X135312Y145960D01*
X135352Y145969D01*
X135400Y146002D01*
X135459Y146002D01*
X135459Y146002D01*
X135511Y146054D01*
X135512Y146055D01*
X135512D01*
X135513Y146055D01*
X135513Y146056D01*
X135514D01*
X135517Y146057D01*
X135556Y146096D01*
X135584Y146108D01*
X135628Y146117D01*
X135628Y146117D01*
X135637Y146130D01*
X135671Y146144D01*
X135723Y146196D01*
X135724Y146196D01*
X135724Y146196D01*
X135743Y146243D01*
X135759Y146254D01*
X135762Y146271D01*
X135816Y146308D01*
X136039Y146658D01*
X136052Y146731D01*
X136061Y146738D01*
X136062Y146739D01*
X136065Y146757D01*
X136091Y146783D01*
X136114Y146838D01*
X136114Y146942D01*
X136140Y147007D01*
Y147032D01*
X136163Y147087D01*
Y147087D01*
X136135Y147155D01*
X136147Y147228D01*
X136135Y147285D01*
X136135Y147285D01*
X136381Y148240D01*
X137111Y148669D01*
X137111Y148669D01*
X137111Y148669D01*
X137137Y148684D01*
X137208Y148684D01*
X137208Y148684D01*
X137279Y148714D01*
X137370Y148805D01*
X137419Y148825D01*
X137428Y148848D01*
X137428Y148848D01*
X137428Y148848D01*
X137442Y148856D01*
X137444Y148859D01*
X137543Y148915D01*
X137620Y149014D01*
X137620Y149014D01*
Y149014D01*
X137634Y149022D01*
X137839Y149286D01*
X137863Y149372D01*
X137926Y149436D01*
Y149436D01*
X137960Y149518D01*
X137961Y149650D01*
X137996Y149710D01*
X138001Y149752D01*
X137977Y149846D01*
X137989Y149931D01*
X137980Y149963D01*
X137961Y149989D01*
Y150015D01*
X137961Y150015D01*
X137958Y150018D01*
Y150090D01*
X137865Y150314D01*
Y150686D01*
X138004Y151021D01*
X138860Y151473D01*
X138868Y151476D01*
X138878Y151473D01*
X138878Y151473D01*
X138898Y151474D01*
X138939Y151494D01*
X139047Y151500D01*
X139123Y151537D01*
X139123Y151537D01*
X139123D01*
X139201Y151569D01*
X139278Y151646D01*
X139319Y151663D01*
X139334Y151678D01*
X139338Y151687D01*
X139344Y151690D01*
X139346Y151691D01*
X139346Y151693D01*
X139438Y151737D01*
X139547Y151860D01*
X139547Y151860D01*
X139581Y151959D01*
X139656Y152032D01*
X139656Y152032D01*
X139658Y152036D01*
X139658Y152036D01*
Y152036D01*
X139785Y152326D01*
X139786Y152414D01*
X139789Y152417D01*
Y152466D01*
X139839Y152585D01*
Y152666D01*
X139793Y152776D01*
X139794Y152822D01*
X139794Y152823D01*
X139789Y152827D01*
Y152914D01*
X139665Y153214D01*
Y153586D01*
X139807Y153929D01*
X140070Y154192D01*
X140414Y154335D01*
X140786D01*
X141130Y154192D01*
D02*
G37*
G36*
X168630Y125793D02*
X168893Y125530D01*
X169035Y125186D01*
Y124814D01*
X168893Y124470D01*
X168858Y124436D01*
X168855Y124429D01*
X168848Y124426D01*
X168848Y124426D01*
X168625Y124193D01*
X168578Y124072D01*
X168488Y123979D01*
X168491Y123856D01*
X168444Y123743D01*
Y123743D01*
X168447Y123736D01*
X168444Y123730D01*
X168444Y123730D01*
X168456Y123703D01*
X168457Y123650D01*
X168456Y123597D01*
X168456Y123597D01*
X168444Y123571D01*
X168485Y123465D01*
X168477Y123351D01*
X168477Y123351D01*
X168489Y123338D01*
X168488Y123321D01*
X168578Y123228D01*
X168625Y123107D01*
X168848Y122874D01*
X168855Y122871D01*
X168858Y122864D01*
X168893Y122829D01*
X169035Y122486D01*
Y122114D01*
X168893Y121771D01*
X168893Y121771D01*
X168880Y121739D01*
X168819Y121679D01*
X168783Y121591D01*
X168758Y121566D01*
X168746Y121535D01*
X168746Y121535D01*
X168746Y121535D01*
X168724Y121509D01*
X168715Y121476D01*
X168655Y121401D01*
X168629Y121310D01*
X168607Y121284D01*
Y121284D01*
X168538Y121045D01*
X168547Y120957D01*
X168543Y120952D01*
X168544Y120951D01*
X168545Y120937D01*
X168534Y120920D01*
X168534Y120920D01*
X168527Y120882D01*
X168543Y120811D01*
X168527Y120721D01*
X168540Y120666D01*
X168540Y120666D01*
X168540Y120666D01*
X168540Y120666D01*
X168546Y120610D01*
X168546Y120610D01*
X168590Y120530D01*
X168598Y120458D01*
X168616Y120424D01*
X168616Y120424D01*
X168632Y120411D01*
X168635Y120398D01*
X168636Y120397D01*
X168641Y120394D01*
X168660Y120307D01*
X168736Y120200D01*
X168736Y120200D01*
X168785Y120168D01*
X168808Y120114D01*
X168893Y120029D01*
X169035Y119686D01*
Y119314D01*
X168893Y118971D01*
X168893Y118971D01*
X168880Y118939D01*
X168819Y118879D01*
X168783Y118791D01*
X168758Y118766D01*
X168746Y118735D01*
X168746Y118735D01*
X168746Y118735D01*
X168724Y118709D01*
X168715Y118676D01*
X168655Y118601D01*
X168629Y118510D01*
X168607Y118484D01*
Y118484D01*
X168538Y118245D01*
X168547Y118157D01*
X168543Y118152D01*
X168544Y118151D01*
X168545Y118137D01*
X168534Y118120D01*
X168534Y118120D01*
X168527Y118082D01*
X168543Y118011D01*
X168527Y117921D01*
X168540Y117866D01*
X168540Y117866D01*
X168540Y117866D01*
X168540Y117866D01*
X168546Y117810D01*
X168546Y117810D01*
X168590Y117730D01*
X168598Y117658D01*
X168616Y117624D01*
X168616Y117624D01*
X168632Y117611D01*
X168635Y117598D01*
X168636Y117597D01*
X168641Y117594D01*
X168660Y117507D01*
X168736Y117400D01*
X168736Y117400D01*
X168785Y117368D01*
X168808Y117314D01*
X168893Y117229D01*
X169035Y116886D01*
Y116514D01*
X168893Y116171D01*
X168893Y116171D01*
X168880Y116139D01*
X168819Y116079D01*
X168783Y115991D01*
X168758Y115966D01*
X168746Y115935D01*
X168746Y115935D01*
X168746Y115935D01*
X168724Y115909D01*
X168715Y115876D01*
X168655Y115801D01*
X168629Y115710D01*
X168607Y115684D01*
Y115684D01*
X168538Y115445D01*
X168547Y115357D01*
X168543Y115352D01*
X168544Y115351D01*
X168545Y115337D01*
X168534Y115320D01*
X168534Y115320D01*
X168527Y115282D01*
X168543Y115211D01*
X168527Y115121D01*
X168540Y115066D01*
X168540Y115066D01*
X168540Y115066D01*
X168540Y115066D01*
X168546Y115010D01*
X168546Y115010D01*
X168590Y114930D01*
X168598Y114858D01*
X168616Y114824D01*
X168616Y114824D01*
X168632Y114811D01*
X168635Y114798D01*
X168636Y114797D01*
X168641Y114794D01*
X168660Y114707D01*
X168736Y114600D01*
X168736Y114600D01*
X168785Y114568D01*
X168808Y114514D01*
X168893Y114429D01*
X169035Y114086D01*
Y113714D01*
X168893Y113371D01*
X168630Y113108D01*
X167642Y113078D01*
X167480Y113145D01*
X167433Y113200D01*
X167400Y113217D01*
X167260Y113228D01*
X167249Y113239D01*
X167226Y113248D01*
X167201D01*
X167105Y113288D01*
X167001D01*
X166978Y113298D01*
X166618Y113298D01*
X166499Y113248D01*
X166369D01*
X166149Y113157D01*
X166149D01*
X165686Y112965D01*
X165314D01*
X164971Y113108D01*
X164971Y113108D01*
X164939Y113120D01*
X164879Y113181D01*
X164791Y113217D01*
X164767Y113242D01*
X164735Y113254D01*
X164735Y113254D01*
X164735Y113254D01*
X164709Y113276D01*
X164676Y113285D01*
X164601Y113345D01*
X164511Y113371D01*
X164484Y113393D01*
X164484D01*
X164245Y113462D01*
X164157Y113453D01*
X164152Y113457D01*
X164151Y113456D01*
X164137Y113455D01*
X164120Y113466D01*
X164120Y113466D01*
X164082Y113473D01*
X164011Y113457D01*
X163921Y113472D01*
X163866Y113460D01*
X163866Y113460D01*
X163866Y113460D01*
X163866Y113460D01*
X163810Y113454D01*
X163810Y113454D01*
X163730Y113410D01*
X163658Y113402D01*
X163625Y113384D01*
X163624Y113384D01*
X163611Y113367D01*
X163598Y113365D01*
X163597Y113364D01*
X163594Y113359D01*
X163507Y113340D01*
X163400Y113264D01*
X163400Y113264D01*
X163368Y113215D01*
X163314Y113192D01*
X163230Y113108D01*
X162886Y112965D01*
X162514D01*
X162171Y113108D01*
X162136Y113142D01*
X162129Y113145D01*
X162126Y113152D01*
X162126Y113152D01*
X161893Y113375D01*
X161772Y113422D01*
X161679Y113512D01*
X161556Y113509D01*
X161443Y113556D01*
X161443D01*
X161436Y113553D01*
X161430Y113556D01*
X161430Y113556D01*
X161403Y113544D01*
X161350Y113543D01*
X161297Y113544D01*
X161297Y113544D01*
X161270Y113556D01*
X161165Y113515D01*
X161051Y113523D01*
X161051Y113523D01*
X161038Y113511D01*
X161021Y113512D01*
X160928Y113422D01*
X160807Y113375D01*
X160574Y113152D01*
X160571Y113145D01*
X160564Y113142D01*
X160529Y113108D01*
X160186Y112965D01*
X159814D01*
X159380Y113145D01*
X159333Y113200D01*
X159300Y113217D01*
X159160Y113228D01*
X159149Y113239D01*
X159126Y113248D01*
X159101D01*
X159005Y113288D01*
X158901D01*
X158878Y113298D01*
X158518Y113298D01*
X158399Y113248D01*
X158269D01*
X158049Y113157D01*
X158049D01*
X157586Y112965D01*
X157214D01*
X156780Y113145D01*
X156733Y113200D01*
X156700Y113217D01*
X156560Y113228D01*
X156549Y113239D01*
X156526Y113248D01*
X156501D01*
X156405Y113288D01*
X156301D01*
X156278Y113298D01*
X155918Y113298D01*
X155799Y113248D01*
X155669D01*
X155449Y113157D01*
X155449D01*
X154986Y112965D01*
X154614D01*
X154271Y113108D01*
X154007Y113371D01*
X153865Y113714D01*
Y114086D01*
X154020Y114461D01*
X154081Y114521D01*
X154117Y114609D01*
X154141Y114634D01*
X154154Y114665D01*
X154155Y114665D01*
X154155Y114665D01*
X154176Y114691D01*
X154185Y114724D01*
X154245Y114799D01*
X154271Y114890D01*
X154293Y114916D01*
Y114916D01*
X154362Y115155D01*
X154353Y115243D01*
X154357Y115248D01*
X154356Y115249D01*
X154355Y115263D01*
X154366Y115280D01*
X154366Y115280D01*
X154373Y115318D01*
X154357Y115389D01*
X154373Y115479D01*
X154360Y115534D01*
X154360Y115534D01*
X154360Y115534D01*
X154360Y115534D01*
X154354Y115590D01*
X154354Y115590D01*
X154310Y115670D01*
X154302Y115742D01*
X154284Y115776D01*
X154284Y115776D01*
X154268Y115789D01*
X154264Y115802D01*
X154264Y115803D01*
X154259Y115806D01*
X154240Y115893D01*
X154164Y116000D01*
X154164Y116000D01*
X154115Y116032D01*
X154092Y116086D01*
X154007Y116171D01*
X153865Y116514D01*
Y116886D01*
X154007Y117229D01*
X154007Y117229D01*
X154020Y117261D01*
X154081Y117321D01*
X154117Y117409D01*
X154141Y117434D01*
X154154Y117465D01*
X154155Y117465D01*
X154155Y117465D01*
X154176Y117491D01*
X154185Y117524D01*
X154245Y117599D01*
X154271Y117690D01*
X154293Y117716D01*
Y117716D01*
X154362Y117955D01*
X154353Y118043D01*
X154357Y118048D01*
X154356Y118049D01*
X154355Y118063D01*
X154366Y118080D01*
X154366Y118080D01*
X154373Y118118D01*
X154357Y118189D01*
X154373Y118279D01*
X154360Y118334D01*
X154360Y118334D01*
X154360Y118334D01*
X154360Y118334D01*
X154354Y118390D01*
X154354Y118390D01*
X154310Y118470D01*
X154302Y118542D01*
X154284Y118576D01*
X154284Y118576D01*
X154268Y118589D01*
X154264Y118602D01*
X154264Y118603D01*
X154259Y118606D01*
X154240Y118693D01*
X154164Y118800D01*
X154164Y118800D01*
X154115Y118832D01*
X154092Y118886D01*
X154007Y118971D01*
X153865Y119314D01*
Y119686D01*
X154007Y120029D01*
X154007Y120029D01*
X154020Y120061D01*
X154081Y120121D01*
X154117Y120209D01*
X154141Y120234D01*
X154154Y120265D01*
X154155Y120265D01*
X154155Y120265D01*
X154176Y120291D01*
X154185Y120324D01*
X154245Y120399D01*
X154271Y120490D01*
X154293Y120516D01*
Y120516D01*
X154362Y120755D01*
X154353Y120843D01*
X154357Y120848D01*
X154356Y120849D01*
X154355Y120863D01*
X154366Y120880D01*
X154366Y120880D01*
X154373Y120918D01*
X154357Y120989D01*
X154373Y121079D01*
X154360Y121134D01*
X154360Y121134D01*
X154360Y121134D01*
X154360Y121134D01*
X154354Y121190D01*
X154354Y121190D01*
X154310Y121270D01*
X154302Y121342D01*
X154284Y121376D01*
X154284Y121376D01*
X154268Y121389D01*
X154264Y121402D01*
X154264Y121403D01*
X154259Y121406D01*
X154240Y121493D01*
X154164Y121600D01*
X154164Y121600D01*
X154115Y121632D01*
X154092Y121686D01*
X154007Y121771D01*
X153865Y122114D01*
Y122486D01*
X154007Y122829D01*
X154042Y122864D01*
X154045Y122871D01*
X154052Y122874D01*
X154052Y122874D01*
X154275Y123107D01*
X154322Y123228D01*
X154412Y123321D01*
X154409Y123443D01*
X154456Y123557D01*
Y123557D01*
X154453Y123564D01*
X154456Y123570D01*
X154456Y123571D01*
X154444Y123597D01*
X154443Y123650D01*
X154444Y123703D01*
X154444Y123703D01*
X154456Y123730D01*
X154415Y123835D01*
X154423Y123949D01*
X154423Y123949D01*
X154411Y123962D01*
X154412Y123979D01*
X154322Y124072D01*
X154275Y124193D01*
X154052Y124426D01*
X154045Y124429D01*
X154042Y124436D01*
X154007Y124470D01*
X153865Y124814D01*
Y125186D01*
X154007Y125530D01*
X154270Y125793D01*
X155258Y125822D01*
X155420Y125755D01*
X155467Y125700D01*
X155500Y125683D01*
X155640Y125672D01*
X155651Y125661D01*
X155674Y125652D01*
X155699D01*
X155795Y125612D01*
X155899D01*
X155922Y125602D01*
X156282Y125602D01*
X156401Y125652D01*
X156531D01*
X156751Y125743D01*
X156751D01*
X157214Y125935D01*
X157586D01*
X158020Y125755D01*
X158067Y125700D01*
X158100Y125683D01*
X158240Y125672D01*
X158251Y125661D01*
X158274Y125652D01*
X158299D01*
X158395Y125612D01*
X158499D01*
X158522Y125602D01*
X158882Y125602D01*
X159001Y125652D01*
X159131D01*
X159351Y125743D01*
X159351D01*
X159814Y125935D01*
X160186D01*
X160529Y125793D01*
X160564Y125758D01*
X160571Y125755D01*
X160574Y125748D01*
X160574Y125748D01*
X160807Y125525D01*
X160928Y125478D01*
X161021Y125388D01*
X161144Y125391D01*
X161257Y125344D01*
X161257D01*
X161264Y125347D01*
X161270Y125344D01*
X161270Y125344D01*
X161297Y125356D01*
X161350Y125357D01*
X161403Y125356D01*
X161403Y125356D01*
X161430Y125344D01*
X161535Y125385D01*
X161649Y125377D01*
X161649Y125377D01*
X161662Y125389D01*
X161679Y125388D01*
X161772Y125478D01*
X161893Y125525D01*
X162126Y125748D01*
X162129Y125755D01*
X162136Y125758D01*
X162171Y125793D01*
X162514Y125935D01*
X162886D01*
X163230Y125793D01*
X163230Y125793D01*
X163261Y125780D01*
X163321Y125719D01*
X163409Y125683D01*
X163434Y125659D01*
X163465Y125646D01*
X163465Y125645D01*
X163465Y125645D01*
X163491Y125624D01*
X163524Y125615D01*
X163599Y125555D01*
X163689Y125529D01*
X163716Y125507D01*
X163716D01*
X163955Y125438D01*
X164043Y125447D01*
X164048Y125443D01*
X164049Y125444D01*
X164063Y125445D01*
X164080Y125434D01*
X164081Y125434D01*
X164118Y125427D01*
X164189Y125443D01*
X164279Y125427D01*
X164334Y125440D01*
X164334Y125440D01*
X164334Y125440D01*
X164334Y125440D01*
X164390Y125446D01*
X164390Y125446D01*
X164470Y125490D01*
X164542Y125498D01*
X164576Y125516D01*
X164576Y125516D01*
X164589Y125532D01*
X164602Y125536D01*
X164603Y125536D01*
X164606Y125541D01*
X164693Y125560D01*
X164800Y125636D01*
X164800Y125636D01*
X164831Y125685D01*
X164886Y125708D01*
X164971Y125793D01*
X165314Y125935D01*
X165686D01*
X166120Y125755D01*
X166167Y125700D01*
X166200Y125683D01*
X166340Y125672D01*
X166351Y125661D01*
X166374Y125652D01*
X166399D01*
X166495Y125612D01*
X166599D01*
X166622Y125602D01*
X166982Y125602D01*
X167101Y125652D01*
X167231D01*
X167451Y125743D01*
X167451D01*
X167914Y125935D01*
X168286D01*
X168630Y125793D01*
D02*
G37*
G36*
X192646Y131984D02*
X192791Y131841D01*
X192914Y131678D01*
X192964Y131671D01*
X193000Y131635D01*
X193470Y131446D01*
X193716Y131448D01*
X193962D01*
X194414Y131635D01*
X194786D01*
X195130Y131492D01*
X195393Y131229D01*
X195535Y130886D01*
Y130514D01*
X195393Y130171D01*
X195358Y130136D01*
X195318Y130039D01*
X195238Y129970D01*
X195207Y129910D01*
X195200Y129822D01*
X195151Y129749D01*
X195054Y129289D01*
X195066Y129227D01*
X195041Y129170D01*
X195111Y128990D01*
X195146Y128801D01*
X195198Y128765D01*
X195221Y128707D01*
X195348Y128574D01*
X195355Y128571D01*
X195358Y128564D01*
X195492Y128429D01*
X195635Y128086D01*
Y127714D01*
X195492Y127370D01*
X195492Y127370D01*
X195449Y127327D01*
X195427Y127275D01*
X195378Y127225D01*
X195350Y127158D01*
X195308Y127117D01*
X195308Y127117D01*
X195287Y127064D01*
Y127064D01*
X195287Y127064D01*
X195287Y127064D01*
X195254Y127017D01*
X195242Y126959D01*
X195202Y126899D01*
X195187Y126831D01*
X195155Y126784D01*
X195111Y126575D01*
X195127Y126489D01*
X195119Y126453D01*
X195127Y126411D01*
X195108Y126321D01*
X195124Y126236D01*
X195124Y126236D01*
X195124Y126236D01*
X195131Y126150D01*
X195131Y126150D01*
X195134Y126144D01*
X195172Y126068D01*
X195176Y126026D01*
X195193Y125992D01*
X195199Y125906D01*
X195238Y125830D01*
X195318Y125761D01*
X195358Y125664D01*
X195492Y125530D01*
X195635Y125186D01*
Y124814D01*
X195492Y124470D01*
X195492Y124470D01*
X195449Y124427D01*
X195427Y124374D01*
X195378Y124325D01*
X195350Y124258D01*
X195308Y124217D01*
X195308Y124216D01*
X195287Y124164D01*
Y124164D01*
X195287Y124164D01*
X195287Y124164D01*
X195254Y124117D01*
X195242Y124059D01*
X195202Y123999D01*
X195187Y123931D01*
X195155Y123884D01*
X195111Y123674D01*
X195127Y123590D01*
X195119Y123553D01*
X195127Y123511D01*
X195108Y123421D01*
X195124Y123336D01*
X195124Y123336D01*
X195124Y123336D01*
X195131Y123250D01*
X195131Y123250D01*
X195134Y123244D01*
X195172Y123168D01*
X195176Y123126D01*
X195193Y123092D01*
X195199Y123006D01*
X195238Y122930D01*
X195318Y122861D01*
X195358Y122764D01*
X195492Y122629D01*
X195635Y122286D01*
Y121914D01*
X195492Y121571D01*
X195229Y121308D01*
X194886Y121165D01*
X194514D01*
X194139Y121320D01*
X194079Y121381D01*
X193991Y121417D01*
X193966Y121441D01*
X193935Y121454D01*
X193935Y121455D01*
X193935Y121455D01*
X193909Y121476D01*
X193876Y121485D01*
X193801Y121545D01*
X193710Y121571D01*
X193684Y121593D01*
X193684D01*
X193445Y121662D01*
X193357Y121653D01*
X193352Y121657D01*
X193351Y121656D01*
X193337Y121655D01*
X193320Y121666D01*
X193319Y121666D01*
X193282Y121673D01*
X193211Y121657D01*
X193121Y121672D01*
X193066Y121660D01*
X193066Y121660D01*
X193066Y121660D01*
X193066Y121660D01*
X193010Y121654D01*
X193010Y121654D01*
X192930Y121610D01*
X192858Y121602D01*
X192824Y121584D01*
X192824Y121584D01*
X192811Y121567D01*
X192798Y121564D01*
X192797Y121564D01*
X192794Y121559D01*
X192707Y121540D01*
X192600Y121464D01*
X192600Y121464D01*
X192569Y121415D01*
X192514Y121392D01*
X192429Y121308D01*
X192086Y121165D01*
X191714D01*
X191370Y121308D01*
X191107Y121571D01*
X190965Y121914D01*
Y122286D01*
X191107Y122630D01*
X191107Y122630D01*
X191151Y122673D01*
X191173Y122725D01*
X191222Y122775D01*
X191250Y122842D01*
X191291Y122883D01*
X191292Y122883D01*
X191313Y122936D01*
Y122936D01*
X191313Y122936D01*
X191313Y122936D01*
X191346Y122983D01*
X191358Y123041D01*
X191398Y123101D01*
X191413Y123169D01*
X191445Y123216D01*
X191489Y123425D01*
X191473Y123511D01*
X191481Y123547D01*
X191473Y123589D01*
X191492Y123679D01*
X191476Y123764D01*
X191476Y123764D01*
X191476Y123764D01*
X191469Y123850D01*
X191469Y123850D01*
X191466Y123856D01*
X191428Y123932D01*
X191424Y123974D01*
X191407Y124008D01*
X191401Y124094D01*
X191362Y124170D01*
X191282Y124239D01*
X191242Y124336D01*
X191107Y124470D01*
X190965Y124814D01*
Y125186D01*
X191107Y125530D01*
X191107Y125530D01*
X191151Y125573D01*
X191173Y125626D01*
X191222Y125675D01*
X191250Y125742D01*
X191291Y125783D01*
X191292Y125784D01*
X191313Y125836D01*
Y125836D01*
X191313Y125836D01*
X191313Y125836D01*
X191346Y125883D01*
X191358Y125941D01*
X191398Y126001D01*
X191413Y126069D01*
X191445Y126116D01*
X191489Y126326D01*
X191473Y126410D01*
X191481Y126447D01*
X191473Y126489D01*
X191492Y126579D01*
X191476Y126664D01*
X191476Y126664D01*
X191476Y126664D01*
X191469Y126750D01*
X191469Y126750D01*
X191466Y126756D01*
X191428Y126832D01*
X191424Y126874D01*
X191407Y126908D01*
X191401Y126994D01*
X191362Y127070D01*
X191282Y127139D01*
X191242Y127236D01*
X191107Y127371D01*
X190965Y127714D01*
Y128086D01*
X191107Y128430D01*
X191107Y128430D01*
X191151Y128473D01*
X191173Y128525D01*
X191222Y128575D01*
X191250Y128642D01*
X191291Y128683D01*
X191292Y128683D01*
X191313Y128736D01*
Y128736D01*
X191313Y128736D01*
X191313Y128736D01*
X191346Y128783D01*
X191358Y128841D01*
X191398Y128901D01*
X191413Y128969D01*
X191445Y129016D01*
X191489Y129226D01*
X191473Y129311D01*
X191481Y129347D01*
X191473Y129389D01*
X191492Y129479D01*
X191476Y129564D01*
X191476Y129564D01*
X191476Y129564D01*
X191469Y129650D01*
X191469Y129650D01*
X191466Y129656D01*
X191428Y129732D01*
X191424Y129774D01*
X191407Y129808D01*
X191401Y129894D01*
X191362Y129970D01*
X191282Y130039D01*
X191242Y130136D01*
X191107Y130271D01*
X190965Y130614D01*
Y130986D01*
X191107Y131330D01*
X191242Y131464D01*
X191282Y131561D01*
X191362Y131630D01*
X191394Y131692D01*
X191964Y132017D01*
X191971Y132019D01*
X192131Y132046D01*
X192481Y132061D01*
X192646Y131984D01*
D02*
G37*
G36*
X194829Y72392D02*
X195092Y72129D01*
X195235Y71786D01*
Y71414D01*
X195092Y71070D01*
X195058Y71036D01*
X195055Y71029D01*
X195048Y71026D01*
X195048Y71026D01*
X194825Y70793D01*
X194778Y70672D01*
X194688Y70579D01*
X194691Y70456D01*
X194644Y70343D01*
Y70343D01*
X194647Y70336D01*
X194644Y70330D01*
X194644Y70329D01*
X194656Y70303D01*
X194657Y70250D01*
X194656Y70197D01*
X194656Y70197D01*
X194644Y70170D01*
X194685Y70065D01*
X194677Y69951D01*
X194677Y69951D01*
X194689Y69938D01*
X194688Y69921D01*
X194778Y69828D01*
X194825Y69707D01*
X195048Y69474D01*
X195055Y69471D01*
X195058Y69464D01*
X195092Y69429D01*
X195235Y69086D01*
Y68714D01*
X195092Y68370D01*
X195092Y68370D01*
X195080Y68339D01*
X195019Y68279D01*
X194983Y68191D01*
X194958Y68167D01*
X194946Y68135D01*
X194946Y68135D01*
X194946Y68135D01*
X194924Y68109D01*
X194915Y68076D01*
X194855Y68001D01*
X194829Y67910D01*
X194807Y67884D01*
Y67884D01*
X194738Y67645D01*
X194747Y67557D01*
X194743Y67552D01*
X194744Y67551D01*
X194745Y67537D01*
X194734Y67520D01*
X194734Y67519D01*
X194727Y67482D01*
X194743Y67411D01*
X194728Y67321D01*
X194740Y67266D01*
X194740Y67266D01*
X194740Y67266D01*
X194740Y67266D01*
X194746Y67210D01*
X194746Y67210D01*
X194790Y67130D01*
X194798Y67058D01*
X194816Y67024D01*
X194816Y67024D01*
X194833Y67011D01*
X194835Y66998D01*
X194836Y66997D01*
X194841Y66994D01*
X194860Y66907D01*
X194936Y66800D01*
X194936Y66800D01*
X194985Y66768D01*
X195008Y66714D01*
X195092Y66629D01*
X195235Y66286D01*
Y65914D01*
X195092Y65570D01*
X195092Y65570D01*
X195080Y65539D01*
X195019Y65479D01*
X194983Y65391D01*
X194958Y65367D01*
X194946Y65335D01*
X194946Y65335D01*
X194946Y65335D01*
X194924Y65309D01*
X194915Y65276D01*
X194855Y65201D01*
X194829Y65110D01*
X194807Y65084D01*
Y65084D01*
X194738Y64845D01*
X194747Y64757D01*
X194743Y64752D01*
X194744Y64751D01*
X194745Y64737D01*
X194734Y64720D01*
X194734Y64719D01*
X194727Y64682D01*
X194743Y64611D01*
X194728Y64521D01*
X194740Y64466D01*
X194740Y64466D01*
X194740Y64466D01*
X194740Y64466D01*
X194746Y64410D01*
X194746Y64410D01*
X194790Y64330D01*
X194798Y64258D01*
X194816Y64224D01*
X194816Y64224D01*
X194833Y64211D01*
X194835Y64198D01*
X194836Y64197D01*
X194841Y64194D01*
X194860Y64107D01*
X194936Y64000D01*
X194936Y64000D01*
X194985Y63968D01*
X195008Y63914D01*
X195092Y63829D01*
X195235Y63486D01*
Y63114D01*
X195092Y62770D01*
X195092Y62770D01*
X195080Y62739D01*
X195019Y62679D01*
X194983Y62591D01*
X194958Y62567D01*
X194946Y62535D01*
X194946Y62535D01*
X194946Y62535D01*
X194924Y62509D01*
X194915Y62476D01*
X194855Y62401D01*
X194829Y62310D01*
X194807Y62284D01*
Y62284D01*
X194738Y62045D01*
X194747Y61957D01*
X194743Y61952D01*
X194744Y61951D01*
X194745Y61937D01*
X194734Y61920D01*
X194734Y61919D01*
X194727Y61882D01*
X194743Y61811D01*
X194728Y61721D01*
X194740Y61666D01*
X194740Y61666D01*
X194740Y61666D01*
X194740Y61666D01*
X194746Y61610D01*
X194746Y61610D01*
X194790Y61530D01*
X194798Y61458D01*
X194816Y61424D01*
X194816Y61424D01*
X194833Y61411D01*
X194835Y61398D01*
X194836Y61397D01*
X194841Y61394D01*
X194860Y61307D01*
X194936Y61200D01*
X194936Y61200D01*
X194985Y61168D01*
X195008Y61114D01*
X195092Y61029D01*
X195235Y60686D01*
Y60314D01*
X195092Y59970D01*
X194829Y59707D01*
X194486Y59565D01*
X194114D01*
X193746Y59718D01*
X193746Y59718D01*
X193675Y59747D01*
X193611Y59822D01*
X193582Y59837D01*
X193429Y59849D01*
X193286Y59908D01*
X192714Y59908D01*
X192594Y59859D01*
X192464Y59858D01*
X192463Y59858D01*
X192444Y59839D01*
X192417Y59836D01*
X192389Y59822D01*
X192325Y59747D01*
X192255Y59718D01*
X192255Y59718D01*
X191886Y59565D01*
X191514D01*
X191171Y59707D01*
X191171Y59707D01*
X191139Y59720D01*
X191079Y59781D01*
X190991Y59817D01*
X190966Y59842D01*
X190935Y59854D01*
X190935Y59855D01*
X190935Y59855D01*
X190909Y59876D01*
X190876Y59885D01*
X190801Y59945D01*
X190710Y59971D01*
X190684Y59993D01*
X190684D01*
X190445Y60062D01*
X190357Y60053D01*
X190352Y60057D01*
X190351Y60056D01*
X190337Y60055D01*
X190320Y60066D01*
X190320Y60066D01*
X190282Y60073D01*
X190211Y60057D01*
X190121Y60072D01*
X190066Y60060D01*
X190066Y60060D01*
X190066Y60060D01*
X190066Y60060D01*
X190010Y60054D01*
X190010Y60054D01*
X189930Y60010D01*
X189858Y60002D01*
X189824Y59984D01*
X189824Y59984D01*
X189811Y59967D01*
X189798Y59965D01*
X189797Y59964D01*
X189794Y59959D01*
X189707Y59940D01*
X189600Y59864D01*
X189600Y59864D01*
X189568Y59815D01*
X189514Y59792D01*
X189429Y59707D01*
X189086Y59565D01*
X188714D01*
X188371Y59707D01*
X188336Y59742D01*
X188329Y59745D01*
X188326Y59752D01*
X188093Y59975D01*
X187999Y60012D01*
X187934Y60088D01*
X187933Y60088D01*
X187902Y60090D01*
X187879Y60112D01*
X187750Y60109D01*
X187629Y60156D01*
X187603Y60144D01*
X187550Y60143D01*
X187497Y60144D01*
X187497Y60144D01*
X187470Y60156D01*
X187370Y60117D01*
X187251Y60123D01*
X187238Y60111D01*
X187223Y60112D01*
X187221Y60112D01*
X187128Y60022D01*
X187007Y59975D01*
X187007Y59975D01*
X187000Y59968D01*
X186774Y59752D01*
X186771Y59745D01*
X186764Y59742D01*
X186730Y59707D01*
X186386Y59565D01*
X186014D01*
X185551Y59757D01*
X185545D01*
X185335Y59844D01*
X185206D01*
X185087Y59893D01*
X184713D01*
X184594Y59844D01*
X184465D01*
X184255Y59757D01*
X184249D01*
X183786Y59565D01*
X183414D01*
X182951Y59757D01*
X182945D01*
X182735Y59844D01*
X182606D01*
X182486Y59893D01*
X182114D01*
X181994Y59844D01*
X181865D01*
X181655Y59757D01*
X181649D01*
X181186Y59565D01*
X180814D01*
X180471Y59707D01*
X180208Y59970D01*
X180065Y60314D01*
Y60686D01*
X180220Y61061D01*
X180281Y61121D01*
X180317Y61209D01*
X180341Y61234D01*
X180354Y61265D01*
X180354Y61265D01*
X180354Y61265D01*
X180376Y61291D01*
X180385Y61324D01*
X180445Y61399D01*
X180471Y61489D01*
X180493Y61516D01*
Y61516D01*
X180562Y61755D01*
X180553Y61843D01*
X180557Y61848D01*
X180556Y61849D01*
X180555Y61863D01*
X180566Y61880D01*
X180566Y61880D01*
X180573Y61918D01*
X180557Y61989D01*
X180572Y62079D01*
X180560Y62134D01*
X180560Y62134D01*
X180560Y62134D01*
X180560Y62134D01*
X180554Y62190D01*
X180554Y62190D01*
X180510Y62270D01*
X180502Y62342D01*
X180484Y62375D01*
X180484Y62376D01*
X180467Y62389D01*
X180464Y62402D01*
X180464Y62403D01*
X180459Y62406D01*
X180440Y62493D01*
X180364Y62600D01*
X180364Y62600D01*
X180315Y62631D01*
X180292Y62686D01*
X180208Y62770D01*
X180065Y63114D01*
Y63486D01*
X180208Y63829D01*
X180471Y64092D01*
X180814Y64235D01*
X181186D01*
X181374Y64157D01*
X181467D01*
X181471Y64154D01*
X181472Y64154D01*
X181483D01*
X181496Y64143D01*
X181496Y64143D01*
X181525Y64134D01*
X181587Y64139D01*
X181681Y64110D01*
X181748Y64116D01*
X181748Y64116D01*
X181815D01*
X181906Y64154D01*
X181968Y64154D01*
X181996Y64166D01*
X181996D01*
X182008Y64177D01*
X182019Y64178D01*
X182020Y64178D01*
X182023Y64182D01*
X182116Y64190D01*
X182117Y64190D01*
X182360Y64318D01*
X182360Y64318D01*
X182433Y64405D01*
X182433D01*
X182433Y64405D01*
X182439Y64408D01*
X182440Y64408D01*
X182449Y64420D01*
X182558Y64477D01*
X182558Y64477D01*
X182628Y64561D01*
X182631Y64564D01*
X182631Y64564D01*
X182705Y64650D01*
X182705Y64650D01*
X182706Y64654D01*
X182706Y64654D01*
X182744Y64766D01*
X182754Y64777D01*
Y64777D01*
X182756Y64784D01*
X182756Y64784D01*
X182756Y64784D01*
X182831Y64870D01*
Y64870D01*
X182832Y64874D01*
X182832Y64874D01*
X182828Y64980D01*
X182833Y64995D01*
X182833Y64995D01*
X182831Y65026D01*
X182862Y65121D01*
X182862Y65121D01*
X182864Y65126D01*
X182864Y65126D01*
X182857Y65224D01*
Y65322D01*
X182857Y65322D01*
X182817Y65419D01*
Y65450D01*
X182817Y65450D01*
X182808Y65472D01*
X182808Y65472D01*
X182808Y65472D01*
Y65570D01*
X182808Y65570D01*
X182806Y65573D01*
X182665Y65914D01*
Y66286D01*
X182808Y66629D01*
X182808Y66629D01*
X182820Y66661D01*
X182881Y66721D01*
X182917Y66809D01*
X182941Y66834D01*
X182954Y66865D01*
X182955Y66865D01*
X182955Y66865D01*
X182976Y66891D01*
X182985Y66924D01*
X183045Y66999D01*
X183071Y67089D01*
X183093Y67116D01*
Y67116D01*
X183162Y67355D01*
X183153Y67443D01*
X183157Y67448D01*
X183156Y67449D01*
X183155Y67463D01*
X183166Y67480D01*
X183166Y67480D01*
X183173Y67518D01*
X183157Y67589D01*
X183173Y67679D01*
X183160Y67734D01*
X183160Y67734D01*
X183160Y67734D01*
X183160Y67734D01*
X183154Y67790D01*
X183154Y67790D01*
X183110Y67870D01*
X183102Y67942D01*
X183084Y67975D01*
X183084Y67976D01*
X183068Y67989D01*
X183064Y68002D01*
X183064Y68003D01*
X183059Y68006D01*
X183040Y68093D01*
X182964Y68200D01*
X182964Y68200D01*
X182915Y68231D01*
X182892Y68286D01*
X182808Y68370D01*
X182665Y68714D01*
Y69086D01*
X182808Y69429D01*
X182842Y69464D01*
X182845Y69471D01*
X182852Y69474D01*
X182852Y69474D01*
X183075Y69707D01*
X183122Y69828D01*
X183212Y69921D01*
X183209Y70043D01*
X183256Y70157D01*
Y70157D01*
X183253Y70164D01*
X183256Y70170D01*
X183256Y70170D01*
X183244Y70197D01*
X183243Y70250D01*
X183244Y70303D01*
X183244Y70303D01*
X183256Y70329D01*
X183215Y70435D01*
X183223Y70549D01*
X183223Y70549D01*
X183211Y70562D01*
X183212Y70579D01*
X183122Y70672D01*
X183075Y70793D01*
X182852Y71026D01*
X182845Y71029D01*
X182842Y71036D01*
X182808Y71070D01*
X182665Y71414D01*
Y71786D01*
X182808Y72129D01*
X183070Y72392D01*
X184058Y72422D01*
X184220Y72355D01*
X184267Y72300D01*
X184300Y72283D01*
X184440Y72272D01*
X184451Y72261D01*
X184474Y72252D01*
X184499D01*
X184595Y72212D01*
X184699D01*
X184722Y72202D01*
X185082Y72202D01*
X185201Y72252D01*
X185331D01*
X185551Y72343D01*
X185551D01*
X186014Y72535D01*
X186386D01*
X186730Y72392D01*
X186764Y72358D01*
X186771Y72355D01*
X186774Y72348D01*
X186774Y72348D01*
X187007Y72125D01*
X187128Y72078D01*
X187221Y71988D01*
X187344Y71991D01*
X187457Y71944D01*
X187457D01*
X187464Y71947D01*
X187470Y71944D01*
X187470Y71944D01*
X187497Y71956D01*
X187550Y71957D01*
X187603Y71956D01*
X187603Y71956D01*
X187629Y71944D01*
X187735Y71985D01*
X187849Y71977D01*
X187849Y71977D01*
X187862Y71989D01*
X187879Y71988D01*
X187972Y72078D01*
X188093Y72125D01*
X188326Y72348D01*
X188329Y72355D01*
X188336Y72358D01*
X188371Y72392D01*
X188714Y72535D01*
X189086D01*
X189429Y72392D01*
X189429Y72392D01*
X189461Y72380D01*
X189521Y72319D01*
X189609Y72283D01*
X189634Y72259D01*
X189665Y72246D01*
X189665Y72246D01*
X189665Y72246D01*
X189691Y72224D01*
X189724Y72215D01*
X189799Y72155D01*
X189890Y72129D01*
X189916Y72107D01*
X189916D01*
X190155Y72038D01*
X190243Y72047D01*
X190248Y72043D01*
X190249Y72044D01*
X190263Y72045D01*
X190280Y72034D01*
X190280Y72034D01*
X190318Y72027D01*
X190389Y72043D01*
X190479Y72027D01*
X190534Y72040D01*
X190534Y72040D01*
X190534Y72040D01*
X190534Y72040D01*
X190590Y72046D01*
X190590Y72046D01*
X190670Y72090D01*
X190742Y72098D01*
X190776Y72116D01*
X190776Y72116D01*
X190789Y72132D01*
X190802Y72136D01*
X190803Y72136D01*
X190806Y72141D01*
X190893Y72160D01*
X191000Y72236D01*
X191000Y72236D01*
X191032Y72285D01*
X191086Y72308D01*
X191171Y72392D01*
X191514Y72535D01*
X191886D01*
X192320Y72355D01*
X192367Y72300D01*
X192400Y72283D01*
X192540Y72272D01*
X192551Y72261D01*
X192574Y72252D01*
X192599D01*
X192695Y72212D01*
X192799D01*
X192822Y72202D01*
X193182Y72202D01*
X193301Y72252D01*
X193431D01*
X193651Y72343D01*
X193651D01*
X194114Y72535D01*
X194486D01*
X194829Y72392D01*
D02*
G37*
%LPC*%
G36*
X98715Y155384D02*
X98085D01*
X97503Y155143D01*
X97057Y154697D01*
X96816Y154115D01*
Y153485D01*
X97057Y152903D01*
X97503Y152457D01*
X98085Y152216D01*
X98715D01*
X99297Y152457D01*
X99890Y152806D01*
X100458Y152432D01*
X101040Y152190D01*
X101670D01*
X102253Y152432D01*
X102698Y152877D01*
X102939Y153460D01*
Y154090D01*
X102698Y154672D01*
X102253Y155118D01*
X101670Y155359D01*
X101040D01*
X100458Y155118D01*
X99865Y154769D01*
X99297Y155143D01*
X98715Y155384D01*
D02*
G37*
G36*
X79215Y152284D02*
X78585D01*
X78003Y152043D01*
X77557Y151597D01*
X77316Y151015D01*
Y150731D01*
X76917Y150533D01*
X76316Y150425D01*
X75997Y150743D01*
X75415Y150984D01*
X74785D01*
X74203Y150743D01*
X73757Y150297D01*
X73516Y149715D01*
Y149085D01*
X73757Y148503D01*
X74203Y148057D01*
X74785Y147816D01*
X75415D01*
X76081Y147881D01*
X76357Y147303D01*
X76803Y146857D01*
X77385Y146616D01*
X78015D01*
X78597Y146857D01*
X79043Y147303D01*
X79284Y147885D01*
Y148154D01*
X80284Y148475D01*
X80503Y148257D01*
X81085Y148016D01*
X81715D01*
X82297Y148257D01*
X82743Y148703D01*
X82984Y149285D01*
Y149915D01*
X82743Y150497D01*
X82297Y150943D01*
X81715Y151184D01*
X81085D01*
X80484Y151015D01*
X80243Y151597D01*
X79797Y152043D01*
X79215Y152284D01*
D02*
G37*
G36*
X90315Y156084D02*
X89685D01*
X89103Y155843D01*
X88657Y155397D01*
X88416Y154815D01*
Y154185D01*
X88657Y153603D01*
X89103Y153157D01*
X89395Y153036D01*
X89685Y152916D01*
X89685Y152916D01*
X89732Y152876D01*
X89660Y151767D01*
X89603Y151743D01*
X89603Y151743D01*
X89563Y151704D01*
X89157Y151297D01*
X88916Y150715D01*
Y150085D01*
X89157Y149503D01*
X89603Y149057D01*
X90185Y148816D01*
X90815D01*
X91397Y149057D01*
X91843Y149503D01*
X92084Y150085D01*
Y150715D01*
X91843Y151297D01*
X91397Y151743D01*
X91105Y151864D01*
X90815Y151984D01*
X90815Y151984D01*
X90768Y152024D01*
X90840Y153133D01*
X90897Y153157D01*
X90897Y153157D01*
X90937Y153196D01*
X91343Y153603D01*
X91584Y154185D01*
Y154815D01*
X91343Y155397D01*
X90897Y155843D01*
X90315Y156084D01*
D02*
G37*
G36*
X23615Y112084D02*
X22985D01*
X22403Y111843D01*
X21957Y111397D01*
X21716Y110815D01*
Y110185D01*
X21957Y109603D01*
X22403Y109157D01*
X22985Y108916D01*
X23615D01*
X24197Y109157D01*
X24643Y109603D01*
X24884Y110185D01*
Y110815D01*
X24643Y111397D01*
X24197Y111843D01*
X23615Y112084D01*
D02*
G37*
G36*
X43115Y112584D02*
X42485D01*
X41903Y112343D01*
X41457Y111897D01*
X41216Y111315D01*
Y110685D01*
X41457Y110103D01*
X41903Y109657D01*
X42332Y109479D01*
X42459Y108935D01*
X42432Y108438D01*
X42203Y108343D01*
X41757Y107897D01*
X41613Y107549D01*
X41020Y107219D01*
X40516Y107121D01*
X40122Y107284D01*
X39492D01*
X38910Y107043D01*
X38464Y106597D01*
X38223Y106015D01*
Y105385D01*
X38464Y104803D01*
X38910Y104357D01*
X39492Y104116D01*
X40122D01*
X40704Y104357D01*
X41150Y104803D01*
X41294Y105151D01*
X41887Y105481D01*
X42391Y105579D01*
X42785Y105416D01*
X43415D01*
X43997Y105657D01*
X44443Y106103D01*
X44684Y106685D01*
X44773Y107327D01*
X45415Y107416D01*
X45997Y107657D01*
X46443Y108103D01*
X46684Y108685D01*
Y109315D01*
X46443Y109897D01*
X45997Y110343D01*
X45415Y110584D01*
X45308D01*
X44752Y110645D01*
X44384Y111315D01*
X44143Y111897D01*
X43697Y112343D01*
X43115Y112584D01*
D02*
G37*
G36*
X25315Y105984D02*
X24685D01*
X24103Y105743D01*
X23657Y105297D01*
X23416Y104715D01*
Y104085D01*
X23657Y103503D01*
X24103Y103057D01*
X24685Y102816D01*
X25315D01*
X25897Y103057D01*
X26343Y103503D01*
X26584Y104085D01*
Y104715D01*
X26343Y105297D01*
X25897Y105743D01*
X25315Y105984D01*
D02*
G37*
G36*
X51315Y102784D02*
X50685D01*
X50103Y102543D01*
X49657Y102097D01*
X49416Y101515D01*
Y100885D01*
X49657Y100303D01*
X50103Y99857D01*
X50685Y99616D01*
X51315D01*
X51897Y99857D01*
X52343Y100303D01*
X52584Y100885D01*
Y101515D01*
X52343Y102097D01*
X51897Y102543D01*
X51315Y102784D01*
D02*
G37*
G36*
X18815Y106484D02*
X18185D01*
X17603Y106243D01*
X17157Y105797D01*
X16916Y105215D01*
Y104585D01*
X17157Y104003D01*
X17560Y103600D01*
X17157Y103197D01*
X16916Y102615D01*
Y101985D01*
X17157Y101403D01*
X17560Y101000D01*
X17157Y100597D01*
X16916Y100015D01*
Y99385D01*
X17157Y98803D01*
X17603Y98357D01*
X18185Y98116D01*
X18815D01*
X19397Y98357D01*
X19843Y98803D01*
X20084Y99385D01*
Y100015D01*
X19843Y100597D01*
X19441Y101000D01*
X19843Y101403D01*
X20084Y101985D01*
Y102615D01*
X19843Y103197D01*
X19441Y103600D01*
X19843Y104003D01*
X20084Y104585D01*
Y105215D01*
X19843Y105797D01*
X19397Y106243D01*
X18815Y106484D01*
D02*
G37*
G36*
X25415Y100484D02*
X24785D01*
X24203Y100243D01*
X23757Y99797D01*
X23516Y99215D01*
Y98585D01*
X23757Y98003D01*
X24203Y97557D01*
X24785Y97316D01*
X25415D01*
X25997Y97557D01*
X26443Y98003D01*
X26684Y98585D01*
Y99215D01*
X26443Y99797D01*
X25997Y100243D01*
X25415Y100484D01*
D02*
G37*
G36*
X40122Y93884D02*
X39492D01*
X38910Y93643D01*
X38464Y93197D01*
X38223Y92615D01*
Y91985D01*
X38464Y91403D01*
X38910Y90957D01*
X39492Y90716D01*
X40122D01*
X40704Y90957D01*
X41150Y91403D01*
X41391Y91985D01*
Y92615D01*
X41150Y93197D01*
X40704Y93643D01*
X40122Y93884D01*
D02*
G37*
G36*
X25215Y92184D02*
X24585D01*
X24003Y91943D01*
X23557Y91497D01*
X23316Y90915D01*
Y90285D01*
X23557Y89703D01*
X24003Y89257D01*
X24585Y89016D01*
X25215D01*
X25797Y89257D01*
X26243Y89703D01*
X26484Y90285D01*
Y90915D01*
X26243Y91497D01*
X25797Y91943D01*
X25215Y92184D01*
D02*
G37*
G36*
X109015Y88084D02*
X108385D01*
X107803Y87843D01*
X107357Y87397D01*
X107116Y86815D01*
Y86185D01*
X107357Y85603D01*
X107803Y85157D01*
X108385Y84916D01*
X109015D01*
X109597Y85157D01*
X110043Y85603D01*
X110284Y86185D01*
Y86815D01*
X110043Y87397D01*
X109597Y87843D01*
X109015Y88084D01*
D02*
G37*
G36*
X53015Y92184D02*
X52385D01*
X51803Y91943D01*
X51357Y91497D01*
X51116Y90915D01*
Y90285D01*
X51212Y90054D01*
X51250Y89550D01*
X50773Y88872D01*
X50703Y88843D01*
X50257Y88397D01*
X50016Y87815D01*
Y87185D01*
X50257Y86603D01*
X50703Y86157D01*
X51285Y85916D01*
X51915D01*
X52487Y85070D01*
X52557Y84903D01*
X53003Y84457D01*
X53585Y84216D01*
X54215D01*
X54797Y84457D01*
X55243Y84903D01*
X55484Y85485D01*
Y86115D01*
X55243Y86697D01*
X54797Y87143D01*
X54215Y87384D01*
X53585D01*
X53083Y88126D01*
X53050Y88550D01*
X53527Y89228D01*
X53597Y89257D01*
X54043Y89703D01*
X54284Y90285D01*
Y90915D01*
X54043Y91497D01*
X53597Y91943D01*
X53015Y92184D01*
D02*
G37*
G36*
X18615Y83884D02*
X17985D01*
X17403Y83643D01*
X16497D01*
X16214Y83761D01*
X15915Y83884D01*
X15285D01*
X14703Y83643D01*
X14257Y83197D01*
X14016Y82615D01*
Y81985D01*
X14257Y81403D01*
X14703Y80957D01*
X15285Y80716D01*
X15915D01*
X16497Y80957D01*
X17403D01*
X17686Y80839D01*
X17985Y80716D01*
X18615D01*
X19197Y80957D01*
X19643Y81403D01*
X19884Y81985D01*
Y82615D01*
X19643Y83197D01*
X19197Y83643D01*
X18615Y83884D01*
D02*
G37*
G36*
X103015Y86484D02*
X102385D01*
X101803Y86243D01*
X101357Y85797D01*
X101116Y85215D01*
Y84585D01*
X101357Y84003D01*
X101803Y83557D01*
X102385Y83316D01*
X103015D01*
X103597Y83557D01*
X104043Y84003D01*
X104284Y84585D01*
Y85215D01*
X104043Y85797D01*
X103597Y86243D01*
X103015Y86484D01*
D02*
G37*
G36*
X31415Y82784D02*
X30785D01*
X30203Y82543D01*
X29757Y82097D01*
X29516Y81515D01*
Y80885D01*
X29757Y80303D01*
X30203Y79857D01*
X30785Y79616D01*
X31415D01*
X31997Y79857D01*
X32443Y80303D01*
X32684Y80885D01*
Y81515D01*
X32443Y82097D01*
X31997Y82543D01*
X31415Y82784D01*
D02*
G37*
G36*
X40122Y79584D02*
X39492D01*
X38910Y79343D01*
X38464Y78897D01*
X38223Y78315D01*
Y77685D01*
X38464Y77103D01*
X38910Y76657D01*
X39492Y76416D01*
X40122D01*
X40704Y76657D01*
X41150Y77103D01*
X41391Y77685D01*
Y78315D01*
X41150Y78897D01*
X40704Y79343D01*
X40122Y79584D01*
D02*
G37*
G36*
X17140Y72657D02*
X16286D01*
X16245Y72640D01*
X16202Y72649D01*
X15365Y72482D01*
X15328Y72458D01*
X15284D01*
X14496Y72131D01*
X14465Y72100D01*
X14421Y72091D01*
X13712Y71617D01*
X13687Y71580D01*
X13646Y71564D01*
X13043Y70960D01*
X13026Y70919D01*
X12989Y70895D01*
X12515Y70185D01*
X12506Y70142D01*
X12475Y70110D01*
X12149Y69322D01*
Y69278D01*
X12124Y69241D01*
X11958Y68405D01*
X11966Y68361D01*
X11949Y68320D01*
Y67467D01*
X11966Y67426D01*
X11958Y67383D01*
X12124Y66546D01*
X12149Y66509D01*
Y66465D01*
X12475Y65676D01*
X12506Y65645D01*
X12515Y65602D01*
X12989Y64892D01*
X13026Y64868D01*
X13043Y64827D01*
X13646Y64223D01*
X13687Y64206D01*
X13712Y64170D01*
X14421Y63696D01*
X14465Y63687D01*
X14496Y63656D01*
X15284Y63329D01*
X15328D01*
X15365Y63305D01*
X16202Y63138D01*
X16245Y63147D01*
X16286Y63130D01*
X17140D01*
X17180Y63147D01*
X17224Y63138D01*
X18061Y63305D01*
X18098Y63329D01*
X18142D01*
X18930Y63656D01*
X18961Y63687D01*
X19005Y63696D01*
X19714Y64170D01*
X19739Y64206D01*
X19780Y64223D01*
X20383Y64827D01*
X20400Y64868D01*
X20437Y64892D01*
X20911Y65602D01*
X20919Y65645D01*
X20951Y65676D01*
X21277Y66465D01*
Y66509D01*
X21302Y66546D01*
X21468Y67383D01*
X21460Y67426D01*
X21477Y67467D01*
Y68320D01*
X21460Y68361D01*
X21468Y68405D01*
X21302Y69241D01*
X21277Y69278D01*
Y69322D01*
X20951Y70110D01*
X20919Y70142D01*
X20911Y70185D01*
X20437Y70895D01*
X20400Y70919D01*
X20383Y70960D01*
X19780Y71564D01*
X19739Y71580D01*
X19714Y71617D01*
X19005Y72091D01*
X18961Y72100D01*
X18930Y72131D01*
X18142Y72458D01*
X18098D01*
X18061Y72482D01*
X17224Y72649D01*
X17180Y72640D01*
X17140Y72657D01*
D02*
G37*
G36*
X30315Y75684D02*
X29685D01*
X29103Y75443D01*
X28657Y74997D01*
X28416Y74415D01*
Y73785D01*
X28657Y73203D01*
X29103Y72757D01*
X29685Y72516D01*
X30315D01*
X30897Y72757D01*
X31343Y73203D01*
X31584Y73785D01*
Y74415D01*
X31343Y74997D01*
X30897Y75443D01*
X30315Y75684D01*
D02*
G37*
G36*
X44215Y73084D02*
X43585D01*
X43003Y72843D01*
X42557Y72397D01*
X42316Y71815D01*
Y71185D01*
X42557Y70603D01*
X43003Y70157D01*
X43585Y69916D01*
X44215D01*
X44797Y70157D01*
X45243Y70603D01*
X45484Y71185D01*
Y71815D01*
X45243Y72397D01*
X44797Y72843D01*
X44215Y73084D01*
D02*
G37*
G36*
X56515Y70684D02*
X55885D01*
X55303Y70443D01*
X54857Y69997D01*
X54616Y69415D01*
Y68785D01*
X54857Y68203D01*
X55303Y67757D01*
X55885Y67516D01*
X56515D01*
X57097Y67757D01*
X57543Y68203D01*
X57784Y68785D01*
Y69415D01*
X57543Y69997D01*
X57097Y70443D01*
X56515Y70684D01*
D02*
G37*
G36*
X29615Y68884D02*
X28985D01*
X28403Y68643D01*
X27957Y68197D01*
X27716Y67615D01*
Y66985D01*
X27957Y66403D01*
X28403Y65957D01*
X28985Y65716D01*
X29615D01*
X30197Y65957D01*
X30643Y66403D01*
X30884Y66985D01*
Y67615D01*
X30643Y68197D01*
X30197Y68643D01*
X29615Y68884D01*
D02*
G37*
G36*
X63015Y63884D02*
X62385D01*
X61803Y63643D01*
X61357Y63197D01*
X61116Y62615D01*
Y61985D01*
X61357Y61403D01*
X61803Y60957D01*
X62385Y60716D01*
X63015D01*
X63597Y60957D01*
X64043Y61403D01*
X64284Y61985D01*
Y62615D01*
X64043Y63197D01*
X63597Y63643D01*
X63015Y63884D01*
D02*
G37*
G36*
X30715Y61984D02*
X30085D01*
X29503Y61743D01*
X29057Y61297D01*
X28816Y60715D01*
Y60085D01*
X29057Y59503D01*
X29503Y59057D01*
X30085Y58816D01*
X30715D01*
X31297Y59057D01*
X31743Y59503D01*
X31984Y60085D01*
Y60715D01*
X31743Y61297D01*
X31297Y61743D01*
X30715Y61984D01*
D02*
G37*
G36*
X156315Y81284D02*
X155685D01*
X155103Y81043D01*
X154657Y80597D01*
X154416Y80015D01*
Y79385D01*
X154657Y78803D01*
X155103Y78357D01*
X155184Y78323D01*
Y75138D01*
X128662Y48616D01*
X112877D01*
X112843Y48697D01*
X112397Y49143D01*
X111815Y49384D01*
X111185D01*
X110603Y49143D01*
X110157Y48697D01*
X109916Y48115D01*
Y47485D01*
X110157Y46903D01*
X110603Y46457D01*
X111185Y46216D01*
X111815D01*
X112397Y46457D01*
X112843Y46903D01*
X112877Y46984D01*
X129000D01*
X129000Y46984D01*
X129312Y47046D01*
X129577Y47223D01*
X156577Y74223D01*
X156577Y74223D01*
X156754Y74488D01*
X156816Y74800D01*
X156816Y74800D01*
Y78323D01*
X156897Y78357D01*
X157343Y78803D01*
X157584Y79385D01*
Y80015D01*
X157343Y80597D01*
X156897Y81043D01*
X156315Y81284D01*
D02*
G37*
G36*
X77815Y53384D02*
X77185D01*
X76603Y53143D01*
X76157Y52697D01*
X75916Y52115D01*
Y51485D01*
X76157Y50903D01*
X76603Y50457D01*
X77185Y50216D01*
X77815Y50215D01*
X77916Y49585D01*
X78157Y49003D01*
X78603Y48557D01*
X79185Y48316D01*
X79815D01*
X80397Y48557D01*
X80843Y49003D01*
X81084Y49585D01*
Y50215D01*
X80843Y50797D01*
X80397Y51243D01*
X79815Y51484D01*
X79185Y51485D01*
X79084Y52115D01*
X78843Y52697D01*
X78397Y53143D01*
X77815Y53384D01*
D02*
G37*
G36*
X84220Y37616D02*
X83590D01*
X83007Y37375D01*
X82562Y36929D01*
X82321Y36347D01*
Y35717D01*
X82562Y35134D01*
X83007Y34689D01*
X83590Y34447D01*
X84220D01*
X84802Y34689D01*
X85248Y35134D01*
X85489Y35717D01*
Y36347D01*
X85248Y36929D01*
X84802Y37375D01*
X84220Y37616D01*
D02*
G37*
G36*
X138259Y19479D02*
X137406D01*
X137365Y19463D01*
X137322Y19471D01*
X136485Y19305D01*
X136448Y19280D01*
X136404D01*
X135616Y18954D01*
X135584Y18922D01*
X135541Y18914D01*
X134832Y18440D01*
X134807Y18403D01*
X134766Y18386D01*
X134163Y17783D01*
X134146Y17742D01*
X134109Y17717D01*
X133635Y17008D01*
X133626Y16964D01*
X133595Y16933D01*
X133268Y16145D01*
Y16100D01*
X133244Y16063D01*
X133077Y15227D01*
X133086Y15183D01*
X133069Y15142D01*
Y14289D01*
X133086Y14248D01*
X133077Y14205D01*
X133244Y13368D01*
X133268Y13331D01*
Y13287D01*
X133595Y12499D01*
X133626Y12467D01*
X133635Y12424D01*
X134109Y11715D01*
X134146Y11690D01*
X134163Y11649D01*
X134766Y11046D01*
X134807Y11029D01*
X134832Y10992D01*
X135541Y10518D01*
X135584Y10509D01*
X135616Y10478D01*
X136404Y10152D01*
X136448D01*
X136485Y10127D01*
X137322Y9960D01*
X137365Y9969D01*
X137406Y9952D01*
X138259D01*
X138300Y9969D01*
X138344Y9960D01*
X139180Y10127D01*
X139217Y10152D01*
X139262D01*
X140050Y10478D01*
X140081Y10509D01*
X140125Y10518D01*
X140834Y10992D01*
X140858Y11029D01*
X140900Y11046D01*
X141503Y11649D01*
X141520Y11690D01*
X141557Y11715D01*
X142031Y12424D01*
X142039Y12467D01*
X142070Y12499D01*
X142397Y13287D01*
Y13331D01*
X142422Y13368D01*
X142588Y14205D01*
X142579Y14248D01*
X142596Y14289D01*
Y15142D01*
X142579Y15183D01*
X142588Y15227D01*
X142422Y16063D01*
X142397Y16100D01*
Y16145D01*
X142070Y16933D01*
X142039Y16964D01*
X142031Y17008D01*
X141557Y17717D01*
X141520Y17742D01*
X141503Y17783D01*
X140900Y18386D01*
X140858Y18403D01*
X140834Y18440D01*
X140125Y18914D01*
X140081Y18922D01*
X140050Y18954D01*
X139262Y19280D01*
X139217D01*
X139180Y19305D01*
X138344Y19471D01*
X138300Y19463D01*
X138259Y19479D01*
D02*
G37*
%LPD*%
G36*
X156596Y78904D02*
X156322Y78594D01*
X156278Y78531D01*
X156244Y78475D01*
X156220Y78425D01*
X156205Y78381D01*
X156200Y78343D01*
X155800D01*
X155795Y78381D01*
X155780Y78425D01*
X155756Y78475D01*
X155722Y78531D01*
X155678Y78594D01*
X155560Y78737D01*
X155404Y78904D01*
X155311Y78997D01*
X156689D01*
X156596Y78904D01*
D02*
G37*
G36*
X112296Y48396D02*
X112606Y48122D01*
X112669Y48078D01*
X112725Y48044D01*
X112775Y48020D01*
X112819Y48005D01*
X112857Y48000D01*
Y47600D01*
X112819Y47595D01*
X112775Y47580D01*
X112725Y47556D01*
X112669Y47522D01*
X112606Y47478D01*
X112463Y47360D01*
X112296Y47204D01*
X112203Y47111D01*
Y48489D01*
X112296Y48396D01*
D02*
G37*
D74*
X129000Y47800D02*
X156000Y74800D01*
X111500Y47800D02*
X129000D01*
X156000Y74800D02*
Y79700D01*
X64500Y74000D02*
Y105800D01*
X65700Y107000D01*
Y114600D01*
X63600Y73769D02*
Y106100D01*
X64900Y107400D01*
Y112900D01*
X64500Y74000D02*
X94837Y43663D01*
X63600Y73769D02*
X93000Y44369D01*
X64400Y115900D02*
X65700Y114600D01*
X63900Y113900D02*
X64900Y112900D01*
X63000Y115900D02*
X64400D01*
X61500Y113900D02*
X63900D01*
X61900Y78200D02*
Y78360D01*
X95800Y144600D02*
X96000Y144400D01*
X59200Y83300D02*
X61900Y80600D01*
X58400Y81859D02*
Y120300D01*
Y81859D02*
X61900Y78360D01*
X59200Y83300D02*
Y119900D01*
X84500Y146400D02*
X97400D01*
X58400Y120300D02*
X84500Y146400D01*
X97934Y145866D02*
X99434D01*
X97400Y146400D02*
X97934Y145866D01*
X59200Y119900D02*
X83900Y144600D01*
X95800D01*
X93000Y33140D02*
Y44369D01*
X92981Y33121D02*
X93000Y33140D01*
X94837Y34935D02*
Y43663D01*
Y34935D02*
X94930Y34842D01*
D78*
X149300Y17000D02*
D03*
X152000D02*
D03*
X154800D02*
D03*
X157400D02*
D03*
X149300Y19800D02*
D03*
X152000D02*
D03*
X154800D02*
D03*
X157400D02*
D03*
X149300Y22600D02*
D03*
X152000D02*
D03*
X154800D02*
D03*
X157400D02*
D03*
X62700Y62300D02*
D03*
X51500Y72300D02*
D03*
X56200Y69100D02*
D03*
X93600Y154000D02*
D03*
X110500Y95600D02*
D03*
X108500Y94000D02*
D03*
X106800Y95700D02*
D03*
X79500Y49900D02*
D03*
X83200Y48900D02*
D03*
X102200Y29800D02*
D03*
X66200Y39200D02*
D03*
X156600Y91100D02*
D03*
X137500Y43600D02*
D03*
X118700Y41300D02*
D03*
X116200D02*
D03*
X113700D02*
D03*
X111100D02*
D03*
X108700D02*
D03*
X118600Y43800D02*
D03*
X116100D02*
D03*
X113600D02*
D03*
X111100D02*
D03*
X108600D02*
D03*
X111500Y47800D02*
D03*
X156000Y79700D02*
D03*
X142500Y55000D02*
D03*
X61900Y103600D02*
D03*
Y91100D02*
D03*
Y88500D02*
D03*
Y78200D02*
D03*
Y80600D02*
D03*
X63130Y108172D02*
D03*
X63200Y112000D02*
D03*
X63000Y115900D02*
D03*
Y119800D02*
D03*
X61700Y93700D02*
D03*
Y98700D02*
D03*
Y96200D02*
D03*
X144400Y57100D02*
D03*
X146400Y59000D02*
D03*
X148400Y61000D02*
D03*
X166800Y54300D02*
D03*
X166000Y47800D02*
D03*
X163200D02*
D03*
X160500D02*
D03*
X157900D02*
D03*
X144000Y48100D02*
D03*
X142100Y46300D02*
D03*
X140200Y44400D02*
D03*
X131900Y43400D02*
D03*
X131600Y24100D02*
D03*
X102600Y16800D02*
D03*
X80400Y16700D02*
D03*
X93800Y16800D02*
D03*
X91200D02*
D03*
X88400D02*
D03*
X85700D02*
D03*
X83100D02*
D03*
X93800Y14000D02*
D03*
X91200D02*
D03*
X88400D02*
D03*
X85700D02*
D03*
X83100D02*
D03*
X80500D02*
D03*
X93800Y11200D02*
D03*
X91200D02*
D03*
X88400D02*
D03*
X85700D02*
D03*
X83100D02*
D03*
X80500D02*
D03*
X116100Y16800D02*
D03*
X113500D02*
D03*
X110700D02*
D03*
X108000D02*
D03*
X105400D02*
D03*
X116100Y14000D02*
D03*
X113500D02*
D03*
X110700D02*
D03*
X108000D02*
D03*
X105400D02*
D03*
X102800D02*
D03*
X116100Y11200D02*
D03*
X113500D02*
D03*
X110700D02*
D03*
X108000D02*
D03*
X105400D02*
D03*
X102800D02*
D03*
X169000Y140100D02*
D03*
X174500Y79100D02*
D03*
X96000Y144600D02*
D03*
X99400Y145800D02*
D03*
X15600Y82300D02*
D03*
X18300D02*
D03*
X30400Y60400D02*
D03*
X147900Y92500D02*
D03*
X194700Y122100D02*
D03*
Y125000D02*
D03*
Y127900D02*
D03*
X194600Y130700D02*
D03*
X191900Y122100D02*
D03*
Y125000D02*
D03*
Y127900D02*
D03*
Y130800D02*
D03*
Y133700D02*
D03*
X176600Y116200D02*
D03*
X179800Y124400D02*
D03*
Y130900D02*
D03*
X162700Y125000D02*
D03*
X168100Y116700D02*
D03*
X154900Y128800D02*
D03*
X160000Y125000D02*
D03*
X160100Y131600D02*
D03*
X165600Y134300D02*
D03*
Y128800D02*
D03*
X168200Y134300D02*
D03*
X162800Y128800D02*
D03*
Y131600D02*
D03*
X154800Y119500D02*
D03*
X162700D02*
D03*
Y116700D02*
D03*
X165500Y113900D02*
D03*
X157400Y119500D02*
D03*
X165500Y125000D02*
D03*
X160000Y122300D02*
D03*
X154800Y125000D02*
D03*
X157400Y113900D02*
D03*
Y125000D02*
D03*
X168100Y119500D02*
D03*
X160100Y128800D02*
D03*
X157500Y131600D02*
D03*
X165600D02*
D03*
X154900Y134300D02*
D03*
X154800Y116700D02*
D03*
X154900Y131600D02*
D03*
X162800Y134300D02*
D03*
X157400Y122300D02*
D03*
X168100D02*
D03*
X160000Y116700D02*
D03*
X168200Y128800D02*
D03*
X162700Y113900D02*
D03*
X160100Y134300D02*
D03*
X162700Y122300D02*
D03*
X154800Y113900D02*
D03*
X168200Y131600D02*
D03*
X154800Y122300D02*
D03*
X168100Y125000D02*
D03*
X160000Y119500D02*
D03*
X157400Y116700D02*
D03*
X165500Y122300D02*
D03*
X160000Y113900D02*
D03*
X165500Y116700D02*
D03*
X168100Y113900D02*
D03*
X157500Y134300D02*
D03*
X165500Y119500D02*
D03*
X157500Y128800D02*
D03*
X146200Y139400D02*
D03*
X143400D02*
D03*
X135500D02*
D03*
X140700D02*
D03*
X138100D02*
D03*
X139300Y142100D02*
D03*
X144800D02*
D03*
X136700D02*
D03*
X134100D02*
D03*
X142000D02*
D03*
X146200Y145000D02*
D03*
X138100D02*
D03*
X135500D02*
D03*
X140700D02*
D03*
X143400D02*
D03*
X130500Y91300D02*
D03*
X108700Y86500D02*
D03*
X30000Y74100D02*
D03*
X94100Y99700D02*
D03*
X100100Y108100D02*
D03*
X137000Y147700D02*
D03*
X139600D02*
D03*
X142200D02*
D03*
X144900D02*
D03*
X147700D02*
D03*
X140600Y153400D02*
D03*
X144100Y150500D02*
D03*
X141400D02*
D03*
X138800D02*
D03*
X51500Y78200D02*
D03*
Y75300D02*
D03*
X50100Y64200D02*
D03*
X4300Y91900D02*
D03*
X9500Y103000D02*
D03*
X4300Y94700D02*
D03*
X9500D02*
D03*
X4300Y97500D02*
D03*
Y103000D02*
D03*
X6900Y97500D02*
D03*
X9500D02*
D03*
X6900Y103000D02*
D03*
Y100300D02*
D03*
X9500Y91900D02*
D03*
Y100300D02*
D03*
X6900Y91900D02*
D03*
X4300Y100300D02*
D03*
X6900Y94700D02*
D03*
X7000Y89200D02*
D03*
X4200D02*
D03*
Y78100D02*
D03*
X9600Y86500D02*
D03*
X7000Y80900D02*
D03*
X9600Y89200D02*
D03*
Y83700D02*
D03*
X4200D02*
D03*
X7000D02*
D03*
X4200Y86500D02*
D03*
X9600Y80900D02*
D03*
X7000Y78100D02*
D03*
X4200Y80900D02*
D03*
X7000Y86500D02*
D03*
X9600Y78100D02*
D03*
X181000Y60500D02*
D03*
X183600D02*
D03*
X186200D02*
D03*
X188900D02*
D03*
X191700D02*
D03*
X194300D02*
D03*
X181000Y63300D02*
D03*
X183600D02*
D03*
X186200D02*
D03*
X188900D02*
D03*
X191700D02*
D03*
X194300D02*
D03*
X183600Y66100D02*
D03*
X186200D02*
D03*
X188900D02*
D03*
X191700D02*
D03*
X194300D02*
D03*
X183600Y68900D02*
D03*
X186200D02*
D03*
X188900D02*
D03*
X191700D02*
D03*
X194300D02*
D03*
Y71600D02*
D03*
X191700D02*
D03*
X188900D02*
D03*
X186200D02*
D03*
X183600D02*
D03*
X112800Y173200D02*
D03*
X115400D02*
D03*
X118000D02*
D03*
X120700D02*
D03*
X123500D02*
D03*
X126100D02*
D03*
X73000Y52900D02*
D03*
X70600Y55300D02*
D03*
X68400Y57600D02*
D03*
X65900Y59800D02*
D03*
X44200Y95500D02*
D03*
Y92100D02*
D03*
Y88600D02*
D03*
X29300Y67300D02*
D03*
X45200Y116900D02*
D03*
X42400D02*
D03*
X159700Y139400D02*
D03*
X157000Y139500D02*
D03*
X165300Y139400D02*
D03*
X159700Y142200D02*
D03*
X157000D02*
D03*
X162200Y139400D02*
D03*
X112800Y167500D02*
D03*
X115400D02*
D03*
X118000D02*
D03*
X120700D02*
D03*
X123500D02*
D03*
X126100D02*
D03*
X112800Y170300D02*
D03*
X115400D02*
D03*
X118000D02*
D03*
X120700D02*
D03*
X123500D02*
D03*
X126100D02*
D03*
X112800Y175900D02*
D03*
X115400D02*
D03*
X118000D02*
D03*
X120700D02*
D03*
X123500D02*
D03*
X126100D02*
D03*
X112800Y178700D02*
D03*
X115400D02*
D03*
X118000D02*
D03*
X120700D02*
D03*
X123500D02*
D03*
X126100D02*
D03*
Y181400D02*
D03*
X123500D02*
D03*
X120700D02*
D03*
X118000D02*
D03*
X115400D02*
D03*
X112800D02*
D03*
X200300Y81800D02*
D03*
X201700Y84300D02*
D03*
X199000Y107000D02*
D03*
X198000Y109500D02*
D03*
X165400Y149500D02*
D03*
X93900Y95600D02*
D03*
X31100Y81200D02*
D03*
X151600Y88600D02*
D03*
X149800Y90500D02*
D03*
X105200Y87700D02*
D03*
X102700Y84900D02*
D03*
X24900Y90600D02*
D03*
X25000Y104400D02*
D03*
X18500Y102300D02*
D03*
X147900Y156800D02*
D03*
X152300D02*
D03*
X155900Y156700D02*
D03*
X18500Y99700D02*
D03*
Y104900D02*
D03*
X90500Y150400D02*
D03*
X98000Y84700D02*
D03*
X100300Y83000D02*
D03*
X115700Y82300D02*
D03*
X121000Y85100D02*
D03*
X118300Y85000D02*
D03*
X115600D02*
D03*
X174400Y160900D02*
D03*
X152300Y153500D02*
D03*
X158500Y153700D02*
D03*
X93900Y92900D02*
D03*
X101500Y143300D02*
D03*
X94500Y141800D02*
D03*
X98100Y142600D02*
D03*
X162000Y100900D02*
D03*
X25100Y98900D02*
D03*
X109500Y101900D02*
D03*
X106500Y101400D02*
D03*
X23300Y110500D02*
D03*
X39807Y92300D02*
D03*
X86473Y39943D02*
D03*
X88200Y38000D02*
D03*
X91100Y37800D02*
D03*
X83905Y36032D02*
D03*
X42800Y111000D02*
D03*
X45100Y109000D02*
D03*
X43100Y107000D02*
D03*
X43900Y71500D02*
D03*
X94930Y34842D02*
D03*
X39807Y78000D02*
D03*
Y105700D02*
D03*
X99700Y31200D02*
D03*
X96800Y32400D02*
D03*
X92981Y33121D02*
D03*
X61500Y110000D02*
D03*
Y106100D02*
D03*
X88800Y46100D02*
D03*
X101355Y153775D02*
D03*
X77500Y51800D02*
D03*
X52700Y90600D02*
D03*
X53900Y85800D02*
D03*
X51000Y101200D02*
D03*
X61500Y113900D02*
D03*
Y117900D02*
D03*
X75100Y149400D02*
D03*
X77700Y148200D02*
D03*
X81400Y149600D02*
D03*
X78900Y150700D02*
D03*
X98400Y153800D02*
D03*
X90000Y154500D02*
D03*
X51600Y87500D02*
D03*
X162000Y106000D02*
D03*
Y95700D02*
D03*
X162100Y85500D02*
D03*
X161900Y69600D02*
D03*
X159000Y69700D02*
D03*
X168900Y69600D02*
D03*
X197200Y82100D02*
D03*
X198900Y84200D02*
D03*
X195400Y84100D02*
D03*
X200500Y109500D02*
D03*
X201500Y107000D02*
D03*
X196400D02*
D03*
X198900Y113100D02*
D03*
X181700Y116500D02*
D03*
X195700Y115200D02*
D03*
X200600Y102400D02*
D03*
X197000Y102500D02*
D03*
X200700Y95600D02*
D03*
X197000Y95700D02*
D03*
X200600Y87900D02*
D03*
X196900D02*
D03*
X202400Y90000D02*
D03*
X202600Y93800D02*
D03*
X195300Y100400D02*
D03*
X194400Y93900D02*
D03*
X198800Y90000D02*
D03*
X195100D02*
D03*
X198800Y93800D02*
D03*
X202400Y100400D02*
D03*
X198700D02*
D03*
D79*
X147900Y92500D02*
X149850Y90550D01*
X141500Y98900D02*
X147900Y92500D01*
X149850Y90550D02*
X151700Y88700D01*
X93900Y95600D02*
X97200Y98900D01*
X141500D01*
X93900Y92900D02*
Y95500D01*
M02*
