G04*
G04 #@! TF.GenerationSoftware,Altium Limited,Altium Designer,21.3.2 (30)*
G04*
G04 Layer_Color=16711935*
%FSLAX25Y25*%
%MOIN*%
G70*
G04*
G04 #@! TF.SameCoordinates,24C89C37-09E3-4822-9DB9-40424265DB80*
G04*
G04*
G04 #@! TF.FilePolarity,Positive*
G04*
G01*
G75*
%ADD95C,0.00200*%
D95*
X144077Y25185D02*
Y27815D01*
X137920Y25185D02*
Y27815D01*
Y25185D02*
X144077D01*
X137920Y27815D02*
X144077D01*
X11185Y95177D02*
X13815D01*
X11185Y89020D02*
X13815D01*
Y95177D01*
X11185Y89020D02*
Y95177D01*
X96090Y105565D02*
X100260D01*
X96090Y95285D02*
X100260D01*
Y105565D01*
X96090Y95285D02*
Y105565D01*
X103935Y81590D02*
X114215D01*
X103935Y85760D02*
X114215D01*
Y81590D02*
Y85760D01*
X103935Y81590D02*
Y85760D01*
X159385Y155891D02*
Y162047D01*
X162015Y155891D02*
Y162047D01*
X159385Y155891D02*
X162015D01*
X159385Y162047D02*
X162015D01*
X172476Y155922D02*
Y162020D01*
X169923Y155922D02*
Y162020D01*
X172476D01*
X169923Y155922D02*
X172476D01*
X177835Y138890D02*
X188115D01*
X177835Y143060D02*
X188115D01*
Y138890D02*
Y143060D01*
X177835Y138890D02*
Y143060D01*
X26072Y82838D02*
X34528D01*
X26072Y86562D02*
X34528D01*
Y82838D02*
Y86562D01*
X26072Y82838D02*
Y86562D01*
Y74738D02*
X34528D01*
X26072Y78462D02*
X34528D01*
Y74738D02*
Y78462D01*
X26072Y74738D02*
Y78462D01*
Y102538D02*
X34528D01*
X26072Y106262D02*
X34528D01*
Y102538D02*
Y106262D01*
X26072Y102538D02*
Y106262D01*
Y110638D02*
X34528D01*
X26072Y114362D02*
X34528D01*
Y110638D02*
Y114362D01*
X26072Y110638D02*
Y114362D01*
Y88738D02*
X34528D01*
X26072Y92462D02*
X34528D01*
Y88738D02*
Y92462D01*
X26072Y88738D02*
Y92462D01*
X26072Y100762D02*
X34528D01*
X26072Y97038D02*
X34528D01*
X26072D02*
Y100762D01*
X34528Y97038D02*
Y100762D01*
X26072Y60938D02*
X34528D01*
X26072Y64662D02*
X34528D01*
Y60938D02*
Y64662D01*
X26072Y60938D02*
Y64662D01*
Y68838D02*
X34528D01*
X26072Y72562D02*
X34528D01*
Y68838D02*
Y72562D01*
X26072Y68838D02*
Y72562D01*
X15560Y86910D02*
Y98490D01*
X21640Y86910D02*
Y98490D01*
X15560Y86910D02*
X21640D01*
X15560Y98490D02*
X21640D01*
X24010Y58940D02*
X35590D01*
X24010Y52860D02*
X35590D01*
X24010D02*
Y58940D01*
X35590Y52860D02*
Y58940D01*
X113862Y102772D02*
Y111228D01*
X110138Y102772D02*
Y111228D01*
X113862D01*
X110138Y102772D02*
X113862D01*
X104638D02*
Y111228D01*
X108362Y102772D02*
Y111228D01*
X104638Y102772D02*
X108362D01*
X104638Y111228D02*
X108362D01*
X118638Y97272D02*
Y105728D01*
X122362Y97272D02*
Y105728D01*
X118638Y97272D02*
X122362D01*
X118638Y105728D02*
X122362D01*
X97638Y85972D02*
Y94428D01*
X101362Y85972D02*
Y94428D01*
X97638Y85972D02*
X101362D01*
X97638Y94428D02*
X101362D01*
X179510Y45835D02*
Y56115D01*
X175340Y45835D02*
Y56115D01*
X179510D01*
X175340Y45835D02*
X179510D01*
X177835Y118890D02*
Y123060D01*
X188115Y118890D02*
Y123060D01*
X177835D02*
X188115D01*
X177835Y118890D02*
X188115D01*
X177835Y125390D02*
Y129560D01*
X188115Y125390D02*
Y129560D01*
X177835D02*
X188115D01*
X177835Y125390D02*
X188115D01*
X177835Y131890D02*
Y136060D01*
X188115Y131890D02*
Y136060D01*
X177835D02*
X188115D01*
X177835Y131890D02*
X188115D01*
X193865Y113240D02*
Y117410D01*
X183585Y113240D02*
Y117410D01*
Y113240D02*
X193865D01*
X183585Y117410D02*
X193865D01*
X172440Y67335D02*
X176610D01*
X172440Y77615D02*
X176610D01*
X172440Y67335D02*
Y77615D01*
X176610Y67335D02*
Y77615D01*
X163138Y76728D02*
X166862D01*
X163138Y68272D02*
X166862D01*
Y76728D01*
X163138Y68272D02*
Y76728D01*
X183735Y106790D02*
Y110960D01*
X194015Y106790D02*
Y110960D01*
X183735D02*
X194015D01*
X183735Y106790D02*
X194015D01*
X154138Y68272D02*
Y76728D01*
X157862Y68272D02*
Y76728D01*
X154138Y68272D02*
X157862D01*
X154138Y76728D02*
X157862D01*
X170185Y49420D02*
Y55576D01*
X172815Y49420D02*
Y55576D01*
X170185Y49420D02*
X172815D01*
X170185Y55576D02*
X172815D01*
X164777Y49451D02*
Y55549D01*
X162223Y49451D02*
Y55549D01*
X164777D01*
X162223Y49451D02*
X164777D01*
X140110Y45335D02*
Y55615D01*
X135940Y45335D02*
Y55615D01*
X140110D01*
X135940Y45335D02*
X140110D01*
X145685Y49420D02*
Y55576D01*
X148315Y49420D02*
Y55576D01*
X145685Y49420D02*
X148315D01*
X145685Y55576D02*
X148315D01*
X131277Y45451D02*
Y51549D01*
X128724Y45451D02*
Y51549D01*
X131277D01*
X128724Y45451D02*
X131277D01*
X128451Y27777D02*
X134549D01*
X128451Y25223D02*
X134549D01*
X128451D02*
Y27777D01*
X134549Y25223D02*
Y27777D01*
M02*
