G04*
G04 #@! TF.GenerationSoftware,Altium Limited,Altium Designer,21.3.2 (30)*
G04*
G04 Layer_Physical_Order=2*
G04 Layer_Color=36540*
%FSLAX25Y25*%
%MOIN*%
G70*
G04*
G04 #@! TF.SameCoordinates,24C89C37-09E3-4822-9DB9-40424265DB80*
G04*
G04*
G04 #@! TF.FilePolarity,Positive*
G04*
G01*
G75*
%ADD14C,0.01000*%
%ADD74C,0.00400*%
%ADD78C,0.01968*%
%ADD79C,0.01500*%
G36*
X90322Y153570D02*
X89512Y153260D01*
X89125Y153439D01*
X89153Y153475D01*
X89174Y153519D01*
X89187Y153571D01*
X89193Y153630D01*
X89192Y153699D01*
X89184Y153775D01*
X89168Y153859D01*
X89145Y153951D01*
X89077Y154159D01*
X90322Y153570D01*
D02*
G37*
G36*
X97697Y153111D02*
X97604Y153204D01*
X97294Y153478D01*
X97231Y153522D01*
X97175Y153556D01*
X97125Y153580D01*
X97081Y153595D01*
X97043Y153600D01*
Y154000D01*
X97081Y154005D01*
X97125Y154020D01*
X97175Y154044D01*
X97231Y154078D01*
X97294Y154122D01*
X97437Y154240D01*
X97604Y154396D01*
X97697Y154489D01*
Y153111D01*
D02*
G37*
G36*
X101345Y152791D02*
X101214Y152791D01*
X100801Y152765D01*
X100726Y152752D01*
X100662Y152736D01*
X100609Y152718D01*
X100567Y152697D01*
X100537Y152673D01*
X100254Y152956D01*
X100277Y152987D01*
X100298Y153028D01*
X100317Y153081D01*
X100332Y153145D01*
X100345Y153220D01*
X100363Y153405D01*
X100371Y153634D01*
X100371Y153765D01*
X101345Y152791D01*
D02*
G37*
G36*
X99082Y189550D02*
X100438Y189139D01*
X101687Y188471D01*
X102783Y187572D01*
X103439Y186773D01*
X103731Y186383D01*
X103779Y186298D01*
X104026Y185997D01*
X104595Y185304D01*
X105589Y184488D01*
X106723Y183882D01*
X107954Y183509D01*
X109234Y183383D01*
X110513Y183509D01*
X111744Y183882D01*
X112878Y184488D01*
X113872Y185304D01*
X114440Y185996D01*
X114688Y186298D01*
X114735Y186383D01*
X115029Y186772D01*
X115683Y187569D01*
X116779Y188469D01*
X118030Y189137D01*
X119388Y189549D01*
X120800Y189688D01*
X121748Y189595D01*
X121748Y189595D01*
Y189595D01*
X121762Y189606D01*
X126365Y188905D01*
X131978Y187700D01*
X137508Y186159D01*
X142935Y184286D01*
X148238Y182089D01*
X153400Y179576D01*
X158400Y176756D01*
X158800Y176497D01*
X158800Y155900D01*
X160100Y154600D01*
Y150300D01*
X148000D01*
X136400Y161900D01*
X71100D01*
X21000Y111800D01*
Y109292D01*
X20946Y109212D01*
X20884Y108900D01*
X20884Y108900D01*
Y99084D01*
X20000Y98200D01*
X16500D01*
X15539Y99161D01*
X15539Y137692D01*
X15965Y138117D01*
X19233Y138115D01*
X19233Y138087D01*
Y138086D01*
X19237Y138086D01*
X19719Y138133D01*
X19725Y138134D01*
X19727Y138134D01*
X20903Y138250D01*
X22505Y138736D01*
X23981Y139525D01*
X25275Y140587D01*
X26337Y141881D01*
X26604Y142381D01*
X26666Y142399D01*
X26666D01*
X27898Y144583D01*
X31016Y149405D01*
X34419Y154030D01*
X38095Y158441D01*
X42031Y162622D01*
X46212Y166558D01*
X50623Y170234D01*
X55247Y173637D01*
X60069Y176754D01*
X65071Y179575D01*
X70233Y182089D01*
X75538Y184286D01*
X80966Y186159D01*
X86497Y187701D01*
X92111Y188906D01*
X96224Y189532D01*
X96720Y189595D01*
X97672Y189689D01*
X99082Y189550D01*
D02*
G37*
G36*
X89797Y149711D02*
X89704Y149804D01*
X89394Y150078D01*
X89331Y150122D01*
X89275Y150156D01*
X89225Y150180D01*
X89181Y150195D01*
X89143Y150200D01*
Y150600D01*
X89181Y150605D01*
X89225Y150620D01*
X89275Y150644D01*
X89331Y150678D01*
X89394Y150722D01*
X89537Y150840D01*
X89704Y150996D01*
X89797Y151089D01*
Y149711D01*
D02*
G37*
G36*
X163221Y173639D02*
X167845Y170236D01*
X172255Y166561D01*
X176435Y162626D01*
X180370Y158446D01*
X184046Y154036D01*
X187448Y149412D01*
X190565Y144591D01*
X193385Y139591D01*
X195898Y134429D01*
X198095Y129125D01*
X199968Y123698D01*
X201510Y118168D01*
X202715Y112555D01*
X203111Y109950D01*
X202372Y109220D01*
X202215Y109195D01*
X202127Y109274D01*
X202084Y109342D01*
Y109815D01*
X201843Y110397D01*
X201397Y110843D01*
X200815Y111084D01*
X200539D01*
X200082Y112042D01*
X200243Y112203D01*
X200484Y112785D01*
Y113415D01*
X200243Y113997D01*
X199797Y114443D01*
X199215Y114684D01*
X198585D01*
X198208Y114528D01*
X197853Y114665D01*
X197615Y114818D01*
X197284Y115139D01*
Y115515D01*
X197043Y116097D01*
X196597Y116543D01*
X196015Y116784D01*
X195385D01*
X194803Y116543D01*
X194357Y116097D01*
X194116Y115515D01*
Y114885D01*
X194357Y114303D01*
X194803Y113857D01*
X195385Y113616D01*
X196015D01*
X196392Y113772D01*
X196747Y113635D01*
X196985Y113482D01*
X197316Y113161D01*
Y112785D01*
X197557Y112203D01*
X197678Y112081D01*
X197680Y111768D01*
X197449Y110986D01*
X197103Y110843D01*
X196657Y110397D01*
X196416Y109815D01*
Y109185D01*
X196085Y108584D01*
X195503Y108343D01*
X195057Y107897D01*
X194816Y107315D01*
Y106685D01*
X195057Y106103D01*
X195503Y105657D01*
X196085Y105416D01*
X196715D01*
X197297Y105657D01*
X197700Y106060D01*
X198103Y105657D01*
X198685Y105416D01*
X199315D01*
X199897Y105657D01*
X200250Y106009D01*
X200603Y105657D01*
X201185Y105416D01*
X201815D01*
X202397Y105657D01*
X202661Y105921D01*
X203477Y105759D01*
X203691Y105644D01*
X203980Y102460D01*
X203775Y102245D01*
X203104Y101892D01*
X202184Y102280D01*
Y102715D01*
X201943Y103297D01*
X201497Y103743D01*
X200915Y103984D01*
X200285D01*
X199703Y103743D01*
X199405Y103446D01*
X198653Y103412D01*
X198253Y103487D01*
X197897Y103843D01*
X197315Y104084D01*
X196685D01*
X196103Y103843D01*
X195657Y103397D01*
X195416Y102815D01*
Y102185D01*
X195282Y101984D01*
X194985D01*
X194403Y101743D01*
X193957Y101297D01*
X193716Y100715D01*
Y100085D01*
X193957Y99503D01*
X194403Y99057D01*
X194985Y98816D01*
X195615D01*
X196197Y99057D01*
X196382Y99242D01*
X197000Y99407D01*
X197617Y99242D01*
X197803Y99057D01*
X198385Y98816D01*
X199015D01*
X199597Y99057D01*
X200043Y99503D01*
X201057D01*
X201503Y99057D01*
X202085Y98816D01*
X202715D01*
X203163Y99001D01*
X203742Y98787D01*
X204178Y98523D01*
X204260Y95795D01*
X203908Y95494D01*
X203519Y95286D01*
X203265Y95239D01*
X202915Y95384D01*
X202284Y95915D01*
X202043Y96497D01*
X201597Y96943D01*
X201015Y97184D01*
X200385D01*
X199803Y96943D01*
X199435Y96575D01*
X198827Y96550D01*
X198343Y96597D01*
X197897Y97043D01*
X197315Y97284D01*
X196685D01*
X196103Y97043D01*
X195657Y96597D01*
X195416Y96015D01*
X194715Y95484D01*
X194085D01*
X193503Y95243D01*
X193057Y94797D01*
X192816Y94215D01*
Y93585D01*
X193057Y93003D01*
X193503Y92557D01*
X194011Y92346D01*
X194123Y92002D01*
X194161Y91687D01*
X194175Y91316D01*
X193757Y90897D01*
X193516Y90315D01*
Y89685D01*
X193757Y89103D01*
X194203Y88657D01*
X194785Y88416D01*
X195182D01*
X195316Y88215D01*
Y87585D01*
X195557Y87003D01*
X195951Y86608D01*
X195870Y86291D01*
X195569Y85684D01*
X195085D01*
X194503Y85443D01*
X194057Y84997D01*
X193816Y84415D01*
Y83785D01*
X194057Y83203D01*
X194503Y82757D01*
X195085Y82516D01*
X195548D01*
X195616Y82415D01*
Y81785D01*
X195857Y81203D01*
X196303Y80757D01*
X196885Y80516D01*
X197515D01*
X198097Y80757D01*
X198910Y80895D01*
X199253Y80606D01*
X199403Y80457D01*
X199985Y80216D01*
X200615D01*
X201197Y80457D01*
X201643Y80903D01*
X201884Y81485D01*
Y82055D01*
X201994Y82161D01*
X202312Y82296D01*
X203217Y81592D01*
X202715Y78293D01*
X201510Y72680D01*
X199968Y67150D01*
X198095Y61724D01*
X195898Y56420D01*
X193385Y51258D01*
X190565Y46258D01*
X187448Y41437D01*
X184046Y36813D01*
X180370Y32403D01*
X176435Y28223D01*
X172255Y24288D01*
X167845Y20612D01*
X163221Y17210D01*
X158400Y14093D01*
X153400Y11273D01*
X148238Y8760D01*
X142935Y6563D01*
X137508Y4690D01*
X131978Y3148D01*
X126365Y1943D01*
X122778Y1398D01*
X121790Y1259D01*
X120836Y1165D01*
X119427Y1304D01*
X118072Y1715D01*
X116823Y2383D01*
X115728Y3281D01*
X115352Y3739D01*
X114760Y4505D01*
X114694Y4613D01*
X113878Y5608D01*
X112883Y6424D01*
X111748Y7031D01*
X110516Y7405D01*
X109236Y7531D01*
X107955Y7405D01*
X106723Y7031D01*
X105588Y6424D01*
X104594Y5608D01*
X103777Y4613D01*
X103711Y4505D01*
X103119Y3740D01*
X102745Y3284D01*
X101649Y2385D01*
X100398Y1716D01*
X99041Y1304D01*
X97630Y1166D01*
X96677Y1259D01*
X95689Y1398D01*
X92110Y1942D01*
X86497Y3148D01*
X80966Y4689D01*
X75538Y6562D01*
X70234Y8759D01*
X65072Y11273D01*
X60071Y14093D01*
X55250Y17210D01*
X50625Y20613D01*
X46215Y24289D01*
X42034Y28224D01*
X38099Y32405D01*
X34423Y36815D01*
X31020Y41440D01*
X27903Y46261D01*
X26639Y48502D01*
X26639Y48503D01*
X26311Y49018D01*
X26098Y49278D01*
X26097Y49278D01*
X26066Y49317D01*
X25247Y50314D01*
X23951Y51378D01*
X22472Y52169D01*
X20867Y52655D01*
X19207Y52819D01*
X19206Y52791D01*
X9022D01*
X5677Y52794D01*
X4715Y52803D01*
D01*
X3770Y52936D01*
X2944Y53278D01*
X2209Y53842D01*
X1645Y54577D01*
X1302Y55405D01*
X1170Y56351D01*
D01*
X1163Y57313D01*
X1194Y134567D01*
X1201Y134567D01*
X1201Y134570D01*
X1322Y135489D01*
X1677Y136345D01*
X2241Y137080D01*
X2976Y137644D01*
X3832Y137998D01*
X4750Y138119D01*
X4756Y138118D01*
X4756Y138126D01*
X4757Y138127D01*
X13984Y138119D01*
X14874Y137699D01*
X14890Y137692D01*
X14890Y99161D01*
X15080Y98702D01*
X16041Y97741D01*
X16500Y97551D01*
X20000D01*
X20884Y96859D01*
Y86400D01*
X20884Y86400D01*
X20946Y86088D01*
X21123Y85823D01*
X30262Y76684D01*
X29848Y75684D01*
X29685D01*
X29103Y75443D01*
X28657Y74997D01*
X27596Y75050D01*
X21149Y81497D01*
Y83200D01*
X20959Y83659D01*
X19959Y84659D01*
X19500Y84849D01*
X15000D01*
X14541Y84659D01*
X13641Y83759D01*
X13451Y83300D01*
Y81100D01*
X13641Y80641D01*
X14541Y79741D01*
X15000Y79551D01*
X19203D01*
X28903Y69850D01*
X28915Y69710D01*
X28610Y68729D01*
X28403Y68643D01*
X27957Y68197D01*
X27716Y67615D01*
Y66985D01*
X27957Y66403D01*
X28403Y65957D01*
X28985Y65716D01*
X29615D01*
X30197Y65957D01*
X30643Y66403D01*
X30729Y66610D01*
X31710Y66915D01*
X31850Y66903D01*
X76427Y22327D01*
X76873Y22028D01*
X77400Y21924D01*
X126600D01*
X127127Y22028D01*
X127573Y22327D01*
X129020Y23774D01*
X129289Y23777D01*
X130142Y23481D01*
X130257Y23203D01*
X130703Y22757D01*
X131285Y22516D01*
X131915D01*
X132497Y22757D01*
X132943Y23203D01*
X133184Y23785D01*
Y24415D01*
X132943Y24997D01*
X132497Y25443D01*
X132219Y25558D01*
X131923Y26411D01*
X131926Y26680D01*
X151670Y46424D01*
X155258D01*
X156441Y45241D01*
X156900Y45050D01*
X166900Y45051D01*
X167359Y45241D01*
X168159Y46041D01*
X168349Y46500D01*
Y49200D01*
X168159Y49659D01*
X167359Y50459D01*
X166900Y50649D01*
X157000D01*
X156541Y50459D01*
X155258Y49176D01*
X151100D01*
X150573Y49072D01*
X150127Y48773D01*
X126030Y24676D01*
X77970D01*
X30950Y71696D01*
X30897Y72757D01*
X31343Y73203D01*
X31584Y73785D01*
Y73948D01*
X32584Y74362D01*
X80323Y26623D01*
X80323Y26623D01*
X80588Y26446D01*
X80900Y26384D01*
X110500D01*
X110500Y26384D01*
X110812Y26446D01*
X111077Y26623D01*
X154777Y70323D01*
X154777Y70323D01*
X154954Y70588D01*
X155016Y70900D01*
Y77311D01*
X155685Y78116D01*
X156315D01*
X156897Y78357D01*
X157343Y78803D01*
X157584Y79385D01*
Y79698D01*
X160293Y82407D01*
X160293Y82407D01*
X160536Y82771D01*
X160622Y83200D01*
X160622Y83200D01*
Y83398D01*
X160666Y83456D01*
X161622Y83983D01*
X161785Y83916D01*
X162415D01*
X162997Y84157D01*
X163443Y84603D01*
X163684Y85185D01*
Y85815D01*
X163443Y86397D01*
X162997Y86843D01*
X162415Y87084D01*
X161785D01*
X161622Y87017D01*
X160666Y87544D01*
X160622Y87602D01*
Y92635D01*
X162102Y94116D01*
X162315D01*
X162897Y94357D01*
X163343Y94803D01*
X163584Y95385D01*
Y96015D01*
X163343Y96597D01*
X163122Y96819D01*
Y99781D01*
X163343Y100003D01*
X163584Y100585D01*
Y101215D01*
X163343Y101797D01*
X163122Y102019D01*
Y104881D01*
X163343Y105103D01*
X163584Y105685D01*
Y106315D01*
X163343Y106897D01*
X162897Y107343D01*
X162315Y107584D01*
X161685D01*
X161103Y107343D01*
X160657Y106897D01*
X160416Y106315D01*
Y105685D01*
X160657Y105103D01*
X160878Y104881D01*
Y102019D01*
X160657Y101797D01*
X160416Y101215D01*
Y100585D01*
X160657Y100003D01*
X160878Y99781D01*
Y96819D01*
X160657Y96597D01*
X160416Y96015D01*
Y95602D01*
X158707Y93893D01*
X158464Y93529D01*
X158378Y93100D01*
X158378Y93100D01*
Y83665D01*
X156487Y81773D01*
X155233Y81827D01*
X155016Y82089D01*
Y90600D01*
X155016Y90600D01*
X154954Y90912D01*
X154777Y91177D01*
X154777Y91177D01*
X144952Y101002D01*
X144975Y101654D01*
X145123Y102105D01*
X145164Y102161D01*
X146250Y102752D01*
X146274Y102782D01*
X146311Y102792D01*
X147382Y103632D01*
X147401Y103665D01*
X147435Y103681D01*
X148353Y104687D01*
X148366Y104722D01*
X148397Y104744D01*
X149136Y105887D01*
X149142Y105925D01*
X149170Y105951D01*
X149709Y107201D01*
X149710Y107239D01*
X149732Y107269D01*
X150057Y108591D01*
X150052Y108629D01*
X150069Y108662D01*
X150171Y110020D01*
X150159Y110056D01*
X150170Y110092D01*
X150047Y111448D01*
X150029Y111482D01*
X150034Y111519D01*
X149688Y112836D01*
X149665Y112866D01*
X149664Y112904D01*
X149384Y113524D01*
X149384Y113524D01*
Y113524D01*
X148572Y115326D01*
X148557Y115341D01*
X148554Y115361D01*
X146610Y118804D01*
X146593Y118817D01*
X146589Y118837D01*
X144341Y122089D01*
X144324Y122101D01*
X144317Y122121D01*
X141785Y125156D01*
X141766Y125166D01*
X141758Y125185D01*
X138961Y127979D01*
X138942Y127987D01*
X138932Y128006D01*
X135894Y130535D01*
X135874Y130541D01*
X135863Y130559D01*
X132608Y132803D01*
X132588Y132807D01*
X132575Y132824D01*
X129130Y134764D01*
X129110Y134767D01*
X129095Y134782D01*
X125489Y136403D01*
X125469Y136404D01*
X125453Y136417D01*
X121715Y137706D01*
X121694Y137704D01*
X121677Y137717D01*
X117839Y138661D01*
X117818Y138658D01*
X117800Y138669D01*
X113891Y139262D01*
X113871Y139257D01*
X113852Y139266D01*
X109906Y139504D01*
X109886Y139497D01*
X109867Y139504D01*
X105915Y139384D01*
X105896Y139375D01*
X105876Y139381D01*
X101952Y138903D01*
X101933Y138893D01*
X101913Y138897D01*
X99049Y138281D01*
X98550Y139197D01*
X101103Y141750D01*
X101185Y141716D01*
X101815D01*
X102397Y141957D01*
X102843Y142403D01*
X103084Y142985D01*
Y143615D01*
X102843Y144197D01*
X102397Y144643D01*
X101818Y144883D01*
X101815Y144884D01*
X101067Y145425D01*
X100984Y145808D01*
Y146115D01*
X100743Y146697D01*
X100297Y147143D01*
X99715Y147384D01*
X99085D01*
X98503Y147143D01*
X98057Y146697D01*
X97911Y146344D01*
X97073Y146012D01*
X96816Y145977D01*
X96315Y146184D01*
X95918Y147184D01*
X100958Y152224D01*
X101040Y152190D01*
X101670D01*
X102253Y152432D01*
X102698Y152877D01*
X102939Y153460D01*
Y154090D01*
X102698Y154672D01*
X102253Y155118D01*
X101670Y155359D01*
X101040D01*
X100458Y155118D01*
X99865Y154769D01*
X99297Y155143D01*
X98715Y155384D01*
X98085D01*
X97503Y155143D01*
X97057Y154697D01*
X97023Y154616D01*
X96600D01*
X96288Y154554D01*
X96023Y154377D01*
X96023Y154377D01*
X92931Y151284D01*
X91843Y151297D01*
X91397Y151743D01*
X90815Y151984D01*
X90617Y152984D01*
X90623Y153043D01*
X90897Y153157D01*
X91343Y153603D01*
X91584Y154185D01*
Y154815D01*
X91343Y155397D01*
X90897Y155843D01*
X90315Y156084D01*
X89685D01*
X89103Y155843D01*
X88657Y155397D01*
X88416Y154815D01*
Y154185D01*
X88587Y153772D01*
X83908Y149093D01*
X83882Y149099D01*
X82984Y149583D01*
Y149915D01*
X82743Y150497D01*
X82297Y150943D01*
X81715Y151184D01*
X81085D01*
X80484Y151015D01*
X80243Y151597D01*
X79797Y152043D01*
X79215Y152284D01*
X78585D01*
X78003Y152043D01*
X77557Y151597D01*
X77316Y151015D01*
Y150731D01*
X76917Y150533D01*
X76316Y150425D01*
X75997Y150743D01*
X75415Y150984D01*
X74785D01*
X74203Y150743D01*
X73757Y150297D01*
X73516Y149715D01*
Y149085D01*
X73757Y148503D01*
X74203Y148057D01*
X74785Y147816D01*
X75415D01*
X76081Y147881D01*
X76357Y147303D01*
X76803Y146857D01*
X77385Y146616D01*
X78015D01*
X78597Y146857D01*
X79043Y147303D01*
X79284Y147885D01*
Y148154D01*
X80284Y148475D01*
X80503Y148257D01*
X81085Y148016D01*
X81417D01*
X81902Y147118D01*
X81907Y147092D01*
X64231Y129416D01*
X57169D01*
X56857Y129354D01*
X56592Y129177D01*
X56592Y129177D01*
X53923Y126508D01*
X53746Y126243D01*
X53684Y125931D01*
X53684Y125931D01*
Y95838D01*
X48723Y90877D01*
X48546Y90612D01*
X48484Y90300D01*
X48484Y90300D01*
Y72783D01*
X47484Y72369D01*
X42416Y77438D01*
Y104492D01*
X42785Y105416D01*
X43415D01*
X43997Y105657D01*
X44443Y106103D01*
X44684Y106685D01*
X44773Y107327D01*
X45415Y107416D01*
X45997Y107657D01*
X46443Y108103D01*
X46684Y108685D01*
Y109315D01*
X46443Y109897D01*
X45997Y110343D01*
X45415Y110584D01*
X45308D01*
X44752Y110645D01*
X44384Y111315D01*
X44143Y111897D01*
X43697Y112343D01*
X43115Y112584D01*
X42485D01*
X41903Y112343D01*
X41457Y111897D01*
X41382Y111716D01*
X41100D01*
X40788Y111654D01*
X40523Y111477D01*
X40523Y111477D01*
X36723Y107677D01*
X36546Y107412D01*
X36484Y107100D01*
X36484Y107100D01*
Y75207D01*
X35560Y74825D01*
X31693Y78692D01*
X31958Y79841D01*
X31997Y79857D01*
X32443Y80303D01*
X32684Y80885D01*
Y81515D01*
X32443Y82097D01*
X31997Y82543D01*
X31415Y82784D01*
X30785D01*
X30203Y82543D01*
X29757Y82097D01*
X29741Y82058D01*
X28592Y81793D01*
X23316Y87069D01*
Y88542D01*
X23489Y88722D01*
X24316Y89127D01*
X24585Y89016D01*
X25215D01*
X25797Y89257D01*
X26243Y89703D01*
X26484Y90285D01*
Y90915D01*
X26243Y91497D01*
X25797Y91943D01*
X25215Y92184D01*
X24585D01*
X24316Y92073D01*
X23489Y92478D01*
X23316Y92659D01*
Y95962D01*
X24703Y97350D01*
X24785Y97316D01*
X25415D01*
X25997Y97557D01*
X26443Y98003D01*
X26684Y98585D01*
Y99215D01*
X26443Y99797D01*
X25997Y100243D01*
X25415Y100484D01*
X24785D01*
X24203Y100243D01*
X23757Y99797D01*
X23516Y99215D01*
X23516Y99215D01*
X22516Y99868D01*
Y103645D01*
X23516Y103844D01*
X23657Y103503D01*
X24103Y103057D01*
X24685Y102816D01*
X25315D01*
X25897Y103057D01*
X26343Y103503D01*
X26584Y104085D01*
Y104715D01*
X26343Y105297D01*
X25897Y105743D01*
X25315Y105984D01*
X24685D01*
X24103Y105743D01*
X23657Y105297D01*
X23516Y104956D01*
X22516Y105155D01*
Y108030D01*
X22985Y108916D01*
X23615D01*
X24197Y109157D01*
X24643Y109603D01*
X24884Y110185D01*
Y110815D01*
X24643Y111397D01*
X24197Y111843D01*
X23615Y112084D01*
X23203Y113084D01*
X71369Y161251D01*
X136131D01*
X147541Y149841D01*
X148000Y149651D01*
X160100D01*
X160559Y149841D01*
X160749Y150300D01*
Y154600D01*
X160559Y155059D01*
X159449Y156169D01*
X159449Y175031D01*
X160328Y175510D01*
X163221Y173639D01*
D02*
G37*
G36*
X101490Y142316D02*
X101359Y142316D01*
X100946Y142290D01*
X100870Y142277D01*
X100806Y142261D01*
X100754Y142243D01*
X100712Y142222D01*
X100682Y142199D01*
X100399Y142482D01*
X100422Y142512D01*
X100443Y142554D01*
X100461Y142606D01*
X100477Y142670D01*
X100490Y142746D01*
X100508Y142930D01*
X100516Y143159D01*
X100516Y143290D01*
X101490Y142316D01*
D02*
G37*
G36*
X98090Y141616D02*
X97959Y141616D01*
X97546Y141590D01*
X97470Y141577D01*
X97406Y141561D01*
X97354Y141543D01*
X97312Y141522D01*
X97282Y141499D01*
X96999Y141782D01*
X97022Y141812D01*
X97043Y141854D01*
X97061Y141906D01*
X97077Y141970D01*
X97090Y142046D01*
X97108Y142230D01*
X97116Y142459D01*
X97116Y142590D01*
X98090Y141616D01*
D02*
G37*
G36*
X93797Y141111D02*
X93704Y141204D01*
X93394Y141478D01*
X93331Y141522D01*
X93275Y141556D01*
X93225Y141580D01*
X93181Y141595D01*
X93143Y141600D01*
Y142000D01*
X93181Y142005D01*
X93225Y142020D01*
X93275Y142044D01*
X93331Y142078D01*
X93394Y142122D01*
X93537Y142240D01*
X93704Y142396D01*
X93797Y142489D01*
Y141111D01*
D02*
G37*
G36*
X63796Y120396D02*
X64106Y120122D01*
X64169Y120078D01*
X64225Y120044D01*
X64275Y120020D01*
X64319Y120005D01*
X64357Y120000D01*
Y119600D01*
X64319Y119595D01*
X64275Y119580D01*
X64225Y119556D01*
X64169Y119522D01*
X64106Y119478D01*
X63963Y119360D01*
X63796Y119204D01*
X63703Y119111D01*
Y120489D01*
X63796Y120396D01*
D02*
G37*
G36*
X62296Y118496D02*
X62606Y118222D01*
X62669Y118178D01*
X62725Y118144D01*
X62775Y118120D01*
X62819Y118105D01*
X62857Y118100D01*
Y117700D01*
X62819Y117695D01*
X62775Y117680D01*
X62725Y117656D01*
X62669Y117622D01*
X62606Y117578D01*
X62463Y117460D01*
X62296Y117304D01*
X62203Y117211D01*
Y118589D01*
X62296Y118496D01*
D02*
G37*
G36*
X42171Y110243D02*
X42065Y110330D01*
X41654Y110627D01*
X41596Y110659D01*
X41546Y110682D01*
X41503Y110695D01*
X41469Y110700D01*
X41427Y111100D01*
X41468Y111105D01*
X41513Y111121D01*
X41563Y111146D01*
X41616Y111182D01*
X41675Y111229D01*
X41737Y111285D01*
X41875Y111429D01*
X42031Y111614D01*
X42171Y110243D01*
D02*
G37*
G36*
X23290Y109516D02*
X23159Y109516D01*
X22746Y109490D01*
X22670Y109477D01*
X22606Y109461D01*
X22554Y109443D01*
X22512Y109422D01*
X22482Y109399D01*
X22199Y109682D01*
X22222Y109712D01*
X22243Y109754D01*
X22261Y109806D01*
X22277Y109870D01*
X22290Y109946D01*
X22308Y110130D01*
X22316Y110359D01*
X22316Y110490D01*
X23290Y109516D01*
D02*
G37*
G36*
X44397Y108311D02*
X44304Y108404D01*
X43994Y108678D01*
X43931Y108722D01*
X43875Y108756D01*
X43825Y108780D01*
X43781Y108795D01*
X43743Y108800D01*
Y109200D01*
X43781Y109205D01*
X43825Y109220D01*
X43875Y109244D01*
X43931Y109278D01*
X43994Y109322D01*
X44137Y109440D01*
X44304Y109596D01*
X44397Y109689D01*
Y108311D01*
D02*
G37*
G36*
X43020Y106019D02*
X42892Y106028D01*
X42574Y106033D01*
X42489Y106027D01*
X42415Y106017D01*
X42351Y106003D01*
X42298Y105986D01*
X42255Y105965D01*
X42223Y105940D01*
X41961Y106244D01*
X41983Y106272D01*
X42004Y106313D01*
X42023Y106365D01*
X42040Y106429D01*
X42057Y106505D01*
X42085Y106692D01*
X42108Y106926D01*
X42118Y107061D01*
X43020Y106019D01*
D02*
G37*
G36*
X162653Y105258D02*
X162621Y105216D01*
X162593Y105171D01*
X162568Y105122D01*
X162547Y105070D01*
X162530Y105014D01*
X162517Y104955D01*
X162508Y104893D01*
X162502Y104827D01*
X162500Y104759D01*
X161500D01*
X161498Y104827D01*
X161492Y104893D01*
X161483Y104955D01*
X161470Y105014D01*
X161453Y105070D01*
X161432Y105122D01*
X161407Y105171D01*
X161379Y105216D01*
X161347Y105258D01*
X161311Y105297D01*
X162689D01*
X162653Y105258D01*
D02*
G37*
G36*
X111076Y112305D02*
X113512Y111857D01*
X115858Y111060D01*
X118062Y109930D01*
X120079Y108492D01*
X121864Y106775D01*
X123386Y104810D01*
X123589Y104479D01*
X122798Y103855D01*
X118877Y107777D01*
X118612Y107954D01*
X118300Y108016D01*
X118300Y108016D01*
X107700D01*
X107700Y108016D01*
X107388Y107954D01*
X107123Y107777D01*
X107123Y107777D01*
X105923Y106577D01*
X105746Y106312D01*
X105684Y106000D01*
X105684Y106000D01*
Y102777D01*
X105603Y102743D01*
X105157Y102297D01*
X104916Y101715D01*
Y101085D01*
X105157Y100503D01*
X105603Y100057D01*
X106185Y99816D01*
X106815D01*
X107397Y100057D01*
X107843Y100503D01*
X108603Y100557D01*
X108827Y100464D01*
X109185Y100316D01*
X109815D01*
X110397Y100557D01*
X110843Y101003D01*
X111084Y101585D01*
Y102215D01*
X110843Y102797D01*
X110397Y103243D01*
X110316Y103277D01*
Y105062D01*
X110838Y105584D01*
X117531D01*
X123792Y99323D01*
X123792Y99323D01*
X124056Y99146D01*
X124369Y99084D01*
X124369Y99084D01*
X143331D01*
X147405Y95010D01*
X147406Y95005D01*
X147112Y93888D01*
X147003Y93843D01*
X146557Y93397D01*
X146316Y92815D01*
Y92185D01*
X146557Y91603D01*
X147003Y91157D01*
X147585Y90916D01*
X148215Y90815D01*
X148216Y90185D01*
X148457Y89603D01*
X148903Y89157D01*
X149485Y88916D01*
X150016Y88285D01*
X150257Y87703D01*
X150703Y87257D01*
X151285Y87016D01*
X151915D01*
X152484Y86635D01*
Y71469D01*
X109831Y28816D01*
X100697D01*
X100498Y29816D01*
X100597Y29857D01*
X101043Y30303D01*
X101284Y30885D01*
Y31515D01*
X101043Y32097D01*
X100597Y32543D01*
X100516Y32577D01*
Y38800D01*
X100516Y38800D01*
X100454Y39112D01*
X100277Y39377D01*
X100277Y39377D01*
X65316Y74338D01*
Y85032D01*
X65367Y85059D01*
X66548Y84544D01*
X67340Y81701D01*
X67353Y81685D01*
X67352Y81664D01*
X68754Y77967D01*
X68768Y77952D01*
X68769Y77931D01*
X70499Y74376D01*
X70515Y74362D01*
X70518Y74341D01*
X72562Y70958D01*
X72579Y70945D01*
X72584Y70925D01*
X74926Y67740D01*
X74944Y67729D01*
X74951Y67709D01*
X77571Y64749D01*
X77590Y64740D01*
X77599Y64721D01*
X80476Y62011D01*
X80496Y62003D01*
X80506Y61985D01*
X83618Y59546D01*
X83637Y59540D01*
X83649Y59523D01*
X86969Y57375D01*
X86989Y57371D01*
X87002Y57355D01*
X90502Y55517D01*
X90523Y55515D01*
X90538Y55500D01*
X94190Y53986D01*
X94210Y53985D01*
X94226Y53972D01*
X98000Y52794D01*
X98021Y52796D01*
X98038Y52784D01*
X101903Y51952D01*
X101924Y51956D01*
X101942Y51946D01*
X105866Y51468D01*
X105886Y51473D01*
X105905Y51464D01*
X109857Y51343D01*
X109877Y51350D01*
X109896Y51344D01*
X113843Y51580D01*
X113862Y51589D01*
X113882Y51584D01*
X117791Y52177D01*
X117808Y52188D01*
X117829Y52184D01*
X121668Y53128D01*
X121685Y53140D01*
X121706Y53139D01*
X125444Y54426D01*
X125460Y54440D01*
X125480Y54441D01*
X129087Y56061D01*
X129101Y56076D01*
X129122Y56079D01*
X132566Y58018D01*
X132579Y58035D01*
X132600Y58039D01*
X135855Y60283D01*
X135866Y60300D01*
X135886Y60307D01*
X138925Y62835D01*
X138935Y62854D01*
X138954Y62862D01*
X141752Y65655D01*
X141760Y65674D01*
X141778Y65684D01*
X144312Y68719D01*
X144318Y68739D01*
X144335Y68750D01*
X146584Y72002D01*
X146588Y72022D01*
X146605Y72035D01*
X148550Y75477D01*
X148552Y75498D01*
X148567Y75512D01*
X149380Y77314D01*
Y77314D01*
X149380Y77314D01*
X149660Y77935D01*
X149661Y77973D01*
X149684Y78003D01*
X150030Y79320D01*
X150025Y79357D01*
X150043Y79391D01*
X150166Y80747D01*
X150155Y80783D01*
X150167Y80818D01*
X150065Y82176D01*
X150048Y82210D01*
X150054Y82247D01*
X149728Y83570D01*
X149706Y83600D01*
X149705Y83638D01*
X149166Y84888D01*
X149138Y84914D01*
X149132Y84951D01*
X148393Y86095D01*
X148362Y86116D01*
X148349Y86152D01*
X147431Y87158D01*
X147397Y87174D01*
X147378Y87207D01*
X146307Y88047D01*
X146270Y88057D01*
X146247Y88086D01*
X145051Y88737D01*
X145013Y88741D01*
X144985Y88766D01*
X143698Y89211D01*
X143660Y89209D01*
X143628Y89229D01*
X142285Y89454D01*
X142249Y89446D01*
X142214Y89460D01*
X141533Y89461D01*
X141533Y89461D01*
X141533Y89461D01*
X132315Y89461D01*
X131843Y90403D01*
X132084Y90985D01*
Y91615D01*
X131843Y92197D01*
X131397Y92643D01*
X130815Y92884D01*
X130185D01*
X129603Y92643D01*
X129157Y92197D01*
X128916Y91615D01*
Y90985D01*
X129157Y90403D01*
X128685Y89461D01*
X128096D01*
X128096Y89460D01*
X128096Y89461D01*
X127532Y89460D01*
X127478Y89438D01*
X127419Y89445D01*
X126331Y89151D01*
X126284Y89115D01*
X126226Y89107D01*
X125252Y88538D01*
X125217Y88491D01*
X125162Y88468D01*
X124371Y87665D01*
X124349Y87610D01*
X124303Y87574D01*
X124030Y87090D01*
X123382Y86033D01*
X121859Y84069D01*
X120072Y82353D01*
X118055Y80915D01*
X115850Y79786D01*
X113504Y78990D01*
X111068Y78544D01*
X108592Y78457D01*
X106130Y78731D01*
X103734Y79360D01*
X101455Y80331D01*
X99342Y81624D01*
X97439Y83210D01*
X95788Y85056D01*
X94422Y87123D01*
X93372Y89367D01*
X93044Y90457D01*
X93230Y90752D01*
X93831Y91316D01*
X94215D01*
X94797Y91557D01*
X95243Y92003D01*
X95484Y92585D01*
Y93215D01*
X95243Y93797D01*
Y94703D01*
X95361Y94986D01*
X95484Y95285D01*
Y95915D01*
X95243Y96497D01*
X94797Y96943D01*
X94215Y97184D01*
X93585D01*
X93374Y97097D01*
X92479Y97681D01*
X92454Y97716D01*
X92661Y99118D01*
X93375Y101490D01*
X94426Y103733D01*
X95792Y105799D01*
X97445Y107645D01*
X99348Y109230D01*
X101462Y110522D01*
X103742Y111492D01*
X106138Y112120D01*
X108600Y112393D01*
X111076Y112305D01*
D02*
G37*
G36*
X109705Y103219D02*
X109720Y103175D01*
X109744Y103125D01*
X109778Y103069D01*
X109822Y103006D01*
X109940Y102863D01*
X110096Y102696D01*
X110189Y102603D01*
X108811D01*
X108904Y102696D01*
X109178Y103006D01*
X109222Y103069D01*
X109256Y103125D01*
X109280Y103175D01*
X109295Y103219D01*
X109300Y103257D01*
X109700D01*
X109705Y103219D01*
D02*
G37*
G36*
X106705Y102719D02*
X106720Y102675D01*
X106744Y102625D01*
X106778Y102569D01*
X106822Y102506D01*
X106940Y102363D01*
X107096Y102196D01*
X107189Y102103D01*
X105811D01*
X105904Y102196D01*
X106178Y102506D01*
X106222Y102569D01*
X106256Y102625D01*
X106280Y102675D01*
X106295Y102719D01*
X106300Y102757D01*
X106700D01*
X106705Y102719D01*
D02*
G37*
G36*
X162502Y102073D02*
X162508Y102007D01*
X162517Y101945D01*
X162530Y101886D01*
X162547Y101830D01*
X162568Y101778D01*
X162593Y101729D01*
X162621Y101684D01*
X162653Y101642D01*
X162689Y101603D01*
X161311D01*
X161347Y101642D01*
X161379Y101684D01*
X161407Y101729D01*
X161432Y101778D01*
X161453Y101830D01*
X161470Y101886D01*
X161483Y101945D01*
X161492Y102007D01*
X161498Y102073D01*
X161500Y102141D01*
X162500D01*
X162502Y102073D01*
D02*
G37*
G36*
X162653Y100158D02*
X162621Y100116D01*
X162593Y100071D01*
X162568Y100022D01*
X162547Y99970D01*
X162530Y99914D01*
X162517Y99855D01*
X162508Y99793D01*
X162502Y99727D01*
X162500Y99659D01*
X161500D01*
X161498Y99727D01*
X161492Y99793D01*
X161483Y99855D01*
X161470Y99914D01*
X161453Y99970D01*
X161432Y100022D01*
X161407Y100071D01*
X161379Y100116D01*
X161347Y100158D01*
X161311Y100197D01*
X162689D01*
X162653Y100158D01*
D02*
G37*
G36*
X60997Y98011D02*
X60904Y98104D01*
X60594Y98378D01*
X60531Y98422D01*
X60475Y98456D01*
X60425Y98480D01*
X60381Y98495D01*
X60343Y98500D01*
Y98900D01*
X60381Y98905D01*
X60425Y98920D01*
X60475Y98944D01*
X60531Y98978D01*
X60594Y99022D01*
X60737Y99140D01*
X60904Y99296D01*
X60997Y99389D01*
Y98011D01*
D02*
G37*
G36*
X25090Y97916D02*
X24959Y97916D01*
X24546Y97890D01*
X24470Y97877D01*
X24406Y97861D01*
X24354Y97843D01*
X24312Y97822D01*
X24282Y97799D01*
X23999Y98082D01*
X24022Y98112D01*
X24043Y98154D01*
X24061Y98206D01*
X24077Y98270D01*
X24090Y98346D01*
X24108Y98530D01*
X24116Y98759D01*
X24116Y98890D01*
X25090Y97916D01*
D02*
G37*
G36*
X162502Y96873D02*
X162508Y96807D01*
X162517Y96745D01*
X162530Y96686D01*
X162547Y96630D01*
X162568Y96578D01*
X162593Y96529D01*
X162621Y96484D01*
X162653Y96442D01*
X162689Y96403D01*
X161311D01*
X161347Y96442D01*
X161379Y96484D01*
X161407Y96529D01*
X161432Y96578D01*
X161453Y96630D01*
X161470Y96686D01*
X161483Y96745D01*
X161492Y96807D01*
X161498Y96873D01*
X161500Y96942D01*
X162500D01*
X162502Y96873D01*
D02*
G37*
G36*
X60997Y95511D02*
X60904Y95604D01*
X60594Y95878D01*
X60531Y95922D01*
X60475Y95956D01*
X60425Y95980D01*
X60381Y95995D01*
X60343Y96000D01*
Y96400D01*
X60381Y96405D01*
X60425Y96420D01*
X60475Y96444D01*
X60531Y96478D01*
X60594Y96522D01*
X60737Y96640D01*
X60904Y96796D01*
X60997Y96889D01*
Y95511D01*
D02*
G37*
G36*
X162061Y94718D02*
X162011Y94712D01*
X161960Y94702D01*
X161910Y94687D01*
X161860Y94668D01*
X161809Y94643D01*
X161759Y94614D01*
X161709Y94580D01*
X161659Y94542D01*
X161608Y94499D01*
X161558Y94451D01*
X160792Y95099D01*
X160839Y95149D01*
X160881Y95200D01*
X160917Y95250D01*
X160948Y95302D01*
X160973Y95354D01*
X160993Y95406D01*
X161008Y95459D01*
X161017Y95512D01*
X161021Y95565D01*
X161019Y95619D01*
X162061Y94718D01*
D02*
G37*
G36*
X60997Y93011D02*
X60904Y93104D01*
X60594Y93378D01*
X60531Y93422D01*
X60475Y93456D01*
X60425Y93480D01*
X60381Y93495D01*
X60343Y93500D01*
Y93900D01*
X60381Y93905D01*
X60425Y93920D01*
X60475Y93944D01*
X60531Y93978D01*
X60594Y94022D01*
X60737Y94140D01*
X60904Y94296D01*
X60997Y94389D01*
Y93011D01*
D02*
G37*
G36*
X53801Y91418D02*
X53778Y91388D01*
X53757Y91346D01*
X53739Y91294D01*
X53723Y91230D01*
X53710Y91154D01*
X53692Y90970D01*
X53684Y90741D01*
X53684Y90610D01*
X52710Y91584D01*
X52841Y91584D01*
X53254Y91610D01*
X53330Y91623D01*
X53394Y91639D01*
X53446Y91657D01*
X53488Y91678D01*
X53518Y91701D01*
X53801Y91418D01*
D02*
G37*
G36*
X52007Y88406D02*
X52206Y88360D01*
X52293Y88347D01*
X52371Y88341D01*
X52440Y88341D01*
X52501Y88348D01*
X52553Y88362D01*
X52597Y88383D01*
X52632Y88411D01*
X52827Y88040D01*
X52813Y88021D01*
X52796Y87988D01*
X52776Y87941D01*
X52726Y87805D01*
X52545Y87224D01*
X51895Y88439D01*
X52007Y88406D01*
D02*
G37*
G36*
X55001Y86618D02*
X54978Y86588D01*
X54957Y86546D01*
X54939Y86494D01*
X54923Y86430D01*
X54910Y86354D01*
X54892Y86170D01*
X54884Y85941D01*
X54884Y85810D01*
X53910Y86784D01*
X54041Y86784D01*
X54454Y86810D01*
X54530Y86823D01*
X54594Y86839D01*
X54646Y86857D01*
X54688Y86878D01*
X54718Y86901D01*
X55001Y86618D01*
D02*
G37*
G36*
X58923Y93123D02*
X59188Y92946D01*
X59500Y92884D01*
X59500Y92884D01*
X60323D01*
X60357Y92803D01*
X60803Y92357D01*
X61385Y92116D01*
X62015D01*
X62784Y91352D01*
Y82565D01*
X62215Y82184D01*
X61585D01*
X61003Y81943D01*
X60557Y81497D01*
X60316Y80915D01*
Y80285D01*
X60557Y79703D01*
X60860Y79400D01*
X60557Y79097D01*
X60316Y78515D01*
Y77885D01*
X60557Y77303D01*
X61003Y76857D01*
X61585Y76616D01*
X62215D01*
X62784Y76235D01*
Y73769D01*
X62784Y73769D01*
X62846Y73457D01*
X63023Y73192D01*
X87752Y48463D01*
X87903Y47443D01*
X87457Y46997D01*
X87216Y46415D01*
Y45785D01*
X87457Y45203D01*
X87903Y44757D01*
X88485Y44516D01*
X89115D01*
X89697Y44757D01*
X90143Y45203D01*
X91163Y45052D01*
X95943Y40272D01*
Y37220D01*
X95245Y36426D01*
X94615D01*
X94032Y36185D01*
X93587Y35740D01*
X93345Y35157D01*
Y34738D01*
X93296Y34705D01*
X92666D01*
X92084Y34464D01*
X91638Y34018D01*
X91397Y33436D01*
Y32806D01*
X91638Y32223D01*
X92084Y31778D01*
X92666Y31537D01*
X93296D01*
X93879Y31778D01*
X94216Y32115D01*
X94720Y32100D01*
X95283Y31924D01*
X95457Y31503D01*
X95903Y31057D01*
X96485Y30816D01*
X97115D01*
X97140Y30826D01*
X97864Y30870D01*
X98347Y30326D01*
X98357Y30303D01*
X98803Y29857D01*
X98902Y29816D01*
X98703Y28816D01*
X81569D01*
X77793Y32592D01*
X78175Y33516D01*
X87632D01*
X87632Y33516D01*
X87944Y33578D01*
X88208Y33755D01*
X90703Y36250D01*
X90785Y36216D01*
X91415D01*
X91997Y36457D01*
X92443Y36903D01*
X92684Y37485D01*
Y38115D01*
X92443Y38697D01*
X91997Y39143D01*
X91415Y39384D01*
X90785D01*
X90203Y39143D01*
X89550Y38900D01*
X89097Y39343D01*
X88515Y39584D01*
X88086D01*
X88057Y39628D01*
Y40258D01*
X87816Y40841D01*
X87370Y41286D01*
X86788Y41528D01*
X86158D01*
X85575Y41286D01*
X85130Y40841D01*
X85096Y40759D01*
X79095D01*
X52569Y67284D01*
X52983Y68284D01*
X54823D01*
X54857Y68203D01*
X55303Y67757D01*
X55885Y67516D01*
X56515D01*
X57097Y67757D01*
X57543Y68203D01*
X57784Y68785D01*
Y69415D01*
X57543Y69997D01*
X57097Y70443D01*
X56515Y70684D01*
X55885D01*
X55303Y70443D01*
X54857Y69997D01*
X54823Y69916D01*
X51938D01*
X50116Y71738D01*
Y85400D01*
X50166Y85465D01*
X51116Y85986D01*
X51285Y85916D01*
X51915D01*
X52487Y85070D01*
X52557Y84903D01*
X53003Y84457D01*
X53585Y84216D01*
X54215D01*
X54797Y84457D01*
X55243Y84903D01*
X55484Y85485D01*
Y86115D01*
X55450Y86197D01*
X57577Y88323D01*
X57577Y88323D01*
X57754Y88588D01*
X57816Y88900D01*
Y92924D01*
X58740Y93307D01*
X58923Y93123D01*
D02*
G37*
G36*
X20500Y83200D02*
Y81200D01*
X19500Y80200D01*
X15000D01*
X14100Y81100D01*
Y83300D01*
X15000Y84200D01*
X19500D01*
X20500Y83200D01*
D02*
G37*
G36*
X157231Y80224D02*
X157184Y80174D01*
X157142Y80124D01*
X157104Y80073D01*
X157072Y80022D01*
X157045Y79971D01*
X157023Y79919D01*
X157005Y79867D01*
X156993Y79815D01*
X156986Y79763D01*
X156984Y79710D01*
X156010Y80684D01*
X156063Y80686D01*
X156115Y80693D01*
X156167Y80705D01*
X156219Y80722D01*
X156271Y80745D01*
X156322Y80772D01*
X156373Y80804D01*
X156424Y80842D01*
X156474Y80884D01*
X156524Y80931D01*
X157231Y80224D01*
D02*
G37*
G36*
X55497Y68411D02*
X55404Y68504D01*
X55094Y68778D01*
X55031Y68822D01*
X54975Y68856D01*
X54925Y68880D01*
X54881Y68895D01*
X54843Y68900D01*
Y69300D01*
X54881Y69305D01*
X54925Y69320D01*
X54975Y69344D01*
X55031Y69378D01*
X55094Y69422D01*
X55237Y69540D01*
X55404Y69696D01*
X55497Y69789D01*
Y68411D01*
D02*
G37*
G36*
X167700Y49200D02*
Y46500D01*
X166900Y45700D01*
X156900Y45700D01*
X155300Y47300D01*
Y48300D01*
X157000Y50000D01*
X166900D01*
X167700Y49200D01*
D02*
G37*
G36*
X85770Y39254D02*
X85677Y39347D01*
X85366Y39621D01*
X85304Y39665D01*
X85248Y39699D01*
X85198Y39724D01*
X85153Y39738D01*
X85115Y39743D01*
Y40143D01*
X85153Y40148D01*
X85198Y40163D01*
X85248Y40187D01*
X85304Y40222D01*
X85366Y40266D01*
X85510Y40383D01*
X85677Y40539D01*
X85770Y40632D01*
Y39254D01*
D02*
G37*
G36*
X46448Y71098D02*
X77731Y39816D01*
X77317Y38816D01*
X73938D01*
X43838Y68916D01*
X44215Y69916D01*
X44797Y70157D01*
X45243Y70603D01*
X45327Y70805D01*
X46316Y71110D01*
X46448Y71098D01*
D02*
G37*
G36*
X87497Y37311D02*
X87404Y37404D01*
X87094Y37678D01*
X87031Y37722D01*
X86975Y37756D01*
X86925Y37780D01*
X86881Y37795D01*
X86843Y37800D01*
Y38200D01*
X86881Y38205D01*
X86925Y38220D01*
X86975Y38244D01*
X87031Y38278D01*
X87094Y38322D01*
X87237Y38440D01*
X87404Y38596D01*
X87497Y38689D01*
Y37311D01*
D02*
G37*
G36*
X91090Y36816D02*
X90959Y36816D01*
X90546Y36790D01*
X90470Y36777D01*
X90406Y36761D01*
X90354Y36743D01*
X90312Y36722D01*
X90282Y36699D01*
X89999Y36982D01*
X90022Y37012D01*
X90043Y37054D01*
X90061Y37106D01*
X90077Y37170D01*
X90090Y37246D01*
X90108Y37430D01*
X90116Y37659D01*
X90116Y37790D01*
X91090Y36816D01*
D02*
G37*
G36*
X96964Y33726D02*
X96979Y33681D01*
X97004Y33631D01*
X97039Y33576D01*
X97084Y33515D01*
X97139Y33449D01*
X97279Y33301D01*
X97459Y33131D01*
X96082Y33073D01*
X96173Y33172D01*
X96440Y33496D01*
X96482Y33560D01*
X96516Y33617D01*
X96540Y33668D01*
X96554Y33711D01*
X96559Y33748D01*
X96959Y33765D01*
X96964Y33726D01*
D02*
G37*
G36*
X99905Y32519D02*
X99920Y32475D01*
X99944Y32425D01*
X99978Y32369D01*
X100022Y32306D01*
X100140Y32163D01*
X100296Y31996D01*
X100389Y31903D01*
X99011D01*
X99104Y31996D01*
X99378Y32306D01*
X99422Y32369D01*
X99456Y32425D01*
X99480Y32475D01*
X99495Y32519D01*
X99500Y32557D01*
X99900D01*
X99905Y32519D01*
D02*
G37*
%LPC*%
G36*
X126415Y182984D02*
X125785D01*
X125203Y182743D01*
X124800Y182341D01*
X124397Y182743D01*
X123815Y182984D01*
X123185D01*
X122603Y182743D01*
X122427Y182567D01*
X122100Y182337D01*
X121773Y182567D01*
X121597Y182743D01*
X121015Y182984D01*
X120385D01*
X119803Y182743D01*
X119677Y182617D01*
X119350Y182304D01*
X119023Y182617D01*
X118897Y182743D01*
X118315Y182984D01*
X117685D01*
X117103Y182743D01*
X116700Y182341D01*
X116297Y182743D01*
X115715Y182984D01*
X115085D01*
X114503Y182743D01*
X114100Y182341D01*
X113697Y182743D01*
X113115Y182984D01*
X112485D01*
X111903Y182743D01*
X111457Y182297D01*
X111216Y181715D01*
Y181085D01*
X111457Y180503D01*
X111583Y180377D01*
X111896Y180050D01*
X111583Y179723D01*
X111457Y179597D01*
X111216Y179015D01*
Y178385D01*
X111457Y177803D01*
X111633Y177627D01*
X111863Y177300D01*
X111633Y176973D01*
X111457Y176797D01*
X111216Y176215D01*
Y175585D01*
X111457Y175003D01*
X111583Y174877D01*
X111896Y174550D01*
X111583Y174223D01*
X111457Y174097D01*
X111216Y173515D01*
Y172885D01*
X111457Y172303D01*
X111683Y172077D01*
X111848Y171750D01*
X111683Y171423D01*
X111457Y171197D01*
X111216Y170615D01*
Y169985D01*
X111457Y169403D01*
X111633Y169227D01*
X111863Y168900D01*
X111633Y168573D01*
X111457Y168397D01*
X111216Y167815D01*
Y167185D01*
X111457Y166603D01*
X111903Y166157D01*
X112485Y165916D01*
X113115D01*
X113697Y166157D01*
X114100Y166560D01*
X114503Y166157D01*
X115085Y165916D01*
X115715D01*
X116297Y166157D01*
X116700Y166560D01*
X117103Y166157D01*
X117685Y165916D01*
X118315D01*
X118897Y166157D01*
X119023Y166283D01*
X119350Y166596D01*
X119677Y166283D01*
X119803Y166157D01*
X120385Y165916D01*
X121015D01*
X121597Y166157D01*
X121773Y166333D01*
X122100Y166563D01*
X122427Y166333D01*
X122603Y166157D01*
X123185Y165916D01*
X123815D01*
X124397Y166157D01*
X124800Y166560D01*
X125203Y166157D01*
X125785Y165916D01*
X126415D01*
X126997Y166157D01*
X127443Y166603D01*
X127684Y167185D01*
Y167815D01*
X127443Y168397D01*
X127267Y168573D01*
X127037Y168900D01*
X127267Y169227D01*
X127443Y169403D01*
X127684Y169985D01*
Y170615D01*
X127443Y171197D01*
X127217Y171423D01*
X127052Y171750D01*
X127217Y172077D01*
X127443Y172303D01*
X127684Y172885D01*
Y173515D01*
X127443Y174097D01*
X127317Y174223D01*
X127004Y174550D01*
X127317Y174877D01*
X127443Y175003D01*
X127684Y175585D01*
Y176215D01*
X127443Y176797D01*
X127267Y176973D01*
X127037Y177300D01*
X127267Y177627D01*
X127443Y177803D01*
X127684Y178385D01*
Y179015D01*
X127443Y179597D01*
X127317Y179723D01*
X127004Y180050D01*
X127317Y180377D01*
X127443Y180503D01*
X127684Y181085D01*
Y181715D01*
X127443Y182297D01*
X126997Y182743D01*
X126415Y182984D01*
D02*
G37*
G36*
X138259Y180897D02*
X137406D01*
X137365Y180880D01*
X137322Y180888D01*
X136485Y180722D01*
X136448Y180697D01*
X136404D01*
X135616Y180371D01*
X135584Y180340D01*
X135541Y180331D01*
X134832Y179857D01*
X134807Y179820D01*
X134766Y179803D01*
X134163Y179200D01*
X134146Y179159D01*
X134109Y179134D01*
X133635Y178425D01*
X133626Y178382D01*
X133595Y178350D01*
X133268Y177562D01*
Y177518D01*
X133244Y177481D01*
X133077Y176644D01*
X133086Y176601D01*
X133069Y176560D01*
Y175707D01*
X133086Y175666D01*
X133077Y175622D01*
X133244Y174785D01*
X133268Y174749D01*
Y174704D01*
X133595Y173916D01*
X133626Y173885D01*
X133635Y173841D01*
X134109Y173132D01*
X134146Y173107D01*
X134163Y173066D01*
X134766Y172463D01*
X134807Y172446D01*
X134832Y172409D01*
X135541Y171935D01*
X135584Y171927D01*
X135616Y171895D01*
X136404Y171569D01*
X136448D01*
X136485Y171544D01*
X137322Y171378D01*
X137365Y171386D01*
X137406Y171369D01*
X138259D01*
X138300Y171386D01*
X138344Y171378D01*
X139180Y171544D01*
X139217Y171569D01*
X139262D01*
X140050Y171895D01*
X140081Y171927D01*
X140125Y171935D01*
X140834Y172409D01*
X140858Y172446D01*
X140900Y172463D01*
X141503Y173066D01*
X141520Y173107D01*
X141557Y173132D01*
X142031Y173841D01*
X142039Y173885D01*
X142070Y173916D01*
X142397Y174704D01*
Y174749D01*
X142422Y174785D01*
X142588Y175622D01*
X142579Y175666D01*
X142596Y175707D01*
Y176560D01*
X142579Y176601D01*
X142588Y176644D01*
X142422Y177481D01*
X142397Y177518D01*
Y177562D01*
X142070Y178350D01*
X142039Y178382D01*
X142031Y178425D01*
X141557Y179134D01*
X141520Y179159D01*
X141503Y179200D01*
X140900Y179803D01*
X140858Y179820D01*
X140834Y179857D01*
X140125Y180331D01*
X140081Y180340D01*
X140050Y180371D01*
X139262Y180697D01*
X139217D01*
X139180Y180722D01*
X138344Y180888D01*
X138300Y180880D01*
X138259Y180897D01*
D02*
G37*
G36*
X165715Y151084D02*
X165085D01*
X164503Y150843D01*
X164057Y150397D01*
X163816Y149815D01*
Y149185D01*
X164057Y148603D01*
X164503Y148157D01*
X165085Y147916D01*
X165715D01*
X166297Y148157D01*
X166743Y148603D01*
X166984Y149185D01*
Y149815D01*
X166743Y150397D01*
X166297Y150843D01*
X165715Y151084D01*
D02*
G37*
G36*
X174715Y162484D02*
X174085D01*
X173503Y162243D01*
X173057Y161797D01*
X172816Y161215D01*
Y160585D01*
X173057Y160003D01*
X173503Y159557D01*
X173584Y159523D01*
Y143642D01*
X171283Y141341D01*
X170343Y140997D01*
X169897Y141443D01*
X169315Y141684D01*
X168685D01*
X168103Y141443D01*
X167657Y140997D01*
X167416Y140415D01*
Y139785D01*
X167657Y139203D01*
X168103Y138757D01*
X168685Y138516D01*
X169315D01*
X169897Y138757D01*
X170343Y139203D01*
X170377Y139284D01*
X171196D01*
X171196Y139284D01*
X171508Y139346D01*
X171773Y139523D01*
X174977Y142727D01*
X174977Y142727D01*
X175154Y142992D01*
X175216Y143304D01*
Y159523D01*
X175297Y159557D01*
X175743Y160003D01*
X175984Y160585D01*
Y161215D01*
X175743Y161797D01*
X175297Y162243D01*
X174715Y162484D01*
D02*
G37*
G36*
X168515Y135884D02*
X167885D01*
X167303Y135643D01*
X166900Y135240D01*
X166497Y135643D01*
X165915Y135884D01*
X165285D01*
X164703Y135643D01*
X164200Y135243D01*
X163697Y135643D01*
X163115Y135884D01*
X162485D01*
X161903Y135643D01*
X160997D01*
X160714Y135761D01*
X160415Y135884D01*
X159785D01*
X159203Y135643D01*
X158800Y135240D01*
X158397Y135643D01*
X157815Y135884D01*
X157185D01*
X156603Y135643D01*
X156200Y135240D01*
X155797Y135643D01*
X155215Y135884D01*
X154585D01*
X154003Y135643D01*
X153557Y135197D01*
X153316Y134615D01*
Y133985D01*
X153557Y133403D01*
Y132497D01*
X153439Y132214D01*
X153316Y131915D01*
Y131285D01*
X153557Y130703D01*
X153957Y130200D01*
X153557Y129697D01*
X153316Y129115D01*
Y128485D01*
X153557Y127903D01*
X154003Y127457D01*
X154585Y127216D01*
X155215D01*
X155797Y127457D01*
X156200Y127859D01*
X156603Y127457D01*
X157185Y127216D01*
X157815D01*
X158397Y127457D01*
X158800Y127859D01*
X159203Y127457D01*
X159785Y127216D01*
X160415D01*
X160997Y127457D01*
X161903D01*
X162186Y127339D01*
X162485Y127216D01*
X163115D01*
X163697Y127457D01*
X164200Y127857D01*
X164703Y127457D01*
X165285Y127216D01*
X165915D01*
X166497Y127457D01*
X166900Y127859D01*
X167303Y127457D01*
X167885Y127216D01*
X168515D01*
X169097Y127457D01*
X169543Y127903D01*
X169784Y128485D01*
Y129115D01*
X169543Y129697D01*
X169143Y130200D01*
X169543Y130703D01*
X169784Y131285D01*
Y131915D01*
X169543Y132497D01*
Y133403D01*
X169661Y133686D01*
X169784Y133985D01*
Y134615D01*
X169543Y135197D01*
X169097Y135643D01*
X168515Y135884D01*
D02*
G37*
G36*
X180115Y132484D02*
X179485D01*
X178903Y132243D01*
X178457Y131797D01*
X178216Y131215D01*
Y130585D01*
X178457Y130003D01*
X178903Y129557D01*
X179485Y129316D01*
X180115D01*
X180697Y129557D01*
X181143Y130003D01*
X181384Y130585D01*
Y131215D01*
X181143Y131797D01*
X180697Y132243D01*
X180115Y132484D01*
D02*
G37*
G36*
Y125984D02*
X179485D01*
X178903Y125743D01*
X178457Y125297D01*
X178216Y124715D01*
Y124085D01*
X178457Y123503D01*
X178903Y123057D01*
X179485Y122816D01*
X180115D01*
X180697Y123057D01*
X181143Y123503D01*
X181384Y124085D01*
Y124715D01*
X181143Y125297D01*
X180697Y125743D01*
X180115Y125984D01*
D02*
G37*
G36*
X182015Y118084D02*
X181385D01*
X180803Y117843D01*
X180357Y117397D01*
X180116Y116815D01*
Y116185D01*
X180357Y115603D01*
X180803Y115157D01*
X181385Y114916D01*
X182015D01*
X182597Y115157D01*
X183043Y115603D01*
X183284Y116185D01*
Y116815D01*
X183043Y117397D01*
X182597Y117843D01*
X182015Y118084D01*
D02*
G37*
G36*
X176915Y117784D02*
X176285D01*
X175703Y117543D01*
X175257Y117097D01*
X175016Y116515D01*
Y115885D01*
X175257Y115303D01*
X175703Y114857D01*
X176285Y114616D01*
X176915D01*
X177497Y114857D01*
X177943Y115303D01*
X178184Y115885D01*
Y116515D01*
X177943Y117097D01*
X177497Y117543D01*
X176915Y117784D01*
D02*
G37*
G36*
X51315Y102784D02*
X50685D01*
X50103Y102543D01*
X49657Y102097D01*
X49416Y101515D01*
Y100885D01*
X49657Y100303D01*
X50103Y99857D01*
X50685Y99616D01*
X51315D01*
X51897Y99857D01*
X52343Y100303D01*
X52584Y100885D01*
Y101515D01*
X52343Y102097D01*
X51897Y102543D01*
X51315Y102784D01*
D02*
G37*
G36*
X17140Y72657D02*
X16286D01*
X16245Y72640D01*
X16202Y72649D01*
X15365Y72482D01*
X15328Y72458D01*
X15284D01*
X14496Y72131D01*
X14465Y72100D01*
X14421Y72091D01*
X13712Y71617D01*
X13687Y71580D01*
X13646Y71564D01*
X13043Y70960D01*
X13026Y70919D01*
X12989Y70895D01*
X12515Y70185D01*
X12506Y70142D01*
X12475Y70110D01*
X12149Y69322D01*
Y69278D01*
X12124Y69241D01*
X11958Y68405D01*
X11966Y68361D01*
X11949Y68320D01*
Y67467D01*
X11966Y67426D01*
X11958Y67383D01*
X12124Y66546D01*
X12149Y66509D01*
Y66465D01*
X12475Y65676D01*
X12506Y65645D01*
X12515Y65602D01*
X12989Y64892D01*
X13026Y64868D01*
X13043Y64827D01*
X13646Y64223D01*
X13687Y64206D01*
X13712Y64170D01*
X14421Y63696D01*
X14465Y63687D01*
X14496Y63656D01*
X15284Y63329D01*
X15328D01*
X15365Y63305D01*
X16202Y63138D01*
X16245Y63147D01*
X16286Y63130D01*
X17140D01*
X17180Y63147D01*
X17224Y63138D01*
X18061Y63305D01*
X18098Y63329D01*
X18142D01*
X18930Y63656D01*
X18961Y63687D01*
X19005Y63696D01*
X19714Y64170D01*
X19739Y64206D01*
X19780Y64223D01*
X20383Y64827D01*
X20400Y64868D01*
X20437Y64892D01*
X20911Y65602D01*
X20919Y65645D01*
X20951Y65676D01*
X21277Y66465D01*
Y66509D01*
X21302Y66546D01*
X21468Y67383D01*
X21460Y67426D01*
X21477Y67467D01*
Y68320D01*
X21460Y68361D01*
X21468Y68405D01*
X21302Y69241D01*
X21277Y69278D01*
Y69322D01*
X20951Y70110D01*
X20919Y70142D01*
X20911Y70185D01*
X20437Y70895D01*
X20400Y70919D01*
X20383Y70960D01*
X19780Y71564D01*
X19739Y71580D01*
X19714Y71617D01*
X19005Y72091D01*
X18961Y72100D01*
X18930Y72131D01*
X18142Y72458D01*
X18098D01*
X18061Y72482D01*
X17224Y72649D01*
X17180Y72640D01*
X17140Y72657D01*
D02*
G37*
G36*
X169215Y71184D02*
X168585D01*
X168003Y70943D01*
X167557Y70497D01*
X167316Y69915D01*
Y69285D01*
X167557Y68703D01*
X168003Y68257D01*
X168585Y68016D01*
X169215D01*
X169797Y68257D01*
X170243Y68703D01*
X170484Y69285D01*
Y69915D01*
X170243Y70497D01*
X169797Y70943D01*
X169215Y71184D01*
D02*
G37*
G36*
X159315Y71284D02*
X158685D01*
X158103Y71043D01*
X157657Y70597D01*
X157416Y70015D01*
Y69385D01*
X157657Y68803D01*
X158103Y68357D01*
X158685Y68116D01*
X159315D01*
X159897Y68357D01*
X160500Y68673D01*
X161003Y68257D01*
X161585Y68016D01*
X162215D01*
X162797Y68257D01*
X163243Y68703D01*
X163484Y69285D01*
Y69915D01*
X163243Y70497D01*
X162797Y70943D01*
X162215Y71184D01*
X161585D01*
X161003Y70943D01*
X160400Y70627D01*
X159897Y71043D01*
X159315Y71284D01*
D02*
G37*
G36*
X30715Y61984D02*
X30085D01*
X29503Y61743D01*
X29057Y61297D01*
X28816Y60715D01*
Y60085D01*
X29057Y59503D01*
X29503Y59057D01*
X30085Y58816D01*
X30715D01*
X31297Y59057D01*
X31743Y59503D01*
X31984Y60085D01*
Y60715D01*
X31743Y61297D01*
X31297Y61743D01*
X30715Y61984D01*
D02*
G37*
G36*
X167115Y55884D02*
X166485D01*
X165903Y55643D01*
X165457Y55197D01*
X165216Y54615D01*
Y53985D01*
X165457Y53403D01*
X165903Y52957D01*
X166485Y52716D01*
X167115D01*
X167697Y52957D01*
X168143Y53403D01*
X168384Y53985D01*
Y54615D01*
X168143Y55197D01*
X167697Y55643D01*
X167115Y55884D01*
D02*
G37*
G36*
X144315Y49684D02*
X143685D01*
X143103Y49443D01*
X142657Y48997D01*
X142416Y48415D01*
X141785Y47884D01*
X141203Y47643D01*
X140757Y47197D01*
X140516Y46615D01*
X140515Y45985D01*
X139885Y45984D01*
X139303Y45743D01*
X138857Y45297D01*
X137815Y45184D01*
X137185D01*
X136603Y44943D01*
X136157Y44497D01*
X135916Y43915D01*
Y43285D01*
X136157Y42703D01*
X136603Y42257D01*
X137185Y42016D01*
X137815D01*
X138397Y42257D01*
X138843Y42703D01*
X139885Y42816D01*
X140515D01*
X141097Y43057D01*
X141543Y43503D01*
X141784Y44085D01*
X141785Y44715D01*
X142415Y44716D01*
X142997Y44957D01*
X143443Y45403D01*
X143684Y45985D01*
X144315Y46516D01*
X144897Y46757D01*
X145343Y47203D01*
X145584Y47785D01*
Y48415D01*
X145343Y48997D01*
X144897Y49443D01*
X144315Y49684D01*
D02*
G37*
G36*
X132215Y44984D02*
X131585D01*
X131003Y44743D01*
X130557Y44297D01*
X130316Y43715D01*
Y43085D01*
X130557Y42503D01*
X131003Y42057D01*
X131585Y41816D01*
X132215D01*
X132797Y42057D01*
X133243Y42503D01*
X133484Y43085D01*
Y43715D01*
X133243Y44297D01*
X132797Y44743D01*
X132215Y44984D01*
D02*
G37*
G36*
X138259Y19479D02*
X137406D01*
X137365Y19463D01*
X137322Y19471D01*
X136485Y19305D01*
X136448Y19280D01*
X136404D01*
X135616Y18954D01*
X135584Y18922D01*
X135541Y18914D01*
X134832Y18440D01*
X134807Y18403D01*
X134766Y18386D01*
X134163Y17783D01*
X134146Y17742D01*
X134109Y17717D01*
X133635Y17008D01*
X133626Y16964D01*
X133595Y16933D01*
X133268Y16145D01*
Y16100D01*
X133244Y16063D01*
X133077Y15227D01*
X133086Y15183D01*
X133069Y15142D01*
Y14289D01*
X133086Y14248D01*
X133077Y14205D01*
X133244Y13368D01*
X133268Y13331D01*
Y13287D01*
X133595Y12499D01*
X133626Y12467D01*
X133635Y12424D01*
X134109Y11715D01*
X134146Y11690D01*
X134163Y11649D01*
X134766Y11046D01*
X134807Y11029D01*
X134832Y10992D01*
X135541Y10518D01*
X135584Y10509D01*
X135616Y10478D01*
X136404Y10152D01*
X136448D01*
X136485Y10127D01*
X137322Y9960D01*
X137365Y9969D01*
X137406Y9952D01*
X138259D01*
X138300Y9969D01*
X138344Y9960D01*
X139180Y10127D01*
X139217Y10152D01*
X139262D01*
X140050Y10478D01*
X140081Y10509D01*
X140125Y10518D01*
X140834Y10992D01*
X140858Y11029D01*
X140900Y11046D01*
X141503Y11649D01*
X141520Y11690D01*
X141557Y11715D01*
X142031Y12424D01*
X142039Y12467D01*
X142070Y12499D01*
X142397Y13287D01*
Y13331D01*
X142422Y13368D01*
X142588Y14205D01*
X142579Y14248D01*
X142596Y14289D01*
Y15142D01*
X142579Y15183D01*
X142588Y15227D01*
X142422Y16063D01*
X142397Y16100D01*
Y16145D01*
X142070Y16933D01*
X142039Y16964D01*
X142031Y17008D01*
X141557Y17717D01*
X141520Y17742D01*
X141503Y17783D01*
X140900Y18386D01*
X140858Y18403D01*
X140834Y18440D01*
X140125Y18914D01*
X140081Y18922D01*
X140050Y18954D01*
X139262Y19280D01*
X139217D01*
X139180Y19305D01*
X138344Y19471D01*
X138300Y19463D01*
X138259Y19479D01*
D02*
G37*
%LPD*%
G36*
X174996Y160104D02*
X174722Y159794D01*
X174678Y159731D01*
X174644Y159675D01*
X174620Y159625D01*
X174605Y159581D01*
X174600Y159543D01*
X174200D01*
X174195Y159581D01*
X174180Y159625D01*
X174156Y159675D01*
X174122Y159731D01*
X174078Y159794D01*
X173960Y159937D01*
X173804Y160104D01*
X173711Y160197D01*
X175089D01*
X174996Y160104D01*
D02*
G37*
G36*
X169796Y140696D02*
X170106Y140422D01*
X170169Y140378D01*
X170225Y140344D01*
X170275Y140320D01*
X170319Y140305D01*
X170357Y140300D01*
Y139900D01*
X170319Y139895D01*
X170275Y139880D01*
X170225Y139856D01*
X170169Y139822D01*
X170106Y139778D01*
X169963Y139660D01*
X169796Y139504D01*
X169703Y139411D01*
Y140789D01*
X169796Y140696D01*
D02*
G37*
%LPC*%
G36*
X109015Y88084D02*
X108385D01*
X107803Y87843D01*
X107357Y87397D01*
X107116Y86815D01*
Y86185D01*
X107357Y85603D01*
X107803Y85157D01*
X108385Y84916D01*
X109015D01*
X109597Y85157D01*
X110043Y85603D01*
X110284Y86185D01*
Y86815D01*
X110043Y87397D01*
X109597Y87843D01*
X109015Y88084D01*
D02*
G37*
G36*
X103015Y86484D02*
X102385D01*
X101803Y86243D01*
X101357Y85797D01*
X101116Y85215D01*
Y84585D01*
X101357Y84003D01*
X101803Y83557D01*
X102385Y83316D01*
X103015D01*
X103597Y83557D01*
X104043Y84003D01*
X104284Y84585D01*
Y85215D01*
X104043Y85797D01*
X103597Y86243D01*
X103015Y86484D01*
D02*
G37*
G36*
X111815Y49384D02*
X111185D01*
X110603Y49143D01*
X110157Y48697D01*
X109916Y48115D01*
Y47485D01*
X110157Y46903D01*
X110603Y46457D01*
X111185Y46216D01*
X111815D01*
X112397Y46457D01*
X112843Y46903D01*
X113084Y47485D01*
Y48115D01*
X112843Y48697D01*
X112397Y49143D01*
X111815Y49384D01*
D02*
G37*
G36*
X63015Y63884D02*
X62385D01*
X61803Y63643D01*
X61357Y63197D01*
X61116Y62615D01*
Y61985D01*
X61357Y61403D01*
X61803Y60957D01*
X62385Y60716D01*
X63015D01*
X63597Y60957D01*
X64043Y61403D01*
X64284Y61985D01*
Y62615D01*
X64043Y63197D01*
X63597Y63643D01*
X63015Y63884D01*
D02*
G37*
G36*
X77815Y53384D02*
X77185D01*
X76603Y53143D01*
X76157Y52697D01*
X75916Y52115D01*
Y51485D01*
X76157Y50903D01*
X76603Y50457D01*
X77185Y50216D01*
X77815Y50215D01*
X77916Y49585D01*
X78157Y49003D01*
X78603Y48557D01*
X79185Y48316D01*
X79815D01*
X80397Y48557D01*
X80843Y49003D01*
X81084Y49585D01*
Y50215D01*
X80843Y50797D01*
X80397Y51243D01*
X79815Y51484D01*
X79185Y51485D01*
X79084Y52115D01*
X78843Y52697D01*
X78397Y53143D01*
X77815Y53384D01*
D02*
G37*
%LPD*%
D14*
X156000Y79700D02*
X159500Y83200D01*
X162000Y95700D02*
Y100900D01*
X159500Y93100D02*
X162100Y95700D01*
X159500Y83200D02*
Y93100D01*
X162000Y100900D02*
Y106000D01*
D74*
X51600Y69100D02*
X56300D01*
X49300Y71400D02*
X51600Y69100D01*
X49300Y90300D02*
X54500Y95500D01*
X49300Y71400D02*
Y90300D01*
X95600Y140100D02*
X98100Y142600D01*
X82494Y140100D02*
X95600D01*
X67125Y123600D02*
X82726Y139200D01*
X97400D01*
X101500Y143300D01*
X66794Y124400D02*
X82494Y140100D01*
X94500Y141800D02*
X94600Y141900D01*
X83063Y141800D02*
X94500D01*
X66463Y125200D02*
X83063Y141800D01*
X154200Y70900D02*
Y90600D01*
X144000Y100800D02*
X154200Y90600D01*
X110500Y27200D02*
X154200Y70900D01*
X143669Y99900D02*
X153300Y90269D01*
X110169Y28000D02*
X153300Y71131D01*
Y90269D01*
X64500Y105800D02*
X65700Y107000D01*
X64500Y74000D02*
X99700Y38800D01*
X64500Y74000D02*
Y105800D01*
X63600Y73769D02*
X96759Y40610D01*
X63600Y73769D02*
Y106100D01*
X64800Y107300D01*
X65700Y107000D02*
Y118600D01*
X64800Y107300D02*
Y116600D01*
X64500Y119800D02*
X65700Y118600D01*
X63500Y117900D02*
X64800Y116600D01*
X63000Y119800D02*
X64500D01*
X61500Y117900D02*
X63500D01*
X59500Y93700D02*
X61700D01*
X58000Y95200D02*
X59500Y93700D01*
X61500Y98700D02*
X61600Y98600D01*
X60200Y98700D02*
X61500D01*
X59616Y99284D02*
X60200Y98700D01*
X59616Y99284D02*
Y121584D01*
X59400Y96200D02*
X61700D01*
X58800Y96800D02*
X59400Y96200D01*
X171196Y140100D02*
X174400Y143304D01*
X169000Y140100D02*
X171196D01*
X174400Y143304D02*
Y160900D01*
X106500Y101600D02*
Y106000D01*
X107700Y107200D02*
X118300D01*
X106500Y106000D02*
X107700Y107200D01*
X118300D02*
X124700Y100800D01*
X144000D01*
X117869Y106400D02*
X124369Y99900D01*
X110500Y106400D02*
X117869D01*
X124369Y99900D02*
X143669D01*
X81231Y28000D02*
X110169D01*
X80900Y27200D02*
X110500D01*
X22500Y86731D02*
X81231Y28000D01*
X21700Y86400D02*
X80900Y27200D01*
X22500Y86731D02*
Y96300D01*
X21700Y86400D02*
Y108900D01*
X23300Y110500D01*
X22500Y96300D02*
X25100Y98900D01*
X66166Y126034D02*
X86881Y146750D01*
X60600Y125200D02*
X66463D01*
X87500Y150400D02*
X90500D01*
X65834Y126834D02*
X86550Y147550D01*
X96600Y153800D02*
X98300D01*
X61300Y124400D02*
X66794D01*
X86881Y146750D02*
X94330D01*
X57666Y126834D02*
X65834D01*
X86550Y147550D02*
X90350D01*
X96600Y153800D01*
X61631Y123600D02*
X67125D01*
X57997Y126034D02*
X66166D01*
X64900Y127800D02*
X87500Y150400D01*
X57500Y127800D02*
X64900D01*
X64569Y128600D02*
X90000Y154031D01*
Y154500D01*
X57169Y128600D02*
X64569D01*
X59616Y121584D02*
X61631Y123600D01*
X58800Y96800D02*
Y121900D01*
X61300Y124400D01*
X58000Y122600D02*
X60600Y125200D01*
X54500Y95500D02*
Y125931D01*
X53900Y85800D02*
X57000Y88900D01*
X55300Y93200D02*
Y125600D01*
X58000Y95200D02*
Y122600D01*
X56100Y91596D02*
Y125269D01*
X57000Y88900D02*
Y125037D01*
X54500Y125931D02*
X57169Y128600D01*
X52700Y90600D02*
X55300Y93200D01*
X52004Y87500D02*
X56100Y91596D01*
Y125269D02*
X57666Y126834D01*
X57000Y125037D02*
X57997Y126034D01*
X55300Y125600D02*
X57500Y127800D01*
X96759Y32441D02*
X96800Y32400D01*
X96759Y32441D02*
Y40610D01*
X99700Y31200D02*
Y38800D01*
X109500Y105400D02*
X110500Y106400D01*
X109500Y101900D02*
Y105400D01*
X86457Y39943D02*
X86500Y39900D01*
X78757Y39943D02*
X86457D01*
X41600Y77100D02*
X78757Y39943D01*
X41600Y77100D02*
Y105600D01*
X43000Y107000D01*
X43100D01*
X37300Y73169D02*
X76137Y34332D01*
X38100Y106769D02*
X40331Y109000D01*
X37300Y73169D02*
Y107100D01*
X38100Y73500D02*
X73600Y38000D01*
X37300Y107100D02*
X41100Y110900D01*
X38100Y73500D02*
Y106769D01*
X87632Y34332D02*
X91100Y37800D01*
X76137Y34332D02*
X87632D01*
X73600Y38000D02*
X88200D01*
X40331Y109000D02*
X45100D01*
X42700Y110900D02*
X42800Y111000D01*
X41100Y110900D02*
X42700D01*
X94330Y146750D02*
X101355Y153775D01*
X51600Y87500D02*
X52004D01*
D78*
X149300Y17000D02*
D03*
X152000D02*
D03*
X154800D02*
D03*
X157400D02*
D03*
X149300Y19800D02*
D03*
X152000D02*
D03*
X154800D02*
D03*
X157400D02*
D03*
X149300Y22600D02*
D03*
X152000D02*
D03*
X154800D02*
D03*
X157400D02*
D03*
X62700Y62300D02*
D03*
X51500Y72300D02*
D03*
X56200Y69100D02*
D03*
X93600Y154000D02*
D03*
X110500Y95600D02*
D03*
X108500Y94000D02*
D03*
X106800Y95700D02*
D03*
X79500Y49900D02*
D03*
X83200Y48900D02*
D03*
X102200Y29800D02*
D03*
X66200Y39200D02*
D03*
X156600Y91100D02*
D03*
X137500Y43600D02*
D03*
X118700Y41300D02*
D03*
X116200D02*
D03*
X113700D02*
D03*
X111100D02*
D03*
X108700D02*
D03*
X118600Y43800D02*
D03*
X116100D02*
D03*
X113600D02*
D03*
X111100D02*
D03*
X108600D02*
D03*
X111500Y47800D02*
D03*
X156000Y79700D02*
D03*
X142500Y55000D02*
D03*
X61900Y103600D02*
D03*
Y91100D02*
D03*
Y88500D02*
D03*
Y78200D02*
D03*
Y80600D02*
D03*
X63130Y108172D02*
D03*
X63200Y112000D02*
D03*
X63000Y115900D02*
D03*
Y119800D02*
D03*
X61700Y93700D02*
D03*
Y98700D02*
D03*
Y96200D02*
D03*
X144400Y57100D02*
D03*
X146400Y59000D02*
D03*
X148400Y61000D02*
D03*
X166800Y54300D02*
D03*
X166000Y47800D02*
D03*
X163200D02*
D03*
X160500D02*
D03*
X157900D02*
D03*
X144000Y48100D02*
D03*
X142100Y46300D02*
D03*
X140200Y44400D02*
D03*
X131900Y43400D02*
D03*
X131600Y24100D02*
D03*
X102600Y16800D02*
D03*
X80400Y16700D02*
D03*
X93800Y16800D02*
D03*
X91200D02*
D03*
X88400D02*
D03*
X85700D02*
D03*
X83100D02*
D03*
X93800Y14000D02*
D03*
X91200D02*
D03*
X88400D02*
D03*
X85700D02*
D03*
X83100D02*
D03*
X80500D02*
D03*
X93800Y11200D02*
D03*
X91200D02*
D03*
X88400D02*
D03*
X85700D02*
D03*
X83100D02*
D03*
X80500D02*
D03*
X116100Y16800D02*
D03*
X113500D02*
D03*
X110700D02*
D03*
X108000D02*
D03*
X105400D02*
D03*
X116100Y14000D02*
D03*
X113500D02*
D03*
X110700D02*
D03*
X108000D02*
D03*
X105400D02*
D03*
X102800D02*
D03*
X116100Y11200D02*
D03*
X113500D02*
D03*
X110700D02*
D03*
X108000D02*
D03*
X105400D02*
D03*
X102800D02*
D03*
X169000Y140100D02*
D03*
X174500Y79100D02*
D03*
X96000Y144600D02*
D03*
X99400Y145800D02*
D03*
X15600Y82300D02*
D03*
X18300D02*
D03*
X30400Y60400D02*
D03*
X147900Y92500D02*
D03*
X194700Y122100D02*
D03*
Y125000D02*
D03*
Y127900D02*
D03*
X194600Y130700D02*
D03*
X191900Y122100D02*
D03*
Y125000D02*
D03*
Y127900D02*
D03*
Y130800D02*
D03*
Y133700D02*
D03*
X176600Y116200D02*
D03*
X179800Y124400D02*
D03*
Y130900D02*
D03*
X162700Y125000D02*
D03*
X168100Y116700D02*
D03*
X154900Y128800D02*
D03*
X160000Y125000D02*
D03*
X160100Y131600D02*
D03*
X165600Y134300D02*
D03*
Y128800D02*
D03*
X168200Y134300D02*
D03*
X162800Y128800D02*
D03*
Y131600D02*
D03*
X154800Y119500D02*
D03*
X162700D02*
D03*
Y116700D02*
D03*
X165500Y113900D02*
D03*
X157400Y119500D02*
D03*
X165500Y125000D02*
D03*
X160000Y122300D02*
D03*
X154800Y125000D02*
D03*
X157400Y113900D02*
D03*
Y125000D02*
D03*
X168100Y119500D02*
D03*
X160100Y128800D02*
D03*
X157500Y131600D02*
D03*
X165600D02*
D03*
X154900Y134300D02*
D03*
X154800Y116700D02*
D03*
X154900Y131600D02*
D03*
X162800Y134300D02*
D03*
X157400Y122300D02*
D03*
X168100D02*
D03*
X160000Y116700D02*
D03*
X168200Y128800D02*
D03*
X162700Y113900D02*
D03*
X160100Y134300D02*
D03*
X162700Y122300D02*
D03*
X154800Y113900D02*
D03*
X168200Y131600D02*
D03*
X154800Y122300D02*
D03*
X168100Y125000D02*
D03*
X160000Y119500D02*
D03*
X157400Y116700D02*
D03*
X165500Y122300D02*
D03*
X160000Y113900D02*
D03*
X165500Y116700D02*
D03*
X168100Y113900D02*
D03*
X157500Y134300D02*
D03*
X165500Y119500D02*
D03*
X157500Y128800D02*
D03*
X146200Y139400D02*
D03*
X143400D02*
D03*
X135500D02*
D03*
X140700D02*
D03*
X138100D02*
D03*
X139300Y142100D02*
D03*
X144800D02*
D03*
X136700D02*
D03*
X134100D02*
D03*
X142000D02*
D03*
X146200Y145000D02*
D03*
X138100D02*
D03*
X135500D02*
D03*
X140700D02*
D03*
X143400D02*
D03*
X130500Y91300D02*
D03*
X108700Y86500D02*
D03*
X30000Y74100D02*
D03*
X94100Y99700D02*
D03*
X100100Y108100D02*
D03*
X137000Y147700D02*
D03*
X139600D02*
D03*
X142200D02*
D03*
X144900D02*
D03*
X147700D02*
D03*
X140600Y153400D02*
D03*
X144100Y150500D02*
D03*
X141400D02*
D03*
X138800D02*
D03*
X51500Y78200D02*
D03*
Y75300D02*
D03*
X50100Y64200D02*
D03*
X4300Y91900D02*
D03*
X9500Y103000D02*
D03*
X4300Y94700D02*
D03*
X9500D02*
D03*
X4300Y97500D02*
D03*
Y103000D02*
D03*
X6900Y97500D02*
D03*
X9500D02*
D03*
X6900Y103000D02*
D03*
Y100300D02*
D03*
X9500Y91900D02*
D03*
Y100300D02*
D03*
X6900Y91900D02*
D03*
X4300Y100300D02*
D03*
X6900Y94700D02*
D03*
X7000Y89200D02*
D03*
X4200D02*
D03*
Y78100D02*
D03*
X9600Y86500D02*
D03*
X7000Y80900D02*
D03*
X9600Y89200D02*
D03*
Y83700D02*
D03*
X4200D02*
D03*
X7000D02*
D03*
X4200Y86500D02*
D03*
X9600Y80900D02*
D03*
X7000Y78100D02*
D03*
X4200Y80900D02*
D03*
X7000Y86500D02*
D03*
X9600Y78100D02*
D03*
X181000Y60500D02*
D03*
X183600D02*
D03*
X186200D02*
D03*
X188900D02*
D03*
X191700D02*
D03*
X194300D02*
D03*
X181000Y63300D02*
D03*
X183600D02*
D03*
X186200D02*
D03*
X188900D02*
D03*
X191700D02*
D03*
X194300D02*
D03*
X183600Y66100D02*
D03*
X186200D02*
D03*
X188900D02*
D03*
X191700D02*
D03*
X194300D02*
D03*
X183600Y68900D02*
D03*
X186200D02*
D03*
X188900D02*
D03*
X191700D02*
D03*
X194300D02*
D03*
Y71600D02*
D03*
X191700D02*
D03*
X188900D02*
D03*
X186200D02*
D03*
X183600D02*
D03*
X112800Y173200D02*
D03*
X115400D02*
D03*
X118000D02*
D03*
X120700D02*
D03*
X123500D02*
D03*
X126100D02*
D03*
X73000Y52900D02*
D03*
X70600Y55300D02*
D03*
X68400Y57600D02*
D03*
X65900Y59800D02*
D03*
X44200Y95500D02*
D03*
Y92100D02*
D03*
Y88600D02*
D03*
X29300Y67300D02*
D03*
X45200Y116900D02*
D03*
X42400D02*
D03*
X159700Y139400D02*
D03*
X157000Y139500D02*
D03*
X165300Y139400D02*
D03*
X159700Y142200D02*
D03*
X157000D02*
D03*
X162200Y139400D02*
D03*
X112800Y167500D02*
D03*
X115400D02*
D03*
X118000D02*
D03*
X120700D02*
D03*
X123500D02*
D03*
X126100D02*
D03*
X112800Y170300D02*
D03*
X115400D02*
D03*
X118000D02*
D03*
X120700D02*
D03*
X123500D02*
D03*
X126100D02*
D03*
X112800Y175900D02*
D03*
X115400D02*
D03*
X118000D02*
D03*
X120700D02*
D03*
X123500D02*
D03*
X126100D02*
D03*
X112800Y178700D02*
D03*
X115400D02*
D03*
X118000D02*
D03*
X120700D02*
D03*
X123500D02*
D03*
X126100D02*
D03*
Y181400D02*
D03*
X123500D02*
D03*
X120700D02*
D03*
X118000D02*
D03*
X115400D02*
D03*
X112800D02*
D03*
X200300Y81800D02*
D03*
X201700Y84300D02*
D03*
X199000Y107000D02*
D03*
X198000Y109500D02*
D03*
X165400Y149500D02*
D03*
X93900Y95600D02*
D03*
X31100Y81200D02*
D03*
X151600Y88600D02*
D03*
X149800Y90500D02*
D03*
X105200Y87700D02*
D03*
X102700Y84900D02*
D03*
X24900Y90600D02*
D03*
X25000Y104400D02*
D03*
X18500Y102300D02*
D03*
X147900Y156800D02*
D03*
X152300D02*
D03*
X155900Y156700D02*
D03*
X18500Y99700D02*
D03*
Y104900D02*
D03*
X90500Y150400D02*
D03*
X98000Y84700D02*
D03*
X100300Y83000D02*
D03*
X115700Y82300D02*
D03*
X121000Y85100D02*
D03*
X118300Y85000D02*
D03*
X115600D02*
D03*
X174400Y160900D02*
D03*
X152300Y153500D02*
D03*
X158500Y153700D02*
D03*
X93900Y92900D02*
D03*
X101500Y143300D02*
D03*
X94500Y141800D02*
D03*
X98100Y142600D02*
D03*
X162000Y100900D02*
D03*
X25100Y98900D02*
D03*
X109500Y101900D02*
D03*
X106500Y101400D02*
D03*
X23300Y110500D02*
D03*
X39807Y92300D02*
D03*
X86473Y39943D02*
D03*
X88200Y38000D02*
D03*
X91100Y37800D02*
D03*
X83905Y36032D02*
D03*
X42800Y111000D02*
D03*
X45100Y109000D02*
D03*
X43100Y107000D02*
D03*
X43900Y71500D02*
D03*
X94930Y34842D02*
D03*
X39807Y78000D02*
D03*
Y105700D02*
D03*
X99700Y31200D02*
D03*
X96800Y32400D02*
D03*
X92981Y33121D02*
D03*
X61500Y110000D02*
D03*
Y106100D02*
D03*
X88800Y46100D02*
D03*
X101355Y153775D02*
D03*
X77500Y51800D02*
D03*
X52700Y90600D02*
D03*
X53900Y85800D02*
D03*
X51000Y101200D02*
D03*
X61500Y113900D02*
D03*
Y117900D02*
D03*
X75100Y149400D02*
D03*
X77700Y148200D02*
D03*
X81400Y149600D02*
D03*
X78900Y150700D02*
D03*
X98400Y153800D02*
D03*
X90000Y154500D02*
D03*
X51600Y87500D02*
D03*
X162000Y106000D02*
D03*
Y95700D02*
D03*
X162100Y85500D02*
D03*
X161900Y69600D02*
D03*
X159000Y69700D02*
D03*
X168900Y69600D02*
D03*
X197200Y82100D02*
D03*
X198900Y84200D02*
D03*
X195400Y84100D02*
D03*
X200500Y109500D02*
D03*
X201500Y107000D02*
D03*
X196400D02*
D03*
X198900Y113100D02*
D03*
X181700Y116500D02*
D03*
X195700Y115200D02*
D03*
X200600Y102400D02*
D03*
X197000Y102500D02*
D03*
X200700Y95600D02*
D03*
X197000Y95700D02*
D03*
X200600Y87900D02*
D03*
X196900D02*
D03*
X202400Y90000D02*
D03*
X202600Y93800D02*
D03*
X195300Y100400D02*
D03*
X194400Y93900D02*
D03*
X198800Y90000D02*
D03*
X195100D02*
D03*
X198800Y93800D02*
D03*
X202400Y100400D02*
D03*
X198700D02*
D03*
D79*
X126600Y23300D02*
X151100Y47800D01*
X18300Y82400D02*
X77400Y23300D01*
X126600D01*
X151100Y47800D02*
X160500D01*
X15400Y82400D02*
X18300D01*
M02*
