G04*
G04 #@! TF.GenerationSoftware,Altium Limited,Altium Designer,21.3.2 (30)*
G04*
G04 Layer_Color=255*
%FSLAX25Y25*%
%MOIN*%
G70*
G04*
G04 #@! TF.SameCoordinates,24C89C37-09E3-4822-9DB9-40424265DB80*
G04*
G04*
G04 #@! TF.FilePolarity,Positive*
G04*
G01*
G75*
G04:AMPARAMS|DCode=19|XSize=23.62mil|YSize=23.62mil|CornerRadius=5.91mil|HoleSize=0mil|Usage=FLASHONLY|Rotation=270.000|XOffset=0mil|YOffset=0mil|HoleType=Round|Shape=RoundedRectangle|*
%AMROUNDEDRECTD19*
21,1,0.02362,0.01181,0,0,270.0*
21,1,0.01181,0.02362,0,0,270.0*
1,1,0.01181,-0.00591,-0.00591*
1,1,0.01181,-0.00591,0.00591*
1,1,0.01181,0.00591,0.00591*
1,1,0.01181,0.00591,-0.00591*
%
%ADD19ROUNDEDRECTD19*%
G04:AMPARAMS|DCode=31|XSize=19.68mil|YSize=23.62mil|CornerRadius=4.92mil|HoleSize=0mil|Usage=FLASHONLY|Rotation=90.000|XOffset=0mil|YOffset=0mil|HoleType=Round|Shape=RoundedRectangle|*
%AMROUNDEDRECTD31*
21,1,0.01968,0.01378,0,0,90.0*
21,1,0.00984,0.02362,0,0,90.0*
1,1,0.00984,0.00689,0.00492*
1,1,0.00984,0.00689,-0.00492*
1,1,0.00984,-0.00689,-0.00492*
1,1,0.00984,-0.00689,0.00492*
%
%ADD31ROUNDEDRECTD31*%
G04:AMPARAMS|DCode=36|XSize=25.59mil|YSize=35.43mil|CornerRadius=6.4mil|HoleSize=0mil|Usage=FLASHONLY|Rotation=0.000|XOffset=0mil|YOffset=0mil|HoleType=Round|Shape=RoundedRectangle|*
%AMROUNDEDRECTD36*
21,1,0.02559,0.02264,0,0,0.0*
21,1,0.01280,0.03543,0,0,0.0*
1,1,0.01280,0.00640,-0.01132*
1,1,0.01280,-0.00640,-0.01132*
1,1,0.01280,-0.00640,0.01132*
1,1,0.01280,0.00640,0.01132*
%
%ADD36ROUNDEDRECTD36*%
G04:AMPARAMS|DCode=37|XSize=43.31mil|YSize=59.06mil|CornerRadius=10.83mil|HoleSize=0mil|Usage=FLASHONLY|Rotation=270.000|XOffset=0mil|YOffset=0mil|HoleType=Round|Shape=RoundedRectangle|*
%AMROUNDEDRECTD37*
21,1,0.04331,0.03740,0,0,270.0*
21,1,0.02165,0.05906,0,0,270.0*
1,1,0.02165,-0.01870,-0.01083*
1,1,0.02165,-0.01870,0.01083*
1,1,0.02165,0.01870,0.01083*
1,1,0.02165,0.01870,-0.01083*
%
%ADD37ROUNDEDRECTD37*%
G04:AMPARAMS|DCode=80|XSize=39.37mil|YSize=23.62mil|CornerRadius=2.95mil|HoleSize=0mil|Usage=FLASHONLY|Rotation=0.000|XOffset=0mil|YOffset=0mil|HoleType=Round|Shape=RoundedRectangle|*
%AMROUNDEDRECTD80*
21,1,0.03937,0.01772,0,0,0.0*
21,1,0.03347,0.02362,0,0,0.0*
1,1,0.00591,0.01673,-0.00886*
1,1,0.00591,-0.01673,-0.00886*
1,1,0.00591,-0.01673,0.00886*
1,1,0.00591,0.01673,0.00886*
%
%ADD80ROUNDEDRECTD80*%
G04:AMPARAMS|DCode=81|XSize=43.31mil|YSize=13.78mil|CornerRadius=3.45mil|HoleSize=0mil|Usage=FLASHONLY|Rotation=180.000|XOffset=0mil|YOffset=0mil|HoleType=Round|Shape=RoundedRectangle|*
%AMROUNDEDRECTD81*
21,1,0.04331,0.00689,0,0,180.0*
21,1,0.03642,0.01378,0,0,180.0*
1,1,0.00689,-0.01821,0.00345*
1,1,0.00689,0.01821,0.00345*
1,1,0.00689,0.01821,-0.00345*
1,1,0.00689,-0.01821,-0.00345*
%
%ADD81ROUNDEDRECTD81*%
%ADD82R,0.00394X0.00394*%
G04:AMPARAMS|DCode=83|XSize=59.06mil|YSize=17.72mil|CornerRadius=1.77mil|HoleSize=0mil|Usage=FLASHONLY|Rotation=180.000|XOffset=0mil|YOffset=0mil|HoleType=Round|Shape=RoundedRectangle|*
%AMROUNDEDRECTD83*
21,1,0.05906,0.01417,0,0,180.0*
21,1,0.05551,0.01772,0,0,180.0*
1,1,0.00354,-0.02776,0.00709*
1,1,0.00354,0.02776,0.00709*
1,1,0.00354,0.02776,-0.00709*
1,1,0.00354,-0.02776,-0.00709*
%
%ADD83ROUNDEDRECTD83*%
D19*
X150800Y54072D02*
D03*
Y50528D02*
D03*
X161400Y154027D02*
D03*
Y150484D02*
D03*
X155900Y154027D02*
D03*
Y150484D02*
D03*
D31*
X160800Y50331D02*
D03*
Y54268D02*
D03*
X156100D02*
D03*
Y50331D02*
D03*
X176900Y150287D02*
D03*
Y154224D02*
D03*
D36*
X21154Y79300D02*
D03*
X15446D02*
D03*
X21154Y85400D02*
D03*
X15446D02*
D03*
X21154Y91500D02*
D03*
X15446D02*
D03*
X21154Y97500D02*
D03*
X15446D02*
D03*
X111854Y109000D02*
D03*
X106146D02*
D03*
X112354Y82000D02*
D03*
X106646D02*
D03*
X127446Y96300D02*
D03*
X133154D02*
D03*
X127446Y91300D02*
D03*
X133154D02*
D03*
D37*
X169400Y153043D02*
D03*
Y145957D02*
D03*
D80*
X31253Y70340D02*
D03*
X39600Y66600D02*
D03*
X31253Y62860D02*
D03*
X31227Y98240D02*
D03*
X39573Y94500D02*
D03*
X31227Y90760D02*
D03*
X31253Y112240D02*
D03*
X39600Y108500D02*
D03*
X31253Y104760D02*
D03*
X31227Y76960D02*
D03*
X39573Y80700D02*
D03*
X31227Y84440D02*
D03*
D81*
X97678Y103177D02*
D03*
Y100618D02*
D03*
Y98059D02*
D03*
Y95500D02*
D03*
Y92941D02*
D03*
Y90382D02*
D03*
Y87823D02*
D03*
X120322D02*
D03*
Y100618D02*
D03*
Y103177D02*
D03*
Y98059D02*
D03*
Y95500D02*
D03*
Y92941D02*
D03*
Y90382D02*
D03*
D82*
X178000Y94500D02*
D03*
D83*
X166583Y111134D02*
D03*
X166583Y108575D02*
D03*
X166583Y106016D02*
D03*
X166583Y103457D02*
D03*
X166583Y100898D02*
D03*
X166583Y98339D02*
D03*
X166583Y95780D02*
D03*
X166583Y93221D02*
D03*
X166583Y90661D02*
D03*
X166583Y88102D02*
D03*
Y85543D02*
D03*
X166583Y82984D02*
D03*
Y80425D02*
D03*
X166583Y77866D02*
D03*
X189417Y77866D02*
D03*
X189417Y80425D02*
D03*
X189417Y82984D02*
D03*
X189417Y85543D02*
D03*
X189417Y88102D02*
D03*
X189417Y90661D02*
D03*
X189417Y93221D02*
D03*
X189417Y95780D02*
D03*
X189417Y98339D02*
D03*
X189417Y100898D02*
D03*
Y103457D02*
D03*
X189417Y106016D02*
D03*
Y108575D02*
D03*
X189417Y111134D02*
D03*
M02*
