G04*
G04 #@! TF.GenerationSoftware,Altium Limited,Altium Designer,21.3.2 (30)*
G04*
G04 Layer_Color=32896*
%FSLAX25Y25*%
%MOIN*%
G70*
G04*
G04 #@! TF.SameCoordinates,24C89C37-09E3-4822-9DB9-40424265DB80*
G04*
G04*
G04 #@! TF.FilePolarity,Positive*
G04*
G01*
G75*
%ADD10C,0.00500*%
%ADD12C,0.00787*%
%ADD14C,0.01000*%
%ADD15C,0.00591*%
G36*
X136720Y98412D02*
X138377D01*
Y98155D01*
X136720Y96985D01*
X136431D01*
Y98096D01*
X135819D01*
Y98412D01*
X136431D01*
Y98759D01*
X136720D01*
Y98412D01*
D02*
G37*
G36*
X136513Y96450D02*
X136587Y96400D01*
X136653Y96349D01*
X136712Y96302D01*
X136763Y96259D01*
X136802Y96224D01*
X136833Y96197D01*
X136848Y96177D01*
X136856Y96170D01*
X136880Y96142D01*
X136903Y96107D01*
X136946Y96041D01*
X136962Y96014D01*
X136973Y95990D01*
X136981Y95975D01*
X136985Y95967D01*
X136997Y96033D01*
X137008Y96096D01*
X137024Y96154D01*
X137043Y96205D01*
X137063Y96255D01*
X137083Y96298D01*
X137102Y96341D01*
X137121Y96376D01*
X137141Y96408D01*
X137157Y96435D01*
X137176Y96458D01*
X137188Y96478D01*
X137203Y96489D01*
X137211Y96501D01*
X137219Y96509D01*
X137254Y96540D01*
X137293Y96567D01*
X137371Y96614D01*
X137445Y96645D01*
X137519Y96665D01*
X137582Y96680D01*
X137609Y96684D01*
X137632D01*
X137652Y96688D01*
X137668D01*
X137675D01*
X137679D01*
X137757Y96684D01*
X137827Y96673D01*
X137894Y96653D01*
X137952Y96634D01*
X137999Y96614D01*
X138034Y96595D01*
X138057Y96583D01*
X138065Y96579D01*
X138128Y96536D01*
X138178Y96489D01*
X138221Y96443D01*
X138252Y96396D01*
X138280Y96357D01*
X138299Y96326D01*
X138307Y96302D01*
X138311Y96298D01*
Y96294D01*
X138323Y96259D01*
X138334Y96220D01*
X138350Y96138D01*
X138366Y96053D01*
X138373Y95971D01*
X138377Y95893D01*
Y95862D01*
X138381Y95830D01*
Y94641D01*
X135819D01*
Y94980D01*
X136958D01*
Y95417D01*
X136954Y95456D01*
Y95487D01*
X136950Y95514D01*
X136946Y95534D01*
Y95549D01*
X136942Y95557D01*
Y95561D01*
X136923Y95620D01*
X136899Y95666D01*
X136888Y95686D01*
X136880Y95702D01*
X136876Y95709D01*
X136872Y95713D01*
X136852Y95745D01*
X136825Y95772D01*
X136770Y95830D01*
X136743Y95850D01*
X136720Y95869D01*
X136704Y95881D01*
X136700Y95885D01*
X136650Y95924D01*
X136595Y95963D01*
X136537Y96006D01*
X136478Y96045D01*
X136427Y96080D01*
X136388Y96107D01*
X136373Y96115D01*
X136361Y96123D01*
X136353Y96131D01*
X136349D01*
X135819Y96470D01*
Y96895D01*
X136513Y96450D01*
D02*
G37*
G36*
X136681Y93459D02*
X136763Y93444D01*
X136833Y93424D01*
X136891Y93401D01*
X136938Y93373D01*
X136973Y93354D01*
X136997Y93338D01*
X137004Y93334D01*
X137063Y93284D01*
X137110Y93225D01*
X137149Y93167D01*
X137176Y93112D01*
X137199Y93061D01*
X137211Y93022D01*
X137219Y93007D01*
Y92995D01*
X137223Y92987D01*
Y92983D01*
X137254Y93046D01*
X137293Y93100D01*
X137328Y93143D01*
X137363Y93182D01*
X137394Y93210D01*
X137418Y93233D01*
X137434Y93245D01*
X137441Y93249D01*
X137492Y93280D01*
X137547Y93299D01*
X137597Y93315D01*
X137644Y93327D01*
X137683Y93334D01*
X137714Y93338D01*
X137734D01*
X137742D01*
X137808Y93334D01*
X137866Y93323D01*
X137921Y93307D01*
X137972Y93291D01*
X138011Y93276D01*
X138042Y93260D01*
X138061Y93249D01*
X138069Y93245D01*
X138124Y93206D01*
X138174Y93163D01*
X138217Y93116D01*
X138252Y93073D01*
X138280Y93034D01*
X138299Y93003D01*
X138311Y92980D01*
X138315Y92976D01*
Y92972D01*
X138346Y92905D01*
X138370Y92839D01*
X138385Y92773D01*
X138397Y92714D01*
X138405Y92664D01*
X138409Y92625D01*
Y92535D01*
X138401Y92480D01*
X138381Y92383D01*
X138354Y92293D01*
X138323Y92219D01*
X138288Y92160D01*
X138272Y92137D01*
X138260Y92118D01*
X138249Y92098D01*
X138241Y92086D01*
X138237Y92083D01*
X138233Y92079D01*
X138163Y92008D01*
X138085Y91954D01*
X138003Y91907D01*
X137925Y91876D01*
X137855Y91848D01*
X137823Y91841D01*
X137796Y91833D01*
X137777Y91829D01*
X137761Y91825D01*
X137749Y91821D01*
X137745D01*
X137691Y92137D01*
X137773Y92153D01*
X137843Y92176D01*
X137901Y92199D01*
X137948Y92227D01*
X137987Y92250D01*
X138015Y92270D01*
X138030Y92285D01*
X138034Y92289D01*
X138073Y92340D01*
X138100Y92391D01*
X138124Y92441D01*
X138136Y92492D01*
X138143Y92531D01*
X138151Y92566D01*
Y92597D01*
X138147Y92664D01*
X138132Y92722D01*
X138116Y92773D01*
X138093Y92816D01*
X138073Y92851D01*
X138054Y92878D01*
X138038Y92894D01*
X138034Y92898D01*
X137991Y92937D01*
X137941Y92964D01*
X137894Y92987D01*
X137851Y92999D01*
X137808Y93007D01*
X137777Y93015D01*
X137757D01*
X137753D01*
X137749D01*
X137671Y93007D01*
X137605Y92987D01*
X137550Y92964D01*
X137508Y92933D01*
X137472Y92901D01*
X137445Y92878D01*
X137430Y92859D01*
X137426Y92851D01*
X137391Y92788D01*
X137367Y92726D01*
X137348Y92668D01*
X137336Y92613D01*
X137328Y92562D01*
X137324Y92527D01*
Y92476D01*
X137328Y92461D01*
Y92441D01*
X137051Y92406D01*
X137063Y92453D01*
X137071Y92496D01*
X137075Y92535D01*
X137079Y92566D01*
X137083Y92593D01*
Y92629D01*
X137075Y92707D01*
X137059Y92773D01*
X137040Y92835D01*
X137012Y92886D01*
X136985Y92929D01*
X136966Y92960D01*
X136950Y92976D01*
X136942Y92983D01*
X136888Y93030D01*
X136829Y93065D01*
X136767Y93093D01*
X136712Y93108D01*
X136661Y93120D01*
X136622Y93124D01*
X136607Y93128D01*
X136595D01*
X136591D01*
X136587D01*
X136505Y93120D01*
X136431Y93104D01*
X136365Y93081D01*
X136310Y93054D01*
X136264Y93022D01*
X136232Y92999D01*
X136213Y92983D01*
X136205Y92976D01*
X136154Y92917D01*
X136115Y92855D01*
X136092Y92792D01*
X136072Y92730D01*
X136061Y92679D01*
X136057Y92640D01*
X136053Y92625D01*
Y92601D01*
X136057Y92535D01*
X136072Y92472D01*
X136092Y92418D01*
X136111Y92375D01*
X136135Y92336D01*
X136150Y92309D01*
X136166Y92293D01*
X136170Y92285D01*
X136221Y92242D01*
X136279Y92203D01*
X136345Y92172D01*
X136408Y92149D01*
X136466Y92129D01*
X136513Y92118D01*
X136529Y92110D01*
X136544D01*
X136552Y92106D01*
X136556D01*
X136513Y91790D01*
X136455Y91798D01*
X136400Y91809D01*
X136299Y91845D01*
X136209Y91884D01*
X136131Y91930D01*
X136100Y91950D01*
X136072Y91973D01*
X136049Y91993D01*
X136026Y92008D01*
X136010Y92024D01*
X135998Y92036D01*
X135994Y92040D01*
X135991Y92044D01*
X135955Y92086D01*
X135924Y92133D01*
X135897Y92176D01*
X135877Y92223D01*
X135838Y92317D01*
X135815Y92406D01*
X135807Y92445D01*
X135803Y92484D01*
X135799Y92515D01*
X135795Y92547D01*
X135792Y92570D01*
Y92601D01*
X135795Y92668D01*
X135803Y92734D01*
X135811Y92796D01*
X135827Y92855D01*
X135846Y92909D01*
X135866Y92960D01*
X135885Y93007D01*
X135909Y93050D01*
X135928Y93085D01*
X135948Y93120D01*
X135967Y93151D01*
X135987Y93174D01*
X136002Y93194D01*
X136010Y93206D01*
X136018Y93213D01*
X136022Y93217D01*
X136068Y93260D01*
X136115Y93299D01*
X136162Y93331D01*
X136209Y93358D01*
X136256Y93385D01*
X136306Y93405D01*
X136396Y93432D01*
X136435Y93444D01*
X136474Y93451D01*
X136505Y93455D01*
X136537Y93459D01*
X136560Y93463D01*
X136575D01*
X136587D01*
X136591D01*
X136681Y93459D01*
D02*
G37*
G36*
X136529Y91146D02*
X136603Y91096D01*
X136669Y91045D01*
X136728Y90998D01*
X136778Y90955D01*
X136817Y90920D01*
X136848Y90893D01*
X136864Y90873D01*
X136872Y90866D01*
X136895Y90838D01*
X136919Y90803D01*
X136962Y90737D01*
X136977Y90710D01*
X136989Y90686D01*
X136997Y90671D01*
X137001Y90663D01*
X137012Y90729D01*
X137024Y90792D01*
X137040Y90850D01*
X137059Y90901D01*
X137079Y90952D01*
X137098Y90994D01*
X137118Y91037D01*
X137137Y91072D01*
X137157Y91104D01*
X137172Y91131D01*
X137192Y91154D01*
X137203Y91174D01*
X137219Y91185D01*
X137227Y91197D01*
X137235Y91205D01*
X137270Y91236D01*
X137309Y91264D01*
X137387Y91310D01*
X137461Y91342D01*
X137535Y91361D01*
X137597Y91377D01*
X137625Y91381D01*
X137648D01*
X137668Y91384D01*
X137683D01*
X137691D01*
X137695D01*
X137773Y91381D01*
X137843Y91369D01*
X137909Y91349D01*
X137968Y91330D01*
X138015Y91310D01*
X138050Y91291D01*
X138073Y91279D01*
X138081Y91275D01*
X138143Y91232D01*
X138194Y91185D01*
X138237Y91139D01*
X138268Y91092D01*
X138295Y91053D01*
X138315Y91022D01*
X138323Y90998D01*
X138327Y90994D01*
Y90991D01*
X138338Y90955D01*
X138350Y90916D01*
X138366Y90834D01*
X138381Y90749D01*
X138389Y90667D01*
X138393Y90589D01*
Y90558D01*
X138397Y90526D01*
Y89337D01*
X135835D01*
Y89676D01*
X136973D01*
Y90113D01*
X136969Y90152D01*
Y90183D01*
X136966Y90210D01*
X136962Y90230D01*
Y90246D01*
X136958Y90253D01*
Y90257D01*
X136938Y90316D01*
X136915Y90363D01*
X136903Y90382D01*
X136895Y90398D01*
X136891Y90405D01*
X136888Y90409D01*
X136868Y90441D01*
X136841Y90468D01*
X136786Y90526D01*
X136759Y90546D01*
X136735Y90565D01*
X136720Y90577D01*
X136716Y90581D01*
X136665Y90620D01*
X136611Y90659D01*
X136552Y90702D01*
X136494Y90741D01*
X136443Y90776D01*
X136404Y90803D01*
X136388Y90811D01*
X136377Y90819D01*
X136369Y90827D01*
X136365D01*
X135835Y91166D01*
Y91591D01*
X136529Y91146D01*
D02*
G37*
G36*
X114913Y109192D02*
X114976Y109235D01*
X115026Y109277D01*
X115050Y109297D01*
X115065Y109313D01*
X115077Y109320D01*
X115081Y109324D01*
X115101Y109344D01*
X115120Y109363D01*
X115167Y109414D01*
X115221Y109476D01*
X115276Y109535D01*
X115327Y109593D01*
X115366Y109640D01*
X115381Y109660D01*
X115393Y109675D01*
X115401Y109683D01*
X115405Y109687D01*
X115459Y109749D01*
X115506Y109804D01*
X115553Y109859D01*
X115596Y109905D01*
X115639Y109948D01*
X115674Y109987D01*
X115709Y110026D01*
X115740Y110057D01*
X115767Y110085D01*
X115791Y110108D01*
X115826Y110143D01*
X115849Y110163D01*
X115857Y110171D01*
X115919Y110221D01*
X115974Y110268D01*
X116029Y110303D01*
X116076Y110330D01*
X116114Y110354D01*
X116142Y110370D01*
X116161Y110377D01*
X116169Y110381D01*
X116224Y110405D01*
X116278Y110420D01*
X116329Y110432D01*
X116376Y110440D01*
X116415Y110444D01*
X116446Y110448D01*
X116465D01*
X116473D01*
X116528Y110444D01*
X116583Y110440D01*
X116680Y110412D01*
X116766Y110377D01*
X116840Y110338D01*
X116898Y110299D01*
X116922Y110280D01*
X116945Y110264D01*
X116961Y110249D01*
X116972Y110237D01*
X116976Y110233D01*
X116980Y110229D01*
X117015Y110186D01*
X117051Y110143D01*
X117078Y110097D01*
X117101Y110046D01*
X117136Y109948D01*
X117160Y109855D01*
X117171Y109812D01*
X117175Y109773D01*
X117179Y109738D01*
X117183Y109706D01*
X117187Y109679D01*
Y109644D01*
X117183Y109578D01*
X117179Y109515D01*
X117156Y109398D01*
X117144Y109348D01*
X117129Y109297D01*
X117109Y109254D01*
X117093Y109215D01*
X117074Y109180D01*
X117058Y109149D01*
X117039Y109122D01*
X117027Y109098D01*
X117015Y109082D01*
X117004Y109071D01*
X117000Y109063D01*
X116996Y109059D01*
X116957Y109020D01*
X116918Y108989D01*
X116828Y108930D01*
X116738Y108888D01*
X116649Y108856D01*
X116571Y108833D01*
X116536Y108829D01*
X116505Y108821D01*
X116481Y108817D01*
X116462Y108813D01*
X116450D01*
X116446D01*
X116411Y109137D01*
X116497Y109145D01*
X116571Y109160D01*
X116633Y109180D01*
X116688Y109207D01*
X116731Y109231D01*
X116762Y109254D01*
X116778Y109270D01*
X116785Y109274D01*
X116832Y109328D01*
X116867Y109387D01*
X116891Y109449D01*
X116910Y109508D01*
X116918Y109558D01*
X116922Y109597D01*
X116926Y109613D01*
Y109636D01*
X116922Y109714D01*
X116906Y109784D01*
X116887Y109843D01*
X116863Y109894D01*
X116836Y109933D01*
X116816Y109964D01*
X116801Y109979D01*
X116797Y109987D01*
X116746Y110034D01*
X116692Y110065D01*
X116641Y110089D01*
X116590Y110108D01*
X116547Y110116D01*
X116512Y110120D01*
X116489Y110124D01*
X116485D01*
X116481D01*
X116415Y110116D01*
X116345Y110100D01*
X116282Y110077D01*
X116224Y110050D01*
X116173Y110022D01*
X116134Y109999D01*
X116118Y109991D01*
X116107Y109983D01*
X116103Y109976D01*
X116099D01*
X116060Y109944D01*
X116017Y109909D01*
X115974Y109870D01*
X115931Y109824D01*
X115841Y109730D01*
X115752Y109636D01*
X115678Y109550D01*
X115643Y109511D01*
X115615Y109476D01*
X115588Y109449D01*
X115572Y109430D01*
X115561Y109414D01*
X115557Y109410D01*
X115475Y109317D01*
X115401Y109231D01*
X115334Y109160D01*
X115280Y109102D01*
X115233Y109055D01*
X115198Y109024D01*
X115175Y109004D01*
X115171Y108997D01*
X115167D01*
X115104Y108946D01*
X115046Y108907D01*
X114987Y108868D01*
X114937Y108841D01*
X114890Y108817D01*
X114859Y108802D01*
X114835Y108794D01*
X114831Y108790D01*
X114828D01*
X114788Y108778D01*
X114750Y108767D01*
X114714Y108763D01*
X114683Y108759D01*
X114656Y108755D01*
X114632D01*
X114617D01*
X114613D01*
Y110451D01*
X114913D01*
Y109192D01*
D02*
G37*
G36*
X115307Y108158D02*
X115381Y108107D01*
X115448Y108057D01*
X115506Y108010D01*
X115557Y107967D01*
X115596Y107932D01*
X115627Y107905D01*
X115643Y107885D01*
X115650Y107877D01*
X115674Y107850D01*
X115697Y107815D01*
X115740Y107749D01*
X115756Y107721D01*
X115767Y107698D01*
X115775Y107682D01*
X115779Y107675D01*
X115791Y107741D01*
X115803Y107803D01*
X115818Y107862D01*
X115838Y107913D01*
X115857Y107963D01*
X115877Y108006D01*
X115896Y108049D01*
X115916Y108084D01*
X115935Y108115D01*
X115951Y108143D01*
X115970Y108166D01*
X115982Y108186D01*
X115998Y108197D01*
X116005Y108209D01*
X116013Y108217D01*
X116048Y108248D01*
X116087Y108275D01*
X116165Y108322D01*
X116239Y108353D01*
X116313Y108373D01*
X116376Y108388D01*
X116403Y108392D01*
X116427D01*
X116446Y108396D01*
X116462D01*
X116469D01*
X116473D01*
X116551Y108392D01*
X116621Y108380D01*
X116688Y108361D01*
X116746Y108342D01*
X116793Y108322D01*
X116828Y108302D01*
X116852Y108291D01*
X116859Y108287D01*
X116922Y108244D01*
X116972Y108197D01*
X117015Y108150D01*
X117047Y108104D01*
X117074Y108065D01*
X117093Y108033D01*
X117101Y108010D01*
X117105Y108006D01*
Y108002D01*
X117117Y107967D01*
X117129Y107928D01*
X117144Y107846D01*
X117160Y107760D01*
X117167Y107678D01*
X117171Y107600D01*
Y107569D01*
X117175Y107538D01*
Y106349D01*
X114613D01*
Y106688D01*
X115752D01*
Y107125D01*
X115748Y107164D01*
Y107195D01*
X115744Y107222D01*
X115740Y107242D01*
Y107257D01*
X115736Y107265D01*
Y107269D01*
X115717Y107327D01*
X115693Y107374D01*
X115682Y107394D01*
X115674Y107409D01*
X115670Y107417D01*
X115666Y107421D01*
X115647Y107452D01*
X115619Y107480D01*
X115565Y107538D01*
X115537Y107558D01*
X115514Y107577D01*
X115498Y107589D01*
X115494Y107593D01*
X115444Y107632D01*
X115389Y107671D01*
X115331Y107714D01*
X115272Y107753D01*
X115221Y107788D01*
X115182Y107815D01*
X115167Y107823D01*
X115155Y107831D01*
X115147Y107838D01*
X115143D01*
X114613Y108178D01*
Y108603D01*
X115307Y108158D01*
D02*
G37*
G36*
X117887Y84611D02*
X117825Y84576D01*
X117762Y84533D01*
X117704Y84486D01*
X117649Y84439D01*
X117606Y84396D01*
X117571Y84361D01*
X117548Y84338D01*
X117544Y84334D01*
X117540Y84330D01*
X117478Y84256D01*
X117419Y84178D01*
X117368Y84100D01*
X117325Y84030D01*
X117290Y83967D01*
X117279Y83940D01*
X117267Y83916D01*
X117255Y83901D01*
X117247Y83885D01*
X117244Y83877D01*
Y83874D01*
X116935D01*
X116959Y83928D01*
X116986Y83987D01*
X117009Y84041D01*
X117037Y84092D01*
X117060Y84135D01*
X117080Y84170D01*
X117095Y84193D01*
X117099Y84197D01*
Y84201D01*
X117138Y84267D01*
X117181Y84326D01*
X117216Y84377D01*
X117251Y84420D01*
X117279Y84455D01*
X117298Y84482D01*
X117314Y84498D01*
X117318Y84501D01*
X115313D01*
Y84817D01*
X117887D01*
Y84611D01*
D02*
G37*
G36*
X116007Y82992D02*
X116081Y82942D01*
X116148Y82891D01*
X116206Y82844D01*
X116257Y82801D01*
X116296Y82766D01*
X116327Y82739D01*
X116343Y82719D01*
X116350Y82711D01*
X116374Y82684D01*
X116397Y82649D01*
X116440Y82583D01*
X116456Y82555D01*
X116467Y82532D01*
X116475Y82516D01*
X116479Y82509D01*
X116491Y82575D01*
X116502Y82637D01*
X116518Y82696D01*
X116538Y82746D01*
X116557Y82797D01*
X116577Y82840D01*
X116596Y82883D01*
X116616Y82918D01*
X116635Y82949D01*
X116651Y82977D01*
X116670Y83000D01*
X116682Y83020D01*
X116698Y83031D01*
X116705Y83043D01*
X116713Y83051D01*
X116748Y83082D01*
X116787Y83109D01*
X116865Y83156D01*
X116939Y83187D01*
X117013Y83207D01*
X117076Y83222D01*
X117103Y83226D01*
X117127D01*
X117146Y83230D01*
X117162D01*
X117169D01*
X117173D01*
X117251Y83226D01*
X117322Y83214D01*
X117388Y83195D01*
X117446Y83175D01*
X117493Y83156D01*
X117528Y83136D01*
X117552Y83125D01*
X117559Y83121D01*
X117622Y83078D01*
X117673Y83031D01*
X117715Y82984D01*
X117747Y82938D01*
X117774Y82899D01*
X117793Y82867D01*
X117801Y82844D01*
X117805Y82840D01*
Y82836D01*
X117817Y82801D01*
X117829Y82762D01*
X117844Y82680D01*
X117860Y82594D01*
X117868Y82512D01*
X117871Y82434D01*
Y82403D01*
X117875Y82372D01*
Y81183D01*
X115313D01*
Y81522D01*
X116452D01*
Y81959D01*
X116448Y81998D01*
Y82029D01*
X116444Y82056D01*
X116440Y82076D01*
Y82091D01*
X116436Y82099D01*
Y82103D01*
X116417Y82161D01*
X116393Y82208D01*
X116382Y82228D01*
X116374Y82243D01*
X116370Y82251D01*
X116366Y82255D01*
X116347Y82286D01*
X116319Y82314D01*
X116265Y82372D01*
X116237Y82392D01*
X116214Y82411D01*
X116198Y82423D01*
X116194Y82427D01*
X116144Y82466D01*
X116089Y82505D01*
X116031Y82548D01*
X115972Y82587D01*
X115921Y82622D01*
X115882Y82649D01*
X115867Y82657D01*
X115855Y82665D01*
X115847Y82672D01*
X115843D01*
X115313Y83012D01*
Y83437D01*
X116007Y82992D01*
D02*
G37*
G36*
X186735Y121492D02*
X186797Y121535D01*
X186848Y121578D01*
X186871Y121597D01*
X186887Y121613D01*
X186899Y121620D01*
X186902Y121624D01*
X186922Y121644D01*
X186942Y121663D01*
X186988Y121714D01*
X187043Y121776D01*
X187098Y121835D01*
X187148Y121893D01*
X187187Y121940D01*
X187203Y121960D01*
X187215Y121975D01*
X187222Y121983D01*
X187226Y121987D01*
X187281Y122049D01*
X187328Y122104D01*
X187374Y122159D01*
X187417Y122205D01*
X187460Y122248D01*
X187495Y122287D01*
X187530Y122326D01*
X187562Y122357D01*
X187589Y122385D01*
X187612Y122408D01*
X187647Y122443D01*
X187671Y122463D01*
X187679Y122471D01*
X187741Y122521D01*
X187796Y122568D01*
X187850Y122603D01*
X187897Y122631D01*
X187936Y122654D01*
X187963Y122669D01*
X187983Y122677D01*
X187991Y122681D01*
X188045Y122705D01*
X188100Y122720D01*
X188151Y122732D01*
X188197Y122740D01*
X188236Y122744D01*
X188268Y122748D01*
X188287D01*
X188295D01*
X188349Y122744D01*
X188404Y122740D01*
X188502Y122712D01*
X188587Y122677D01*
X188661Y122638D01*
X188720Y122599D01*
X188743Y122580D01*
X188767Y122564D01*
X188782Y122549D01*
X188794Y122537D01*
X188798Y122533D01*
X188802Y122529D01*
X188837Y122486D01*
X188872Y122443D01*
X188899Y122397D01*
X188923Y122346D01*
X188958Y122248D01*
X188981Y122155D01*
X188993Y122112D01*
X188997Y122073D01*
X189001Y122038D01*
X189005Y122006D01*
X189008Y121979D01*
Y121944D01*
X189005Y121878D01*
X189001Y121815D01*
X188977Y121698D01*
X188966Y121648D01*
X188950Y121597D01*
X188930Y121554D01*
X188915Y121515D01*
X188895Y121480D01*
X188880Y121449D01*
X188860Y121422D01*
X188849Y121398D01*
X188837Y121382D01*
X188825Y121371D01*
X188821Y121363D01*
X188817Y121359D01*
X188778Y121320D01*
X188739Y121289D01*
X188650Y121230D01*
X188560Y121187D01*
X188470Y121156D01*
X188392Y121133D01*
X188357Y121129D01*
X188326Y121121D01*
X188303Y121117D01*
X188283Y121113D01*
X188271D01*
X188268D01*
X188232Y121437D01*
X188318Y121445D01*
X188392Y121460D01*
X188455Y121480D01*
X188509Y121507D01*
X188552Y121531D01*
X188583Y121554D01*
X188599Y121570D01*
X188607Y121574D01*
X188654Y121628D01*
X188689Y121687D01*
X188712Y121749D01*
X188732Y121808D01*
X188739Y121858D01*
X188743Y121897D01*
X188747Y121913D01*
Y121936D01*
X188743Y122014D01*
X188728Y122084D01*
X188708Y122143D01*
X188685Y122194D01*
X188657Y122233D01*
X188638Y122264D01*
X188622Y122280D01*
X188619Y122287D01*
X188568Y122334D01*
X188513Y122365D01*
X188462Y122389D01*
X188412Y122408D01*
X188369Y122416D01*
X188334Y122420D01*
X188310Y122424D01*
X188306D01*
X188303D01*
X188236Y122416D01*
X188166Y122400D01*
X188104Y122377D01*
X188045Y122350D01*
X187995Y122322D01*
X187955Y122299D01*
X187940Y122291D01*
X187928Y122283D01*
X187924Y122276D01*
X187920D01*
X187881Y122244D01*
X187838Y122209D01*
X187796Y122170D01*
X187753Y122124D01*
X187663Y122030D01*
X187573Y121936D01*
X187499Y121851D01*
X187464Y121811D01*
X187437Y121776D01*
X187409Y121749D01*
X187394Y121730D01*
X187382Y121714D01*
X187378Y121710D01*
X187296Y121616D01*
X187222Y121531D01*
X187156Y121460D01*
X187101Y121402D01*
X187055Y121355D01*
X187020Y121324D01*
X186996Y121305D01*
X186992Y121297D01*
X186988D01*
X186926Y121246D01*
X186867Y121207D01*
X186809Y121168D01*
X186758Y121141D01*
X186711Y121117D01*
X186680Y121102D01*
X186657Y121094D01*
X186653Y121090D01*
X186649D01*
X186610Y121078D01*
X186571Y121067D01*
X186536Y121063D01*
X186505Y121059D01*
X186477Y121055D01*
X186454D01*
X186438D01*
X186434D01*
Y122751D01*
X186735D01*
Y121492D01*
D02*
G37*
G36*
X188997Y120322D02*
X187515D01*
X187429D01*
X187347Y120314D01*
X187277Y120306D01*
X187211Y120298D01*
X187148Y120287D01*
X187098Y120271D01*
X187051Y120255D01*
X187008Y120244D01*
X186973Y120228D01*
X186942Y120212D01*
X186918Y120201D01*
X186899Y120185D01*
X186883Y120177D01*
X186871Y120170D01*
X186867Y120162D01*
X186864D01*
X186832Y120131D01*
X186809Y120092D01*
X186766Y120010D01*
X186739Y119924D01*
X186715Y119834D01*
X186704Y119756D01*
X186700Y119721D01*
Y119690D01*
X186696Y119663D01*
Y119627D01*
X186700Y119550D01*
X186707Y119479D01*
X186723Y119417D01*
X186739Y119362D01*
X186750Y119319D01*
X186766Y119288D01*
X186774Y119269D01*
X186778Y119261D01*
X186813Y119206D01*
X186852Y119163D01*
X186895Y119124D01*
X186934Y119097D01*
X186969Y119074D01*
X186996Y119058D01*
X187016Y119050D01*
X187023Y119046D01*
X187055Y119035D01*
X187090Y119027D01*
X187168Y119011D01*
X187250Y119003D01*
X187328Y118996D01*
X187402Y118992D01*
X187433Y118988D01*
X187460D01*
X187484D01*
X187499D01*
X187511D01*
X187515D01*
X188997D01*
Y118649D01*
X187515D01*
X187441D01*
X187371Y118652D01*
X187304Y118656D01*
X187242Y118664D01*
X187187Y118672D01*
X187133Y118680D01*
X187086Y118688D01*
X187043Y118699D01*
X187004Y118707D01*
X186969Y118715D01*
X186938Y118723D01*
X186914Y118730D01*
X186895Y118738D01*
X186883Y118742D01*
X186875Y118746D01*
X186871D01*
X186789Y118789D01*
X186715Y118840D01*
X186657Y118890D01*
X186606Y118945D01*
X186563Y118992D01*
X186536Y119035D01*
X186524Y119050D01*
X186520Y119058D01*
X186512Y119066D01*
Y119070D01*
X186474Y119159D01*
X186442Y119261D01*
X186423Y119358D01*
X186407Y119452D01*
X186403Y119495D01*
X186399Y119534D01*
X186396Y119569D01*
Y119600D01*
X186392Y119624D01*
Y119659D01*
X186399Y119791D01*
X186415Y119908D01*
X186423Y119963D01*
X186434Y120010D01*
X186450Y120056D01*
X186462Y120096D01*
X186474Y120131D01*
X186489Y120166D01*
X186501Y120193D01*
X186509Y120212D01*
X186520Y120232D01*
X186524Y120244D01*
X186532Y120252D01*
Y120255D01*
X186591Y120333D01*
X186649Y120404D01*
X186711Y120458D01*
X186770Y120501D01*
X186825Y120532D01*
X186864Y120556D01*
X186879Y120563D01*
X186891Y120567D01*
X186899Y120571D01*
X186902D01*
X186992Y120603D01*
X187094Y120622D01*
X187195Y120638D01*
X187293Y120649D01*
X187339Y120653D01*
X187382Y120657D01*
X187417D01*
X187452Y120661D01*
X187480D01*
X187499D01*
X187511D01*
X187515D01*
X188997D01*
Y120322D01*
D02*
G37*
G36*
X180853Y154758D02*
X180931Y154742D01*
X181002Y154722D01*
X181060Y154699D01*
X181111Y154676D01*
X181146Y154656D01*
X181169Y154641D01*
X181177Y154637D01*
X181236Y154586D01*
X181290Y154527D01*
X181333Y154469D01*
X181368Y154411D01*
X181392Y154360D01*
X181411Y154317D01*
X181419Y154301D01*
X181423Y154290D01*
X181427Y154282D01*
Y154278D01*
X181454Y154344D01*
X181489Y154403D01*
X181520Y154453D01*
X181552Y154492D01*
X181583Y154524D01*
X181606Y154547D01*
X181622Y154559D01*
X181626Y154563D01*
X181676Y154594D01*
X181731Y154617D01*
X181782Y154633D01*
X181832Y154645D01*
X181875Y154652D01*
X181906Y154656D01*
X181930D01*
X181938D01*
X181988Y154652D01*
X182039Y154648D01*
X182129Y154625D01*
X182211Y154590D01*
X182281Y154555D01*
X182335Y154516D01*
X182359Y154496D01*
X182378Y154481D01*
X182394Y154469D01*
X182406Y154457D01*
X182410Y154453D01*
X182413Y154449D01*
X182449Y154411D01*
X182480Y154368D01*
X182503Y154325D01*
X182527Y154278D01*
X182562Y154188D01*
X182585Y154102D01*
X182597Y154024D01*
X182605Y153993D01*
Y153962D01*
X182608Y153939D01*
Y153907D01*
X182605Y153845D01*
X182601Y153790D01*
X182577Y153685D01*
X182550Y153592D01*
X182515Y153517D01*
X182495Y153482D01*
X182480Y153455D01*
X182460Y153432D01*
X182449Y153408D01*
X182437Y153393D01*
X182425Y153381D01*
X182421Y153377D01*
X182417Y153373D01*
X182382Y153338D01*
X182343Y153307D01*
X182304Y153279D01*
X182261Y153260D01*
X182183Y153221D01*
X182109Y153198D01*
X182043Y153186D01*
X182016Y153182D01*
X181992Y153178D01*
X181973Y153174D01*
X181957D01*
X181949D01*
X181946D01*
X181879Y153178D01*
X181821Y153190D01*
X181766Y153205D01*
X181719Y153221D01*
X181680Y153237D01*
X181653Y153252D01*
X181637Y153264D01*
X181630Y153268D01*
X181583Y153307D01*
X181544Y153354D01*
X181509Y153400D01*
X181477Y153451D01*
X181458Y153494D01*
X181439Y153529D01*
X181431Y153552D01*
X181427Y153556D01*
Y153560D01*
X181400Y153478D01*
X181364Y153404D01*
X181325Y153342D01*
X181286Y153291D01*
X181251Y153252D01*
X181220Y153221D01*
X181201Y153205D01*
X181197Y153198D01*
X181193D01*
X181126Y153155D01*
X181056Y153127D01*
X180986Y153104D01*
X180920Y153088D01*
X180865Y153081D01*
X180838Y153077D01*
X180818D01*
X180799Y153073D01*
X180787D01*
X180779D01*
X180775D01*
X180713Y153077D01*
X180655Y153085D01*
X180600Y153092D01*
X180545Y153108D01*
X180452Y153147D01*
X180409Y153166D01*
X180370Y153190D01*
X180335Y153209D01*
X180304Y153229D01*
X180276Y153248D01*
X180253Y153268D01*
X180237Y153283D01*
X180226Y153291D01*
X180218Y153299D01*
X180214Y153303D01*
X180175Y153350D01*
X180140Y153396D01*
X180113Y153447D01*
X180085Y153498D01*
X180066Y153549D01*
X180046Y153599D01*
X180019Y153697D01*
X180011Y153744D01*
X180003Y153783D01*
X179999Y153822D01*
X179996Y153853D01*
X179992Y153880D01*
Y153915D01*
X179996Y153985D01*
X179999Y154052D01*
X180011Y154114D01*
X180027Y154169D01*
X180042Y154223D01*
X180062Y154274D01*
X180081Y154321D01*
X180105Y154364D01*
X180124Y154403D01*
X180144Y154434D01*
X180163Y154461D01*
X180179Y154485D01*
X180194Y154504D01*
X180206Y154516D01*
X180210Y154524D01*
X180214Y154527D01*
X180257Y154570D01*
X180300Y154605D01*
X180347Y154637D01*
X180393Y154664D01*
X180440Y154687D01*
X180487Y154703D01*
X180573Y154734D01*
X180651Y154750D01*
X180686Y154754D01*
X180713Y154758D01*
X180736Y154762D01*
X180752D01*
X180764D01*
X180768D01*
X180853Y154758D01*
D02*
G37*
G36*
X182608Y152067D02*
X182546Y152032D01*
X182484Y151989D01*
X182425Y151942D01*
X182371Y151895D01*
X182328Y151852D01*
X182293Y151817D01*
X182269Y151794D01*
X182265Y151790D01*
X182261Y151786D01*
X182199Y151712D01*
X182141Y151634D01*
X182090Y151556D01*
X182047Y151486D01*
X182012Y151423D01*
X182000Y151396D01*
X181988Y151372D01*
X181977Y151357D01*
X181969Y151341D01*
X181965Y151333D01*
Y151330D01*
X181657D01*
X181680Y151384D01*
X181708Y151443D01*
X181731Y151497D01*
X181758Y151548D01*
X181782Y151591D01*
X181801Y151626D01*
X181817Y151649D01*
X181821Y151653D01*
Y151657D01*
X181860Y151723D01*
X181903Y151782D01*
X181938Y151833D01*
X181973Y151875D01*
X182000Y151911D01*
X182020Y151938D01*
X182035Y151953D01*
X182039Y151957D01*
X180034D01*
Y152273D01*
X182608D01*
Y152067D01*
D02*
G37*
G36*
X180729Y150448D02*
X180803Y150397D01*
X180869Y150347D01*
X180928Y150300D01*
X180978Y150257D01*
X181017Y150222D01*
X181049Y150195D01*
X181064Y150175D01*
X181072Y150167D01*
X181095Y150140D01*
X181119Y150105D01*
X181162Y150039D01*
X181177Y150011D01*
X181189Y149988D01*
X181197Y149972D01*
X181201Y149964D01*
X181212Y150031D01*
X181224Y150093D01*
X181240Y150152D01*
X181259Y150202D01*
X181279Y150253D01*
X181298Y150296D01*
X181318Y150339D01*
X181337Y150374D01*
X181357Y150405D01*
X181372Y150433D01*
X181392Y150456D01*
X181403Y150475D01*
X181419Y150487D01*
X181427Y150499D01*
X181435Y150507D01*
X181470Y150538D01*
X181509Y150565D01*
X181587Y150612D01*
X181661Y150643D01*
X181735Y150663D01*
X181797Y150678D01*
X181825Y150682D01*
X181848D01*
X181868Y150686D01*
X181883D01*
X181891D01*
X181895D01*
X181973Y150682D01*
X182043Y150670D01*
X182109Y150651D01*
X182168Y150631D01*
X182215Y150612D01*
X182250Y150592D01*
X182273Y150581D01*
X182281Y150577D01*
X182343Y150534D01*
X182394Y150487D01*
X182437Y150440D01*
X182468Y150393D01*
X182495Y150355D01*
X182515Y150323D01*
X182523Y150300D01*
X182527Y150296D01*
Y150292D01*
X182538Y150257D01*
X182550Y150218D01*
X182566Y150136D01*
X182581Y150050D01*
X182589Y149968D01*
X182593Y149890D01*
Y149859D01*
X182597Y149828D01*
Y148638D01*
X180034D01*
Y148978D01*
X181173D01*
Y149415D01*
X181169Y149454D01*
Y149485D01*
X181166Y149512D01*
X181162Y149532D01*
Y149547D01*
X181158Y149555D01*
Y149559D01*
X181138Y149617D01*
X181115Y149664D01*
X181103Y149684D01*
X181095Y149699D01*
X181091Y149707D01*
X181088Y149711D01*
X181068Y149742D01*
X181041Y149769D01*
X180986Y149828D01*
X180959Y149847D01*
X180935Y149867D01*
X180920Y149879D01*
X180916Y149883D01*
X180865Y149922D01*
X180811Y149961D01*
X180752Y150004D01*
X180694Y150042D01*
X180643Y150078D01*
X180604Y150105D01*
X180588Y150113D01*
X180577Y150120D01*
X180569Y150128D01*
X180565D01*
X180034Y150468D01*
Y150893D01*
X180729Y150448D01*
D02*
G37*
G36*
X162244Y62200D02*
X161944D01*
Y63456D01*
X161835Y63366D01*
X161722Y63284D01*
X161608Y63206D01*
X161503Y63136D01*
X161452Y63109D01*
X161409Y63082D01*
X161371Y63058D01*
X161335Y63039D01*
X161308Y63023D01*
X161289Y63011D01*
X161273Y63003D01*
X161269Y63000D01*
X161121Y62925D01*
X160973Y62859D01*
X160832Y62805D01*
X160766Y62781D01*
X160707Y62758D01*
X160649Y62738D01*
X160598Y62723D01*
X160555Y62707D01*
X160516Y62695D01*
X160485Y62688D01*
X160462Y62680D01*
X160446Y62676D01*
X160442D01*
X160286Y62637D01*
X160216Y62621D01*
X160146Y62610D01*
X160083Y62598D01*
X160025Y62590D01*
X159967Y62582D01*
X159916Y62574D01*
X159873Y62571D01*
X159830Y62567D01*
X159795Y62563D01*
X159768D01*
X159744Y62559D01*
X159729D01*
X159717D01*
X159713D01*
Y62883D01*
X159853Y62894D01*
X159986Y62910D01*
X160103Y62929D01*
X160158Y62941D01*
X160208Y62949D01*
X160251Y62961D01*
X160294Y62968D01*
X160329Y62976D01*
X160360Y62984D01*
X160384Y62992D01*
X160399Y62996D01*
X160411Y63000D01*
X160415D01*
X160587Y63054D01*
X160747Y63113D01*
X160825Y63144D01*
X160899Y63175D01*
X160969Y63206D01*
X161031Y63234D01*
X161090Y63261D01*
X161144Y63288D01*
X161191Y63312D01*
X161230Y63331D01*
X161261Y63347D01*
X161285Y63358D01*
X161300Y63366D01*
X161304Y63370D01*
X161382Y63417D01*
X161460Y63460D01*
X161530Y63507D01*
X161597Y63550D01*
X161659Y63589D01*
X161714Y63631D01*
X161768Y63670D01*
X161815Y63705D01*
X161854Y63737D01*
X161893Y63768D01*
X161924Y63795D01*
X161952Y63815D01*
X161971Y63834D01*
X161987Y63846D01*
X161995Y63854D01*
X161998Y63858D01*
X162244D01*
Y62200D01*
D02*
G37*
G36*
X162287Y61171D02*
X162225Y61135D01*
X162162Y61093D01*
X162104Y61046D01*
X162049Y60999D01*
X162006Y60956D01*
X161971Y60921D01*
X161948Y60897D01*
X161944Y60894D01*
X161940Y60890D01*
X161878Y60816D01*
X161819Y60738D01*
X161768Y60660D01*
X161725Y60589D01*
X161690Y60527D01*
X161679Y60500D01*
X161667Y60476D01*
X161655Y60461D01*
X161647Y60445D01*
X161644Y60437D01*
Y60433D01*
X161335D01*
X161359Y60488D01*
X161386Y60546D01*
X161409Y60601D01*
X161437Y60652D01*
X161460Y60695D01*
X161480Y60730D01*
X161495Y60753D01*
X161499Y60757D01*
Y60761D01*
X161538Y60827D01*
X161581Y60886D01*
X161616Y60936D01*
X161651Y60979D01*
X161679Y61014D01*
X161698Y61042D01*
X161714Y61057D01*
X161718Y61061D01*
X159713D01*
Y61377D01*
X162287D01*
Y61171D01*
D02*
G37*
G36*
X160407Y59552D02*
X160481Y59501D01*
X160548Y59451D01*
X160606Y59404D01*
X160657Y59361D01*
X160696Y59326D01*
X160727Y59298D01*
X160743Y59279D01*
X160750Y59271D01*
X160774Y59244D01*
X160797Y59209D01*
X160840Y59143D01*
X160856Y59115D01*
X160867Y59092D01*
X160875Y59076D01*
X160879Y59068D01*
X160891Y59135D01*
X160903Y59197D01*
X160918Y59256D01*
X160938Y59306D01*
X160957Y59357D01*
X160977Y59400D01*
X160996Y59443D01*
X161016Y59478D01*
X161035Y59509D01*
X161051Y59536D01*
X161070Y59560D01*
X161082Y59579D01*
X161098Y59591D01*
X161105Y59603D01*
X161113Y59610D01*
X161148Y59642D01*
X161187Y59669D01*
X161265Y59716D01*
X161339Y59747D01*
X161413Y59767D01*
X161476Y59782D01*
X161503Y59786D01*
X161527D01*
X161546Y59790D01*
X161562D01*
X161569D01*
X161573D01*
X161651Y59786D01*
X161722Y59774D01*
X161788Y59755D01*
X161846Y59735D01*
X161893Y59716D01*
X161928Y59696D01*
X161952Y59685D01*
X161959Y59681D01*
X162022Y59638D01*
X162073Y59591D01*
X162115Y59544D01*
X162147Y59497D01*
X162174Y59458D01*
X162193Y59427D01*
X162201Y59404D01*
X162205Y59400D01*
Y59396D01*
X162217Y59361D01*
X162229Y59322D01*
X162244Y59240D01*
X162260Y59154D01*
X162267Y59072D01*
X162271Y58994D01*
Y58963D01*
X162275Y58932D01*
Y57742D01*
X159713D01*
Y58082D01*
X160852D01*
Y58518D01*
X160848Y58557D01*
Y58589D01*
X160844Y58616D01*
X160840Y58635D01*
Y58651D01*
X160836Y58659D01*
Y58663D01*
X160817Y58721D01*
X160793Y58768D01*
X160782Y58788D01*
X160774Y58803D01*
X160770Y58811D01*
X160766Y58815D01*
X160747Y58846D01*
X160719Y58873D01*
X160665Y58932D01*
X160637Y58951D01*
X160614Y58971D01*
X160598Y58983D01*
X160594Y58987D01*
X160544Y59026D01*
X160489Y59065D01*
X160431Y59107D01*
X160372Y59146D01*
X160321Y59181D01*
X160282Y59209D01*
X160267Y59217D01*
X160255Y59224D01*
X160247Y59232D01*
X160243D01*
X159713Y59571D01*
Y59997D01*
X160407Y59552D01*
D02*
G37*
G36*
X156231Y63654D02*
X156298Y63650D01*
X156356Y63638D01*
X156415Y63622D01*
X156465Y63607D01*
X156516Y63587D01*
X156559Y63568D01*
X156602Y63548D01*
X156637Y63525D01*
X156668Y63506D01*
X156696Y63486D01*
X156719Y63470D01*
X156738Y63455D01*
X156750Y63443D01*
X156758Y63439D01*
X156762Y63435D01*
X156805Y63392D01*
X156840Y63349D01*
X156871Y63303D01*
X156898Y63256D01*
X156922Y63213D01*
X156937Y63166D01*
X156969Y63084D01*
X156984Y63010D01*
X156988Y62979D01*
X156992Y62952D01*
X156996Y62928D01*
Y62897D01*
X156992Y62831D01*
X156984Y62768D01*
X156969Y62710D01*
X156953Y62659D01*
X156937Y62616D01*
X156922Y62581D01*
X156914Y62562D01*
X156910Y62554D01*
X156875Y62495D01*
X156836Y62441D01*
X156793Y62394D01*
X156750Y62355D01*
X156711Y62320D01*
X156680Y62296D01*
X156660Y62281D01*
X156657Y62277D01*
X156723D01*
X156789Y62281D01*
X156852Y62285D01*
X156910Y62289D01*
X156961Y62296D01*
X157011Y62304D01*
X157054Y62312D01*
X157093Y62320D01*
X157129Y62328D01*
X157160Y62335D01*
X157187Y62343D01*
X157206Y62351D01*
X157222Y62355D01*
X157238Y62359D01*
X157242Y62363D01*
X157246D01*
X157320Y62398D01*
X157386Y62437D01*
X157440Y62476D01*
X157483Y62515D01*
X157518Y62546D01*
X157546Y62573D01*
X157561Y62589D01*
X157565Y62597D01*
X157593Y62644D01*
X157616Y62687D01*
X157632Y62733D01*
X157639Y62776D01*
X157647Y62811D01*
X157651Y62839D01*
Y62866D01*
X157647Y62932D01*
X157632Y62995D01*
X157608Y63049D01*
X157585Y63096D01*
X157557Y63131D01*
X157538Y63158D01*
X157522Y63178D01*
X157515Y63182D01*
X157480Y63209D01*
X157440Y63232D01*
X157351Y63271D01*
X157312Y63283D01*
X157281Y63295D01*
X157257Y63303D01*
X157253D01*
X157249D01*
X157273Y63615D01*
X157378Y63595D01*
X157472Y63560D01*
X157550Y63525D01*
X157616Y63482D01*
X157667Y63443D01*
X157706Y63412D01*
X157729Y63389D01*
X157737Y63385D01*
Y63381D01*
X157768Y63342D01*
X157795Y63303D01*
X157834Y63221D01*
X157866Y63139D01*
X157889Y63061D01*
X157901Y62991D01*
X157905Y62959D01*
Y62936D01*
X157908Y62913D01*
Y62885D01*
X157905Y62811D01*
X157897Y62741D01*
X157881Y62675D01*
X157862Y62612D01*
X157838Y62554D01*
X157815Y62503D01*
X157788Y62453D01*
X157760Y62410D01*
X157733Y62371D01*
X157706Y62335D01*
X157682Y62308D01*
X157659Y62281D01*
X157639Y62261D01*
X157624Y62250D01*
X157616Y62242D01*
X157612Y62238D01*
X157546Y62191D01*
X157468Y62148D01*
X157390Y62113D01*
X157300Y62082D01*
X157214Y62055D01*
X157125Y62031D01*
X157035Y62012D01*
X156945Y62000D01*
X156863Y61988D01*
X156785Y61981D01*
X156715Y61973D01*
X156653Y61969D01*
X156602Y61965D01*
X156563D01*
X156551D01*
X156540D01*
X156536D01*
X156532D01*
X156411Y61969D01*
X156302Y61977D01*
X156196Y61988D01*
X156103Y62004D01*
X156017Y62024D01*
X155939Y62043D01*
X155869Y62066D01*
X155806Y62090D01*
X155752Y62109D01*
X155705Y62133D01*
X155666Y62152D01*
X155635Y62172D01*
X155611Y62187D01*
X155596Y62199D01*
X155584Y62207D01*
X155580Y62211D01*
X155529Y62257D01*
X155487Y62308D01*
X155448Y62363D01*
X155412Y62417D01*
X155385Y62472D01*
X155362Y62523D01*
X155342Y62577D01*
X155327Y62628D01*
X155315Y62675D01*
X155307Y62718D01*
X155299Y62757D01*
X155296Y62788D01*
Y62815D01*
X155292Y62839D01*
Y62854D01*
X155296Y62936D01*
X155307Y63014D01*
X155327Y63084D01*
X155346Y63147D01*
X155366Y63194D01*
X155385Y63232D01*
X155397Y63256D01*
X155401Y63264D01*
X155448Y63330D01*
X155498Y63385D01*
X155549Y63435D01*
X155600Y63478D01*
X155647Y63509D01*
X155682Y63533D01*
X155697Y63541D01*
X155709Y63548D01*
X155713Y63552D01*
X155717D01*
X155795Y63587D01*
X155873Y63615D01*
X155951Y63630D01*
X156017Y63646D01*
X156079Y63654D01*
X156103D01*
X156126Y63658D01*
X156142D01*
X156154D01*
X156161D01*
X156165D01*
X156231Y63654D01*
D02*
G37*
G36*
X157908Y60970D02*
X157846Y60935D01*
X157784Y60892D01*
X157725Y60846D01*
X157671Y60799D01*
X157628Y60756D01*
X157593Y60721D01*
X157569Y60698D01*
X157565Y60694D01*
X157561Y60690D01*
X157499Y60616D01*
X157440Y60538D01*
X157390Y60460D01*
X157347Y60389D01*
X157312Y60327D01*
X157300Y60300D01*
X157288Y60276D01*
X157277Y60261D01*
X157269Y60245D01*
X157265Y60237D01*
Y60233D01*
X156957D01*
X156980Y60288D01*
X157008Y60347D01*
X157031Y60401D01*
X157058Y60452D01*
X157082Y60495D01*
X157101Y60530D01*
X157117Y60553D01*
X157121Y60557D01*
Y60561D01*
X157160Y60627D01*
X157203Y60686D01*
X157238Y60737D01*
X157273Y60779D01*
X157300Y60814D01*
X157320Y60842D01*
X157335Y60857D01*
X157339Y60861D01*
X155334D01*
Y61177D01*
X157908D01*
Y60970D01*
D02*
G37*
G36*
X156029Y59352D02*
X156103Y59301D01*
X156169Y59251D01*
X156228Y59204D01*
X156278Y59161D01*
X156317Y59126D01*
X156349Y59099D01*
X156364Y59079D01*
X156372Y59071D01*
X156395Y59044D01*
X156419Y59009D01*
X156462Y58943D01*
X156477Y58915D01*
X156489Y58892D01*
X156497Y58876D01*
X156501Y58868D01*
X156512Y58935D01*
X156524Y58997D01*
X156540Y59056D01*
X156559Y59106D01*
X156579Y59157D01*
X156598Y59200D01*
X156618Y59243D01*
X156637Y59278D01*
X156657Y59309D01*
X156672Y59336D01*
X156692Y59360D01*
X156703Y59379D01*
X156719Y59391D01*
X156727Y59403D01*
X156735Y59411D01*
X156770Y59442D01*
X156809Y59469D01*
X156887Y59516D01*
X156961Y59547D01*
X157035Y59566D01*
X157097Y59582D01*
X157125Y59586D01*
X157148D01*
X157167Y59590D01*
X157183D01*
X157191D01*
X157195D01*
X157273Y59586D01*
X157343Y59574D01*
X157409Y59555D01*
X157468Y59535D01*
X157515Y59516D01*
X157550Y59496D01*
X157573Y59485D01*
X157581Y59481D01*
X157643Y59438D01*
X157694Y59391D01*
X157737Y59344D01*
X157768Y59297D01*
X157795Y59258D01*
X157815Y59227D01*
X157823Y59204D01*
X157827Y59200D01*
Y59196D01*
X157838Y59161D01*
X157850Y59122D01*
X157866Y59040D01*
X157881Y58954D01*
X157889Y58872D01*
X157893Y58794D01*
Y58763D01*
X157897Y58732D01*
Y57542D01*
X155334D01*
Y57882D01*
X156473D01*
Y58319D01*
X156469Y58358D01*
Y58389D01*
X156465Y58416D01*
X156462Y58435D01*
Y58451D01*
X156458Y58459D01*
Y58463D01*
X156438Y58521D01*
X156415Y58568D01*
X156403Y58588D01*
X156395Y58603D01*
X156391Y58611D01*
X156387Y58615D01*
X156368Y58646D01*
X156341Y58673D01*
X156286Y58732D01*
X156259Y58751D01*
X156235Y58771D01*
X156220Y58783D01*
X156216Y58786D01*
X156165Y58825D01*
X156111Y58864D01*
X156052Y58907D01*
X155994Y58946D01*
X155943Y58982D01*
X155904Y59009D01*
X155888Y59017D01*
X155877Y59024D01*
X155869Y59032D01*
X155865D01*
X155334Y59372D01*
Y59797D01*
X156029Y59352D01*
D02*
G37*
G36*
X41496Y91376D02*
X43153D01*
Y91119D01*
X41496Y89948D01*
X41207D01*
Y91060D01*
X40595D01*
Y91376D01*
X41207D01*
Y91723D01*
X41496D01*
Y91376D01*
D02*
G37*
G36*
X40661Y89695D02*
X40700Y89617D01*
X40739Y89543D01*
X40778Y89477D01*
X40813Y89418D01*
X40829Y89395D01*
X40841Y89371D01*
X40852Y89356D01*
X40860Y89344D01*
X40868Y89336D01*
Y89332D01*
X40942Y89403D01*
X41016Y89461D01*
X41090Y89512D01*
X41157Y89551D01*
X41215Y89582D01*
X41242Y89597D01*
X41262Y89605D01*
X41281Y89613D01*
X41293Y89621D01*
X41301Y89625D01*
X41305D01*
X41402Y89656D01*
X41500Y89679D01*
X41597Y89699D01*
X41683Y89711D01*
X41726Y89714D01*
X41761Y89718D01*
X41792D01*
X41820Y89722D01*
X41843D01*
X41859D01*
X41870D01*
X41874D01*
X42015Y89714D01*
X42143Y89699D01*
X42256Y89675D01*
X42311Y89660D01*
X42358Y89648D01*
X42404Y89633D01*
X42443Y89617D01*
X42475Y89605D01*
X42502Y89594D01*
X42525Y89586D01*
X42545Y89578D01*
X42553Y89570D01*
X42557D01*
X42666Y89508D01*
X42759Y89442D01*
X42841Y89367D01*
X42908Y89297D01*
X42958Y89235D01*
X42982Y89208D01*
X42997Y89184D01*
X43013Y89165D01*
X43021Y89149D01*
X43029Y89141D01*
Y89137D01*
X43060Y89083D01*
X43087Y89028D01*
X43126Y88919D01*
X43157Y88810D01*
X43181Y88712D01*
X43185Y88665D01*
X43192Y88626D01*
X43196Y88587D01*
Y88556D01*
X43200Y88533D01*
Y88498D01*
X43192Y88373D01*
X43173Y88252D01*
X43149Y88147D01*
X43134Y88096D01*
X43118Y88053D01*
X43103Y88010D01*
X43087Y87975D01*
X43075Y87944D01*
X43064Y87917D01*
X43052Y87893D01*
X43044Y87878D01*
X43040Y87870D01*
X43036Y87866D01*
X42970Y87765D01*
X42892Y87679D01*
X42814Y87605D01*
X42736Y87542D01*
X42670Y87492D01*
X42638Y87472D01*
X42611Y87456D01*
X42592Y87445D01*
X42576Y87437D01*
X42564Y87429D01*
X42560D01*
X42443Y87378D01*
X42323Y87339D01*
X42210Y87316D01*
X42100Y87296D01*
X42053Y87289D01*
X42011Y87285D01*
X41972Y87281D01*
X41936D01*
X41913Y87277D01*
X41890D01*
X41878D01*
X41874D01*
X41734Y87285D01*
X41605Y87300D01*
X41488Y87324D01*
X41437Y87339D01*
X41387Y87355D01*
X41344Y87367D01*
X41305Y87382D01*
X41270Y87394D01*
X41242Y87406D01*
X41219Y87414D01*
X41203Y87421D01*
X41192Y87429D01*
X41188D01*
X41078Y87492D01*
X40985Y87562D01*
X40903Y87632D01*
X40837Y87702D01*
X40786Y87765D01*
X40763Y87792D01*
X40747Y87815D01*
X40735Y87835D01*
X40724Y87850D01*
X40720Y87858D01*
X40716Y87862D01*
X40661Y87971D01*
X40622Y88080D01*
X40591Y88186D01*
X40571Y88283D01*
X40568Y88326D01*
X40560Y88365D01*
X40556Y88400D01*
Y88431D01*
X40552Y88455D01*
Y88490D01*
X40560Y88615D01*
X40575Y88732D01*
X40603Y88841D01*
X40614Y88888D01*
X40630Y88934D01*
X40646Y88973D01*
X40657Y89009D01*
X40673Y89040D01*
X40685Y89067D01*
X40692Y89091D01*
X40700Y89106D01*
X40708Y89114D01*
Y89118D01*
X40634Y89219D01*
X40571Y89321D01*
X40517Y89414D01*
X40474Y89496D01*
X40458Y89535D01*
X40443Y89566D01*
X40427Y89597D01*
X40419Y89621D01*
X40412Y89640D01*
X40404Y89656D01*
X40400Y89664D01*
Y89668D01*
X40630Y89773D01*
X40661Y89695D01*
D02*
G37*
G36*
X42041Y106223D02*
X42123Y106207D01*
X42193Y106188D01*
X42252Y106165D01*
X42299Y106137D01*
X42334Y106118D01*
X42357Y106102D01*
X42365Y106098D01*
X42423Y106047D01*
X42470Y105989D01*
X42509Y105930D01*
X42537Y105876D01*
X42560Y105825D01*
X42572Y105786D01*
X42579Y105771D01*
Y105759D01*
X42583Y105751D01*
Y105747D01*
X42614Y105810D01*
X42654Y105864D01*
X42689Y105907D01*
X42724Y105946D01*
X42755Y105973D01*
X42778Y105997D01*
X42794Y106009D01*
X42802Y106012D01*
X42852Y106044D01*
X42907Y106063D01*
X42958Y106079D01*
X43005Y106090D01*
X43044Y106098D01*
X43075Y106102D01*
X43094D01*
X43102D01*
X43168Y106098D01*
X43227Y106087D01*
X43281Y106071D01*
X43332Y106055D01*
X43371Y106040D01*
X43402Y106024D01*
X43422Y106012D01*
X43430Y106009D01*
X43484Y105970D01*
X43535Y105927D01*
X43578Y105880D01*
X43613Y105837D01*
X43640Y105798D01*
X43660Y105767D01*
X43671Y105743D01*
X43675Y105739D01*
Y105736D01*
X43707Y105669D01*
X43730Y105603D01*
X43745Y105537D01*
X43757Y105478D01*
X43765Y105427D01*
X43769Y105388D01*
Y105299D01*
X43761Y105244D01*
X43742Y105147D01*
X43714Y105057D01*
X43683Y104983D01*
X43648Y104924D01*
X43632Y104901D01*
X43621Y104881D01*
X43609Y104862D01*
X43601Y104850D01*
X43597Y104846D01*
X43593Y104842D01*
X43523Y104772D01*
X43445Y104718D01*
X43363Y104671D01*
X43285Y104640D01*
X43215Y104612D01*
X43184Y104604D01*
X43157Y104597D01*
X43137Y104593D01*
X43121Y104589D01*
X43110Y104585D01*
X43106D01*
X43051Y104901D01*
X43133Y104917D01*
X43203Y104940D01*
X43262Y104963D01*
X43309Y104991D01*
X43348Y105014D01*
X43375Y105034D01*
X43391Y105049D01*
X43395Y105053D01*
X43433Y105104D01*
X43461Y105154D01*
X43484Y105205D01*
X43496Y105256D01*
X43504Y105295D01*
X43512Y105330D01*
Y105361D01*
X43508Y105427D01*
X43492Y105486D01*
X43476Y105537D01*
X43453Y105579D01*
X43433Y105615D01*
X43414Y105642D01*
X43398Y105657D01*
X43395Y105661D01*
X43352Y105700D01*
X43301Y105728D01*
X43254Y105751D01*
X43211Y105763D01*
X43168Y105771D01*
X43137Y105778D01*
X43118D01*
X43114D01*
X43110D01*
X43032Y105771D01*
X42965Y105751D01*
X42911Y105728D01*
X42868Y105696D01*
X42833Y105665D01*
X42806Y105642D01*
X42790Y105622D01*
X42786Y105615D01*
X42751Y105552D01*
X42728Y105490D01*
X42708Y105431D01*
X42696Y105377D01*
X42689Y105326D01*
X42685Y105291D01*
Y105240D01*
X42689Y105225D01*
Y105205D01*
X42412Y105170D01*
X42423Y105217D01*
X42431Y105260D01*
X42435Y105299D01*
X42439Y105330D01*
X42443Y105357D01*
Y105392D01*
X42435Y105470D01*
X42419Y105537D01*
X42400Y105599D01*
X42373Y105650D01*
X42345Y105693D01*
X42326Y105724D01*
X42310Y105739D01*
X42303Y105747D01*
X42248Y105794D01*
X42189Y105829D01*
X42127Y105856D01*
X42072Y105872D01*
X42022Y105884D01*
X41983Y105888D01*
X41967Y105892D01*
X41955D01*
X41952D01*
X41948D01*
X41866Y105884D01*
X41792Y105868D01*
X41725Y105845D01*
X41671Y105817D01*
X41624Y105786D01*
X41593Y105763D01*
X41573Y105747D01*
X41565Y105739D01*
X41515Y105681D01*
X41476Y105619D01*
X41452Y105556D01*
X41433Y105494D01*
X41421Y105443D01*
X41417Y105404D01*
X41413Y105388D01*
Y105365D01*
X41417Y105299D01*
X41433Y105236D01*
X41452Y105182D01*
X41472Y105139D01*
X41495Y105100D01*
X41511Y105072D01*
X41526Y105057D01*
X41530Y105049D01*
X41581Y105006D01*
X41640Y104967D01*
X41706Y104936D01*
X41768Y104913D01*
X41827Y104893D01*
X41873Y104881D01*
X41889Y104874D01*
X41905D01*
X41912Y104870D01*
X41916D01*
X41873Y104554D01*
X41815Y104562D01*
X41760Y104573D01*
X41659Y104608D01*
X41569Y104647D01*
X41491Y104694D01*
X41460Y104714D01*
X41433Y104737D01*
X41409Y104757D01*
X41386Y104772D01*
X41370Y104788D01*
X41359Y104799D01*
X41355Y104803D01*
X41351Y104807D01*
X41316Y104850D01*
X41285Y104897D01*
X41257Y104940D01*
X41238Y104987D01*
X41199Y105080D01*
X41175Y105170D01*
X41168Y105209D01*
X41164Y105248D01*
X41160Y105279D01*
X41156Y105310D01*
X41152Y105334D01*
Y105365D01*
X41156Y105431D01*
X41164Y105498D01*
X41172Y105560D01*
X41187Y105619D01*
X41207Y105673D01*
X41226Y105724D01*
X41246Y105771D01*
X41269Y105814D01*
X41289Y105849D01*
X41308Y105884D01*
X41328Y105915D01*
X41347Y105938D01*
X41363Y105958D01*
X41370Y105970D01*
X41378Y105977D01*
X41382Y105981D01*
X41429Y106024D01*
X41476Y106063D01*
X41522Y106094D01*
X41569Y106122D01*
X41616Y106149D01*
X41667Y106168D01*
X41756Y106196D01*
X41796Y106207D01*
X41835Y106215D01*
X41866Y106219D01*
X41897Y106223D01*
X41920Y106227D01*
X41936D01*
X41948D01*
X41952D01*
X42041Y106223D01*
D02*
G37*
G36*
X41261Y104191D02*
X41300Y104113D01*
X41339Y104039D01*
X41378Y103973D01*
X41413Y103914D01*
X41429Y103891D01*
X41441Y103867D01*
X41452Y103852D01*
X41460Y103840D01*
X41468Y103832D01*
Y103828D01*
X41542Y103899D01*
X41616Y103957D01*
X41690Y104008D01*
X41756Y104047D01*
X41815Y104078D01*
X41842Y104094D01*
X41862Y104101D01*
X41881Y104109D01*
X41893Y104117D01*
X41901Y104121D01*
X41905D01*
X42002Y104152D01*
X42100Y104175D01*
X42197Y104195D01*
X42283Y104207D01*
X42326Y104211D01*
X42361Y104215D01*
X42392D01*
X42419Y104218D01*
X42443D01*
X42459D01*
X42470D01*
X42474D01*
X42614Y104211D01*
X42743Y104195D01*
X42856Y104172D01*
X42911Y104156D01*
X42958Y104144D01*
X43005Y104129D01*
X43044Y104113D01*
X43075Y104101D01*
X43102Y104090D01*
X43125Y104082D01*
X43145Y104074D01*
X43153Y104066D01*
X43157D01*
X43266Y104004D01*
X43359Y103938D01*
X43441Y103864D01*
X43508Y103793D01*
X43558Y103731D01*
X43582Y103704D01*
X43597Y103680D01*
X43613Y103661D01*
X43621Y103645D01*
X43628Y103637D01*
Y103633D01*
X43660Y103579D01*
X43687Y103524D01*
X43726Y103415D01*
X43757Y103306D01*
X43781Y103208D01*
X43784Y103162D01*
X43792Y103122D01*
X43796Y103084D01*
Y103052D01*
X43800Y103029D01*
Y102994D01*
X43792Y102869D01*
X43773Y102748D01*
X43749Y102643D01*
X43734Y102592D01*
X43718Y102549D01*
X43703Y102506D01*
X43687Y102471D01*
X43675Y102440D01*
X43664Y102413D01*
X43652Y102389D01*
X43644Y102374D01*
X43640Y102366D01*
X43636Y102362D01*
X43570Y102261D01*
X43492Y102175D01*
X43414Y102101D01*
X43336Y102038D01*
X43270Y101988D01*
X43238Y101968D01*
X43211Y101953D01*
X43192Y101941D01*
X43176Y101933D01*
X43164Y101925D01*
X43161D01*
X43044Y101874D01*
X42923Y101836D01*
X42810Y101812D01*
X42700Y101793D01*
X42654Y101785D01*
X42611Y101781D01*
X42572Y101777D01*
X42537D01*
X42513Y101773D01*
X42490D01*
X42478D01*
X42474D01*
X42334Y101781D01*
X42205Y101796D01*
X42088Y101820D01*
X42037Y101836D01*
X41987Y101851D01*
X41944Y101863D01*
X41905Y101878D01*
X41870Y101890D01*
X41842Y101902D01*
X41819Y101910D01*
X41803Y101917D01*
X41792Y101925D01*
X41788D01*
X41679Y101988D01*
X41585Y102058D01*
X41503Y102128D01*
X41437Y102198D01*
X41386Y102261D01*
X41363Y102288D01*
X41347Y102311D01*
X41335Y102331D01*
X41324Y102346D01*
X41320Y102354D01*
X41316Y102358D01*
X41261Y102467D01*
X41222Y102576D01*
X41191Y102682D01*
X41172Y102779D01*
X41168Y102822D01*
X41160Y102861D01*
X41156Y102896D01*
Y102927D01*
X41152Y102951D01*
Y102986D01*
X41160Y103111D01*
X41175Y103228D01*
X41203Y103337D01*
X41214Y103384D01*
X41230Y103431D01*
X41246Y103470D01*
X41257Y103505D01*
X41273Y103536D01*
X41285Y103563D01*
X41292Y103587D01*
X41300Y103602D01*
X41308Y103610D01*
Y103614D01*
X41234Y103715D01*
X41172Y103817D01*
X41117Y103910D01*
X41074Y103992D01*
X41058Y104031D01*
X41043Y104062D01*
X41027Y104094D01*
X41019Y104117D01*
X41012Y104137D01*
X41004Y104152D01*
X41000Y104160D01*
Y104164D01*
X41230Y104269D01*
X41261Y104191D01*
D02*
G37*
G36*
X171093Y163156D02*
X171030Y163121D01*
X170968Y163078D01*
X170910Y163031D01*
X170855Y162984D01*
X170812Y162941D01*
X170777Y162906D01*
X170754Y162883D01*
X170750Y162879D01*
X170746Y162875D01*
X170683Y162801D01*
X170625Y162723D01*
X170574Y162645D01*
X170531Y162575D01*
X170496Y162512D01*
X170484Y162485D01*
X170473Y162462D01*
X170461Y162446D01*
X170453Y162431D01*
X170449Y162423D01*
Y162419D01*
X170141D01*
X170165Y162473D01*
X170192Y162532D01*
X170215Y162586D01*
X170243Y162637D01*
X170266Y162680D01*
X170286Y162715D01*
X170301Y162739D01*
X170305Y162742D01*
Y162746D01*
X170344Y162813D01*
X170387Y162871D01*
X170422Y162922D01*
X170457Y162965D01*
X170484Y163000D01*
X170504Y163027D01*
X170520Y163043D01*
X170524Y163047D01*
X168519D01*
Y163363D01*
X171093D01*
Y163156D01*
D02*
G37*
G36*
X168819Y160582D02*
X168882Y160625D01*
X168932Y160668D01*
X168956Y160687D01*
X168971Y160703D01*
X168983Y160711D01*
X168987Y160714D01*
X169006Y160734D01*
X169026Y160754D01*
X169073Y160804D01*
X169127Y160867D01*
X169182Y160925D01*
X169233Y160984D01*
X169272Y161030D01*
X169287Y161050D01*
X169299Y161065D01*
X169307Y161073D01*
X169311Y161077D01*
X169365Y161140D01*
X169412Y161194D01*
X169459Y161249D01*
X169502Y161296D01*
X169545Y161338D01*
X169580Y161378D01*
X169615Y161416D01*
X169646Y161448D01*
X169673Y161475D01*
X169697Y161498D01*
X169732Y161533D01*
X169755Y161553D01*
X169763Y161561D01*
X169825Y161611D01*
X169880Y161658D01*
X169935Y161693D01*
X169981Y161721D01*
X170020Y161744D01*
X170048Y161760D01*
X170067Y161767D01*
X170075Y161771D01*
X170130Y161795D01*
X170184Y161810D01*
X170235Y161822D01*
X170282Y161830D01*
X170321Y161834D01*
X170352Y161838D01*
X170371D01*
X170379D01*
X170434Y161834D01*
X170488Y161830D01*
X170586Y161803D01*
X170672Y161767D01*
X170746Y161729D01*
X170804Y161689D01*
X170828Y161670D01*
X170851Y161654D01*
X170867Y161639D01*
X170878Y161627D01*
X170882Y161623D01*
X170886Y161619D01*
X170921Y161576D01*
X170956Y161533D01*
X170984Y161487D01*
X171007Y161436D01*
X171042Y161338D01*
X171066Y161245D01*
X171077Y161202D01*
X171081Y161163D01*
X171085Y161128D01*
X171089Y161097D01*
X171093Y161069D01*
Y161034D01*
X171089Y160968D01*
X171085Y160906D01*
X171062Y160789D01*
X171050Y160738D01*
X171034Y160687D01*
X171015Y160644D01*
X170999Y160605D01*
X170980Y160570D01*
X170964Y160539D01*
X170945Y160512D01*
X170933Y160488D01*
X170921Y160473D01*
X170910Y160461D01*
X170906Y160453D01*
X170902Y160449D01*
X170863Y160410D01*
X170824Y160379D01*
X170734Y160321D01*
X170644Y160278D01*
X170555Y160247D01*
X170477Y160223D01*
X170442Y160219D01*
X170410Y160211D01*
X170387Y160207D01*
X170368Y160204D01*
X170356D01*
X170352D01*
X170317Y160527D01*
X170403Y160535D01*
X170477Y160551D01*
X170539Y160570D01*
X170594Y160598D01*
X170637Y160621D01*
X170668Y160644D01*
X170683Y160660D01*
X170691Y160664D01*
X170738Y160718D01*
X170773Y160777D01*
X170797Y160839D01*
X170816Y160898D01*
X170824Y160949D01*
X170828Y160987D01*
X170832Y161003D01*
Y161027D01*
X170828Y161105D01*
X170812Y161175D01*
X170793Y161233D01*
X170769Y161284D01*
X170742Y161323D01*
X170722Y161354D01*
X170707Y161370D01*
X170703Y161378D01*
X170652Y161424D01*
X170598Y161456D01*
X170547Y161479D01*
X170496Y161498D01*
X170453Y161506D01*
X170418Y161510D01*
X170395Y161514D01*
X170391D01*
X170387D01*
X170321Y161506D01*
X170250Y161491D01*
X170188Y161467D01*
X170130Y161440D01*
X170079Y161413D01*
X170040Y161389D01*
X170024Y161381D01*
X170013Y161374D01*
X170009Y161366D01*
X170005D01*
X169966Y161335D01*
X169923Y161300D01*
X169880Y161260D01*
X169837Y161214D01*
X169747Y161120D01*
X169658Y161027D01*
X169584Y160941D01*
X169548Y160902D01*
X169521Y160867D01*
X169494Y160839D01*
X169478Y160820D01*
X169467Y160804D01*
X169463Y160800D01*
X169381Y160707D01*
X169307Y160621D01*
X169240Y160551D01*
X169186Y160492D01*
X169139Y160445D01*
X169104Y160414D01*
X169080Y160395D01*
X169077Y160387D01*
X169073D01*
X169010Y160336D01*
X168952Y160297D01*
X168893Y160258D01*
X168843Y160231D01*
X168796Y160207D01*
X168765Y160192D01*
X168741Y160184D01*
X168737Y160180D01*
X168733D01*
X168694Y160169D01*
X168655Y160157D01*
X168620Y160153D01*
X168589Y160149D01*
X168562Y160145D01*
X168538D01*
X168523D01*
X168519D01*
Y161842D01*
X168819D01*
Y160582D01*
D02*
G37*
G36*
X169416Y159560D02*
X169303Y159529D01*
X169201Y159490D01*
X169120Y159443D01*
X169049Y159400D01*
X168999Y159357D01*
X168960Y159322D01*
X168936Y159299D01*
X168932Y159295D01*
X168928Y159291D01*
X168874Y159213D01*
X168835Y159135D01*
X168804Y159053D01*
X168784Y158979D01*
X168772Y158913D01*
X168769Y158881D01*
Y158858D01*
X168765Y158839D01*
Y158811D01*
X168769Y158726D01*
X168784Y158644D01*
X168804Y158570D01*
X168823Y158507D01*
X168846Y158452D01*
X168862Y158410D01*
X168870Y158394D01*
X168878Y158382D01*
X168882Y158378D01*
Y158375D01*
X168932Y158304D01*
X168991Y158246D01*
X169049Y158195D01*
X169112Y158152D01*
X169162Y158121D01*
X169209Y158101D01*
X169225Y158094D01*
X169237Y158086D01*
X169244Y158082D01*
X169248D01*
X169342Y158051D01*
X169439Y158027D01*
X169537Y158012D01*
X169626Y158000D01*
X169666Y157996D01*
X169701Y157992D01*
X169736D01*
X169763Y157988D01*
X169786D01*
X169802D01*
X169814D01*
X169818D01*
X169911Y157992D01*
X170001Y158000D01*
X170083Y158012D01*
X170157Y158027D01*
X170219Y158043D01*
X170247Y158047D01*
X170266Y158055D01*
X170286Y158059D01*
X170297Y158063D01*
X170305Y158066D01*
X170309D01*
X170395Y158101D01*
X170473Y158144D01*
X170535Y158191D01*
X170590Y158234D01*
X170633Y158277D01*
X170664Y158312D01*
X170683Y158335D01*
X170691Y158339D01*
Y158343D01*
X170738Y158421D01*
X170773Y158503D01*
X170800Y158585D01*
X170816Y158663D01*
X170828Y158733D01*
X170832Y158761D01*
Y158788D01*
X170835Y158807D01*
Y158835D01*
X170832Y158928D01*
X170816Y159010D01*
X170797Y159084D01*
X170773Y159143D01*
X170746Y159194D01*
X170726Y159229D01*
X170711Y159252D01*
X170707Y159260D01*
X170652Y159322D01*
X170590Y159373D01*
X170520Y159420D01*
X170453Y159455D01*
X170395Y159482D01*
X170368Y159494D01*
X170344Y159505D01*
X170325Y159513D01*
X170309Y159517D01*
X170301Y159521D01*
X170297D01*
X170375Y159856D01*
X170500Y159810D01*
X170559Y159782D01*
X170609Y159755D01*
X170660Y159724D01*
X170707Y159693D01*
X170746Y159665D01*
X170785Y159634D01*
X170816Y159607D01*
X170843Y159580D01*
X170871Y159552D01*
X170890Y159533D01*
X170906Y159513D01*
X170917Y159502D01*
X170921Y159494D01*
X170925Y159490D01*
X170960Y159439D01*
X170992Y159388D01*
X171019Y159334D01*
X171042Y159279D01*
X171077Y159170D01*
X171101Y159069D01*
X171108Y159022D01*
X171112Y158979D01*
X171116Y158940D01*
X171120Y158909D01*
X171124Y158881D01*
Y158843D01*
X171116Y158718D01*
X171101Y158601D01*
X171073Y158495D01*
X171062Y158449D01*
X171046Y158406D01*
X171030Y158367D01*
X171019Y158328D01*
X171003Y158297D01*
X170992Y158273D01*
X170984Y158250D01*
X170976Y158234D01*
X170968Y158226D01*
Y158222D01*
X170906Y158125D01*
X170832Y158035D01*
X170757Y157961D01*
X170683Y157903D01*
X170617Y157852D01*
X170590Y157832D01*
X170566Y157817D01*
X170543Y157805D01*
X170527Y157797D01*
X170520Y157790D01*
X170516D01*
X170403Y157739D01*
X170282Y157700D01*
X170165Y157676D01*
X170055Y157657D01*
X170005Y157649D01*
X169962Y157645D01*
X169919Y157641D01*
X169884D01*
X169857Y157637D01*
X169837D01*
X169822D01*
X169818D01*
X169681Y157641D01*
X169556Y157657D01*
X169439Y157680D01*
X169385Y157692D01*
X169338Y157704D01*
X169291Y157715D01*
X169252Y157727D01*
X169217Y157739D01*
X169186Y157750D01*
X169162Y157758D01*
X169147Y157766D01*
X169135Y157770D01*
X169131D01*
X169018Y157825D01*
X168921Y157891D01*
X168835Y157953D01*
X168769Y158020D01*
X168714Y158074D01*
X168675Y158121D01*
X168663Y158141D01*
X168651Y158152D01*
X168648Y158160D01*
X168644Y158164D01*
X168613Y158215D01*
X168589Y158269D01*
X168546Y158378D01*
X168519Y158492D01*
X168496Y158601D01*
X168492Y158648D01*
X168484Y158694D01*
X168480Y158733D01*
Y158768D01*
X168476Y158800D01*
Y158839D01*
X168480Y158913D01*
X168484Y158983D01*
X168511Y159112D01*
X168527Y159170D01*
X168546Y159229D01*
X168566Y159279D01*
X168585Y159326D01*
X168605Y159369D01*
X168624Y159404D01*
X168644Y159435D01*
X168659Y159463D01*
X168675Y159486D01*
X168687Y159502D01*
X168691Y159509D01*
X168694Y159513D01*
X168737Y159564D01*
X168784Y159611D01*
X168886Y159689D01*
X168991Y159759D01*
X169096Y159810D01*
X169143Y159833D01*
X169186Y159849D01*
X169229Y159864D01*
X169260Y159880D01*
X169291Y159888D01*
X169311Y159896D01*
X169326Y159899D01*
X169330D01*
X169416Y159560D01*
D02*
G37*
G36*
X161619Y164000D02*
X161678D01*
X161736Y163997D01*
X161791Y163993D01*
X161841Y163985D01*
X161884Y163981D01*
X161927Y163977D01*
X161962Y163969D01*
X161997Y163965D01*
X162025Y163962D01*
X162044Y163954D01*
X162064Y163950D01*
X162075D01*
X162083Y163946D01*
X162087D01*
X162169Y163923D01*
X162243Y163895D01*
X162309Y163868D01*
X162364Y163845D01*
X162407Y163821D01*
X162442Y163802D01*
X162461Y163790D01*
X162469Y163786D01*
X162524Y163747D01*
X162571Y163704D01*
X162613Y163661D01*
X162649Y163622D01*
X162672Y163583D01*
X162691Y163556D01*
X162703Y163536D01*
X162707Y163529D01*
X162734Y163470D01*
X162758Y163408D01*
X162773Y163345D01*
X162781Y163291D01*
X162789Y163244D01*
X162793Y163205D01*
Y163170D01*
X162785Y163068D01*
X162769Y162979D01*
X162746Y162897D01*
X162719Y162830D01*
X162688Y162776D01*
X162664Y162737D01*
X162656Y162721D01*
X162649Y162710D01*
X162641Y162706D01*
Y162702D01*
X162578Y162636D01*
X162512Y162581D01*
X162442Y162534D01*
X162372Y162495D01*
X162309Y162464D01*
X162282Y162452D01*
X162259Y162444D01*
X162239Y162437D01*
X162223Y162429D01*
X162216Y162425D01*
X162212D01*
X162157Y162409D01*
X162103Y162394D01*
X161982Y162374D01*
X161861Y162359D01*
X161744Y162347D01*
X161689Y162343D01*
X161638Y162339D01*
X161596D01*
X161557Y162335D01*
X161525D01*
X161502D01*
X161486D01*
X161483D01*
X161354Y162339D01*
X161229Y162347D01*
X161120Y162359D01*
X161014Y162374D01*
X160921Y162394D01*
X160835Y162413D01*
X160757Y162437D01*
X160691Y162460D01*
X160628Y162483D01*
X160578Y162507D01*
X160535Y162526D01*
X160500Y162546D01*
X160472Y162561D01*
X160453Y162573D01*
X160441Y162581D01*
X160437Y162585D01*
X160390Y162628D01*
X160352Y162671D01*
X160316Y162717D01*
X160285Y162768D01*
X160262Y162815D01*
X160238Y162866D01*
X160207Y162959D01*
X160199Y163002D01*
X160192Y163041D01*
X160184Y163076D01*
X160180Y163107D01*
X160176Y163135D01*
Y163170D01*
X160184Y163271D01*
X160199Y163361D01*
X160223Y163439D01*
X160250Y163509D01*
X160277Y163560D01*
X160301Y163603D01*
X160312Y163614D01*
X160316Y163626D01*
X160324Y163630D01*
Y163634D01*
X160387Y163700D01*
X160457Y163755D01*
X160527Y163802D01*
X160597Y163841D01*
X160660Y163872D01*
X160683Y163883D01*
X160706Y163895D01*
X160726Y163903D01*
X160741Y163907D01*
X160749Y163911D01*
X160753D01*
X160808Y163926D01*
X160862Y163942D01*
X160983Y163965D01*
X161104Y163981D01*
X161221Y163993D01*
X161276Y163997D01*
X161327Y164000D01*
X161369D01*
X161408Y164004D01*
X161440D01*
X161463D01*
X161479D01*
X161483D01*
X161619Y164000D01*
D02*
G37*
G36*
X160519Y160740D02*
X160582Y160783D01*
X160632Y160826D01*
X160656Y160845D01*
X160671Y160861D01*
X160683Y160869D01*
X160687Y160873D01*
X160706Y160892D01*
X160726Y160912D01*
X160773Y160962D01*
X160827Y161025D01*
X160882Y161083D01*
X160933Y161142D01*
X160972Y161189D01*
X160987Y161208D01*
X160999Y161224D01*
X161007Y161232D01*
X161011Y161235D01*
X161065Y161298D01*
X161112Y161352D01*
X161159Y161407D01*
X161202Y161454D01*
X161245Y161497D01*
X161280Y161536D01*
X161315Y161575D01*
X161346Y161606D01*
X161373Y161633D01*
X161397Y161657D01*
X161432Y161692D01*
X161455Y161711D01*
X161463Y161719D01*
X161525Y161770D01*
X161580Y161817D01*
X161635Y161852D01*
X161681Y161879D01*
X161720Y161902D01*
X161748Y161918D01*
X161767Y161926D01*
X161775Y161930D01*
X161830Y161953D01*
X161884Y161969D01*
X161935Y161980D01*
X161982Y161988D01*
X162021Y161992D01*
X162052Y161996D01*
X162071D01*
X162079D01*
X162134Y161992D01*
X162188Y161988D01*
X162286Y161961D01*
X162372Y161926D01*
X162446Y161887D01*
X162504Y161848D01*
X162528Y161828D01*
X162551Y161813D01*
X162567Y161797D01*
X162578Y161785D01*
X162582Y161781D01*
X162586Y161777D01*
X162621Y161735D01*
X162656Y161692D01*
X162684Y161645D01*
X162707Y161594D01*
X162742Y161497D01*
X162766Y161403D01*
X162777Y161360D01*
X162781Y161321D01*
X162785Y161286D01*
X162789Y161255D01*
X162793Y161228D01*
Y161193D01*
X162789Y161126D01*
X162785Y161064D01*
X162762Y160947D01*
X162750Y160896D01*
X162734Y160845D01*
X162715Y160802D01*
X162699Y160764D01*
X162680Y160728D01*
X162664Y160697D01*
X162645Y160670D01*
X162633Y160646D01*
X162621Y160631D01*
X162610Y160619D01*
X162606Y160611D01*
X162602Y160608D01*
X162563Y160568D01*
X162524Y160537D01*
X162434Y160479D01*
X162344Y160436D01*
X162255Y160405D01*
X162177Y160381D01*
X162142Y160377D01*
X162110Y160370D01*
X162087Y160366D01*
X162067Y160362D01*
X162056D01*
X162052D01*
X162017Y160686D01*
X162103Y160693D01*
X162177Y160709D01*
X162239Y160728D01*
X162294Y160756D01*
X162337Y160779D01*
X162368Y160802D01*
X162383Y160818D01*
X162391Y160822D01*
X162438Y160877D01*
X162473Y160935D01*
X162496Y160997D01*
X162516Y161056D01*
X162524Y161107D01*
X162528Y161146D01*
X162532Y161161D01*
Y161185D01*
X162528Y161263D01*
X162512Y161333D01*
X162493Y161391D01*
X162469Y161442D01*
X162442Y161481D01*
X162422Y161512D01*
X162407Y161528D01*
X162403Y161536D01*
X162352Y161583D01*
X162298Y161614D01*
X162247Y161637D01*
X162196Y161657D01*
X162153Y161664D01*
X162118Y161668D01*
X162095Y161672D01*
X162091D01*
X162087D01*
X162021Y161664D01*
X161951Y161649D01*
X161888Y161625D01*
X161830Y161598D01*
X161779Y161571D01*
X161740Y161547D01*
X161724Y161540D01*
X161713Y161532D01*
X161709Y161524D01*
X161705D01*
X161666Y161493D01*
X161623Y161458D01*
X161580Y161419D01*
X161537Y161372D01*
X161447Y161278D01*
X161358Y161185D01*
X161284Y161099D01*
X161249Y161060D01*
X161221Y161025D01*
X161194Y160997D01*
X161178Y160978D01*
X161167Y160962D01*
X161163Y160959D01*
X161081Y160865D01*
X161007Y160779D01*
X160940Y160709D01*
X160886Y160650D01*
X160839Y160604D01*
X160804Y160572D01*
X160781Y160553D01*
X160777Y160545D01*
X160773D01*
X160710Y160494D01*
X160652Y160455D01*
X160593Y160416D01*
X160543Y160389D01*
X160496Y160366D01*
X160465Y160350D01*
X160441Y160342D01*
X160437Y160338D01*
X160433D01*
X160394Y160327D01*
X160355Y160315D01*
X160320Y160311D01*
X160289Y160307D01*
X160262Y160303D01*
X160238D01*
X160223D01*
X160219D01*
Y162000D01*
X160519D01*
Y160740D01*
D02*
G37*
G36*
X161116Y159718D02*
X161003Y159687D01*
X160901Y159648D01*
X160819Y159601D01*
X160749Y159558D01*
X160699Y159516D01*
X160660Y159480D01*
X160636Y159457D01*
X160632Y159453D01*
X160628Y159449D01*
X160574Y159371D01*
X160535Y159293D01*
X160504Y159211D01*
X160484Y159137D01*
X160472Y159071D01*
X160468Y159040D01*
Y159016D01*
X160465Y158997D01*
Y158969D01*
X160468Y158884D01*
X160484Y158802D01*
X160504Y158728D01*
X160523Y158665D01*
X160547Y158611D01*
X160562Y158568D01*
X160570Y158552D01*
X160578Y158540D01*
X160582Y158537D01*
Y158533D01*
X160632Y158463D01*
X160691Y158404D01*
X160749Y158353D01*
X160812Y158310D01*
X160862Y158279D01*
X160909Y158260D01*
X160925Y158252D01*
X160936Y158244D01*
X160944Y158240D01*
X160948D01*
X161042Y158209D01*
X161139Y158186D01*
X161237Y158170D01*
X161327Y158158D01*
X161365Y158154D01*
X161401Y158150D01*
X161436D01*
X161463Y158147D01*
X161486D01*
X161502D01*
X161514D01*
X161518D01*
X161611Y158150D01*
X161701Y158158D01*
X161783Y158170D01*
X161857Y158186D01*
X161919Y158201D01*
X161947Y158205D01*
X161966Y158213D01*
X161986Y158217D01*
X161997Y158221D01*
X162005Y158225D01*
X162009D01*
X162095Y158260D01*
X162173Y158303D01*
X162235Y158349D01*
X162290Y158392D01*
X162333Y158435D01*
X162364Y158470D01*
X162383Y158494D01*
X162391Y158498D01*
Y158502D01*
X162438Y158580D01*
X162473Y158661D01*
X162500Y158743D01*
X162516Y158821D01*
X162528Y158891D01*
X162532Y158919D01*
Y158946D01*
X162536Y158966D01*
Y158993D01*
X162532Y159087D01*
X162516Y159168D01*
X162496Y159242D01*
X162473Y159301D01*
X162446Y159352D01*
X162426Y159387D01*
X162411Y159410D01*
X162407Y159418D01*
X162352Y159480D01*
X162290Y159531D01*
X162220Y159578D01*
X162153Y159613D01*
X162095Y159640D01*
X162067Y159652D01*
X162044Y159664D01*
X162025Y159671D01*
X162009Y159675D01*
X162001Y159679D01*
X161997D01*
X162075Y160015D01*
X162200Y159968D01*
X162259Y159941D01*
X162309Y159913D01*
X162360Y159882D01*
X162407Y159851D01*
X162446Y159824D01*
X162485Y159792D01*
X162516Y159765D01*
X162543Y159738D01*
X162571Y159711D01*
X162590Y159691D01*
X162606Y159671D01*
X162617Y159660D01*
X162621Y159652D01*
X162625Y159648D01*
X162660Y159597D01*
X162691Y159547D01*
X162719Y159492D01*
X162742Y159438D01*
X162777Y159328D01*
X162801Y159227D01*
X162809Y159180D01*
X162812Y159137D01*
X162816Y159098D01*
X162820Y159067D01*
X162824Y159040D01*
Y159001D01*
X162816Y158876D01*
X162801Y158759D01*
X162773Y158654D01*
X162762Y158607D01*
X162746Y158564D01*
X162731Y158525D01*
X162719Y158486D01*
X162703Y158455D01*
X162691Y158431D01*
X162684Y158408D01*
X162676Y158392D01*
X162668Y158385D01*
Y158381D01*
X162606Y158283D01*
X162532Y158193D01*
X162458Y158119D01*
X162383Y158061D01*
X162317Y158010D01*
X162290Y157991D01*
X162266Y157975D01*
X162243Y157963D01*
X162227Y157956D01*
X162220Y157948D01*
X162216D01*
X162103Y157897D01*
X161982Y157858D01*
X161865Y157835D01*
X161756Y157815D01*
X161705Y157807D01*
X161662Y157803D01*
X161619Y157799D01*
X161584D01*
X161557Y157796D01*
X161537D01*
X161521D01*
X161518D01*
X161381Y157799D01*
X161256Y157815D01*
X161139Y157838D01*
X161085Y157850D01*
X161038Y157862D01*
X160991Y157874D01*
X160952Y157885D01*
X160917Y157897D01*
X160886Y157909D01*
X160862Y157916D01*
X160847Y157924D01*
X160835Y157928D01*
X160831D01*
X160718Y157983D01*
X160621Y158049D01*
X160535Y158112D01*
X160468Y158178D01*
X160414Y158232D01*
X160375Y158279D01*
X160363Y158299D01*
X160352Y158310D01*
X160348Y158318D01*
X160344Y158322D01*
X160312Y158373D01*
X160289Y158427D01*
X160246Y158537D01*
X160219Y158650D01*
X160196Y158759D01*
X160192Y158806D01*
X160184Y158853D01*
X160180Y158891D01*
Y158927D01*
X160176Y158958D01*
Y158997D01*
X160180Y159071D01*
X160184Y159141D01*
X160211Y159270D01*
X160227Y159328D01*
X160246Y159387D01*
X160266Y159438D01*
X160285Y159484D01*
X160305Y159527D01*
X160324Y159562D01*
X160344Y159593D01*
X160359Y159621D01*
X160375Y159644D01*
X160387Y159660D01*
X160390Y159668D01*
X160394Y159671D01*
X160437Y159722D01*
X160484Y159769D01*
X160585Y159847D01*
X160691Y159917D01*
X160796Y159968D01*
X160843Y159991D01*
X160886Y160007D01*
X160929Y160022D01*
X160960Y160038D01*
X160991Y160046D01*
X161011Y160054D01*
X161026Y160058D01*
X161030D01*
X161116Y159718D01*
D02*
G37*
G36*
X156520Y164108D02*
X156595Y164101D01*
X156665Y164097D01*
X156727Y164089D01*
X156786Y164077D01*
X156840Y164069D01*
X156887Y164058D01*
X156930Y164046D01*
X156969Y164038D01*
X157000Y164030D01*
X157024Y164019D01*
X157043Y164015D01*
X157059Y164007D01*
X157066Y164003D01*
X157070D01*
X157160Y163960D01*
X157238Y163909D01*
X157300Y163855D01*
X157359Y163804D01*
X157402Y163757D01*
X157433Y163722D01*
X157441Y163707D01*
X157449Y163695D01*
X157456Y163691D01*
Y163687D01*
X157503Y163609D01*
X157534Y163527D01*
X157558Y163453D01*
X157577Y163383D01*
X157585Y163321D01*
X157589Y163293D01*
Y163274D01*
X157593Y163254D01*
Y163231D01*
X157589Y163168D01*
X157581Y163106D01*
X157570Y163048D01*
X157558Y162993D01*
X157519Y162895D01*
X157495Y162853D01*
X157476Y162813D01*
X157452Y162775D01*
X157429Y162743D01*
X157410Y162716D01*
X157394Y162697D01*
X157378Y162677D01*
X157367Y162665D01*
X157359Y162657D01*
X157355Y162654D01*
X157308Y162615D01*
X157261Y162580D01*
X157211Y162548D01*
X157156Y162525D01*
X157105Y162502D01*
X157051Y162482D01*
X156953Y162455D01*
X156906Y162447D01*
X156864Y162439D01*
X156825Y162435D01*
X156793Y162431D01*
X156766Y162427D01*
X156743D01*
X156731D01*
X156727D01*
X156657Y162431D01*
X156591Y162435D01*
X156532Y162447D01*
X156474Y162462D01*
X156419Y162478D01*
X156368Y162498D01*
X156322Y162517D01*
X156282Y162537D01*
X156244Y162556D01*
X156212Y162576D01*
X156185Y162595D01*
X156162Y162611D01*
X156142Y162626D01*
X156130Y162638D01*
X156123Y162642D01*
X156119Y162646D01*
X156080Y162689D01*
X156045Y162732D01*
X156013Y162778D01*
X155986Y162821D01*
X155963Y162868D01*
X155943Y162911D01*
X155916Y162997D01*
X155900Y163071D01*
X155896Y163102D01*
X155893Y163129D01*
X155889Y163153D01*
Y163184D01*
X155893Y163254D01*
X155904Y163321D01*
X155916Y163379D01*
X155935Y163430D01*
X155951Y163473D01*
X155963Y163508D01*
X155974Y163527D01*
X155978Y163535D01*
X156017Y163593D01*
X156056Y163644D01*
X156099Y163691D01*
X156138Y163726D01*
X156169Y163757D01*
X156201Y163777D01*
X156216Y163792D01*
X156224Y163796D01*
X156197D01*
X156177D01*
X156166D01*
X156162D01*
X156088D01*
X156017Y163788D01*
X155955Y163781D01*
X155896Y163773D01*
X155846Y163765D01*
X155807Y163757D01*
X155795Y163753D01*
X155783D01*
X155779Y163750D01*
X155775D01*
X155709Y163730D01*
X155651Y163710D01*
X155600Y163691D01*
X155557Y163675D01*
X155522Y163656D01*
X155495Y163644D01*
X155479Y163636D01*
X155475Y163633D01*
X155436Y163605D01*
X155401Y163574D01*
X155370Y163547D01*
X155347Y163515D01*
X155327Y163492D01*
X155311Y163473D01*
X155304Y163457D01*
X155300Y163453D01*
X155276Y163410D01*
X155261Y163367D01*
X155249Y163324D01*
X155241Y163285D01*
X155237Y163250D01*
X155233Y163223D01*
Y163200D01*
X155237Y163137D01*
X155249Y163083D01*
X155265Y163036D01*
X155280Y162997D01*
X155296Y162962D01*
X155311Y162938D01*
X155323Y162923D01*
X155327Y162919D01*
X155366Y162880D01*
X155417Y162849D01*
X155467Y162825D01*
X155518Y162806D01*
X155561Y162790D01*
X155600Y162782D01*
X155616Y162778D01*
X155627Y162775D01*
X155631D01*
X155635D01*
X155612Y162474D01*
X155502Y162494D01*
X155409Y162525D01*
X155327Y162560D01*
X155261Y162599D01*
X155210Y162638D01*
X155171Y162669D01*
X155148Y162693D01*
X155144Y162697D01*
X155140Y162700D01*
X155085Y162778D01*
X155046Y162856D01*
X155015Y162938D01*
X154996Y163016D01*
X154984Y163086D01*
X154980Y163118D01*
Y163141D01*
X154976Y163164D01*
Y163192D01*
X154984Y163293D01*
X154999Y163391D01*
X155023Y163473D01*
X155050Y163547D01*
X155077Y163605D01*
X155089Y163629D01*
X155101Y163648D01*
X155113Y163668D01*
X155116Y163679D01*
X155124Y163683D01*
Y163687D01*
X155187Y163761D01*
X155257Y163824D01*
X155331Y163878D01*
X155405Y163925D01*
X155467Y163960D01*
X155495Y163972D01*
X155522Y163984D01*
X155542Y163991D01*
X155557Y163999D01*
X155565Y164003D01*
X155569D01*
X155627Y164023D01*
X155686Y164038D01*
X155815Y164065D01*
X155947Y164085D01*
X156072Y164101D01*
X156130Y164104D01*
X156181Y164108D01*
X156232D01*
X156271Y164112D01*
X156306D01*
X156329D01*
X156349D01*
X156353D01*
X156439D01*
X156520Y164108D01*
D02*
G37*
G36*
X157593Y161417D02*
X157530Y161382D01*
X157468Y161339D01*
X157410Y161293D01*
X157355Y161246D01*
X157312Y161203D01*
X157277Y161168D01*
X157254Y161144D01*
X157250Y161140D01*
X157246Y161136D01*
X157183Y161062D01*
X157125Y160984D01*
X157074Y160906D01*
X157031Y160836D01*
X156996Y160774D01*
X156984Y160747D01*
X156973Y160723D01*
X156961Y160707D01*
X156953Y160692D01*
X156949Y160684D01*
Y160680D01*
X156641D01*
X156665Y160735D01*
X156692Y160793D01*
X156715Y160848D01*
X156743Y160899D01*
X156766Y160942D01*
X156786Y160977D01*
X156801Y161000D01*
X156805Y161004D01*
Y161008D01*
X156844Y161074D01*
X156887Y161133D01*
X156922Y161183D01*
X156957Y161226D01*
X156984Y161261D01*
X157004Y161289D01*
X157020Y161304D01*
X157024Y161308D01*
X155019D01*
Y161624D01*
X157593D01*
Y161417D01*
D02*
G37*
G36*
X155916Y159810D02*
X155803Y159779D01*
X155701Y159740D01*
X155620Y159694D01*
X155549Y159651D01*
X155499Y159608D01*
X155460Y159573D01*
X155436Y159549D01*
X155432Y159545D01*
X155428Y159541D01*
X155374Y159463D01*
X155335Y159385D01*
X155304Y159303D01*
X155284Y159229D01*
X155272Y159163D01*
X155269Y159132D01*
Y159108D01*
X155265Y159089D01*
Y159062D01*
X155269Y158976D01*
X155284Y158894D01*
X155304Y158820D01*
X155323Y158757D01*
X155347Y158703D01*
X155362Y158660D01*
X155370Y158644D01*
X155378Y158633D01*
X155382Y158629D01*
Y158625D01*
X155432Y158555D01*
X155491Y158496D01*
X155549Y158446D01*
X155612Y158403D01*
X155662Y158371D01*
X155709Y158352D01*
X155725Y158344D01*
X155736Y158336D01*
X155744Y158332D01*
X155748D01*
X155842Y158301D01*
X155939Y158278D01*
X156037Y158262D01*
X156126Y158250D01*
X156166Y158247D01*
X156201Y158243D01*
X156236D01*
X156263Y158239D01*
X156286D01*
X156302D01*
X156314D01*
X156318D01*
X156411Y158243D01*
X156501Y158250D01*
X156583Y158262D01*
X156657Y158278D01*
X156719Y158293D01*
X156747Y158297D01*
X156766Y158305D01*
X156786Y158309D01*
X156797Y158313D01*
X156805Y158317D01*
X156809D01*
X156895Y158352D01*
X156973Y158395D01*
X157035Y158442D01*
X157090Y158484D01*
X157133Y158527D01*
X157164Y158563D01*
X157183Y158586D01*
X157191Y158590D01*
Y158594D01*
X157238Y158672D01*
X157273Y158754D01*
X157300Y158835D01*
X157316Y158914D01*
X157328Y158984D01*
X157332Y159011D01*
Y159038D01*
X157335Y159058D01*
Y159085D01*
X157332Y159179D01*
X157316Y159261D01*
X157297Y159335D01*
X157273Y159393D01*
X157246Y159444D01*
X157226Y159479D01*
X157211Y159502D01*
X157207Y159510D01*
X157152Y159573D01*
X157090Y159623D01*
X157020Y159670D01*
X156953Y159705D01*
X156895Y159732D01*
X156868Y159744D01*
X156844Y159756D01*
X156825Y159764D01*
X156809Y159768D01*
X156801Y159772D01*
X156797D01*
X156875Y160107D01*
X157000Y160060D01*
X157059Y160033D01*
X157109Y160005D01*
X157160Y159974D01*
X157207Y159943D01*
X157246Y159916D01*
X157285Y159885D01*
X157316Y159857D01*
X157343Y159830D01*
X157371Y159803D01*
X157390Y159783D01*
X157406Y159764D01*
X157417Y159752D01*
X157421Y159744D01*
X157425Y159740D01*
X157460Y159690D01*
X157492Y159639D01*
X157519Y159584D01*
X157542Y159530D01*
X157577Y159421D01*
X157601Y159319D01*
X157608Y159272D01*
X157612Y159229D01*
X157616Y159190D01*
X157620Y159159D01*
X157624Y159132D01*
Y159093D01*
X157616Y158968D01*
X157601Y158851D01*
X157573Y158746D01*
X157562Y158699D01*
X157546Y158656D01*
X157530Y158617D01*
X157519Y158578D01*
X157503Y158547D01*
X157492Y158523D01*
X157484Y158500D01*
X157476Y158484D01*
X157468Y158477D01*
Y158473D01*
X157406Y158375D01*
X157332Y158286D01*
X157257Y158212D01*
X157183Y158153D01*
X157117Y158102D01*
X157090Y158083D01*
X157066Y158067D01*
X157043Y158055D01*
X157027Y158048D01*
X157020Y158040D01*
X157016D01*
X156903Y157989D01*
X156782Y157950D01*
X156665Y157927D01*
X156555Y157907D01*
X156505Y157899D01*
X156462Y157896D01*
X156419Y157892D01*
X156384D01*
X156357Y157888D01*
X156337D01*
X156322D01*
X156318D01*
X156181Y157892D01*
X156056Y157907D01*
X155939Y157931D01*
X155885Y157942D01*
X155838Y157954D01*
X155791Y157966D01*
X155752Y157977D01*
X155717Y157989D01*
X155686Y158001D01*
X155662Y158009D01*
X155647Y158017D01*
X155635Y158020D01*
X155631D01*
X155518Y158075D01*
X155421Y158141D01*
X155335Y158204D01*
X155269Y158270D01*
X155214Y158325D01*
X155175Y158371D01*
X155163Y158391D01*
X155151Y158403D01*
X155148Y158410D01*
X155144Y158414D01*
X155113Y158465D01*
X155089Y158520D01*
X155046Y158629D01*
X155019Y158742D01*
X154996Y158851D01*
X154992Y158898D01*
X154984Y158945D01*
X154980Y158984D01*
Y159019D01*
X154976Y159050D01*
Y159089D01*
X154980Y159163D01*
X154984Y159233D01*
X155011Y159362D01*
X155027Y159421D01*
X155046Y159479D01*
X155066Y159530D01*
X155085Y159576D01*
X155105Y159619D01*
X155124Y159654D01*
X155144Y159686D01*
X155159Y159713D01*
X155175Y159736D01*
X155187Y159752D01*
X155191Y159760D01*
X155194Y159764D01*
X155237Y159814D01*
X155284Y159861D01*
X155385Y159939D01*
X155491Y160009D01*
X155596Y160060D01*
X155643Y160083D01*
X155686Y160099D01*
X155729Y160115D01*
X155760Y160130D01*
X155791Y160138D01*
X155811Y160146D01*
X155826Y160150D01*
X155830D01*
X155916Y159810D01*
D02*
G37*
G36*
X150316Y63504D02*
X150382Y63500D01*
X150441Y63489D01*
X150499Y63473D01*
X150550Y63458D01*
X150601Y63438D01*
X150644Y63419D01*
X150686Y63399D01*
X150722Y63376D01*
X150753Y63356D01*
X150780Y63337D01*
X150803Y63321D01*
X150823Y63305D01*
X150835Y63294D01*
X150842Y63290D01*
X150846Y63286D01*
X150889Y63243D01*
X150924Y63200D01*
X150955Y63153D01*
X150983Y63107D01*
X151006Y63064D01*
X151022Y63017D01*
X151053Y62935D01*
X151069Y62861D01*
X151073Y62830D01*
X151076Y62802D01*
X151080Y62779D01*
Y62748D01*
X151076Y62682D01*
X151069Y62619D01*
X151053Y62561D01*
X151037Y62510D01*
X151022Y62467D01*
X151006Y62432D01*
X150998Y62412D01*
X150995Y62405D01*
X150959Y62346D01*
X150920Y62292D01*
X150877Y62245D01*
X150835Y62206D01*
X150796Y62171D01*
X150764Y62147D01*
X150745Y62132D01*
X150741Y62128D01*
X150807D01*
X150874Y62132D01*
X150936Y62135D01*
X150995Y62139D01*
X151045Y62147D01*
X151096Y62155D01*
X151139Y62163D01*
X151178Y62171D01*
X151213Y62178D01*
X151244Y62186D01*
X151271Y62194D01*
X151291Y62202D01*
X151306Y62206D01*
X151322Y62210D01*
X151326Y62213D01*
X151330D01*
X151404Y62249D01*
X151470Y62288D01*
X151525Y62327D01*
X151568Y62366D01*
X151603Y62397D01*
X151630Y62424D01*
X151646Y62440D01*
X151650Y62448D01*
X151677Y62494D01*
X151700Y62537D01*
X151716Y62584D01*
X151724Y62627D01*
X151732Y62662D01*
X151735Y62689D01*
Y62717D01*
X151732Y62783D01*
X151716Y62845D01*
X151693Y62900D01*
X151669Y62947D01*
X151642Y62982D01*
X151622Y63009D01*
X151607Y63029D01*
X151599Y63033D01*
X151564Y63060D01*
X151525Y63083D01*
X151435Y63122D01*
X151396Y63134D01*
X151365Y63146D01*
X151342Y63153D01*
X151338D01*
X151334D01*
X151357Y63465D01*
X151462Y63446D01*
X151556Y63411D01*
X151634Y63376D01*
X151700Y63333D01*
X151751Y63294D01*
X151790Y63263D01*
X151813Y63239D01*
X151821Y63235D01*
Y63231D01*
X151853Y63192D01*
X151880Y63153D01*
X151919Y63072D01*
X151950Y62990D01*
X151973Y62912D01*
X151985Y62841D01*
X151989Y62810D01*
Y62787D01*
X151993Y62763D01*
Y62736D01*
X151989Y62662D01*
X151981Y62592D01*
X151966Y62525D01*
X151946Y62463D01*
X151923Y62405D01*
X151899Y62354D01*
X151872Y62303D01*
X151845Y62260D01*
X151817Y62221D01*
X151790Y62186D01*
X151767Y62159D01*
X151743Y62132D01*
X151724Y62112D01*
X151708Y62100D01*
X151700Y62093D01*
X151697Y62089D01*
X151630Y62042D01*
X151552Y61999D01*
X151474Y61964D01*
X151384Y61933D01*
X151299Y61905D01*
X151209Y61882D01*
X151119Y61862D01*
X151030Y61851D01*
X150948Y61839D01*
X150870Y61831D01*
X150800Y61823D01*
X150737Y61820D01*
X150686Y61816D01*
X150647D01*
X150636D01*
X150624D01*
X150620D01*
X150616D01*
X150495Y61820D01*
X150386Y61827D01*
X150281Y61839D01*
X150187Y61855D01*
X150101Y61874D01*
X150023Y61894D01*
X149953Y61917D01*
X149891Y61940D01*
X149836Y61960D01*
X149789Y61983D01*
X149750Y62003D01*
X149719Y62022D01*
X149696Y62038D01*
X149680Y62050D01*
X149669Y62058D01*
X149665Y62061D01*
X149614Y62108D01*
X149571Y62159D01*
X149532Y62213D01*
X149497Y62268D01*
X149470Y62323D01*
X149446Y62373D01*
X149427Y62428D01*
X149411Y62479D01*
X149399Y62525D01*
X149392Y62568D01*
X149384Y62607D01*
X149380Y62639D01*
Y62666D01*
X149376Y62689D01*
Y62705D01*
X149380Y62787D01*
X149392Y62865D01*
X149411Y62935D01*
X149431Y62997D01*
X149450Y63044D01*
X149470Y63083D01*
X149481Y63107D01*
X149485Y63114D01*
X149532Y63181D01*
X149583Y63235D01*
X149633Y63286D01*
X149684Y63329D01*
X149731Y63360D01*
X149766Y63384D01*
X149782Y63391D01*
X149793Y63399D01*
X149797Y63403D01*
X149801D01*
X149879Y63438D01*
X149957Y63465D01*
X150035Y63481D01*
X150101Y63497D01*
X150164Y63504D01*
X150187D01*
X150211Y63508D01*
X150226D01*
X150238D01*
X150246D01*
X150250D01*
X150316Y63504D01*
D02*
G37*
G36*
X151993Y60821D02*
X151930Y60786D01*
X151868Y60743D01*
X151810Y60696D01*
X151755Y60650D01*
X151712Y60607D01*
X151677Y60572D01*
X151654Y60548D01*
X151650Y60544D01*
X151646Y60540D01*
X151583Y60466D01*
X151525Y60388D01*
X151474Y60310D01*
X151431Y60240D01*
X151396Y60178D01*
X151384Y60150D01*
X151373Y60127D01*
X151361Y60111D01*
X151353Y60096D01*
X151349Y60088D01*
Y60084D01*
X151041D01*
X151065Y60139D01*
X151092Y60197D01*
X151115Y60252D01*
X151143Y60303D01*
X151166Y60345D01*
X151186Y60381D01*
X151201Y60404D01*
X151205Y60408D01*
Y60412D01*
X151244Y60478D01*
X151287Y60536D01*
X151322Y60587D01*
X151357Y60630D01*
X151384Y60665D01*
X151404Y60693D01*
X151420Y60708D01*
X151424Y60712D01*
X149419D01*
Y61028D01*
X151993D01*
Y60821D01*
D02*
G37*
G36*
X150316Y59214D02*
X150203Y59183D01*
X150101Y59144D01*
X150020Y59097D01*
X149949Y59054D01*
X149899Y59012D01*
X149860Y58977D01*
X149836Y58953D01*
X149832Y58949D01*
X149828Y58945D01*
X149774Y58867D01*
X149735Y58789D01*
X149704Y58707D01*
X149684Y58633D01*
X149672Y58567D01*
X149669Y58536D01*
Y58512D01*
X149665Y58493D01*
Y58466D01*
X149669Y58380D01*
X149684Y58298D01*
X149704Y58224D01*
X149723Y58161D01*
X149747Y58107D01*
X149762Y58064D01*
X149770Y58048D01*
X149778Y58037D01*
X149782Y58033D01*
Y58029D01*
X149832Y57959D01*
X149891Y57900D01*
X149949Y57849D01*
X150012Y57806D01*
X150062Y57775D01*
X150109Y57756D01*
X150125Y57748D01*
X150136Y57740D01*
X150144Y57736D01*
X150148D01*
X150242Y57705D01*
X150339Y57682D01*
X150437Y57666D01*
X150526Y57654D01*
X150566Y57651D01*
X150601Y57647D01*
X150636D01*
X150663Y57643D01*
X150686D01*
X150702D01*
X150714D01*
X150718D01*
X150811Y57647D01*
X150901Y57654D01*
X150983Y57666D01*
X151057Y57682D01*
X151119Y57697D01*
X151147Y57701D01*
X151166Y57709D01*
X151186Y57713D01*
X151197Y57717D01*
X151205Y57721D01*
X151209D01*
X151295Y57756D01*
X151373Y57799D01*
X151435Y57845D01*
X151490Y57888D01*
X151533Y57931D01*
X151564Y57966D01*
X151583Y57990D01*
X151591Y57994D01*
Y57998D01*
X151638Y58076D01*
X151673Y58157D01*
X151700Y58239D01*
X151716Y58317D01*
X151728Y58388D01*
X151732Y58415D01*
Y58442D01*
X151735Y58462D01*
Y58489D01*
X151732Y58583D01*
X151716Y58665D01*
X151697Y58739D01*
X151673Y58797D01*
X151646Y58848D01*
X151626Y58883D01*
X151611Y58906D01*
X151607Y58914D01*
X151552Y58977D01*
X151490Y59027D01*
X151420Y59074D01*
X151353Y59109D01*
X151295Y59136D01*
X151268Y59148D01*
X151244Y59160D01*
X151225Y59168D01*
X151209Y59171D01*
X151201Y59175D01*
X151197D01*
X151275Y59511D01*
X151400Y59464D01*
X151459Y59437D01*
X151509Y59409D01*
X151560Y59378D01*
X151607Y59347D01*
X151646Y59320D01*
X151685Y59289D01*
X151716Y59261D01*
X151743Y59234D01*
X151771Y59207D01*
X151790Y59187D01*
X151806Y59168D01*
X151817Y59156D01*
X151821Y59148D01*
X151825Y59144D01*
X151860Y59093D01*
X151892Y59043D01*
X151919Y58988D01*
X151942Y58934D01*
X151977Y58824D01*
X152001Y58723D01*
X152008Y58676D01*
X152012Y58633D01*
X152016Y58594D01*
X152020Y58563D01*
X152024Y58536D01*
Y58497D01*
X152016Y58372D01*
X152001Y58255D01*
X151973Y58150D01*
X151962Y58103D01*
X151946Y58060D01*
X151930Y58021D01*
X151919Y57982D01*
X151903Y57951D01*
X151892Y57927D01*
X151884Y57904D01*
X151876Y57888D01*
X151868Y57881D01*
Y57877D01*
X151806Y57779D01*
X151732Y57689D01*
X151657Y57615D01*
X151583Y57557D01*
X151517Y57506D01*
X151490Y57487D01*
X151466Y57471D01*
X151443Y57459D01*
X151427Y57452D01*
X151420Y57444D01*
X151416D01*
X151303Y57393D01*
X151182Y57354D01*
X151065Y57331D01*
X150955Y57311D01*
X150905Y57303D01*
X150862Y57300D01*
X150819Y57296D01*
X150784D01*
X150757Y57292D01*
X150737D01*
X150722D01*
X150718D01*
X150581Y57296D01*
X150456Y57311D01*
X150339Y57335D01*
X150285Y57346D01*
X150238Y57358D01*
X150191Y57370D01*
X150152Y57381D01*
X150117Y57393D01*
X150086Y57405D01*
X150062Y57413D01*
X150047Y57420D01*
X150035Y57424D01*
X150031D01*
X149918Y57479D01*
X149821Y57545D01*
X149735Y57608D01*
X149669Y57674D01*
X149614Y57728D01*
X149575Y57775D01*
X149563Y57795D01*
X149551Y57806D01*
X149548Y57814D01*
X149544Y57818D01*
X149513Y57869D01*
X149489Y57924D01*
X149446Y58033D01*
X149419Y58146D01*
X149396Y58255D01*
X149392Y58302D01*
X149384Y58349D01*
X149380Y58388D01*
Y58423D01*
X149376Y58454D01*
Y58493D01*
X149380Y58567D01*
X149384Y58637D01*
X149411Y58766D01*
X149427Y58824D01*
X149446Y58883D01*
X149466Y58934D01*
X149485Y58980D01*
X149505Y59023D01*
X149524Y59058D01*
X149544Y59090D01*
X149559Y59117D01*
X149575Y59140D01*
X149587Y59156D01*
X149591Y59164D01*
X149594Y59168D01*
X149637Y59218D01*
X149684Y59265D01*
X149785Y59343D01*
X149891Y59413D01*
X149996Y59464D01*
X150043Y59487D01*
X150086Y59503D01*
X150129Y59519D01*
X150160Y59534D01*
X150191Y59542D01*
X150211Y59550D01*
X150226Y59554D01*
X150230D01*
X150316Y59214D01*
D02*
G37*
G36*
X125708Y100811D02*
X125646Y100776D01*
X125584Y100733D01*
X125525Y100686D01*
X125471Y100639D01*
X125428Y100596D01*
X125393Y100561D01*
X125369Y100538D01*
X125365Y100534D01*
X125361Y100530D01*
X125299Y100456D01*
X125241Y100378D01*
X125190Y100300D01*
X125147Y100230D01*
X125112Y100167D01*
X125100Y100140D01*
X125088Y100117D01*
X125077Y100101D01*
X125069Y100085D01*
X125065Y100077D01*
Y100074D01*
X124757D01*
X124780Y100128D01*
X124808Y100187D01*
X124831Y100241D01*
X124858Y100292D01*
X124882Y100335D01*
X124901Y100370D01*
X124917Y100393D01*
X124921Y100397D01*
Y100401D01*
X124960Y100468D01*
X125003Y100526D01*
X125038Y100577D01*
X125073Y100620D01*
X125100Y100655D01*
X125120Y100682D01*
X125135Y100698D01*
X125139Y100701D01*
X123135D01*
Y101017D01*
X125708D01*
Y100811D01*
D02*
G37*
G36*
X125697Y99056D02*
X124215D01*
X124129D01*
X124047Y99048D01*
X123977Y99040D01*
X123911Y99032D01*
X123848Y99021D01*
X123798Y99005D01*
X123751Y98989D01*
X123708Y98978D01*
X123673Y98962D01*
X123642Y98946D01*
X123618Y98935D01*
X123599Y98919D01*
X123583Y98911D01*
X123571Y98904D01*
X123567Y98896D01*
X123564D01*
X123532Y98865D01*
X123509Y98826D01*
X123466Y98744D01*
X123439Y98658D01*
X123415Y98568D01*
X123404Y98490D01*
X123400Y98455D01*
Y98424D01*
X123396Y98397D01*
Y98361D01*
X123400Y98283D01*
X123407Y98213D01*
X123423Y98151D01*
X123439Y98096D01*
X123450Y98053D01*
X123466Y98022D01*
X123474Y98003D01*
X123478Y97995D01*
X123513Y97940D01*
X123552Y97897D01*
X123595Y97858D01*
X123634Y97831D01*
X123669Y97808D01*
X123696Y97792D01*
X123716Y97784D01*
X123723Y97780D01*
X123755Y97769D01*
X123790Y97761D01*
X123868Y97745D01*
X123950Y97737D01*
X124028Y97730D01*
X124102Y97726D01*
X124133Y97722D01*
X124160D01*
X124184D01*
X124199D01*
X124211D01*
X124215D01*
X125697D01*
Y97383D01*
X124215D01*
X124141D01*
X124071Y97386D01*
X124004Y97390D01*
X123942Y97398D01*
X123887Y97406D01*
X123833Y97414D01*
X123786Y97422D01*
X123743Y97433D01*
X123704Y97441D01*
X123669Y97449D01*
X123638Y97457D01*
X123614Y97465D01*
X123595Y97472D01*
X123583Y97476D01*
X123575Y97480D01*
X123571D01*
X123489Y97523D01*
X123415Y97574D01*
X123357Y97624D01*
X123306Y97679D01*
X123263Y97726D01*
X123236Y97769D01*
X123224Y97784D01*
X123220Y97792D01*
X123213Y97800D01*
Y97804D01*
X123173Y97894D01*
X123142Y97995D01*
X123123Y98092D01*
X123107Y98186D01*
X123103Y98229D01*
X123099Y98268D01*
X123096Y98303D01*
Y98334D01*
X123092Y98358D01*
Y98393D01*
X123099Y98525D01*
X123115Y98642D01*
X123123Y98697D01*
X123135Y98744D01*
X123150Y98791D01*
X123162Y98830D01*
X123173Y98865D01*
X123189Y98900D01*
X123201Y98927D01*
X123209Y98946D01*
X123220Y98966D01*
X123224Y98978D01*
X123232Y98985D01*
Y98989D01*
X123291Y99067D01*
X123349Y99138D01*
X123411Y99192D01*
X123470Y99235D01*
X123524Y99266D01*
X123564Y99290D01*
X123579Y99297D01*
X123591Y99301D01*
X123599Y99305D01*
X123602D01*
X123692Y99336D01*
X123794Y99356D01*
X123895Y99372D01*
X123993Y99383D01*
X124039Y99387D01*
X124082Y99391D01*
X124117D01*
X124152Y99395D01*
X124180D01*
X124199D01*
X124211D01*
X124215D01*
X125697D01*
Y99056D01*
D02*
G37*
G36*
X40695Y63256D02*
X40758Y63298D01*
X40808Y63341D01*
X40832Y63361D01*
X40847Y63376D01*
X40859Y63384D01*
X40863Y63388D01*
X40882Y63408D01*
X40902Y63427D01*
X40949Y63478D01*
X41003Y63540D01*
X41058Y63599D01*
X41109Y63657D01*
X41148Y63704D01*
X41163Y63723D01*
X41175Y63739D01*
X41183Y63747D01*
X41187Y63751D01*
X41241Y63813D01*
X41288Y63868D01*
X41335Y63922D01*
X41378Y63969D01*
X41421Y64012D01*
X41456Y64051D01*
X41491Y64090D01*
X41522Y64121D01*
X41549Y64149D01*
X41573Y64172D01*
X41608Y64207D01*
X41631Y64227D01*
X41639Y64234D01*
X41701Y64285D01*
X41756Y64332D01*
X41811Y64367D01*
X41857Y64394D01*
X41896Y64418D01*
X41924Y64433D01*
X41943Y64441D01*
X41951Y64445D01*
X42006Y64468D01*
X42060Y64484D01*
X42111Y64496D01*
X42158Y64504D01*
X42197Y64507D01*
X42228Y64511D01*
X42247D01*
X42255D01*
X42310Y64507D01*
X42364Y64504D01*
X42462Y64476D01*
X42548Y64441D01*
X42622Y64402D01*
X42680Y64363D01*
X42704Y64344D01*
X42727Y64328D01*
X42743Y64312D01*
X42754Y64301D01*
X42758Y64297D01*
X42762Y64293D01*
X42797Y64250D01*
X42832Y64207D01*
X42860Y64160D01*
X42883Y64110D01*
X42918Y64012D01*
X42942Y63919D01*
X42953Y63876D01*
X42957Y63837D01*
X42961Y63801D01*
X42965Y63770D01*
X42969Y63743D01*
Y63708D01*
X42965Y63642D01*
X42961Y63579D01*
X42938Y63462D01*
X42926Y63411D01*
X42910Y63361D01*
X42891Y63318D01*
X42875Y63279D01*
X42856Y63244D01*
X42840Y63213D01*
X42821Y63185D01*
X42809Y63162D01*
X42797Y63146D01*
X42786Y63135D01*
X42782Y63127D01*
X42778Y63123D01*
X42739Y63084D01*
X42700Y63053D01*
X42610Y62994D01*
X42520Y62951D01*
X42431Y62920D01*
X42353Y62897D01*
X42318Y62893D01*
X42286Y62885D01*
X42263Y62881D01*
X42243Y62877D01*
X42232D01*
X42228D01*
X42193Y63201D01*
X42279Y63209D01*
X42353Y63224D01*
X42415Y63244D01*
X42470Y63271D01*
X42513Y63295D01*
X42544Y63318D01*
X42559Y63333D01*
X42567Y63337D01*
X42614Y63392D01*
X42649Y63450D01*
X42673Y63513D01*
X42692Y63571D01*
X42700Y63622D01*
X42704Y63661D01*
X42708Y63677D01*
Y63700D01*
X42704Y63778D01*
X42688Y63848D01*
X42669Y63907D01*
X42645Y63958D01*
X42618Y63996D01*
X42598Y64028D01*
X42583Y64043D01*
X42579Y64051D01*
X42528Y64098D01*
X42474Y64129D01*
X42423Y64152D01*
X42372Y64172D01*
X42329Y64180D01*
X42294Y64184D01*
X42271Y64188D01*
X42267D01*
X42263D01*
X42197Y64180D01*
X42127Y64164D01*
X42064Y64141D01*
X42006Y64113D01*
X41955Y64086D01*
X41916Y64063D01*
X41900Y64055D01*
X41889Y64047D01*
X41885Y64039D01*
X41881D01*
X41842Y64008D01*
X41799Y63973D01*
X41756Y63934D01*
X41713Y63887D01*
X41623Y63794D01*
X41534Y63700D01*
X41460Y63614D01*
X41425Y63575D01*
X41397Y63540D01*
X41370Y63513D01*
X41354Y63493D01*
X41343Y63478D01*
X41339Y63474D01*
X41257Y63380D01*
X41183Y63295D01*
X41116Y63224D01*
X41062Y63166D01*
X41015Y63119D01*
X40980Y63088D01*
X40957Y63068D01*
X40953Y63060D01*
X40949D01*
X40886Y63010D01*
X40828Y62971D01*
X40769Y62932D01*
X40719Y62905D01*
X40672Y62881D01*
X40641Y62866D01*
X40617Y62858D01*
X40613Y62854D01*
X40609D01*
X40570Y62842D01*
X40531Y62830D01*
X40496Y62827D01*
X40465Y62823D01*
X40438Y62819D01*
X40414D01*
X40399D01*
X40395D01*
Y64515D01*
X40695D01*
Y63256D01*
D02*
G37*
G36*
X40461Y62503D02*
X40500Y62425D01*
X40539Y62351D01*
X40578Y62284D01*
X40613Y62226D01*
X40629Y62203D01*
X40641Y62179D01*
X40652Y62164D01*
X40660Y62152D01*
X40668Y62144D01*
Y62140D01*
X40742Y62210D01*
X40816Y62269D01*
X40890Y62319D01*
X40957Y62358D01*
X41015Y62390D01*
X41042Y62405D01*
X41062Y62413D01*
X41081Y62421D01*
X41093Y62429D01*
X41101Y62433D01*
X41105D01*
X41202Y62464D01*
X41300Y62487D01*
X41397Y62507D01*
X41483Y62518D01*
X41526Y62522D01*
X41561Y62526D01*
X41592D01*
X41620Y62530D01*
X41643D01*
X41658D01*
X41670D01*
X41674D01*
X41815Y62522D01*
X41943Y62507D01*
X42056Y62483D01*
X42111Y62468D01*
X42158Y62456D01*
X42204Y62440D01*
X42243Y62425D01*
X42275Y62413D01*
X42302Y62401D01*
X42325Y62394D01*
X42345Y62386D01*
X42353Y62378D01*
X42357D01*
X42466Y62316D01*
X42559Y62249D01*
X42641Y62175D01*
X42708Y62105D01*
X42758Y62043D01*
X42782Y62015D01*
X42797Y61992D01*
X42813Y61972D01*
X42821Y61957D01*
X42829Y61949D01*
Y61945D01*
X42860Y61891D01*
X42887Y61836D01*
X42926Y61727D01*
X42957Y61617D01*
X42981Y61520D01*
X42985Y61473D01*
X42992Y61434D01*
X42996Y61395D01*
Y61364D01*
X43000Y61341D01*
Y61305D01*
X42992Y61181D01*
X42973Y61060D01*
X42949Y60954D01*
X42934Y60904D01*
X42918Y60861D01*
X42903Y60818D01*
X42887Y60783D01*
X42875Y60752D01*
X42864Y60724D01*
X42852Y60701D01*
X42844Y60685D01*
X42840Y60678D01*
X42836Y60674D01*
X42770Y60572D01*
X42692Y60487D01*
X42614Y60412D01*
X42536Y60350D01*
X42470Y60299D01*
X42439Y60280D01*
X42411Y60264D01*
X42392Y60252D01*
X42376Y60245D01*
X42364Y60237D01*
X42360D01*
X42243Y60186D01*
X42123Y60147D01*
X42009Y60124D01*
X41900Y60104D01*
X41853Y60097D01*
X41811Y60093D01*
X41772Y60089D01*
X41737D01*
X41713Y60085D01*
X41690D01*
X41678D01*
X41674D01*
X41534Y60093D01*
X41405Y60108D01*
X41288Y60132D01*
X41237Y60147D01*
X41187Y60163D01*
X41144Y60175D01*
X41105Y60190D01*
X41070Y60202D01*
X41042Y60214D01*
X41019Y60221D01*
X41003Y60229D01*
X40992Y60237D01*
X40988D01*
X40878Y60299D01*
X40785Y60369D01*
X40703Y60440D01*
X40637Y60510D01*
X40586Y60572D01*
X40563Y60600D01*
X40547Y60623D01*
X40535Y60642D01*
X40524Y60658D01*
X40520Y60666D01*
X40516Y60670D01*
X40461Y60779D01*
X40422Y60888D01*
X40391Y60993D01*
X40372Y61091D01*
X40368Y61134D01*
X40360Y61173D01*
X40356Y61208D01*
Y61239D01*
X40352Y61263D01*
Y61298D01*
X40360Y61422D01*
X40375Y61540D01*
X40403Y61649D01*
X40414Y61695D01*
X40430Y61742D01*
X40446Y61781D01*
X40457Y61816D01*
X40473Y61848D01*
X40485Y61875D01*
X40492Y61898D01*
X40500Y61914D01*
X40508Y61922D01*
Y61926D01*
X40434Y62027D01*
X40372Y62128D01*
X40317Y62222D01*
X40274Y62304D01*
X40258Y62343D01*
X40243Y62374D01*
X40227Y62405D01*
X40219Y62429D01*
X40212Y62448D01*
X40204Y62464D01*
X40200Y62472D01*
Y62476D01*
X40430Y62581D01*
X40461Y62503D01*
D02*
G37*
G36*
X42469Y78275D02*
X42406Y78239D01*
X42344Y78197D01*
X42286Y78150D01*
X42231Y78103D01*
X42188Y78060D01*
X42153Y78025D01*
X42130Y78001D01*
X42126Y77998D01*
X42122Y77994D01*
X42059Y77920D01*
X42001Y77842D01*
X41950Y77764D01*
X41907Y77693D01*
X41872Y77631D01*
X41860Y77604D01*
X41849Y77580D01*
X41837Y77565D01*
X41829Y77549D01*
X41825Y77541D01*
Y77537D01*
X41517D01*
X41541Y77592D01*
X41568Y77650D01*
X41591Y77705D01*
X41619Y77756D01*
X41642Y77799D01*
X41662Y77834D01*
X41677Y77857D01*
X41681Y77861D01*
Y77865D01*
X41720Y77931D01*
X41763Y77990D01*
X41798Y78040D01*
X41833Y78083D01*
X41860Y78118D01*
X41880Y78146D01*
X41896Y78161D01*
X41899Y78165D01*
X39895D01*
Y78481D01*
X42469D01*
Y78275D01*
D02*
G37*
G36*
X39961Y76937D02*
X40000Y76859D01*
X40039Y76785D01*
X40078Y76718D01*
X40113Y76660D01*
X40129Y76636D01*
X40141Y76613D01*
X40152Y76597D01*
X40160Y76586D01*
X40168Y76578D01*
Y76574D01*
X40242Y76644D01*
X40316Y76703D01*
X40390Y76753D01*
X40457Y76793D01*
X40515Y76824D01*
X40542Y76839D01*
X40562Y76847D01*
X40581Y76855D01*
X40593Y76863D01*
X40601Y76867D01*
X40605D01*
X40702Y76898D01*
X40800Y76921D01*
X40897Y76941D01*
X40983Y76952D01*
X41026Y76956D01*
X41061Y76960D01*
X41092D01*
X41120Y76964D01*
X41143D01*
X41159D01*
X41170D01*
X41174D01*
X41315Y76956D01*
X41443Y76941D01*
X41556Y76917D01*
X41611Y76902D01*
X41658Y76890D01*
X41704Y76874D01*
X41743Y76859D01*
X41775Y76847D01*
X41802Y76835D01*
X41825Y76828D01*
X41845Y76820D01*
X41853Y76812D01*
X41857D01*
X41966Y76750D01*
X42059Y76683D01*
X42141Y76609D01*
X42208Y76539D01*
X42258Y76477D01*
X42282Y76449D01*
X42297Y76426D01*
X42313Y76406D01*
X42321Y76391D01*
X42329Y76383D01*
Y76379D01*
X42360Y76324D01*
X42387Y76270D01*
X42426Y76161D01*
X42457Y76051D01*
X42481Y75954D01*
X42485Y75907D01*
X42492Y75868D01*
X42496Y75829D01*
Y75798D01*
X42500Y75775D01*
Y75740D01*
X42492Y75615D01*
X42473Y75494D01*
X42449Y75388D01*
X42434Y75338D01*
X42418Y75295D01*
X42403Y75252D01*
X42387Y75217D01*
X42375Y75186D01*
X42364Y75158D01*
X42352Y75135D01*
X42344Y75119D01*
X42340Y75112D01*
X42336Y75108D01*
X42270Y75006D01*
X42192Y74920D01*
X42114Y74846D01*
X42036Y74784D01*
X41970Y74733D01*
X41938Y74714D01*
X41911Y74698D01*
X41892Y74686D01*
X41876Y74679D01*
X41864Y74671D01*
X41860D01*
X41743Y74620D01*
X41623Y74581D01*
X41510Y74558D01*
X41400Y74538D01*
X41353Y74531D01*
X41311Y74527D01*
X41272Y74523D01*
X41236D01*
X41213Y74519D01*
X41190D01*
X41178D01*
X41174D01*
X41034Y74527D01*
X40905Y74542D01*
X40788Y74566D01*
X40737Y74581D01*
X40687Y74597D01*
X40644Y74608D01*
X40605Y74624D01*
X40570Y74636D01*
X40542Y74647D01*
X40519Y74655D01*
X40503Y74663D01*
X40492Y74671D01*
X40488D01*
X40378Y74733D01*
X40285Y74804D01*
X40203Y74874D01*
X40137Y74944D01*
X40086Y75006D01*
X40063Y75034D01*
X40047Y75057D01*
X40035Y75077D01*
X40024Y75092D01*
X40020Y75100D01*
X40016Y75104D01*
X39961Y75213D01*
X39922Y75322D01*
X39891Y75428D01*
X39871Y75525D01*
X39868Y75568D01*
X39860Y75607D01*
X39856Y75642D01*
Y75673D01*
X39852Y75697D01*
Y75732D01*
X39860Y75857D01*
X39875Y75973D01*
X39903Y76083D01*
X39914Y76130D01*
X39930Y76176D01*
X39946Y76215D01*
X39957Y76250D01*
X39973Y76282D01*
X39985Y76309D01*
X39992Y76332D01*
X40000Y76348D01*
X40008Y76356D01*
Y76360D01*
X39934Y76461D01*
X39871Y76562D01*
X39817Y76656D01*
X39774Y76738D01*
X39758Y76777D01*
X39743Y76808D01*
X39727Y76839D01*
X39719Y76863D01*
X39712Y76882D01*
X39704Y76898D01*
X39700Y76906D01*
Y76910D01*
X39930Y77015D01*
X39961Y76937D01*
D02*
G37*
G36*
X9536Y93958D02*
X9610Y93950D01*
X9680Y93946D01*
X9743Y93938D01*
X9801Y93926D01*
X9856Y93919D01*
X9903Y93907D01*
X9945Y93895D01*
X9984Y93887D01*
X10016Y93880D01*
X10039Y93868D01*
X10059Y93864D01*
X10074Y93856D01*
X10082Y93852D01*
X10086D01*
X10176Y93809D01*
X10254Y93759D01*
X10316Y93704D01*
X10374Y93653D01*
X10417Y93607D01*
X10449Y93572D01*
X10456Y93556D01*
X10464Y93544D01*
X10472Y93540D01*
Y93536D01*
X10519Y93458D01*
X10550Y93376D01*
X10573Y93302D01*
X10593Y93232D01*
X10601Y93170D01*
X10605Y93142D01*
Y93123D01*
X10609Y93103D01*
Y93080D01*
X10605Y93018D01*
X10597Y92955D01*
X10585Y92897D01*
X10573Y92842D01*
X10534Y92745D01*
X10511Y92702D01*
X10492Y92663D01*
X10468Y92624D01*
X10445Y92593D01*
X10425Y92565D01*
X10410Y92546D01*
X10394Y92526D01*
X10382Y92515D01*
X10374Y92507D01*
X10371Y92503D01*
X10324Y92464D01*
X10277Y92429D01*
X10226Y92398D01*
X10172Y92374D01*
X10121Y92351D01*
X10066Y92331D01*
X9969Y92304D01*
X9922Y92296D01*
X9879Y92288D01*
X9840Y92285D01*
X9809Y92281D01*
X9782Y92277D01*
X9758D01*
X9747D01*
X9743D01*
X9673Y92281D01*
X9606Y92285D01*
X9548Y92296D01*
X9489Y92312D01*
X9435Y92327D01*
X9384Y92347D01*
X9337Y92366D01*
X9298Y92386D01*
X9259Y92405D01*
X9228Y92425D01*
X9201Y92444D01*
X9177Y92460D01*
X9158Y92476D01*
X9146Y92487D01*
X9138Y92491D01*
X9134Y92495D01*
X9095Y92538D01*
X9060Y92581D01*
X9029Y92628D01*
X9002Y92671D01*
X8978Y92717D01*
X8959Y92760D01*
X8931Y92846D01*
X8916Y92920D01*
X8912Y92951D01*
X8908Y92979D01*
X8904Y93002D01*
Y93033D01*
X8908Y93103D01*
X8920Y93170D01*
X8931Y93228D01*
X8951Y93279D01*
X8967Y93322D01*
X8978Y93357D01*
X8990Y93376D01*
X8994Y93384D01*
X9033Y93443D01*
X9072Y93493D01*
X9115Y93540D01*
X9154Y93575D01*
X9185Y93607D01*
X9216Y93626D01*
X9232Y93642D01*
X9240Y93646D01*
X9212D01*
X9193D01*
X9181D01*
X9177D01*
X9103D01*
X9033Y93638D01*
X8970Y93630D01*
X8912Y93622D01*
X8861Y93614D01*
X8822Y93607D01*
X8811Y93603D01*
X8799D01*
X8795Y93599D01*
X8791D01*
X8725Y93579D01*
X8666Y93560D01*
X8616Y93540D01*
X8573Y93525D01*
X8538Y93505D01*
X8510Y93493D01*
X8495Y93486D01*
X8491Y93482D01*
X8452Y93454D01*
X8417Y93423D01*
X8386Y93396D01*
X8362Y93365D01*
X8343Y93341D01*
X8327Y93322D01*
X8319Y93306D01*
X8315Y93302D01*
X8292Y93260D01*
X8276Y93217D01*
X8265Y93174D01*
X8257Y93135D01*
X8253Y93100D01*
X8249Y93072D01*
Y93049D01*
X8253Y92987D01*
X8265Y92932D01*
X8280Y92885D01*
X8296Y92846D01*
X8311Y92811D01*
X8327Y92788D01*
X8339Y92772D01*
X8343Y92768D01*
X8382Y92729D01*
X8432Y92698D01*
X8483Y92674D01*
X8534Y92655D01*
X8577Y92639D01*
X8616Y92632D01*
X8631Y92628D01*
X8643Y92624D01*
X8647D01*
X8651D01*
X8627Y92323D01*
X8518Y92343D01*
X8424Y92374D01*
X8343Y92409D01*
X8276Y92448D01*
X8226Y92487D01*
X8187Y92519D01*
X8163Y92542D01*
X8159Y92546D01*
X8155Y92550D01*
X8101Y92628D01*
X8062Y92706D01*
X8031Y92788D01*
X8011Y92866D01*
X7999Y92936D01*
X7995Y92967D01*
Y92990D01*
X7992Y93014D01*
Y93041D01*
X7999Y93142D01*
X8015Y93240D01*
X8038Y93322D01*
X8066Y93396D01*
X8093Y93454D01*
X8105Y93478D01*
X8116Y93497D01*
X8128Y93517D01*
X8132Y93529D01*
X8140Y93533D01*
Y93536D01*
X8202Y93611D01*
X8272Y93673D01*
X8347Y93727D01*
X8421Y93774D01*
X8483Y93809D01*
X8510Y93821D01*
X8538Y93833D01*
X8557Y93841D01*
X8573Y93848D01*
X8580Y93852D01*
X8584D01*
X8643Y93872D01*
X8701Y93887D01*
X8830Y93915D01*
X8963Y93934D01*
X9087Y93950D01*
X9146Y93954D01*
X9197Y93958D01*
X9247D01*
X9286Y93962D01*
X9322D01*
X9345D01*
X9364D01*
X9368D01*
X9454D01*
X9536Y93958D01*
D02*
G37*
G36*
X8335Y90682D02*
X8397Y90724D01*
X8448Y90767D01*
X8471Y90787D01*
X8487Y90803D01*
X8499Y90810D01*
X8502Y90814D01*
X8522Y90834D01*
X8541Y90853D01*
X8588Y90904D01*
X8643Y90966D01*
X8698Y91025D01*
X8748Y91083D01*
X8787Y91130D01*
X8803Y91150D01*
X8815Y91165D01*
X8822Y91173D01*
X8826Y91177D01*
X8881Y91239D01*
X8928Y91294D01*
X8974Y91348D01*
X9017Y91395D01*
X9060Y91438D01*
X9095Y91477D01*
X9130Y91516D01*
X9162Y91547D01*
X9189Y91575D01*
X9212Y91598D01*
X9247Y91633D01*
X9271Y91653D01*
X9279Y91660D01*
X9341Y91711D01*
X9396Y91758D01*
X9450Y91793D01*
X9497Y91820D01*
X9536Y91844D01*
X9563Y91859D01*
X9583Y91867D01*
X9591Y91871D01*
X9645Y91895D01*
X9700Y91910D01*
X9751Y91922D01*
X9797Y91930D01*
X9836Y91934D01*
X9867Y91937D01*
X9887D01*
X9895D01*
X9949Y91934D01*
X10004Y91930D01*
X10102Y91902D01*
X10187Y91867D01*
X10261Y91828D01*
X10320Y91789D01*
X10343Y91770D01*
X10367Y91754D01*
X10382Y91738D01*
X10394Y91727D01*
X10398Y91723D01*
X10402Y91719D01*
X10437Y91676D01*
X10472Y91633D01*
X10499Y91586D01*
X10523Y91536D01*
X10558Y91438D01*
X10581Y91345D01*
X10593Y91302D01*
X10597Y91263D01*
X10601Y91228D01*
X10605Y91196D01*
X10609Y91169D01*
Y91134D01*
X10605Y91068D01*
X10601Y91005D01*
X10577Y90888D01*
X10566Y90838D01*
X10550Y90787D01*
X10531Y90744D01*
X10515Y90705D01*
X10495Y90670D01*
X10480Y90639D01*
X10460Y90611D01*
X10449Y90588D01*
X10437Y90572D01*
X10425Y90561D01*
X10421Y90553D01*
X10417Y90549D01*
X10378Y90510D01*
X10339Y90479D01*
X10250Y90420D01*
X10160Y90377D01*
X10070Y90346D01*
X9992Y90323D01*
X9957Y90319D01*
X9926Y90311D01*
X9903Y90307D01*
X9883Y90303D01*
X9871D01*
X9867D01*
X9832Y90627D01*
X9918Y90635D01*
X9992Y90650D01*
X10055Y90670D01*
X10109Y90697D01*
X10152Y90721D01*
X10183Y90744D01*
X10199Y90760D01*
X10207Y90763D01*
X10254Y90818D01*
X10289Y90877D01*
X10312Y90939D01*
X10332Y90997D01*
X10339Y91048D01*
X10343Y91087D01*
X10347Y91103D01*
Y91126D01*
X10343Y91204D01*
X10328Y91274D01*
X10308Y91333D01*
X10285Y91384D01*
X10257Y91423D01*
X10238Y91454D01*
X10222Y91469D01*
X10219Y91477D01*
X10168Y91524D01*
X10113Y91555D01*
X10063Y91579D01*
X10012Y91598D01*
X9969Y91606D01*
X9934Y91610D01*
X9910Y91614D01*
X9906D01*
X9903D01*
X9836Y91606D01*
X9766Y91590D01*
X9704Y91567D01*
X9645Y91540D01*
X9595Y91512D01*
X9556Y91489D01*
X9540Y91481D01*
X9528Y91473D01*
X9524Y91466D01*
X9520D01*
X9481Y91434D01*
X9438Y91399D01*
X9396Y91360D01*
X9353Y91313D01*
X9263Y91220D01*
X9173Y91126D01*
X9099Y91040D01*
X9064Y91001D01*
X9037Y90966D01*
X9009Y90939D01*
X8994Y90920D01*
X8982Y90904D01*
X8978Y90900D01*
X8896Y90806D01*
X8822Y90721D01*
X8756Y90650D01*
X8701Y90592D01*
X8655Y90545D01*
X8619Y90514D01*
X8596Y90494D01*
X8592Y90487D01*
X8588D01*
X8526Y90436D01*
X8467Y90397D01*
X8409Y90358D01*
X8358Y90331D01*
X8311Y90307D01*
X8280Y90292D01*
X8257Y90284D01*
X8253Y90280D01*
X8249D01*
X8210Y90268D01*
X8171Y90257D01*
X8136Y90253D01*
X8105Y90249D01*
X8077Y90245D01*
X8054D01*
X8038D01*
X8034D01*
Y91941D01*
X8335D01*
Y90682D01*
D02*
G37*
G36*
X8729Y89648D02*
X8803Y89597D01*
X8869Y89547D01*
X8928Y89500D01*
X8978Y89457D01*
X9017Y89422D01*
X9048Y89395D01*
X9064Y89375D01*
X9072Y89367D01*
X9095Y89340D01*
X9119Y89305D01*
X9162Y89239D01*
X9177Y89211D01*
X9189Y89188D01*
X9197Y89172D01*
X9201Y89165D01*
X9212Y89231D01*
X9224Y89293D01*
X9240Y89352D01*
X9259Y89402D01*
X9279Y89453D01*
X9298Y89496D01*
X9318Y89539D01*
X9337Y89574D01*
X9357Y89605D01*
X9372Y89632D01*
X9392Y89656D01*
X9403Y89675D01*
X9419Y89687D01*
X9427Y89699D01*
X9435Y89707D01*
X9470Y89738D01*
X9509Y89765D01*
X9587Y89812D01*
X9661Y89843D01*
X9735Y89863D01*
X9797Y89878D01*
X9825Y89882D01*
X9848D01*
X9867Y89886D01*
X9883D01*
X9891D01*
X9895D01*
X9973Y89882D01*
X10043Y89870D01*
X10109Y89851D01*
X10168Y89831D01*
X10215Y89812D01*
X10250Y89792D01*
X10273Y89781D01*
X10281Y89777D01*
X10343Y89734D01*
X10394Y89687D01*
X10437Y89640D01*
X10468Y89593D01*
X10495Y89555D01*
X10515Y89523D01*
X10523Y89500D01*
X10527Y89496D01*
Y89492D01*
X10538Y89457D01*
X10550Y89418D01*
X10566Y89336D01*
X10581Y89250D01*
X10589Y89168D01*
X10593Y89090D01*
Y89059D01*
X10597Y89028D01*
Y87839D01*
X8034D01*
Y88178D01*
X9173D01*
Y88615D01*
X9169Y88654D01*
Y88685D01*
X9166Y88712D01*
X9162Y88732D01*
Y88747D01*
X9158Y88755D01*
Y88759D01*
X9138Y88817D01*
X9115Y88864D01*
X9103Y88884D01*
X9095Y88899D01*
X9091Y88907D01*
X9087Y88911D01*
X9068Y88942D01*
X9041Y88969D01*
X8986Y89028D01*
X8959Y89047D01*
X8935Y89067D01*
X8920Y89079D01*
X8916Y89083D01*
X8865Y89122D01*
X8811Y89161D01*
X8752Y89204D01*
X8694Y89243D01*
X8643Y89278D01*
X8604Y89305D01*
X8588Y89313D01*
X8577Y89320D01*
X8569Y89328D01*
X8565D01*
X8034Y89668D01*
Y90093D01*
X8729Y89648D01*
D02*
G37*
G36*
X8732Y101154D02*
X8798Y101150D01*
X8856Y101138D01*
X8915Y101122D01*
X8965Y101107D01*
X9016Y101087D01*
X9059Y101068D01*
X9102Y101048D01*
X9137Y101025D01*
X9168Y101005D01*
X9196Y100986D01*
X9219Y100970D01*
X9239Y100955D01*
X9250Y100943D01*
X9258Y100939D01*
X9262Y100935D01*
X9305Y100892D01*
X9340Y100849D01*
X9371Y100803D01*
X9398Y100756D01*
X9422Y100713D01*
X9437Y100666D01*
X9469Y100584D01*
X9484Y100510D01*
X9488Y100479D01*
X9492Y100452D01*
X9496Y100428D01*
Y100397D01*
X9492Y100331D01*
X9484Y100268D01*
X9469Y100210D01*
X9453Y100159D01*
X9437Y100116D01*
X9422Y100081D01*
X9414Y100062D01*
X9410Y100054D01*
X9375Y99995D01*
X9336Y99941D01*
X9293Y99894D01*
X9250Y99855D01*
X9211Y99820D01*
X9180Y99796D01*
X9161Y99781D01*
X9157Y99777D01*
X9223D01*
X9289Y99781D01*
X9352Y99785D01*
X9410Y99789D01*
X9461Y99796D01*
X9511Y99804D01*
X9554Y99812D01*
X9593Y99820D01*
X9629Y99828D01*
X9660Y99835D01*
X9687Y99843D01*
X9707Y99851D01*
X9722Y99855D01*
X9738Y99859D01*
X9742Y99863D01*
X9746D01*
X9820Y99898D01*
X9886Y99937D01*
X9940Y99976D01*
X9983Y100015D01*
X10018Y100046D01*
X10046Y100073D01*
X10061Y100089D01*
X10065Y100097D01*
X10093Y100144D01*
X10116Y100187D01*
X10132Y100233D01*
X10139Y100276D01*
X10147Y100311D01*
X10151Y100339D01*
Y100366D01*
X10147Y100432D01*
X10132Y100495D01*
X10108Y100549D01*
X10085Y100596D01*
X10058Y100631D01*
X10038Y100658D01*
X10022Y100678D01*
X10015Y100682D01*
X9979Y100709D01*
X9940Y100733D01*
X9851Y100771D01*
X9812Y100783D01*
X9781Y100795D01*
X9757Y100803D01*
X9753D01*
X9749D01*
X9773Y101115D01*
X9878Y101095D01*
X9972Y101060D01*
X10050Y101025D01*
X10116Y100982D01*
X10167Y100943D01*
X10206Y100912D01*
X10229Y100889D01*
X10237Y100885D01*
Y100881D01*
X10268Y100842D01*
X10295Y100803D01*
X10334Y100721D01*
X10366Y100639D01*
X10389Y100561D01*
X10401Y100491D01*
X10405Y100460D01*
Y100436D01*
X10408Y100413D01*
Y100385D01*
X10405Y100311D01*
X10397Y100241D01*
X10381Y100175D01*
X10362Y100112D01*
X10338Y100054D01*
X10315Y100003D01*
X10288Y99953D01*
X10260Y99910D01*
X10233Y99871D01*
X10206Y99835D01*
X10182Y99808D01*
X10159Y99781D01*
X10139Y99761D01*
X10124Y99750D01*
X10116Y99742D01*
X10112Y99738D01*
X10046Y99691D01*
X9968Y99648D01*
X9890Y99613D01*
X9800Y99582D01*
X9714Y99555D01*
X9625Y99531D01*
X9535Y99512D01*
X9445Y99500D01*
X9363Y99488D01*
X9285Y99481D01*
X9215Y99473D01*
X9153Y99469D01*
X9102Y99465D01*
X9063D01*
X9051D01*
X9040D01*
X9036D01*
X9032D01*
X8911Y99469D01*
X8802Y99477D01*
X8696Y99488D01*
X8603Y99504D01*
X8517Y99524D01*
X8439Y99543D01*
X8369Y99566D01*
X8306Y99590D01*
X8252Y99609D01*
X8205Y99633D01*
X8166Y99652D01*
X8135Y99672D01*
X8111Y99687D01*
X8096Y99699D01*
X8084Y99707D01*
X8080Y99711D01*
X8029Y99757D01*
X7987Y99808D01*
X7948Y99863D01*
X7913Y99917D01*
X7885Y99972D01*
X7862Y100023D01*
X7842Y100077D01*
X7827Y100128D01*
X7815Y100175D01*
X7807Y100218D01*
X7799Y100257D01*
X7796Y100288D01*
Y100315D01*
X7792Y100339D01*
Y100354D01*
X7796Y100436D01*
X7807Y100514D01*
X7827Y100584D01*
X7846Y100647D01*
X7866Y100694D01*
X7885Y100733D01*
X7897Y100756D01*
X7901Y100764D01*
X7948Y100830D01*
X7998Y100885D01*
X8049Y100935D01*
X8100Y100978D01*
X8146Y101009D01*
X8182Y101033D01*
X8197Y101041D01*
X8209Y101048D01*
X8213Y101052D01*
X8217D01*
X8295Y101087D01*
X8373Y101115D01*
X8451Y101130D01*
X8517Y101146D01*
X8579Y101154D01*
X8603D01*
X8626Y101158D01*
X8642D01*
X8653D01*
X8661D01*
X8665D01*
X8732Y101154D01*
D02*
G37*
G36*
X8135Y97886D02*
X8197Y97928D01*
X8248Y97971D01*
X8271Y97991D01*
X8287Y98006D01*
X8299Y98014D01*
X8303Y98018D01*
X8322Y98038D01*
X8342Y98057D01*
X8388Y98108D01*
X8443Y98170D01*
X8497Y98229D01*
X8548Y98287D01*
X8587Y98334D01*
X8603Y98353D01*
X8614Y98369D01*
X8622Y98377D01*
X8626Y98381D01*
X8681Y98443D01*
X8728Y98498D01*
X8774Y98552D01*
X8817Y98599D01*
X8860Y98642D01*
X8895Y98681D01*
X8930Y98720D01*
X8962Y98751D01*
X8989Y98779D01*
X9012Y98802D01*
X9047Y98837D01*
X9071Y98857D01*
X9079Y98864D01*
X9141Y98915D01*
X9196Y98962D01*
X9250Y98997D01*
X9297Y99024D01*
X9336Y99048D01*
X9363Y99063D01*
X9383Y99071D01*
X9391Y99075D01*
X9445Y99098D01*
X9500Y99114D01*
X9550Y99126D01*
X9597Y99133D01*
X9636Y99137D01*
X9668Y99141D01*
X9687D01*
X9695D01*
X9749Y99137D01*
X9804Y99133D01*
X9901Y99106D01*
X9987Y99071D01*
X10061Y99032D01*
X10120Y98993D01*
X10143Y98974D01*
X10167Y98958D01*
X10182Y98942D01*
X10194Y98931D01*
X10198Y98927D01*
X10202Y98923D01*
X10237Y98880D01*
X10272Y98837D01*
X10299Y98790D01*
X10323Y98740D01*
X10358Y98642D01*
X10381Y98549D01*
X10393Y98506D01*
X10397Y98467D01*
X10401Y98431D01*
X10405Y98400D01*
X10408Y98373D01*
Y98338D01*
X10405Y98272D01*
X10401Y98209D01*
X10377Y98092D01*
X10366Y98041D01*
X10350Y97991D01*
X10330Y97948D01*
X10315Y97909D01*
X10295Y97874D01*
X10280Y97843D01*
X10260Y97815D01*
X10249Y97792D01*
X10237Y97776D01*
X10225Y97765D01*
X10221Y97757D01*
X10217Y97753D01*
X10178Y97714D01*
X10139Y97683D01*
X10050Y97624D01*
X9960Y97581D01*
X9870Y97550D01*
X9792Y97527D01*
X9757Y97523D01*
X9726Y97515D01*
X9703Y97511D01*
X9683Y97507D01*
X9671D01*
X9668D01*
X9632Y97831D01*
X9718Y97839D01*
X9792Y97854D01*
X9855Y97874D01*
X9909Y97901D01*
X9952Y97925D01*
X9983Y97948D01*
X9999Y97964D01*
X10007Y97967D01*
X10054Y98022D01*
X10089Y98080D01*
X10112Y98143D01*
X10132Y98201D01*
X10139Y98252D01*
X10143Y98291D01*
X10147Y98307D01*
Y98330D01*
X10143Y98408D01*
X10128Y98478D01*
X10108Y98537D01*
X10085Y98588D01*
X10058Y98627D01*
X10038Y98658D01*
X10022Y98673D01*
X10018Y98681D01*
X9968Y98728D01*
X9913Y98759D01*
X9862Y98782D01*
X9812Y98802D01*
X9769Y98810D01*
X9734Y98814D01*
X9710Y98818D01*
X9707D01*
X9703D01*
X9636Y98810D01*
X9566Y98794D01*
X9504Y98771D01*
X9445Y98743D01*
X9394Y98716D01*
X9356Y98693D01*
X9340Y98685D01*
X9328Y98677D01*
X9324Y98669D01*
X9320D01*
X9281Y98638D01*
X9239Y98603D01*
X9196Y98564D01*
X9153Y98517D01*
X9063Y98424D01*
X8973Y98330D01*
X8899Y98244D01*
X8864Y98205D01*
X8837Y98170D01*
X8810Y98143D01*
X8794Y98123D01*
X8782Y98108D01*
X8778Y98104D01*
X8696Y98010D01*
X8622Y97925D01*
X8556Y97854D01*
X8501Y97796D01*
X8455Y97749D01*
X8420Y97718D01*
X8396Y97698D01*
X8392Y97690D01*
X8388D01*
X8326Y97640D01*
X8267Y97601D01*
X8209Y97562D01*
X8158Y97535D01*
X8111Y97511D01*
X8080Y97496D01*
X8057Y97488D01*
X8053Y97484D01*
X8049D01*
X8010Y97472D01*
X7971Y97460D01*
X7936Y97457D01*
X7905Y97453D01*
X7877Y97449D01*
X7854D01*
X7838D01*
X7835D01*
Y99145D01*
X8135D01*
Y97886D01*
D02*
G37*
G36*
X8529Y96852D02*
X8603Y96801D01*
X8669Y96751D01*
X8728Y96704D01*
X8778Y96661D01*
X8817Y96626D01*
X8849Y96599D01*
X8864Y96579D01*
X8872Y96571D01*
X8895Y96544D01*
X8919Y96509D01*
X8962Y96443D01*
X8977Y96415D01*
X8989Y96392D01*
X8997Y96376D01*
X9001Y96368D01*
X9012Y96435D01*
X9024Y96497D01*
X9040Y96556D01*
X9059Y96606D01*
X9079Y96657D01*
X9098Y96700D01*
X9118Y96743D01*
X9137Y96778D01*
X9157Y96809D01*
X9172Y96836D01*
X9192Y96860D01*
X9203Y96879D01*
X9219Y96891D01*
X9227Y96903D01*
X9235Y96911D01*
X9270Y96942D01*
X9309Y96969D01*
X9387Y97016D01*
X9461Y97047D01*
X9535Y97066D01*
X9597Y97082D01*
X9625Y97086D01*
X9648D01*
X9668Y97090D01*
X9683D01*
X9691D01*
X9695D01*
X9773Y97086D01*
X9843Y97074D01*
X9909Y97055D01*
X9968Y97035D01*
X10015Y97016D01*
X10050Y96996D01*
X10073Y96985D01*
X10081Y96981D01*
X10143Y96938D01*
X10194Y96891D01*
X10237Y96844D01*
X10268Y96797D01*
X10295Y96758D01*
X10315Y96727D01*
X10323Y96704D01*
X10327Y96700D01*
Y96696D01*
X10338Y96661D01*
X10350Y96622D01*
X10366Y96540D01*
X10381Y96454D01*
X10389Y96372D01*
X10393Y96294D01*
Y96263D01*
X10397Y96232D01*
Y95042D01*
X7835D01*
Y95382D01*
X8973D01*
Y95819D01*
X8969Y95858D01*
Y95889D01*
X8965Y95916D01*
X8962Y95935D01*
Y95951D01*
X8958Y95959D01*
Y95963D01*
X8938Y96021D01*
X8915Y96068D01*
X8903Y96088D01*
X8895Y96103D01*
X8891Y96111D01*
X8888Y96115D01*
X8868Y96146D01*
X8841Y96173D01*
X8786Y96232D01*
X8759Y96251D01*
X8735Y96271D01*
X8720Y96283D01*
X8716Y96286D01*
X8665Y96325D01*
X8611Y96364D01*
X8552Y96407D01*
X8494Y96446D01*
X8443Y96482D01*
X8404Y96509D01*
X8388Y96517D01*
X8377Y96524D01*
X8369Y96532D01*
X8365D01*
X7835Y96872D01*
Y97297D01*
X8529Y96852D01*
D02*
G37*
G36*
X9235Y81150D02*
X9293D01*
X9352Y81146D01*
X9406Y81142D01*
X9457Y81134D01*
X9500Y81130D01*
X9543Y81126D01*
X9578Y81119D01*
X9613Y81115D01*
X9640Y81111D01*
X9660Y81103D01*
X9679Y81099D01*
X9691D01*
X9699Y81095D01*
X9703D01*
X9785Y81072D01*
X9859Y81045D01*
X9925Y81017D01*
X9979Y80994D01*
X10022Y80970D01*
X10058Y80951D01*
X10077Y80939D01*
X10085Y80935D01*
X10139Y80896D01*
X10186Y80853D01*
X10229Y80810D01*
X10264Y80771D01*
X10288Y80733D01*
X10307Y80705D01*
X10319Y80686D01*
X10323Y80678D01*
X10350Y80619D01*
X10373Y80557D01*
X10389Y80495D01*
X10397Y80440D01*
X10405Y80393D01*
X10408Y80354D01*
Y80319D01*
X10401Y80218D01*
X10385Y80128D01*
X10362Y80046D01*
X10334Y79980D01*
X10303Y79925D01*
X10280Y79886D01*
X10272Y79871D01*
X10264Y79859D01*
X10256Y79855D01*
Y79851D01*
X10194Y79785D01*
X10128Y79730D01*
X10058Y79683D01*
X9987Y79644D01*
X9925Y79613D01*
X9898Y79602D01*
X9874Y79594D01*
X9855Y79586D01*
X9839Y79578D01*
X9831Y79574D01*
X9827D01*
X9773Y79559D01*
X9718Y79543D01*
X9597Y79523D01*
X9476Y79508D01*
X9359Y79496D01*
X9305Y79492D01*
X9254Y79488D01*
X9211D01*
X9172Y79484D01*
X9141D01*
X9118D01*
X9102D01*
X9098D01*
X8969Y79488D01*
X8845Y79496D01*
X8735Y79508D01*
X8630Y79523D01*
X8536Y79543D01*
X8451Y79562D01*
X8373Y79586D01*
X8306Y79609D01*
X8244Y79633D01*
X8193Y79656D01*
X8150Y79676D01*
X8115Y79695D01*
X8088Y79711D01*
X8068Y79722D01*
X8057Y79730D01*
X8053Y79734D01*
X8006Y79777D01*
X7967Y79820D01*
X7932Y79867D01*
X7901Y79917D01*
X7877Y79964D01*
X7854Y80015D01*
X7823Y80108D01*
X7815Y80151D01*
X7807Y80190D01*
X7799Y80225D01*
X7796Y80257D01*
X7792Y80284D01*
Y80319D01*
X7799Y80421D01*
X7815Y80510D01*
X7838Y80588D01*
X7866Y80658D01*
X7893Y80709D01*
X7916Y80752D01*
X7928Y80764D01*
X7932Y80775D01*
X7940Y80779D01*
Y80783D01*
X8002Y80849D01*
X8072Y80904D01*
X8143Y80951D01*
X8213Y80990D01*
X8275Y81021D01*
X8299Y81033D01*
X8322Y81045D01*
X8342Y81052D01*
X8357Y81056D01*
X8365Y81060D01*
X8369D01*
X8423Y81076D01*
X8478Y81091D01*
X8599Y81115D01*
X8720Y81130D01*
X8837Y81142D01*
X8891Y81146D01*
X8942Y81150D01*
X8985D01*
X9024Y81154D01*
X9055D01*
X9079D01*
X9094D01*
X9098D01*
X9235Y81150D01*
D02*
G37*
G36*
X10408Y78474D02*
X10346Y78439D01*
X10284Y78396D01*
X10225Y78350D01*
X10171Y78303D01*
X10128Y78260D01*
X10093Y78225D01*
X10069Y78201D01*
X10065Y78197D01*
X10061Y78194D01*
X9999Y78119D01*
X9940Y78041D01*
X9890Y77964D01*
X9847Y77893D01*
X9812Y77831D01*
X9800Y77804D01*
X9788Y77780D01*
X9777Y77765D01*
X9769Y77749D01*
X9765Y77741D01*
Y77737D01*
X9457D01*
X9480Y77792D01*
X9508Y77850D01*
X9531Y77905D01*
X9558Y77956D01*
X9582Y77999D01*
X9601Y78034D01*
X9617Y78057D01*
X9621Y78061D01*
Y78065D01*
X9660Y78131D01*
X9703Y78190D01*
X9738Y78240D01*
X9773Y78283D01*
X9800Y78318D01*
X9820Y78346D01*
X9835Y78361D01*
X9839Y78365D01*
X7835D01*
Y78681D01*
X10408D01*
Y78474D01*
D02*
G37*
G36*
X8529Y76856D02*
X8603Y76805D01*
X8669Y76754D01*
X8728Y76708D01*
X8778Y76665D01*
X8817Y76630D01*
X8849Y76602D01*
X8864Y76583D01*
X8872Y76575D01*
X8895Y76548D01*
X8919Y76513D01*
X8962Y76446D01*
X8977Y76419D01*
X8989Y76396D01*
X8997Y76380D01*
X9001Y76372D01*
X9012Y76439D01*
X9024Y76501D01*
X9040Y76560D01*
X9059Y76610D01*
X9079Y76661D01*
X9098Y76704D01*
X9118Y76747D01*
X9137Y76782D01*
X9157Y76813D01*
X9172Y76840D01*
X9192Y76864D01*
X9203Y76883D01*
X9219Y76895D01*
X9227Y76907D01*
X9235Y76914D01*
X9270Y76946D01*
X9309Y76973D01*
X9387Y77020D01*
X9461Y77051D01*
X9535Y77070D01*
X9597Y77086D01*
X9625Y77090D01*
X9648D01*
X9668Y77094D01*
X9683D01*
X9691D01*
X9695D01*
X9773Y77090D01*
X9843Y77078D01*
X9909Y77059D01*
X9968Y77039D01*
X10015Y77020D01*
X10050Y77000D01*
X10073Y76989D01*
X10081Y76985D01*
X10143Y76942D01*
X10194Y76895D01*
X10237Y76848D01*
X10268Y76801D01*
X10295Y76762D01*
X10315Y76731D01*
X10323Y76708D01*
X10327Y76704D01*
Y76700D01*
X10338Y76665D01*
X10350Y76626D01*
X10366Y76544D01*
X10381Y76458D01*
X10389Y76376D01*
X10393Y76298D01*
Y76267D01*
X10397Y76236D01*
Y75046D01*
X7835D01*
Y75386D01*
X8973D01*
Y75822D01*
X8969Y75861D01*
Y75893D01*
X8965Y75920D01*
X8962Y75939D01*
Y75955D01*
X8958Y75963D01*
Y75967D01*
X8938Y76025D01*
X8915Y76072D01*
X8903Y76091D01*
X8895Y76107D01*
X8891Y76115D01*
X8888Y76119D01*
X8868Y76150D01*
X8841Y76177D01*
X8786Y76236D01*
X8759Y76255D01*
X8735Y76275D01*
X8720Y76287D01*
X8716Y76290D01*
X8665Y76329D01*
X8611Y76368D01*
X8552Y76411D01*
X8494Y76450D01*
X8443Y76485D01*
X8404Y76513D01*
X8388Y76521D01*
X8377Y76528D01*
X8369Y76536D01*
X8365D01*
X7835Y76875D01*
Y77301D01*
X8529Y76856D01*
D02*
G37*
G36*
X10350Y85006D02*
X10050D01*
Y86261D01*
X9940Y86172D01*
X9827Y86090D01*
X9714Y86012D01*
X9609Y85942D01*
X9558Y85914D01*
X9515Y85887D01*
X9476Y85864D01*
X9441Y85844D01*
X9414Y85829D01*
X9394Y85817D01*
X9379Y85809D01*
X9375Y85805D01*
X9227Y85731D01*
X9079Y85665D01*
X8938Y85610D01*
X8872Y85587D01*
X8813Y85563D01*
X8755Y85544D01*
X8704Y85528D01*
X8661Y85513D01*
X8622Y85501D01*
X8591Y85493D01*
X8568Y85485D01*
X8552Y85481D01*
X8548D01*
X8392Y85442D01*
X8322Y85427D01*
X8252Y85415D01*
X8189Y85403D01*
X8131Y85396D01*
X8072Y85388D01*
X8022Y85380D01*
X7979Y85376D01*
X7936Y85372D01*
X7901Y85368D01*
X7874D01*
X7850Y85364D01*
X7835D01*
X7823D01*
X7819D01*
Y85688D01*
X7959Y85700D01*
X8092Y85715D01*
X8209Y85735D01*
X8264Y85747D01*
X8314Y85754D01*
X8357Y85766D01*
X8400Y85774D01*
X8435Y85782D01*
X8466Y85790D01*
X8490Y85797D01*
X8505Y85801D01*
X8517Y85805D01*
X8521D01*
X8692Y85860D01*
X8852Y85918D01*
X8930Y85949D01*
X9004Y85981D01*
X9075Y86012D01*
X9137Y86039D01*
X9196Y86066D01*
X9250Y86094D01*
X9297Y86117D01*
X9336Y86137D01*
X9367Y86152D01*
X9391Y86164D01*
X9406Y86172D01*
X9410Y86176D01*
X9488Y86222D01*
X9566Y86265D01*
X9636Y86312D01*
X9703Y86355D01*
X9765Y86394D01*
X9820Y86437D01*
X9874Y86476D01*
X9921Y86511D01*
X9960Y86542D01*
X9999Y86573D01*
X10030Y86601D01*
X10058Y86620D01*
X10077Y86640D01*
X10093Y86651D01*
X10100Y86659D01*
X10104Y86663D01*
X10350D01*
Y85006D01*
D02*
G37*
G36*
X8513Y84346D02*
X8587Y84296D01*
X8653Y84245D01*
X8712Y84198D01*
X8763Y84155D01*
X8802Y84120D01*
X8833Y84093D01*
X8849Y84074D01*
X8856Y84066D01*
X8880Y84038D01*
X8903Y84003D01*
X8946Y83937D01*
X8962Y83910D01*
X8973Y83886D01*
X8981Y83871D01*
X8985Y83863D01*
X8997Y83929D01*
X9008Y83992D01*
X9024Y84050D01*
X9043Y84101D01*
X9063Y84152D01*
X9082Y84194D01*
X9102Y84237D01*
X9121Y84272D01*
X9141Y84304D01*
X9157Y84331D01*
X9176Y84354D01*
X9188Y84374D01*
X9203Y84386D01*
X9211Y84397D01*
X9219Y84405D01*
X9254Y84436D01*
X9293Y84464D01*
X9371Y84510D01*
X9445Y84541D01*
X9519Y84561D01*
X9582Y84577D01*
X9609Y84580D01*
X9632D01*
X9652Y84584D01*
X9668D01*
X9675D01*
X9679D01*
X9757Y84580D01*
X9827Y84569D01*
X9894Y84549D01*
X9952Y84530D01*
X9999Y84510D01*
X10034Y84491D01*
X10058Y84479D01*
X10065Y84475D01*
X10128Y84432D01*
X10178Y84386D01*
X10221Y84339D01*
X10253Y84292D01*
X10280Y84253D01*
X10299Y84222D01*
X10307Y84198D01*
X10311Y84194D01*
Y84190D01*
X10323Y84155D01*
X10334Y84116D01*
X10350Y84035D01*
X10366Y83949D01*
X10373Y83867D01*
X10377Y83789D01*
Y83758D01*
X10381Y83726D01*
Y82537D01*
X7819D01*
Y82876D01*
X8958D01*
Y83313D01*
X8954Y83352D01*
Y83383D01*
X8950Y83411D01*
X8946Y83430D01*
Y83446D01*
X8942Y83453D01*
Y83457D01*
X8923Y83516D01*
X8899Y83563D01*
X8888Y83582D01*
X8880Y83598D01*
X8876Y83605D01*
X8872Y83609D01*
X8852Y83641D01*
X8825Y83668D01*
X8771Y83726D01*
X8743Y83746D01*
X8720Y83765D01*
X8704Y83777D01*
X8700Y83781D01*
X8650Y83820D01*
X8595Y83859D01*
X8536Y83902D01*
X8478Y83941D01*
X8427Y83976D01*
X8388Y84003D01*
X8373Y84011D01*
X8361Y84019D01*
X8353Y84027D01*
X8349D01*
X7819Y84366D01*
Y84791D01*
X8513Y84346D01*
D02*
G37*
%LPC*%
G36*
X137866Y98096D02*
X136720D01*
Y97293D01*
X137866Y98096D01*
D02*
G37*
G36*
X137710Y96337D02*
X137687D01*
X137683D01*
X137679D01*
X137632Y96333D01*
X137590Y96326D01*
X137550Y96314D01*
X137519Y96302D01*
X137488Y96290D01*
X137469Y96279D01*
X137453Y96271D01*
X137449Y96267D01*
X137414Y96240D01*
X137383Y96209D01*
X137355Y96174D01*
X137332Y96142D01*
X137317Y96115D01*
X137305Y96092D01*
X137301Y96076D01*
X137297Y96068D01*
X137281Y96017D01*
X137270Y95959D01*
X137262Y95897D01*
X137258Y95838D01*
X137254Y95787D01*
X137250Y95745D01*
Y94980D01*
X138096D01*
Y95787D01*
X138093Y95889D01*
X138077Y95975D01*
X138061Y96045D01*
X138038Y96103D01*
X138019Y96146D01*
X137999Y96181D01*
X137983Y96197D01*
X137979Y96205D01*
X137933Y96248D01*
X137882Y96283D01*
X137831Y96306D01*
X137785Y96322D01*
X137742Y96329D01*
X137710Y96337D01*
D02*
G37*
G36*
X137726Y91033D02*
X137703D01*
X137699D01*
X137695D01*
X137648Y91030D01*
X137605Y91022D01*
X137566Y91010D01*
X137535Y90998D01*
X137504Y90987D01*
X137484Y90975D01*
X137469Y90967D01*
X137465Y90963D01*
X137430Y90936D01*
X137398Y90905D01*
X137371Y90870D01*
X137348Y90838D01*
X137332Y90811D01*
X137320Y90788D01*
X137317Y90772D01*
X137313Y90764D01*
X137297Y90714D01*
X137285Y90655D01*
X137277Y90593D01*
X137274Y90534D01*
X137270Y90483D01*
X137266Y90441D01*
Y89676D01*
X138112D01*
Y90483D01*
X138108Y90585D01*
X138093Y90671D01*
X138077Y90741D01*
X138054Y90799D01*
X138034Y90842D01*
X138015Y90877D01*
X137999Y90893D01*
X137995Y90901D01*
X137948Y90944D01*
X137898Y90979D01*
X137847Y91002D01*
X137800Y91018D01*
X137757Y91026D01*
X137726Y91033D01*
D02*
G37*
G36*
X116505Y108045D02*
X116481D01*
X116477D01*
X116473D01*
X116427Y108041D01*
X116384Y108033D01*
X116345Y108022D01*
X116313Y108010D01*
X116282Y107998D01*
X116263Y107987D01*
X116247Y107979D01*
X116243Y107975D01*
X116208Y107948D01*
X116177Y107916D01*
X116150Y107881D01*
X116126Y107850D01*
X116111Y107823D01*
X116099Y107799D01*
X116095Y107784D01*
X116091Y107776D01*
X116076Y107725D01*
X116064Y107667D01*
X116056Y107604D01*
X116052Y107546D01*
X116048Y107495D01*
X116044Y107452D01*
Y106688D01*
X116891D01*
Y107495D01*
X116887Y107597D01*
X116871Y107682D01*
X116856Y107753D01*
X116832Y107811D01*
X116813Y107854D01*
X116793Y107889D01*
X116778Y107905D01*
X116774Y107913D01*
X116727Y107955D01*
X116676Y107991D01*
X116625Y108014D01*
X116579Y108029D01*
X116536Y108037D01*
X116505Y108045D01*
D02*
G37*
G36*
X117204Y82879D02*
X117181D01*
X117177D01*
X117173D01*
X117127Y82875D01*
X117084Y82867D01*
X117045Y82856D01*
X117013Y82844D01*
X116982Y82832D01*
X116963Y82821D01*
X116947Y82813D01*
X116943Y82809D01*
X116908Y82782D01*
X116877Y82750D01*
X116850Y82715D01*
X116826Y82684D01*
X116811Y82657D01*
X116799Y82633D01*
X116795Y82618D01*
X116791Y82610D01*
X116776Y82559D01*
X116764Y82501D01*
X116756Y82438D01*
X116752Y82380D01*
X116748Y82329D01*
X116744Y82286D01*
Y81522D01*
X117591D01*
Y82329D01*
X117587Y82431D01*
X117571Y82516D01*
X117555Y82587D01*
X117532Y82645D01*
X117513Y82688D01*
X117493Y82723D01*
X117478Y82739D01*
X117474Y82746D01*
X117427Y82789D01*
X117376Y82824D01*
X117325Y82848D01*
X117279Y82863D01*
X117236Y82871D01*
X117204Y82879D01*
D02*
G37*
G36*
X181969Y154332D02*
X181949D01*
X181946D01*
X181942D01*
X181883Y154329D01*
X181828Y154313D01*
X181778Y154297D01*
X181739Y154274D01*
X181704Y154254D01*
X181680Y154235D01*
X181665Y154219D01*
X181661Y154216D01*
X181622Y154169D01*
X181595Y154118D01*
X181575Y154067D01*
X181563Y154021D01*
X181555Y153978D01*
X181548Y153946D01*
Y153915D01*
X181552Y153849D01*
X181567Y153790D01*
X181583Y153736D01*
X181606Y153693D01*
X181626Y153658D01*
X181645Y153630D01*
X181657Y153615D01*
X181661Y153611D01*
X181708Y153572D01*
X181758Y153545D01*
X181805Y153525D01*
X181852Y153514D01*
X181895Y153506D01*
X181926Y153498D01*
X181949D01*
X181957D01*
X182016Y153502D01*
X182066Y153517D01*
X182117Y153537D01*
X182156Y153556D01*
X182187Y153580D01*
X182215Y153595D01*
X182230Y153611D01*
X182234Y153615D01*
X182273Y153662D01*
X182300Y153712D01*
X182324Y153763D01*
X182335Y153810D01*
X182343Y153853D01*
X182351Y153884D01*
Y153915D01*
X182347Y153981D01*
X182332Y154036D01*
X182312Y154087D01*
X182293Y154130D01*
X182269Y154165D01*
X182250Y154192D01*
X182234Y154208D01*
X182230Y154212D01*
X182183Y154251D01*
X182137Y154282D01*
X182086Y154301D01*
X182043Y154317D01*
X182004Y154325D01*
X181969Y154332D01*
D02*
G37*
G36*
X180787Y154438D02*
X180775D01*
X180768D01*
X180764D01*
X180682Y154430D01*
X180612Y154414D01*
X180545Y154391D01*
X180495Y154364D01*
X180452Y154336D01*
X180421Y154313D01*
X180401Y154297D01*
X180393Y154290D01*
X180347Y154231D01*
X180311Y154173D01*
X180284Y154110D01*
X180269Y154052D01*
X180257Y153997D01*
X180253Y153958D01*
X180249Y153943D01*
Y153919D01*
X180253Y153865D01*
X180261Y153814D01*
X180269Y153771D01*
X180284Y153728D01*
X180296Y153693D01*
X180304Y153670D01*
X180311Y153654D01*
X180315Y153646D01*
X180343Y153603D01*
X180374Y153564D01*
X180409Y153533D01*
X180440Y153506D01*
X180467Y153486D01*
X180491Y153471D01*
X180506Y153463D01*
X180510Y153459D01*
X180557Y153439D01*
X180604Y153424D01*
X180651Y153412D01*
X180690Y153404D01*
X180725Y153400D01*
X180748Y153396D01*
X180768D01*
X180772D01*
X180850Y153404D01*
X180924Y153420D01*
X180986Y153443D01*
X181041Y153471D01*
X181084Y153494D01*
X181115Y153517D01*
X181134Y153533D01*
X181142Y153541D01*
X181193Y153599D01*
X181228Y153658D01*
X181255Y153720D01*
X181271Y153779D01*
X181282Y153829D01*
X181286Y153872D01*
X181290Y153888D01*
Y153907D01*
X181282Y153989D01*
X181267Y154063D01*
X181244Y154130D01*
X181216Y154184D01*
X181185Y154227D01*
X181162Y154258D01*
X181146Y154278D01*
X181138Y154286D01*
X181080Y154336D01*
X181017Y154375D01*
X180955Y154403D01*
X180896Y154418D01*
X180842Y154430D01*
X180803Y154434D01*
X180787Y154438D01*
D02*
G37*
G36*
X181926Y150335D02*
X181903D01*
X181899D01*
X181895D01*
X181848Y150331D01*
X181805Y150323D01*
X181766Y150312D01*
X181735Y150300D01*
X181704Y150288D01*
X181684Y150277D01*
X181669Y150269D01*
X181665Y150265D01*
X181630Y150238D01*
X181598Y150206D01*
X181571Y150171D01*
X181548Y150140D01*
X181532Y150113D01*
X181520Y150089D01*
X181517Y150074D01*
X181513Y150066D01*
X181497Y150015D01*
X181485Y149957D01*
X181477Y149894D01*
X181474Y149836D01*
X181470Y149785D01*
X181466Y149742D01*
Y148978D01*
X182312D01*
Y149785D01*
X182308Y149887D01*
X182293Y149972D01*
X182277Y150042D01*
X182254Y150101D01*
X182234Y150144D01*
X182215Y150179D01*
X182199Y150195D01*
X182195Y150202D01*
X182148Y150245D01*
X182098Y150280D01*
X182047Y150304D01*
X182000Y150319D01*
X181957Y150327D01*
X181926Y150335D01*
D02*
G37*
G36*
X161604Y59439D02*
X161581D01*
X161577D01*
X161573D01*
X161527Y59435D01*
X161484Y59427D01*
X161445Y59416D01*
X161413Y59404D01*
X161382Y59392D01*
X161363Y59380D01*
X161347Y59373D01*
X161343Y59369D01*
X161308Y59341D01*
X161277Y59310D01*
X161250Y59275D01*
X161226Y59244D01*
X161211Y59217D01*
X161199Y59193D01*
X161195Y59178D01*
X161191Y59170D01*
X161176Y59119D01*
X161164Y59061D01*
X161156Y58998D01*
X161152Y58940D01*
X161148Y58889D01*
X161144Y58846D01*
Y58082D01*
X161991D01*
Y58889D01*
X161987Y58990D01*
X161971Y59076D01*
X161955Y59146D01*
X161932Y59205D01*
X161913Y59248D01*
X161893Y59283D01*
X161878Y59298D01*
X161874Y59306D01*
X161827Y59349D01*
X161776Y59384D01*
X161725Y59408D01*
X161679Y59423D01*
X161636Y59431D01*
X161604Y59439D01*
D02*
G37*
G36*
X156173Y63334D02*
X156157D01*
X156150D01*
X156146D01*
X156048Y63326D01*
X155962Y63310D01*
X155884Y63287D01*
X155822Y63264D01*
X155775Y63236D01*
X155740Y63213D01*
X155717Y63197D01*
X155709Y63190D01*
X155654Y63135D01*
X155615Y63077D01*
X155588Y63018D01*
X155569Y62967D01*
X155557Y62917D01*
X155553Y62881D01*
X155549Y62866D01*
Y62846D01*
X155553Y62796D01*
X155561Y62749D01*
X155572Y62702D01*
X155588Y62663D01*
X155600Y62632D01*
X155611Y62608D01*
X155619Y62589D01*
X155623Y62585D01*
X155654Y62542D01*
X155693Y62503D01*
X155728Y62472D01*
X155767Y62445D01*
X155799Y62421D01*
X155826Y62406D01*
X155842Y62398D01*
X155849Y62394D01*
X155908Y62371D01*
X155962Y62355D01*
X156013Y62343D01*
X156064Y62335D01*
X156103Y62332D01*
X156134Y62328D01*
X156154D01*
X156161D01*
X156251Y62335D01*
X156329Y62351D01*
X156399Y62375D01*
X156458Y62402D01*
X156501Y62429D01*
X156536Y62453D01*
X156555Y62468D01*
X156563Y62476D01*
X156614Y62534D01*
X156653Y62593D01*
X156680Y62655D01*
X156700Y62710D01*
X156711Y62761D01*
X156715Y62800D01*
X156719Y62815D01*
Y62835D01*
X156711Y62913D01*
X156696Y62983D01*
X156668Y63045D01*
X156641Y63096D01*
X156614Y63139D01*
X156586Y63170D01*
X156571Y63186D01*
X156563Y63194D01*
X156501Y63240D01*
X156434Y63275D01*
X156364Y63299D01*
X156298Y63318D01*
X156239Y63326D01*
X156212Y63330D01*
X156189D01*
X156173Y63334D01*
D02*
G37*
G36*
X157226Y59239D02*
X157203D01*
X157199D01*
X157195D01*
X157148Y59235D01*
X157105Y59227D01*
X157066Y59215D01*
X157035Y59204D01*
X157004Y59192D01*
X156984Y59180D01*
X156969Y59173D01*
X156965Y59169D01*
X156930Y59141D01*
X156898Y59110D01*
X156871Y59075D01*
X156848Y59044D01*
X156832Y59017D01*
X156820Y58993D01*
X156816Y58978D01*
X156813Y58970D01*
X156797Y58919D01*
X156785Y58861D01*
X156778Y58798D01*
X156774Y58740D01*
X156770Y58689D01*
X156766Y58646D01*
Y57882D01*
X157612D01*
Y58689D01*
X157608Y58790D01*
X157593Y58876D01*
X157577Y58946D01*
X157554Y59005D01*
X157534Y59048D01*
X157515Y59083D01*
X157499Y59099D01*
X157495Y59106D01*
X157448Y59149D01*
X157398Y59184D01*
X157347Y59208D01*
X157300Y59223D01*
X157257Y59231D01*
X157226Y59239D01*
D02*
G37*
G36*
X42642Y91060D02*
X41496D01*
Y90257D01*
X42642Y91060D01*
D02*
G37*
G36*
X41925Y89371D02*
X41905D01*
X41890D01*
X41878D01*
X41874D01*
X41777Y89367D01*
X41683Y89360D01*
X41597Y89344D01*
X41515Y89324D01*
X41441Y89301D01*
X41375Y89278D01*
X41313Y89250D01*
X41262Y89223D01*
X41211Y89192D01*
X41172Y89165D01*
X41137Y89141D01*
X41106Y89118D01*
X41082Y89098D01*
X41067Y89083D01*
X41059Y89075D01*
X41055Y89071D01*
X41114Y88997D01*
X41164Y88919D01*
X41203Y88837D01*
X41238Y88763D01*
X41266Y88693D01*
X41277Y88665D01*
X41285Y88642D01*
X41293Y88619D01*
X41297Y88603D01*
X41301Y88595D01*
Y88591D01*
X41055Y88509D01*
X41036Y88576D01*
X41012Y88634D01*
X40989Y88693D01*
X40965Y88740D01*
X40942Y88782D01*
X40922Y88814D01*
X40911Y88833D01*
X40907Y88841D01*
X40883Y88782D01*
X40868Y88720D01*
X40856Y88661D01*
X40848Y88611D01*
X40845Y88568D01*
X40841Y88533D01*
Y88502D01*
X40845Y88431D01*
X40852Y88365D01*
X40864Y88303D01*
X40883Y88244D01*
X40903Y88186D01*
X40926Y88135D01*
X40950Y88088D01*
X40973Y88045D01*
X40997Y88006D01*
X41024Y87971D01*
X41043Y87944D01*
X41063Y87917D01*
X41082Y87897D01*
X41094Y87885D01*
X41102Y87878D01*
X41106Y87874D01*
X41157Y87831D01*
X41215Y87792D01*
X41273Y87761D01*
X41340Y87733D01*
X41402Y87710D01*
X41465Y87687D01*
X41589Y87659D01*
X41648Y87647D01*
X41702Y87640D01*
X41749Y87636D01*
X41792Y87632D01*
X41827Y87628D01*
X41851D01*
X41870D01*
X41874D01*
X41968Y87632D01*
X42053Y87640D01*
X42135Y87651D01*
X42213Y87667D01*
X42280Y87687D01*
X42346Y87706D01*
X42401Y87729D01*
X42455Y87753D01*
X42498Y87772D01*
X42537Y87796D01*
X42572Y87815D01*
X42599Y87835D01*
X42619Y87850D01*
X42635Y87862D01*
X42642Y87870D01*
X42646Y87874D01*
X42693Y87920D01*
X42732Y87971D01*
X42767Y88026D01*
X42798Y88077D01*
X42822Y88131D01*
X42845Y88182D01*
X42876Y88283D01*
X42884Y88326D01*
X42892Y88369D01*
X42900Y88408D01*
X42904Y88439D01*
X42908Y88467D01*
Y88502D01*
X42904Y88595D01*
X42888Y88681D01*
X42869Y88759D01*
X42845Y88825D01*
X42818Y88880D01*
X42798Y88923D01*
X42791Y88938D01*
X42783Y88950D01*
X42779Y88954D01*
Y88958D01*
X42728Y89028D01*
X42670Y89091D01*
X42607Y89145D01*
X42549Y89188D01*
X42498Y89223D01*
X42455Y89246D01*
X42440Y89254D01*
X42428Y89262D01*
X42420Y89266D01*
X42416D01*
X42327Y89301D01*
X42233Y89328D01*
X42143Y89344D01*
X42057Y89360D01*
X41983Y89367D01*
X41952D01*
X41925Y89371D01*
D02*
G37*
G36*
X42525Y103867D02*
X42505D01*
X42490D01*
X42478D01*
X42474D01*
X42377Y103864D01*
X42283Y103856D01*
X42197Y103840D01*
X42115Y103821D01*
X42041Y103797D01*
X41975Y103774D01*
X41912Y103746D01*
X41862Y103719D01*
X41811Y103688D01*
X41772Y103661D01*
X41737Y103637D01*
X41706Y103614D01*
X41682Y103594D01*
X41667Y103579D01*
X41659Y103571D01*
X41655Y103567D01*
X41714Y103493D01*
X41764Y103415D01*
X41803Y103333D01*
X41838Y103259D01*
X41866Y103189D01*
X41877Y103162D01*
X41885Y103138D01*
X41893Y103115D01*
X41897Y103099D01*
X41901Y103091D01*
Y103087D01*
X41655Y103006D01*
X41636Y103072D01*
X41612Y103130D01*
X41589Y103189D01*
X41565Y103236D01*
X41542Y103279D01*
X41522Y103310D01*
X41511Y103329D01*
X41507Y103337D01*
X41484Y103279D01*
X41468Y103216D01*
X41456Y103158D01*
X41448Y103107D01*
X41445Y103064D01*
X41441Y103029D01*
Y102998D01*
X41445Y102927D01*
X41452Y102861D01*
X41464Y102799D01*
X41484Y102740D01*
X41503Y102682D01*
X41526Y102631D01*
X41550Y102584D01*
X41573Y102541D01*
X41597Y102502D01*
X41624Y102467D01*
X41643Y102440D01*
X41663Y102413D01*
X41682Y102393D01*
X41694Y102382D01*
X41702Y102374D01*
X41706Y102370D01*
X41756Y102327D01*
X41815Y102288D01*
X41873Y102257D01*
X41940Y102229D01*
X42002Y102206D01*
X42065Y102183D01*
X42189Y102155D01*
X42248Y102144D01*
X42303Y102136D01*
X42349Y102132D01*
X42392Y102128D01*
X42427Y102124D01*
X42451D01*
X42470D01*
X42474D01*
X42568Y102128D01*
X42654Y102136D01*
X42735Y102147D01*
X42813Y102163D01*
X42880Y102183D01*
X42946Y102202D01*
X43001Y102225D01*
X43055Y102249D01*
X43098Y102268D01*
X43137Y102292D01*
X43172Y102311D01*
X43200Y102331D01*
X43219Y102346D01*
X43235Y102358D01*
X43242Y102366D01*
X43246Y102370D01*
X43293Y102417D01*
X43332Y102467D01*
X43367Y102522D01*
X43398Y102573D01*
X43422Y102627D01*
X43445Y102678D01*
X43476Y102779D01*
X43484Y102822D01*
X43492Y102865D01*
X43500Y102904D01*
X43504Y102935D01*
X43508Y102963D01*
Y102998D01*
X43504Y103091D01*
X43488Y103177D01*
X43469Y103255D01*
X43445Y103321D01*
X43418Y103376D01*
X43398Y103419D01*
X43391Y103435D01*
X43383Y103446D01*
X43379Y103450D01*
Y103454D01*
X43328Y103524D01*
X43270Y103587D01*
X43207Y103641D01*
X43149Y103684D01*
X43098Y103719D01*
X43055Y103743D01*
X43040Y103750D01*
X43028Y103758D01*
X43020Y103762D01*
X43016D01*
X42926Y103797D01*
X42833Y103824D01*
X42743Y103840D01*
X42657Y103856D01*
X42583Y103864D01*
X42552D01*
X42525Y103867D01*
D02*
G37*
G36*
X161541Y163681D02*
X161510D01*
X161490D01*
X161483D01*
X161369D01*
X161264Y163673D01*
X161170Y163669D01*
X161085Y163657D01*
X161007Y163646D01*
X160936Y163634D01*
X160878Y163622D01*
X160823Y163607D01*
X160781Y163591D01*
X160741Y163579D01*
X160706Y163568D01*
X160683Y163556D01*
X160663Y163548D01*
X160652Y163540D01*
X160644Y163532D01*
X160640D01*
X160605Y163505D01*
X160574Y163474D01*
X160543Y163443D01*
X160519Y163412D01*
X160484Y163353D01*
X160461Y163295D01*
X160445Y163244D01*
X160437Y163205D01*
X160433Y163189D01*
Y163170D01*
X160437Y163131D01*
X160441Y163092D01*
X160465Y163022D01*
X160500Y162959D01*
X160539Y162905D01*
X160574Y162862D01*
X160609Y162830D01*
X160632Y162811D01*
X160636Y162803D01*
X160640D01*
X160683Y162780D01*
X160738Y162756D01*
X160796Y162737D01*
X160859Y162721D01*
X160999Y162694D01*
X161139Y162678D01*
X161206Y162671D01*
X161272Y162667D01*
X161330Y162663D01*
X161381D01*
X161424Y162659D01*
X161455D01*
X161475D01*
X161483D01*
X161596D01*
X161701Y162667D01*
X161794Y162674D01*
X161880Y162682D01*
X161962Y162698D01*
X162032Y162710D01*
X162095Y162725D01*
X162149Y162741D01*
X162196Y162752D01*
X162239Y162768D01*
X162270Y162784D01*
X162298Y162795D01*
X162317Y162803D01*
X162333Y162811D01*
X162340Y162819D01*
X162344D01*
X162376Y162842D01*
X162407Y162870D01*
X162454Y162928D01*
X162485Y162987D01*
X162508Y163041D01*
X162524Y163092D01*
X162528Y163131D01*
X162532Y163146D01*
Y163166D01*
X162528Y163205D01*
X162524Y163244D01*
X162500Y163314D01*
X162465Y163376D01*
X162426Y163431D01*
X162387Y163474D01*
X162352Y163505D01*
X162329Y163525D01*
X162325Y163532D01*
X162321D01*
X162278Y163560D01*
X162227Y163583D01*
X162169Y163603D01*
X162103Y163618D01*
X161966Y163646D01*
X161826Y163661D01*
X161756Y163669D01*
X161693Y163673D01*
X161635Y163677D01*
X161584D01*
X161541Y163681D01*
D02*
G37*
G36*
X156766Y163761D02*
X156751D01*
X156743D01*
X156739D01*
X156645Y163753D01*
X156559Y163738D01*
X156489Y163714D01*
X156427Y163691D01*
X156380Y163664D01*
X156345Y163640D01*
X156325Y163625D01*
X156318Y163617D01*
X156267Y163562D01*
X156228Y163504D01*
X156204Y163441D01*
X156185Y163387D01*
X156173Y163336D01*
X156169Y163297D01*
X156166Y163282D01*
Y163262D01*
X156173Y163184D01*
X156189Y163114D01*
X156212Y163051D01*
X156244Y162997D01*
X156271Y162954D01*
X156294Y162923D01*
X156310Y162903D01*
X156318Y162895D01*
X156380Y162849D01*
X156442Y162813D01*
X156509Y162786D01*
X156575Y162771D01*
X156630Y162759D01*
X156676Y162755D01*
X156692Y162751D01*
X156704D01*
X156711D01*
X156715D01*
X156813Y162759D01*
X156899Y162775D01*
X156977Y162798D01*
X157039Y162829D01*
X157090Y162856D01*
X157129Y162880D01*
X157152Y162895D01*
X157160Y162903D01*
X157191Y162934D01*
X157219Y162966D01*
X157257Y163028D01*
X157289Y163086D01*
X157312Y163145D01*
X157324Y163196D01*
X157328Y163235D01*
X157332Y163250D01*
Y163270D01*
X157324Y163344D01*
X157308Y163410D01*
X157281Y163469D01*
X157254Y163519D01*
X157222Y163562D01*
X157195Y163590D01*
X157179Y163609D01*
X157172Y163617D01*
X157105Y163664D01*
X157035Y163699D01*
X156965Y163726D01*
X156895Y163742D01*
X156832Y163753D01*
X156809Y163757D01*
X156786D01*
X156766Y163761D01*
D02*
G37*
G36*
X150257Y63185D02*
X150242D01*
X150234D01*
X150230D01*
X150133Y63177D01*
X150047Y63161D01*
X149969Y63138D01*
X149906Y63114D01*
X149860Y63087D01*
X149825Y63064D01*
X149801Y63048D01*
X149793Y63040D01*
X149739Y62986D01*
X149700Y62927D01*
X149672Y62869D01*
X149653Y62818D01*
X149641Y62767D01*
X149637Y62732D01*
X149633Y62717D01*
Y62697D01*
X149637Y62646D01*
X149645Y62600D01*
X149657Y62553D01*
X149672Y62514D01*
X149684Y62483D01*
X149696Y62459D01*
X149704Y62440D01*
X149707Y62436D01*
X149739Y62393D01*
X149778Y62354D01*
X149813Y62323D01*
X149852Y62295D01*
X149883Y62272D01*
X149910Y62256D01*
X149926Y62249D01*
X149934Y62245D01*
X149992Y62221D01*
X150047Y62206D01*
X150098Y62194D01*
X150148Y62186D01*
X150187Y62182D01*
X150218Y62178D01*
X150238D01*
X150246D01*
X150335Y62186D01*
X150413Y62202D01*
X150484Y62225D01*
X150542Y62252D01*
X150585Y62280D01*
X150620Y62303D01*
X150640Y62319D01*
X150647Y62327D01*
X150698Y62385D01*
X150737Y62444D01*
X150764Y62506D01*
X150784Y62561D01*
X150796Y62611D01*
X150800Y62650D01*
X150803Y62666D01*
Y62685D01*
X150796Y62763D01*
X150780Y62834D01*
X150753Y62896D01*
X150725Y62947D01*
X150698Y62990D01*
X150671Y63021D01*
X150655Y63036D01*
X150647Y63044D01*
X150585Y63091D01*
X150519Y63126D01*
X150449Y63149D01*
X150382Y63169D01*
X150324Y63177D01*
X150296Y63181D01*
X150273D01*
X150257Y63185D01*
D02*
G37*
G36*
X41725Y62179D02*
X41705D01*
X41690D01*
X41678D01*
X41674D01*
X41577Y62175D01*
X41483Y62167D01*
X41397Y62152D01*
X41315Y62132D01*
X41241Y62109D01*
X41175Y62085D01*
X41113Y62058D01*
X41062Y62031D01*
X41011Y62000D01*
X40972Y61972D01*
X40937Y61949D01*
X40906Y61926D01*
X40882Y61906D01*
X40867Y61891D01*
X40859Y61883D01*
X40855Y61879D01*
X40914Y61805D01*
X40964Y61727D01*
X41003Y61645D01*
X41038Y61571D01*
X41066Y61501D01*
X41077Y61473D01*
X41085Y61450D01*
X41093Y61426D01*
X41097Y61411D01*
X41101Y61403D01*
Y61399D01*
X40855Y61317D01*
X40836Y61383D01*
X40812Y61442D01*
X40789Y61501D01*
X40765Y61547D01*
X40742Y61590D01*
X40723Y61621D01*
X40711Y61641D01*
X40707Y61649D01*
X40683Y61590D01*
X40668Y61528D01*
X40656Y61469D01*
X40648Y61419D01*
X40644Y61376D01*
X40641Y61341D01*
Y61309D01*
X40644Y61239D01*
X40652Y61173D01*
X40664Y61111D01*
X40683Y61052D01*
X40703Y60993D01*
X40726Y60943D01*
X40750Y60896D01*
X40773Y60853D01*
X40797Y60814D01*
X40824Y60779D01*
X40843Y60752D01*
X40863Y60724D01*
X40882Y60705D01*
X40894Y60693D01*
X40902Y60685D01*
X40906Y60681D01*
X40957Y60639D01*
X41015Y60600D01*
X41074Y60568D01*
X41140Y60541D01*
X41202Y60518D01*
X41265Y60494D01*
X41389Y60467D01*
X41448Y60455D01*
X41502Y60448D01*
X41549Y60444D01*
X41592Y60440D01*
X41627Y60436D01*
X41651D01*
X41670D01*
X41674D01*
X41768Y60440D01*
X41853Y60448D01*
X41935Y60459D01*
X42013Y60475D01*
X42080Y60494D01*
X42146Y60514D01*
X42201Y60537D01*
X42255Y60561D01*
X42298Y60580D01*
X42337Y60603D01*
X42372Y60623D01*
X42399Y60642D01*
X42419Y60658D01*
X42435Y60670D01*
X42442Y60678D01*
X42446Y60681D01*
X42493Y60728D01*
X42532Y60779D01*
X42567Y60834D01*
X42598Y60884D01*
X42622Y60939D01*
X42645Y60990D01*
X42676Y61091D01*
X42684Y61134D01*
X42692Y61177D01*
X42700Y61216D01*
X42704Y61247D01*
X42708Y61274D01*
Y61309D01*
X42704Y61403D01*
X42688Y61489D01*
X42669Y61567D01*
X42645Y61633D01*
X42618Y61688D01*
X42598Y61731D01*
X42591Y61746D01*
X42583Y61758D01*
X42579Y61762D01*
Y61766D01*
X42528Y61836D01*
X42470Y61898D01*
X42407Y61953D01*
X42349Y61996D01*
X42298Y62031D01*
X42255Y62054D01*
X42240Y62062D01*
X42228Y62070D01*
X42220Y62074D01*
X42216D01*
X42127Y62109D01*
X42033Y62136D01*
X41943Y62152D01*
X41857Y62167D01*
X41783Y62175D01*
X41752D01*
X41725Y62179D01*
D02*
G37*
G36*
X41225Y76613D02*
X41205D01*
X41190D01*
X41178D01*
X41174D01*
X41077Y76609D01*
X40983Y76601D01*
X40897Y76586D01*
X40815Y76566D01*
X40741Y76543D01*
X40675Y76520D01*
X40613Y76492D01*
X40562Y76465D01*
X40511Y76434D01*
X40472Y76406D01*
X40437Y76383D01*
X40406Y76360D01*
X40382Y76340D01*
X40367Y76324D01*
X40359Y76317D01*
X40355Y76313D01*
X40414Y76239D01*
X40464Y76161D01*
X40503Y76079D01*
X40538Y76005D01*
X40566Y75934D01*
X40577Y75907D01*
X40585Y75884D01*
X40593Y75860D01*
X40597Y75845D01*
X40601Y75837D01*
Y75833D01*
X40355Y75751D01*
X40336Y75818D01*
X40312Y75876D01*
X40289Y75934D01*
X40265Y75981D01*
X40242Y76024D01*
X40222Y76055D01*
X40211Y76075D01*
X40207Y76083D01*
X40183Y76024D01*
X40168Y75962D01*
X40156Y75903D01*
X40148Y75853D01*
X40145Y75810D01*
X40141Y75775D01*
Y75743D01*
X40145Y75673D01*
X40152Y75607D01*
X40164Y75545D01*
X40183Y75486D01*
X40203Y75428D01*
X40226Y75377D01*
X40250Y75330D01*
X40273Y75287D01*
X40297Y75248D01*
X40324Y75213D01*
X40343Y75186D01*
X40363Y75158D01*
X40382Y75139D01*
X40394Y75127D01*
X40402Y75119D01*
X40406Y75116D01*
X40457Y75073D01*
X40515Y75034D01*
X40573Y75002D01*
X40640Y74975D01*
X40702Y74952D01*
X40765Y74928D01*
X40889Y74901D01*
X40948Y74889D01*
X41003Y74882D01*
X41049Y74878D01*
X41092Y74874D01*
X41127Y74870D01*
X41151D01*
X41170D01*
X41174D01*
X41268Y74874D01*
X41353Y74882D01*
X41435Y74893D01*
X41513Y74909D01*
X41580Y74928D01*
X41646Y74948D01*
X41701Y74971D01*
X41755Y74995D01*
X41798Y75014D01*
X41837Y75037D01*
X41872Y75057D01*
X41899Y75077D01*
X41919Y75092D01*
X41935Y75104D01*
X41942Y75112D01*
X41946Y75116D01*
X41993Y75162D01*
X42032Y75213D01*
X42067Y75268D01*
X42098Y75318D01*
X42122Y75373D01*
X42145Y75424D01*
X42176Y75525D01*
X42184Y75568D01*
X42192Y75611D01*
X42200Y75650D01*
X42204Y75681D01*
X42208Y75708D01*
Y75743D01*
X42204Y75837D01*
X42188Y75923D01*
X42169Y76001D01*
X42145Y76067D01*
X42118Y76122D01*
X42098Y76165D01*
X42091Y76180D01*
X42083Y76192D01*
X42079Y76196D01*
Y76200D01*
X42028Y76270D01*
X41970Y76332D01*
X41907Y76387D01*
X41849Y76430D01*
X41798Y76465D01*
X41755Y76488D01*
X41740Y76496D01*
X41728Y76504D01*
X41720Y76508D01*
X41716D01*
X41627Y76543D01*
X41533Y76570D01*
X41443Y76586D01*
X41357Y76601D01*
X41283Y76609D01*
X41252D01*
X41225Y76613D01*
D02*
G37*
G36*
X9782Y93611D02*
X9766D01*
X9758D01*
X9754D01*
X9661Y93603D01*
X9575Y93587D01*
X9505Y93564D01*
X9442Y93540D01*
X9396Y93513D01*
X9360Y93490D01*
X9341Y93474D01*
X9333Y93466D01*
X9283Y93412D01*
X9244Y93353D01*
X9220Y93291D01*
X9201Y93236D01*
X9189Y93185D01*
X9185Y93146D01*
X9181Y93131D01*
Y93111D01*
X9189Y93033D01*
X9205Y92963D01*
X9228Y92901D01*
X9259Y92846D01*
X9286Y92803D01*
X9310Y92772D01*
X9325Y92752D01*
X9333Y92745D01*
X9396Y92698D01*
X9458Y92663D01*
X9524Y92636D01*
X9591Y92620D01*
X9645Y92608D01*
X9692Y92604D01*
X9708Y92600D01*
X9719D01*
X9727D01*
X9731D01*
X9828Y92608D01*
X9914Y92624D01*
X9992Y92647D01*
X10055Y92678D01*
X10105Y92706D01*
X10144Y92729D01*
X10168Y92745D01*
X10176Y92752D01*
X10207Y92784D01*
X10234Y92815D01*
X10273Y92877D01*
X10304Y92936D01*
X10328Y92994D01*
X10339Y93045D01*
X10343Y93084D01*
X10347Y93100D01*
Y93119D01*
X10339Y93193D01*
X10324Y93260D01*
X10296Y93318D01*
X10269Y93369D01*
X10238Y93412D01*
X10211Y93439D01*
X10195Y93458D01*
X10187Y93466D01*
X10121Y93513D01*
X10051Y93548D01*
X9981Y93575D01*
X9910Y93591D01*
X9848Y93603D01*
X9825Y93607D01*
X9801D01*
X9782Y93611D01*
D02*
G37*
G36*
X9926Y89535D02*
X9903D01*
X9899D01*
X9895D01*
X9848Y89531D01*
X9805Y89523D01*
X9766Y89512D01*
X9735Y89500D01*
X9704Y89488D01*
X9684Y89477D01*
X9669Y89469D01*
X9665Y89465D01*
X9630Y89438D01*
X9598Y89406D01*
X9571Y89371D01*
X9548Y89340D01*
X9532Y89313D01*
X9520Y89289D01*
X9516Y89274D01*
X9513Y89266D01*
X9497Y89215D01*
X9485Y89157D01*
X9477Y89094D01*
X9474Y89036D01*
X9470Y88985D01*
X9466Y88942D01*
Y88178D01*
X10312D01*
Y88985D01*
X10308Y89087D01*
X10293Y89172D01*
X10277Y89243D01*
X10254Y89301D01*
X10234Y89344D01*
X10215Y89379D01*
X10199Y89395D01*
X10195Y89402D01*
X10148Y89445D01*
X10098Y89480D01*
X10047Y89504D01*
X10000Y89519D01*
X9957Y89527D01*
X9926Y89535D01*
D02*
G37*
G36*
X8673Y100834D02*
X8657D01*
X8650D01*
X8646D01*
X8548Y100826D01*
X8462Y100811D01*
X8384Y100787D01*
X8322Y100764D01*
X8275Y100736D01*
X8240Y100713D01*
X8217Y100697D01*
X8209Y100690D01*
X8154Y100635D01*
X8115Y100576D01*
X8088Y100518D01*
X8068Y100467D01*
X8057Y100417D01*
X8053Y100382D01*
X8049Y100366D01*
Y100346D01*
X8053Y100296D01*
X8061Y100249D01*
X8072Y100202D01*
X8088Y100163D01*
X8100Y100132D01*
X8111Y100109D01*
X8119Y100089D01*
X8123Y100085D01*
X8154Y100042D01*
X8193Y100003D01*
X8228Y99972D01*
X8267Y99945D01*
X8299Y99921D01*
X8326Y99906D01*
X8342Y99898D01*
X8349Y99894D01*
X8408Y99871D01*
X8462Y99855D01*
X8513Y99843D01*
X8564Y99835D01*
X8603Y99832D01*
X8634Y99828D01*
X8653D01*
X8661D01*
X8751Y99835D01*
X8829Y99851D01*
X8899Y99875D01*
X8958Y99902D01*
X9001Y99929D01*
X9036Y99953D01*
X9055Y99968D01*
X9063Y99976D01*
X9114Y100034D01*
X9153Y100093D01*
X9180Y100155D01*
X9200Y100210D01*
X9211Y100261D01*
X9215Y100300D01*
X9219Y100315D01*
Y100335D01*
X9211Y100413D01*
X9196Y100483D01*
X9168Y100545D01*
X9141Y100596D01*
X9114Y100639D01*
X9086Y100670D01*
X9071Y100686D01*
X9063Y100694D01*
X9001Y100740D01*
X8934Y100775D01*
X8864Y100799D01*
X8798Y100818D01*
X8739Y100826D01*
X8712Y100830D01*
X8689D01*
X8673Y100834D01*
D02*
G37*
G36*
X9726Y96739D02*
X9703D01*
X9699D01*
X9695D01*
X9648Y96735D01*
X9605Y96727D01*
X9566Y96715D01*
X9535Y96704D01*
X9504Y96692D01*
X9484Y96680D01*
X9469Y96673D01*
X9465Y96669D01*
X9430Y96641D01*
X9398Y96610D01*
X9371Y96575D01*
X9348Y96544D01*
X9332Y96517D01*
X9320Y96493D01*
X9317Y96478D01*
X9313Y96470D01*
X9297Y96419D01*
X9285Y96361D01*
X9278Y96298D01*
X9274Y96240D01*
X9270Y96189D01*
X9266Y96146D01*
Y95382D01*
X10112D01*
Y96189D01*
X10108Y96290D01*
X10093Y96376D01*
X10077Y96446D01*
X10054Y96505D01*
X10034Y96548D01*
X10015Y96583D01*
X9999Y96599D01*
X9995Y96606D01*
X9948Y96649D01*
X9898Y96684D01*
X9847Y96708D01*
X9800Y96723D01*
X9757Y96731D01*
X9726Y96739D01*
D02*
G37*
G36*
X9157Y80830D02*
X9125D01*
X9106D01*
X9098D01*
X8985D01*
X8880Y80822D01*
X8786Y80818D01*
X8700Y80807D01*
X8622Y80795D01*
X8552Y80783D01*
X8494Y80771D01*
X8439Y80756D01*
X8396Y80740D01*
X8357Y80729D01*
X8322Y80717D01*
X8299Y80705D01*
X8279Y80697D01*
X8267Y80690D01*
X8260Y80682D01*
X8256D01*
X8221Y80655D01*
X8189Y80623D01*
X8158Y80592D01*
X8135Y80561D01*
X8100Y80502D01*
X8076Y80444D01*
X8061Y80393D01*
X8053Y80354D01*
X8049Y80339D01*
Y80319D01*
X8053Y80280D01*
X8057Y80241D01*
X8080Y80171D01*
X8115Y80108D01*
X8154Y80054D01*
X8189Y80011D01*
X8224Y79980D01*
X8248Y79960D01*
X8252Y79953D01*
X8256D01*
X8299Y79929D01*
X8353Y79906D01*
X8412Y79886D01*
X8474Y79871D01*
X8614Y79843D01*
X8755Y79828D01*
X8821Y79820D01*
X8888Y79816D01*
X8946Y79812D01*
X8997D01*
X9040Y79808D01*
X9071D01*
X9090D01*
X9098D01*
X9211D01*
X9317Y79816D01*
X9410Y79824D01*
X9496Y79832D01*
X9578Y79847D01*
X9648Y79859D01*
X9710Y79874D01*
X9765Y79890D01*
X9812Y79902D01*
X9855Y79917D01*
X9886Y79933D01*
X9913Y79945D01*
X9933Y79953D01*
X9948Y79960D01*
X9956Y79968D01*
X9960D01*
X9991Y79992D01*
X10022Y80019D01*
X10069Y80077D01*
X10100Y80136D01*
X10124Y80190D01*
X10139Y80241D01*
X10143Y80280D01*
X10147Y80296D01*
Y80315D01*
X10143Y80354D01*
X10139Y80393D01*
X10116Y80463D01*
X10081Y80526D01*
X10042Y80580D01*
X10003Y80623D01*
X9968Y80655D01*
X9944Y80674D01*
X9940Y80682D01*
X9937D01*
X9894Y80709D01*
X9843Y80733D01*
X9785Y80752D01*
X9718Y80768D01*
X9582Y80795D01*
X9441Y80810D01*
X9371Y80818D01*
X9309Y80822D01*
X9250Y80826D01*
X9200D01*
X9157Y80830D01*
D02*
G37*
G36*
X9726Y76743D02*
X9703D01*
X9699D01*
X9695D01*
X9648Y76739D01*
X9605Y76731D01*
X9566Y76719D01*
X9535Y76708D01*
X9504Y76696D01*
X9484Y76684D01*
X9469Y76676D01*
X9465Y76673D01*
X9430Y76645D01*
X9398Y76614D01*
X9371Y76579D01*
X9348Y76548D01*
X9332Y76521D01*
X9320Y76497D01*
X9317Y76481D01*
X9313Y76474D01*
X9297Y76423D01*
X9285Y76364D01*
X9278Y76302D01*
X9274Y76244D01*
X9270Y76193D01*
X9266Y76150D01*
Y75386D01*
X10112D01*
Y76193D01*
X10108Y76294D01*
X10093Y76380D01*
X10077Y76450D01*
X10054Y76509D01*
X10034Y76552D01*
X10015Y76587D01*
X9999Y76602D01*
X9995Y76610D01*
X9948Y76653D01*
X9898Y76688D01*
X9847Y76712D01*
X9800Y76727D01*
X9757Y76735D01*
X9726Y76743D01*
D02*
G37*
G36*
X9710Y84233D02*
X9687D01*
X9683D01*
X9679D01*
X9632Y84229D01*
X9589Y84222D01*
X9550Y84210D01*
X9519Y84198D01*
X9488Y84187D01*
X9469Y84175D01*
X9453Y84167D01*
X9449Y84163D01*
X9414Y84136D01*
X9383Y84105D01*
X9356Y84070D01*
X9332Y84038D01*
X9317Y84011D01*
X9305Y83988D01*
X9301Y83972D01*
X9297Y83964D01*
X9281Y83914D01*
X9270Y83855D01*
X9262Y83793D01*
X9258Y83734D01*
X9254Y83684D01*
X9250Y83641D01*
Y82876D01*
X10097D01*
Y83684D01*
X10093Y83785D01*
X10077Y83871D01*
X10061Y83941D01*
X10038Y83999D01*
X10018Y84042D01*
X9999Y84077D01*
X9983Y84093D01*
X9979Y84101D01*
X9933Y84144D01*
X9882Y84179D01*
X9831Y84202D01*
X9785Y84218D01*
X9742Y84226D01*
X9710Y84233D01*
D02*
G37*
%LPD*%
D10*
X151800Y52150D02*
Y52450D01*
X149800Y52150D02*
Y52450D01*
X37986Y69041D02*
Y72781D01*
Y60419D02*
Y64159D01*
X32868Y72781D02*
X37986D01*
X32868Y60419D02*
X37986D01*
X100535Y85835D02*
X117465D01*
X100535Y105165D02*
X117465D01*
X37959Y96941D02*
Y100681D01*
Y88319D02*
Y92059D01*
X32841Y100681D02*
X37959D01*
X32841Y88319D02*
X37959D01*
X37986Y110941D02*
Y114681D01*
Y102319D02*
Y106059D01*
X32868Y114681D02*
X37986D01*
X32868Y102319D02*
X37986D01*
X162400Y152106D02*
Y152406D01*
X160400Y152106D02*
Y152406D01*
X156900Y152106D02*
Y152406D01*
X154900Y152106D02*
Y152406D01*
X32841Y74519D02*
X37959D01*
X32841Y86881D02*
X37959D01*
Y74519D02*
Y78259D01*
Y83141D02*
Y86881D01*
X169339Y75406D02*
X170047D01*
X185953Y75406D02*
X186661Y75406D01*
X169339Y113594D02*
X170047Y113594D01*
X185953Y113594D02*
X186661D01*
X169339Y75406D02*
X169339Y75721D01*
X169339Y113594D02*
X169339Y113280D01*
X186661Y75720D02*
X186661Y75406D01*
X186661Y113279D02*
X186661Y113594D01*
D12*
X26962Y61482D02*
G03*
X26962Y61482I-394J0D01*
G01*
X26935Y89382D02*
G03*
X26935Y89382I-394J0D01*
G01*
X26962Y103382D02*
G03*
X26962Y103382I-394J0D01*
G01*
X26935Y75582D02*
G03*
X26935Y75582I-394J0D01*
G01*
X189194Y115504D02*
G03*
X189194Y115504I-394J0D01*
G01*
X17709Y80685D02*
X18891D01*
X17709Y77915D02*
X18891D01*
X17709Y86785D02*
X18891D01*
X17709Y84015D02*
X18891D01*
X17709Y92885D02*
X18891D01*
X17709Y90115D02*
X18891D01*
X17709Y98885D02*
X18891D01*
X17709Y96115D02*
X18891D01*
X171842Y148909D02*
Y150091D01*
X166980Y148909D02*
Y150091D01*
X108410Y110385D02*
X109591D01*
X108410Y107615D02*
X109591D01*
X108909Y83385D02*
X110091D01*
X108909Y80615D02*
X110091D01*
X129709Y94915D02*
X130891D01*
X129709Y97685D02*
X130891D01*
X129709Y89915D02*
X130891D01*
X129709Y92685D02*
X130891D01*
D14*
X121100Y106700D02*
G03*
X121100Y106700I-300J0D01*
G01*
D15*
X161745Y51985D02*
Y52615D01*
X159855Y51985D02*
Y52615D01*
X155155Y51985D02*
Y52615D01*
X157045Y51985D02*
Y52615D01*
X177845Y151941D02*
Y152571D01*
X175955Y151941D02*
Y152571D01*
M02*
