G04*
G04 #@! TF.GenerationSoftware,Altium Limited,Altium Designer,21.3.2 (30)*
G04*
G04 Layer_Physical_Order=6*
G04 Layer_Color=11930379*
%FSLAX25Y25*%
%MOIN*%
G70*
G04*
G04 #@! TF.SameCoordinates,24C89C37-09E3-4822-9DB9-40424265DB80*
G04*
G04*
G04 #@! TF.FilePolarity,Positive*
G04*
G01*
G75*
%ADD14C,0.01000*%
%ADD16C,0.00600*%
G04:AMPARAMS|DCode=19|XSize=23.62mil|YSize=23.62mil|CornerRadius=5.91mil|HoleSize=0mil|Usage=FLASHONLY|Rotation=270.000|XOffset=0mil|YOffset=0mil|HoleType=Round|Shape=RoundedRectangle|*
%AMROUNDEDRECTD19*
21,1,0.02362,0.01181,0,0,270.0*
21,1,0.01181,0.02362,0,0,270.0*
1,1,0.01181,-0.00591,-0.00591*
1,1,0.01181,-0.00591,0.00591*
1,1,0.01181,0.00591,0.00591*
1,1,0.01181,0.00591,-0.00591*
%
%ADD19ROUNDEDRECTD19*%
G04:AMPARAMS|DCode=31|XSize=19.68mil|YSize=23.62mil|CornerRadius=4.92mil|HoleSize=0mil|Usage=FLASHONLY|Rotation=90.000|XOffset=0mil|YOffset=0mil|HoleType=Round|Shape=RoundedRectangle|*
%AMROUNDEDRECTD31*
21,1,0.01968,0.01378,0,0,90.0*
21,1,0.00984,0.02362,0,0,90.0*
1,1,0.00984,0.00689,0.00492*
1,1,0.00984,0.00689,-0.00492*
1,1,0.00984,-0.00689,-0.00492*
1,1,0.00984,-0.00689,0.00492*
%
%ADD31ROUNDEDRECTD31*%
G04:AMPARAMS|DCode=36|XSize=25.59mil|YSize=35.43mil|CornerRadius=6.4mil|HoleSize=0mil|Usage=FLASHONLY|Rotation=0.000|XOffset=0mil|YOffset=0mil|HoleType=Round|Shape=RoundedRectangle|*
%AMROUNDEDRECTD36*
21,1,0.02559,0.02264,0,0,0.0*
21,1,0.01280,0.03543,0,0,0.0*
1,1,0.01280,0.00640,-0.01132*
1,1,0.01280,-0.00640,-0.01132*
1,1,0.01280,-0.00640,0.01132*
1,1,0.01280,0.00640,0.01132*
%
%ADD36ROUNDEDRECTD36*%
G04:AMPARAMS|DCode=37|XSize=43.31mil|YSize=59.06mil|CornerRadius=10.83mil|HoleSize=0mil|Usage=FLASHONLY|Rotation=270.000|XOffset=0mil|YOffset=0mil|HoleType=Round|Shape=RoundedRectangle|*
%AMROUNDEDRECTD37*
21,1,0.04331,0.03740,0,0,270.0*
21,1,0.02165,0.05906,0,0,270.0*
1,1,0.02165,-0.01870,-0.01083*
1,1,0.02165,-0.01870,0.01083*
1,1,0.02165,0.01870,0.01083*
1,1,0.02165,0.01870,-0.01083*
%
%ADD37ROUNDEDRECTD37*%
%ADD74C,0.00400*%
%ADD76C,0.00800*%
%ADD77C,0.01200*%
%ADD78C,0.01968*%
G04:AMPARAMS|DCode=80|XSize=39.37mil|YSize=23.62mil|CornerRadius=2.95mil|HoleSize=0mil|Usage=FLASHONLY|Rotation=0.000|XOffset=0mil|YOffset=0mil|HoleType=Round|Shape=RoundedRectangle|*
%AMROUNDEDRECTD80*
21,1,0.03937,0.01772,0,0,0.0*
21,1,0.03347,0.02362,0,0,0.0*
1,1,0.00591,0.01673,-0.00886*
1,1,0.00591,-0.01673,-0.00886*
1,1,0.00591,-0.01673,0.00886*
1,1,0.00591,0.01673,0.00886*
%
%ADD80ROUNDEDRECTD80*%
G04:AMPARAMS|DCode=81|XSize=43.31mil|YSize=13.78mil|CornerRadius=3.45mil|HoleSize=0mil|Usage=FLASHONLY|Rotation=180.000|XOffset=0mil|YOffset=0mil|HoleType=Round|Shape=RoundedRectangle|*
%AMROUNDEDRECTD81*
21,1,0.04331,0.00689,0,0,180.0*
21,1,0.03642,0.01378,0,0,180.0*
1,1,0.00689,-0.01821,0.00345*
1,1,0.00689,0.01821,0.00345*
1,1,0.00689,0.01821,-0.00345*
1,1,0.00689,-0.01821,-0.00345*
%
%ADD81ROUNDEDRECTD81*%
%ADD82R,0.00394X0.00394*%
G04:AMPARAMS|DCode=83|XSize=59.06mil|YSize=17.72mil|CornerRadius=1.77mil|HoleSize=0mil|Usage=FLASHONLY|Rotation=180.000|XOffset=0mil|YOffset=0mil|HoleType=Round|Shape=RoundedRectangle|*
%AMROUNDEDRECTD83*
21,1,0.05906,0.01417,0,0,180.0*
21,1,0.05551,0.01772,0,0,180.0*
1,1,0.00354,-0.02776,0.00709*
1,1,0.00354,0.02776,0.00709*
1,1,0.00354,0.02776,-0.00709*
1,1,0.00354,-0.02776,-0.00709*
%
%ADD83ROUNDEDRECTD83*%
G36*
X99082Y189550D02*
X100438Y189139D01*
X101687Y188471D01*
X102783Y187572D01*
X103134Y187144D01*
X103731Y186383D01*
X103779Y186298D01*
X104595Y185304D01*
X105589Y184488D01*
X106723Y183882D01*
X107954Y183509D01*
X109234Y183383D01*
X110513Y183509D01*
X111744Y183882D01*
X112878Y184488D01*
X113872Y185304D01*
X114688Y186298D01*
X114735Y186383D01*
X115334Y187144D01*
X115683Y187569D01*
X116779Y188469D01*
X118030Y189137D01*
X119388Y189549D01*
X120800Y189688D01*
X121748Y189595D01*
X121748Y189595D01*
Y189595D01*
X121762Y189606D01*
X126365Y188905D01*
X131978Y187700D01*
X136013Y186575D01*
X135925Y185562D01*
X135918Y185561D01*
X134108Y185012D01*
X132441Y184121D01*
X130979Y182921D01*
X129779Y181459D01*
X128888Y179791D01*
X128666Y179060D01*
X128212Y179039D01*
X127443Y179790D01*
Y180503D01*
X127561Y180786D01*
X127684Y181085D01*
Y181715D01*
X127443Y182297D01*
X126997Y182743D01*
X126415Y182984D01*
X125785D01*
X125203Y182743D01*
X124800Y182341D01*
X124397Y182743D01*
X123815Y182984D01*
X123185D01*
X122603Y182743D01*
X122100Y182343D01*
X121597Y182743D01*
X121015Y182984D01*
X120385D01*
X119803Y182743D01*
X119350Y182304D01*
X118897Y182743D01*
X118315Y182984D01*
X117685D01*
X117103Y182743D01*
X116700Y182341D01*
X116297Y182743D01*
X115715Y182984D01*
X115085D01*
X114503Y182743D01*
X114100Y182341D01*
X113697Y182743D01*
X113115Y182984D01*
X112485D01*
X111903Y182743D01*
X111457Y182297D01*
X111216Y181715D01*
Y181085D01*
X111457Y180503D01*
Y179597D01*
X111339Y179314D01*
X111216Y179015D01*
Y178385D01*
X111457Y177803D01*
X111857Y177300D01*
X111457Y176797D01*
X111216Y176215D01*
Y175585D01*
X111457Y175003D01*
Y174097D01*
X111339Y173814D01*
X111216Y173515D01*
Y172885D01*
X111457Y172303D01*
X111830Y171750D01*
X111457Y171197D01*
X111216Y170615D01*
Y169985D01*
X111457Y169403D01*
X111857Y168900D01*
X111457Y168397D01*
X111216Y167815D01*
Y167185D01*
X111457Y166603D01*
X111903Y166157D01*
X112485Y165916D01*
X113115D01*
X113697Y166157D01*
X114100Y166560D01*
X114503Y166157D01*
X115085Y165916D01*
X115715D01*
X116297Y166157D01*
X116700Y166560D01*
X117103Y166157D01*
X117685Y165916D01*
X118315D01*
X118897Y166157D01*
X119803D01*
X120086Y166039D01*
X120385Y165916D01*
X121015D01*
X121597Y166157D01*
X122100Y166557D01*
X122603Y166157D01*
X123185Y165916D01*
X123815D01*
X124397Y166157D01*
X124800Y166560D01*
X125203Y166157D01*
X125785Y165916D01*
X126415D01*
X126997Y166157D01*
X127443Y166603D01*
X127684Y167185D01*
Y167815D01*
X127443Y168397D01*
X127043Y168900D01*
X127443Y169403D01*
X127684Y169985D01*
Y170615D01*
X127443Y171197D01*
X127070Y171750D01*
X127443Y172303D01*
X127684Y172885D01*
Y172931D01*
X128684Y173080D01*
X128888Y172408D01*
X129779Y170741D01*
X130979Y169279D01*
X132441Y168079D01*
X134108Y167188D01*
X135918Y166639D01*
X137800Y166454D01*
X139682Y166639D01*
X141491Y167188D01*
X143159Y168079D01*
X144621Y169279D01*
X145821Y170741D01*
X146712Y172408D01*
X147261Y174218D01*
X147447Y176100D01*
X147261Y177982D01*
X146712Y179791D01*
X145821Y181459D01*
X145138Y182291D01*
X145752Y183119D01*
X148238Y182089D01*
X153400Y179576D01*
X158400Y176756D01*
X163221Y173639D01*
X167845Y170236D01*
X172255Y166561D01*
X176435Y162626D01*
X179055Y159843D01*
X178709Y159164D01*
X178523Y158949D01*
X176104D01*
X175690Y159949D01*
X175743Y160003D01*
X175984Y160585D01*
Y161215D01*
X175743Y161797D01*
X175297Y162243D01*
X174715Y162484D01*
X174085D01*
X173503Y162243D01*
X173057Y161797D01*
X172816Y161215D01*
Y160585D01*
X173057Y160003D01*
X173110Y159949D01*
X172696Y158949D01*
X146680D01*
X146629Y158949D01*
X146629Y158949D01*
X146510Y158900D01*
X146381Y158900D01*
X146381Y158900D01*
X146289Y158862D01*
X146289Y158862D01*
X146289Y158862D01*
X146198Y158771D01*
X146170Y158759D01*
X146158Y158731D01*
X146069Y158642D01*
X146041Y158630D01*
X146029Y158602D01*
X145938Y158511D01*
X145900Y158420D01*
X145900Y158419D01*
X145900Y158290D01*
X145851Y158171D01*
X145851Y158171D01*
X145851Y158049D01*
Y151680D01*
X145851Y151629D01*
X145851Y151629D01*
X145900Y151510D01*
X145900Y151381D01*
X145900Y151381D01*
X145938Y151289D01*
X145938Y151289D01*
X145938Y151289D01*
X146029Y151198D01*
X146041Y151170D01*
X146069Y151158D01*
X146158Y151069D01*
X146170Y151041D01*
X146198Y151029D01*
X146289Y150938D01*
X146380Y150900D01*
X146381Y150900D01*
X146510Y150900D01*
X146629Y150851D01*
X146629Y150850D01*
X146751Y150851D01*
X153771D01*
X153890Y150900D01*
X154019D01*
X154240Y150991D01*
X154331Y151083D01*
X154451Y151132D01*
X155169Y151850D01*
X155169Y151851D01*
X163449D01*
X164303Y150850D01*
X164263Y150604D01*
X164057Y150397D01*
X163816Y149815D01*
Y149185D01*
X164057Y148603D01*
X164503Y148157D01*
X165085Y147916D01*
X165715D01*
X166297Y148157D01*
X166723Y148582D01*
X173900D01*
X174251Y148652D01*
X174395Y148748D01*
X175424Y149008D01*
X175785Y148767D01*
X176211Y148682D01*
X177589D01*
X178015Y148767D01*
X178376Y149008D01*
X178618Y149369D01*
X178702Y149795D01*
Y150779D01*
X178622Y151182D01*
X178615Y151278D01*
X178728Y151859D01*
X178886Y152213D01*
X178978Y152329D01*
X179006Y152341D01*
X179055Y152460D01*
X179147Y152551D01*
X179200Y152681D01*
Y152810D01*
X179249Y152929D01*
Y158178D01*
X179568Y158423D01*
X180173Y158655D01*
X180370Y158446D01*
X184046Y154036D01*
X187448Y149412D01*
X190565Y144591D01*
X193385Y139591D01*
X195898Y134429D01*
X198095Y129125D01*
X199968Y123698D01*
X201510Y118168D01*
X202715Y112555D01*
X202783Y112108D01*
X202083Y111429D01*
X201887Y111349D01*
X200804D01*
X200537Y111756D01*
X200304Y112349D01*
X200484Y112785D01*
Y113415D01*
X200243Y113997D01*
X199797Y114443D01*
X199215Y114684D01*
X198585D01*
X198208Y114528D01*
X197853Y114665D01*
X197615Y114818D01*
X197284Y115139D01*
Y115515D01*
X197043Y116097D01*
X196597Y116543D01*
X196015Y116784D01*
X195385D01*
X194803Y116543D01*
X194357Y116097D01*
X194116Y115515D01*
Y114913D01*
X192851Y113649D01*
X192652Y113351D01*
X192193Y112635D01*
X190539D01*
Y115183D01*
X190539Y115183D01*
X190454Y115612D01*
X190210Y115976D01*
X190210Y115976D01*
X188793Y117393D01*
X188429Y117636D01*
X188000Y117722D01*
X188000Y117722D01*
X182719D01*
X182597Y117843D01*
X182015Y118084D01*
X181385D01*
X180803Y117843D01*
X180357Y117397D01*
X180116Y116815D01*
Y116185D01*
X180357Y115603D01*
X180803Y115157D01*
X181385Y114916D01*
X182015D01*
X182597Y115157D01*
X182919Y115478D01*
X187535D01*
X188296Y114718D01*
Y112635D01*
X186642D01*
X186338Y112575D01*
X186081Y112403D01*
X185910Y112146D01*
X185849Y111843D01*
Y110425D01*
X185910Y110122D01*
X186081Y109865D01*
X185910Y109587D01*
X185849Y109283D01*
Y107866D01*
X185910Y107563D01*
X186081Y107306D01*
Y107285D01*
X185910Y107028D01*
X185849Y106724D01*
Y105307D01*
X185910Y105004D01*
X185998Y104872D01*
X185994Y104859D01*
X185945Y104740D01*
X185854Y104648D01*
X185800Y104519D01*
Y104390D01*
X185751Y104271D01*
Y102629D01*
X185800Y102510D01*
X185800Y102381D01*
X185854Y102251D01*
X185836Y102049D01*
X185800Y101962D01*
Y101833D01*
X185786Y101800D01*
Y101800D01*
X185751Y101714D01*
Y100198D01*
X185750Y100086D01*
X185751Y100086D01*
X185800Y99967D01*
X185800Y99838D01*
X185891Y99746D01*
X185941Y99627D01*
X185999Y99603D01*
X186003Y99599D01*
X186027Y99541D01*
X186146Y99491D01*
X186151Y99486D01*
X186152Y99486D01*
X186238Y99400D01*
X186367Y99400D01*
X186486Y99351D01*
X186486Y99351D01*
X186598Y99351D01*
X192311D01*
X194210Y98142D01*
X194513Y97219D01*
X194508Y97027D01*
X194211Y96730D01*
X194211Y96730D01*
X192873Y95391D01*
X192873Y95391D01*
X192331Y94849D01*
X186580D01*
X186529Y94849D01*
X186529Y94849D01*
X186410Y94800D01*
X186281Y94800D01*
X186281Y94800D01*
X186189Y94762D01*
X186189Y94762D01*
X186189Y94762D01*
X186098Y94671D01*
X186070Y94659D01*
X186058Y94631D01*
X185969Y94542D01*
X185941Y94530D01*
X185929Y94502D01*
X185838Y94411D01*
X185800Y94319D01*
X185800Y94319D01*
X185800Y94190D01*
X185751Y94071D01*
X185750Y94071D01*
X185751Y93949D01*
Y92429D01*
X185800Y92310D01*
X185800Y92181D01*
X185854Y92051D01*
X185836Y91848D01*
X185800Y91762D01*
Y91633D01*
X185786Y91600D01*
Y91600D01*
X185751Y91514D01*
Y89898D01*
X185750Y89786D01*
X185751Y89786D01*
X185800Y89667D01*
X185800Y89538D01*
X185891Y89446D01*
X185941Y89327D01*
X185999Y89303D01*
X186003Y89299D01*
X186027Y89241D01*
X186146Y89191D01*
X186151Y89186D01*
X186152Y89186D01*
X186238Y89100D01*
X186367Y89100D01*
X186486Y89051D01*
X186486Y89051D01*
X186598Y89051D01*
X192092D01*
X192108Y89044D01*
X192135Y89003D01*
X192285Y88903D01*
X192385Y88753D01*
X192426Y88726D01*
X192475Y88606D01*
X193079Y88003D01*
X192607Y87121D01*
X192527Y87137D01*
X192462Y87124D01*
X192400Y87149D01*
X186580D01*
X186529Y87150D01*
X186529Y87149D01*
X186410Y87100D01*
X186281Y87100D01*
X186281Y87100D01*
X186189Y87062D01*
X186189Y87062D01*
X186189Y87062D01*
X186098Y86971D01*
X186070Y86959D01*
X186058Y86931D01*
X185969Y86842D01*
X185941Y86830D01*
X185929Y86802D01*
X185838Y86711D01*
X185800Y86620D01*
X185800Y86619D01*
X185800Y86490D01*
X185751Y86371D01*
X185750Y86371D01*
X185751Y86249D01*
Y84780D01*
X185750Y84729D01*
X185751Y84729D01*
X185800Y84610D01*
X185800Y84481D01*
X185800Y84481D01*
X185838Y84389D01*
X185838Y84389D01*
X185838Y84389D01*
X185929Y84298D01*
X185941Y84270D01*
X185969Y84258D01*
X186058Y84169D01*
X186070Y84141D01*
X186098Y84129D01*
X186189Y84038D01*
X186281Y84000D01*
X186281Y84000D01*
X186410Y84000D01*
X186529Y83951D01*
X186529Y83951D01*
X186651Y83951D01*
X192131D01*
X192275Y83807D01*
X192297Y83798D01*
X192307Y83775D01*
X196249Y79832D01*
X196369Y79783D01*
X196460Y79691D01*
X196681Y79600D01*
X196810D01*
X196929Y79550D01*
X200671Y79551D01*
X200790Y79600D01*
X200919D01*
X201140Y79691D01*
X201231Y79783D01*
X201351Y79832D01*
X202043Y80524D01*
X202146Y80515D01*
X202949Y79833D01*
X202715Y78293D01*
X201510Y72680D01*
X199968Y67150D01*
X198095Y61724D01*
X195898Y56420D01*
X193385Y51258D01*
X190565Y46258D01*
X187448Y41437D01*
X184046Y36813D01*
X180370Y32403D01*
X176435Y28223D01*
X172255Y24288D01*
X167845Y20612D01*
X163221Y17210D01*
X158400Y14093D01*
X153400Y11273D01*
X148238Y8760D01*
X146095Y7872D01*
X145481Y8700D01*
X145944Y9263D01*
X146835Y10931D01*
X147384Y12741D01*
X147569Y14623D01*
X147384Y16505D01*
X146835Y18314D01*
X145944Y19982D01*
X144744Y21444D01*
X143282Y22643D01*
X141614Y23535D01*
X139805Y24084D01*
X137923Y24269D01*
X136041Y24084D01*
X134231Y23535D01*
X134108Y23469D01*
X133902Y23540D01*
X133184Y24109D01*
Y24415D01*
X132943Y24997D01*
X132497Y25443D01*
X131915Y25684D01*
X131285D01*
X130703Y25443D01*
X130257Y24997D01*
X130016Y24415D01*
Y23785D01*
X130257Y23203D01*
X130703Y22757D01*
X130984Y22640D01*
X131235Y21756D01*
X131221Y21542D01*
X131102Y21444D01*
X129902Y19982D01*
X129011Y18314D01*
X128462Y16505D01*
X128276Y14623D01*
X128462Y12741D01*
X129011Y10931D01*
X129902Y9263D01*
X131102Y7802D01*
X132563Y6602D01*
X134231Y5711D01*
X135770Y5244D01*
X135776Y4207D01*
X131978Y3148D01*
X126365Y1943D01*
X122778Y1398D01*
X121790Y1259D01*
X120836Y1165D01*
X119427Y1304D01*
X118072Y1715D01*
X116823Y2383D01*
X115728Y3281D01*
X115352Y3739D01*
X114760Y4505D01*
X114694Y4613D01*
X113878Y5608D01*
X112883Y6424D01*
X111748Y7031D01*
X110516Y7405D01*
X109236Y7531D01*
X107955Y7405D01*
X106723Y7031D01*
X105588Y6424D01*
X104594Y5608D01*
X103777Y4613D01*
X103711Y4505D01*
X103119Y3740D01*
X102745Y3284D01*
X101649Y2385D01*
X100398Y1716D01*
X99041Y1304D01*
X97630Y1166D01*
X96677Y1259D01*
X95689Y1398D01*
X92110Y1942D01*
X86497Y3148D01*
X80966Y4689D01*
X75538Y6562D01*
X70234Y8759D01*
X65072Y11273D01*
X60071Y14093D01*
X55250Y17210D01*
X50625Y20613D01*
X46215Y24289D01*
X42034Y28224D01*
X38099Y32405D01*
X34423Y36815D01*
X31020Y41440D01*
X27903Y46261D01*
X26639Y48502D01*
X26639Y48503D01*
X26311Y49018D01*
X26098Y49278D01*
X26097Y49278D01*
X26066Y49317D01*
X25247Y50314D01*
X23951Y51378D01*
X22472Y52169D01*
X20867Y52655D01*
X19207Y52819D01*
X19206Y52791D01*
X9022D01*
X5677Y52794D01*
X4715Y52803D01*
D01*
X3770Y52936D01*
X2944Y53278D01*
X2209Y53842D01*
X1645Y54577D01*
X1302Y55405D01*
X1170Y56351D01*
D01*
X1163Y57313D01*
X1194Y134567D01*
X1201Y134567D01*
X1201Y134570D01*
X1322Y135489D01*
X1677Y136345D01*
X2241Y137080D01*
X2976Y137644D01*
X3832Y137998D01*
X4750Y138119D01*
X4756Y138118D01*
X4756Y138126D01*
X4757Y138127D01*
X19233Y138115D01*
X19233Y138087D01*
Y138086D01*
X19237Y138086D01*
X20903Y138250D01*
X22505Y138736D01*
X23981Y139525D01*
X25275Y140587D01*
X26092Y141583D01*
X26112Y141607D01*
X26112Y141607D01*
X26337Y141881D01*
X26666Y142399D01*
X26666Y142399D01*
X27898Y144583D01*
X31016Y149405D01*
X34419Y154030D01*
X38095Y158441D01*
X42031Y162622D01*
X46212Y166558D01*
X50623Y170234D01*
X55247Y173637D01*
X60069Y176754D01*
X65071Y179575D01*
X70233Y182089D01*
X75538Y184286D01*
X80966Y186159D01*
X86497Y187701D01*
X92111Y188906D01*
X95732Y189457D01*
X96720Y189595D01*
X97672Y189689D01*
X99082Y189550D01*
D02*
G37*
G36*
X178600Y158178D02*
Y152929D01*
X178547Y152800D01*
X174800D01*
X172500Y150500D01*
X166700D01*
X164700Y152500D01*
X154900D01*
X154710Y152310D01*
X154710Y152310D01*
X153991Y151591D01*
X153771Y151500D01*
X146629D01*
X146538Y151538D01*
X146500Y151629D01*
Y158171D01*
X146538Y158262D01*
X146629Y158300D01*
X178600D01*
Y158178D01*
D02*
G37*
G36*
X175752Y149702D02*
X175746Y149759D01*
X175727Y149810D01*
X175696Y149854D01*
X175652Y149893D01*
X175595Y149926D01*
X175526Y149952D01*
X175444Y149973D01*
X175349Y149988D01*
X175241Y149997D01*
X175121Y150000D01*
Y150600D01*
X175242Y150603D01*
X175350Y150612D01*
X175445Y150627D01*
X175528Y150648D01*
X175598Y150674D01*
X175655Y150707D01*
X175699Y150746D01*
X175731Y150791D01*
X175751Y150841D01*
X175757Y150898D01*
X175752Y149702D01*
D02*
G37*
G36*
X166178Y150115D02*
X166320Y149991D01*
X166386Y149940D01*
X166451Y149897D01*
X166512Y149862D01*
X166571Y149835D01*
X166627Y149816D01*
X166680Y149804D01*
X166731Y149800D01*
Y149200D01*
X166680Y149196D01*
X166627Y149184D01*
X166571Y149165D01*
X166512Y149138D01*
X166451Y149103D01*
X166386Y149060D01*
X166320Y149009D01*
X166178Y148885D01*
X166103Y148811D01*
Y150189D01*
X166178Y150115D01*
D02*
G37*
G36*
X182369Y117227D02*
X182411Y117200D01*
X182457Y117177D01*
X182507Y117157D01*
X182560Y117139D01*
X182616Y117125D01*
X182675Y117114D01*
X182738Y117106D01*
X182804Y117102D01*
X182874Y117100D01*
X182993Y116100D01*
X182924Y116098D01*
X182859Y116091D01*
X182798Y116081D01*
X182740Y116066D01*
X182686Y116047D01*
X182635Y116023D01*
X182588Y115995D01*
X182545Y115963D01*
X182505Y115927D01*
X182469Y115886D01*
X182329Y117257D01*
X182369Y117227D01*
D02*
G37*
G36*
X195690Y114216D02*
X195585Y114215D01*
X195397Y114203D01*
X195314Y114191D01*
X195238Y114176D01*
X195170Y114157D01*
X195109Y114135D01*
X195055Y114109D01*
X195010Y114080D01*
X194971Y114047D01*
X194547Y114471D01*
X194580Y114509D01*
X194609Y114556D01*
X194635Y114609D01*
X194658Y114670D01*
X194676Y114738D01*
X194691Y114814D01*
X194703Y114897D01*
X194715Y115085D01*
X194716Y115190D01*
X195690Y114216D01*
D02*
G37*
G36*
X198197Y112411D02*
X198122Y112485D01*
X197980Y112609D01*
X197914Y112660D01*
X197849Y112703D01*
X197788Y112738D01*
X197729Y112765D01*
X197673Y112784D01*
X197620Y112796D01*
X197569Y112800D01*
Y113400D01*
X197620Y113404D01*
X197673Y113416D01*
X197729Y113435D01*
X197788Y113462D01*
X197849Y113497D01*
X197914Y113540D01*
X197980Y113591D01*
X198122Y113715D01*
X198197Y113789D01*
Y112411D01*
D02*
G37*
G36*
X189922Y112829D02*
X189937Y112657D01*
X189962Y112505D01*
X189997Y112374D01*
X190042Y112262D01*
X190097Y112171D01*
X190162Y112100D01*
X190237Y112050D01*
X190322Y112019D01*
X190417Y112009D01*
X188417D01*
X188512Y112019D01*
X188597Y112050D01*
X188672Y112100D01*
X188737Y112171D01*
X188792Y112262D01*
X188837Y112374D01*
X188872Y112505D01*
X188897Y112657D01*
X188912Y112829D01*
X188917Y113021D01*
X189917D01*
X189922Y112829D01*
D02*
G37*
G36*
X193008Y109384D02*
X192861Y109232D01*
X192528Y108838D01*
X192455Y108727D01*
X192399Y108626D01*
X192361Y108535D01*
X192343Y108454D01*
X192342Y108384D01*
X192360Y108323D01*
X191814Y109450D01*
X191846Y109405D01*
X191890Y109378D01*
X191945Y109372D01*
X192012Y109385D01*
X192090Y109417D01*
X192179Y109469D01*
X192280Y109541D01*
X192391Y109632D01*
X192649Y109873D01*
X193008Y109384D01*
D02*
G37*
G36*
Y106884D02*
X192858Y106730D01*
X192522Y106331D01*
X192447Y106220D01*
X192392Y106119D01*
X192355Y106029D01*
X192338Y105950D01*
X192339Y105881D01*
X192360Y105823D01*
X191755Y106891D01*
X191790Y106848D01*
X191836Y106824D01*
X191894Y106820D01*
X191962Y106835D01*
X192041Y106869D01*
X192132Y106922D01*
X192233Y106994D01*
X192345Y107086D01*
X192603Y107327D01*
X193008Y106884D01*
D02*
G37*
G36*
X203176Y109524D02*
X203300Y108709D01*
Y105600D01*
X202300Y104600D01*
X196327D01*
X195925Y104374D01*
X195905Y104372D01*
X192430Y102500D01*
X186453D01*
X186400Y102629D01*
Y104271D01*
X186453Y104400D01*
X192569D01*
X197467Y110700D01*
X202000D01*
X203176Y109524D01*
D02*
G37*
G36*
X202600Y103800D02*
X203984Y102416D01*
X204098Y101163D01*
X204144Y99644D01*
X203100Y98600D01*
X194700D01*
X194558Y98690D01*
X194558Y98690D01*
X192660Y99898D01*
X192659Y99898D01*
X192500Y100000D01*
X186486D01*
X186462Y100058D01*
X186459Y100062D01*
X186400Y100086D01*
Y101585D01*
Y101714D01*
X186436Y101800D01*
Y101800D01*
D01*
X192500D01*
X196212Y103800D01*
X202600Y103800D01*
D02*
G37*
G36*
X204268Y95424D02*
X204156Y92856D01*
X203600Y92300D01*
X186453D01*
X186400Y92429D01*
Y94071D01*
X186438Y94162D01*
X186529Y94200D01*
X192600D01*
X193332Y94932D01*
X193332Y94932D01*
X193332Y94932D01*
X194671Y96271D01*
X195400Y97000D01*
X204200D01*
X204268Y95424D01*
D02*
G37*
G36*
X204134Y90866D02*
X204098Y89686D01*
X203899Y87499D01*
X203000Y86600D01*
X202619D01*
X202500Y86649D01*
X195351D01*
X192935Y89065D01*
X192925Y89114D01*
X192753Y89371D01*
X192496Y89543D01*
X192447Y89553D01*
X192300Y89700D01*
X186486D01*
X186462Y89758D01*
X186459Y89762D01*
X186400Y89786D01*
Y91385D01*
Y91514D01*
X186436Y91600D01*
Y91600D01*
D01*
X203400D01*
X204134Y90866D01*
D02*
G37*
G36*
X194900Y86000D02*
X202371D01*
X202371Y86000D01*
X202500D01*
X203300Y85200D01*
Y82700D01*
X201643Y81043D01*
X201643Y81043D01*
X200891Y80291D01*
X200671Y80200D01*
X196929Y80200D01*
X196709Y80291D01*
X192766Y84234D01*
X192753Y84253D01*
X192734Y84266D01*
X192400Y84600D01*
X186529D01*
X186438Y84638D01*
X186400Y84729D01*
Y86371D01*
X186438Y86462D01*
X186529Y86500D01*
X192400D01*
X194900Y86000D01*
D02*
G37*
%LPC*%
G36*
X98715Y155384D02*
X98085D01*
X97503Y155143D01*
X97057Y154697D01*
X96816Y154115D01*
Y153485D01*
X97057Y152903D01*
X97503Y152457D01*
X98085Y152216D01*
X98715D01*
X99297Y152457D01*
X99890Y152806D01*
X100458Y152432D01*
X101040Y152190D01*
X101670D01*
X102253Y152432D01*
X102698Y152877D01*
X102939Y153460D01*
Y154090D01*
X102698Y154672D01*
X102253Y155118D01*
X101670Y155359D01*
X101040D01*
X100458Y155118D01*
X99865Y154769D01*
X99297Y155143D01*
X98715Y155384D01*
D02*
G37*
G36*
X79215Y152284D02*
X78585D01*
X78003Y152043D01*
X77557Y151597D01*
X77316Y151015D01*
Y150731D01*
X76917Y150533D01*
X76316Y150425D01*
X75997Y150743D01*
X75415Y150984D01*
X74785D01*
X74203Y150743D01*
X73757Y150297D01*
X73516Y149715D01*
Y149085D01*
X73550Y149003D01*
X64123Y139577D01*
X63946Y139312D01*
X63884Y139000D01*
X63884Y139000D01*
Y121765D01*
X63315Y121384D01*
X62685D01*
X62103Y121143D01*
X61657Y120697D01*
X61416Y120115D01*
Y120115D01*
X61185Y119484D01*
X60603Y119243D01*
X60603Y119243D01*
X60502Y119142D01*
X60157Y118797D01*
X59916Y118215D01*
Y117585D01*
X60157Y117003D01*
X60603Y116557D01*
X60962Y116408D01*
Y115392D01*
X60603Y115243D01*
X60157Y114797D01*
X59916Y114215D01*
Y113585D01*
X60157Y113003D01*
X60603Y112557D01*
X60761Y112491D01*
Y111409D01*
X60603Y111343D01*
X60157Y110897D01*
X59916Y110315D01*
Y109685D01*
X60157Y109103D01*
X60603Y108657D01*
X60761Y108591D01*
Y107509D01*
X60603Y107443D01*
X60157Y106997D01*
X59916Y106415D01*
Y105785D01*
X60157Y105203D01*
X60603Y104757D01*
X61185Y104516D01*
X61815D01*
X62397Y104757D01*
X62843Y105203D01*
X62877Y105284D01*
X63700D01*
X63700Y105284D01*
X64012Y105346D01*
X64277Y105523D01*
X65685Y106931D01*
X66578Y106410D01*
X66281Y105347D01*
X66284Y105327D01*
X66273Y105309D01*
X65560Y101420D01*
X65564Y101400D01*
X65554Y101382D01*
X65196Y97444D01*
X65203Y97425D01*
X65195Y97405D01*
X65194Y93452D01*
X65202Y93432D01*
X65196Y93413D01*
X65553Y89475D01*
X65563Y89457D01*
X65558Y89437D01*
X66271Y85548D01*
X66282Y85530D01*
X66279Y85509D01*
X67340Y81701D01*
X67353Y81685D01*
X67352Y81664D01*
X68754Y77967D01*
X68768Y77952D01*
X68769Y77931D01*
X70499Y74376D01*
X70515Y74362D01*
X70518Y74341D01*
X72562Y70958D01*
X72579Y70945D01*
X72584Y70925D01*
X74926Y67740D01*
X74944Y67729D01*
X74951Y67709D01*
X77571Y64749D01*
X77590Y64740D01*
X77599Y64721D01*
X80476Y62011D01*
X80496Y62003D01*
X80506Y61985D01*
X83618Y59546D01*
X83637Y59540D01*
X83649Y59523D01*
X86969Y57375D01*
X86989Y57371D01*
X87002Y57355D01*
X90502Y55517D01*
X90523Y55515D01*
X90538Y55500D01*
X94190Y53986D01*
X94210Y53985D01*
X94226Y53972D01*
X98000Y52794D01*
X98021Y52796D01*
X98038Y52784D01*
X101903Y51952D01*
X101924Y51956D01*
X101942Y51946D01*
X105866Y51468D01*
X105886Y51473D01*
X105905Y51464D01*
X109857Y51343D01*
X109877Y51350D01*
X109896Y51344D01*
X113843Y51580D01*
X113862Y51589D01*
X113882Y51584D01*
X117791Y52177D01*
X117808Y52188D01*
X117829Y52184D01*
X121668Y53128D01*
X121685Y53140D01*
X121706Y53139D01*
X125444Y54426D01*
X125460Y54440D01*
X125480Y54441D01*
X129087Y56061D01*
X129101Y56076D01*
X129122Y56079D01*
X132566Y58018D01*
X132579Y58035D01*
X132600Y58039D01*
X135855Y60283D01*
X135866Y60300D01*
X135886Y60307D01*
X138925Y62835D01*
X138935Y62854D01*
X138954Y62862D01*
X141752Y65655D01*
X141760Y65674D01*
X141778Y65684D01*
X144312Y68719D01*
X144318Y68739D01*
X144335Y68750D01*
X146584Y72002D01*
X146588Y72022D01*
X146605Y72035D01*
X148550Y75477D01*
X148552Y75498D01*
X148567Y75512D01*
X149380Y77314D01*
Y77314D01*
X149380Y77314D01*
X149660Y77935D01*
X149661Y77973D01*
X149684Y78003D01*
X150030Y79320D01*
X150025Y79357D01*
X150043Y79391D01*
X150166Y80747D01*
X150155Y80783D01*
X150167Y80818D01*
X150065Y82176D01*
X150048Y82210D01*
X150054Y82247D01*
X149728Y83570D01*
X149706Y83600D01*
X149705Y83638D01*
X149166Y84888D01*
X149138Y84914D01*
X149132Y84951D01*
X148393Y86095D01*
X148362Y86116D01*
X148349Y86152D01*
X147431Y87158D01*
X147397Y87174D01*
X147378Y87207D01*
X146307Y88047D01*
X146270Y88057D01*
X146247Y88086D01*
X145051Y88737D01*
X145013Y88741D01*
X144985Y88766D01*
X143698Y89211D01*
X143660Y89209D01*
X143628Y89229D01*
X142285Y89454D01*
X142249Y89446D01*
X142214Y89460D01*
X141533Y89461D01*
X141533Y89461D01*
X141533Y89461D01*
X135924Y89461D01*
X135547Y89769D01*
X135058Y90461D01*
Y92432D01*
X134962Y92916D01*
X134763Y93213D01*
X134688Y93335D01*
Y94265D01*
X134763Y94387D01*
X134962Y94684D01*
X135058Y95168D01*
Y97432D01*
X135406Y97856D01*
X144691D01*
X147498Y95048D01*
X147510Y94916D01*
X147205Y93927D01*
X147003Y93843D01*
X146557Y93397D01*
X146316Y92815D01*
Y92185D01*
X146557Y91603D01*
X147003Y91157D01*
X147585Y90916D01*
X148215Y90815D01*
X148216Y90185D01*
X148457Y89603D01*
X148903Y89157D01*
X149485Y88916D01*
X150016Y88285D01*
X150257Y87703D01*
X150703Y87257D01*
X151285Y87016D01*
X151915D01*
X152584Y86211D01*
Y73369D01*
X108131Y28916D01*
X100938D01*
X100680Y29629D01*
X100656Y29916D01*
X101043Y30303D01*
X101284Y30885D01*
Y31515D01*
X101043Y32097D01*
X100597Y32543D01*
X100015Y32784D01*
X99385D01*
X99360Y32774D01*
X98636Y32730D01*
X98153Y33274D01*
X98143Y33297D01*
X97697Y33743D01*
X97115Y33984D01*
X96514Y34527D01*
Y35157D01*
X96273Y35740D01*
X95827Y36185D01*
X95245Y36426D01*
X94615D01*
X94032Y36185D01*
X93587Y35740D01*
X93345Y35157D01*
Y34738D01*
X93296Y34705D01*
X92666D01*
X92084Y34464D01*
X91638Y34018D01*
X91397Y33436D01*
Y32806D01*
X91638Y32223D01*
X92084Y31778D01*
X92666Y31537D01*
X93296D01*
X93879Y31778D01*
X94216Y32115D01*
X94720Y32100D01*
X95283Y31924D01*
X95457Y31503D01*
X95903Y31057D01*
X96485Y30816D01*
X97115D01*
X97140Y30826D01*
X97864Y30870D01*
X98347Y30326D01*
X98357Y30303D01*
X98744Y29916D01*
X98720Y29629D01*
X98462Y28916D01*
X74613D01*
X39651Y63877D01*
X40034Y64801D01*
X41273D01*
X41622Y64871D01*
X41919Y65069D01*
X42117Y65365D01*
X42900Y65784D01*
X43212Y65846D01*
X43477Y66023D01*
X44477Y67023D01*
X44477Y67023D01*
X44654Y67288D01*
X44716Y67600D01*
Y70123D01*
X44797Y70157D01*
X45243Y70603D01*
X45484Y71185D01*
Y71815D01*
X45243Y72397D01*
X44797Y72843D01*
X44215Y73084D01*
X43585D01*
X43003Y72843D01*
X42557Y72397D01*
X42316Y71815D01*
Y71185D01*
X42557Y70603D01*
X43003Y70157D01*
X43084Y70123D01*
Y68912D01*
X42084Y68097D01*
X41919Y68131D01*
X41622Y68329D01*
X41273Y68399D01*
X37927D01*
X37578Y68329D01*
X37281Y68131D01*
X36296Y68457D01*
X35816Y68938D01*
Y85200D01*
X35754Y85512D01*
X35577Y85777D01*
X35577Y85777D01*
X34769Y86584D01*
X35183Y87584D01*
X36462D01*
X38784Y85262D01*
Y82499D01*
X37900D01*
X37551Y82429D01*
X37255Y82231D01*
X37057Y81935D01*
X36987Y81586D01*
Y79814D01*
X37057Y79465D01*
X37255Y79169D01*
X37551Y78971D01*
X38223Y78315D01*
Y77685D01*
X38464Y77103D01*
X38910Y76657D01*
X39492Y76416D01*
X40122D01*
X40704Y76657D01*
X41150Y77103D01*
X41391Y77685D01*
Y78315D01*
X41596Y78971D01*
X41892Y79169D01*
X42090Y79465D01*
X42159Y79814D01*
Y81586D01*
X42090Y81935D01*
X41892Y82231D01*
X41596Y82429D01*
X41246Y82499D01*
X40416D01*
Y85600D01*
X40416Y85600D01*
X40354Y85912D01*
X40177Y86177D01*
X40177Y86177D01*
X37377Y88977D01*
X37112Y89154D01*
X36800Y89216D01*
X36800Y89216D01*
X34648D01*
X33813Y89874D01*
Y91646D01*
X33743Y91995D01*
X33545Y92291D01*
X33249Y92489D01*
X32900Y92558D01*
X29554D01*
X29204Y92489D01*
X28908Y92291D01*
X28710Y91995D01*
X28641Y91646D01*
Y91616D01*
X28000D01*
X27688Y91554D01*
X27481Y91416D01*
X26277D01*
X26243Y91497D01*
X25797Y91943D01*
X25666Y92921D01*
X26366Y93684D01*
X36987D01*
Y93614D01*
X37057Y93265D01*
X37255Y92969D01*
X37551Y92771D01*
X38223Y92615D01*
Y91985D01*
X38464Y91403D01*
X38910Y90957D01*
X39492Y90716D01*
X40122D01*
X40704Y90957D01*
X41150Y91403D01*
X41391Y91985D01*
Y92615D01*
X41460Y92744D01*
X41596Y92771D01*
X41892Y92969D01*
X42090Y93265D01*
X42159Y93614D01*
Y95386D01*
X42090Y95735D01*
X41892Y96031D01*
X41596Y96229D01*
X41246Y96299D01*
X37900D01*
X37551Y96229D01*
X37255Y96031D01*
X37057Y95735D01*
X36987Y95386D01*
Y95316D01*
X25900D01*
X25900Y95316D01*
X25588Y95254D01*
X25323Y95077D01*
X23814Y93568D01*
X22688Y93526D01*
X22278Y93800D01*
X21794Y93896D01*
X20515D01*
X20031Y93800D01*
X19621Y93526D01*
X19347Y93116D01*
X19251Y92632D01*
Y90368D01*
X19347Y89884D01*
X19621Y89474D01*
X20031Y89200D01*
X20515Y89104D01*
X21794D01*
X22278Y89200D01*
X22489Y89032D01*
X22632Y88031D01*
X22291Y87691D01*
X22278Y87700D01*
X21794Y87796D01*
X20515D01*
X20031Y87700D01*
X19621Y87426D01*
X19347Y87016D01*
X19251Y86532D01*
Y84703D01*
X18789Y84109D01*
X18103Y84109D01*
X17349Y84918D01*
Y86532D01*
X17253Y87016D01*
X16979Y87426D01*
X16669Y87633D01*
Y89267D01*
X16979Y89474D01*
X17253Y89884D01*
X17349Y90368D01*
Y92632D01*
X17253Y93116D01*
X16979Y93526D01*
X16669Y93733D01*
Y95267D01*
X16979Y95474D01*
X17253Y95884D01*
X17349Y96368D01*
Y97379D01*
X18185Y98116D01*
X18815D01*
X19251Y97825D01*
Y96368D01*
X19347Y95884D01*
X19621Y95474D01*
X20031Y95200D01*
X20515Y95104D01*
X21794D01*
X22278Y95200D01*
X22688Y95474D01*
X22962Y95884D01*
X23058Y96368D01*
Y97287D01*
X24058Y97701D01*
X24203Y97557D01*
X24785Y97316D01*
X25415D01*
X25997Y97557D01*
X26443Y98003D01*
X27279Y97642D01*
X27351Y97604D01*
X27588Y97446D01*
X27900Y97384D01*
X28710Y97005D01*
X28908Y96709D01*
X29204Y96511D01*
X29554Y96442D01*
X32900D01*
X33249Y96511D01*
X33545Y96709D01*
X33743Y97005D01*
X33813Y97354D01*
Y99126D01*
X33743Y99475D01*
X33545Y99771D01*
X33249Y99969D01*
X32900Y100039D01*
X29554D01*
X29204Y99969D01*
X28908Y99771D01*
X28903Y99764D01*
X27929Y99516D01*
X27701Y99527D01*
X27512Y99654D01*
X27200Y99716D01*
X27200Y99716D01*
X26477D01*
X26443Y99797D01*
X25997Y100243D01*
X25415Y100484D01*
X24785D01*
X24203Y100243D01*
X23757Y99797D01*
X22815Y99573D01*
X21970Y99948D01*
Y103614D01*
X22492Y104017D01*
X23576Y103699D01*
X23657Y103503D01*
X24103Y103057D01*
X24685Y102816D01*
X25315D01*
X25897Y103057D01*
X26343Y103503D01*
X26377Y103584D01*
X27600D01*
X27600Y103584D01*
X27702Y103604D01*
X28538Y103540D01*
X28935Y103228D01*
X29231Y103031D01*
X29580Y102961D01*
X32927D01*
X33276Y103031D01*
X33572Y103229D01*
X33770Y103525D01*
X33840Y103874D01*
Y105646D01*
X33770Y105995D01*
X33572Y106291D01*
X33276Y106489D01*
X32927Y106559D01*
X29580D01*
X29231Y106489D01*
X28935Y106291D01*
X28737Y105995D01*
X28000Y105616D01*
X27688Y105554D01*
X27423Y105377D01*
X27423Y105377D01*
X27301Y105254D01*
X26343Y105297D01*
X25897Y105743D01*
X25315Y105984D01*
X24938Y106984D01*
X25638Y107684D01*
X37014D01*
Y107614D01*
X37083Y107265D01*
X37281Y106969D01*
X37577Y106771D01*
X38223Y106015D01*
Y105385D01*
X38464Y104803D01*
X38910Y104357D01*
X39492Y104116D01*
X40122D01*
X40704Y104357D01*
X41150Y104803D01*
X41294Y105151D01*
X41887Y105481D01*
X42391Y105579D01*
X42785Y105416D01*
X43415D01*
X43997Y105657D01*
X44443Y106103D01*
X44684Y106685D01*
X44773Y107327D01*
X45415Y107416D01*
X45997Y107657D01*
X46443Y108103D01*
X46684Y108685D01*
Y109315D01*
X46443Y109897D01*
X45997Y110343D01*
X45415Y110584D01*
X45308D01*
X44752Y110645D01*
X44384Y111315D01*
X44143Y111897D01*
X43697Y112343D01*
X43115Y112584D01*
X42485D01*
X41903Y112343D01*
X41457Y111897D01*
X41216Y111315D01*
Y110685D01*
X40293Y110299D01*
X37927D01*
X37578Y110229D01*
X37281Y110031D01*
X37083Y109735D01*
X37014Y109386D01*
Y109316D01*
X25812D01*
X25076Y110096D01*
X25112Y110980D01*
X25670Y111384D01*
X28668D01*
Y111354D01*
X28737Y111005D01*
X28935Y110709D01*
X29231Y110511D01*
X29580Y110442D01*
X32927D01*
X33276Y110511D01*
X33572Y110709D01*
X33770Y111005D01*
X33840Y111354D01*
Y113126D01*
X33770Y113475D01*
X33572Y113771D01*
X33276Y113969D01*
X32927Y114039D01*
X29580D01*
X29231Y113969D01*
X28935Y113771D01*
X28737Y113475D01*
X28668Y113126D01*
Y113016D01*
X25000D01*
X24688Y112954D01*
X24423Y112777D01*
X24423Y112777D01*
X23697Y112050D01*
X23615Y112084D01*
X22985D01*
X22403Y111843D01*
X21957Y111397D01*
X21716Y110815D01*
Y110185D01*
X21957Y109603D01*
X22403Y109157D01*
X22985Y108916D01*
X23148D01*
X23562Y107916D01*
X21019Y105373D01*
X20988Y105367D01*
X19898Y105666D01*
X19843Y105797D01*
X19397Y106243D01*
X18815Y106484D01*
X18185D01*
X17603Y106243D01*
X17157Y105797D01*
X16916Y105215D01*
Y104585D01*
X17157Y104003D01*
X17560Y103600D01*
X17157Y103197D01*
X16916Y102615D01*
Y101985D01*
X17157Y101403D01*
X17560Y101000D01*
X17157Y100597D01*
X16706Y99985D01*
X16085Y99896D01*
X14806D01*
X14322Y99800D01*
X13912Y99526D01*
X13638Y99116D01*
X13542Y98632D01*
Y96368D01*
X13638Y95884D01*
X13912Y95474D01*
X14222Y95267D01*
Y93733D01*
X13912Y93526D01*
X13638Y93116D01*
X13542Y92632D01*
Y90368D01*
X13638Y89884D01*
X13912Y89474D01*
X14222Y89267D01*
Y87633D01*
X13912Y87426D01*
X13638Y87016D01*
X13542Y86532D01*
Y84268D01*
X13638Y83784D01*
X13912Y83374D01*
X14222Y83167D01*
Y83113D01*
X14016Y82615D01*
Y81985D01*
X14207Y81523D01*
X13912Y81326D01*
X13638Y80916D01*
X13542Y80432D01*
Y78168D01*
X13638Y77684D01*
X13658Y77654D01*
X13395Y76609D01*
X13315Y76505D01*
X13009Y76412D01*
X11341Y75521D01*
X9879Y74321D01*
X8679Y72859D01*
X7788Y71192D01*
X7239Y69382D01*
X7053Y67500D01*
X7239Y65618D01*
X7788Y63809D01*
X8679Y62141D01*
X9879Y60679D01*
X11341Y59479D01*
X13009Y58588D01*
X14818Y58039D01*
X16700Y57854D01*
X18582Y58039D01*
X20391Y58588D01*
X22059Y59479D01*
X23521Y60679D01*
X24721Y62141D01*
X25612Y63809D01*
X26069Y65316D01*
X26084Y65327D01*
X26882Y65593D01*
X27163Y65584D01*
X28223Y64523D01*
X28737Y64095D01*
X28668Y63746D01*
X28668Y63746D01*
X28668Y63369D01*
Y61974D01*
X28737Y61625D01*
X28935Y61329D01*
X29041Y61258D01*
X28816Y60715D01*
Y60085D01*
X29057Y59503D01*
X29503Y59057D01*
X30085Y58816D01*
X30715D01*
X31297Y59057D01*
X31743Y59503D01*
X31984Y60085D01*
Y60715D01*
X32908Y61061D01*
X32927D01*
X33276Y61131D01*
X33572Y61329D01*
X33770Y61625D01*
X33840Y61974D01*
Y63746D01*
X34752Y64284D01*
X35262D01*
X72923Y26623D01*
X72923Y26623D01*
X73188Y26446D01*
X73500Y26384D01*
X108700D01*
X108700Y26384D01*
X109012Y26446D01*
X109277Y26623D01*
X154877Y72223D01*
X154877Y72223D01*
X155054Y72488D01*
X155116Y72800D01*
X155116Y72800D01*
Y77735D01*
X155685Y78116D01*
X156315D01*
X156897Y78357D01*
X157343Y78803D01*
X157584Y79385D01*
Y80015D01*
X157343Y80597D01*
X156897Y81043D01*
X156315Y81284D01*
X155685D01*
X155116Y81665D01*
Y90800D01*
X155116Y90800D01*
X155054Y91112D01*
X154877Y91377D01*
X146205Y100048D01*
X145940Y100225D01*
X145628Y100287D01*
X145628Y100287D01*
X127996D01*
X127934Y100378D01*
X127980Y100648D01*
X128462Y101378D01*
X141537D01*
X141537Y101378D01*
X141537Y101378D01*
X142218Y101378D01*
X142253Y101393D01*
X142289Y101384D01*
X143632Y101610D01*
X143664Y101630D01*
X143702Y101628D01*
X144989Y102072D01*
X145017Y102097D01*
X145055Y102101D01*
X146250Y102752D01*
X146274Y102782D01*
X146311Y102792D01*
X147382Y103632D01*
X147401Y103665D01*
X147435Y103681D01*
X148353Y104687D01*
X148366Y104722D01*
X148397Y104744D01*
X149136Y105887D01*
X149284Y105915D01*
X150284Y105102D01*
Y104600D01*
X150284Y104600D01*
X150346Y104288D01*
X150523Y104023D01*
X156785Y97762D01*
X157049Y97585D01*
X157361Y97523D01*
X157361Y97523D01*
X160168D01*
X160657Y96597D01*
X160416Y96015D01*
Y95385D01*
X160657Y94803D01*
X161103Y94357D01*
X161685Y94116D01*
X162315D01*
X162897Y94357D01*
X163069Y94528D01*
X163247Y94511D01*
X163504Y94339D01*
X163807Y94279D01*
X169358D01*
X169661Y94339D01*
X169919Y94511D01*
X170090Y94768D01*
X170151Y95071D01*
Y96488D01*
X170090Y96791D01*
X169919Y97070D01*
X170090Y97327D01*
X170151Y97630D01*
Y99047D01*
X170090Y99351D01*
X169925Y99618D01*
X170090Y99886D01*
X170151Y100189D01*
Y101606D01*
X170090Y101909D01*
X169919Y102188D01*
X170090Y102445D01*
X170151Y102748D01*
Y104165D01*
X170090Y104469D01*
X169919Y104726D01*
X170090Y105004D01*
X170151Y105307D01*
Y106724D01*
X170090Y107028D01*
X169919Y107306D01*
X170090Y107563D01*
X170151Y107866D01*
Y109283D01*
X170090Y109587D01*
X169919Y109844D01*
X169661Y110015D01*
X169358Y110076D01*
X163807D01*
X163504Y110015D01*
X163247Y109844D01*
X163075Y109587D01*
X163036Y109390D01*
X155563D01*
X153816Y111138D01*
Y119100D01*
X153754Y119412D01*
X153577Y119677D01*
X153577Y119677D01*
X130377Y142877D01*
X130112Y143054D01*
X129800Y143116D01*
X129800Y143116D01*
X104838D01*
X104077Y143877D01*
X103812Y144054D01*
X103500Y144116D01*
X103500Y144116D01*
X102877D01*
X102843Y144197D01*
X102397Y144643D01*
X101818Y144883D01*
X101815Y144884D01*
X101067Y145425D01*
X100984Y145808D01*
Y146115D01*
X100743Y146697D01*
X100297Y147143D01*
X99715Y147384D01*
X99085D01*
X98503Y147143D01*
X98057Y146697D01*
X97911Y146344D01*
X97073Y146012D01*
X96816Y145977D01*
X96315Y146184D01*
X95685D01*
X95103Y145943D01*
X94657Y145497D01*
X94416Y144915D01*
Y144285D01*
X94200Y143444D01*
X93847Y143244D01*
X93603Y143143D01*
X93157Y142697D01*
X92916Y142115D01*
Y141485D01*
X93157Y140903D01*
X93603Y140457D01*
X94185Y140216D01*
X94815D01*
X95397Y140457D01*
X95843Y140903D01*
X96597Y140350D01*
X96923Y140023D01*
X96923Y140023D01*
X97188Y139846D01*
X97500Y139784D01*
X97500Y139784D01*
X101285D01*
X101391Y138784D01*
X98048Y138066D01*
X98031Y138054D01*
X98010Y138056D01*
X94236Y136879D01*
X94220Y136865D01*
X94199D01*
X90547Y135352D01*
X90532Y135337D01*
X90511Y135335D01*
X87011Y133497D01*
X86997Y133481D01*
X86977Y133477D01*
X83657Y131330D01*
X83645Y131313D01*
X83625Y131307D01*
X80514Y128869D01*
X80503Y128850D01*
X80484Y128843D01*
X77605Y126133D01*
X77597Y126114D01*
X77578Y126105D01*
X74957Y123145D01*
X74950Y123126D01*
X74932Y123115D01*
X72589Y119930D01*
X72584Y119910D01*
X72567Y119898D01*
X70522Y116514D01*
X70519Y116494D01*
X70504Y116480D01*
X69016Y113424D01*
X68016Y113654D01*
Y132562D01*
X81977Y146523D01*
X81977Y146523D01*
X82154Y146788D01*
X82216Y147100D01*
Y148223D01*
X82297Y148257D01*
X82743Y148703D01*
X82984Y149285D01*
Y149915D01*
X82743Y150497D01*
X82297Y150943D01*
X81715Y151184D01*
X81085D01*
X80484Y151015D01*
X80243Y151597D01*
X79797Y152043D01*
X79215Y152284D01*
D02*
G37*
G36*
X90315Y156084D02*
X89685D01*
X89103Y155843D01*
X88657Y155397D01*
X88416Y154815D01*
Y154185D01*
X88657Y153603D01*
X89103Y153157D01*
X89395Y153036D01*
X89685Y152916D01*
X89685Y152916D01*
X89732Y152876D01*
X89660Y151767D01*
X89603Y151743D01*
X89603Y151743D01*
X89563Y151704D01*
X89157Y151297D01*
X88916Y150715D01*
Y150085D01*
X89157Y149503D01*
X89603Y149057D01*
X90185Y148816D01*
X90815D01*
X91397Y149057D01*
X91843Y149503D01*
X92084Y150085D01*
Y150715D01*
X91843Y151297D01*
X91397Y151743D01*
X91105Y151864D01*
X90815Y151984D01*
X90815Y151984D01*
X90768Y152024D01*
X90840Y153133D01*
X90897Y153157D01*
X90897Y153157D01*
X90937Y153196D01*
X91343Y153603D01*
X91584Y154185D01*
Y154815D01*
X91343Y155397D01*
X90897Y155843D01*
X90315Y156084D01*
D02*
G37*
G36*
X169315Y141684D02*
X168685D01*
X168103Y141443D01*
X167657Y140997D01*
X167416Y140415D01*
Y139785D01*
X167657Y139203D01*
X168103Y138757D01*
X168685Y138516D01*
X169315D01*
X169897Y138757D01*
X170343Y139203D01*
X170584Y139785D01*
Y140415D01*
X170343Y140997D01*
X169897Y141443D01*
X169315Y141684D01*
D02*
G37*
G36*
X168515Y135884D02*
X167885D01*
X167303Y135643D01*
X166900Y135240D01*
X166497Y135643D01*
X165915Y135884D01*
X165285D01*
X164703Y135643D01*
X164200Y135243D01*
X163697Y135643D01*
X163115Y135884D01*
X162485D01*
X161903Y135643D01*
X160997D01*
X160714Y135761D01*
X160415Y135884D01*
X159785D01*
X159203Y135643D01*
X158800Y135240D01*
X158397Y135643D01*
X157815Y135884D01*
X157185D01*
X156603Y135643D01*
X156200Y135240D01*
X155797Y135643D01*
X155215Y135884D01*
X154585D01*
X154003Y135643D01*
X153557Y135197D01*
X153316Y134615D01*
Y133985D01*
X153557Y133403D01*
Y132497D01*
X153439Y132214D01*
X153316Y131915D01*
Y131285D01*
X153557Y130703D01*
X153957Y130200D01*
X153557Y129697D01*
X153316Y129115D01*
Y128485D01*
X153557Y127903D01*
X154003Y127457D01*
X154585Y127216D01*
X155215D01*
X155797Y127457D01*
X156200Y127859D01*
X156603Y127457D01*
X157185Y127216D01*
X157815D01*
X158397Y127457D01*
X158800Y127859D01*
X159203Y127457D01*
X159785Y127216D01*
X160415D01*
X160997Y127457D01*
X161903D01*
X162186Y127339D01*
X162485Y127216D01*
X163115D01*
X163697Y127457D01*
X164200Y127857D01*
X164703Y127457D01*
X165285Y127216D01*
X165915D01*
X166497Y127457D01*
X166900Y127859D01*
X167303Y127457D01*
X167885Y127216D01*
X168515D01*
X169097Y127457D01*
X169543Y127903D01*
X169784Y128485D01*
Y129115D01*
X169543Y129697D01*
X169143Y130200D01*
X169543Y130703D01*
X169784Y131285D01*
Y131915D01*
X169543Y132497D01*
Y133403D01*
X169661Y133686D01*
X169784Y133985D01*
Y134615D01*
X169543Y135197D01*
X169097Y135643D01*
X168515Y135884D01*
D02*
G37*
G36*
X180115Y132484D02*
X179485D01*
X178903Y132243D01*
X178457Y131797D01*
X178216Y131215D01*
Y130585D01*
X178457Y130003D01*
X178903Y129557D01*
X179485Y129316D01*
X180115D01*
X180697Y129557D01*
X181143Y130003D01*
X181384Y130585D01*
Y131215D01*
X181143Y131797D01*
X180697Y132243D01*
X180115Y132484D01*
D02*
G37*
G36*
Y125984D02*
X179485D01*
X178903Y125743D01*
X178457Y125297D01*
X178216Y124715D01*
Y124085D01*
X178457Y123503D01*
X178903Y123057D01*
X179485Y122816D01*
X180115D01*
X180697Y123057D01*
X181143Y123503D01*
X181384Y124085D01*
Y124715D01*
X181143Y125297D01*
X180697Y125743D01*
X180115Y125984D01*
D02*
G37*
G36*
X176915Y117784D02*
X176285D01*
X175703Y117543D01*
X175257Y117097D01*
X175016Y116515D01*
Y115885D01*
X175257Y115303D01*
X175703Y114857D01*
X176285Y114616D01*
X176915D01*
X177497Y114857D01*
X177943Y115303D01*
X178184Y115885D01*
Y116515D01*
X177943Y117097D01*
X177497Y117543D01*
X176915Y117784D01*
D02*
G37*
G36*
X62015Y100284D02*
X61385D01*
X60803Y100043D01*
X60357Y99597D01*
X60116Y99015D01*
Y98385D01*
X60357Y97803D01*
X60710Y97450D01*
X60357Y97097D01*
X60116Y96515D01*
Y95885D01*
X60357Y95303D01*
X60710Y94950D01*
X60357Y94597D01*
X60116Y94015D01*
Y93385D01*
X60357Y92803D01*
X60803Y92357D01*
X61385Y92116D01*
X62015D01*
X62597Y92357D01*
X63043Y92803D01*
X63284Y93385D01*
Y94015D01*
X63043Y94597D01*
X62691Y94950D01*
X63043Y95303D01*
X63284Y95885D01*
Y96515D01*
X63043Y97097D01*
X62691Y97450D01*
X63043Y97803D01*
X63284Y98385D01*
Y99015D01*
X63043Y99597D01*
X62597Y100043D01*
X62015Y100284D01*
D02*
G37*
G36*
X51315Y102784D02*
X50685D01*
X50103Y102543D01*
X49657Y102097D01*
X49416Y101515D01*
Y100885D01*
X49657Y100303D01*
X50103Y99857D01*
X50685Y99616D01*
X51315D01*
X51397Y99650D01*
X54384Y96662D01*
Y92570D01*
X54090Y92336D01*
X53384Y92031D01*
X53015Y92184D01*
X52385D01*
X51803Y91943D01*
X51357Y91497D01*
X51116Y90915D01*
Y90285D01*
X51212Y90054D01*
X51250Y89550D01*
X50773Y88872D01*
X50703Y88843D01*
X50257Y88397D01*
X50016Y87815D01*
Y87185D01*
X50257Y86603D01*
X50703Y86157D01*
X51285Y85916D01*
X51915D01*
X52487Y85070D01*
X52557Y84903D01*
X53003Y84457D01*
X53585Y84216D01*
X54215D01*
X54797Y84457D01*
X55243Y84903D01*
X56331Y84916D01*
X57584Y83662D01*
Y71263D01*
X56834Y70701D01*
X56616Y70643D01*
X56515Y70684D01*
X55885D01*
X55303Y70443D01*
X54857Y69997D01*
X54616Y69415D01*
Y68785D01*
X54857Y68203D01*
X55303Y67757D01*
X55885Y67516D01*
X56515D01*
X57097Y67757D01*
X57543Y68203D01*
X57784Y68785D01*
Y68948D01*
X58784Y69362D01*
X63338Y64808D01*
X63176Y64344D01*
X62848Y63884D01*
X62385D01*
X61803Y63643D01*
X61357Y63197D01*
X61116Y62615D01*
Y61985D01*
X61357Y61403D01*
X61803Y60957D01*
X61884Y60923D01*
Y57236D01*
X61884Y57236D01*
X61946Y56924D01*
X62123Y56660D01*
X82354Y36428D01*
X82321Y36347D01*
Y35717D01*
X82562Y35134D01*
X83007Y34689D01*
X83590Y34447D01*
X84220D01*
X84802Y34689D01*
X85248Y35134D01*
X85489Y35717D01*
Y36347D01*
X85248Y36929D01*
X84802Y37375D01*
X84220Y37616D01*
X83590D01*
X83508Y37582D01*
X63516Y57574D01*
Y60923D01*
X63597Y60957D01*
X64043Y61403D01*
X64284Y61985D01*
Y62448D01*
X64744Y62776D01*
X65208Y62938D01*
X75950Y52197D01*
X75916Y52115D01*
Y51485D01*
X76157Y50903D01*
X76603Y50457D01*
X77185Y50216D01*
X77815Y50215D01*
X77916Y49585D01*
X78157Y49003D01*
X78603Y48557D01*
X79185Y48316D01*
X79815D01*
X80397Y48557D01*
X80843Y49003D01*
X81084Y49585D01*
Y50215D01*
X80843Y50797D01*
X80548Y51093D01*
X80599Y51747D01*
X80782Y51878D01*
X81660Y52086D01*
X87250Y46497D01*
X87216Y46415D01*
Y45785D01*
X87457Y45203D01*
X87903Y44757D01*
X88485Y44516D01*
X89115D01*
X89697Y44757D01*
X90143Y45203D01*
X90384Y45785D01*
Y46415D01*
X90143Y46997D01*
X89697Y47443D01*
X89115Y47684D01*
X88485D01*
X88403Y47650D01*
X61088Y74965D01*
X61090Y76124D01*
X61585Y76616D01*
X62215D01*
X62797Y76857D01*
X63243Y77303D01*
X63484Y77885D01*
Y78515D01*
X63243Y79097D01*
X62941Y79400D01*
X63243Y79703D01*
X63484Y80285D01*
Y80915D01*
X63243Y81497D01*
X62797Y81943D01*
X62215Y82184D01*
X61585D01*
X60816Y82948D01*
Y84900D01*
X60816Y84900D01*
X60754Y85212D01*
X60577Y85477D01*
X60577Y85477D01*
X56016Y90038D01*
Y97000D01*
X56016Y97000D01*
X55954Y97312D01*
X55777Y97577D01*
X55777Y97577D01*
X52550Y100803D01*
X52584Y100885D01*
Y101515D01*
X52343Y102097D01*
X51897Y102543D01*
X51315Y102784D01*
D02*
G37*
G36*
X169358Y89603D02*
X163807D01*
X163504Y89543D01*
X163247Y89371D01*
X163075Y89114D01*
X163015Y88811D01*
Y87918D01*
X162523Y87235D01*
X162057Y87084D01*
X161785D01*
X161203Y86843D01*
X160757Y86397D01*
X160516Y85815D01*
Y85185D01*
X160757Y84603D01*
X161203Y84157D01*
X161624Y83982D01*
X161957Y83346D01*
X162088Y82916D01*
X156774Y75562D01*
X156727Y75367D01*
X156651Y75182D01*
X156650Y68500D01*
X156841Y68041D01*
X157441Y67441D01*
X157900Y67251D01*
X170200D01*
X170659Y67441D01*
X172159Y68941D01*
X172349Y69400D01*
Y72800D01*
X172159Y73259D01*
X170249Y75169D01*
Y83900D01*
X170059Y84359D01*
X170033Y84446D01*
X170090Y84531D01*
X170151Y84835D01*
Y86252D01*
X170090Y86555D01*
X169925Y86823D01*
X170090Y87090D01*
X170151Y87394D01*
Y88811D01*
X170090Y89114D01*
X169919Y89371D01*
X169661Y89543D01*
X169358Y89603D01*
D02*
G37*
G36*
X167115Y55884D02*
X166485D01*
X165903Y55643D01*
X165457Y55197D01*
X165216Y54615D01*
Y53985D01*
X164451Y53218D01*
X158790D01*
X157903Y53776D01*
Y54761D01*
X157818Y55187D01*
X157576Y55548D01*
X157215Y55789D01*
X156789Y55874D01*
X155411D01*
X154985Y55789D01*
X154624Y55548D01*
X154382Y55187D01*
X154349Y55018D01*
X152534D01*
X152512Y55127D01*
X152249Y55520D01*
X151855Y55784D01*
X151391Y55876D01*
X150209D01*
X149745Y55784D01*
X149351Y55520D01*
X149088Y55127D01*
X148996Y54662D01*
Y53481D01*
X149088Y53017D01*
X149351Y52623D01*
Y52223D01*
X148610Y51351D01*
X138732D01*
X138341Y51274D01*
X138011Y51052D01*
X131942Y44984D01*
X131585D01*
X131003Y44743D01*
X130557Y44297D01*
X130316Y43715D01*
Y43085D01*
X130557Y42503D01*
X131003Y42057D01*
X131585Y41816D01*
X132215D01*
X132797Y42057D01*
X133243Y42503D01*
X133484Y43085D01*
Y43642D01*
X139154Y49312D01*
X141209D01*
X141802Y48619D01*
X141900Y48393D01*
X141616Y47814D01*
X141203Y47643D01*
X140757Y47197D01*
X140516Y46615D01*
X140515Y45985D01*
X139885Y45984D01*
X139303Y45743D01*
X138857Y45297D01*
X137815Y45184D01*
X137185D01*
X136603Y44943D01*
X136157Y44497D01*
X135916Y43915D01*
Y43285D01*
X136157Y42703D01*
X136603Y42257D01*
X137185Y42016D01*
X137815D01*
X138397Y42257D01*
X138843Y42703D01*
X139885Y42816D01*
X140515D01*
X141097Y43057D01*
X141543Y43503D01*
X141784Y44085D01*
X141785Y44715D01*
X142415Y44716D01*
X142997Y44957D01*
X143443Y45403D01*
X143684Y45985D01*
X144315Y46516D01*
X144897Y46757D01*
X145343Y47203D01*
X145584Y47785D01*
Y48415D01*
X146295Y49312D01*
X149196D01*
X149351Y49079D01*
X149745Y48816D01*
X150209Y48724D01*
X151391D01*
X151855Y48816D01*
X152249Y49079D01*
X152404Y49312D01*
X154450D01*
X154624Y49052D01*
X154985Y48811D01*
X155411Y48726D01*
X155486D01*
X156316Y48115D01*
Y47485D01*
X156557Y46903D01*
X157003Y46457D01*
X157585Y46216D01*
X158215D01*
X158797Y46457D01*
X159200Y46859D01*
X159603Y46457D01*
X160185Y46216D01*
X160815D01*
X161397Y46457D01*
X161850Y46896D01*
X162303Y46457D01*
X162885Y46216D01*
X163515D01*
X164097Y46457D01*
X164600Y46857D01*
X165103Y46457D01*
X165685Y46216D01*
X166315D01*
X166897Y46457D01*
X167343Y46903D01*
X167584Y47485D01*
Y48115D01*
X167343Y48697D01*
X166897Y49143D01*
X166315Y49384D01*
X165685D01*
X165103Y49143D01*
X164600Y48743D01*
X164097Y49143D01*
X163515Y49384D01*
X162771Y49755D01*
X162602Y50308D01*
Y50824D01*
X163511Y51382D01*
X165700D01*
X166051Y51452D01*
X166349Y51651D01*
X167449Y52751D01*
X167544Y52893D01*
X167697Y52957D01*
X168143Y53403D01*
X168384Y53985D01*
Y54615D01*
X168143Y55197D01*
X167697Y55643D01*
X167115Y55884D01*
D02*
G37*
G36*
X111815Y49384D02*
X111185D01*
X110603Y49143D01*
X110157Y48697D01*
X109916Y48115D01*
Y47485D01*
X110157Y46903D01*
X110603Y46457D01*
X111185Y46216D01*
X111815D01*
X112397Y46457D01*
X112843Y46903D01*
X113084Y47485D01*
Y48115D01*
X112843Y48697D01*
X112397Y49143D01*
X111815Y49384D01*
D02*
G37*
G36*
X86788Y41528D02*
X86158D01*
X85575Y41286D01*
X85130Y40841D01*
X84888Y40258D01*
Y39628D01*
X85130Y39046D01*
X85575Y38600D01*
X86158Y38359D01*
X86586D01*
X86616Y38315D01*
Y37685D01*
X86857Y37103D01*
X87303Y36657D01*
X87885Y36416D01*
X88515D01*
X89097Y36657D01*
X89750Y36900D01*
X90203Y36457D01*
X90785Y36216D01*
X91415D01*
X91997Y36457D01*
X92443Y36903D01*
X92684Y37485D01*
Y38115D01*
X92443Y38697D01*
X91997Y39143D01*
X91415Y39384D01*
X90785D01*
X90477Y39257D01*
X89550Y38900D01*
X89097Y39343D01*
X88515Y39584D01*
X88086D01*
X88057Y39628D01*
Y40258D01*
X87816Y40841D01*
X87370Y41286D01*
X86788Y41528D01*
D02*
G37*
%LPD*%
G36*
X75090Y148416D02*
X74959Y148416D01*
X74546Y148390D01*
X74470Y148377D01*
X74406Y148361D01*
X74354Y148343D01*
X74312Y148322D01*
X74282Y148299D01*
X73999Y148582D01*
X74022Y148612D01*
X74043Y148654D01*
X74061Y148706D01*
X74077Y148770D01*
X74090Y148846D01*
X74108Y149030D01*
X74116Y149259D01*
X74116Y149390D01*
X75090Y148416D01*
D02*
G37*
G36*
X81996Y148804D02*
X81722Y148494D01*
X81678Y148431D01*
X81644Y148375D01*
X81620Y148325D01*
X81605Y148281D01*
X81600Y148243D01*
X81200D01*
X81195Y148281D01*
X81180Y148325D01*
X81156Y148375D01*
X81122Y148431D01*
X81078Y148494D01*
X80960Y148637D01*
X80804Y148804D01*
X80711Y148897D01*
X82089D01*
X81996Y148804D01*
D02*
G37*
G36*
X77690Y147216D02*
X77559Y147216D01*
X77146Y147190D01*
X77070Y147177D01*
X77006Y147161D01*
X76954Y147143D01*
X76912Y147122D01*
X76882Y147099D01*
X76599Y147382D01*
X76622Y147412D01*
X76643Y147454D01*
X76661Y147506D01*
X76677Y147570D01*
X76690Y147646D01*
X76708Y147830D01*
X76716Y148059D01*
X76716Y148190D01*
X77690Y147216D01*
D02*
G37*
G36*
X102296Y143896D02*
X102606Y143622D01*
X102669Y143578D01*
X102725Y143544D01*
X102775Y143520D01*
X102819Y143505D01*
X102857Y143500D01*
Y143100D01*
X102819Y143095D01*
X102775Y143080D01*
X102725Y143056D01*
X102669Y143022D01*
X102606Y142978D01*
X102463Y142860D01*
X102296Y142704D01*
X102203Y142611D01*
Y143989D01*
X102296Y143896D01*
D02*
G37*
G36*
X98896Y143196D02*
X99206Y142922D01*
X99269Y142878D01*
X99325Y142844D01*
X99375Y142820D01*
X99419Y142805D01*
X99457Y142800D01*
Y142400D01*
X99419Y142395D01*
X99375Y142380D01*
X99325Y142356D01*
X99269Y142322D01*
X99206Y142278D01*
X99063Y142160D01*
X98896Y142004D01*
X98803Y141911D01*
Y143289D01*
X98896Y143196D01*
D02*
G37*
G36*
X95296Y142396D02*
X95606Y142122D01*
X95669Y142078D01*
X95725Y142044D01*
X95775Y142020D01*
X95819Y142005D01*
X95857Y142000D01*
Y141600D01*
X95819Y141595D01*
X95775Y141580D01*
X95725Y141556D01*
X95669Y141522D01*
X95606Y141478D01*
X95463Y141360D01*
X95296Y141204D01*
X95203Y141111D01*
Y142489D01*
X95296Y142396D01*
D02*
G37*
G36*
X64273Y112859D02*
X64249Y112828D01*
X64227Y112786D01*
X64210Y112733D01*
X64196Y112669D01*
X64185Y112594D01*
X64178Y112509D01*
X64173Y112305D01*
X64183Y112059D01*
X63161Y112984D01*
X63295Y112990D01*
X63714Y113033D01*
X63789Y113049D01*
X63853Y113066D01*
X63906Y113085D01*
X63946Y113105D01*
X63976Y113128D01*
X64273Y112859D01*
D02*
G37*
G36*
X29304Y111800D02*
X29299Y111838D01*
X29287Y111872D01*
X29266Y111902D01*
X29238Y111928D01*
X29201Y111950D01*
X29155Y111968D01*
X29102Y111982D01*
X29040Y111992D01*
X28970Y111998D01*
X28892Y112000D01*
Y112400D01*
X28970Y112402D01*
X29040Y112408D01*
X29102Y112418D01*
X29155Y112432D01*
X29201Y112450D01*
X29238Y112472D01*
X29266Y112498D01*
X29287Y112528D01*
X29299Y112562D01*
X29304Y112600D01*
Y111800D01*
D02*
G37*
G36*
X24401Y111318D02*
X24378Y111288D01*
X24357Y111246D01*
X24339Y111194D01*
X24323Y111130D01*
X24310Y111054D01*
X24292Y110870D01*
X24284Y110641D01*
X24284Y110510D01*
X23310Y111484D01*
X23441Y111484D01*
X23854Y111510D01*
X23930Y111523D01*
X23994Y111539D01*
X24046Y111557D01*
X24088Y111578D01*
X24118Y111601D01*
X24401Y111318D01*
D02*
G37*
G36*
X62296Y110596D02*
X62606Y110322D01*
X62669Y110278D01*
X62725Y110244D01*
X62775Y110220D01*
X62819Y110205D01*
X62857Y110200D01*
Y109800D01*
X62819Y109795D01*
X62775Y109780D01*
X62725Y109756D01*
X62669Y109722D01*
X62606Y109678D01*
X62463Y109560D01*
X62296Y109404D01*
X62203Y109311D01*
Y110689D01*
X62296Y110596D01*
D02*
G37*
G36*
X64231Y108990D02*
X64207Y108960D01*
X64187Y108918D01*
X64168Y108865D01*
X64153Y108801D01*
X64140Y108726D01*
X64122Y108542D01*
X64114Y108313D01*
X64114Y108182D01*
X63139Y109156D01*
X63271Y109156D01*
X63684Y109182D01*
X63759Y109195D01*
X63823Y109211D01*
X63876Y109229D01*
X63918Y109250D01*
X63948Y109273D01*
X64231Y108990D01*
D02*
G37*
G36*
X113126Y109362D02*
X113139Y109328D01*
X113159Y109298D01*
X113188Y109272D01*
X113225Y109250D01*
X113270Y109232D01*
X113324Y109218D01*
X113386Y109208D01*
X113456Y109202D01*
X113534Y109200D01*
Y108800D01*
X113456Y108798D01*
X113386Y108792D01*
X113324Y108782D01*
X113270Y108768D01*
X113225Y108750D01*
X113188Y108728D01*
X113159Y108702D01*
X113139Y108672D01*
X113126Y108638D01*
X113122Y108600D01*
Y109400D01*
X113126Y109362D01*
D02*
G37*
G36*
X104878Y108434D02*
X104872Y108447D01*
X104855Y108458D01*
X104826Y108468D01*
X104785Y108476D01*
X104733Y108484D01*
X104595Y108494D01*
X104300Y108500D01*
Y109500D01*
X104410Y109501D01*
X104785Y109524D01*
X104826Y109532D01*
X104855Y109542D01*
X104872Y109553D01*
X104878Y109566D01*
Y108434D01*
D02*
G37*
G36*
X163640Y108175D02*
X163636Y108213D01*
X163624Y108247D01*
X163603Y108277D01*
X163574Y108303D01*
X163537Y108325D01*
X163492Y108343D01*
X163438Y108357D01*
X163377Y108367D01*
X163307Y108373D01*
X163228Y108375D01*
Y108775D01*
X163307Y108777D01*
X163377Y108783D01*
X163438Y108793D01*
X163492Y108807D01*
X163537Y108825D01*
X163574Y108847D01*
X163603Y108873D01*
X163624Y108903D01*
X163636Y108937D01*
X163640Y108975D01*
Y108175D01*
D02*
G37*
G36*
X37650Y108100D02*
X37646Y108138D01*
X37633Y108172D01*
X37613Y108202D01*
X37584Y108228D01*
X37547Y108250D01*
X37502Y108268D01*
X37448Y108282D01*
X37386Y108292D01*
X37316Y108298D01*
X37238Y108300D01*
Y108700D01*
X37316Y108702D01*
X37386Y108708D01*
X37448Y108718D01*
X37502Y108732D01*
X37547Y108750D01*
X37584Y108772D01*
X37613Y108798D01*
X37633Y108828D01*
X37646Y108862D01*
X37650Y108900D01*
Y108100D01*
D02*
G37*
G36*
X110722Y112318D02*
X110803Y111314D01*
X110731Y111300D01*
X110321Y111026D01*
X110047Y110616D01*
X109950Y110132D01*
Y107868D01*
X110047Y107384D01*
X110321Y106974D01*
X110731Y106700D01*
X111215Y106604D01*
X112494D01*
X112978Y106700D01*
X113388Y106974D01*
X113662Y107384D01*
X113758Y107868D01*
Y108184D01*
X116362D01*
X119062Y105485D01*
X118648Y104485D01*
X118501D01*
X118133Y104411D01*
X117820Y104203D01*
X117612Y103890D01*
X117538Y103522D01*
Y102833D01*
X117612Y102464D01*
X117632Y102434D01*
X117268Y101523D01*
X117189Y101434D01*
X115718D01*
X115718Y101434D01*
X115406Y101372D01*
X115141Y101195D01*
X111778Y97831D01*
X111601Y97566D01*
X111539Y97254D01*
X111539Y97254D01*
Y84361D01*
X111231Y84300D01*
X110821Y84026D01*
X110547Y83616D01*
X110450Y83132D01*
Y80868D01*
X110547Y80384D01*
X110821Y79974D01*
X111231Y79700D01*
X111519Y79643D01*
X111511Y78625D01*
X111068Y78544D01*
X108592Y78457D01*
X107268Y78604D01*
X107285Y79604D01*
X107769Y79700D01*
X108179Y79974D01*
X108453Y80384D01*
X108549Y80868D01*
Y83132D01*
X108453Y83616D01*
X108179Y84026D01*
X108171Y84113D01*
X108920Y84916D01*
X109015D01*
X109597Y85157D01*
X110043Y85603D01*
X110284Y86185D01*
Y86815D01*
X110043Y87397D01*
X109597Y87843D01*
X109015Y88084D01*
X108385D01*
X107803Y87843D01*
X107357Y87397D01*
X107116Y86815D01*
Y86602D01*
X105853Y85339D01*
X105610Y84975D01*
X105596Y84906D01*
X105284Y84731D01*
X104320Y85198D01*
X104261Y85271D01*
X104043Y85797D01*
X103822Y86019D01*
Y96318D01*
X103822Y96318D01*
X103736Y96747D01*
X103493Y97111D01*
X103493Y97111D01*
X102545Y98059D01*
X103593Y99107D01*
X103593Y99107D01*
X103836Y99471D01*
X103922Y99900D01*
Y101071D01*
X104916Y101085D01*
X105157Y100503D01*
X105603Y100057D01*
X106185Y99816D01*
X106815D01*
X107397Y100057D01*
X107843Y100503D01*
X108603Y100557D01*
X108827Y100464D01*
X109185Y100316D01*
X109815D01*
X110397Y100557D01*
X110843Y101003D01*
X111084Y101585D01*
Y102215D01*
X110843Y102797D01*
X110397Y103243D01*
X109815Y103484D01*
X109185D01*
X108603Y103243D01*
X108157Y102797D01*
X107397Y102743D01*
X107173Y102836D01*
X106815Y102984D01*
X106185D01*
X105603Y102743D01*
X105157Y102297D01*
X104916Y101715D01*
X103922Y101729D01*
Y106325D01*
X103961Y106361D01*
X104922Y106767D01*
X105022Y106700D01*
X105506Y106604D01*
X106785D01*
X107269Y106700D01*
X107679Y106974D01*
X107953Y107384D01*
X108049Y107868D01*
Y110132D01*
X107953Y110616D01*
X107679Y111026D01*
X107346Y111248D01*
X107321Y111535D01*
X107481Y112269D01*
X108600Y112393D01*
X110722Y112318D01*
D02*
G37*
G36*
X163681Y105181D02*
X163646Y105241D01*
X163596Y105296D01*
X163530Y105343D01*
X163449Y105385D01*
X163352Y105420D01*
X163238Y105449D01*
X163110Y105471D01*
X163031Y105480D01*
X162986Y105470D01*
X162930Y105453D01*
X162878Y105432D01*
X162829Y105407D01*
X162784Y105379D01*
X162742Y105347D01*
X162703Y105311D01*
Y105497D01*
X162628Y105500D01*
Y106500D01*
X162703Y106501D01*
Y106689D01*
X162742Y106653D01*
X162784Y106621D01*
X162829Y106593D01*
X162878Y106568D01*
X162930Y106547D01*
X162986Y106530D01*
X163016Y106523D01*
X163104Y106532D01*
X163232Y106556D01*
X163345Y106588D01*
X163443Y106626D01*
X163525Y106672D01*
X163592Y106725D01*
X163644Y106784D01*
X163681Y106851D01*
Y105181D01*
D02*
G37*
G36*
X40169Y107333D02*
X40135Y107321D01*
X40105Y107300D01*
X40079Y107271D01*
X40057Y107234D01*
X40039Y107189D01*
X40025Y107135D01*
X40015Y107074D01*
X40011Y107027D01*
X40012Y107019D01*
X40027Y106975D01*
X40051Y106925D01*
X40085Y106869D01*
X40129Y106806D01*
X40246Y106663D01*
X40403Y106496D01*
X40496Y106403D01*
X39118D01*
X39211Y106496D01*
X39485Y106806D01*
X39529Y106869D01*
X39563Y106925D01*
X39587Y106975D01*
X39602Y107019D01*
X39603Y107027D01*
X39599Y107074D01*
X39589Y107135D01*
X39575Y107189D01*
X39557Y107234D01*
X39535Y107271D01*
X39509Y107300D01*
X39479Y107321D01*
X39445Y107333D01*
X39407Y107337D01*
X40207D01*
X40169Y107333D01*
D02*
G37*
G36*
X62296Y106696D02*
X62606Y106422D01*
X62669Y106378D01*
X62725Y106344D01*
X62775Y106320D01*
X62819Y106305D01*
X62857Y106300D01*
Y105900D01*
X62819Y105895D01*
X62775Y105880D01*
X62725Y105856D01*
X62669Y105822D01*
X62606Y105778D01*
X62463Y105660D01*
X62296Y105504D01*
X62203Y105411D01*
Y106789D01*
X62296Y106696D01*
D02*
G37*
G36*
X29304Y104400D02*
X29299Y104438D01*
X29287Y104472D01*
X29266Y104502D01*
X29238Y104528D01*
X29201Y104550D01*
X29155Y104568D01*
X29102Y104582D01*
X29040Y104592D01*
X28970Y104598D01*
X28892Y104600D01*
Y105000D01*
X28970Y105002D01*
X29040Y105008D01*
X29102Y105018D01*
X29155Y105032D01*
X29201Y105050D01*
X29238Y105072D01*
X29266Y105098D01*
X29287Y105128D01*
X29299Y105162D01*
X29304Y105200D01*
Y104400D01*
D02*
G37*
G36*
X120502Y104182D02*
X120508Y104112D01*
X120518Y104051D01*
X120532Y103997D01*
X120550Y103952D01*
X120572Y103915D01*
X120598Y103886D01*
X120628Y103865D01*
X120662Y103853D01*
X120700Y103849D01*
X119900D01*
X119938Y103853D01*
X119972Y103865D01*
X120002Y103886D01*
X120028Y103915D01*
X120050Y103952D01*
X120068Y103997D01*
X120082Y104051D01*
X120092Y104112D01*
X120098Y104182D01*
X120100Y104261D01*
X120500D01*
X120502Y104182D01*
D02*
G37*
G36*
X25796Y104996D02*
X26106Y104722D01*
X26169Y104678D01*
X26225Y104644D01*
X26275Y104620D01*
X26319Y104605D01*
X26357Y104600D01*
Y104200D01*
X26319Y104195D01*
X26275Y104180D01*
X26225Y104156D01*
X26169Y104122D01*
X26106Y104078D01*
X25963Y103960D01*
X25796Y103804D01*
X25703Y103711D01*
Y105089D01*
X25796Y104996D01*
D02*
G37*
G36*
X163640Y103057D02*
X163636Y103095D01*
X163624Y103129D01*
X163603Y103159D01*
X163574Y103185D01*
X163537Y103207D01*
X163492Y103225D01*
X163438Y103239D01*
X163377Y103249D01*
X163307Y103255D01*
X163228Y103257D01*
Y103657D01*
X163307Y103659D01*
X163377Y103665D01*
X163438Y103675D01*
X163492Y103689D01*
X163537Y103707D01*
X163574Y103729D01*
X163603Y103755D01*
X163624Y103785D01*
X163636Y103819D01*
X163640Y103857D01*
Y103057D01*
D02*
G37*
G36*
X122463Y103537D02*
X122476Y103504D01*
X122497Y103474D01*
X122527Y103448D01*
X122565Y103427D01*
X122611Y103409D01*
X122666Y103395D01*
X122730Y103385D01*
X122802Y103379D01*
X122882Y103377D01*
Y102977D01*
X122802Y102975D01*
X122730Y102969D01*
X122666Y102959D01*
X122611Y102945D01*
X122565Y102928D01*
X122527Y102906D01*
X122497Y102880D01*
X122476Y102851D01*
X122463Y102817D01*
X122459Y102779D01*
Y103575D01*
X122463Y103537D01*
D02*
G37*
G36*
X103477Y110962D02*
X103883Y110466D01*
X103705Y109926D01*
X103507Y109793D01*
X102007Y108293D01*
X101764Y107929D01*
X101678Y107500D01*
X101678Y107500D01*
Y100365D01*
X100495Y99181D01*
X100036D01*
X99867Y99293D01*
X99499Y99366D01*
X95857D01*
X95489Y99293D01*
X95176Y99085D01*
X94967Y98772D01*
X94894Y98404D01*
Y97985D01*
X94443Y97453D01*
X93980Y97184D01*
X93585D01*
X93374Y97097D01*
X92479Y97681D01*
X92454Y97716D01*
X92661Y99118D01*
X93375Y101490D01*
X93914Y102641D01*
X94958Y102512D01*
X94967Y102464D01*
X95176Y102152D01*
X95489Y101943D01*
X95857Y101870D01*
X99499D01*
X99867Y101943D01*
X100180Y102152D01*
X100389Y102464D01*
X100462Y102833D01*
Y103522D01*
X100389Y103890D01*
X100180Y104203D01*
X99867Y104411D01*
X99499Y104485D01*
X96122D01*
X95672Y105077D01*
X95558Y105445D01*
X95792Y105799D01*
X97445Y107645D01*
X99348Y109230D01*
X101462Y110522D01*
X103023Y111186D01*
X103477Y110962D01*
D02*
G37*
G36*
X163681Y100063D02*
X163645Y100127D01*
X163594Y100184D01*
X163527Y100235D01*
X163445Y100278D01*
X163348Y100316D01*
X163235Y100346D01*
X163106Y100370D01*
X163027Y100379D01*
X162986Y100370D01*
X162930Y100353D01*
X162878Y100332D01*
X162829Y100307D01*
X162784Y100279D01*
X162742Y100247D01*
X162703Y100211D01*
Y100399D01*
X162628Y100400D01*
Y101400D01*
X162703Y101401D01*
Y101589D01*
X162742Y101553D01*
X162784Y101521D01*
X162829Y101493D01*
X162878Y101468D01*
X162930Y101447D01*
X162986Y101430D01*
X163021Y101422D01*
X163107Y101430D01*
X163236Y101453D01*
X163349Y101483D01*
X163446Y101520D01*
X163528Y101563D01*
X163594Y101613D01*
X163645Y101670D01*
X163681Y101733D01*
Y100063D01*
D02*
G37*
G36*
X122463Y100978D02*
X122476Y100945D01*
X122497Y100915D01*
X122527Y100889D01*
X122565Y100867D01*
X122611Y100850D01*
X122666Y100836D01*
X122730Y100826D01*
X122802Y100820D01*
X122882Y100818D01*
Y100418D01*
X122802Y100416D01*
X122730Y100410D01*
X122666Y100400D01*
X122611Y100387D01*
X122565Y100369D01*
X122527Y100347D01*
X122497Y100321D01*
X122476Y100292D01*
X122463Y100258D01*
X122459Y100221D01*
Y101016D01*
X122463Y100978D01*
D02*
G37*
G36*
X118185Y100221D02*
X118181Y100258D01*
X118168Y100292D01*
X118147Y100321D01*
X118117Y100347D01*
X118079Y100369D01*
X118033Y100387D01*
X117978Y100400D01*
X117914Y100410D01*
X117842Y100416D01*
X117762Y100418D01*
Y100818D01*
X117842Y100820D01*
X117914Y100826D01*
X117978Y100836D01*
X118033Y100850D01*
X118079Y100867D01*
X118117Y100889D01*
X118147Y100915D01*
X118168Y100945D01*
X118181Y100978D01*
X118185Y101016D01*
Y100221D01*
D02*
G37*
G36*
X21356Y99594D02*
X21362Y99524D01*
X21372Y99462D01*
X21386Y99408D01*
X21404Y99363D01*
X21426Y99326D01*
X21452Y99297D01*
X21482Y99276D01*
X21516Y99264D01*
X21554Y99260D01*
X20754D01*
X20792Y99264D01*
X20826Y99276D01*
X20856Y99297D01*
X20882Y99326D01*
X20904Y99363D01*
X20922Y99408D01*
X20936Y99462D01*
X20946Y99524D01*
X20952Y99594D01*
X20954Y99672D01*
X21354D01*
X21356Y99594D01*
D02*
G37*
G36*
X102373Y98766D02*
X102246Y98625D01*
X102147Y98483D01*
X102076Y98342D01*
X102034Y98201D01*
X102020Y98059D01*
X102034Y97918D01*
X102076Y97776D01*
X102147Y97635D01*
X102246Y97493D01*
X102373Y97352D01*
X101459Y96852D01*
X101315Y96986D01*
X101164Y97106D01*
X101008Y97213D01*
X100847Y97304D01*
X100679Y97382D01*
X100505Y97446D01*
X100326Y97495D01*
X100158Y97527D01*
X100038Y97520D01*
X99928Y97502D01*
X99833Y97482D01*
X99751Y97458D01*
X99683Y97431D01*
X99629Y97401D01*
Y98717D01*
X99683Y98687D01*
X99751Y98660D01*
X99833Y98636D01*
X99928Y98616D01*
X100038Y98598D01*
X100145Y98588D01*
X100326Y98623D01*
X100505Y98672D01*
X100679Y98736D01*
X100847Y98814D01*
X101008Y98905D01*
X101164Y99012D01*
X101315Y99132D01*
X101459Y99266D01*
X102373Y98766D01*
D02*
G37*
G36*
X25896Y99496D02*
X26206Y99222D01*
X26269Y99178D01*
X26325Y99144D01*
X26375Y99120D01*
X26419Y99105D01*
X26457Y99100D01*
Y98700D01*
X26419Y98695D01*
X26375Y98680D01*
X26325Y98656D01*
X26269Y98622D01*
X26206Y98578D01*
X26063Y98460D01*
X25896Y98304D01*
X25803Y98211D01*
Y99589D01*
X25896Y99496D01*
D02*
G37*
G36*
X163640Y97939D02*
X163636Y97977D01*
X163624Y98011D01*
X163603Y98041D01*
X163574Y98067D01*
X163537Y98089D01*
X163492Y98107D01*
X163438Y98121D01*
X163377Y98131D01*
X163307Y98137D01*
X163228Y98139D01*
Y98539D01*
X163307Y98541D01*
X163377Y98547D01*
X163438Y98557D01*
X163492Y98571D01*
X163537Y98589D01*
X163574Y98611D01*
X163603Y98637D01*
X163624Y98667D01*
X163636Y98701D01*
X163640Y98739D01*
Y97939D01*
D02*
G37*
G36*
X29277Y97800D02*
X29273Y97838D01*
X29260Y97872D01*
X29240Y97902D01*
X29211Y97928D01*
X29174Y97950D01*
X29128Y97968D01*
X29075Y97982D01*
X29013Y97992D01*
X28943Y97998D01*
X28865Y98000D01*
Y98400D01*
X28943Y98402D01*
X29013Y98408D01*
X29075Y98418D01*
X29128Y98432D01*
X29174Y98450D01*
X29211Y98472D01*
X29240Y98498D01*
X29260Y98528D01*
X29273Y98562D01*
X29277Y98600D01*
Y97800D01*
D02*
G37*
G36*
X122463Y98419D02*
X122476Y98386D01*
X122497Y98356D01*
X122527Y98330D01*
X122565Y98308D01*
X122611Y98291D01*
X122666Y98277D01*
X122730Y98267D01*
X122802Y98261D01*
X122882Y98259D01*
Y97859D01*
X122802Y97857D01*
X122730Y97851D01*
X122666Y97841D01*
X122611Y97827D01*
X122565Y97810D01*
X122527Y97788D01*
X122497Y97762D01*
X122476Y97733D01*
X122463Y97699D01*
X122459Y97661D01*
Y98457D01*
X122463Y98419D01*
D02*
G37*
G36*
X163681Y94945D02*
X163644Y95012D01*
X163591Y95073D01*
X163524Y95126D01*
X163442Y95172D01*
X163344Y95211D01*
X163231Y95243D01*
X163103Y95268D01*
X163066Y95273D01*
X163040Y95266D01*
X162986Y95246D01*
X162935Y95223D01*
X162888Y95195D01*
X162845Y95163D01*
X162805Y95127D01*
X162769Y95086D01*
X162748Y95298D01*
X162628Y95300D01*
Y96300D01*
X162645Y96300D01*
X162629Y96457D01*
X162669Y96427D01*
X162711Y96400D01*
X162758Y96377D01*
X162807Y96356D01*
X162860Y96339D01*
X162916Y96325D01*
X162964Y96316D01*
X163110Y96328D01*
X163239Y96350D01*
X163352Y96379D01*
X163450Y96413D01*
X163531Y96454D01*
X163597Y96501D01*
X163647Y96555D01*
X163681Y96615D01*
Y94945D01*
D02*
G37*
G36*
X126178Y95900D02*
X126174Y95938D01*
X126161Y95972D01*
X126141Y96002D01*
X126112Y96028D01*
X126075Y96050D01*
X126030Y96068D01*
X125976Y96082D01*
X125914Y96092D01*
X125844Y96098D01*
X125766Y96100D01*
Y96500D01*
X125844Y96502D01*
X125914Y96508D01*
X125976Y96518D01*
X126030Y96532D01*
X126075Y96550D01*
X126112Y96572D01*
X126141Y96598D01*
X126161Y96628D01*
X126174Y96662D01*
X126178Y96700D01*
Y95900D01*
D02*
G37*
G36*
X122463Y95860D02*
X122476Y95827D01*
X122497Y95797D01*
X122527Y95771D01*
X122565Y95749D01*
X122611Y95732D01*
X122666Y95718D01*
X122730Y95708D01*
X122802Y95702D01*
X122882Y95700D01*
Y95300D01*
X122802Y95298D01*
X122730Y95292D01*
X122666Y95282D01*
X122611Y95268D01*
X122565Y95251D01*
X122527Y95229D01*
X122497Y95203D01*
X122476Y95174D01*
X122463Y95140D01*
X122459Y95102D01*
Y95898D01*
X122463Y95860D01*
D02*
G37*
G36*
X94705Y96173D02*
X94745Y96137D01*
X94788Y96105D01*
X94835Y96077D01*
X94886Y96053D01*
X94940Y96034D01*
X94998Y96019D01*
X95001Y96019D01*
X95318Y96039D01*
X95428Y96057D01*
X95523Y96077D01*
X95605Y96101D01*
X95673Y96128D01*
X95727Y96158D01*
Y94842D01*
X95673Y94872D01*
X95605Y94899D01*
X95523Y94923D01*
X95428Y94943D01*
X95318Y94961D01*
X95057Y94986D01*
X94928Y94991D01*
X94875Y94986D01*
X94816Y94975D01*
X94760Y94961D01*
X94707Y94943D01*
X94657Y94923D01*
X94611Y94900D01*
X94569Y94873D01*
X94562Y94868D01*
X94553Y94858D01*
X94521Y94816D01*
X94493Y94771D01*
X94468Y94722D01*
X94447Y94670D01*
X94430Y94614D01*
X94417Y94555D01*
X94408Y94493D01*
X94402Y94428D01*
X94400Y94358D01*
X93400D01*
X93398Y94428D01*
X93392Y94493D01*
X93383Y94555D01*
X93370Y94614D01*
X93353Y94670D01*
X93332Y94722D01*
X93307Y94771D01*
X93279Y94816D01*
X93247Y94858D01*
X93211Y94897D01*
X94535D01*
X94561Y95155D01*
Y96000D01*
X94648Y96001D01*
X94669Y96214D01*
X94705Y96173D01*
D02*
G37*
G36*
X16444Y95842D02*
X16361Y95755D01*
X16287Y95653D01*
X16223Y95536D01*
X16169Y95404D01*
X16124Y95258D01*
X16090Y95098D01*
X16065Y94922D01*
X16051Y94732D01*
X16046Y94528D01*
X14846D01*
X14841Y94732D01*
X14826Y94922D01*
X14801Y95098D01*
X14767Y95258D01*
X14723Y95404D01*
X14668Y95536D01*
X14604Y95653D01*
X14530Y95755D01*
X14447Y95842D01*
X14353Y95916D01*
X16538D01*
X16444Y95842D01*
D02*
G37*
G36*
X37623Y94100D02*
X37619Y94138D01*
X37607Y94172D01*
X37586Y94202D01*
X37557Y94228D01*
X37520Y94250D01*
X37475Y94268D01*
X37421Y94282D01*
X37359Y94292D01*
X37290Y94298D01*
X37211Y94300D01*
Y94700D01*
X37290Y94702D01*
X37359Y94708D01*
X37421Y94718D01*
X37475Y94732D01*
X37520Y94750D01*
X37557Y94772D01*
X37586Y94798D01*
X37607Y94828D01*
X37619Y94862D01*
X37623Y94900D01*
Y94100D01*
D02*
G37*
G36*
X133697Y94534D02*
X133646Y94516D01*
X133601Y94485D01*
X133562Y94442D01*
X133529Y94387D01*
X133502Y94320D01*
X133481Y94240D01*
X133466Y94148D01*
X133457Y94044D01*
X133454Y93928D01*
X132854D01*
X132851Y94044D01*
X132842Y94148D01*
X132827Y94240D01*
X132806Y94320D01*
X132779Y94387D01*
X132746Y94442D01*
X132707Y94485D01*
X132662Y94516D01*
X132611Y94534D01*
X132554Y94540D01*
X133754D01*
X133697Y94534D01*
D02*
G37*
G36*
X94402Y94073D02*
X94408Y94007D01*
X94417Y93945D01*
X94430Y93886D01*
X94447Y93830D01*
X94468Y93778D01*
X94493Y93729D01*
X94521Y93684D01*
X94553Y93642D01*
X94589Y93603D01*
X93211D01*
X93247Y93642D01*
X93279Y93684D01*
X93307Y93729D01*
X93332Y93778D01*
X93353Y93830D01*
X93370Y93886D01*
X93383Y93945D01*
X93392Y94007D01*
X93398Y94073D01*
X93400Y94142D01*
X94400D01*
X94402Y94073D01*
D02*
G37*
G36*
X16051Y94268D02*
X16065Y94078D01*
X16090Y93902D01*
X16124Y93742D01*
X16169Y93596D01*
X16223Y93464D01*
X16287Y93348D01*
X16361Y93245D01*
X16444Y93158D01*
X16538Y93085D01*
X14353D01*
X14447Y93158D01*
X14530Y93245D01*
X14604Y93348D01*
X14668Y93464D01*
X14723Y93596D01*
X14767Y93742D01*
X14801Y93902D01*
X14826Y94078D01*
X14841Y94268D01*
X14846Y94472D01*
X16046D01*
X16051Y94268D01*
D02*
G37*
G36*
X133457Y93556D02*
X133466Y93452D01*
X133481Y93360D01*
X133502Y93280D01*
X133529Y93213D01*
X133562Y93158D01*
X133601Y93115D01*
X133646Y93084D01*
X133697Y93066D01*
X133754Y93060D01*
X132554D01*
X132611Y93066D01*
X132662Y93084D01*
X132707Y93115D01*
X132746Y93158D01*
X132779Y93213D01*
X132806Y93280D01*
X132827Y93360D01*
X132842Y93452D01*
X132851Y93556D01*
X132854Y93672D01*
X133454D01*
X133457Y93556D01*
D02*
G37*
G36*
X40012Y93619D02*
X40027Y93575D01*
X40051Y93525D01*
X40085Y93469D01*
X40129Y93406D01*
X40186Y93337D01*
X40207D01*
X40187Y93335D01*
X40246Y93263D01*
X40403Y93096D01*
X40496Y93003D01*
X40009D01*
X40007Y92925D01*
X39607D01*
X39605Y93003D01*
X39118D01*
X39211Y93096D01*
X39423Y93336D01*
X39407Y93337D01*
X39424D01*
X39485Y93406D01*
X39529Y93469D01*
X39563Y93525D01*
X39587Y93575D01*
X39602Y93619D01*
X39607Y93657D01*
X40007D01*
X40012Y93619D01*
D02*
G37*
G36*
X126312Y93212D02*
X126441Y93104D01*
X126498Y93066D01*
X126551Y93038D01*
X126600Y93019D01*
X126643Y93011D01*
X126682Y93013D01*
X126716Y93026D01*
X126746Y93048D01*
X126190Y92492D01*
X126212Y92521D01*
X126224Y92556D01*
X126226Y92595D01*
X126218Y92638D01*
X126200Y92686D01*
X126172Y92739D01*
X126133Y92797D01*
X126085Y92859D01*
X126026Y92926D01*
X125957Y92998D01*
X126240Y93281D01*
X126312Y93212D01*
D02*
G37*
G36*
X22426Y91862D02*
X22439Y91828D01*
X22459Y91798D01*
X22488Y91772D01*
X22525Y91750D01*
X22570Y91732D01*
X22624Y91718D01*
X22686Y91708D01*
X22756Y91702D01*
X22834Y91700D01*
Y91300D01*
X22756Y91298D01*
X22686Y91292D01*
X22624Y91282D01*
X22570Y91268D01*
X22525Y91250D01*
X22488Y91228D01*
X22459Y91202D01*
X22439Y91172D01*
X22426Y91138D01*
X22422Y91100D01*
Y91900D01*
X22426Y91862D01*
D02*
G37*
G36*
X131278Y91915D02*
X131420Y91791D01*
X131486Y91740D01*
X131551Y91697D01*
X131612Y91662D01*
X131651Y91644D01*
X131666Y91648D01*
X131734Y91675D01*
X131789Y91708D01*
X131831Y91747D01*
X131862Y91792D01*
X131880Y91843D01*
X131886Y91900D01*
Y90700D01*
X131880Y90757D01*
X131862Y90808D01*
X131831Y90853D01*
X131789Y90892D01*
X131734Y90925D01*
X131666Y90952D01*
X131651Y90956D01*
X131612Y90938D01*
X131551Y90903D01*
X131486Y90860D01*
X131420Y90809D01*
X131278Y90685D01*
X131203Y90611D01*
Y91989D01*
X131278Y91915D01*
D02*
G37*
G36*
X29277Y90400D02*
X29273Y90438D01*
X29260Y90472D01*
X29240Y90502D01*
X29211Y90528D01*
X29174Y90550D01*
X29128Y90568D01*
X29075Y90582D01*
X29013Y90592D01*
X28943Y90598D01*
X28865Y90600D01*
Y91000D01*
X28943Y91002D01*
X29013Y91008D01*
X29075Y91018D01*
X29128Y91032D01*
X29174Y91050D01*
X29211Y91072D01*
X29240Y91098D01*
X29260Y91128D01*
X29273Y91162D01*
X29277Y91200D01*
Y90400D01*
D02*
G37*
G36*
X25696Y91196D02*
X26006Y90922D01*
X26069Y90878D01*
X26125Y90844D01*
X26175Y90820D01*
X26219Y90805D01*
X26257Y90800D01*
Y90400D01*
X26219Y90395D01*
X26175Y90380D01*
X26125Y90356D01*
X26069Y90322D01*
X26006Y90278D01*
X25863Y90160D01*
X25696Y90004D01*
X25603Y89911D01*
Y91289D01*
X25696Y91196D01*
D02*
G37*
G36*
X16444Y89842D02*
X16361Y89755D01*
X16287Y89653D01*
X16223Y89536D01*
X16169Y89404D01*
X16124Y89258D01*
X16090Y89097D01*
X16065Y88922D01*
X16051Y88732D01*
X16046Y88528D01*
X14846D01*
X14841Y88732D01*
X14826Y88922D01*
X14801Y89097D01*
X14767Y89258D01*
X14723Y89404D01*
X14668Y89536D01*
X14604Y89653D01*
X14530Y89755D01*
X14447Y89842D01*
X14353Y89916D01*
X16538D01*
X16444Y89842D01*
D02*
G37*
G36*
X16051Y88168D02*
X16065Y87978D01*
X16090Y87802D01*
X16124Y87642D01*
X16169Y87496D01*
X16223Y87364D01*
X16287Y87248D01*
X16361Y87145D01*
X16444Y87058D01*
X16538Y86984D01*
X14353D01*
X14447Y87058D01*
X14530Y87145D01*
X14604Y87248D01*
X14668Y87364D01*
X14723Y87496D01*
X14767Y87642D01*
X14801Y87802D01*
X14826Y87978D01*
X14841Y88168D01*
X14846Y88372D01*
X16046D01*
X16051Y88168D01*
D02*
G37*
G36*
X103202Y86072D02*
X103208Y86007D01*
X103217Y85945D01*
X103230Y85886D01*
X103247Y85830D01*
X103268Y85778D01*
X103293Y85729D01*
X103321Y85684D01*
X103353Y85642D01*
X103389Y85603D01*
X102011D01*
X102047Y85642D01*
X102079Y85684D01*
X102107Y85729D01*
X102132Y85778D01*
X102153Y85830D01*
X102170Y85886D01*
X102183Y85945D01*
X102192Y86007D01*
X102198Y86072D01*
X102200Y86142D01*
X103200D01*
X103202Y86072D01*
D02*
G37*
G36*
X108619Y85519D02*
X108565Y85521D01*
X108512Y85517D01*
X108459Y85508D01*
X108406Y85493D01*
X108354Y85473D01*
X108302Y85448D01*
X108250Y85417D01*
X108200Y85381D01*
X108149Y85339D01*
X108099Y85292D01*
X107451Y86058D01*
X107499Y86108D01*
X107580Y86209D01*
X107614Y86259D01*
X107643Y86309D01*
X107668Y86360D01*
X107687Y86410D01*
X107702Y86460D01*
X107712Y86511D01*
X107718Y86561D01*
X108619Y85519D01*
D02*
G37*
G36*
X112556Y84094D02*
X112562Y84024D01*
X112572Y83962D01*
X112586Y83908D01*
X112604Y83863D01*
X112626Y83826D01*
X112652Y83797D01*
X112682Y83776D01*
X112716Y83764D01*
X112754Y83760D01*
X111954D01*
X111992Y83764D01*
X112026Y83776D01*
X112056Y83797D01*
X112082Y83826D01*
X112104Y83863D01*
X112122Y83908D01*
X112136Y83962D01*
X112146Y84024D01*
X112152Y84094D01*
X112154Y84172D01*
X112554D01*
X112556Y84094D01*
D02*
G37*
G36*
X107148Y84391D02*
X107170Y84131D01*
X107189Y84026D01*
X107213Y83937D01*
X107243Y83864D01*
X107279Y83807D01*
X107319Y83766D01*
X107366Y83742D01*
X107417Y83733D01*
X105874D01*
X105926Y83742D01*
X105972Y83766D01*
X106013Y83807D01*
X106048Y83864D01*
X106078Y83937D01*
X106102Y84026D01*
X106121Y84131D01*
X106135Y84253D01*
X106146Y84546D01*
X107146D01*
X107148Y84391D01*
D02*
G37*
G36*
X103353Y84158D02*
X103321Y84116D01*
X103293Y84071D01*
X103268Y84022D01*
X103247Y83970D01*
X103230Y83914D01*
X103217Y83855D01*
X103208Y83793D01*
X103202Y83728D01*
X103200Y83658D01*
X102200D01*
X102198Y83728D01*
X102192Y83793D01*
X102183Y83855D01*
X102170Y83914D01*
X102153Y83970D01*
X102132Y84022D01*
X102107Y84071D01*
X102079Y84116D01*
X102047Y84158D01*
X102011Y84197D01*
X103389D01*
X103353Y84158D01*
D02*
G37*
G36*
X31589Y83273D02*
X31555Y83261D01*
X31525Y83240D01*
X31499Y83212D01*
X31477Y83175D01*
X31459Y83129D01*
X31445Y83076D01*
X31435Y83014D01*
X31429Y82944D01*
X31427Y82866D01*
X31027D01*
X31025Y82944D01*
X31019Y83014D01*
X31009Y83076D01*
X30995Y83129D01*
X30977Y83175D01*
X30955Y83212D01*
X30929Y83240D01*
X30899Y83261D01*
X30865Y83273D01*
X30827Y83277D01*
X31627D01*
X31589Y83273D01*
D02*
G37*
G36*
X16444Y83742D02*
X16361Y83655D01*
X16287Y83552D01*
X16223Y83436D01*
X16169Y83304D01*
X16124Y83158D01*
X16123Y83153D01*
X16125Y83149D01*
X16147Y83123D01*
X16170Y83102D01*
X16110Y83093D01*
X16090Y82998D01*
X16065Y82822D01*
X16051Y82632D01*
X16046Y82428D01*
X14846D01*
X14841Y82632D01*
X14826Y82822D01*
X14817Y82887D01*
X14809Y82886D01*
X14815Y82898D01*
X14801Y82998D01*
X14767Y83158D01*
X14723Y83304D01*
X14668Y83436D01*
X14604Y83552D01*
X14530Y83655D01*
X14447Y83742D01*
X14353Y83815D01*
X16538D01*
X16444Y83742D01*
D02*
G37*
G36*
X39802Y82196D02*
X39808Y82126D01*
X39818Y82064D01*
X39832Y82011D01*
X39850Y81966D01*
X39872Y81929D01*
X39898Y81900D01*
X39928Y81879D01*
X39962Y81867D01*
X40000Y81863D01*
X39200D01*
X39238Y81867D01*
X39272Y81879D01*
X39302Y81900D01*
X39328Y81929D01*
X39350Y81966D01*
X39368Y82011D01*
X39382Y82064D01*
X39392Y82126D01*
X39398Y82196D01*
X39400Y82275D01*
X39800D01*
X39802Y82196D01*
D02*
G37*
G36*
X31427Y82522D02*
X31431Y82489D01*
X31445Y82447D01*
X31467Y82397D01*
X31498Y82338D01*
X31588Y82195D01*
X31713Y82019D01*
X31874Y81808D01*
X30507Y81986D01*
X30606Y82062D01*
X30840Y82268D01*
X30897Y82329D01*
X30944Y82386D01*
X30980Y82439D01*
X31006Y82488D01*
X31022Y82534D01*
X31027Y82575D01*
X31427Y82522D01*
D02*
G37*
G36*
X17597Y81611D02*
X17577Y81628D01*
X17550Y81643D01*
X17518Y81656D01*
X17480Y81668D01*
X17436Y81678D01*
X17386Y81686D01*
X17268Y81696D01*
X17126Y81700D01*
Y82900D01*
X17200Y82901D01*
X17386Y82914D01*
X17436Y82922D01*
X17480Y82932D01*
X17518Y82944D01*
X17550Y82957D01*
X17577Y82972D01*
X17597Y82989D01*
Y81611D01*
D02*
G37*
G36*
X16323Y82972D02*
X16350Y82957D01*
X16382Y82944D01*
X16420Y82932D01*
X16464Y82922D01*
X16514Y82914D01*
X16632Y82904D01*
X16774Y82900D01*
Y81700D01*
X16700Y81699D01*
X16514Y81686D01*
X16464Y81678D01*
X16420Y81668D01*
X16382Y81656D01*
X16350Y81643D01*
X16323Y81628D01*
X16303Y81611D01*
Y82989D01*
X16323Y82972D01*
D02*
G37*
G36*
X22643Y80998D02*
X22574Y80926D01*
X22467Y80797D01*
X22428Y80739D01*
X22400Y80686D01*
X22382Y80638D01*
X22374Y80595D01*
X22376Y80556D01*
X22388Y80521D01*
X22410Y80492D01*
X21854Y81048D01*
X21883Y81026D01*
X21918Y81013D01*
X21957Y81011D01*
X22000Y81020D01*
X22049Y81038D01*
X22102Y81066D01*
X22159Y81104D01*
X22221Y81153D01*
X22288Y81212D01*
X22360Y81281D01*
X22643Y80998D01*
D02*
G37*
G36*
X105378Y81000D02*
X105368Y81095D01*
X105337Y81180D01*
X105287Y81255D01*
X105216Y81320D01*
X105125Y81375D01*
X105014Y81420D01*
X104882Y81455D01*
X104730Y81480D01*
X104558Y81495D01*
X104366Y81500D01*
Y82500D01*
X104558Y82505D01*
X104730Y82520D01*
X104882Y82545D01*
X105014Y82580D01*
X105125Y82625D01*
X105216Y82680D01*
X105287Y82745D01*
X105337Y82820D01*
X105368Y82905D01*
X105378Y83000D01*
Y81000D01*
D02*
G37*
G36*
X16051Y82068D02*
X16065Y81878D01*
X16090Y81703D01*
X16124Y81542D01*
X16136Y81503D01*
X16170Y81498D01*
X16147Y81477D01*
X16145Y81475D01*
X16169Y81396D01*
X16223Y81264D01*
X16287Y81147D01*
X16361Y81045D01*
X16444Y80958D01*
X16538Y80884D01*
X14353D01*
X14447Y80958D01*
X14530Y81045D01*
X14604Y81147D01*
X14668Y81264D01*
X14723Y81396D01*
X14767Y81542D01*
X14801Y81703D01*
X14826Y81878D01*
X14841Y82068D01*
X14846Y82272D01*
X16046D01*
X16051Y82068D01*
D02*
G37*
G36*
X31161Y80218D02*
X31026Y80208D01*
X30529Y80140D01*
X30465Y80123D01*
X30413Y80103D01*
X30372Y80083D01*
X30344Y80061D01*
X30040Y80323D01*
X30065Y80355D01*
X30086Y80398D01*
X30103Y80451D01*
X30117Y80515D01*
X30127Y80589D01*
X30133Y80674D01*
X30133Y80875D01*
X30119Y81120D01*
X31161Y80218D01*
D02*
G37*
G36*
X117268Y99713D02*
X117632Y98802D01*
X117612Y98772D01*
X117538Y98404D01*
Y97715D01*
X117612Y97346D01*
X117820Y97034D01*
Y96525D01*
X117612Y96213D01*
X117538Y95845D01*
Y95156D01*
X117612Y94787D01*
X117820Y94475D01*
X118133Y94266D01*
X118501Y94192D01*
X122143D01*
X122511Y94266D01*
X122824Y94475D01*
X123822Y94262D01*
X125560Y92524D01*
X125542Y92432D01*
Y90168D01*
X125638Y89684D01*
X125305Y88569D01*
X125252Y88538D01*
X125217Y88491D01*
X125162Y88468D01*
X124371Y87665D01*
X124349Y87610D01*
X124303Y87574D01*
X124030Y87090D01*
X123382Y86033D01*
X121859Y84069D01*
X120072Y82353D01*
X118055Y80915D01*
X115850Y79786D01*
X114670Y79386D01*
X114062Y80236D01*
X114162Y80384D01*
X114258Y80868D01*
Y83132D01*
X114162Y83616D01*
X113888Y84026D01*
X113478Y84300D01*
X113170Y84361D01*
Y96917D01*
X116056Y99802D01*
X117189D01*
X117268Y99713D01*
D02*
G37*
G36*
X101443Y95110D02*
X101567Y95037D01*
X101578Y95008D01*
Y86019D01*
X101357Y85797D01*
X101116Y85215D01*
Y84585D01*
X101357Y84003D01*
X101578Y83781D01*
Y83500D01*
X101578Y83500D01*
X101664Y83071D01*
X101907Y82707D01*
X103407Y81207D01*
X103771Y80964D01*
X104200Y80878D01*
X104838Y80384D01*
X105065Y80044D01*
X104990Y79792D01*
X104555Y79144D01*
X103734Y79360D01*
X101455Y80331D01*
X99342Y81624D01*
X97439Y83210D01*
X95788Y85056D01*
X94422Y87123D01*
X93372Y89367D01*
X93044Y90457D01*
X93230Y90752D01*
X93831Y91316D01*
X94215D01*
X94797Y91557D01*
X95243Y92003D01*
X95484Y92585D01*
Y93215D01*
X95470Y93250D01*
X95607Y93584D01*
X96154Y94192D01*
X99499D01*
X99867Y94266D01*
X100180Y94475D01*
X100389Y94787D01*
X101360Y95114D01*
X101443Y95110D01*
D02*
G37*
G36*
X40062Y79533D02*
X40028Y79521D01*
X39998Y79500D01*
X39972Y79471D01*
X39950Y79434D01*
X39932Y79389D01*
X39918Y79335D01*
X39913Y79308D01*
X39921Y79287D01*
X39946Y79238D01*
X39983Y79184D01*
X40029Y79126D01*
X40086Y79064D01*
X40230Y78927D01*
X40317Y78853D01*
X40415Y78774D01*
X39046Y78624D01*
X39132Y78731D01*
X39427Y79144D01*
X39459Y79202D01*
X39482Y79252D01*
X39491Y79281D01*
X39482Y79335D01*
X39468Y79389D01*
X39450Y79434D01*
X39428Y79471D01*
X39402Y79500D01*
X39372Y79521D01*
X39338Y79533D01*
X39300Y79537D01*
X40100D01*
X40062Y79533D01*
D02*
G37*
G36*
X31562Y75793D02*
X31528Y75781D01*
X31498Y75760D01*
X31472Y75731D01*
X31450Y75694D01*
X31432Y75649D01*
X31418Y75595D01*
X31408Y75533D01*
X31402Y75463D01*
X31400Y75385D01*
X31000D01*
X30998Y75463D01*
X30992Y75533D01*
X30982Y75595D01*
X30968Y75649D01*
X30950Y75694D01*
X30928Y75731D01*
X30902Y75760D01*
X30872Y75781D01*
X30838Y75793D01*
X30800Y75797D01*
X31600D01*
X31562Y75793D01*
D02*
G37*
G36*
X31101Y74918D02*
X31078Y74888D01*
X31057Y74846D01*
X31039Y74794D01*
X31023Y74730D01*
X31010Y74654D01*
X30992Y74470D01*
X30984Y74241D01*
X30984Y74110D01*
X30010Y75084D01*
X30141Y75084D01*
X30554Y75110D01*
X30630Y75123D01*
X30694Y75139D01*
X30746Y75157D01*
X30788Y75178D01*
X30818Y75201D01*
X31101Y74918D01*
D02*
G37*
G36*
X44496Y70704D02*
X44222Y70394D01*
X44178Y70331D01*
X44144Y70275D01*
X44120Y70225D01*
X44105Y70181D01*
X44100Y70143D01*
X43700D01*
X43695Y70181D01*
X43680Y70225D01*
X43656Y70275D01*
X43622Y70331D01*
X43578Y70394D01*
X43460Y70537D01*
X43304Y70704D01*
X43211Y70797D01*
X44589D01*
X44496Y70704D01*
D02*
G37*
G36*
X29304Y70008D02*
X29300Y70026D01*
X29291Y70041D01*
X29276Y70055D01*
X29255Y70067D01*
X29228Y70077D01*
X29194Y70085D01*
X29155Y70092D01*
X29109Y70096D01*
X29000Y70100D01*
Y70500D01*
X29058Y70501D01*
X29155Y70508D01*
X29194Y70515D01*
X29228Y70523D01*
X29255Y70533D01*
X29276Y70545D01*
X29291Y70559D01*
X29300Y70574D01*
X29304Y70591D01*
Y70008D01*
D02*
G37*
G36*
X33182Y69695D02*
X33171Y69660D01*
X33172Y69618D01*
X33185Y69570D01*
X33208Y69517D01*
X33243Y69458D01*
X33290Y69393D01*
X33347Y69321D01*
X33496Y69161D01*
X33210Y68883D01*
X33127Y68963D01*
X32978Y69089D01*
X32913Y69136D01*
X32854Y69171D01*
X32800Y69195D01*
X32752Y69207D01*
X32710Y69209D01*
X32674Y69199D01*
X32644Y69178D01*
X33204Y69725D01*
X33182Y69695D01*
D02*
G37*
G36*
X28637Y68453D02*
X28675Y68433D01*
X28726Y68413D01*
X28790Y68393D01*
X28954Y68354D01*
X29168Y68314D01*
X29432Y68275D01*
X28327Y67451D01*
X28345Y67574D01*
X28368Y67883D01*
X28367Y67966D01*
X28360Y68039D01*
X28349Y68102D01*
X28332Y68155D01*
X28311Y68199D01*
X28285Y68232D01*
X28610Y68473D01*
X28637Y68453D01*
D02*
G37*
G36*
X41554Y66962D02*
X41567Y66928D01*
X41587Y66898D01*
X41616Y66872D01*
X41653Y66850D01*
X41698Y66832D01*
X41752Y66818D01*
X41814Y66808D01*
X41884Y66802D01*
X41962Y66800D01*
Y66400D01*
X41884Y66398D01*
X41814Y66392D01*
X41752Y66382D01*
X41698Y66368D01*
X41653Y66350D01*
X41616Y66328D01*
X41587Y66302D01*
X41567Y66272D01*
X41554Y66238D01*
X41550Y66200D01*
Y67000D01*
X41554Y66962D01*
D02*
G37*
G36*
X37650Y66100D02*
X37646Y66138D01*
X37633Y66172D01*
X37613Y66202D01*
X37584Y66228D01*
X37547Y66250D01*
X37502Y66268D01*
X37448Y66282D01*
X37386Y66292D01*
X37316Y66298D01*
X37238Y66300D01*
Y66700D01*
X37316Y66702D01*
X37386Y66708D01*
X37448Y66718D01*
X37502Y66732D01*
X37547Y66750D01*
X37584Y66772D01*
X37613Y66798D01*
X37633Y66828D01*
X37646Y66862D01*
X37650Y66900D01*
Y66100D01*
D02*
G37*
G36*
X31415Y61332D02*
X31389Y61299D01*
X31368Y61255D01*
X31351Y61202D01*
X31340Y61139D01*
X31333Y61066D01*
X31332Y60983D01*
X31335Y60890D01*
X31355Y60674D01*
X31373Y60551D01*
X30268Y61375D01*
X30406Y61395D01*
X30974Y61513D01*
X31025Y61533D01*
X31064Y61553D01*
X31090Y61573D01*
X31415Y61332D01*
D02*
G37*
G36*
X51984Y101059D02*
X52010Y100646D01*
X52023Y100570D01*
X52039Y100506D01*
X52057Y100454D01*
X52078Y100412D01*
X52101Y100382D01*
X51818Y100099D01*
X51788Y100122D01*
X51746Y100143D01*
X51694Y100161D01*
X51630Y100177D01*
X51554Y100190D01*
X51370Y100208D01*
X51141Y100216D01*
X51010Y100216D01*
X51984Y101190D01*
X51984Y101059D01*
D02*
G37*
G36*
X52396Y88096D02*
X52706Y87822D01*
X52769Y87778D01*
X52825Y87744D01*
X52875Y87720D01*
X52919Y87705D01*
X52957Y87700D01*
Y87300D01*
X52919Y87295D01*
X52875Y87280D01*
X52825Y87256D01*
X52769Y87222D01*
X52706Y87178D01*
X52563Y87060D01*
X52396Y86904D01*
X52303Y86811D01*
Y88189D01*
X52396Y88096D01*
D02*
G37*
G36*
X54653Y86438D02*
X54680Y86418D01*
X54710Y86401D01*
X54744Y86386D01*
X54782Y86373D01*
X54824Y86363D01*
X54870Y86355D01*
X54919Y86349D01*
X55029Y86344D01*
Y85944D01*
X55002Y85943D01*
X54978Y85938D01*
X54957Y85930D01*
X54938Y85918D01*
X54922Y85903D01*
X54909Y85885D01*
X54899Y85864D01*
X54891Y85839D01*
X54886Y85811D01*
X54884Y85780D01*
X54630Y86460D01*
X54653Y86438D01*
D02*
G37*
G36*
X63296Y61504D02*
X63022Y61194D01*
X62978Y61131D01*
X62944Y61075D01*
X62920Y61025D01*
X62905Y60981D01*
X62900Y60943D01*
X62500D01*
X62495Y60981D01*
X62480Y61025D01*
X62456Y61075D01*
X62422Y61131D01*
X62378Y61194D01*
X62260Y61337D01*
X62104Y61504D01*
X62011Y61597D01*
X63389D01*
X63296Y61504D01*
D02*
G37*
G36*
X76712Y52878D02*
X76754Y52857D01*
X76806Y52839D01*
X76870Y52823D01*
X76946Y52810D01*
X77130Y52792D01*
X77359Y52784D01*
X77490Y52784D01*
X76516Y51810D01*
X76516Y51941D01*
X76490Y52354D01*
X76477Y52430D01*
X76461Y52494D01*
X76443Y52546D01*
X76422Y52588D01*
X76399Y52618D01*
X76682Y52901D01*
X76712Y52878D01*
D02*
G37*
G36*
X79705Y51219D02*
X79720Y51175D01*
X79744Y51125D01*
X79778Y51069D01*
X79822Y51006D01*
X79940Y50863D01*
X80096Y50696D01*
X80189Y50603D01*
X78811D01*
X78904Y50696D01*
X79178Y51006D01*
X79222Y51069D01*
X79256Y51125D01*
X79280Y51175D01*
X79295Y51219D01*
X79300Y51257D01*
X79700D01*
X79705Y51219D01*
D02*
G37*
G36*
X88012Y47178D02*
X88054Y47157D01*
X88106Y47139D01*
X88170Y47123D01*
X88246Y47110D01*
X88430Y47092D01*
X88659Y47084D01*
X88790Y47084D01*
X87816Y46110D01*
X87816Y46241D01*
X87790Y46654D01*
X87777Y46730D01*
X87761Y46794D01*
X87743Y46846D01*
X87722Y46888D01*
X87699Y46918D01*
X87982Y47201D01*
X88012Y47178D01*
D02*
G37*
G36*
X83117Y37109D02*
X83158Y37089D01*
X83211Y37070D01*
X83275Y37055D01*
X83350Y37042D01*
X83535Y37023D01*
X83764Y37016D01*
X83895Y37016D01*
X82921Y36042D01*
X82921Y36173D01*
X82895Y36586D01*
X82882Y36661D01*
X82866Y36725D01*
X82848Y36778D01*
X82827Y36820D01*
X82803Y36850D01*
X83086Y37133D01*
X83117Y37109D01*
D02*
G37*
G36*
X163681Y84708D02*
X163648Y84764D01*
X163600Y84813D01*
X163535Y84857D01*
X163454Y84895D01*
X163357Y84927D01*
X163244Y84953D01*
X163114Y84974D01*
X163107Y84974D01*
X163086Y84970D01*
X163030Y84953D01*
X162978Y84932D01*
X162929Y84907D01*
X162884Y84879D01*
X162842Y84847D01*
X162803Y84811D01*
Y84994D01*
X162628Y85000D01*
Y86000D01*
X162800Y86004D01*
X162803Y86004D01*
Y86189D01*
X162842Y86153D01*
X162884Y86121D01*
X162929Y86093D01*
X162978Y86068D01*
X163030Y86047D01*
X163080Y86032D01*
X163099Y86034D01*
X163227Y86061D01*
X163339Y86095D01*
X163437Y86136D01*
X163520Y86185D01*
X163588Y86242D01*
X163642Y86307D01*
X163681Y86378D01*
Y84708D01*
D02*
G37*
G36*
X169600Y74900D02*
X171700Y72800D01*
Y69400D01*
X170200Y67900D01*
X157900D01*
X157300Y68500D01*
X157300Y75182D01*
X163600Y83900D01*
X169600D01*
Y74900D01*
D02*
G37*
G36*
X155028Y53507D02*
X155017Y53562D01*
X154992Y53612D01*
X154955Y53656D01*
X154904Y53694D01*
X154840Y53727D01*
X154763Y53753D01*
X154672Y53774D01*
X154569Y53788D01*
X154452Y53797D01*
X154322Y53800D01*
Y54400D01*
X154442Y54403D01*
X154549Y54412D01*
X154644Y54427D01*
X154725Y54448D01*
X154792Y54475D01*
X154847Y54508D01*
X154888Y54547D01*
X154917Y54592D01*
X154932Y54643D01*
X154934Y54700D01*
X155028Y53507D01*
D02*
G37*
G36*
X151968Y54641D02*
X151987Y54590D01*
X152018Y54546D01*
X152061Y54507D01*
X152117Y54474D01*
X152185Y54448D01*
X152265Y54427D01*
X152358Y54412D01*
X152463Y54403D01*
X152580Y54400D01*
Y53800D01*
X152464Y53797D01*
X152359Y53788D01*
X152268Y53773D01*
X152188Y53752D01*
X152120Y53725D01*
X152065Y53692D01*
X152023Y53653D01*
X151992Y53608D01*
X151974Y53557D01*
X151968Y53500D01*
X151961Y54698D01*
X151968Y54641D01*
D02*
G37*
G36*
X157174Y53586D02*
X157134Y53556D01*
X157112Y53515D01*
X157109Y53465D01*
X157124Y53404D01*
X157157Y53333D01*
X157209Y53253D01*
X157279Y53162D01*
X157368Y53061D01*
X157475Y52950D01*
X156713Y52863D01*
X156613Y52959D01*
X156422Y53117D01*
X156332Y53178D01*
X156245Y53228D01*
X156162Y53265D01*
X156082Y53291D01*
X156006Y53306D01*
X155934Y53308D01*
X155865Y53299D01*
X157232Y53607D01*
X157174Y53586D01*
D02*
G37*
G36*
X167380Y53505D02*
X167339Y53473D01*
X167173Y53331D01*
X166757Y52932D01*
X166653Y52829D01*
X166105Y53130D01*
X166144Y53174D01*
X166173Y53220D01*
X166192Y53268D01*
X166202Y53318D01*
X166202Y53370D01*
X166192Y53424D01*
X166172Y53479D01*
X166143Y53536D01*
X166104Y53595D01*
X166056Y53656D01*
X167380Y53505D01*
D02*
G37*
G36*
X159749Y49538D02*
X159740Y49613D01*
X159712Y49680D01*
X159666Y49739D01*
X159601Y49790D01*
X159517Y49833D01*
X159415Y49869D01*
X159295Y49896D01*
X159155Y49916D01*
X158998Y49928D01*
X158821Y49931D01*
Y50731D01*
X158998Y50735D01*
X159155Y50747D01*
X159295Y50767D01*
X159415Y50794D01*
X159517Y50830D01*
X159601Y50873D01*
X159666Y50924D01*
X159712Y50983D01*
X159740Y51050D01*
X159749Y51125D01*
Y49538D01*
D02*
G37*
G36*
X157160Y51050D02*
X157188Y50983D01*
X157234Y50924D01*
X157299Y50873D01*
X157383Y50830D01*
X157485Y50794D01*
X157605Y50767D01*
X157745Y50747D01*
X157902Y50735D01*
X158079Y50731D01*
Y49931D01*
X157902Y49928D01*
X157745Y49916D01*
X157605Y49896D01*
X157485Y49869D01*
X157383Y49833D01*
X157299Y49790D01*
X157234Y49739D01*
X157188Y49680D01*
X157160Y49613D01*
X157151Y49538D01*
Y51125D01*
X157160Y51050D01*
D02*
G37*
G36*
X155049Y49538D02*
X155040Y49613D01*
X155012Y49680D01*
X154966Y49739D01*
X154901Y49790D01*
X154817Y49833D01*
X154715Y49869D01*
X154595Y49896D01*
X154455Y49916D01*
X154298Y49928D01*
X154121Y49931D01*
Y50731D01*
X154298Y50735D01*
X154455Y50747D01*
X154595Y50767D01*
X154715Y50794D01*
X154817Y50830D01*
X154901Y50873D01*
X154966Y50924D01*
X155012Y50983D01*
X155040Y51050D01*
X155049Y51125D01*
Y49538D01*
D02*
G37*
G36*
X151967Y51054D02*
X151986Y50986D01*
X152023Y50926D01*
X152077Y50875D01*
X152149Y50831D01*
X152240Y50795D01*
X152348Y50767D01*
X152474Y50747D01*
X152618Y50735D01*
X152780Y50731D01*
X152779Y49931D01*
X152601Y49928D01*
X152299Y49896D01*
X152175Y49869D01*
X152068Y49833D01*
X151980Y49790D01*
X151909Y49739D01*
X151857Y49680D01*
X151822Y49613D01*
X151805Y49538D01*
X151966Y51129D01*
X151967Y51054D01*
D02*
G37*
G36*
X149795Y49538D02*
X149778Y49613D01*
X149743Y49680D01*
X149691Y49739D01*
X149620Y49790D01*
X149532Y49833D01*
X149425Y49869D01*
X149301Y49896D01*
X149159Y49916D01*
X148999Y49928D01*
X148821Y49931D01*
X148819Y50731D01*
X148981Y50735D01*
X149126Y50747D01*
X149252Y50767D01*
X149360Y50795D01*
X149450Y50831D01*
X149523Y50875D01*
X149577Y50926D01*
X149614Y50986D01*
X149633Y51054D01*
X149634Y51129D01*
X149795Y49538D01*
D02*
G37*
G36*
X133067Y44101D02*
X133026Y44056D01*
X132990Y44006D01*
X132958Y43953D01*
X132932Y43897D01*
X132911Y43837D01*
X132895Y43773D01*
X132884Y43705D01*
X132878Y43634D01*
X132877Y43559D01*
X132881Y43481D01*
X131839Y44382D01*
X131918Y44389D01*
X131993Y44400D01*
X132064Y44414D01*
X132131Y44433D01*
X132195Y44455D01*
X132255Y44481D01*
X132311Y44510D01*
X132363Y44544D01*
X132412Y44581D01*
X132457Y44622D01*
X133067Y44101D01*
D02*
G37*
D14*
X146423Y14623D02*
G03*
X146423Y14623I-8500J0D01*
G01*
X25200Y67500D02*
G03*
X25200Y67500I-8500J0D01*
G01*
X146300Y176100D02*
G03*
X146300Y176100I-8500J0D01*
G01*
X93900Y95500D02*
X97678D01*
X106646Y84546D02*
X108700Y86600D01*
X106646Y82000D02*
Y84546D01*
X102700Y84900D02*
Y96318D01*
X100959Y98059D02*
X102700Y96318D01*
X93900Y92900D02*
Y95500D01*
X162000Y100900D02*
X166600D01*
X102700Y83500D02*
Y84900D01*
X104200Y82000D02*
X106600D01*
X102700Y83500D02*
X104200Y82000D01*
X102800Y107500D02*
X104300Y109000D01*
X106100D01*
X102800Y99900D02*
Y107500D01*
X100959Y98059D02*
X102800Y99900D01*
X97678Y98059D02*
X100959D01*
X162000Y106000D02*
X166600D01*
X162100Y85500D02*
X166600D01*
X162100Y95800D02*
X166562D01*
X162000Y95700D02*
X162100Y95800D01*
X166562D02*
X166583Y95780D01*
X181600Y116600D02*
X188000D01*
X189417Y111134D02*
Y115183D01*
X188000Y116600D02*
X189417Y115183D01*
D16*
X194500Y112200D02*
X195400Y113100D01*
X194500Y108800D02*
Y112200D01*
X190003Y109161D02*
X192361D01*
X193500Y110300D01*
Y113000D01*
X189417Y108575D02*
X190003Y109161D01*
X192301Y106602D02*
X194500Y108800D01*
X190003Y106602D02*
X192301D01*
X189417Y106016D02*
X190003Y106602D01*
X193500Y113000D02*
X195700Y115200D01*
X195400Y113100D02*
X198900D01*
X133154Y91300D02*
Y96254D01*
X130500Y91300D02*
X133154D01*
X174700Y150300D02*
X176900D01*
X173900Y149500D02*
X174700Y150300D01*
X165400Y149500D02*
X173900D01*
X133154Y96254D02*
X133200Y96300D01*
X166800Y53400D02*
Y54300D01*
X165700Y52300D02*
X166800Y53400D01*
X157700Y52300D02*
X165700D01*
X155900Y54100D02*
X157700Y52300D01*
X150800Y54100D02*
X155900D01*
D19*
X150800Y54072D02*
D03*
Y50528D02*
D03*
X161400Y154027D02*
D03*
Y150484D02*
D03*
X155900Y154027D02*
D03*
Y150484D02*
D03*
D31*
X160800Y50331D02*
D03*
Y54268D02*
D03*
X156100D02*
D03*
Y50331D02*
D03*
X176900Y150287D02*
D03*
Y154224D02*
D03*
D36*
X21154Y79300D02*
D03*
X15446D02*
D03*
X21154Y85400D02*
D03*
X15446D02*
D03*
X21154Y91500D02*
D03*
X15446D02*
D03*
X21154Y97500D02*
D03*
X15446D02*
D03*
X111854Y109000D02*
D03*
X106146D02*
D03*
X112354Y82000D02*
D03*
X106646D02*
D03*
X127446Y96300D02*
D03*
X133154D02*
D03*
X127446Y91300D02*
D03*
X133154D02*
D03*
D37*
X169400Y153043D02*
D03*
Y145957D02*
D03*
D74*
X62700Y57236D02*
Y62300D01*
Y57236D02*
X83905Y36032D01*
X79500Y49900D02*
Y52600D01*
X59200Y72900D02*
X79500Y52600D01*
X108700Y27200D02*
X154300Y72800D01*
X35600Y65100D02*
X73500Y27200D01*
X108700D01*
X32075Y70300D02*
X74275Y28100D01*
X108469D02*
X153400Y73031D01*
X74275Y28100D02*
X108469D01*
X128800Y140600D02*
X151100Y118300D01*
Y104600D02*
X157361Y98339D01*
X151100Y104600D02*
Y118300D01*
X152100Y107400D02*
Y118700D01*
Y107400D02*
X156043Y103457D01*
X129400Y141400D02*
X152100Y118700D01*
X153000Y110800D02*
X155225Y108575D01*
X153000Y110800D02*
Y119100D01*
X129800Y142300D02*
X153000Y119100D01*
X156043Y103457D02*
X166583D01*
X155225Y108575D02*
X166583D01*
X27400Y66500D02*
Y77400D01*
X28800Y65100D02*
X35600D01*
X35000Y68600D02*
Y85200D01*
X39500Y66500D02*
X39600Y66600D01*
X35000Y68600D02*
X37100Y66500D01*
X39500D01*
X39600Y66600D02*
X42900D01*
X43900Y67600D01*
X27400Y66500D02*
X28800Y65100D01*
X94500Y141800D02*
X96300D01*
X97500Y140600D01*
X128800D01*
X154300Y72800D02*
Y90800D01*
X145628Y99472D02*
X154300Y90800D01*
X145028Y98672D02*
X153400Y90300D01*
Y73031D02*
Y90300D01*
X63130Y108172D02*
X66300Y111342D01*
X63200Y112000D02*
Y112069D01*
X64700Y113569D01*
X67200Y132900D02*
X81400Y147100D01*
X67200Y111127D02*
Y132900D01*
X66267Y108667D02*
X67200Y111127D01*
X61500Y106100D02*
X63700D01*
X66267Y108667D01*
X66300Y111342D02*
Y133500D01*
X65500Y111900D02*
Y136000D01*
X63600Y110000D02*
X65500Y111900D01*
X61500Y110000D02*
X63600D01*
X66300Y133500D02*
X79600Y146800D01*
X64700Y139000D02*
X75100Y149400D01*
X65500Y136000D02*
X77700Y148200D01*
X64700Y113569D02*
Y139000D01*
X30400Y60600D02*
X31300Y61500D01*
X30400Y60400D02*
Y60600D01*
X104500Y142300D02*
X129800D01*
X100900Y141400D02*
X129400D01*
X30000Y74100D02*
X31200Y75300D01*
X30000Y74100D02*
Y74100D01*
X31200Y76933D02*
X31227Y76960D01*
X31200Y75300D02*
Y76933D01*
X25000Y112200D02*
X31300D01*
X23300Y110500D02*
X25000Y112200D01*
X31253Y62860D02*
X31300Y62813D01*
Y61500D02*
Y62813D01*
X28400Y68400D02*
X29300Y67500D01*
Y67300D02*
Y67500D01*
X28400Y68400D02*
Y69700D01*
X29000Y70300D01*
X31213D01*
X31253Y70340D01*
X27400Y77400D02*
X31100Y81100D01*
Y81200D01*
X31200D02*
X31227Y81227D01*
Y84440D01*
X27800Y90600D02*
X28000Y90800D01*
X31200D01*
X24900Y90600D02*
X27800D01*
X22900Y91500D02*
X25900Y94500D01*
X39573D01*
X21154Y91500D02*
X22900D01*
X27900Y98200D02*
X31300D01*
X28000Y104800D02*
X31300D01*
X27600Y104400D02*
X28000Y104800D01*
X25000Y104400D02*
X27600D01*
X25100Y98900D02*
X27200D01*
X27900Y98200D01*
X25300Y108500D02*
X39600D01*
X21154Y97500D02*
Y104354D01*
X25300Y108500D01*
X101500Y143300D02*
X103500D01*
X104500Y142300D01*
X99700Y142600D02*
X100900Y141400D01*
X98100Y142600D02*
X99700D01*
X157361Y98339D02*
X166583D01*
X127500Y91300D02*
Y91738D01*
X120322Y95500D02*
X123738D01*
X127500Y91738D01*
X125500Y96300D02*
X127400D01*
X123741Y98059D02*
X125500Y96300D01*
X120322Y98059D02*
X123741D01*
X60000Y74900D02*
Y84900D01*
Y74900D02*
X88800Y46100D01*
X39600Y80700D02*
Y85600D01*
X39700Y78100D02*
Y80573D01*
Y78100D02*
X39800Y78000D01*
X39573Y80700D02*
X39700Y80573D01*
X36800Y88400D02*
X39600Y85600D01*
X24154Y88400D02*
X36800D01*
X22200Y86700D02*
X22455D01*
X21154Y85400D02*
Y85654D01*
X22200Y86700D01*
X22455D02*
X24154Y88400D01*
X33800Y86400D02*
X35000Y85200D01*
X27762Y86400D02*
X33800D01*
X21154Y79792D02*
X27762Y86400D01*
X43900Y67600D02*
Y71500D01*
X21154Y79300D02*
Y79792D01*
X125828Y98672D02*
X145028D01*
X126828Y99472D02*
X145628D01*
X123123Y103177D02*
X126828Y99472D01*
X120322Y103177D02*
X123123D01*
X123882Y100618D02*
X125828Y98672D01*
X120322Y100618D02*
X123882D01*
X120300Y103200D02*
Y105400D01*
X116700Y109000D02*
X120300Y105400D01*
X111854Y109000D02*
X116700D01*
X115718Y100618D02*
X120318D01*
X112354Y97254D02*
X115718Y100618D01*
X112354Y82000D02*
Y97254D01*
X39807Y92300D02*
Y94266D01*
Y105700D02*
Y108293D01*
X39573Y94500D02*
X39807Y94266D01*
X39600Y108500D02*
X39807Y108293D01*
X59200Y72900D02*
Y84500D01*
X58400Y70900D02*
Y84000D01*
Y70900D02*
X77500Y51800D01*
X56200Y87500D02*
X59200Y84500D01*
X55034Y86149D02*
X56251D01*
X58400Y84000D01*
X51600Y87500D02*
X56200D01*
X53900Y85800D02*
X54244Y86144D01*
X55029D02*
X55034Y86149D01*
X54244Y86144D02*
X55029D01*
X55200Y89700D02*
X60000Y84900D01*
X51000Y101200D02*
X55200Y97000D01*
Y89700D02*
Y97000D01*
X81400Y147100D02*
Y149600D01*
X78900Y150700D02*
X79600Y150000D01*
Y146800D02*
Y150000D01*
D76*
X131900Y43500D02*
X138732Y50331D01*
X156100D02*
X160800D01*
X138732D02*
X156100D01*
D77*
X15446Y79346D02*
Y82400D01*
X15546Y82300D01*
X18200D01*
X15400Y85400D02*
X15446Y85446D01*
X15400Y91500D02*
X15446Y91546D01*
X15400Y79300D02*
X15446Y79346D01*
Y91546D02*
Y97500D01*
Y82400D02*
Y85400D01*
Y85446D02*
Y91500D01*
D78*
X149300Y17000D02*
D03*
X152000D02*
D03*
X154800D02*
D03*
X157400D02*
D03*
X149300Y19800D02*
D03*
X152000D02*
D03*
X154800D02*
D03*
X157400D02*
D03*
X149300Y22600D02*
D03*
X152000D02*
D03*
X154800D02*
D03*
X157400D02*
D03*
X62700Y62300D02*
D03*
X51500Y72300D02*
D03*
X56200Y69100D02*
D03*
X93600Y154000D02*
D03*
X110500Y95600D02*
D03*
X108500Y94000D02*
D03*
X106800Y95700D02*
D03*
X79500Y49900D02*
D03*
X83200Y48900D02*
D03*
X102200Y29800D02*
D03*
X66200Y39200D02*
D03*
X156600Y91100D02*
D03*
X137500Y43600D02*
D03*
X118700Y41300D02*
D03*
X116200D02*
D03*
X113700D02*
D03*
X111100D02*
D03*
X108700D02*
D03*
X118600Y43800D02*
D03*
X116100D02*
D03*
X113600D02*
D03*
X111100D02*
D03*
X108600D02*
D03*
X111500Y47800D02*
D03*
X156000Y79700D02*
D03*
X142500Y55000D02*
D03*
X61900Y103600D02*
D03*
Y91100D02*
D03*
Y88500D02*
D03*
Y78200D02*
D03*
Y80600D02*
D03*
X63130Y108172D02*
D03*
X63200Y112000D02*
D03*
X63000Y115900D02*
D03*
Y119800D02*
D03*
X61700Y93700D02*
D03*
Y98700D02*
D03*
Y96200D02*
D03*
X144400Y57100D02*
D03*
X146400Y59000D02*
D03*
X148400Y61000D02*
D03*
X166800Y54300D02*
D03*
X166000Y47800D02*
D03*
X163200D02*
D03*
X160500D02*
D03*
X157900D02*
D03*
X144000Y48100D02*
D03*
X142100Y46300D02*
D03*
X140200Y44400D02*
D03*
X131900Y43400D02*
D03*
X131600Y24100D02*
D03*
X102600Y16800D02*
D03*
X80400Y16700D02*
D03*
X93800Y16800D02*
D03*
X91200D02*
D03*
X88400D02*
D03*
X85700D02*
D03*
X83100D02*
D03*
X93800Y14000D02*
D03*
X91200D02*
D03*
X88400D02*
D03*
X85700D02*
D03*
X83100D02*
D03*
X80500D02*
D03*
X93800Y11200D02*
D03*
X91200D02*
D03*
X88400D02*
D03*
X85700D02*
D03*
X83100D02*
D03*
X80500D02*
D03*
X116100Y16800D02*
D03*
X113500D02*
D03*
X110700D02*
D03*
X108000D02*
D03*
X105400D02*
D03*
X116100Y14000D02*
D03*
X113500D02*
D03*
X110700D02*
D03*
X108000D02*
D03*
X105400D02*
D03*
X102800D02*
D03*
X116100Y11200D02*
D03*
X113500D02*
D03*
X110700D02*
D03*
X108000D02*
D03*
X105400D02*
D03*
X102800D02*
D03*
X169000Y140100D02*
D03*
X174500Y79100D02*
D03*
X96000Y144600D02*
D03*
X99400Y145800D02*
D03*
X15600Y82300D02*
D03*
X18300D02*
D03*
X30400Y60400D02*
D03*
X147900Y92500D02*
D03*
X194700Y122100D02*
D03*
Y125000D02*
D03*
Y127900D02*
D03*
X194600Y130700D02*
D03*
X191900Y122100D02*
D03*
Y125000D02*
D03*
Y127900D02*
D03*
Y130800D02*
D03*
Y133700D02*
D03*
X176600Y116200D02*
D03*
X179800Y124400D02*
D03*
Y130900D02*
D03*
X162700Y125000D02*
D03*
X168100Y116700D02*
D03*
X154900Y128800D02*
D03*
X160000Y125000D02*
D03*
X160100Y131600D02*
D03*
X165600Y134300D02*
D03*
Y128800D02*
D03*
X168200Y134300D02*
D03*
X162800Y128800D02*
D03*
Y131600D02*
D03*
X154800Y119500D02*
D03*
X162700D02*
D03*
Y116700D02*
D03*
X165500Y113900D02*
D03*
X157400Y119500D02*
D03*
X165500Y125000D02*
D03*
X160000Y122300D02*
D03*
X154800Y125000D02*
D03*
X157400Y113900D02*
D03*
Y125000D02*
D03*
X168100Y119500D02*
D03*
X160100Y128800D02*
D03*
X157500Y131600D02*
D03*
X165600D02*
D03*
X154900Y134300D02*
D03*
X154800Y116700D02*
D03*
X154900Y131600D02*
D03*
X162800Y134300D02*
D03*
X157400Y122300D02*
D03*
X168100D02*
D03*
X160000Y116700D02*
D03*
X168200Y128800D02*
D03*
X162700Y113900D02*
D03*
X160100Y134300D02*
D03*
X162700Y122300D02*
D03*
X154800Y113900D02*
D03*
X168200Y131600D02*
D03*
X154800Y122300D02*
D03*
X168100Y125000D02*
D03*
X160000Y119500D02*
D03*
X157400Y116700D02*
D03*
X165500Y122300D02*
D03*
X160000Y113900D02*
D03*
X165500Y116700D02*
D03*
X168100Y113900D02*
D03*
X157500Y134300D02*
D03*
X165500Y119500D02*
D03*
X157500Y128800D02*
D03*
X146200Y139400D02*
D03*
X143400D02*
D03*
X135500D02*
D03*
X140700D02*
D03*
X138100D02*
D03*
X139300Y142100D02*
D03*
X144800D02*
D03*
X136700D02*
D03*
X134100D02*
D03*
X142000D02*
D03*
X146200Y145000D02*
D03*
X138100D02*
D03*
X135500D02*
D03*
X140700D02*
D03*
X143400D02*
D03*
X130500Y91300D02*
D03*
X108700Y86500D02*
D03*
X30000Y74100D02*
D03*
X94100Y99700D02*
D03*
X100100Y108100D02*
D03*
X137000Y147700D02*
D03*
X139600D02*
D03*
X142200D02*
D03*
X144900D02*
D03*
X147700D02*
D03*
X140600Y153400D02*
D03*
X144100Y150500D02*
D03*
X141400D02*
D03*
X138800D02*
D03*
X51500Y78200D02*
D03*
Y75300D02*
D03*
X50100Y64200D02*
D03*
X4300Y91900D02*
D03*
X9500Y103000D02*
D03*
X4300Y94700D02*
D03*
X9500D02*
D03*
X4300Y97500D02*
D03*
Y103000D02*
D03*
X6900Y97500D02*
D03*
X9500D02*
D03*
X6900Y103000D02*
D03*
Y100300D02*
D03*
X9500Y91900D02*
D03*
Y100300D02*
D03*
X6900Y91900D02*
D03*
X4300Y100300D02*
D03*
X6900Y94700D02*
D03*
X7000Y89200D02*
D03*
X4200D02*
D03*
Y78100D02*
D03*
X9600Y86500D02*
D03*
X7000Y80900D02*
D03*
X9600Y89200D02*
D03*
Y83700D02*
D03*
X4200D02*
D03*
X7000D02*
D03*
X4200Y86500D02*
D03*
X9600Y80900D02*
D03*
X7000Y78100D02*
D03*
X4200Y80900D02*
D03*
X7000Y86500D02*
D03*
X9600Y78100D02*
D03*
X181000Y60500D02*
D03*
X183600D02*
D03*
X186200D02*
D03*
X188900D02*
D03*
X191700D02*
D03*
X194300D02*
D03*
X181000Y63300D02*
D03*
X183600D02*
D03*
X186200D02*
D03*
X188900D02*
D03*
X191700D02*
D03*
X194300D02*
D03*
X183600Y66100D02*
D03*
X186200D02*
D03*
X188900D02*
D03*
X191700D02*
D03*
X194300D02*
D03*
X183600Y68900D02*
D03*
X186200D02*
D03*
X188900D02*
D03*
X191700D02*
D03*
X194300D02*
D03*
Y71600D02*
D03*
X191700D02*
D03*
X188900D02*
D03*
X186200D02*
D03*
X183600D02*
D03*
X112800Y173200D02*
D03*
X115400D02*
D03*
X118000D02*
D03*
X120700D02*
D03*
X123500D02*
D03*
X126100D02*
D03*
X73000Y52900D02*
D03*
X70600Y55300D02*
D03*
X68400Y57600D02*
D03*
X65900Y59800D02*
D03*
X44200Y95500D02*
D03*
Y92100D02*
D03*
Y88600D02*
D03*
X29300Y67300D02*
D03*
X45200Y116900D02*
D03*
X42400D02*
D03*
X159700Y139400D02*
D03*
X157000Y139500D02*
D03*
X165300Y139400D02*
D03*
X159700Y142200D02*
D03*
X157000D02*
D03*
X162200Y139400D02*
D03*
X112800Y167500D02*
D03*
X115400D02*
D03*
X118000D02*
D03*
X120700D02*
D03*
X123500D02*
D03*
X126100D02*
D03*
X112800Y170300D02*
D03*
X115400D02*
D03*
X118000D02*
D03*
X120700D02*
D03*
X123500D02*
D03*
X126100D02*
D03*
X112800Y175900D02*
D03*
X115400D02*
D03*
X118000D02*
D03*
X120700D02*
D03*
X123500D02*
D03*
X126100D02*
D03*
X112800Y178700D02*
D03*
X115400D02*
D03*
X118000D02*
D03*
X120700D02*
D03*
X123500D02*
D03*
X126100D02*
D03*
Y181400D02*
D03*
X123500D02*
D03*
X120700D02*
D03*
X118000D02*
D03*
X115400D02*
D03*
X112800D02*
D03*
X200300Y81800D02*
D03*
X201700Y84300D02*
D03*
X199000Y107000D02*
D03*
X198000Y109500D02*
D03*
X165400Y149500D02*
D03*
X93900Y95600D02*
D03*
X31100Y81200D02*
D03*
X151600Y88600D02*
D03*
X149800Y90500D02*
D03*
X105200Y87700D02*
D03*
X102700Y84900D02*
D03*
X24900Y90600D02*
D03*
X25000Y104400D02*
D03*
X18500Y102300D02*
D03*
X147900Y156800D02*
D03*
X152300D02*
D03*
X155900Y156700D02*
D03*
X18500Y99700D02*
D03*
Y104900D02*
D03*
X90500Y150400D02*
D03*
X98000Y84700D02*
D03*
X100300Y83000D02*
D03*
X115700Y82300D02*
D03*
X121000Y85100D02*
D03*
X118300Y85000D02*
D03*
X115600D02*
D03*
X174400Y160900D02*
D03*
X152300Y153500D02*
D03*
X158500Y153700D02*
D03*
X93900Y92900D02*
D03*
X101500Y143300D02*
D03*
X94500Y141800D02*
D03*
X98100Y142600D02*
D03*
X162000Y100900D02*
D03*
X25100Y98900D02*
D03*
X109500Y101900D02*
D03*
X106500Y101400D02*
D03*
X23300Y110500D02*
D03*
X39807Y92300D02*
D03*
X86473Y39943D02*
D03*
X88200Y38000D02*
D03*
X91100Y37800D02*
D03*
X83905Y36032D02*
D03*
X42800Y111000D02*
D03*
X45100Y109000D02*
D03*
X43100Y107000D02*
D03*
X43900Y71500D02*
D03*
X94930Y34842D02*
D03*
X39807Y78000D02*
D03*
Y105700D02*
D03*
X99700Y31200D02*
D03*
X96800Y32400D02*
D03*
X92981Y33121D02*
D03*
X61500Y110000D02*
D03*
Y106100D02*
D03*
X88800Y46100D02*
D03*
X101355Y153775D02*
D03*
X77500Y51800D02*
D03*
X52700Y90600D02*
D03*
X53900Y85800D02*
D03*
X51000Y101200D02*
D03*
X61500Y113900D02*
D03*
Y117900D02*
D03*
X75100Y149400D02*
D03*
X77700Y148200D02*
D03*
X81400Y149600D02*
D03*
X78900Y150700D02*
D03*
X98400Y153800D02*
D03*
X90000Y154500D02*
D03*
X51600Y87500D02*
D03*
X162000Y106000D02*
D03*
Y95700D02*
D03*
X162100Y85500D02*
D03*
X161900Y69600D02*
D03*
X159000Y69700D02*
D03*
X168900Y69600D02*
D03*
X197200Y82100D02*
D03*
X198900Y84200D02*
D03*
X195400Y84100D02*
D03*
X200500Y109500D02*
D03*
X201500Y107000D02*
D03*
X196400D02*
D03*
X198900Y113100D02*
D03*
X181700Y116500D02*
D03*
X195700Y115200D02*
D03*
X200600Y102400D02*
D03*
X197000Y102500D02*
D03*
X200700Y95600D02*
D03*
X197000Y95700D02*
D03*
X200600Y87900D02*
D03*
X196900D02*
D03*
X202400Y90000D02*
D03*
X202600Y93800D02*
D03*
X195300Y100400D02*
D03*
X194400Y93900D02*
D03*
X198800Y90000D02*
D03*
X195100D02*
D03*
X198800Y93800D02*
D03*
X202400Y100400D02*
D03*
X198700D02*
D03*
D80*
X31253Y70340D02*
D03*
X39600Y66600D02*
D03*
X31253Y62860D02*
D03*
X31227Y98240D02*
D03*
X39573Y94500D02*
D03*
X31227Y90760D02*
D03*
X31253Y112240D02*
D03*
X39600Y108500D02*
D03*
X31253Y104760D02*
D03*
X31227Y76960D02*
D03*
X39573Y80700D02*
D03*
X31227Y84440D02*
D03*
D81*
X97678Y103177D02*
D03*
Y100618D02*
D03*
Y98059D02*
D03*
Y95500D02*
D03*
Y92941D02*
D03*
Y90382D02*
D03*
Y87823D02*
D03*
X120322D02*
D03*
Y100618D02*
D03*
Y103177D02*
D03*
Y98059D02*
D03*
Y95500D02*
D03*
Y92941D02*
D03*
Y90382D02*
D03*
D82*
X178000Y94500D02*
D03*
D83*
X166583Y111134D02*
D03*
X166583Y108575D02*
D03*
X166583Y106016D02*
D03*
X166583Y103457D02*
D03*
X166583Y100898D02*
D03*
X166583Y98339D02*
D03*
X166583Y95780D02*
D03*
X166583Y93221D02*
D03*
X166583Y90661D02*
D03*
X166583Y88102D02*
D03*
Y85543D02*
D03*
X166583Y82984D02*
D03*
Y80425D02*
D03*
X166583Y77866D02*
D03*
X189417Y77866D02*
D03*
X189417Y80425D02*
D03*
X189417Y82984D02*
D03*
X189417Y85543D02*
D03*
X189417Y88102D02*
D03*
X189417Y90661D02*
D03*
X189417Y93221D02*
D03*
X189417Y95780D02*
D03*
X189417Y98339D02*
D03*
X189417Y100898D02*
D03*
Y103457D02*
D03*
X189417Y106016D02*
D03*
Y108575D02*
D03*
X189417Y111134D02*
D03*
M02*
